<?xml version="1.0" encoding="utf-8"?>
<!-- Generator: Adobe Illustrator 23.0.5, SVG Export Plug-In . SVG Version: 6.00 Build 0)  -->
<svg version="1.1" id="Layer_1" xmlns="http://www.w3.org/2000/svg" xmlns:xlink="http://www.w3.org/1999/xlink" x="0px" y="0px"
	 viewBox="0 0 53 53" style="enable-background:new 0 0 53 53;" xml:space="preserve">
<style type="text/css">
	.st0{display:none;}
	.st1{display:inline;}
</style>
<g class="st0">
	<path class="st1" d="M20.2,24.1c0.2,0,0.3,0,0.5,0c0.1,0,0.1,0,0.1,0.1v0.1l0,0c0,0.1,0,0.2,0,0.4l0,0l0,0l0,0l0,0
		c0-0.1,0-0.2,0-0.3l0,0l0,0c0,0.2,0,0.3,0,0.5c0,0.1,0,0.1-0.1,0.1c-0.2,0-0.5,0-0.7,0c-0.1,0-0.1,0-0.1-0.1c0-0.2,0-0.3,0-0.5l0,0
		l0,0l0,0v0.1l0,0l0,0l0,0v-0.1v-0.1c0,0,0,0,0.1,0C19.9,24.1,20.1,24.1,20.2,24.1z M20.6,24.4L20.6,24.4
		C20.6,24.4,20.6,24.3,20.6,24.4c0-0.1,0-0.1,0-0.1l0,0c-0.1,0-0.1,0-0.2,0l0,0c-0.1,0-0.1,0-0.2,0l0,0c0,0-0.1,0-0.2,0l0,0
		c0,0,0,0,0,0.1s0,0.1,0,0.2l0,0l0,0c0,0,0,0,0-0.1c0,0,0-0.1,0.1-0.1s0.1,0,0.2,0c0,0,0.1,0,0.1,0.1c0,0,0,0,0,0.1l0,0l0,0
		c0,0,0,0,0-0.1c0,0,0-0.1,0.1-0.1C20.5,24.3,20.5,24.4,20.6,24.4C20.5,24.5,20.5,24.5,20.6,24.4c0,0.1,0,0.1,0,0.1
		S20.6,24.5,20.6,24.4L20.6,24.4z M20.2,24.6c-0.1,0-0.2,0-0.3,0l0,0c0,0.1,0,0.1,0,0.2l0,0l0,0v-0.1l0.1-0.1c0.1,0,0.1,0,0.1,0.1
		v0.1l0,0l0,0c0,0,0,0,0-0.1C20.2,24.7,20.2,24.7,20.2,24.6c0.1,0.1,0.2,0.1,0.3,0.1s0.1,0,0.1,0.1c0,0,0,0,0,0.1l0,0l0,0
		c0-0.1,0-0.1,0-0.2l0,0C20.4,24.6,20.3,24.6,20.2,24.6z M20.4,24.9L20.4,24.9c0.2,0,0.1,0,0.1-0.1c0,0,0-0.1-0.1-0.1
		c-0.1,0-0.1,0-0.2,0c0,0,0,0-0.1,0.1c0,0,0,0,0,0.1l0,0C20.3,24.9,20.3,24.9,20.4,24.9z M20.2,24.6c0.1,0,0.2,0,0.3,0h0.1l0,0l0,0
		l0,0c-0.2,0-0.4,0-0.7,0l0,0l0,0l0,0l0,0C20,24.6,20.1,24.6,20.2,24.6z M20.1,24.5L20.1,24.5L20.1,24.5c0.1,0,0.1,0,0.1-0.1l0,0
		h-0.1c-0.1,0-0.1,0-0.1,0.1C19.9,24.5,19.9,24.5,20.1,24.5C20,24.5,20,24.5,20.1,24.5z M20.1,24.2C20.1,24.1,20.1,24.1,20.1,24.2
		C20,24.1,20,24.1,20.1,24.2c-0.2-0.1-0.2,0-0.2,0C19.9,24.3,20,24.3,20.1,24.2L20.1,24.2z M20.4,24.1
		C20.3,24.1,20.3,24.1,20.4,24.1c-0.1,0.1,0,0.2,0,0.2C20.5,24.3,20.5,24.2,20.4,24.1C20.5,24.1,20.5,24.1,20.4,24.1L20.4,24.1z
		 M19.8,24.1C19.7,24.1,19.7,24.1,19.8,24.1c-0.1,0.1,0,0.2,0,0.2C19.9,24.3,19.9,24.2,19.8,24.1C19.9,24.1,19.8,24.1,19.8,24.1
		L19.8,24.1z M20.6,24.1L20.6,24.1L20.6,24.1L20.6,24.1c-0.1,0-0.1,0.1-0.1,0.1l0.1,0.1C20.7,24.3,20.7,24.2,20.6,24.1
		C20.7,24.1,20.7,24.1,20.6,24.1L20.6,24.1z M20.2,24.1C20.1,24.1,20.1,24.1,20.2,24.1c-0.1,0.1-0.1,0.1-0.1,0.1s0,0.1,0.1,0.1
		S20.3,24.2,20.2,24.1C20.3,24.1,20.3,24.1,20.2,24.1L20.2,24.1z M20.1,24.8L20.1,24.8C20.1,24.7,20.1,24.7,20.1,24.8
		c-0.1-0.1-0.1,0-0.1,0C19.9,24.9,19.9,24.9,20.1,24.8C20,24.9,20,24.9,20.1,24.8C20.1,24.9,20.1,24.9,20.1,24.8z M20.4,24.5
		L20.4,24.5C20.4,24.5,20.5,24.5,20.4,24.5C20.5,24.5,20.5,24.5,20.4,24.5c0.1-0.1,0.1-0.1,0-0.1l0,0C20.3,24.4,20.3,24.4,20.4,24.5
		C20.3,24.5,20.3,24.5,20.4,24.5L20.4,24.5z"/>
	<path class="st1" d="M20.2,25.1c-0.2,0-0.3,0-0.5,0h-0.1V25c0,0,0,0,0-0.1s0-0.3,0-0.4l0,0l0,0l0,0c0,0.1,0,0.3,0,0.4l0,0
		c0.3,0,0.6,0,0.8,0l0,0v-0.1l0,0l0,0c0,0.1,0,0.1,0,0.2l0,0v0.1c0,0,0,0-0.1,0C20.5,25.1,20.4,25.1,20.2,25.1z M20.2,25.1
		c0.2,0,0.3,0,0.5,0l0,0c0,0,0,0,0-0.1l0,0h-0.1C20.4,25,20.3,25,20.2,25.1C20,25,19.9,25,19.7,25l0,0l0,0
		C19.9,25.1,20.1,25.1,20.2,25.1z"/>
</g>
<g class="st0">
	<path class="st1" d="M18.3,24.8c0,0.1,0,0.2,0,0.3c0,0.1,0,0.1-0.1,0.1s-0.3,0-0.4,0c-0.1,0-0.1,0-0.1-0.1c0-0.1,0-0.1,0-0.2l0,0
		l0,0c0,0.1,0,0.1,0,0.2c0,0,0,0.1,0.1,0.1c0.1,0,0.3,0,0.4,0c0,0,0.1,0,0.1-0.1c0-0.2,0-0.4,0-0.6c0,0,0-0.1-0.1-0.1s-0.3,0-0.4,0
		c-0.1,0-0.1,0-0.1,0.1c0,0.1,0,0.1,0,0.2l0,0l0,0c0-0.1,0-0.1,0-0.2c-0.1-0.1-0.1-0.1,0-0.1s0.3,0,0.4,0s0.1,0,0.1,0.1
		C18.3,24.6,18.3,24.7,18.3,24.8L18.3,24.8z"/>
	<path class="st1" d="M18,24.8c-0.1,0-0.3,0-0.4,0c0,0,0,0-0.1,0l0,0l0,0l0,0C17.6,24.7,17.8,24.7,18,24.8
		C17.9,24.7,17.9,24.7,18,24.8C17.9,24.7,17.9,24.7,18,24.8c-0.1-0.1-0.1-0.2-0.1-0.2s0,0,0-0.1c0,0,0,0,0.1,0
		C17.9,24.6,18,24.7,18,24.8C18.1,24.8,18.1,24.8,18,24.8c0,0.1,0,0.1-0.1,0.2c0,0,0,0-0.1,0c0,0,0,0,0-0.1
		C17.9,24.9,17.9,24.9,18,24.8z"/>
</g>
<g>
	<path d="M26.4,51c-3.8,0-7.7,0-11.5,0c-5,0-7.7-2.7-7.6-7.7c0-3.8,0.5-7.4,2.3-10.8c1.3-2.3,3.2-3.7,5.8-4.2c1.2-0.2,2.1,0.2,3,0.8
		c1.8,1.3,3.7,2.2,5.8,2.6c3.1,0.6,6-0.1,8.7-1.6c0.3-0.2,0.6-0.4,0.9-0.6c2.8-1.9,6.1-1.4,8.2,1.3c1.7,2.1,2.6,4.6,3,7.2
		c0.4,2.2,0.6,4.3,0.5,6.5c-0.2,3.6-3,6.4-7.2,6.4C34.4,51.1,30.4,51,26.4,51z"/>
	<path d="M16,19.6c0-5.8,4.6-10.4,10.5-10.4C32.3,9.3,37,14,37,19.7c-0.1,5.8-4.8,10.5-10.6,10.5C20.7,30.3,16,25.5,16,19.6z"/>
	<path d="M0.4,24.5c0-1.8,0.2-3.6,0.7-5.4c0.2-0.6,0.4-1.3,0.8-1.8c0.8-1.1,1.6-1.4,2.9-0.7c2.1,1.1,4.2,2,6.7,1.9
		c0.8,0,1.5-0.2,2.3-0.4c0.6-0.2,0.9,0,0.8,0.6c-0.2,2.6,0.3,5.1,1.7,7.4c0.3,0.5,0,0.7-0.4,0.7c-2.4,0.3-4.5,1.3-6.1,3.1
		c-0.2,0.3-0.6,0.4-0.9,0.4c-1.6,0-3.2,0.2-4.8-0.3C1.6,29.4,0.1,28.3,0.4,24.5z"/>
	<path d="M45.5,30.2c-1.1,0.2-2.1-0.1-3.1-1.1c-1.4-1.4-3.2-2.1-5.2-2.4c-0.8-0.1-0.9-0.3-0.5-1c1.3-2.1,1.8-4.5,1.7-6.9
		c0-0.8,0.2-1,0.9-0.8c3.1,0.9,5.9,0,8.6-1.4c1.4-0.8,2.4-0.5,3.3,0.9c0.4,0.6,0.6,1.4,0.8,2.1c0.5,1.9,0.6,3.8,0.6,5.7
		c0,2.7-1.4,4.3-4.1,4.7C47.6,30.2,46.7,30.3,45.5,30.2z"/>
	<path d="M10.8,16.3c-3.9,0-7-3.2-7-7C3.8,5.3,7,2.3,11,2.3c3.9,0,6.9,3.1,6.9,7.1C17.8,13.3,14.7,16.3,10.8,16.3z"/>
	<path d="M42.2,2.3c3.9,0,6.9,3.1,6.9,7.1c0,3.9-3.1,6.9-7.1,6.9c-3.9,0-7-3.2-7-7C35,5.4,38.2,2.3,42.2,2.3z"/>
</g>
</svg>
