<?xml version="1.0" encoding="utf-8"?>
<!-- Generator: Adobe Illustrator 23.0.5, SVG Export Plug-In . SVG Version: 6.00 Build 0)  -->
<svg version="1.1" id="Layer_1" xmlns="http://www.w3.org/2000/svg" xmlns:xlink="http://www.w3.org/1999/xlink" x="0px" y="0px"
	 viewBox="0 0 53 53" style="enable-background:new 0 0 53 53;" xml:space="preserve">
<style type="text/css">
	.st0{display:none;}
	.st1{display:inline;}
	.st2{fill:#FFFFFF;}
</style>
<g class="st0">
	<path class="st1" d="M20.2,24.1c0.2,0,0.3,0,0.5,0c0.1,0,0.1,0,0.1,0.1v0.1l0,0c0,0.1,0,0.2,0,0.4l0,0l0,0l0,0l0,0
		c0-0.1,0-0.2,0-0.3l0,0l0,0c0,0.2,0,0.3,0,0.5c0,0.1,0,0.1-0.1,0.1c-0.2,0-0.5,0-0.7,0c-0.1,0-0.1,0-0.1-0.1c0-0.2,0-0.3,0-0.5l0,0
		l0,0l0,0v0.1l0,0l0,0l0,0v-0.1v-0.1c0,0,0,0,0.1,0C19.9,24.1,20.1,24.1,20.2,24.1z M20.6,24.4L20.6,24.4
		C20.6,24.4,20.6,24.3,20.6,24.4c0-0.1,0-0.1,0-0.1l0,0c-0.1,0-0.1,0-0.2,0l0,0c-0.1,0-0.1,0-0.2,0l0,0c0,0-0.1,0-0.2,0l0,0
		c0,0,0,0,0,0.1s0,0.1,0,0.2l0,0l0,0c0,0,0,0,0-0.1c0,0,0-0.1,0.1-0.1s0.1,0,0.2,0c0,0,0.1,0,0.1,0.1c0,0,0,0,0,0.1l0,0l0,0
		c0,0,0,0,0-0.1c0,0,0-0.1,0.1-0.1C20.5,24.3,20.5,24.4,20.6,24.4C20.5,24.5,20.5,24.5,20.6,24.4c0,0.1,0,0.1,0,0.1
		S20.6,24.5,20.6,24.4L20.6,24.4z M20.2,24.6c-0.1,0-0.2,0-0.3,0l0,0c0,0.1,0,0.1,0,0.2l0,0l0,0v-0.1l0.1-0.1c0.1,0,0.1,0,0.1,0.1
		v0.1l0,0l0,0c0,0,0,0,0-0.1C20.2,24.7,20.2,24.7,20.2,24.6c0.1,0.1,0.2,0.1,0.3,0.1s0.1,0,0.1,0.1c0,0,0,0,0,0.1l0,0l0,0
		c0-0.1,0-0.1,0-0.2l0,0C20.4,24.6,20.3,24.6,20.2,24.6z M20.4,24.9L20.4,24.9c0.2,0,0.1,0,0.1-0.1c0,0,0-0.1-0.1-0.1
		c-0.1,0-0.1,0-0.2,0c0,0,0,0-0.1,0.1c0,0,0,0,0,0.1l0,0C20.3,24.9,20.3,24.9,20.4,24.9z M20.2,24.6c0.1,0,0.2,0,0.3,0h0.1l0,0l0,0
		l0,0c-0.2,0-0.4,0-0.7,0l0,0l0,0l0,0l0,0C20,24.6,20.1,24.6,20.2,24.6z M20.1,24.5L20.1,24.5L20.1,24.5c0.1,0,0.1,0,0.1-0.1l0,0
		h-0.1c-0.1,0-0.1,0-0.1,0.1C19.9,24.5,19.9,24.5,20.1,24.5C20,24.5,20,24.5,20.1,24.5z M20.1,24.2C20.1,24.1,20.1,24.1,20.1,24.2
		C20,24.1,20,24.1,20.1,24.2c-0.2-0.1-0.2,0-0.2,0C19.9,24.3,20,24.3,20.1,24.2L20.1,24.2z M20.4,24.1
		C20.3,24.1,20.3,24.1,20.4,24.1c-0.1,0.1,0,0.2,0,0.2C20.5,24.3,20.5,24.2,20.4,24.1C20.5,24.1,20.5,24.1,20.4,24.1L20.4,24.1z
		 M19.8,24.1C19.7,24.1,19.7,24.1,19.8,24.1c-0.1,0.1,0,0.2,0,0.2C19.9,24.3,19.9,24.2,19.8,24.1C19.9,24.1,19.8,24.1,19.8,24.1
		L19.8,24.1z M20.6,24.1L20.6,24.1L20.6,24.1L20.6,24.1c-0.1,0-0.1,0.1-0.1,0.1l0.1,0.1C20.7,24.3,20.7,24.2,20.6,24.1
		C20.7,24.1,20.7,24.1,20.6,24.1L20.6,24.1z M20.2,24.1C20.1,24.1,20.1,24.1,20.2,24.1c-0.1,0.1-0.1,0.1-0.1,0.1s0,0.1,0.1,0.1
		S20.3,24.2,20.2,24.1C20.3,24.1,20.3,24.1,20.2,24.1L20.2,24.1z M20.1,24.8L20.1,24.8C20.1,24.7,20.1,24.7,20.1,24.8
		c-0.1-0.1-0.1,0-0.1,0C19.9,24.9,19.9,24.9,20.1,24.8C20,24.9,20,24.9,20.1,24.8C20.1,24.9,20.1,24.9,20.1,24.8z M20.4,24.5
		L20.4,24.5C20.4,24.5,20.5,24.5,20.4,24.5C20.5,24.5,20.5,24.5,20.4,24.5c0.1-0.1,0.1-0.1,0-0.1l0,0C20.3,24.4,20.3,24.4,20.4,24.5
		C20.3,24.5,20.3,24.5,20.4,24.5L20.4,24.5z"/>
	<path class="st1" d="M20.2,25.1c-0.2,0-0.3,0-0.5,0h-0.1V25c0,0,0,0,0-0.1s0-0.3,0-0.4l0,0l0,0l0,0c0,0.1,0,0.3,0,0.4l0,0
		c0.3,0,0.6,0,0.8,0l0,0v-0.1l0,0l0,0c0,0.1,0,0.1,0,0.2l0,0v0.1c0,0,0,0-0.1,0C20.5,25.1,20.4,25.1,20.2,25.1z M20.2,25.1
		c0.2,0,0.3,0,0.5,0l0,0c0,0,0,0,0-0.1l0,0h-0.1C20.4,25,20.3,25,20.2,25.1C20,25,19.9,25,19.7,25l0,0l0,0
		C19.9,25.1,20.1,25.1,20.2,25.1z"/>
</g>
<g class="st0">
	<path class="st1" d="M18.3,24.8c0,0.1,0,0.2,0,0.3c0,0.1,0,0.1-0.1,0.1s-0.3,0-0.4,0c-0.1,0-0.1,0-0.1-0.1c0-0.1,0-0.1,0-0.2l0,0
		l0,0c0,0.1,0,0.1,0,0.2c0,0,0,0.1,0.1,0.1c0.1,0,0.3,0,0.4,0c0,0,0.1,0,0.1-0.1c0-0.2,0-0.4,0-0.6c0,0,0-0.1-0.1-0.1s-0.3,0-0.4,0
		c-0.1,0-0.1,0-0.1,0.1c0,0.1,0,0.1,0,0.2l0,0l0,0c0-0.1,0-0.1,0-0.2c-0.1-0.1-0.1-0.1,0-0.1s0.3,0,0.4,0s0.1,0,0.1,0.1
		C18.3,24.6,18.3,24.7,18.3,24.8L18.3,24.8z"/>
	<path class="st1" d="M18,24.8c-0.1,0-0.3,0-0.4,0c0,0,0,0-0.1,0l0,0l0,0l0,0C17.6,24.7,17.8,24.7,18,24.8
		C17.9,24.7,17.9,24.7,18,24.8C17.9,24.7,17.9,24.7,18,24.8c-0.1-0.1-0.1-0.2-0.1-0.2s0,0,0-0.1c0,0,0,0,0.1,0
		C17.9,24.6,18,24.7,18,24.8C18.1,24.8,18.1,24.8,18,24.8c0,0.1,0,0.1-0.1,0.2c0,0,0,0-0.1,0c0,0,0,0,0-0.1
		C17.9,24.9,17.9,24.9,18,24.8z"/>
</g>
<path class="st2" d="M46.7,50.9c-1.5-1-2.9-2-4.4-3.1c-4.4-3.1-8.8-6.2-13.2-9.2c-0.4-0.3-0.9-0.3-1.4-0.4c-6.4,0-12.9-0.1-19.3,0
	c-3.9,0.1-6.8-2.4-7.8-5.3c-0.3-0.9-0.5-1.8-0.5-2.7c0-6.7,0-13.3,0-20c0-4.4,3.5-7.9,7.9-7.9c12.2,0,24.5,0,36.7,0
	c3.8,0,6.9,2.4,7.9,6c0.2,0.7,0.2,1.5,0.2,2.2c0,6.5,0,13,0,19.5c0,3.6-1.7,6.2-5,7.6c-0.7,0.3-1.5,0.4-2.2,0.5
	c-0.6,0.1-0.8,0.2-0.7,0.8c0.4,2.3,0.8,4.6,1.2,6.9c0.3,1.6,0.5,3.3,0.8,4.9C46.8,50.9,46.8,50.9,46.7,50.9z M41,35
	c1.1,0,2.1,0,3.1,0c0.7,0,1.5,0,2.1-0.2c2.3-0.7,3.4-2.3,3.4-4.8c0-6.4,0-12.9,0-19.3c0-0.6-0.1-1.3-0.3-1.9
	c-0.8-2.1-2.5-3.1-4.8-3.1c-12,0-24.1,0-36.1,0c-3,0-5.1,2-5.1,5.1c0,6.4,0,12.8,0,19.2c0,2.8,2.2,5.2,5.1,5.1
	c6.8-0.1,13.7,0,20.5,0c0.4,0,1,0.2,1.3,0.4c2.9,2,5.7,4,8.6,6c1.1,0.8,2.2,1.5,3.3,2.3c0.1,0,0.2-0.1,0.2-0.1
	C41.9,40.8,41.5,38,41,35z"/>
<path class="st2" d="M26.5,27.4c-4.8,0-9.6,0-14.5,0c-1,0-1.9-0.7-2.1-1.5c-0.3-1.1,0.1-2.1,1.1-2.5c0.3-0.1,0.6-0.2,1-0.2
	c9.7,0,19.3,0,29,0c1.2,0,2.2,0.9,2.2,2.1c0,1.2-1,2.1-2.3,2.1C36.2,27.4,31.3,27.4,26.5,27.4z"/>
<path class="st2" d="M26.6,12.7c4.8,0,9.6,0,14.4,0c1,0,1.7,0.3,2.1,1.3c0.6,1.3-0.3,2.8-1.7,3c-0.2,0-0.5,0-0.7,0
	c-9.4,0-18.8,0-28.2,0c-0.4,0-0.8,0-1.1-0.1c-1.1-0.4-1.6-1.3-1.4-2.5c0.1-0.9,1-1.6,2.1-1.6C16.9,12.7,21.7,12.7,26.6,12.7z"/>
</svg>
