<?xml version="1.0" encoding="utf-8"?>
<!-- Generator: Adobe Illustrator 23.0.5, SVG Export Plug-In . SVG Version: 6.00 Build 0)  -->
<svg version="1.1" id="Layer_1" xmlns="http://www.w3.org/2000/svg" xmlns:xlink="http://www.w3.org/1999/xlink" x="0px" y="0px"
	 viewBox="0 0 220 220" style="enable-background:new 0 0 220 220;" xml:space="preserve">
<style type="text/css">
	.st0{fill:#FBFDFF;}
</style>
<path class="st0" d="M0.1,129.3c0-5.9,0-11.7,0-17.6c0-7.6,3.6-12.8,10.9-15.3c1.9-0.7,2.5-1.7,2.7-3.7C16.9,52.4,46.3,17.5,86,8.5
	c48.9-11.1,96.9,16.4,112.1,64.2c2.1,6.7,3.5,13.5,4,20.5c0.1,1.8,0.8,2.4,2.6,2.7c9.5,1.5,15.1,8.1,15.1,17.6
	c0,10.5-0.4,21,0.1,31.4c0.6,11.2-9,17-16.9,17.1c-4.4,0.1-8.8,0-13.2,0c-9.4,0-15.5-5.6-15.7-14.9c-0.3-11.9-0.3-23.9,0-35.8
	c0.1-6.1,2.8-11.2,8.6-13.8c3.1-1.4,2-3.7,1.7-5.7c-1.8-12.8-6.5-24.6-14.4-34.9c-15.6-20.2-36.4-31-61.9-31.2
	c-37.7-0.3-70,27.6-75.9,64.9c-0.6,3.7-0.2,5.4,3.7,6.9c6.5,2.5,9.7,7.9,9.8,14.8c0.1,11.1,0.1,22.3,0,33.5
	c-0.1,8.5-5.2,14.4-14.1,15.8c-3.5,0.6-3.5,1.9-2.9,4.7c2.9,12.7,13.4,22.2,26.9,24.3c3.3,0.5,6.6,1.5,8.9-2.2
	c0.8-1.2,2.5-1.3,4.1-1.3c10.2,0,20.5,0,30.7,0c5.2,0,8.5,3.5,8.6,8.8c0,2.7,0.1,5.4,0,8.1c-0.1,4.1-2.3,6.7-6.3,7.7
	c-2.1,0.5-4.3,0.4-6.4,0.4c-8.2,0-16.4,0-24.7,0c-5.9,0-7.5-1.4-8.4-7.3c-0.3-2-1.5-1.8-2.9-2c-19.2-2-36.3-17.3-40-36.4
	c-0.7-3.6-2-4.3-5.4-4.4c-8-0.1-13.9-6.2-14-14.3C0,141.5,0.1,135.4,0.1,129.3z"/>
</svg>
