<?xml version="1.0" encoding="utf-8"?>
<!-- Generator: Adobe Illustrator 23.0.5, SVG Export Plug-In . SVG Version: 6.00 Build 0)  -->
<svg version="1.1" id="Layer_1" xmlns="http://www.w3.org/2000/svg" xmlns:xlink="http://www.w3.org/1999/xlink" x="0px" y="0px"
	 viewBox="0 0 7 7" style="enable-background:new 0 0 7 7;" xml:space="preserve">
<style type="text/css">
	.st0{fill:#FFFFFF;}
</style>
<path class="st0" d="M4.2,1.3c0,0,0-0.1,0-0.1c0-0.1,0.1-0.2,0.1-0.3c0,0,0.1-0.1,0.1-0.1c0,0,0.1-0.1,0.1-0.1C4.3,0.8,4.2,1,4,1.2
	C4,1.3,4,1.5,3.9,1.6c0,0.1,0,0.1,0,0.2C3.8,1.7,3.7,1.7,3.6,1.7c-0.2,0-0.3,0-0.5,0C2.8,1.8,2.5,2.1,2.5,2.4
	C2.4,2.8,2.6,3.1,2.9,3.3c0.3,0.2,0.6,0.2,0.9,0.1c0.1,0,0.1,0.1,0.2,0.1c0,0,0.1,0,0.1,0l0.1,0L4,3.5c0,0-0.1,0-0.1,0
	c-0.1,0-0.1-0.1-0.2-0.1l0,0l0,0c-0.1,0.1-0.3,0.1-0.4,0C3.2,3.3,3.1,3.3,3,3.2C2.8,3,2.6,2.7,2.7,2.5c0-0.3,0.2-0.5,0.5-0.6
	c0.2-0.1,0.3,0,0.5,0C3.8,2,3.9,2.1,4.1,2.2c0,0,0,0,0.1,0c0-0.2,0-0.3,0-0.5C4.1,1.6,4.1,1.4,4.2,1.3"/>
<path class="st0" d="M2.4,6.7c0.2-0.3,0.4-0.6,0.4-1l0-0.1l0.1,0.1c0.2,0.2,0.6,0.1,0.8,0C3.8,5.5,3.9,5.4,4,5.3
	C4.1,5.2,4.1,5,4.1,4.9c0-0.3-0.2-0.5-0.5-0.6c-0.1,0-0.3,0-0.4,0C3,4.3,2.8,4.4,2.7,4.5L2.6,4.6l0-0.1c0-0.1-0.1-0.3-0.2-0.4
	C2.4,3.9,2.3,3.8,2.1,3.8c0.2,0,0.3,0.1,0.4,0.2c0.1,0.1,0.2,0.3,0.2,0.5l-0.1,0C2.8,4.1,3.2,4,3.6,4.1c0.2,0,0.3,0.1,0.5,0.3
	c0.1,0.1,0.2,0.3,0.2,0.5c0.1,0.4-0.1,0.7-0.4,0.9C3.7,5.9,3.5,5.9,3.3,5.9C3.2,5.9,3,5.8,2.8,5.7L3,5.7C2.9,6.1,2.7,6.4,2.4,6.7"/>
<path class="st0" d="M0.5,4.9C0.5,4.9,0.5,4.9,0.5,4.9C0.5,4.9,0.5,4.9,0.5,4.9"/>
<path class="st0" d="M0.5,2.3C0.5,2.3,0.5,2.3,0.5,2.3C0.5,2.3,0.5,2.3,0.5,2.3"/>
<path class="st0" d="M2.8,0.4L2.8,0.4C2.8,0.5,2.7,0.5,2.8,0.4c0,0,0.1,0,0.2,0c0.1,0,0.2,0,0.2-0.1l0.1,0c0,0,0,0,0,0
	c0.1,0,0.1,0,0.1,0c0,0,0,0,0.1,0c0,0,0.1,0,0,0c0,0,0.1,0,0.1,0c0,0,0,0,0,0c0.1,0,0.1,0,0.2,0l0,0c0,0,0.1,0,0.1,0c0,0,0,0,0,0
	c0,0,0.1,0,0.1,0c0,0,0,0-0.1,0c0,0,0.1,0,0.1,0c0,0,0.1,0,0.2,0c0,0-0.1,0-0.1,0c0,0,0.1,0,0.1,0c0,0,0.1,0,0.1,0
	c0,0-0.2-0.1-0.1-0.1c0,0,0,0,0,0c0,0,0,0,0.1,0c0,0,0,0,0.1,0l0,0c0.1,0,0.1,0,0.1,0c0.1,0,0.1,0,0.1,0.1c0.1,0-0.1-0.1,0.1,0
	c0,0,0.1,0,0.1,0c0,0,0.1,0,0.2,0c0.1,0,0,0,0,0c0,0,0,0,0.1,0c0,0,0,0,0,0c0.1,0,0,0,0.1,0c0,0,0.1,0,0.1,0.1c0,0,0.1,0.1,0.1,0.1
	c0,0,0,0,0,0c0.1,0.1,0.1,0,0.2,0.1c0,0,0,0,0.1,0.1c0-0.1,0,0,0.1,0c0,0,0,0,0-0.1c0,0,0.1,0,0.1,0.1c0,0,0,0,0,0c0,0,0,0,0,0
	c0,0,0,0,0,0c0,0,0,0,0,0c0,0-0.1,0-0.1,0c0,0,0,0,0,0c0,0,0,0,0,0c0,0,0,0,0,0l0,0l0,0c0,0,0.1,0.1,0.1,0.1c0.1,0,0.1,0.1,0.2,0.1
	c0,0,0.1,0,0.1,0.1c0,0,0.1,0.1,0.1,0.1c0,0,0,0-0.1,0c0,0,0-0.1-0.1-0.1c0,0-0.1-0.1-0.1-0.1c0,0,0,0,0,0l0.1,0.1L6,1.5
	c0,0,0,0,0,0.1c0,0,0,0,0.1,0c0,0,0.1,0.1,0.1,0.1c0,0,0,0-0.1-0.1c0,0,0,0.1,0.1,0.1c0,0,0.1,0,0.1,0.1c0,0,0,0,0,0
	c0,0,0.1,0.1,0.1,0.1l0,0c0,0,0,0,0,0.1c0,0,0,0,0,0.1c0,0,0.1,0.1,0.1,0.1c0,0,0,0.1,0.1,0.1c0,0,0,0,0,0c0,0,0,0-0.1,0
	c0,0,0.1,0.1,0.1,0.1l0.1,0.1c0,0-0.1,0.1-0.1,0c0,0,0,0,0,0.1c0,0,0,0,0,0.1c0,0,0-0.1,0,0c0,0.1,0,0.1,0,0.2c0,0,0.1,0,0.1,0
	c0,0,0,0-0.1,0c0,0,0.1,0.1,0.1,0.1c0,0,0,0,0,0c0,0,0,0,0,0.1c0,0,0,0.1,0,0.1l0-0.1c0,0.1,0,0.1,0.1,0.1c0,0,0,0.1,0.1,0.2
	c0,0-0.1,0-0.1,0c0,0,0.1,0.2,0.2,0.3l0,0c0,0,0,0.1,0,0.1c0,0,0-0.1-0.1-0.2c0-0.1-0.1-0.1-0.1-0.2c0,0.1,0,0,0,0.1c0,0,0,0,0-0.1
	c0,0.1,0,0.1,0,0.2c0,0,0,0,0,0.1c0,0,0,0.1,0,0.1c0-0.1,0-0.1,0-0.2c0,0,0,0,0.1,0.1c0,0,0,0.1,0,0.1c0,0,0,0.1,0,0.1
	c0,0,0,0-0.1,0c0,0,0,0,0,0.1c0,0,0,0.1,0,0.1l0-0.1c0,0.1,0,0.1,0,0.2c0,0-0.1,0.1,0,0.1c0,0,0.1,0,0.2,0c0,0-0.1,0.2-0.1,0.2
	c0,0,0-0.1-0.1-0.1c0,0,0,0,0,0c0,0,0,0,0,0.1c0,0,0,0.1,0,0c0,0.1,0,0.1-0.1,0.2c0,0,0,0.1,0,0.2c0,0,0,0,0,0C6.6,5,6.6,5,6.6,5.1
	c0,0.1-0.1,0.1-0.1,0.2c0,0-0.1,0.1-0.1,0c0,0,0,0,0,0.1c-0.1,0.1,0-0.1,0,0c0,0,0,0.1-0.1,0.2c0,0,0.1-0.1,0.1-0.2c0,0,0,0,0,0.1
	c0,0,0,0.1-0.1,0.2c-0.1,0.1,0,0-0.1,0.1c0,0,0,0,0,0.1c0,0,0,0,0,0c0,0,0,0.1,0,0.1c0,0,0,0,0,0.1c0,0,0,0,0,0c0,0,0,0,0,0
	C6,6,6,5.9,6,5.9c0.1-0.1,0.1-0.1,0.2-0.2L6.1,5.8c0,0,0-0.1,0.1-0.1c0,0,0,0-0.1,0.1c0,0-0.1,0.1-0.1,0.1C6,5.9,5.9,6,5.8,6.1
	c0,0-0.1,0.1,0,0.1l0,0c0.1,0-0.1,0.1,0,0c0,0,0,0.1-0.1,0.1c0,0,0,0,0,0c0,0,0,0-0.1,0l0,0c0,0,0.1,0,0.1-0.1c0,0-0.2,0.1-0.2,0.1
	l0.1,0c0,0-0.1,0.1-0.1,0.1c0,0-0.1,0.1-0.1,0.1c0.1,0,0,0,0.1,0c0,0,0,0,0.1-0.1c0,0,0.1-0.1,0-0.1c0.1,0,0.1-0.1,0.2-0.1
	c0,0,0,0,0,0c0,0,0,0,0,0c0,0,0,0,0,0c0,0,0,0,0,0c0,0,0,0,0,0c0,0,0,0,0,0c0,0,0.1-0.1,0.1-0.2c0,0,0,0,0,0c0,0,0,0,0-0.1
	c0,0,0.1-0.1,0,0L6.1,6c0,0,0.1,0,0.1-0.1c0,0,0,0,0,0c0,0,0,0,0,0c0,0,0.1-0.1,0-0.1l0.1-0.1l0,0c0,0,0-0.1,0.1-0.1
	c0,0,0-0.1,0.1-0.1c0,0,0-0.1,0.1-0.1c0,0,0-0.1,0.1-0.1c0,0,0-0.1,0.1-0.2l0,0c0-0.1,0.1-0.2,0.1-0.2c0,0,0.1-0.1,0.1-0.2
	c0-0.1,0-0.2,0.1-0.2l0,0c0-0.1,0-0.2,0-0.3l0,0c0,0,0-0.1,0-0.2c0,0,0-0.1,0-0.1c0,0,0-0.1,0-0.1c0,0,0,0,0,0.1c0,0,0-0.1,0-0.1
	c0,0,0-0.1,0-0.1c0,0,0-0.1,0-0.1c0,0,0-0.1,0-0.1c0,0,0-0.1,0-0.1c0,0,0,0,0,0c0,0,0,0,0,0c0,0,0,0,0-0.1c0,0,0,0,0,0
	c0,0,0-0.1,0-0.1l0,0c0,0,0,0,0,0c0,0,0,0,0,0c0,0,0,0,0-0.1c0,0,0-0.1,0-0.2c0,0,0-0.1,0-0.1c0-0.1,0-0.1-0.1-0.1c0,0,0,0,0,0
	c0,0,0-0.1,0-0.1l0,0L6.7,2.5c0-0.1,0-0.1,0,0c0-0.1-0.1-0.1-0.1-0.1c0,0,0,0-0.1-0.1l0,0c0,0-0.1-0.1-0.1-0.1
	c0-0.1-0.1-0.2-0.1-0.3C6.3,1.7,6.2,1.5,6.2,1.4c0,0.1-0.1-0.1-0.1-0.1c0,0,0-0.1,0,0C6,1.2,5.9,1.1,5.9,1.1c0,0,0,0,0,0
	c0,0,0,0,0,0c0,0,0,0,0,0C5.8,1,5.8,1,5.8,1c0,0,0,0-0.1,0c0,0,0,0-0.1-0.1c0,0,0,0-0.1,0c0,0,0-0.1,0,0c0,0-0.1-0.1-0.1-0.1
	c-0.1,0-0.1-0.1-0.1-0.1c0,0-0.1,0-0.1,0C5.2,0.7,5.2,0.7,5.1,0.6l0,0c-0.1,0-0.1,0-0.2-0.1l0,0C4.9,0.5,4.9,0.5,4.9,0.5
	c0,0,0,0-0.1-0.1l0,0c0,0-0.1-0.1-0.3-0.1l0,0c0,0-0.1,0-0.1-0.1c0,0-0.1-0.1-0.1-0.1c0,0,0,0,0,0c-0.1,0-0.1,0-0.1,0c0,0,0,0-0.1,0
	c0,0,0,0,0,0c0,0-0.2,0-0.3,0c0,0,0,0,0,0c0,0-0.1,0-0.2,0c-0.1,0-0.1,0-0.2,0c0,0,0,0,0,0c0,0-0.1,0-0.1,0c0,0-0.1,0-0.1,0
	c0,0,0,0-0.1,0c0,0-0.1,0-0.1,0c0,0-0.1,0-0.1,0c0,0-0.1,0-0.1,0c-0.1,0-0.1,0-0.2,0l0,0c-0.1,0-0.2,0.1-0.2,0.1c0,0,0,0,0,0
	c0,0-0.1,0-0.1,0c0,0-0.1,0-0.1,0c0,0-0.1,0-0.1,0.1l0,0c0,0-0.3,0.1-0.4,0.2c0,0,0,0,0,0c0,0-0.1,0.1-0.1,0.1c0,0-0.1,0.1-0.1,0.1
	c0,0-0.1,0.1-0.1,0.1c0,0,0,0.1,0,0.1c0,0-0.1,0.1-0.1,0.1c0.1-0.1,0,0,0.1,0c0,0.1-0.1,0.1-0.1,0l0,0c0,0,0,0-0.1,0
	C1,1.3,1,1.3,1,1.3C0.8,1.4,0.7,1.6,0.6,1.7l0,0.1l0,0.1c0,0,0,0.1-0.1,0.1c0,0.1-0.1,0.1-0.1,0.2l0,0L0.4,2.2c0,0,0,0,0,0
	c0,0,0,0.1,0,0.1c-0.1,0.1,0-0.1,0,0l0,0.1l0,0c0,0.1,0,0.1,0,0.2c0,0.1,0,0,0,0c0,0,0,0,0,0l0,0.1l0,0c0,0.1,0,0.1,0,0.1
	c0,0,0,0.1-0.1,0.1c0,0.1,0,0.1,0,0.2c0,0.1,0,0.1,0,0.2c0,0.1,0,0.1,0,0.1c0,0,0,0,0,0.1c0,0,0,0,0,0.1c0,0,0,0.1,0,0.1
	c0,0,0,0,0,0.1c0,0,0,0,0,0.1c0,0.1,0,0.1,0,0.2c0,0,0,0,0,0.1c0,0.1,0,0.1,0,0.1c0,0.1,0,0,0,0.1c0,0.2,0.1,0.4,0.1,0.6
	c0,0,0,0,0,0c0,0,0,0.1,0,0.1c0,0,0.1,0,0.1,0.1c0,0,0,0,0,0c0.1,0.2,0.2,0.4,0.3,0.6c0.1,0.2,0.3,0.4,0.4,0.6c0-0.1,0,0,0,0
	c0,0,0,0,0,0c0,0,0.1,0.1,0.1,0.1c0,0,0.1,0,0.1,0.1c0,0,0.1,0.1,0.1,0.1l-0.1,0c0,0,0,0,0-0.1c0,0,0-0.1,0-0.1c0,0-0.1-0.1-0.1-0.1
	c0,0,0-0.1-0.1-0.1c0,0-0.1,0-0.1-0.1c0,0,0,0,0,0c0,0,0,0-0.1,0c0,0,0,0-0.1-0.1l0,0c0,0,0,0-0.1-0.1c0,0,0,0,0-0.1
	c0,0-0.1-0.1-0.1-0.1c0,0,0-0.1-0.1-0.1c0,0,0-0.1-0.1-0.1l0,0c0,0,0-0.1,0-0.1c0,0,0,0,0,0c0,0,0,0.1,0,0.1c0,0,0-0.1,0-0.1
	c0,0,0-0.1-0.1-0.1c0,0,0-0.1-0.1-0.1c0,0,0-0.1,0-0.1c0-0.1,0,0,0,0c0,0,0,0,0,0l0,0c0-0.1,0-0.1,0-0.1c0,0,0,0,0,0
	c0-0.1-0.1-0.2-0.1-0.2l0,0.1C0.3,4.5,0.3,4.2,0.2,4l0,0c0-0.2,0-0.1,0-0.3l0,0c0,0,0-0.1,0-0.1c0,0,0-0.1,0,0c0-0.1,0-0.1,0-0.1
	c0,0,0,0,0-0.1l0,0c0,0,0,0,0-0.1c0,0.1,0-0.1,0,0c0-0.1,0-0.2,0-0.2c0,0,0-0.1,0-0.1c0,0,0,0,0-0.1c0,0,0,0,0,0c0,0,0,0.1,0,0.1
	c0,0,0-0.1,0-0.1c0-0.1,0.1-0.1,0.1-0.2c0,0,0,0,0,0c0-0.1,0-0.1,0.1-0.2c0,0,0-0.1,0-0.1c0,0,0,0.1,0,0.1c0,0,0-0.1,0-0.1
	c0,0,0,0,0-0.1c0,0,0-0.1,0-0.1c0,0,0,0.1,0,0.1c0,0,0-0.1,0.1-0.1c0,0,0,0.1,0,0.1c0,0,0,0.1,0,0.2c0,0,0-0.2,0.1-0.1
	c0,0,0-0.1,0-0.1c0,0,0-0.1,0.1-0.1l0,0c0,0,0-0.1,0-0.1l0,0.1c0,0,0-0.1,0.1-0.1c0,0,0.1-0.1,0.1-0.1c-0.1,0.1,0,0-0.1,0.1
	c0-0.1,0.1-0.1,0.1-0.1c0,0,0.1,0,0.1-0.1c0,0-0.1,0.1-0.1,0c0,0,0.1-0.1,0.1-0.1c0.1-0.1,0,0,0-0.1C1,1.5,1,1.5,1,1.4l0,0
	c0.1-0.1,0.1-0.1,0.1-0.1c0,0,0,0,0.1-0.1c0,0,0,0,0,0.1c0,0,0,0,0.1-0.1l0,0c0,0,0-0.1,0.1-0.1c0,0,0,0,0.1-0.1c0,0,0,0,0-0.1
	c0.1,0,0,0,0.1,0c0,0,0,0.1-0.1,0.1c0,0,0,0,0,0c0.1,0,0.1-0.1,0.1-0.1c0,0,0,0,0,0c0,0,0.1-0.1,0.1-0.1c0,0,0,0,0,0
	c0,0,0,0,0.1-0.1c0,0,0,0,0,0.1c0,0,0.1-0.1,0.1-0.1c0,0,0,0,0,0c0,0,0,0,0,0c0,0,0.1,0,0.1-0.1c0,0,0.1-0.1,0.1-0.1c0,0,0,0,0,0
	c0,0,0.1,0,0.1-0.1c0,0,0.1,0,0.2-0.1l0.1,0c0.1,0-0.1,0,0-0.1c0.1,0,0,0,0.1,0C2.7,0.5,2.7,0.5,2.8,0.4C2.8,0.4,2.9,0.4,2.8,0.4
	C2.9,0.4,2.9,0.4,2.8,0.4 M4,0.4C4,0.4,4,0.4,4,0.4C4,0.4,4,0.4,4,0.4 M5.7,1.2C5.7,1.1,5.7,1.1,5.7,1.2C5.7,1.1,5.7,1.1,5.7,1.2
	 M6.1,6C6.1,6,6.1,6,6.1,6C6.1,5.9,6.1,5.9,6.1,6 M6,6C6,6,6,6,6,6C6,6,6,6,6,6C6,6,6,6,6,6 M0.2,2.5L0.2,2.5
	C0.2,2.6,0.2,2.6,0.2,2.5"/>
</svg>
