<?xml version="1.0" encoding="utf-8"?>
<!-- Generator: Adobe Illustrator 23.0.5, SVG Export Plug-In . SVG Version: 6.00 Build 0)  -->
<svg version="1.1" id="Layer_1" xmlns="http://www.w3.org/2000/svg" xmlns:xlink="http://www.w3.org/1999/xlink" x="0px" y="0px"
	 viewBox="0 0 220 220" style="enable-background:new 0 0 220 220;" xml:space="preserve">
<style type="text/css">
	.st0{fill:#FFFFFF;}
</style>
<path class="st0" d="M41.6,87.4c-0.1-1.1-0.2-2-0.2-2.9c0-19.5-0.1-38.9,0-58.4c0-13.5,7.8-23.1,20.8-25.8C63.8,0,65.6,0,67.3,0
	c36.5,0,73.1,0,109.6,0c14,0,24.9,10.8,24.9,24.7c0,56.6,0,113.3,0,169.9c0,14.9-10.6,25.3-25.6,25.3c-36.4,0-72.8,0-109.3,0
	c-14,0-24.7-9.4-25.3-23.2c-0.5-9.3,0-18.7,1-28c1-9.6,6-17.3,14.1-22.8c0.7-0.5,1.5-0.8,2.7-1.4c0,1.6,0,2.8,0,3.9
	c0,15.1,0,30.2,0,45.3c0,5.7,2.3,8.1,8.1,8.2c36.1,0,72.2,0,108.3,0c5.9,0,8.2-2.4,8.2-8.4c0-55.6,0-111.1,0-166.7
	c0-6.6-2.1-8.8-8.8-8.8c-28.5,0-57,0-85.5,0c-7.3,0-14.6,0-21.9,0c-6.3,0-8.4,2.2-8.5,8.4c0,16.9-0.1,33.7,0,50.6
	c0,2.2-0.6,3.2-2.7,3.9C51.7,82.9,46.8,85.2,41.6,87.4z"/>
<path class="st0" d="M79.2,147.8c0-7.7,0-14.6,0-21.8c-9.9-1.2-19.2,0.7-27.8,5.8c-14.7,8.6-22.5,21.6-23.9,38.5
	c-0.3,3.9-1.8,5.9-4.9,6.1c-3.2,0.2-5.2-1.7-5.8-5.6c-6.6-38,20.5-74.4,58.9-79c1.4-0.2,2.8,0,4.9,0c0-6.8,0-13.3,0-19.9
	c0.4-0.2,0.8-0.3,1.2-0.5c12.3,13,24.5,26,37,39.3C105.5,123,92.6,135.2,79.2,147.8z"/>
<path class="st0" d="M125.9,109.9c0.1-9.7,8-17.6,17.7-17.5c9.9,0.1,17.6,8,17.6,18c-0.1,9.6-8.1,17.5-17.8,17.4
	C133.6,127.5,125.9,119.6,125.9,109.9z"/>
</svg>
