<?xml version="1.0" encoding="utf-8"?>
<!-- Generator: Adobe Illustrator 23.0.5, SVG Export Plug-In . SVG Version: 6.00 Build 0)  -->
<svg version="1.1" id="Layer_1" xmlns="http://www.w3.org/2000/svg" xmlns:xlink="http://www.w3.org/1999/xlink" x="0px" y="0px"
	 viewBox="0 0 3 3" style="enable-background:new 0 0 3 3;" xml:space="preserve">
<g>
	<path d="M3,1.5c0,0.3,0,0.7,0,1S2.8,3,2.5,3C2,3,1.5,3,1.1,3C0.8,3,0.6,2.8,0.6,2.5c0-0.2,0-0.4,0-0.6c0-0.1,0-0.1,0.1-0.1
		s0.1,0.1,0.1,0.1c0,0.2,0,0.4,0,0.6s0.1,0.2,0.3,0.2c0.5,0,1,0,1.4,0c0.2,0,0.3-0.1,0.3-0.2c0-0.7,0-1.4,0-2.1
		c0-0.2-0.1-0.2-0.3-0.2c-0.5,0-1,0-1.4,0c-0.2,0-0.3,0.1-0.3,0.2c0,0.2,0,0.3,0,0.5C0.8,1,0.8,1,0.7,1S0.6,1,0.6,0.9
		c0-0.2,0-0.4,0-0.6C0.6,0.2,0.8,0,1,0c0.5,0,1,0,1.6,0C2.8,0,3,0.2,3,0.4C3,0.8,3,1.2,3,1.5L3,1.5z"/>
	<path d="M1.9,1.5c-0.5,0-1,0-1.6,0c-0.1,0-0.1,0-0.2,0c0,0-0.1,0-0.1-0.1s0.1-0.1,0.1-0.1h0.1c0.5,0,1,0,1.5,0h0.1V1.2
		C1.7,1.1,1.5,1,1.4,0.9c-0.1,0-0.1-0.1,0-0.2s0.1,0,0.2,0C1.8,0.9,2,1.1,2.2,1.4c0.1,0.1,0.1,0.1,0,0.2C2,1.8,1.8,2,1.5,2.2
		c-0.1,0.1-0.1,0.1-0.2,0s0-0.1,0-0.2C1.6,1.9,1.7,1.7,1.9,1.5z"/>
</g>
</svg>
