<?xml version="1.0" encoding="utf-8"?>
<!-- Generator: Adobe Illustrator 23.0.5, SVG Export Plug-In . SVG Version: 6.00 Build 0)  -->
<svg version="1.1" id="Layer_1" xmlns="http://www.w3.org/2000/svg" xmlns:xlink="http://www.w3.org/1999/xlink" x="0px" y="0px"
	 viewBox="0 0 3 3" style="enable-background:new 0 0 3 3;" xml:space="preserve">
<path d="M3,0.8C3,0.9,3,1,3,1.1c0,0.1,0,0.2-0.1,0.3c-0.5,0.5-0.9,1-1.4,1.4c-0.2,0.2-0.4,0.2-0.6,0C0.6,2.6,0.4,2.4,0.2,2.2
	C0,2,0,1.8,0.2,1.5c0.5-0.5,0.9-0.9,1.4-1.4C1.7,0,1.8,0,1.9,0c0.2,0,0.4,0,0.7,0C2.8,0,3,0.2,3,0.4C3,0.5,3,0.7,3,0.8z M2.2,0.2
	C2.2,0.2,2.2,0.2,2.2,0.2c-0.1,0-0.2,0-0.3,0c-0.1,0-0.2,0-0.2,0.1C1.3,0.8,0.8,1.2,0.4,1.7C0.3,1.8,0.3,1.9,0.4,2
	C0.6,2.2,0.8,2.4,1,2.6c0.1,0.1,0.2,0.1,0.3,0c0.4-0.5,0.9-0.9,1.3-1.4c0.1-0.1,0.1-0.1,0.1-0.2c0-0.2,0-0.4,0-0.6
	c0-0.1-0.1-0.2-0.2-0.2C2.4,0.2,2.3,0.2,2.2,0.2z"/>
<path d="M1.7,1.2C1.8,1.3,1.8,1.3,1.7,1.2c0,0.2,0,0.2,0,0.3c0.1,0.1,0,0.1-0.1,0.2c0-0.1-0.1-0.1-0.1-0.2c0-0.1-0.1-0.1-0.2,0
	c-0.1,0-0.1,0.1,0,0.2c0,0.1,0.1,0.1,0.1,0.2c0,0.1,0,0.2,0,0.3C1.3,2.2,1.2,2.2,1.1,2.2C1.1,2.2,1,2.2,1,2.3c0,0-0.1-0.1-0.1-0.1
	c0.1-0.1,0-0.2,0-0.3c0,0,0-0.1,0-0.1c0,0,0.1,0,0.1,0.1C1,1.9,1.1,2,1.1,2c0,0,0.1,0,0.2,0c0,0,0-0.1,0-0.2c0-0.1-0.1-0.2-0.1-0.3
	c0-0.1,0-0.2,0-0.3c0.1-0.1,0.2-0.1,0.3-0.1C1.6,1.3,1.7,1.3,1.7,1.2z"/>
<path d="M2.3,0.5c0.1,0,0.3,0.1,0.3,0.3C2.5,0.9,2.4,1,2.3,1C2.1,1,2,0.9,2,0.7C2,0.6,2.1,0.5,2.3,0.5z M2.3,0.6
	c-0.1,0-0.2,0.1-0.2,0.2c0,0.1,0.1,0.2,0.1,0.2c0.1,0,0.2-0.1,0.2-0.1C2.4,0.7,2.3,0.6,2.3,0.6z"/>
</svg>
