<?xml version="1.0" encoding="utf-8"?>
<!-- Generator: Adobe Illustrator 23.0.5, SVG Export Plug-In . SVG Version: 6.00 Build 0)  -->
<svg version="1.1" id="Layer_1" xmlns="http://www.w3.org/2000/svg" xmlns:xlink="http://www.w3.org/1999/xlink" x="0px" y="0px"
	 viewBox="0 0 3 3" style="enable-background:new 0 0 3 3;" xml:space="preserve">
<style type="text/css">
	.st0{display:none;}
	.st1{display:inline;}
	.st2{fill:#808285;}
</style>
<g class="st0">
	<path class="st1" d="M-2-0.2c0.4,0,0.6,0.3,0.6,0.6c0,0.4-0.3,0.6-0.6,0.6c-0.4,0-0.6-0.3-0.6-0.6C-2.7,0.1-2.4-0.2-2-0.2z
		 M-2.3,0.7c0,0.1,0,0.1,0.1,0.1c0,0,0,0,0,0c0,0,0-0.1,0-0.1c0,0,0,0,0,0c0,0,0,0,0,0c0,0,0,0.1,0,0.1c0,0,0,0,0,0
		c0.1,0,0.1,0,0.2,0c0,0,0,0,0,0c0,0,0-0.1,0-0.1c0,0,0,0,0,0c0,0,0,0,0,0c0,0,0,0.1,0,0.1c0,0,0,0,0,0c0.1,0,0.1-0.2,0.1-0.2
		c0,0-0.1-0.1-0.1-0.1c0,0,0,0-0.1,0c0,0-0.1,0-0.1,0c-0.1,0-0.1,0-0.2,0C-2.3,0.6-2.3,0.6-2.3,0.7z M-1.9,0.3
		c0-0.1-0.1-0.2-0.2-0.2c-0.1,0-0.2,0.1-0.2,0.2c0,0.1,0.1,0.2,0.2,0.2C-1.9,0.5-1.9,0.4-1.9,0.3z M-2.6,0.4c0,0.1,0,0.1,0.1,0.1
		c0,0,0,0,0,0c0,0,0,0,0-0.1c0,0,0,0,0,0c0,0,0,0,0,0c0,0,0,0,0,0.1c0,0,0,0,0,0c0,0,0.1,0,0.1,0c0,0,0,0,0,0c0,0,0,0,0,0
		c0,0,0,0,0,0c0,0,0,0,0,0c0,0,0,0,0,0c0,0,0,0,0,0c0,0,0,0,0,0c0,0,0-0.1-0.1-0.1c0,0,0-0.1-0.1,0c0,0-0.1,0-0.1,0
		C-2.4,0.3-2.5,0.3-2.6,0.4C-2.6,0.4-2.6,0.4-2.6,0.4z M-1.8,0.3C-1.8,0.3-1.8,0.3-1.8,0.3c-0.1,0.1-0.1,0.1-0.1,0.1c0,0,0,0,0,0
		c0,0,0,0,0,0c0,0,0,0,0,0c0,0,0,0,0,0c0,0,0,0,0,0c0,0,0,0,0,0.1c0,0,0,0,0,0c0,0,0.1,0,0.1,0c0,0,0,0,0,0c0,0,0-0.1,0-0.1
		c0,0,0,0,0,0c0,0,0,0,0,0c0,0,0,0.1,0,0.1c0,0,0,0,0,0c0.1,0,0.1-0.1,0.1-0.2c0-0.1-0.1-0.1-0.1-0.1C-1.7,0.3-1.7,0.3-1.8,0.3z
		 M-1.6,0.1C-1.6,0.1-1.6,0-1.7,0c-0.1,0-0.1,0.1-0.1,0.1c0,0.1,0.1,0.1,0.1,0.1C-1.6,0.3-1.6,0.2-1.6,0.1z M-2.5,0.1
		c0,0.1,0.1,0.1,0.1,0.1c0.1,0,0.1-0.1,0.1-0.1C-2.2,0.1-2.3,0-2.3,0C-2.4,0-2.5,0.1-2.5,0.1z"/>
</g>
<g class="st0">
	<path class="st1" d="M-2.2,1.7c0.2,0,0.3,0,0.5,0c0.1,0,0.1,0,0.1,0.1c0,0,0,0.1,0,0.1c0,0,0,0,0,0c0,0.1,0,0.2,0,0.4c0,0,0,0,0,0
		c0,0,0,0,0,0c0,0,0,0,0,0c0,0,0,0,0,0c0-0.1,0-0.2,0-0.3c0,0,0,0,0,0c0,0,0,0,0,0c0,0.2,0,0.3,0,0.5c0,0.1,0,0.1-0.1,0.1
		c-0.2,0-0.5,0-0.7,0c-0.1,0-0.1,0-0.1-0.1c0-0.2,0-0.3,0-0.5c0,0,0,0,0,0c0,0,0,0,0,0c0,0,0,0,0,0c0,0,0,0.1,0,0.1c0,0,0,0,0,0
		c0,0,0,0,0,0c0,0,0,0,0,0c0,0,0-0.1,0-0.1c0,0,0-0.1,0-0.1c0,0,0,0,0.1,0C-2.5,1.7-2.3,1.7-2.2,1.7z M-1.8,2C-1.8,2-1.8,2-1.8,2
		C-1.8,2-1.8,1.9-1.8,2c0-0.1,0-0.1,0-0.1c0,0,0,0,0,0c-0.1,0-0.1,0-0.2,0c0,0,0,0,0,0c-0.1,0-0.1,0-0.2,0c0,0,0,0,0,0
		c0,0-0.1,0-0.2,0c0,0,0,0,0,0c0,0,0,0,0,0.1c0,0.1,0,0.1,0,0.2c0,0,0,0,0,0c0,0,0,0,0,0c0,0,0,0,0-0.1c0,0,0-0.1,0.1-0.1
		c0.1,0,0.1,0,0.2,0c0,0,0.1,0,0.1,0.1c0,0,0,0,0,0.1c0,0,0,0,0,0c0,0,0,0,0,0c0,0,0,0,0-0.1c0,0,0-0.1,0.1-0.1
		C-1.9,1.9-1.9,2-1.8,2C-1.9,2.1-1.9,2.1-1.8,2c0,0.1,0,0.1,0,0.1C-1.8,2.1-1.8,2.1-1.8,2C-1.8,2-1.8,2-1.8,2z M-2.2,2.2
		c-0.1,0-0.2,0-0.3,0c0,0,0,0,0,0c0,0.1,0,0.1,0,0.2c0,0,0,0,0,0c0,0,0,0,0,0c0,0,0-0.1,0-0.1c0,0,0.1-0.1,0.1-0.1
		c0.1,0,0.1,0,0.1,0.1c0,0,0,0.1,0,0.1c0,0,0,0,0,0c0,0,0,0,0,0c0,0,0,0,0-0.1C-2.2,2.3-2.2,2.3-2.2,2.2C-2.1,2.3-2,2.3-1.9,2.3
		c0.1,0,0.1,0,0.1,0.1c0,0,0,0,0,0.1c0,0,0,0,0,0c0,0,0,0,0,0c0-0.1,0-0.1,0-0.2c0,0,0,0,0,0C-2,2.2-2.1,2.2-2.2,2.2z M-2,2.5
		C-2,2.5-2,2.5-2,2.5c0.2,0,0.1,0,0.1-0.1c0,0,0-0.1-0.1-0.1c-0.1,0-0.1,0-0.2,0c0,0,0,0-0.1,0.1c0,0,0,0,0,0.1c0,0,0,0,0,0
		C-2.1,2.5-2.1,2.5-2,2.5z M-2.2,2.2c0.1,0,0.2,0,0.3,0c0,0,0.1,0,0.1,0c0,0,0,0,0,0c0,0,0,0,0,0c0,0,0,0,0,0c-0.2,0-0.4,0-0.7,0
		c0,0,0,0,0,0c0,0,0,0,0,0c0,0,0,0,0,0c0,0,0,0,0,0C-2.4,2.2-2.3,2.2-2.2,2.2z M-2.3,2.1C-2.3,2.1-2.3,2.1-2.3,2.1
		C-2.3,2.1-2.3,2.1-2.3,2.1c0.1,0,0.1,0,0.1-0.1c0,0,0,0,0,0c0,0-0.1,0-0.1,0c-0.1,0-0.1,0-0.1,0.1C-2.5,2.1-2.5,2.1-2.3,2.1
		C-2.4,2.1-2.4,2.1-2.3,2.1z M-2.3,1.8C-2.3,1.7-2.3,1.7-2.3,1.8C-2.4,1.7-2.4,1.7-2.3,1.8c-0.2-0.1-0.2,0-0.2,0
		C-2.5,1.9-2.4,1.9-2.3,1.8C-2.3,1.8-2.3,1.8-2.3,1.8z M-2,1.7C-2.1,1.7-2.1,1.7-2,1.7c-0.1,0.1,0,0.2,0,0.2C-1.9,1.9-1.9,1.8-2,1.7
		C-1.9,1.7-1.9,1.7-2,1.7C-2,1.7-2,1.7-2,1.7z M-2.6,1.7C-2.7,1.7-2.7,1.7-2.6,1.7c-0.1,0.1,0,0.2,0,0.2C-2.5,1.9-2.5,1.8-2.6,1.7
		C-2.5,1.7-2.6,1.7-2.6,1.7C-2.6,1.7-2.6,1.7-2.6,1.7z M-1.8,1.7C-1.8,1.7-1.8,1.7-1.8,1.7C-1.8,1.7-1.8,1.7-1.8,1.7
		C-1.8,1.7-1.8,1.7-1.8,1.7c-0.1,0-0.1,0.1-0.1,0.1c0,0,0.1,0.1,0.1,0.1C-1.7,1.9-1.7,1.8-1.8,1.7C-1.7,1.7-1.7,1.7-1.8,1.7
		C-1.8,1.7-1.8,1.7-1.8,1.7z M-2.2,1.7C-2.3,1.7-2.3,1.7-2.2,1.7c-0.1,0.1-0.1,0.1-0.1,0.1c0,0,0,0.1,0.1,0.1
		C-2.1,1.9-2.1,1.8-2.2,1.7C-2.1,1.7-2.1,1.7-2.2,1.7C-2.2,1.7-2.2,1.7-2.2,1.7z M-2.3,2.4C-2.3,2.4-2.3,2.4-2.3,2.4
		C-2.3,2.3-2.3,2.3-2.3,2.4c-0.1-0.1-0.1,0-0.1,0C-2.5,2.5-2.5,2.5-2.3,2.4C-2.4,2.5-2.4,2.5-2.3,2.4C-2.3,2.5-2.3,2.5-2.3,2.4z
		 M-2,2.1C-2,2.1-2,2.1-2,2.1C-2,2.1-1.9,2.1-2,2.1C-1.9,2.1-1.9,2.1-2,2.1C-1.9,2-1.9,2-2,2c0,0,0,0,0,0C-2.1,2-2.1,2-2,2.1
		C-2.1,2.1-2.1,2.1-2,2.1C-2,2.1-2,2.1-2,2.1z"/>
	<path class="st1" d="M-2.2,2.7c-0.2,0-0.3,0-0.5,0c0,0-0.1,0-0.1,0c0,0,0-0.1,0-0.1c0,0,0,0,0-0.1c0-0.1,0-0.3,0-0.4c0,0,0,0,0,0
		c0,0,0,0,0,0c0,0,0,0,0,0c0,0.1,0,0.3,0,0.4c0,0,0,0,0,0c0.3,0,0.6,0,0.8,0c0,0,0,0,0,0c0,0,0-0.1,0-0.1c0,0,0,0,0,0c0,0,0,0,0,0
		c0,0.1,0,0.1,0,0.2c0,0,0,0,0,0c0,0,0,0.1,0,0.1c0,0,0,0-0.1,0C-1.9,2.7-2,2.7-2.2,2.7z M-2.2,2.7c0.2,0,0.3,0,0.5,0c0,0,0,0,0,0
		c0,0,0,0,0-0.1c0,0,0,0,0,0c0,0-0.1,0-0.1,0C-2,2.6-2.1,2.6-2.2,2.7c-0.2-0.1-0.3-0.1-0.5-0.1c0,0,0,0,0,0c0,0,0,0,0,0
		C-2.5,2.7-2.3,2.7-2.2,2.7z"/>
</g>
<g>
	<path class="st2" d="M0.8,1.3C0.6,1.1,0.4,0.9,0.4,0.7c0-0.2,0.1-0.4,0.2-0.5c0.3-0.3,0.7-0.2,1,0c0.2,0.3,0.2,0.7-0.2,1
		c0.1,0.1,0.3,0.1,0.4,0.2C1.9,1.5,2,1.6,2,1.7c0,0.2,0,0.2-0.2,0.2c-0.1,0-0.2,0-0.3,0C1.4,1.9,1.4,2,1.4,2c0,0.1,0,0.2,0,0.3
		c0,0.1,0,0.1,0.1,0.1c0.1,0,0.2,0,0.4,0c0.1,0,0.1,0,0.1,0.1c0,0,0,0.1,0,0.1c0,0.1,0,0.1-0.1,0.2C1.7,2.9,1.6,3,1.4,3
		c-0.3,0-0.6,0-0.9,0C0.1,2.8,0,2.5,0,2.1C0.1,1.7,0.3,1.4,0.8,1.3C0.7,1.3,0.8,1.3,0.8,1.3z"/>
	<path class="st2" d="M1.7,2.4c-0.1,0-0.1,0-0.2,0c0,0-0.1,0-0.1,0c0-0.1,0-0.2,0-0.3c0,0,0-0.1,0.1-0.1c0.1,0,0.3,0,0.4,0
		C2,2,2,2,2,1.9c0-0.1,0-0.3,0-0.4c0-0.1,0-0.1,0.1-0.1c0.1,0,0.2,0,0.3,0c0.1,0,0.1,0,0.1,0.1c0,0.1,0,0.3,0,0.4C2.4,2,2.5,2,2.5,2
		c0.1,0,0.3,0,0.4,0C3,2,3,2,3,2.1c0,0.1,0,0.2,0,0.3c0,0.1,0,0.1-0.1,0.1c-0.1,0-0.3,0-0.4,0c-0.1,0-0.1,0-0.1,0.1
		c0,0.1,0,0.3,0,0.4C2.4,3,2.4,3,2.4,3C2.3,3,2.2,3,2.1,3C2,3,2,3,2,2.9c0-0.1,0-0.3,0-0.4C2,2.4,2,2.4,2,2.4
		C1.9,2.4,1.8,2.4,1.7,2.4z"/>
</g>
<g class="st0">
	<path class="st1" d="M-4.1,2.4c0,0.1,0,0.2,0,0.3c0,0.1,0,0.1-0.1,0.1c-0.1,0-0.3,0-0.4,0c-0.1,0-0.1,0-0.1-0.1c0-0.1,0-0.1,0-0.2
		c0,0,0,0,0,0c0,0,0,0,0,0c0,0.1,0,0.1,0,0.2c0,0,0,0.1,0.1,0.1c0.1,0,0.3,0,0.4,0c0,0,0.1,0,0.1-0.1c0-0.2,0-0.4,0-0.6
		c0,0,0-0.1-0.1-0.1c-0.1,0-0.3,0-0.4,0c-0.1,0-0.1,0-0.1,0.1c0,0.1,0,0.1,0,0.2c0,0,0,0,0,0c0,0,0,0,0,0c0-0.1,0-0.1,0-0.2
		C-4.8,2-4.8,2-4.7,2c0.1,0,0.3,0,0.4,0c0.1,0,0.1,0,0.1,0.1C-4.1,2.2-4.1,2.3-4.1,2.4C-4.1,2.4-4.1,2.4-4.1,2.4z"/>
	<path class="st1" d="M-4.4,2.4c-0.1,0-0.3,0-0.4,0c0,0,0,0-0.1,0c0,0,0,0,0,0c0,0,0,0,0,0c0,0,0,0,0,0C-4.8,2.3-4.6,2.3-4.4,2.4
		C-4.5,2.3-4.5,2.3-4.4,2.4C-4.5,2.3-4.5,2.3-4.4,2.4c-0.1-0.1-0.1-0.2-0.1-0.2c0,0,0,0,0-0.1c0,0,0,0,0.1,0
		C-4.5,2.2-4.4,2.3-4.4,2.4C-4.3,2.4-4.3,2.4-4.4,2.4c0,0.1,0,0.1-0.1,0.2c0,0,0,0-0.1,0c0,0,0,0,0-0.1C-4.5,2.5-4.5,2.5-4.4,2.4z"
		/>
</g>
</svg>
