<?xml version="1.0" encoding="utf-8"?>
<!-- Generator: Adobe Illustrator 23.0.5, SVG Export Plug-In . SVG Version: 6.00 Build 0)  -->
<svg version="1.1" id="Layer_1" xmlns="http://www.w3.org/2000/svg" xmlns:xlink="http://www.w3.org/1999/xlink" x="0px" y="0px"
	 viewBox="0 0 3 3" style="enable-background:new 0 0 3 3;" xml:space="preserve">
<path d="M2.6,1.5c0,0.5,0,0.9,0,1.4C2.6,3,2.6,3,2.5,3c-0.7,0-1.3,0-2,0c0,0,0,0,0,0C0.4,3,0.4,3,0.4,2.9c0-0.4,0-0.8,0-1.3
	c0-0.5,0-1,0-1.5c0-0.1,0-0.1,0.1-0.1c0.7,0,1.3,0,2,0c0.1,0,0.1,0,0.1,0.1C2.6,0.6,2.6,1.1,2.6,1.5C2.6,1.5,2.6,1.5,2.6,1.5z
	 M1.6,0.8C1.5,0.7,1.5,0.6,1.4,0.6c0,0,0,0,0,0c0,0,0,0,0,0c0,0,0.1,0,0.1,0c0,0,0-0.1,0-0.1c0-0.1-0.1-0.1-0.2,0
	c-0.1,0-0.1,0.1,0,0.2c0,0,0,0,0,0C1.3,0.8,1.2,0.9,1.3,1C1.4,1,1.5,1,1.6,0.9c0,0,0,0,0,0c0,0,0,0,0,0c0,0,0.1,0,0.1,0
	c0,0,0-0.1,0-0.1C1.7,0.9,1.7,0.9,1.6,0.8c0.1,0,0.2,0,0.1,0C1.7,0.7,1.7,0.7,1.6,0.8z M1.7,1.5c0.1,0,0.3,0,0.4,0
	c0.1,0,0.1,0,0.2,0c0,0,0.1,0,0.1-0.1c0,0,0-0.1-0.1-0.1c0,0,0,0,0,0c-0.2,0-0.4,0-0.7,0c-0.1,0-0.3,0-0.4,0c0,0-0.1,0-0.1,0.1
	c0,0,0,0.1,0.1,0.1C1.3,1.5,1.5,1.5,1.7,1.5z M1.7,1.9C1.7,1.9,1.7,1.9,1.7,1.9c0.2,0,0.4,0,0.6,0c0,0,0,0,0,0c0,0,0,0,0-0.1
	c0,0,0,0,0-0.1c0,0,0,0,0,0c-0.3,0-0.6,0-0.9,0c-0.1,0-0.1,0-0.2,0c0,0-0.1,0-0.1,0.1c0,0,0,0.1,0.1,0.1c0,0,0,0,0,0
	C1.3,1.9,1.5,1.9,1.7,1.9z M1.7,2.2C1.7,2.1,1.7,2.1,1.7,2.2c-0.1,0-0.3,0-0.4,0c-0.1,0-0.1,0-0.2,0c0,0-0.1,0-0.1,0.1
	c0,0,0,0.1,0.1,0.1c0,0,0,0,0,0c0.3,0,0.6,0,0.9,0c0.1,0,0.2,0,0.2,0c0,0,0.1,0,0.1,0c0,0,0-0.1,0-0.1c0,0,0,0,0,0
	C2.1,2.1,1.9,2.2,1.7,2.2z M1.7,2.6c0.1,0,0.2,0,0.3,0c0.1,0,0.2,0,0.3,0c0,0,0.1,0,0.1-0.1c0,0,0-0.1-0.1-0.1c0,0,0,0,0,0
	c-0.2,0-0.5,0-0.7,0c-0.1,0-0.3,0-0.4,0c0,0-0.1,0-0.1,0.1c0,0,0,0.1,0.1,0.1c0,0,0,0,0,0C1.3,2.6,1.5,2.6,1.7,2.6z M2.1,0.4
	c-0.1,0-0.1,0-0.2,0.1c-0.1,0.1-0.1,0.3,0,0.5C2,1,2.1,1.1,2.3,1c0,0,0-0.1,0-0.1c0,0-0.1,0-0.1,0C2.1,0.9,2,0.9,2,0.8
	c0-0.1,0-0.1,0-0.2c0-0.1,0.1-0.1,0.2-0.1c0,0,0.1,0,0.1,0c0,0,0-0.1,0-0.1C2.2,0.4,2.2,0.4,2.1,0.4z M1,0.5c0,0,0.1,0,0.1,0
	c0,0,0.1,0,0.1-0.1c0,0,0-0.1-0.1-0.1c-0.1,0-0.3,0-0.4,0c0,0-0.1,0-0.1,0.1c0,0,0,0.1,0.1,0.1c0,0,0.1,0,0.1,0c0,0,0.1,0,0.1,0
	c0,0.1,0,0.3,0,0.4C0.9,1,0.9,1,1,1C1,1,1,1,1,0.9c0-0.1,0-0.2,0-0.3C1,0.6,1,0.5,1,0.5z M0.8,2.2C0.8,2.2,0.8,2.2,0.8,2.2
	c-0.1-0.1-0.1,0-0.1,0C0.7,2.2,0.8,2.3,0.8,2.2C0.8,2.3,0.8,2.2,0.8,2.2z M0.8,1.4C0.8,1.4,0.7,1.4,0.8,1.4c-0.1,0.1,0,0.1,0,0.1
	C0.8,1.5,0.8,1.5,0.8,1.4C0.8,1.4,0.8,1.4,0.8,1.4z M0.8,1.8C0.8,1.8,0.7,1.8,0.8,1.8c-0.1,0.1,0,0.1,0,0.1C0.8,1.9,0.8,1.9,0.8,1.8
	C0.8,1.8,0.8,1.8,0.8,1.8z M0.8,2.6C0.8,2.6,0.8,2.5,0.8,2.6c-0.1-0.1-0.1,0-0.1,0C0.7,2.6,0.8,2.6,0.8,2.6C0.8,2.6,0.8,2.6,0.8,2.6
	z"/>
<path d="M1.5,0.8C1.5,0.9,1.5,0.9,1.5,0.8c-0.1,0-0.1,0-0.1,0c0,0,0-0.1,0-0.1C1.5,0.8,1.5,0.8,1.5,0.8z"/>
</svg>
