<?xml version="1.0" encoding="utf-8"?>
<!-- Generator: Adobe Illustrator 23.0.5, SVG Export Plug-In . SVG Version: 6.00 Build 0)  -->
<svg version="1.1" id="Layer_1" xmlns="http://www.w3.org/2000/svg" xmlns:xlink="http://www.w3.org/1999/xlink" x="0px" y="0px"
	 viewBox="0 0 283.5 283.5" style="enable-background:new 0 0 283.5 283.5;" xml:space="preserve">
<style type="text/css">
	.st0{display:none;fill:#061F3E;}
	.st1{display:none;fill:#88B5E0;}
	.st2{display:none;fill:#0F142F;}
	.st3{display:none;fill:#0B0E17;}
	.st4{fill:#5E90CC;}
	.st5{fill:#0F142F;}
	.st6{fill:#FF0000;}
	.st7{fill:#FFC50D;}
	.st8{fill:none;stroke:#0F142F;stroke-width:6;stroke-linecap:round;stroke-miterlimit:10;}
	.st9{fill:#FFFFFF;}
	.st10{fill:#4274B9;}
	.st11{display:none;}
	.st12{display:inline;fill:none;stroke:#FFFFFF;stroke-width:0.792;stroke-miterlimit:10;}
	.st13{display:inline;fill:none;stroke:#FFFFFF;stroke-width:0.792;stroke-miterlimit:10;stroke-dasharray:2.001,2.001;}
	.st14{display:inline;fill:none;stroke:#FFFFFF;stroke-width:0.792;stroke-miterlimit:10;stroke-dasharray:1.979,1.979;}
	.st15{display:inline;fill:#4274B9;}
	.st16{display:inline;fill:#0F142F;}
	.st17{display:inline;fill:none;stroke:#FFFFFF;stroke-width:0.396;stroke-miterlimit:10;}
	.st18{display:inline;fill:none;stroke:#0F142F;stroke-width:0.396;stroke-miterlimit:10;}
	.st19{display:inline;fill:#FFFFFF;}
	.st20{display:inline;fill:none;stroke:#0F142F;stroke-width:3.793;stroke-miterlimit:10;}
	.st21{display:inline;fill:none;stroke:#4274B9;stroke-width:3.793;stroke-miterlimit:10;}
	.st22{fill:#FDFEFF;}
</style>
<polygon class="st0" points="-1100.8,-28.4 -1118,-13.6 -1071.2,51.7 -1054.1,40.1 -1058.1,29.6 "/>
<path class="st1" d="M-1106.2-110.2c0,37.8-30.7,68.5-68.5,68.5c-37.8,0-68.5-30.7-68.5-68.5s30.7-68.5,68.5-68.5
	C-1136.9-178.7-1106.2-148-1106.2-110.2"/>
<path class="st2" d="M-1126.6-57.7l-21.2,15.6l25.8,35l21.2-15.6L-1126.6-57.7z M-1136.9-40.5l8.6-6.4l16.6,22.5l-8.6,6.3
	L-1136.9-40.5z"/>
<path class="st3" d="M-1052.3,30.5l-47.3-64.2l-33.2,24.5l47.3,64.2c3.7,5,10.7,6.1,15.7,2.4l15.1-11.2
	C-1049.7,42.5-1048.6,35.5-1052.3,30.5 M-1059.7,40.2l-14.4,10.6c-1.7,1.3-4.2,0.9-5.5-0.8l-42.4-57.5l20.7-15.2l42.4,57.6
	C-1057.6,36.4-1057.9,38.9-1059.7,40.2"/>
<path class="st2" d="M-1201-125.9c1.8,0,3.3,1.2,3.8,2.9l5.5,20.7c1.3,5.2,2.5,10.1,3.5,14.8h0.2c1-4.7,2.6-9.7,4.2-14.8l6.7-21
	c0.5-1.6,2-2.7,3.7-2.7h1.4c1.7,0,3.2,1.1,3.7,2.8l6.4,20.5c1.7,5.5,3,10.4,4.1,15.2h0.2c0.8-4.7,2.1-9.6,3.6-15.1l5.8-20.5
	c0.5-1.7,2-2.8,3.8-2.8c2.7,0,4.5,2.6,3.7,5.1l-12.5,38.7c-0.5,1.6-2,2.7-3.7,2.7h-2c-1.7,0-3.2-1.1-3.7-2.7l-6.2-19.5
	c-1.7-5.2-3-9.9-4.1-15.3h-0.2c-1.2,5.6-2.6,10.4-4.3,15.4l-6.6,19.5c-0.5,1.6-2,2.7-3.7,2.7h-2c-1.7,0-3.3-1.1-3.8-2.8l-11.7-38.7
	c-0.8-2.5,1.1-5.1,3.8-5.1L-1201-125.9L-1201-125.9z"/>
<path class="st2" d="M-1129-125.9c1.8,0,3.3,1.2,3.8,2.9l5.5,20.7c1.3,5.2,2.5,10.1,3.5,14.8h0.2c1-4.7,2.6-9.7,4.2-14.8l6.7-21
	c0.5-1.6,2-2.7,3.7-2.7h1.4c1.7,0,3.2,1.1,3.7,2.8l6.4,20.5c1.7,5.5,3,10.4,4.1,15.2h0.2c0.8-4.7,2.1-9.6,3.6-15.1l5.8-20.5
	c0.5-1.7,2-2.8,3.8-2.8c2.7,0,4.5,2.6,3.7,5.1l-12.5,38.7c-0.5,1.6-2,2.7-3.7,2.7h-2c-1.7,0-3.2-1.1-3.7-2.7l-6.2-19.5
	c-1.7-5.2-3-9.9-4.1-15.3h-0.2c-1.2,5.6-2.6,10.4-4.3,15.4l-6.6,19.5c-0.5,1.6-2,2.7-3.7,2.7h-2c-1.7,0-3.3-1.1-3.8-2.8l-11.7-38.7
	c-0.8-2.5,1.1-5.1,3.8-5.1L-1129-125.9L-1129-125.9z"/>
<path class="st2" d="M-1057-125.9c1.8,0,3.3,1.2,3.8,2.9l5.5,20.7c1.3,5.2,2.5,10.1,3.5,14.8h0.2c1-4.7,2.6-9.7,4.2-14.8l6.7-21
	c0.5-1.6,2-2.7,3.7-2.7h1.4c1.7,0,3.2,1.1,3.7,2.8l6.4,20.5c1.7,5.5,3,10.4,4.1,15.2h0.2c0.8-4.7,2.1-9.6,3.6-15.1l5.8-20.5
	c0.5-1.7,2-2.8,3.8-2.8c2.7,0,4.5,2.6,3.7,5.1l-12.5,38.7c-0.5,1.6-2,2.7-3.7,2.7h-2c-1.7,0-3.2-1.1-3.7-2.7l-6.2-19.5
	c-1.7-5.2-3-9.9-4.1-15.3h-0.2c-1.2,5.6-2.6,10.4-4.3,15.4l-6.6,19.5c-0.5,1.6-2,2.7-3.7,2.7h-2c-1.7,0-3.3-1.1-3.8-2.8l-11.7-38.7
	c-0.8-2.5,1.1-5.1,3.8-5.1L-1057-125.9L-1057-125.9z"/>
<path class="st2" d="M-1114.2-62.7c1.7-2.5,0.2-6-2.8-6.2c-1.4-0.1-2.7,0.5-3.5,1.7c-1.4,2.1-2.9,4-4.5,6l5.5,5.5
	C-1117.6-58-1115.8-60.3-1114.2-62.7"/>
<path class="st2" d="M-1125-61.3c-3.5,4.2-7.6,8-12.1,11.4c-15.1,11.1-33.6,15.7-52.1,12.9c-19.3-2.9-36.2-13.5-47.3-29.7
	c-9.7-14-13.8-31.3-11.7-48.2c2.4-19.3,12.4-36.3,28-47.8c2.1-1.5,4.2-2.9,6.4-4.2c2.2-1.3,4.5-2.4,6.8-3.5c2.3-1,4.7-1.9,7.1-2.7
	c2.4-0.8,4.8-1.4,7.3-1.9s5-0.9,7.5-1.1c1.2-0.1,2.5-0.2,3.7-0.2c2.1-0.1,3.7-1.7,3.7-3.8v-0.2c0-2.1-1.8-3.9-3.9-3.8
	c-15.5,0.6-30.4,5.8-43.2,15.1c-16.7,12.3-27.7,30.5-30.8,51c-3.2,21.1,2.2,42.1,15.2,59.1c12.6,16.4,31.3,27.2,51.9,29.8
	c3.4,0.4,6.7,0.6,10,0.6c16.5,0,32.5-5.2,46-15.2c4.8-3.6,9.2-7.7,13-12.1L-1125-61.3z"/>
<path class="st2" d="M-1117.8-148.8L-1117.8-148.8c-1.9,1.1-2.6,3.6-1.4,5.5c1.1,1.7,2.1,3.5,3,5.3c0.6,1.2,1.9,2,3.3,2.1
	c3,0.1,4.9-3.2,3.5-5.9c-1-1.9-2.1-3.9-3.3-5.7C-1113.8-149.2-1116-149.8-1117.8-148.8"/>
<path class="st2" d="M-1155.7-180.7c-2.5-0.8-5,1.1-5,3.7c0,1.8,1.2,3.3,2.9,3.8c11.2,3.5,21.3,9.7,29.4,18.1
	c1.4,1.5,3.8,1.6,5.3,0.3c1.7-1.5,1.8-4.1,0.3-5.7C-1131.9-169.9-1143.1-176.8-1155.7-180.7"/>
<path class="st4" d="M-13-532.9c0,64.6-52.4,117-117,117c-64.6,0-117-52.4-117-117c0-64.6,52.4-117,117-117
	C-65.4-649.9-13-597.5-13-532.9"/>
<path class="st5" d="M-60.1-385.7h-0.2c-3.3-0.1-6.3-2.3-7.4-5.4l-33.6-100.8c-0.9-2.9-0.2-6,1.9-8.1c2.1-2.1,5.3-2.9,8.2-1.9
	L9.6-468.4c3.2,1.1,5.4,4,5.4,7.4c0.1,3.4-2,6.4-5.1,7.6L-35.3-436l-17.4,45.2C-53.8-387.7-56.8-385.7-60.1-385.7"/>
<path class="st5" d="M-22.5-569.7c-1.8,0-3.6-1.1-4.4-2.9c-2.1-4.8-4.5-9.6-7.1-14.2c-1.3-2.3-0.6-5.2,1.7-6.5
	c2.3-1.3,5.2-0.6,6.5,1.7c2.9,4.9,5.5,10,7.7,15.3c1,2.4-0.1,5.2-2.5,6.2C-21.3-569.8-21.9-569.7-22.5-569.7"/>
<path class="st5" d="M-138.4-550.4c-11.3,0-22.6-1.5-33.4-4.3c-2.5-0.7-4.1-3.3-3.4-5.8c0.7-2.5,3.3-4,5.8-3.4c10.1,2.6,20.5,4,31,4
	c2.6,0,4.8,2.1,4.8,4.8C-133.7-552.6-135.8-550.4-138.4-550.4"/>
<path class="st5" d="M-120.2-551.8c-2.3,0-4.4-1.7-4.7-4.1c-0.4-2.6,1.4-5,4-5.4c16.8-2.4,32.5-8.3,46.9-17.3
	c2.2-1.4,5.2-0.7,6.6,1.5c1.4,2.2,0.7,5.2-1.5,6.6c-15.5,9.8-32.5,16-50.6,18.7C-119.7-551.8-119.9-551.8-120.2-551.8"/>
<path class="st5" d="M-118.5-552c-2.3,0-4.3-1.7-4.7-4c-0.4-2.6,1.4-5,3.9-5.4c23.1-3.7,44.6-14,62-29.7c2-1.8,5-1.6,6.7,0.3
	c1.8,2,1.6,5-0.3,6.7c-18.8,17-42,28.1-66.9,32.1C-118-552-118.3-552-118.5-552"/>
<path class="st5" d="M-171.7-554.9c-0.4,0-0.8-0.1-1.3-0.2c-26.7-7.3-50.8-23.4-68-45.2l-2.3-2.9l2.3-3
	c24.9-31.7,62.4-49.8,102.6-49.8c29.9,0,58.1,9.9,81.4,28.5c2,1.6,2.4,4.6,0.8,6.7s-4.6,2.4-6.7,0.8c-21.6-17.3-47.8-26.4-75.5-26.4
	c-36.1,0-69.6,15.7-92.7,43.2c15.8,18.8,37.2,32.5,60.7,39c2.5,0.7,4,3.3,3.3,5.8C-167.7-556.3-169.6-554.9-171.7-554.9"/>
<path class="st5" d="M-109-467.3c-0.5-0.1-1-0.2-1.5-0.4C-110-467.5-109.5-467.4-109-467.3"/>
<path class="st5" d="M-163.9-477.9c0.6-0.1,1.1-0.2,1.7-0.3C-162.8-478.1-163.4-478-163.9-477.9"/>
<path class="st5" d="M-167-477.3c0.6-0.1,1.1-0.2,1.6-0.4C-165.9-477.5-166.5-477.4-167-477.3"/>
<path class="st5" d="M-157.7-479c0.6-0.1,1.1-0.2,1.7-0.2C-156.5-479.1-157.1-479.1-157.7-479"/>
<path class="st5" d="M-160.8-478.5c0.6-0.1,1.1-0.2,1.7-0.3C-159.7-478.7-160.2-478.6-160.8-478.5"/>
<path class="st5" d="M-111.9-468c-0.5-0.1-1-0.2-1.5-0.3C-112.9-468.2-112.4-468.1-111.9-468"/>
<path class="st5" d="M-179.2-473.9c0.5-0.2,1.1-0.3,1.6-0.5C-178.2-474.3-178.7-474.1-179.2-473.9"/>
<path class="st5" d="M-154.5-479.4c0.6-0.1,1.2-0.1,1.8-0.2C-153.3-479.6-153.9-479.5-154.5-479.4"/>
<path class="st5" d="M-117.7-469.1c-0.5-0.1-1-0.2-1.6-0.3C-118.7-469.3-118.2-469.2-117.7-469.1"/>
<path class="st5" d="M-182.2-472.9c0.5-0.2,1-0.4,1.6-0.5C-181.2-473.3-181.7-473.1-182.2-472.9"/>
<path class="st5" d="M-114.8-468.6c-0.5-0.1-1-0.2-1.5-0.3C-115.8-468.8-115.3-468.7-114.8-468.6"/>
<path class="st5" d="M-173.2-475.7c0.5-0.1,1.1-0.3,1.6-0.4C-172.1-476-172.7-475.9-173.2-475.7"/>
<path class="st5" d="M-170.1-476.5c0.5-0.1,1.1-0.3,1.6-0.4C-169.1-476.8-169.6-476.7-170.1-476.5"/>
<path class="st5" d="M-176.2-474.9c0.5-0.2,1.1-0.3,1.6-0.5C-175.2-475.2-175.7-475-176.2-474.9"/>
<path class="st5" d="M-185.2-471.8c0.5-0.2,1-0.4,1.6-0.6C-184.2-472.2-184.7-472-185.2-471.8"/>
<path class="st5" d="M-120.9-479.2c0.6,0.1,1.2,0.1,1.7,0.2C-119.7-479.1-120.3-479.1-120.9-479.2"/>
<path class="st5" d="M-130.6-480.2c0.6,0,1.3,0.1,1.9,0.1C-129.3-480.1-130-480.1-130.6-480.2"/>
<path class="st5" d="M-127.3-479.9c0.6,0.1,1.2,0.1,1.8,0.2C-126.1-479.8-126.7-479.9-127.3-479.9"/>
<path class="st5" d="M-151.3-479.8c0.6-0.1,1.2-0.1,1.8-0.2C-150.1-479.9-150.7-479.8-151.3-479.8"/>
<path class="st5" d="M-111.4-477.6c0.6,0.1,1.1,0.2,1.6,0.4C-110.3-477.4-110.9-477.5-111.4-477.6"/>
<path class="st5" d="M-117.7-478.8c0.6,0.1,1.1,0.2,1.7,0.3C-116.6-478.6-117.1-478.7-117.7-478.8"/>
<path class="st5" d="M-114.5-478.2c0.6,0.1,1.1,0.2,1.7,0.3C-113.4-478-114-478.1-114.5-478.2"/>
<path class="st5" d="M-124.1-479.6c0.6,0.1,1.2,0.1,1.8,0.2C-122.9-479.5-123.5-479.6-124.1-479.6"/>
<path class="st5" d="M-148.1-480c0.6,0,1.3-0.1,1.9-0.1C-146.8-480.1-147.5-480.1-148.1-480"/>
<path class="st5" d="M-144.9-480.2c0.7,0,1.4-0.1,2.2-0.1C-143.4-480.3-144.2-480.3-144.9-480.2"/>
<path class="st5" d="M-138.4-480.4c1.1,0,2.2,0,3.3,0C-136.2-480.4-137.3-480.4-138.4-480.4"/>
<path class="st5" d="M-134.1-480.3c0.7,0,1.4,0,2.2,0.1C-132.6-480.3-133.4-480.3-134.1-480.3"/>
<path class="st5" d="M-141.7-480.4c1.1,0,2.2,0,3.3,0C-139.5-480.4-140.6-480.4-141.7-480.4"/>
<path class="st5" d="M-188.4-460.1c-0.5,0.2-0.9,0.4-1.4,0.7C-189.4-459.7-188.9-459.9-188.4-460.1"/>
<path class="st5" d="M-157.6-469.4c-0.5,0.1-1,0.2-1.6,0.3C-158.6-469.2-158.1-469.3-157.6-469.4"/>
<path class="st5" d="M-172-466.2c-0.5,0.1-1,0.3-1.4,0.4C-173-465.9-172.5-466-172-466.2"/>
<path class="st5" d="M-177.6-464.4c-0.5,0.2-0.9,0.3-1.4,0.5C-178.5-464.1-178.1-464.3-177.6-464.4"/>
<path class="st5" d="M-191.1-458.9c-0.5,0.2-1,0.5-1.5,0.7C-192.1-458.4-191.6-458.6-191.1-458.9"/>
<path class="st5" d="M-142.4-470.8c-0.7,0-1.3,0-2,0.1C-143.8-470.8-143.1-470.8-142.4-470.8"/>
<path class="st5" d="M-169.2-467c-0.5,0.1-1,0.3-1.5,0.4C-170.1-466.7-169.6-466.8-169.2-467"/>
<path class="st5" d="M-145.6-470.7c-0.6,0-1.2,0.1-1.8,0.1C-146.8-470.6-146.2-470.6-145.6-470.7"/>
<path class="st5" d="M-151.7-470.2c-0.5,0.1-1.1,0.1-1.6,0.2C-152.8-470-152.2-470.1-151.7-470.2"/>
<path class="st5" d="M-154.6-469.8c-0.5,0.1-1.1,0.1-1.6,0.2C-155.7-469.7-155.2-469.7-154.6-469.8"/>
<path class="st5" d="M-180.3-463.5c-0.5,0.2-0.9,0.4-1.4,0.5C-181.3-463.1-180.8-463.3-180.3-463.5"/>
<path class="st5" d="M-138.4-470.9c-1,0-2,0-3,0C-140.4-470.9-139.4-470.9-138.4-470.9"/>
<path class="st5" d="M-148.7-470.5c-0.6,0.1-1.1,0.1-1.7,0.1C-149.8-470.4-149.2-470.4-148.7-470.5"/>
<path class="st5" d="M-174.8-465.4c-0.5,0.1-1,0.3-1.4,0.5C-175.8-465-175.3-465.2-174.8-465.4"/>
<path class="st5" d="M-183.1-462.4c-0.5,0.2-0.9,0.4-1.4,0.6C-184-462-183.5-462.2-183.1-462.4"/>
<path class="st5" d="M-185.8-461.3c-0.5,0.2-0.9,0.4-1.4,0.6C-186.7-460.9-186.2-461.1-185.8-461.3"/>
<path class="st5" d="M-166.3-467.7c-0.5,0.1-1,0.2-1.5,0.4C-167.3-467.4-166.8-467.5-166.3-467.7"/>
<path class="st5" d="M-194-468.1c0.5-0.3,1.1-0.5,1.6-0.7C-192.9-468.6-193.4-468.3-194-468.1"/>
<path class="st5" d="M-196.9-466.6c0.6-0.3,1.1-0.6,1.7-0.8C-195.8-467.2-196.3-466.9-196.9-466.6"/>
<path class="st5" d="M-126.4-470.3c-0.6,0-1.1-0.1-1.7-0.1C-127.6-470.4-127-470.4-126.4-470.3"/>
<path class="st5" d="M-123.5-470c-0.5-0.1-1.1-0.1-1.6-0.2C-124.6-470.1-124-470-123.5-470"/>
<path class="st5" d="M-191.1-469.4c0.5-0.2,1-0.5,1.6-0.7C-190-469.8-190.6-469.6-191.1-469.4"/>
<path class="st5" d="M-188.1-470.6c0.5-0.2,1-0.4,1.6-0.6C-187.1-471.1-187.6-470.8-188.1-470.6"/>
<path class="st5" d="M-163.4-468.3c-0.5,0.1-1,0.2-1.5,0.3C-164.4-468.1-163.9-468.2-163.4-468.3"/>
<path class="st5" d="M-129.4-470.6c-0.6,0-1.2-0.1-1.8-0.1C-130.6-470.6-130-470.6-129.4-470.6"/>
<path class="st5" d="M-132.4-470.7c-0.7,0-1.3,0-2-0.1C-133.7-470.8-133.1-470.8-132.4-470.7"/>
<path class="st5" d="M-120.6-469.6c-0.5-0.1-1.1-0.1-1.6-0.2C-121.6-469.7-121.1-469.7-120.6-469.6"/>
<path class="st5" d="M-108.3-476.9c0.5,0.1,1.1,0.3,1.6,0.4C-107.2-476.7-107.8-476.8-108.3-476.9"/>
<path class="st5" d="M-194.1-457.4c0.1-0.1,0.3-0.1,0.4-0.2C-193.8-457.5-194-457.4-194.1-457.4L-194.1-457.4z"/>
<path class="st5" d="M-135.4-470.8c-1,0-2,0-3,0C-137.4-470.9-136.4-470.9-135.4-470.8"/>
<path class="st5" d="M-160.5-468.9c-0.5,0.1-1,0.2-1.5,0.3C-161.6-468.7-161-468.8-160.5-468.9"/>
<path class="st5" d="M-227.8-445c-0.2,0.2-0.4,0.4-0.6,0.6c-20.1-22.3-31.1-50.8-31.1-81c0-25.5,7.7-49.6,22.4-70.1
	c7.8,9,16.9,16.9,26.8,23.4c0.7-3.3,1.6-6.6,2.5-9.8c-9.6-6.8-18.3-14.9-25.7-24.2l-3.7-4.7l-3.7,4.7c-18.3,23.2-28,51.1-28,80.8
	c0,32.7,12,63.6,33.9,87.7l3.2-3.3C-230.6-442.3-229.2-443.7-227.8-445"/>
<path class="st5" d="M-215.4-455.3c-0.5,0.3-0.9,0.7-1.4,1C-216.3-454.6-215.9-454.9-215.4-455.3"/>
<path class="st5" d="M-225.4-447.2c-0.4,0.4-0.9,0.8-1.3,1.2C-226.3-446.4-225.8-446.8-225.4-447.2"/>
<path class="st5" d="M-231.9-434.3l3.4,3.5l0.1-0.1C-229.6-432-230.8-433.1-231.9-434.3"/>
<path class="st5" d="M-212.8-457.1c-0.5,0.3-1,0.7-1.4,1C-213.8-456.5-213.3-456.8-212.8-457.1"/>
<path class="st5" d="M-218-453.4c-0.4,0.3-0.9,0.7-1.4,1.1C-218.9-452.6-218.4-453-218-453.4"/>
<path class="st5" d="M-223-449.3c-0.4,0.4-0.9,0.8-1.3,1.1C-223.8-448.6-223.4-448.9-223-449.3"/>
<path class="st5" d="M-7.8-525.4c0-10.4-1.2-20.8-3.6-30.8c-0.6-2.4-2.9-4.1-5.3-3.7c-2.8,0.4-4.6,3.1-3.9,5.8
	c2.3,9.3,3.4,19,3.4,28.7c0,11.2-1.5,22.1-4.4,32.6c-0.7,2.5,0.7,5,3.1,5.8c2.6,0.9,5.4-0.6,6.1-3.2C-9.5-501.5-7.8-513.3-7.8-525.4
	"/>
<path class="st5" d="M-220.5-451.4c-0.4,0.4-0.9,0.7-1.3,1.1C-221.4-450.6-220.9-451-220.5-451.4"/>
<path class="st5" d="M-220.2-439.1c0.4-0.4,0.8-0.7,1.2-1.1C-219.4-439.8-219.8-439.4-220.2-439.1"/>
<path class="st5" d="M-210.1-459c-0.5,0.3-1,0.6-1.5,1C-211.1-458.3-210.6-458.6-210.1-459"/>
<path class="st5" d="M-218-441.1c0.4-0.3,0.8-0.7,1.2-1C-217.2-441.7-217.6-441.4-218-441.1"/>
<path class="st5" d="M-105-476.1c-0.1,0-0.1,0-0.2,0C-105.2-476.1-105.1-476.1-105-476.1L-105-476.1z"/>
<path class="st5" d="M-213.4-444.9c0.4-0.3,0.8-0.6,1.2-1C-212.6-445.5-213-445.2-213.4-444.9"/>
<path class="st5" d="M-206.3-461.4c0.2-0.1,0.4-0.2,0.6-0.4l0,0C-205.9-461.6-206.1-461.5-206.3-461.4"/>
<path class="st5" d="M-211.1-446.7c0.4-0.3,0.8-0.6,1.2-0.9C-210.2-447.3-210.6-447-211.1-446.7"/>
<path class="st5" d="M-208.7-448.4c0.4-0.3,0.8-0.6,1.3-0.9C-207.8-449-208.3-448.7-208.7-448.4"/>
<path class="st5" d="M-166-558.1c0.7-2.5-0.8-5.1-3.4-5.8c-10.6-2.8-20.7-7.1-30.1-12.6c-0.8,3.2-1.6,6.4-2.3,9.7
	c9.4,5.3,19.5,9.4,29.9,12.1C-169.3-554.1-166.7-555.6-166-558.1"/>
<path class="st5" d="M-215.7-443c0.4-0.3,0.8-0.7,1.2-1C-214.9-443.6-215.3-443.3-215.7-443"/>
<path class="st5" d="M-207.4-460.7c-0.5,0.3-1,0.6-1.6,1C-208.5-460.1-207.9-460.4-207.4-460.7"/>
<path class="st5" d="M-206.3-450.1c0.4-0.3,0.9-0.6,1.3-0.9C-205.4-450.7-205.8-450.4-206.3-450.1"/>
<path class="st5" d="M-203.8-451.8c0.4-0.3,0.9-0.6,1.3-0.8C-202.9-452.3-203.4-452-203.8-451.8"/>
<path class="st5" d="M-221.8-437.6C-221.8-437.6-221.8-437.6-221.8-437.6c0.2-0.2,0.4-0.3,0.5-0.5
	C-221.4-437.9-221.6-437.8-221.8-437.6"/>
<path class="st5" d="M-56.3-451.4c0.4,0.4,0.9,0.7,1.3,1.1C-55.4-450.6-55.9-451-56.3-451.4"/>
<path class="st5" d="M-90.2-471.3c0.5,0.2,1,0.4,1.5,0.6C-89.2-470.8-89.7-471.1-90.2-471.3"/>
<path class="st5" d="M-74.3-452.6c0.4,0.3,0.9,0.6,1.3,0.8C-73.4-452-73.9-452.3-74.3-452.6"/>
<path class="st5" d="M-66.7-459c0.5,0.3,1,0.6,1.5,1C-65.7-458.3-66.2-458.6-66.7-459"/>
<path class="st5" d="M-71.8-451c0.4,0.3,0.9,0.6,1.3,0.9C-71-450.4-71.4-450.7-71.8-451"/>
<path class="st5" d="M-48.3-430.8L-48.3-430.8l3.5-3.4C-46-433.1-47.2-432-48.3-430.8"/>
<path class="st5" d="M-64-457.1c0.5,0.3,1,0.7,1.4,1C-63-456.5-63.5-456.8-64-457.1"/>
<path class="st5" d="M-55.6-438.1c0.2,0.2,0.4,0.3,0.5,0.5c0,0,0,0,0,0C-55.2-437.8-55.4-437.9-55.6-438.1"/>
<path class="st5" d="M-93.2-472.4c0.5,0.2,1,0.4,1.6,0.6C-92.1-472-92.6-472.2-93.2-472.4"/>
<path class="st5" d="M-51.4-447.2c0.4,0.4,0.9,0.8,1.3,1.2C-50.6-446.4-51-446.8-51.4-447.2"/>
<path class="st5" d="M-60-442.1c0.4,0.3,0.8,0.7,1.2,1C-59.2-441.4-59.6-441.7-60-442.1"/>
<path class="st5" d="M-70.5-461.4c-0.2-0.1-0.4-0.2-0.6-0.4l0,0C-70.9-461.6-70.7-461.5-70.5-461.4"/>
<path class="st5" d="M-87.3-470.1c0.5,0.2,1,0.4,1.6,0.7C-86.3-469.6-86.8-469.8-87.3-470.1"/>
<path class="st5" d="M-84.4-468.8c0.5,0.2,1.1,0.5,1.6,0.7C-83.3-468.3-83.9-468.6-84.4-468.8"/>
<path class="st5" d="M-58.8-453.4c0.5,0.3,0.9,0.7,1.4,1.1C-57.9-452.6-58.4-453-58.8-453.4"/>
<path class="st5" d="M-82.7-457.4L-82.7-457.4c-0.1-0.1-0.3-0.1-0.4-0.2C-83-457.5-82.8-457.4-82.7-457.4"/>
<path class="st5" d="M-69.4-449.3c0.4,0.3,0.8,0.6,1.3,0.9C-68.6-448.7-69-449-69.4-449.3"/>
<path class="st5" d="M-57.8-440.1c0.4,0.3,0.8,0.7,1.2,1C-57-439.4-57.4-439.8-57.8-440.1"/>
<path class="st5" d="M-62.3-444c0.4,0.3,0.8,0.7,1.2,1C-61.5-443.3-61.9-443.6-62.3-444"/>
<path class="st5" d="M-81.6-467.5c0.6,0.3,1.1,0.5,1.7,0.8C-80.4-466.9-81-467.2-81.6-467.5"/>
<path class="st5" d="M-64.6-445.8c0.4,0.3,0.8,0.6,1.2,1C-63.8-445.2-64.2-445.5-64.6-445.8"/>
<path class="st5" d="M-86.9-459.5c-0.5-0.2-0.9-0.4-1.4-0.7C-87.9-459.9-87.4-459.7-86.9-459.5"/>
<path class="st5" d="M-67-447.6c0.4,0.3,0.8,0.6,1.2,0.9C-66.2-447-66.6-447.3-67-447.6"/>
<path class="st5" d="M-53.8-449.3c0.4,0.4,0.9,0.8,1.3,1.1C-53-448.6-53.4-448.9-53.8-449.3"/>
<path class="st5" d="M-89.6-460.7c-0.5-0.2-0.9-0.4-1.4-0.6C-90.6-461.1-90.1-460.9-89.6-460.7"/>
<path class="st5" d="M-69.4-460.7c0.5,0.3,1,0.6,1.6,1C-68.3-460.1-68.9-460.4-69.4-460.7"/>
<path class="st5" d="M-61.4-455.3c0.5,0.3,0.9,0.7,1.4,1C-60.5-454.6-60.9-454.9-61.4-455.3"/>
<path class="st5" d="M-84.2-458.2c-0.5-0.3-1-0.5-1.5-0.7C-85.2-458.6-84.7-458.4-84.2-458.2"/>
<path class="st5" d="M-147.4-470.6c-0.4,0-0.9,0.1-1.3,0.1C-148.3-470.5-147.8-470.5-147.4-470.6"/>
<path class="st5" d="M-144.4-470.7c-0.4,0-0.8,0.1-1.2,0.1C-145.2-470.7-144.8-470.7-144.4-470.7"/>
<path class="st5" d="M-212.2-445.8c0.4-0.3,0.8-0.6,1.1-0.9C-211.4-446.4-211.8-446.1-212.2-445.8"/>
<path class="st5" d="M-156.2-469.6c-0.4,0.1-0.9,0.1-1.4,0.2C-157.1-469.4-156.7-469.5-156.2-469.6"/>
<path class="st5" d="M-159.2-469.1c-0.5,0.1-0.9,0.2-1.4,0.3C-160.1-469-159.6-469-159.2-469.1"/>
<path class="st5" d="M-221.2-438.1c0.4-0.3,0.7-0.6,1.1-1C-220.5-438.7-220.9-438.4-221.2-438.1"/>
<path class="st5" d="M-141.4-470.8c-0.3,0-0.7,0-1,0C-142.1-470.8-141.8-470.8-141.4-470.8"/>
<path class="st5" d="M-235.2-437.6l3.2,3.3C-233-435.4-234.1-436.5-235.2-437.6L-235.2-437.6z"/>
<path class="st5" d="M-150.4-470.3c-0.4,0-0.9,0.1-1.3,0.1C-151.2-470.2-150.8-470.3-150.4-470.3"/>
<path class="st5" d="M-216.8-442.1c0.4-0.3,0.7-0.6,1.1-0.9C-216.1-442.7-216.4-442.4-216.8-442.1"/>
<path class="st5" d="M-214.5-444c0.4-0.3,0.7-0.6,1.1-0.9C-213.8-444.6-214.1-444.3-214.5-444"/>
<path class="st5" d="M-153.3-470c-0.4,0.1-0.9,0.1-1.3,0.2C-154.2-469.9-153.8-469.9-153.3-470"/>
<path class="st5" d="M-219-440.1c0.4-0.3,0.7-0.6,1.1-1C-218.3-440.7-218.7-440.4-219-440.1"/>
<path class="st5" d="M-219.3-452.3c-0.4,0.3-0.8,0.6-1.2,0.9C-220.1-451.7-219.7-452-219.3-452.3"/>
<path class="st5" d="M-110.5-467.7c-0.5-0.1-0.9-0.2-1.4-0.3C-111.4-467.9-111-467.8-110.5-467.7"/>
<path class="st5" d="M-216.8-454.3c-0.4,0.3-0.8,0.6-1.2,0.9C-217.6-453.7-217.2-454-216.8-454.3"/>
<path class="st5" d="M-116.3-468.9c-0.4-0.1-0.9-0.2-1.4-0.3C-117.2-469-116.7-469-116.3-468.9"/>
<path class="st5" d="M-211.6-458c-0.4,0.3-0.8,0.5-1.2,0.8C-212.4-457.4-212-457.7-211.6-458"/>
<path class="st5" d="M-113.4-468.3c-0.5-0.1-0.9-0.2-1.4-0.3C-114.3-468.5-113.8-468.4-113.4-468.3"/>
<path class="st5" d="M-214.2-456.1c-0.4,0.3-0.8,0.6-1.2,0.9C-215-455.6-214.6-455.9-214.2-456.1"/>
<path class="st5" d="M-226.7-446c-0.4,0.3-0.7,0.7-1.1,1C-227.4-445.3-227-445.7-226.7-446"/>
<path class="st5" d="M-224.3-448.2c-0.4,0.3-0.8,0.7-1.1,1C-225-447.5-224.6-447.9-224.3-448.2"/>
<path class="st5" d="M-221.8-450.3c-0.4,0.3-0.8,0.6-1.1,1C-222.6-449.6-222.2-450-221.8-450.3"/>
<path class="st5" d="M-122.2-469.8c-0.4-0.1-0.9-0.1-1.3-0.2C-123-469.9-122.6-469.9-122.2-469.8"/>
<path class="st5" d="M-128.1-470.5c-0.4,0-0.9-0.1-1.3-0.1C-129-470.5-128.6-470.5-128.1-470.5"/>
<path class="st5" d="M-205-451c0.4-0.3,0.8-0.5,1.2-0.8C-204.2-451.5-204.6-451.2-205-451"/>
<path class="st5" d="M-131.2-470.7c-0.4,0-0.8-0.1-1.2-0.1C-132-470.7-131.6-470.7-131.2-470.7"/>
<path class="st5" d="M-207.4-449.3c0.4-0.3,0.8-0.5,1.1-0.8C-206.6-449.9-207-449.6-207.4-449.3"/>
<path class="st5" d="M-134.4-470.8c-0.3,0-0.7,0-1,0C-135.1-470.8-134.7-470.8-134.4-470.8"/>
<path class="st5" d="M-125.1-470.2c-0.4-0.1-0.9-0.1-1.3-0.1C-126-470.3-125.6-470.2-125.1-470.2"/>
<path class="st5" d="M-209-459.7c-0.4,0.3-0.8,0.5-1.2,0.8C-209.8-459.2-209.4-459.5-209-459.7"/>
<path class="st5" d="M-162.1-468.6c-0.5,0.1-0.9,0.2-1.4,0.3C-163-468.4-162.5-468.5-162.1-468.6"/>
<path class="st5" d="M-209.8-447.6c0.4-0.3,0.8-0.6,1.1-0.8C-209.1-448.2-209.4-447.9-209.8-447.6"/>
<path class="st5" d="M-119.2-469.4c-0.4-0.1-0.9-0.1-1.4-0.2C-120.1-469.5-119.7-469.4-119.2-469.4"/>
<path class="st5" d="M-206.3-461.4c-0.4,0.2-0.8,0.5-1.1,0.7C-207.1-461-206.7-461.2-206.3-461.4"/>
<path class="st5" d="M-146.2-480.2c0.4,0,0.9-0.1,1.3-0.1C-145.3-480.2-145.8-480.2-146.2-480.2"/>
<path class="st5" d="M-162.3-478.2c0.5-0.1,1-0.2,1.5-0.3C-161.3-478.4-161.8-478.3-162.3-478.2"/>
<path class="st5" d="M-159.1-478.8c0.5-0.1,1-0.1,1.5-0.2C-158.1-478.9-158.6-478.8-159.1-478.8"/>
<path class="st5" d="M-186.6-471.3c0.5-0.2,0.9-0.4,1.4-0.5C-185.7-471.6-186.1-471.4-186.6-471.3"/>
<path class="st5" d="M-149.5-479.9c0.5,0,0.9-0.1,1.4-0.1C-148.6-480-149-480-149.5-479.9"/>
<path class="st5" d="M-152.7-479.6c0.5,0,0.9-0.1,1.4-0.1C-151.8-479.7-152.3-479.7-152.7-479.6"/>
<path class="st5" d="M-155.9-479.2c0.5-0.1,1-0.1,1.4-0.2C-155-479.4-155.4-479.3-155.9-479.2"/>
<path class="st5" d="M-165.4-477.6c0.5-0.1,1-0.2,1.5-0.3C-164.4-477.8-164.9-477.7-165.4-477.6"/>
<path class="st5" d="M-180.7-473.4c0.5-0.2,0.9-0.3,1.4-0.5C-179.7-473.8-180.2-473.6-180.7-473.4"/>
<path class="st5" d="M-183.6-472.4c0.5-0.2,0.9-0.3,1.4-0.5C-182.7-472.7-183.2-472.6-183.6-472.4"/>
<path class="st5" d="M-171.6-476.2c0.5-0.1,1-0.3,1.5-0.4C-170.6-476.4-171.1-476.3-171.6-476.2"/>
<path class="st5" d="M-174.6-475.3c0.5-0.1,1-0.3,1.4-0.4C-173.7-475.6-174.2-475.5-174.6-475.3"/>
<path class="st5" d="M-177.7-474.4c0.5-0.1,1-0.3,1.4-0.4C-176.7-474.7-177.2-474.6-177.7-474.4"/>
<path class="st5" d="M-168.5-476.9c0.5-0.1,1-0.2,1.5-0.3C-167.5-477.1-168-477-168.5-476.9"/>
<path class="st5" d="M-116-478.5c0.5,0.1,1,0.2,1.5,0.3C-115-478.3-115.5-478.4-116-478.5"/>
<path class="st5" d="M-112.9-477.9c0.5,0.1,1,0.2,1.5,0.3C-111.9-477.7-112.4-477.8-112.9-477.9"/>
<path class="st5" d="M-119.2-479c0.5,0.1,1,0.1,1.4,0.2C-118.2-478.8-118.7-478.9-119.2-479"/>
<path class="st5" d="M-142.7-480.3c0.4,0,0.7,0,1.1,0C-142-480.3-142.4-480.3-142.7-480.3"/>
<path class="st5" d="M-122.3-479.4c0.5,0.1,1,0.1,1.4,0.2C-121.3-479.3-121.8-479.4-122.3-479.4"/>
<path class="st5" d="M-109.8-477.3c0.5,0.1,1,0.2,1.5,0.3C-108.8-477-109.3-477.1-109.8-477.3"/>
<path class="st5" d="M-125.5-479.8c0.5,0,0.9,0.1,1.4,0.1C-124.5-479.7-125-479.7-125.5-479.8"/>
<path class="st5" d="M-135.2-480.4c0.4,0,0.7,0,1.1,0C-134.4-480.3-134.8-480.3-135.2-480.4"/>
<path class="st5" d="M-202.4-452.6C-202.4-452.6-202.5-452.6-202.4-452.6C-202.5-452.6-202.4-452.6-202.4-452.6"/>
<path class="st5" d="M-128.7-480c0.5,0,0.9,0.1,1.4,0.1C-127.8-480-128.2-480-128.7-480"/>
<path class="st5" d="M-131.9-480.2c0.4,0,0.9,0.1,1.3,0.1C-131.1-480.2-131.5-480.2-131.9-480.2"/>
<path class="st5" d="M-181.8-462.9c-0.4,0.2-0.9,0.3-1.3,0.5C-182.6-462.6-182.2-462.8-181.8-462.9"/>
<path class="st5" d="M-102.4-409.7c-10.9,9.8-23.2,14.9-36,14.9c19.8,0,38.9-4.4,56.3-12.6l-3-9.1
	C-90.7-413.8-96.5-411.5-102.4-409.7"/>
<path class="st5" d="M-192.6-458.2c-0.4,0.2-0.8,0.4-1.1,0.6C-193.3-457.8-192.9-458-192.6-458.2"/>
<path class="st5" d="M-170.6-466.6c-0.4,0.1-0.9,0.3-1.4,0.4C-171.5-466.3-171.1-466.4-170.6-466.6"/>
<path class="st5" d="M-189.9-459.5c-0.4,0.2-0.8,0.4-1.2,0.6C-190.7-459.1-190.3-459.3-189.9-459.5"/>
<path class="st5" d="M-173.4-465.8c-0.4,0.1-0.9,0.3-1.4,0.4C-174.3-465.5-173.9-465.6-173.4-465.8"/>
<path class="st5" d="M-176.2-464.9c-0.4,0.1-0.9,0.3-1.3,0.5C-177.1-464.6-176.7-464.7-176.2-464.9"/>
<path class="st5" d="M-179-463.9c-0.4,0.2-0.9,0.3-1.3,0.5C-179.9-463.6-179.4-463.8-179-463.9"/>
<path class="st5" d="M-184.5-461.8c-0.4,0.2-0.9,0.4-1.3,0.5C-185.3-461.5-184.9-461.7-184.5-461.8"/>
<path class="st5" d="M-187.2-460.7c-0.4,0.2-0.9,0.4-1.3,0.6C-188-460.3-187.6-460.5-187.2-460.7"/>
<path class="st5" d="M-197.3-466.5L-197.3-466.5c0.1-0.1,0.2-0.1,0.4-0.2C-197-466.6-197.1-466.5-197.3-466.5"/>
<path class="st5" d="M-221.8-437.6c-1.1,1.1-2.3,2.2-3.4,3.3l-3.3,3.4c24.4,23.3,56.2,36.1,90.1,36.1c-12.8,0-25.1-5.2-36-14.9
	C-192-415.2-208.1-424.6-221.8-437.6"/>
<path class="st5" d="M-189.5-470.1c0.4-0.2,0.9-0.4,1.4-0.6C-188.6-470.4-189.1-470.3-189.5-470.1"/>
<path class="st5" d="M-195.2-467.5c0.4-0.2,0.8-0.4,1.3-0.6C-194.4-467.9-194.8-467.7-195.2-467.5"/>
<path class="st5" d="M-192.4-468.8c0.4-0.2,0.9-0.4,1.3-0.6C-191.5-469.2-191.9-469-192.4-468.8"/>
<path class="st5" d="M-164.9-468c-0.5,0.1-0.9,0.2-1.4,0.3C-165.8-467.8-165.4-467.9-164.9-468"/>
<path class="st5" d="M-167.8-467.3c-0.4,0.1-0.9,0.2-1.4,0.4C-168.7-467.1-168.3-467.2-167.8-467.3"/>
<path class="st5" d="M-65.2-458c0.4,0.3,0.8,0.5,1.2,0.8C-64.4-457.4-64.8-457.7-65.2-458"/>
<path class="st5" d="M-91.6-471.8c0.5,0.2,0.9,0.4,1.4,0.5C-90.7-471.4-91.1-471.6-91.6-471.8"/>
<path class="st5" d="M-60-454.3c0.4,0.3,0.8,0.6,1.2,0.9C-59.2-453.7-59.6-454-60-454.3"/>
<path class="st5" d="M-79.6-466.5L-79.6-466.5c-0.1-0.1-0.2-0.1-0.3-0.2C-79.8-466.6-79.7-466.5-79.6-466.5"/>
<path class="st5" d="M-94.6-472.9c0.5,0.2,0.9,0.3,1.4,0.5C-93.6-472.6-94.1-472.7-94.6-472.9"/>
<path class="st5" d="M-57.5-452.3c0.4,0.3,0.8,0.6,1.2,0.9C-56.7-451.7-57.1-452-57.5-452.3"/>
<path class="st5" d="M-83.1-457.6c-0.4-0.2-0.8-0.4-1.1-0.6C-83.9-458-83.5-457.8-83.1-457.6"/>
<path class="st5" d="M-85.7-458.9c-0.4-0.2-0.8-0.4-1.2-0.6C-86.5-459.3-86.1-459.1-85.7-458.9"/>
<path class="st5" d="M-88.4-460.1c-0.4-0.2-0.8-0.4-1.3-0.6C-89.2-460.5-88.8-460.3-88.4-460.1"/>
<path class="st5" d="M-88.7-470.6c0.5,0.2,0.9,0.4,1.4,0.6C-87.8-470.3-88.2-470.4-88.7-470.6"/>
<path class="st5" d="M-82.8-468.1c0.4,0.2,0.8,0.4,1.3,0.6C-82-467.7-82.4-467.9-82.8-468.1"/>
<path class="st5" d="M-70.5-461.4c0.4,0.2,0.8,0.5,1.1,0.7C-69.8-461-70.1-461.2-70.5-461.4"/>
<path class="st5" d="M-62.6-456.1c0.4,0.3,0.8,0.6,1.2,0.9C-61.8-455.6-62.2-455.9-62.6-456.1"/>
<path class="st5" d="M-61.1-443c0.4,0.3,0.7,0.6,1.1,0.9C-60.4-442.4-60.7-442.7-61.1-443"/>
<path class="st5" d="M-58.8-441.1c0.4,0.3,0.7,0.6,1.1,0.9C-58.1-440.4-58.5-440.7-58.8-441.1"/>
<path class="st5" d="M-63.4-444.9c0.4,0.3,0.7,0.6,1.1,0.9C-62.7-444.3-63-444.6-63.4-444.9"/>
<path class="st5" d="M-56.6-439.1c0.4,0.3,0.7,0.6,1,1C-55.9-438.4-56.3-438.7-56.6-439.1"/>
<path class="st5" d="M-74.3-452.6C-74.3-452.6-74.4-452.6-74.3-452.6C-74.4-452.6-74.3-452.6-74.3-452.6"/>
<path class="st5" d="M-65.8-446.7c0.4,0.3,0.8,0.6,1.1,0.9C-65-446.1-65.4-446.4-65.8-446.7"/>
<path class="st5" d="M-41.6-437.6L-41.6-437.6c-1.1,1.1-2.1,2.2-3.2,3.3L-41.6-437.6z"/>
<path class="st5" d="M-50.1-446c0.4,0.3,0.7,0.7,1.1,1C-49.4-445.3-49.8-445.7-50.1-446"/>
<path class="st5" d="M-52.5-448.2c0.4,0.3,0.8,0.7,1.1,1C-51.8-447.5-52.2-447.9-52.5-448.2"/>
<path class="st5" d="M-68.1-448.4c0.4,0.3,0.8,0.5,1.1,0.8C-67.4-447.9-67.8-448.2-68.1-448.4"/>
<path class="st5" d="M-70.6-450.1c0.4,0.3,0.8,0.5,1.2,0.8C-69.8-449.6-70.2-449.9-70.6-450.1"/>
<path class="st5" d="M-73-451.8c0.4,0.3,0.8,0.5,1.2,0.8C-72.2-451.2-72.6-451.5-73-451.8"/>
<path class="st5" d="M-221.8-437.6L-221.8-437.6c0.2-0.2,0.4-0.3,0.5-0.5c0.4-0.3,0.7-0.6,1.1-1c0.4-0.4,0.8-0.7,1.2-1.1
	c0.4-0.3,0.7-0.6,1.1-0.9c0.4-0.3,0.8-0.7,1.2-1c0.4-0.3,0.7-0.6,1.1-0.9c0.4-0.3,0.8-0.7,1.2-1c0.4-0.3,0.7-0.6,1.1-0.9
	c0.4-0.3,0.8-0.6,1.2-0.9c0.4-0.3,0.8-0.6,1.1-0.9c0.4-0.3,0.8-0.6,1.2-0.9c0.4-0.3,0.8-0.6,1.1-0.8c0.4-0.3,0.8-0.6,1.3-0.9
	c0.4-0.3,0.8-0.5,1.1-0.8c0.4-0.3,0.9-0.6,1.3-0.9c0.4-0.3,0.8-0.5,1.2-0.8c0.4-0.3,0.9-0.6,1.3-0.8c0,0,0,0,0,0
	c-1.2-3-2.3-6-3.3-9.2c-0.2,0.1-0.4,0.2-0.6,0.4c-0.4,0.2-0.8,0.5-1.1,0.7c-0.5,0.3-1,0.6-1.6,1c-0.4,0.3-0.8,0.5-1.2,0.8
	c-0.5,0.3-1,0.6-1.5,1c-0.4,0.3-0.8,0.5-1.2,0.8c-0.5,0.3-1,0.7-1.4,1c-0.4,0.3-0.8,0.6-1.2,0.9c-0.5,0.3-0.9,0.7-1.4,1
	c-0.4,0.3-0.8,0.6-1.2,0.9c-0.4,0.4-0.9,0.7-1.4,1.1c-0.4,0.3-0.8,0.6-1.2,0.9c-0.4,0.4-0.9,0.7-1.3,1.1c-0.4,0.3-0.8,0.6-1.1,1
	c-0.4,0.4-0.9,0.8-1.3,1.1c-0.4,0.3-0.8,0.7-1.1,1c-0.4,0.4-0.9,0.8-1.3,1.2c-0.4,0.3-0.7,0.7-1.1,1c-1.4,1.3-2.8,2.7-4.2,4.1
	l-3.2,3.3c1,1.1,2.1,2.3,3.2,3.4c1.1,1.2,2.3,2.3,3.5,3.4l3.3-3.4C-224-435.4-222.9-436.5-221.8-437.6"/>
<path class="st5" d="M-205.7-461.8c0.4-0.2,0.8-0.5,1.2-0.7c0.3-0.2,0.6-0.4,0.9-0.6c0.9-0.5,1.8-1,2.7-1.5c0.3-0.2,0.6-0.3,0.9-0.5
	c0.6-0.3,1.3-0.7,1.9-1c0.3-0.1,0.5-0.3,0.8-0.4c-5.6-17.8-8.6-37.9-8.6-58.9c0-14.4,1.4-28.4,4.1-41.5c-2.9-1.6-5.8-3.4-8.6-5.2
	c-3.3,14.7-5,30.5-5,46.7C-215.4-502.7-212-481-205.7-461.8"/>
<path class="st5" d="M-88.3-425.9l-3.9-11.6c-12.7,21.4-29,33.2-46.2,33.2c12.4,0,24.5-1.9,36-5.4
	C-97.4-414.2-92.7-419.6-88.3-425.9"/>
<path class="st5" d="M-185.3-612c12.8-22.2,29.4-34.5,46.9-34.5s34.2,12.2,46.9,34.5c13.2,23.1,20.5,53.8,20.5,86.6
	c0,5.7-0.2,11.4-0.7,17c-0.2,2.2,1.2,4.2,3.2,4.9c2.9,1,6-1,6.3-4.1c0.5-5.8,0.7-11.7,0.7-17.7c0-34.4-7.7-66.9-21.8-91.3
	c-14.5-25.3-34.1-39.2-55.2-39.2s-40.7,13.9-55.2,39.2c-5.9,10.3-10.7,22.1-14.3,34.8c2.7,1.9,5.5,3.7,8.4,5.4
	C-196.1-589.6-191.3-601.5-185.3-612"/>
<path class="st5" d="M-185.3-438.8c-3.3-5.8-6.2-12-8.8-18.6c-0.5,0.3-1.1,0.6-1.6,0.9c-0.4,0.2-0.9,0.5-1.3,0.7
	c-0.6,0.3-1.2,0.7-1.7,1c-0.4,0.2-0.7,0.4-1.1,0.6c-0.5,0.3-0.9,0.6-1.4,0.9c-0.4,0.2-0.8,0.5-1.1,0.7c2.6,6.6,5.5,12.8,8.9,18.6
	c5.7,9.9,12.1,18,19.1,24.3c11.5,3.6,23.6,5.4,36,5.4C-155.9-404.3-172.6-416.5-185.3-438.8"/>
<path class="st5" d="M-197.1-455.8c-0.6,0.3-1.2,0.6-1.7,1C-198.2-455.1-197.6-455.5-197.1-455.8"/>
<path class="st5" d="M-200.8-464.6c-0.9,0.5-1.8,1-2.7,1.5C-202.7-463.6-201.8-464.1-200.8-464.6"/>
<path class="st5" d="M-201.8-566.9c0.7-3.3,1.4-6.5,2.3-9.7c-2.9-1.7-5.7-3.5-8.4-5.4c-0.9,3.2-1.7,6.5-2.5,9.8
	C-207.5-570.2-204.7-568.5-201.8-566.9"/>
<path class="st5" d="M-205.7-461.8L-205.7-461.8c0.4-0.2,0.8-0.5,1.2-0.7C-204.9-462.2-205.3-462-205.7-461.8"/>
<path class="st5" d="M-199.9-454.1c-0.5,0.3-0.9,0.6-1.4,0.9C-200.8-453.6-200.4-453.9-199.9-454.1"/>
<path class="st5" d="M-198.1-466c-0.6,0.3-1.3,0.7-1.9,1C-199.3-465.4-198.7-465.7-198.1-466"/>
<path class="st5" d="M-195.7-456.5c0.5-0.3,1.1-0.6,1.6-0.9l0,0C-194.6-457.1-195.2-456.8-195.7-456.5"/>
<path class="st5" d="M-81.1-456.5c-0.5-0.3-1.1-0.6-1.6-0.9l0,0C-82.2-457.1-81.6-456.8-81.1-456.5"/>
<path class="st5" d="M-78.7-466c0.6,0.3,1.3,0.7,1.9,1C-77.5-465.4-78.1-465.7-78.7-466"/>
<path class="st5" d="M-75.9-464.6c0.9,0.5,1.8,1,2.7,1.5C-74.1-463.6-75-464.1-75.9-464.6"/>
<path class="st5" d="M-71.1-461.8c-0.4-0.2-0.8-0.5-1.2-0.7C-71.9-462.2-71.5-462-71.1-461.8L-71.1-461.8z"/>
<path class="st5" d="M-79.8-455.8c0.6,0.3,1.2,0.6,1.7,1C-78.6-455.1-79.2-455.5-79.8-455.8"/>
<path class="st5" d="M-76.9-454.1c0.5,0.3,1,0.6,1.4,0.9C-76-453.6-76.4-453.9-76.9-454.1"/>
<path class="st5" d="M-200-465c-0.3,0.2-0.6,0.3-0.9,0.5C-200.6-464.7-200.3-464.9-200-465"/>
<path class="st5" d="M-195.7-456.5c-0.4,0.2-0.9,0.5-1.3,0.7C-196.6-456-196.2-456.3-195.7-456.5"/>
<path class="st5" d="M-198.8-454.8c-0.4,0.2-0.7,0.4-1.1,0.6C-199.5-454.4-199.2-454.6-198.8-454.8"/>
<path class="st5" d="M-198.1-466c0.3-0.1,0.5-0.3,0.8-0.4l0,0C-197.5-466.3-197.8-466.2-198.1-466"/>
<path class="st5" d="M-203.6-463c-0.3,0.2-0.6,0.4-0.9,0.6C-204.2-462.6-203.9-462.9-203.6-463"/>
<path class="st5" d="M-138.4-404.3c-12.4,0-24.5-1.9-36-5.4c10.9,9.8,23.2,14.9,36,14.9c12.8,0,25.1-5.2,36-14.9
	C-113.9-406.1-126-404.3-138.4-404.3"/>
<path class="st5" d="M-201.3-453.3c-0.4,0.2-0.8,0.5-1.1,0.7C-202.1-452.8-201.7-453.1-201.3-453.3"/>
<path class="st5" d="M-74.4-452.6L-74.4-452.6c-0.4-0.2-0.8-0.5-1.1-0.7C-75.1-453.1-74.7-452.8-74.4-452.6"/>
<path class="st5" d="M-78-454.8c0.4,0.2,0.7,0.4,1.1,0.6C-77.3-454.4-77.6-454.6-78-454.8"/>
<path class="st5" d="M-73.2-463c0.3,0.2,0.6,0.4,1,0.6C-72.6-462.6-72.9-462.9-73.2-463"/>
<path class="st5" d="M-78.7-466c-0.3-0.1-0.5-0.3-0.8-0.4l0,0C-79.3-466.3-79-466.2-78.7-466"/>
<path class="st5" d="M-76.8-465c0.3,0.2,0.6,0.3,0.9,0.5C-76.2-464.7-76.5-464.9-76.8-465"/>
<path class="st5" d="M-81.1-456.5c0.5,0.2,0.9,0.5,1.3,0.7C-80.2-456-80.6-456.3-81.1-456.5"/>
<path class="st5" d="M-199.9-454.1c0.4-0.2,0.7-0.4,1.1-0.6c0.6-0.3,1.2-0.7,1.7-1c0.4-0.3,0.9-0.5,1.3-0.7c0.5-0.3,1.1-0.6,1.6-0.9
	c-1.1-3-2.2-6-3.1-9.1c-0.3,0.1-0.5,0.3-0.8,0.4c-0.6,0.3-1.3,0.7-1.9,1c-0.3,0.2-0.6,0.3-0.9,0.5c-0.9,0.5-1.8,1-2.7,1.5
	c-0.3,0.2-0.6,0.4-0.9,0.6c-0.4,0.2-0.8,0.5-1.2,0.7c1,3.1,2.1,6.2,3.3,9.2c0.4-0.2,0.8-0.5,1.1-0.7
	C-200.8-453.6-200.4-453.9-199.9-454.1"/>
<rect x="-143.2" y="-651.2" class="st5" width="9.5" height="251.6"/>
<path class="st5" d="M-210.6-520.6h-53.6c-2.6,0-4.8-2.1-4.8-4.8s2.1-4.8,4.8-4.8h53.6c2.6,0,4.8,2.1,4.8,4.8
	S-208-520.6-210.6-520.6"/>
<path class="st5" d="M-29-520.6h-179c-2.6,0-4.8-2.1-4.8-4.8s2.1-4.8,4.8-4.8h179c2.6,0,4.8,2.1,4.8,4.8S-26.4-520.6-29-520.6"/>
<path class="st5" d="M-114.6-472.2c0-2.6,2-4.8,4.6-5.1c-0.4-0.1-0.9-0.2-1.3-0.3c-0.5-0.1-1-0.2-1.5-0.3c-0.6-0.1-1.1-0.2-1.7-0.3
	c-0.5-0.1-1-0.2-1.5-0.3c-0.6-0.1-1.1-0.2-1.7-0.3c-0.5-0.1-1-0.1-1.4-0.2c-0.6-0.1-1.2-0.2-1.7-0.2c-0.5-0.1-1-0.1-1.4-0.2
	c-0.6-0.1-1.2-0.1-1.8-0.2c-0.5,0-0.9-0.1-1.4-0.1c-0.6-0.1-1.2-0.1-1.8-0.2c-0.5,0-0.9-0.1-1.4-0.1c-0.6-0.1-1.3-0.1-1.9-0.1
	c-0.4,0-0.9-0.1-1.3-0.1c-0.7,0-1.4-0.1-2.2-0.1c-0.4,0-0.7,0-1.1,0c-1.1,0-2.2,0-3.3,0c-1.1,0-2.2,0-3.3,0c-0.4,0-0.7,0-1.1,0
	c-0.7,0-1.4,0-2.2,0.1c-0.4,0-0.9,0.1-1.3,0.1c-0.6,0-1.3,0.1-1.9,0.1c-0.5,0-0.9,0.1-1.4,0.1c-0.6,0.1-1.2,0.1-1.8,0.2
	c-0.5,0.1-0.9,0.1-1.4,0.1c-0.6,0.1-1.2,0.1-1.8,0.2c-0.5,0.1-1,0.1-1.4,0.2c-0.6,0.1-1.1,0.1-1.7,0.2c-0.5,0.1-1,0.1-1.5,0.2
	c-0.6,0.1-1.1,0.2-1.7,0.3c-0.5,0.1-1,0.2-1.5,0.3c-0.6,0.1-1.1,0.2-1.7,0.3c-0.5,0.1-1,0.2-1.5,0.3c-0.6,0.1-1.1,0.2-1.6,0.4
	c-0.5,0.1-1,0.2-1.5,0.3c-0.5,0.1-1.1,0.3-1.6,0.4c-0.5,0.1-1,0.2-1.5,0.4c-0.5,0.1-1.1,0.3-1.6,0.4c-0.5,0.1-1,0.3-1.4,0.4
	c-0.5,0.1-1.1,0.3-1.6,0.5c-0.5,0.1-1,0.3-1.4,0.4c-0.5,0.2-1.1,0.3-1.6,0.5c-0.5,0.2-0.9,0.3-1.4,0.5c-0.5,0.2-1,0.4-1.6,0.6
	c-0.5,0.2-0.9,0.3-1.4,0.5c-0.5,0.2-1,0.4-1.6,0.6c-0.5,0.2-0.9,0.4-1.4,0.5c-0.5,0.2-1,0.4-1.6,0.6c-0.5,0.2-0.9,0.4-1.4,0.6
	c-0.5,0.2-1,0.4-1.6,0.7c-0.4,0.2-0.9,0.4-1.3,0.6c-0.5,0.2-1.1,0.5-1.6,0.7c-0.4,0.2-0.8,0.4-1.3,0.6c-0.6,0.3-1.1,0.6-1.7,0.8
	c-0.1,0.1-0.2,0.1-0.4,0.2c1,3.1,2,6.1,3.1,9.1c0.1-0.1,0.3-0.1,0.4-0.2c0.4-0.2,0.8-0.4,1.1-0.6c0.5-0.3,1-0.5,1.5-0.7
	c0.4-0.2,0.8-0.4,1.2-0.6c0.5-0.2,0.9-0.4,1.4-0.7c0.4-0.2,0.8-0.4,1.3-0.6c0.5-0.2,0.9-0.4,1.4-0.6c0.4-0.2,0.9-0.4,1.3-0.5
	c0.5-0.2,0.9-0.4,1.4-0.6c0.4-0.2,0.9-0.3,1.3-0.5c0.5-0.2,0.9-0.4,1.4-0.5c0.4-0.2,0.9-0.3,1.3-0.5c0.5-0.2,0.9-0.3,1.4-0.5
	c0.4-0.1,0.9-0.3,1.3-0.4c0.5-0.2,1-0.3,1.4-0.5c0.4-0.1,0.9-0.3,1.4-0.4c0.5-0.2,1-0.3,1.4-0.4c0.4-0.1,0.9-0.3,1.4-0.4
	c0.5-0.1,1-0.3,1.5-0.4c0.4-0.1,0.9-0.2,1.4-0.4c0.5-0.1,1-0.2,1.5-0.4c0.5-0.1,0.9-0.2,1.4-0.3c0.5-0.1,1-0.2,1.5-0.3
	c0.5-0.1,0.9-0.2,1.4-0.3c0.5-0.1,1-0.2,1.5-0.3c0.5-0.1,0.9-0.2,1.4-0.2c0.5-0.1,1-0.2,1.6-0.3c0.4-0.1,0.9-0.1,1.4-0.2
	c0.5-0.1,1.1-0.1,1.6-0.2c0.4-0.1,0.9-0.1,1.3-0.2c0.5-0.1,1.1-0.1,1.6-0.2c0.4,0,0.9-0.1,1.3-0.1c0.6-0.1,1.1-0.1,1.7-0.1
	c0.4,0,0.9-0.1,1.3-0.1c0.6,0,1.2-0.1,1.8-0.1c0.4,0,0.8-0.1,1.2-0.1c0.7,0,1.3-0.1,2-0.1c0.3,0,0.7,0,1,0c1,0,2,0,3,0c1,0,2,0,3,0
	c6.3,0.1,12.5,0.8,18.6,1.9c1.3,0.2,2.7,0.5,4,0.8C-113.9-469.1-114.6-470.6-114.6-472.2"/>
<path class="st5" d="M-104.3-472.2c0-1.8-0.9-3.4-2.3-4.3c0,0-0.1,0-0.1,0c-0.5-0.1-1.1-0.3-1.6-0.4c-0.5-0.1-1-0.2-1.5-0.3
	c-0.1,0-0.2,0-0.3-0.1c-2.6,0.3-4.6,2.5-4.6,5.1c0,1.6,0.7,3.1,1.9,4c1.2,0.3,2.4,0.5,3.7,0.8c0.3,0.1,0.5,0.1,0.8,0.2
	C-106-467.6-104.3-469.7-104.3-472.2"/>
<polygon class="st6" points="169.6,227.8 197.7,273.8 207.3,256.6 213.9,248.9 239.8,243.8 237.2,236.8 212.5,204.2 198.6,221.3 "/>
<polygon class="st6" points="69.3,208.5 56.7,237.4 77.7,241.9 88,275.1 125,230.4 115.3,227.2 90.8,227.2 86,221.5 72,204.2 "/>
<path class="st7" d="M147.3,50.4c-36.2,0-65.7,29.5-65.7,65.7c0,36.2,29.5,65.7,65.7,65.7c36.2,0,65.7-29.5,65.7-65.7
	S183.6,50.4,147.3,50.4"/>
<path class="st5" d="M212.2,210.9l22.6,29.6l-23.5,4.4l-3.7,0.7l-1.7,3.4l-10.5,21.5l-29.5-38.8l1.7-0.8h18.8h0h0
	c6.3,0,12.1-2.8,16-7.7L212.2,210.9 M213.6,200.3l-4.4,2.1l-12.8,16.1c-2.4,3.1-6.2,4.9-10.1,4.9h0h-20.6l-11.6,5.6l36.2,47.6
	c1.2,1.6,3.1,2.6,5.1,2.6c0.2,0,0.4,0,0.6,0c2.2-0.2,4.2-1.6,5.2-3.6l11.3-23.1l25.1-4.7c2.1-0.4,4.1-1.8,4.9-3.8
	c1-2.3,0.6-4.7-0.8-6.5L213.6,200.3z"/>
<path class="st5" d="M71,210.9l9.8,12.3c3.9,4.9,9.7,7.7,16.1,7.7h18.8l1.7,0.8l-29.5,38.8l-10.5-21.5l-1.7-3.4L72,245l-23.5-4.4
	L71,210.9 M69.6,200.3l-28.2,37.1c-2.4,3.2-1.4,8,2.5,9.8c0.5,0.2,1,0.4,1.5,0.5l25.2,4.8l11.3,22.9c0.9,1.9,2.7,3.3,4.8,3.7
	c0.4,0.1,0.7,0.1,1.1,0.1c2,0,3.9-0.9,5.1-2.6l36.2-47.6l-11.6-5.6H96.9h0c-3.9,0-7.6-1.8-10.1-4.9L74,202.4L69.6,200.3z"/>
<path class="st8" d="M197.6,33.2l-7.6-9.6c-1.2-1.5-3-2.4-4.9-2.4"/>
<path class="st8" d="M240.6,87.2l-9.8-12.3L226,53.9c-0.4-1.9-1.7-3.4-3.4-4.3l-10.4-5"/>
<line class="st8" x1="242.4" y1="109.8" x2="245.4" y2="96.9"/>
<path class="st8" d="M185,21.3h-21.4L144.3,12c-1.7-0.8-3.7-0.8-5.5,0l-19.3,9.3H98.1c-1.9,0-3.7,0.9-4.9,2.4L79.8,40.4l-19.3,9.3
	c-1.7,0.8-3,2.4-3.4,4.3l-4.8,20.9L39,91.6c-1.2,1.5-1.6,3.5-1.2,5.3l4.8,20.9l-4.8,20.9c-0.4,1.9,0,3.8,1.2,5.3l13.4,16.8l4.8,20.9
	c0.4,1.9,1.7,3.4,3.4,4.3l19.3,9.3L93.2,212c1.2,1.5,3,2.4,4.9,2.4h21.4l19.3,9.3c1.7,0.8,3.7,0.8,5.5,0l19.3-9.3h21.4
	c1.9,0,3.7-0.9,4.9-2.4l13.4-16.8l19.3-9.3c1.7-0.8,3-2.4,3.4-4.3l4.8-20.9l13.4-16.8c1.2-1.5,1.6-3.5,1.2-5.3l-3.1-13.8"/>
<path class="st8" d="M203.9,81.4c-1.3-2.2-2.7-4.3-4.3-6.4"/>
<path class="st8" d="M185.7,60.8c-25-19.2-60.7-20.4-87.2-0.7c-32,23.8-38.7,69.1-14.9,101.1s69.1,38.7,101.1,14.9
	c27.2-20.2,36.1-56.1,23.5-86.1"/>
<polygon class="st9" points="122.9,125.3 104,106.9 130.2,103.1 141.9,79.4 153.6,103.1 179.7,106.9 160.8,125.3 165.2,151.4 
	141.9,139.1 118.5,151.4 "/>
<path class="st5" d="M141.9,88l7.4,15l1.8,3.6l3.9,0.6l16.6,2.4l-12,11.7l-2.9,2.8l0.7,3.9l2.8,16.5l-14.8-7.8l-3.5-1.9l-3.5,1.9
	l-14.8,7.8l2.8-16.5l0.7-3.9l-2.9-2.8l-12-11.7l16.6-2.4l3.9-0.6l1.8-3.6L141.9,88z M141.9,70.9l-14.2,28.8l-31.8,4.6l23,22.4
	l-5.4,31.6l28.4-14.9l28.4,14.9l-5.4-31.6l23-22.4l-31.8-4.6L141.9,70.9z"/>
<g>
	<path class="st10" d="M228-594.3c-1.2,1.4-2.2,2.7-3.2,4.1c-1.6,5.1-2.1,10.5-1.4,15.8c6.1,0.4,12.2-1,17.8-3.8
		c7.4-8.2,11.7-19.4,12.2-31.5C244.8-608.5,235.3-602.8,228-594.3"/>
	<path class="st5" d="M238.6-578.8c-0.5,0.6-1.1,1.2-1.7,1.8c-5.7,5.5-12.8,8.7-19.9,9c-0.3-7,2.2-14.4,7-21.3
		c0.9-1.2,1.8-2.5,2.8-3.7c6.5-7.5,14.9-12.5,22.5-13.6c0,0.9-0.1,1.8-0.2,2.6c-0.2,1.7,1.2,3.2,2.9,3.3c1.6,0.1,3.1-1.1,3.2-2.7
		c0.2-2.2,0.3-4.4,0.2-6.6l-0.1-3h-3c-5.4,0-11.2,1.8-16.8,4.9c-4.8,2.7-9.4,6.5-13.4,11.1c-7.6,8.8-11.6,19.1-11.3,28.8
		c0,1.2,0.1,2.5,0.3,3.7l0.4,2.5l2.5,0.2c0.6,0,1.3,0.1,1.9,0.1c6.4,0,12.9-2,18.7-5.6c2.3-1.5,4.5-3.2,6.5-5.1
		c2.5-2.4,4.7-5.2,6.6-8.1c0.9-1.4,0.5-3.3-0.9-4.2c-1.4-0.9-3.3-0.5-4.2,0.9C241.4-582.2,240.1-580.5,238.6-578.8"/>
	<path class="st5" d="M250.8-596.6L250.8-596.6c-1.5-0.3-3.1,0.6-3.5,2.2c-0.4,1.3-0.8,2.7-1.2,3.9c-0.5,1.5,0.3,3.2,1.8,3.8
		c1.6,0.6,3.5-0.2,4-1.9c0.3-1.1,0.6-2.1,0.8-2.7c0.1-0.5,0.3-0.9,0.4-1.4C253.7-594.5,252.6-596.3,250.8-596.6"/>
	<path class="st10" d="M152.4-640.8c-1.8,2.6-41.5,74.1-41.5,74.1l19.1,46.5l2.3,5.6l-4.7,11.9l-5.4,13.7l6,0.3l6.2,0.3l51.7,2.2
		l-11-26.5l22.1-43.5l2.8-5.5l2.5-4.9C202.6-566.8,156.4-635,152.4-640.8"/>
	<path class="st10" d="M175.6-411.2c-0.3-0.2-0.6-0.3-0.9-0.5C175-411.5,175.3-411.4,175.6-411.2"/>
	<path class="st10" d="M152.8-436.2c-0.1-0.3-0.3-0.5-0.4-0.8C152.5-436.7,152.6-436.4,152.8-436.2"/>
	<path class="st10" d="M173.1-412.6c-0.3-0.2-0.6-0.4-0.9-0.6C172.5-413,172.8-412.8,173.1-412.6"/>
	<path class="st10" d="M151.9-437.7c-0.1-0.3-0.3-0.5-0.4-0.8C151.6-438.3,151.8-438,151.9-437.7"/>
	<path class="st10" d="M154.9-432.6c-0.3-0.4-0.6-0.9-0.9-1.4C154.4-433.5,154.7-433,154.9-432.6"/>
	<path class="st10" d="M153.7-434.6c-0.2-0.3-0.3-0.6-0.5-0.9C153.4-435.2,153.6-434.9,153.7-434.6"/>
	<path class="st10" d="M183.3-408.6c-0.3,0-0.6-0.1-0.9-0.1C182.7-408.7,183-408.6,183.3-408.6"/>
	<path class="st10" d="M184.5-408.5c-0.3,0-0.6,0-0.8-0.1C184-408.5,184.3-408.5,184.5-408.5"/>
	<path class="st10" d="M164.7-419.8c-0.2-0.3-0.5-0.5-0.7-0.8C164.2-420.3,164.4-420.1,164.7-419.8"/>
	<path class="st10" d="M149.9-441.5c-0.1-0.2-0.2-0.5-0.4-0.7C149.6-442,149.7-441.8,149.9-441.5"/>
	<path class="st10" d="M149-443.2c-0.1-0.2-0.2-0.4-0.3-0.7C148.8-443.6,148.9-443.4,149-443.2"/>
	<path class="st10" d="M186.1-408.4c-0.4,0-0.8,0-1.2-0.1C185.3-408.4,185.7-408.4,186.1-408.4"/>
	<path class="st10" d="M151-439.4c-0.2-0.4-0.5-0.9-0.7-1.3C150.5-440.3,150.8-439.8,151-439.4"/>
	<path class="st10" d="M169.4-415.4c-0.3-0.2-0.5-0.4-0.8-0.6C168.9-415.8,169.1-415.6,169.4-415.4"/>
	<path class="st10" d="M157.9-428.1c-0.2-0.3-0.5-0.6-0.7-1C157.5-428.8,157.7-428.5,157.9-428.1"/>
	<path class="st10" d="M167.2-417.3c-0.4-0.3-0.7-0.7-1.1-1C166.5-418,166.8-417.6,167.2-417.3"/>
	<path class="st10" d="M161.2-423.8c-0.2-0.3-0.4-0.5-0.6-0.8C160.8-424.4,161-424.1,161.2-423.8"/>
	<path class="st10" d="M179.3-409.6c-0.3-0.1-0.5-0.2-0.8-0.3C178.8-409.8,179.1-409.6,179.3-409.6"/>
	<path class="st10" d="M162.5-422.3c-0.3-0.4-0.6-0.7-0.9-1.1C161.9-423,162.2-422.6,162.5-422.3"/>
	<path class="st10" d="M160.2-425.1c-0.2-0.3-0.4-0.6-0.6-0.8C159.7-425.7,159.9-425.4,160.2-425.1"/>
	<path class="st10" d="M178.1-410c-0.3-0.1-0.6-0.2-0.9-0.4C177.6-410.3,177.8-410.1,178.1-410"/>
	<path class="st10" d="M159.2-426.5c-0.3-0.4-0.6-0.8-0.9-1.3C158.5-427.3,158.8-426.9,159.2-426.5"/>
	<path class="st10" d="M156.9-429.7c-0.2-0.3-0.4-0.5-0.6-0.8C156.5-430.2,156.7-430,156.9-429.7"/>
	<path class="st10" d="M168.3-416.3c-0.3-0.3-0.6-0.5-0.9-0.8C167.7-416.9,167.9-416.6,168.3-416.3"/>
	<path class="st10" d="M182.1-408.8c-0.4-0.1-0.8-0.2-1.2-0.3C181.3-409,181.7-408.9,182.1-408.8"/>
	<path class="st10" d="M180.7-409.1c-0.3-0.1-0.7-0.2-1-0.3C180.1-409.3,180.4-409.2,180.7-409.1"/>
	<path class="st10" d="M170.6-414.4c-0.3-0.2-0.6-0.4-0.8-0.6C170-414.9,170.3-414.6,170.6-414.4"/>
	<path class="st10" d="M155.9-431.1c-0.2-0.3-0.4-0.6-0.5-0.8C155.5-431.7,155.7-431.4,155.9-431.1"/>
	<path class="st10" d="M232.3-413.2c0.6,0.2,1.1,0.5,1.7,0.7c1.6,0.7,3.3,1.4,5,2c-1.8-0.6-3.4-1.3-5-2
		C233.4-412.7,232.8-412.9,232.3-413.2"/>
	<path class="st10" d="M140.4-463.9c0-0.1-0.1-0.1-0.1-0.2C140.4-464.1,140.4-464,140.4-463.9"/>
	<path class="st10" d="M258-410.5c-0.2,0.1-0.4,0.2-0.6,0.3C257.6-410.4,257.8-410.5,258-410.5"/>
	<path class="st10" d="M139.9-465.5C139.9-465.6,139.9-465.6,139.9-465.5C139.9-465.6,139.9-465.6,139.9-465.5"/>
	<path class="st10" d="M177-410.5c-0.4-0.2-0.8-0.4-1.1-0.6C176.2-410.9,176.6-410.7,177-410.5"/>
	<path class="st10" d="M142.6-458c0-0.1-0.1-0.2-0.1-0.3C142.5-458.2,142.5-458.1,142.6-458"/>
	<path class="st10" d="M172-413.4c-0.4-0.3-0.7-0.5-1.1-0.8C171.2-413.9,171.6-413.6,172-413.4"/>
	<path class="st10" d="M165.8-418.7c-0.3-0.3-0.5-0.5-0.7-0.8C165.3-419.2,165.5-418.9,165.8-418.7"/>
	<path class="st10" d="M138.1-471.4c0,0,0-0.1,0-0.1C138.1-471.5,138.1-471.5,138.1-471.4"/>
	<path class="st10" d="M254.3-409.3c-0.5,0.1-1.1,0.3-1.6,0.3C253.2-409,253.8-409.2,254.3-409.3"/>
	<path class="st10" d="M239-410.4c3,1,6.2,1.8,10.3,1.8c0.9,0,1.8-0.1,2.6-0.2c-0.9,0.1-1.7,0.2-2.6,0.2
		C245.2-408.7,241.9-409.4,239-410.4"/>
	<path class="st10" d="M163.6-421c-0.3-0.4-0.6-0.7-0.9-1.1C163-421.7,163.3-421.3,163.6-421"/>
	<path class="st10" d="M144.9-452.1c0-0.1-0.1-0.1-0.1-0.2C144.9-452.3,144.9-452.2,144.9-452.1"/>
	<path class="st10" d="M145.6-450.5c-0.1-0.2-0.1-0.3-0.2-0.5C145.5-450.8,145.5-450.6,145.6-450.5"/>
	<path class="st10" d="M143.2-456.4c-0.1-0.1-0.1-0.3-0.1-0.4C143.1-456.6,143.1-456.5,143.2-456.4"/>
	<path class="st10" d="M226.9-415c-0.9-0.3-1.9-0.5-3-0.7C225-415.5,226-415.3,226.9-415"/>
	<path class="st10" d="M223.9-415.7c-1.1-0.2-2.2-0.3-3.4-0.4C221.8-416,222.9-415.9,223.9-415.7"/>
	<path class="st10" d="M146.9-447.5c0-0.1-0.1-0.2-0.1-0.2C146.9-447.7,146.9-447.6,146.9-447.5"/>
	<path class="st10" d="M213.6-415.6c-2.6,0.6-5.4,1.7-8.3,2.8C208.2-413.9,211-415,213.6-415.6"/>
	<path class="st10" d="M146.3-448.9c-0.1-0.2-0.2-0.4-0.2-0.5C146.2-449.2,146.2-449,146.3-448.9"/>
	<path class="st10" d="M143.7-455.1C143.7-455.1,143.7-455.1,143.7-455.1C143.7-455.1,143.7-455.1,143.7-455.1"/>
	<path class="st10" d="M230.5-413.9c-0.9-0.3-1.8-0.6-2.7-0.9C228.8-414.5,229.7-414.2,230.5-413.9"/>
	<path class="st10" d="M174.3-411.9c-0.3-0.1-0.5-0.3-0.8-0.5C173.8-412.2,174-412.1,174.3-411.9"/>
	<path class="st10" d="M232.3-413.2c-0.6-0.2-1.1-0.5-1.7-0.7C231.1-413.6,231.7-413.4,232.3-413.2"/>
	<path class="st10" d="M148.2-444.8c-0.1-0.2-0.2-0.4-0.3-0.6C148-445.2,148.1-445,148.2-444.8"/>
	<path class="st5" d="M276.7-515.6c-1.6-1.3-4.1-0.7-4.8,1.3c-0.5,1.3-0.9,2.6-1.3,3.9c-0.5,1.6,0.4,3.3,2,3.8
		c1.6,0.6,3.4-0.4,3.9-2.1c0.4-1.2,0.8-2.4,1.1-3.5C278-513.5,277.7-514.8,276.7-515.6"/>
	<path class="st5" d="M216-550.7c1.9,0,4.8-1.1,9.3-2.8l0.1-0.1c6.5-2.6,14.6-5.8,23.9-5.8c8.1,0,28.1,2,40.3,20.3
		c0.9,1.3,0.6,3-0.7,4l0,0c-1.1,0.8-2.3,1.7-3.6,2.8c-1.7,1.4-4.9,4-7.9,8c-1,1.3-0.7,3.1,0.6,4.1l0.2,0.2c1.3,1,3.1,0.7,4.1-0.6
		c0,0,0,0,0,0c2.2-2.8,4.7-5.1,6.9-6.9c1.2-1,2.4-1.9,3.4-2.7l4.6-3.5c1.2-0.9,1.5-2.7,0.7-4l-1.9-2.8l-1.3-2
		c-13.8-20.8-36.4-23-45.5-23c-10.4,0-19.1,3.5-26.1,6.3l-0.1,0.1c-2.1,0.8-6,2.4-7,2.4c-2,0-6.7-1.7-10.5-3.1
		c-1.7-0.6-3.5-1.3-5.4-1.9l-2.8,5.5c2.1,0.7,4.1,1.4,6.1,2.2C208.3-552.4,212.9-550.7,216-550.7"/>
	<path class="st5" d="M293.9-471.6c-1.1-0.7-2.3-1.4-3.4-2.1c-1.3-0.9-2.6-1.8-3.8-2.8c-1.4-1.1-2.6-2.4-3.8-3.7
		c-1.3-1.5-2.4-3.1-3.4-4.8c-1.1-2-1.9-4-2.5-6.2c-0.7-2.5-1.1-5.1-1.3-7.7c0-0.1,0-0.2,0-0.2c-0.1-1.6-1.4-2.8-2.9-2.8h-0.3
		c-1.7,0-3,1.4-2.9,3.1c0,0.4,0,0.8,0.1,1.2c0.1,1.3,0.3,2.6,0.5,3.9c0.2,1.2,0.5,2.4,0.8,3.6c0.3,1.1,0.7,2.2,1.1,3.3
		c0.4,1,0.8,2,1.3,3c0.5,0.9,1,1.8,1.5,2.7c0.5,0.9,1,1.7,1.6,2.5c0.5,0.8,1.1,1.5,1.7,2.2c0.6,0.7,1.2,1.4,1.8,2
		c0.6,0.6,1.2,1.2,1.8,1.8c0.6,0.5,1.2,1.1,1.8,1.6c0.6,0.5,1.2,0.9,1.8,1.4c0.6,0.4,1.1,0.8,1.7,1.2c0.5,0.4,1,0.7,1.6,1
		c0.5,0.3,1,0.6,1.4,0.9c0.2,0.1,0.4,0.2,0.5,0.3c1.8,1.1,3,1.9,3.6,2.7c0.5,0.7,0.6,1.7,0.4,2.5c-1.7,5.3-10.8,27.9-24.4,41.7
		c-3.8,3.9-8,7-12.4,8.9c-0.2,0.1-0.4,0.2-0.6,0.3c-1,0.4-2,0.7-3.1,1c-0.5,0.1-1.1,0.3-1.6,0.3c-0.3,0-0.5,0.1-0.8,0.1
		c-0.9,0.1-1.7,0.2-2.6,0.2c-4,0-7.3-0.8-10.3-1.8c-1.8-0.6-3.4-1.3-5-2c-0.6-0.2-1.1-0.5-1.7-0.7c-0.6-0.2-1.1-0.5-1.7-0.7
		c-0.9-0.3-1.8-0.6-2.7-0.9c-0.3-0.1-0.6-0.2-0.9-0.3c-0.9-0.3-1.9-0.5-3-0.7c-1.1-0.2-2.2-0.3-3.4-0.4c-0.8,0-1.6-0.1-2.5-0.1
		c-1.4,0-2.9,0.2-4.5,0.6c-2.6,0.6-5.4,1.7-8.3,2.8c-0.7,0.3-1.4,0.5-2.1,0.8c-0.7,0.3-1.5,0.5-2.2,0.8c-0.4,0.1-0.8,0.3-1.1,0.4
		c-1.5,0.5-3.1,1-4.7,1.4c-2.8,0.7-5.8,1.1-8.8,1.1h-0.2h0c-0.4,0-0.8,0-1.2-0.1c-0.1,0-0.3,0-0.4,0c-0.3,0-0.6,0-0.8-0.1
		c-0.1,0-0.3,0-0.4-0.1c-0.3,0-0.6-0.1-0.9-0.1c-0.1,0-0.2,0-0.4-0.1c-0.4-0.1-0.8-0.2-1.2-0.3c-0.1,0-0.1,0-0.2,0
		c-0.3-0.1-0.7-0.2-1-0.3c-0.1,0-0.3-0.1-0.4-0.1c-0.3-0.1-0.5-0.2-0.8-0.3c-0.1-0.1-0.3-0.1-0.4-0.1c-0.3-0.1-0.6-0.2-0.9-0.4
		c-0.1,0-0.2-0.1-0.3-0.1c-0.4-0.2-0.8-0.4-1.1-0.6c-0.1,0-0.2-0.1-0.3-0.1c-0.3-0.2-0.6-0.3-0.9-0.5c-0.1-0.1-0.3-0.2-0.4-0.2
		c-0.3-0.2-0.5-0.3-0.8-0.5c-0.1-0.1-0.3-0.2-0.4-0.2c-0.3-0.2-0.6-0.4-0.9-0.6c-0.1-0.1-0.2-0.1-0.3-0.2c-0.4-0.3-0.7-0.5-1.1-0.8
		c-0.1-0.1-0.2-0.1-0.3-0.2c-0.3-0.2-0.6-0.4-0.8-0.6c-0.1-0.1-0.3-0.2-0.4-0.3c-0.3-0.2-0.5-0.4-0.8-0.6c-0.1-0.1-0.2-0.2-0.4-0.3
		c-0.3-0.3-0.6-0.5-0.9-0.8c-0.1-0.1-0.1-0.1-0.2-0.2c-0.4-0.3-0.7-0.7-1.1-1c-0.1-0.1-0.2-0.2-0.3-0.3c-0.3-0.3-0.5-0.5-0.7-0.8
		c-0.1-0.1-0.3-0.3-0.4-0.4c-0.2-0.3-0.5-0.5-0.7-0.8c-0.1-0.1-0.2-0.3-0.4-0.4c-0.3-0.4-0.6-0.7-0.9-1.1c-0.1-0.1-0.1-0.1-0.2-0.2
		c-0.3-0.4-0.6-0.7-0.9-1.1c-0.1-0.1-0.2-0.3-0.4-0.4c-0.2-0.3-0.4-0.5-0.6-0.8c-0.1-0.2-0.3-0.3-0.4-0.5c-0.2-0.3-0.4-0.6-0.6-0.8
		c-0.1-0.2-0.2-0.3-0.4-0.5c-0.3-0.4-0.6-0.9-0.9-1.3c-0.1-0.1-0.2-0.3-0.3-0.4c-0.2-0.3-0.5-0.7-0.7-1c-0.1-0.2-0.3-0.4-0.4-0.6
		c-0.2-0.3-0.4-0.5-0.6-0.8c-0.1-0.2-0.3-0.4-0.4-0.6c-0.2-0.3-0.4-0.6-0.5-0.9c-0.1-0.2-0.3-0.4-0.4-0.6c-0.3-0.5-0.6-0.9-0.9-1.4
		c-0.1-0.2-0.3-0.4-0.4-0.6c-0.2-0.3-0.3-0.6-0.5-0.9c-0.1-0.2-0.3-0.5-0.4-0.7c-0.1-0.3-0.3-0.5-0.4-0.8c-0.1-0.3-0.3-0.5-0.4-0.8
		c-0.1-0.3-0.3-0.5-0.4-0.8c-0.2-0.3-0.3-0.6-0.5-0.9c-0.2-0.4-0.5-0.9-0.7-1.3c-0.1-0.3-0.3-0.6-0.4-0.9c-0.1-0.2-0.2-0.5-0.4-0.7
		c-0.1-0.3-0.3-0.6-0.5-0.9c-0.1-0.2-0.2-0.5-0.3-0.7c-0.1-0.3-0.3-0.6-0.5-0.9c-0.1-0.2-0.2-0.4-0.3-0.6c-0.4-0.7-0.7-1.5-1-2.2
		c0-0.1-0.1-0.1-0.1-0.2c-0.2-0.4-0.3-0.7-0.5-1.1c-0.1-0.2-0.2-0.4-0.2-0.5c-0.2-0.4-0.3-0.7-0.5-1.1c-0.1-0.2-0.1-0.3-0.2-0.5
		c-0.2-0.4-0.3-0.8-0.5-1.1c0-0.1-0.1-0.1-0.1-0.2c-0.4-0.9-0.8-1.8-1.1-2.8c0,0,0,0,0,0c-0.2-0.4-0.3-0.8-0.5-1.3
		c-0.1-0.1-0.1-0.3-0.1-0.4c-0.2-0.4-0.3-0.8-0.5-1.2c0-0.1-0.1-0.2-0.1-0.3c-0.7-1.9-1.4-3.8-2-5.6c0-0.1-0.1-0.1-0.1-0.2
		c-0.1-0.5-0.3-0.9-0.4-1.4c0,0,0-0.1,0-0.1c-0.6-1.9-1.2-3.9-1.8-5.8c0,0,0-0.1,0-0.1c-0.6-2-1.1-3.9-1.5-5.8l-6.3,0
		c2.9,12.7,7.8,26.4,13.9,38.3c12.2,23.6,27.1,36.7,41.9,36.8h0.2c8.1,0,15.1-2.6,21.2-4.9l0.1,0c3.9-1.4,7.9-2.9,10.6-2.9
		c5.8,0,9.2,1.4,13.5,3.3c4.5,1.9,10,4.3,17.7,4.3c13.1,0,26.1-9.9,37.9-28.5c4-6.3,7.3-12.9,9.7-18.4c2.7-6.2,4.3-10.9,4.3-12.2
		C301.1-467.2,297-469.7,293.9-471.6"/>
	<path class="st5" d="M173.5-412.4c-0.1-0.1-0.3-0.2-0.4-0.2C173.2-412.5,173.4-412.5,173.5-412.4"/>
	<path class="st5" d="M174.7-411.7c-0.1-0.1-0.3-0.1-0.4-0.2C174.4-411.8,174.5-411.8,174.7-411.7"/>
	<path class="st5" d="M175.8-411.1c-0.1,0-0.2-0.1-0.3-0.1C175.7-411.2,175.7-411.1,175.8-411.1"/>
	<path class="st5" d="M182.4-408.7c-0.1,0-0.2,0-0.4-0.1C182.2-408.8,182.3-408.8,182.4-408.7"/>
	<path class="st5" d="M203.2-412.1c-0.7,0.3-1.5,0.5-2.2,0.8C201.7-411.5,202.5-411.8,203.2-412.1"/>
	<path class="st5" d="M252.6-409c-0.3,0-0.5,0.1-0.8,0.1C252.1-408.9,252.4-408.9,252.6-409"/>
	<path class="st5" d="M199.8-410.9c-1.5,0.5-3.1,1-4.7,1.4C196.7-409.9,198.3-410.4,199.8-410.9"/>
	<path class="st5" d="M257.4-410.3c-1,0.4-2,0.7-3.1,1C255.3-409.6,256.4-409.9,257.4-410.3"/>
	<path class="st5" d="M270.4-419.4L270.4-419.4c-3.8,3.9-8,7-12.4,8.9C262.5-412.4,266.6-415.6,270.4-419.4"/>
	<path class="st5" d="M177.3-410.4c-0.1,0-0.2-0.1-0.3-0.1C177.1-410.5,177.2-410.4,177.3-410.4"/>
	<path class="st5" d="M179.7-409.4c-0.1,0-0.3-0.1-0.4-0.1C179.5-409.5,179.6-409.5,179.7-409.4"/>
	<path class="st5" d="M178.5-409.9c-0.1,0-0.3-0.1-0.4-0.1C178.3-410,178.4-409.9,178.5-409.9"/>
	<path class="st5" d="M180.9-409.1c-0.1,0-0.1,0-0.2-0.1C180.8-409.1,180.9-409.1,180.9-409.1"/>
	<path class="st5" d="M184.9-408.4c-0.1,0-0.3,0-0.4,0C184.7-408.4,184.8-408.4,184.9-408.4"/>
	<path class="st5" d="M183.7-408.5c-0.1,0-0.3,0-0.4-0.1C183.4-408.6,183.6-408.5,183.7-408.5"/>
	<path class="st5" d="M166.1-418.3c-0.1-0.1-0.2-0.2-0.3-0.3C165.9-418.6,166-418.5,166.1-418.3"/>
	<path class="st5" d="M152.3-437c-0.1-0.3-0.3-0.5-0.4-0.8C152.1-437.5,152.2-437.2,152.3-437"/>
	<path class="st5" d="M148.7-443.8c-0.1-0.3-0.3-0.6-0.5-0.9C148.4-444.5,148.5-444.1,148.7-443.8"/>
	<path class="st5" d="M146.8-447.8c-0.2-0.4-0.3-0.7-0.5-1.1C146.5-448.5,146.7-448.1,146.8-447.8"/>
	<path class="st5" d="M145.4-451c-0.2-0.4-0.3-0.8-0.5-1.1C145.1-451.7,145.2-451.4,145.4-451"/>
	<path class="st5" d="M146.1-449.4c-0.2-0.4-0.3-0.7-0.5-1.1C145.8-450.1,145.9-449.8,146.1-449.4"/>
	<path class="st5" d="M149.5-442.3c-0.1-0.3-0.3-0.6-0.4-0.9C149.2-442.9,149.3-442.6,149.5-442.3"/>
	<path class="st5" d="M151.5-438.5c-0.2-0.3-0.3-0.6-0.5-0.9C151.2-439.1,151.3-438.8,151.5-438.5"/>
	<path class="st5" d="M150.3-440.7c-0.1-0.3-0.3-0.6-0.4-0.9C150-441.3,150.2-441,150.3-440.7"/>
	<path class="st5" d="M147.9-445.4c-0.4-0.7-0.7-1.5-1-2.2C147.3-446.8,147.6-446.1,147.9-445.4"/>
	<path class="st5" d="M186.1-408.4L186.1-408.4L186.1-408.4h0.2c3.1,0,6-0.5,8.8-1.1c-2.8,0.7-5.8,1.1-8.8,1.1H186.1z"/>
	<path class="st5" d="M140.4-464.2c-0.1-0.5-0.3-0.9-0.4-1.4C140.1-465.1,140.2-464.6,140.4-464.2"/>
	<path class="st5" d="M139.9-465.6c-0.6-2-1.2-3.9-1.8-5.8C138.7-469.5,139.3-467.6,139.9-465.6"/>
	<path class="st5" d="M136.6-477.3L136.6-477.3c0.4,1.9,0.9,3.8,1.5,5.8C137.6-473.5,137.1-475.4,136.6-477.3"/>
	<path class="st5" d="M143-456.8c-0.2-0.4-0.3-0.8-0.5-1.2C142.7-457.6,142.9-457.1,143-456.8"/>
	<path class="st5" d="M143.7-455.1c-0.2-0.4-0.3-0.8-0.5-1.3C143.3-455.9,143.5-455.5,143.7-455.1"/>
	<path class="st5" d="M142.4-458.3c-0.7-1.9-1.4-3.8-2-5.6C141.1-462.1,141.7-460.2,142.4-458.3"/>
	<path class="st5" d="M172.2-413.2c-0.1-0.1-0.2-0.1-0.3-0.2C172.1-413.3,172.1-413.3,172.2-413.2"/>
	<path class="st5" d="M144.8-452.3c-0.4-0.9-0.8-1.8-1.1-2.8C144.1-454.2,144.4-453.2,144.8-452.3"/>
	<path class="st5" d="M165-419.4c-0.1-0.1-0.3-0.3-0.4-0.4C164.8-419.7,164.9-419.6,165-419.4"/>
	<path class="st5" d="M163.9-420.6c-0.1-0.1-0.2-0.3-0.4-0.4C163.7-420.9,163.8-420.7,163.9-420.6"/>
	<path class="st5" d="M167.3-417.2c-0.1,0-0.1-0.1-0.2-0.2C167.2-417.3,167.3-417.2,167.3-417.2"/>
	<path class="st5" d="M162.7-422c-0.1-0.1-0.1-0.1-0.2-0.2C162.5-422.2,162.6-422.1,162.7-422"/>
	<path class="st5" d="M161.6-423.4c-0.1-0.2-0.2-0.3-0.4-0.5C161.3-423.7,161.4-423.5,161.6-423.4"/>
	<path class="st5" d="M168.6-416c-0.1-0.1-0.2-0.2-0.4-0.3C168.4-416.2,168.5-416.1,168.6-416"/>
	<path class="st5" d="M170.9-414.2c-0.1-0.1-0.2-0.1-0.3-0.2C170.7-414.4,170.8-414.3,170.9-414.2"/>
	<path class="st5" d="M169.8-415.1c-0.1-0.1-0.3-0.2-0.4-0.3C169.5-415.3,169.6-415.2,169.8-415.1"/>
	<path class="st5" d="M154.1-434c-0.1-0.2-0.3-0.4-0.4-0.6C153.9-434.4,154-434.2,154.1-434"/>
	<path class="st5" d="M155.3-432c-0.1-0.2-0.3-0.4-0.4-0.6C155.1-432.4,155.2-432.2,155.3-432"/>
	<path class="st5" d="M156.3-430.5c-0.1-0.2-0.3-0.4-0.4-0.6C156-430.9,156.2-430.7,156.3-430.5"/>
	<path class="st5" d="M153.2-435.5c-0.1-0.2-0.3-0.5-0.4-0.7C152.9-435.9,153.1-435.7,153.2-435.5"/>
	<path class="st5" d="M157.3-429.1c-0.1-0.2-0.3-0.4-0.4-0.6C157-429.5,157.1-429.3,157.3-429.1"/>
	<path class="st5" d="M159.5-426c-0.1-0.2-0.2-0.3-0.4-0.5C159.3-426.3,159.4-426.1,159.5-426"/>
	<path class="st5" d="M160.5-424.6c-0.1-0.2-0.3-0.3-0.4-0.5C160.3-425,160.4-424.8,160.5-424.6"/>
	<path class="st5" d="M158.2-427.7c-0.1-0.1-0.2-0.3-0.3-0.4C158-428,158.1-427.9,158.2-427.7"/>
	<path class="st5" d="M206.7-567.5l-57.8-82.9l-3.8,5.4c-1.8,2.6-52.7,75.7-52.7,75.7l-1.5,2.2l26.6,54.6l-18.3,35.4l31.1-0.1l6.3,0
		l61.8-0.2l-18.3-35.3L206.7-567.5z M149-576.7c5.4,0,9.7,4.4,9.7,9.7s-4.4,9.7-9.7,9.7c-5.4,0-9.7-4.4-9.7-9.7
		C139.2-572.4,143.6-576.7,149-576.7 M101.5-566.4c6.2-9,30-43.1,42.9-61.5v42.6c-8.2,2.1-14.3,9.5-14.3,18.3
		c0,10.4,8.5,18.9,18.9,18.9s18.9-8.5,18.9-18.9c0-8.8-6.1-16.3-14.4-18.3v-42.6l42.6,61.2l-24,49.3h-46.9L101.5-566.4z
		 M183.4-486.6l-48.7,0.2l-6.2,0l-14.3,0.1l11.3-21.9h46.7L183.4-486.6z"/>
	<path class="st5" d="M218.5-659.5v-25.7h-25.7v8.3h-31.7c-1.9-5.2-6.8-8.9-12.6-8.9c-5.8,0-10.7,3.7-12.6,8.9h-31.3v-8.3H78.9v25.7
		h25.7v-8.3h14.2c-0.1,0.1-0.2,0.2-0.3,0.2c-8.9,6.5-19.9,18.6-22.6,39.8c-5.4,1.8-9.3,6.8-9.3,12.8c0,7.4,6,13.4,13.4,13.4
		c7.4,0,13.4-6,13.4-13.4c0-5.6-3.5-10.5-8.4-12.4c3.9-27,22.8-36.4,31.3-39.3c2.1,4.6,6.8,7.8,12.2,7.8c5.4,0,10.1-3.3,12.2-7.9
		c8.3,2.7,27.8,11.9,31.8,39.2c-5.2,1.9-8.9,6.8-8.9,12.6c0,7.4,6,13.4,13.4,13.4s13.4-6,13.4-13.4c0-5.7-3.6-10.6-8.7-12.5
		c-2.7-21.3-13.7-33.5-22.6-40c-0.1-0.1-0.2-0.2-0.3-0.2h14.1v8.3L218.5-659.5L218.5-659.5z M95.4-668.6H88v-7.4h7.4V-668.6z
		 M100-610.7c-2.4,0-4.3-1.9-4.3-4.3s1.9-4.3,4.3-4.3c2.4,0,4.3,1.9,4.3,4.3S102.4-610.7,100-610.7 M197-610.7
		c-2.4,0-4.3-1.9-4.3-4.3s1.9-4.3,4.3-4.3s4.3,1.9,4.3,4.3S199.3-610.7,197-610.7 M148.5-668c-2.4,0-4.3-1.9-4.3-4.3
		s1.9-4.3,4.3-4.3s4.3,1.9,4.3,4.3S150.9-668,148.5-668 M201.9-676h7.4v7.4h-7.4V-676z"/>
</g>
<g class="st11">
	<line class="st12" x1="-750.3" y1="-39.3" x2="-750.3" y2="-37.3"/>
	<line class="st13" x1="-750.3" y1="-33.4" x2="-750.3" y2="98.8"/>
	<line class="st12" x1="-750.3" y1="100.7" x2="-750.3" y2="102.7"/>
	<line class="st14" x1="-702.7" y1="-36.2" x2="-702.7" y2="105.8"/>
	<line class="st12" x1="-807.3" y1="-38.5" x2="-807.3" y2="-36.5"/>
	<line class="st13" x1="-807.3" y1="-32.6" x2="-807.3" y2="99.6"/>
	<line class="st12" x1="-807.3" y1="101.5" x2="-807.3" y2="103.5"/>
	<line class="st12" x1="-855.7" y1="-41.6" x2="-855.7" y2="-39.7"/>
	<line class="st13" x1="-855.7" y1="-35.7" x2="-855.7" y2="96.4"/>
	<line class="st12" x1="-855.7" y1="98.4" x2="-855.7" y2="100.3"/>
	<path class="st15" d="M-689.5-8.8h1.9v-20l-14.6-9.3h-50.1h-3.3l-1.1-3l-8.9-23.7l-21.5,1.4v15.8l11.7,1.4l-11.7,0.8l-21.1,15.6
		l0.1-1.5v-10.1v-52.9c0-4.2-3.5-7.7-7.7-7.7h-21.8c-4.7,1.8-8.1,6.3-8.1,11.6l0,49.4l15.6,2.6h-15.6l-14.4-0.4h-4.7v-4.7v-20.3
		h-11.6l-12.2,3.5l-6,18.7l14.6,2.3l-15.6,0.8v139.7l24.2,0.8l-23.4,0.8l3.9,8.6l-0.8,14.1l24.9,2.1l7.3-22.3l1.1-3.3l3.4,0
		l45.5,0.4l34.9,0.4l-19.4,1.8l7.7,21.6l21,1.9v-20.2v-4.7h4.7h0v-0.4l46,0.8l-26.6,2.8l-0.4,47.5c0,6.2,5.1,11.3,11.3,11.3
		l19.5,0.9c0.6,0,1.1,0,1.7,0c2.2-1.1,3.7-3.3,3.7-5.9v-52.5V105l2.1-1.4l15.5-10.1V8.3h-2V3.7h2v-7.8h-2L-689.5-8.8
		C-689.5-8.8-689.5-8.8-689.5-8.8z"/>
	<path class="st15" d="M-682.8-31.4l-17.9-11.4L-682.8-31.4z"/>
	<path class="st15" d="M-700.5,107.6l17.6-11.4L-700.5,107.6z"/>
	
		<rect x="-770.8" y="118.1" transform="matrix(8.300409e-02 -0.9965 0.9965 8.300409e-02 -815.108 -649.5417)" class="st15" width="20.7" height="0"/>
	<polygon class="st16" points="-866.7,127.5 -867.1,128.9 -896.3,128.9 -896.3,112.9 -896.3,111.4 -897.2,110.1 -901.7,103.9 
		-901.7,-40.8 -893.4,-63.9 -876.3,-63.9 -860,-68.5 -896.7,-68.5 -906.4,-41.6 -906.4,105.5 -901,112.9 -901,133.6 -863.7,133.6 
		-854.9,106.7 -863.5,127.7 	"/>
	<path class="st16" d="M-815.7-106.8L-815.7-106.8c2.1,0,4.1,0.5,5.9,1.5C-811.5-106.2-813.5-106.8-815.7-106.8"/>
	<polygon class="st16" points="-700.5,160 -700.5,160 -700.5,160 -700.5,107.6 	"/>
	<polygon class="st16" points="-765.2,128.9 -792,128.9 -799.3,105.6 -800.4,102.4 -803.8,102.4 -809.4,102.3 -854.9,106.7 
		-803.8,107.1 -795.4,133.6 -760.5,133.6 -760.5,128.5 -765.2,128.1 	"/>
	<path class="st16" d="M-803.3-94.4c0-1.3-0.2-2.5-0.6-3.7C-803.5-96.9-803.3-95.7-803.3-94.4"/>
	<path class="st16" d="M-708.9,166c-0.9,0.4-1.8,0.7-2.9,0.7H-741c-3.6,0-6.6-3-6.6-6.6v-52.2v-4.7h-4.7h-8.2v4.7h8.2V160
		c0,6.2,5.1,11.3,11.3,11.3h29.2c5.5,0,10-3.9,11.1-9.1C-701.5,165.8-704.4,166-708.9,166"/>
	<polygon class="st16" points="-808,-30.2 -800,-38.2 -793.2,-44.9 -791.9,-46.3 -791.9,-48.2 -791.9,-65.4 -765.7,-65.4 
		-765.5,-64.9 -762.8,-65 -752.2,-42.8 -762.4,-70.1 -796.5,-70.1 -796.5,-48.2 -803.3,-41.5 -803.3,-94.4 -808,-31.5 	"/>
	<path class="st16" d="M-854.9-38.9h4.7v-4.7v-50.8c0-4.2,3.5-7.7,7.7-7.7h5.1c1.3-0.5,2.8-0.8,4.3-0.8l17.5-3.9h-26.8
		c-6.8,0-12.4,5.5-12.4,12.4v50.8h-5.1v4.7L-854.9-38.9L-854.9-38.9z"/>
	<path class="st16" d="M-806.1-102.3c-1-1.2-2.3-2.3-3.6-3C-808.4-104.5-807.1-103.5-806.1-102.3"/>
	<path class="st16" d="M-687.5,93.6l-15.5,10.1l-2.1,1.4v2.5V160c0,2.6-1.5,4.9-3.7,5.9c4.5,0,7.4-0.2,8.2-3.7
		c0.1-0.7,0.2-1.4,0.2-2.2c0,0,0,0,0,0v-52.5l17.6-11.4V10.7c0-1.3-1.1-2.3-2.3-2.3s-2.3,1-2.3,2.3L-687.5,93.6L-687.5,93.6z"/>
	<path class="st16" d="M-837.4-102.1h21.8c4.2,0,7.7,3.4,7.7,7.7v52.9v10.1l4.7-62.9c0-1.3-0.2-2.5-0.6-3.7c-0.5-1.6-1.3-3-2.3-4.2
		c-1-1.2-2.3-2.3-3.7-3c-1.8-0.9-3.8-1.5-5.9-1.5l-17.5,3.9C-834.6-102.9-836.1-102.6-837.4-102.1"/>
	<path class="st16" d="M-762.8-65l-2.6,0.2l8.9,23.7l1.1,3h3.3h50.1l14.6,9.3v17.7c0,1.3,1.1,2.3,2.3,2.3s2.3-1,2.3-2.3v-20.2
		l-17.9-11.4h-51.4L-762.8-65z"/>
	<polygon class="st16" points="-854.9,102 -858.3,102 -859.4,105.2 -866.7,127.5 -863.5,127.7 -854.9,106.7 -809.4,102.3 	"/>
	<polygon class="st16" points="-864.7,-63.9 -864.7,-43.6 -864.7,-38.9 -860,-38.9 -860,-43.6 -860,-68.5 -876.3,-63.9 	"/>
	<polygon class="st16" points="-760.5,103.2 -765.2,103.2 -765.2,107.8 -765.2,128.1 -760.5,128.5 -760.5,107.8 -760.5,107.8 
		-760.5,103.2 	"/>
	<line class="st17" x1="-797.9" y1="-20.5" x2="-759" y2="-20.5"/>
	<line class="st17" x1="-797.9" y1="-15.9" x2="-759" y2="-15.9"/>
	<line class="st17" x1="-797.9" y1="-11.2" x2="-759" y2="-11.2"/>
	<line class="st17" x1="-797.9" y1="-6.5" x2="-759" y2="-6.5"/>
	<line class="st17" x1="-797.2" y1="82.5" x2="-758.2" y2="82.5"/>
	<line class="st17" x1="-797.2" y1="24.7" x2="-758.2" y2="24.7"/>
	<line class="st18" x1="-797.2" y1="29.4" x2="-758.2" y2="29.4"/>
	<line class="st17" x1="-830" y1="52.9" x2="-830" y2="91.8"/>
	<line class="st17" x1="-759" y1="0.3" x2="-777.6" y2="0.3"/>
	<line class="st17" x1="-759" y1="5.7" x2="-777.6" y2="5.7"/>
	<line class="st18" x1="-759" y1="11.2" x2="-777.6" y2="11.2"/>
	<line class="st17" x1="-815.9" y1="-13.8" x2="-815.9" y2="-32.4"/>
	<line class="st17" x1="-768.4" y1="86.9" x2="-787" y2="86.9"/>
	<line class="st17" x1="-850.2" y1="73.5" x2="-850.2" y2="91.9"/>
	<line class="st17" x1="-870.7" y1="53" x2="-889.1" y2="53"/>
	<line class="st17" x1="-850.2" y1="-33.8" x2="-850.2" y2="61.9"/>
	<line class="st17" x1="-844" y1="-33.8" x2="-844" y2="91.9"/>
	<line class="st17" x1="-837.7" y1="-33.8" x2="-837.7" y2="91.9"/>
	<path class="st19" d="M-880.3,5.8l14,8.1v16.2l-14,8.1l-14-8.1V13.9L-880.3,5.8z M-880.3,1.3l-18,10.4v20.7l18,10.4l18-10.4V11.6
		L-880.3,1.3z"/>
	<path class="st19" d="M-789.4,40.9l14,8.1v16.2l-14,8.1l-14-8.1V49L-789.4,40.9z M-789.4,36.4l-18,10.4v20.7l18,10.4l18-10.4V46.7
		L-789.4,36.4z"/>
	<line class="st17" x1="-895.9" y1="47.7" x2="-863.2" y2="47.7"/>
	<polygon class="st19" points="-741.8,50.4 -748,54 -748,58.5 -741.8,54.9 -727.7,63 -727.7,79.3 -741.8,87.4 -748,83.8 -748,88.3 
		-741.8,91.9 -723.8,81.5 -723.8,60.8 	"/>
	<polygon class="st19" points="-694.1,-25.3 -687.9,-21.7 -687.9,-17.2 -694.1,-20.8 -708.2,-12.7 -708.2,3.6 -694.1,11.7 
		-687.9,8.1 -687.9,12.6 -694.1,16.2 -712.1,5.8 -712.1,-14.9 	"/>
</g>
<g class="st11">
	<path class="st15" d="M553.6,116.7c-10.1,2.3-16.4,12.4-14,22.5c2.3,10.1,12.4,16.4,22.5,14.1l-0.9,1.7l-7.8-38.3L553.6,116.7z"/>
	<path class="st15" d="M580.2,163.9l12.4,53.6l10.3-2.4l-12.4-53.6C590.5,161.6,580.2,163.9,580.2,163.9"/>
	<polygon class="st15" points="592.4,93.2 606,152.1 698.1,171.6 668.4,43.4 	"/>
	<polygon class="st15" points="557.1,104.1 570,159.6 601.3,157.5 587.3,97.1 	"/>
	<path class="st15" d="M713.3-15.1h-32.1c-3,0-5.3,2.4-5.3,5.3v32.1c0,3,2.4,5.3,5.3,5.3h32.1c3,0,5.3-2.4,5.3-5.3V-9.8
		C718.7-12.7,716.3-15.1,713.3-15.1"/>
	<path class="st19" d="M712,6.2h-6.7V0.9c0-1.5,1.2-1.3,2.7-1.3h2.7v-6.7h-5.3c-4.4,0-8,3.6-8,8v5.3h-5.3v6.7h5.3v14.7h8V12.9h4
		L712,6.2z"/>
	<path class="st15" d="M765.1,105.1c-3.3,3.4-2.6,7.1-2.6,18.2c0,9.2-1.6,18.5,6.8,20.6c2.6,0.7,25.9,0.7,28.5,0
		c3.5-0.9,6.4-3.8,6.8-8.7c0-0.7,0-23.2,0-23.9c-0.4-5.3-3.7-8.3-8-8.9c-1-0.1-1.2-0.2-6.2-0.2C772.5,102.2,768.6,101.4,765.1,105.1
		"/>
	<path class="st19" d="M783.5,107.7c-6.4,0-12.4-0.6-14.8,5.4c-1,2.4-0.8,5.6-0.8,10.2c0,4-0.1,7.8,0.8,10.2
		c2.3,5.9,8.4,5.4,14.7,5.4c6.1,0,12.4,0.6,14.7-5.4c1-2.5,0.8-5.6,0.8-10.2c0-6.1,0.3-10-2.6-12.9
		C793.5,107.3,789.4,107.7,783.5,107.7L783.5,107.7z M782.1,110.5c13.3,0,15-1.5,14.1,19c-0.3,7.3-5.9,6.5-12.7,6.5
		c-12.4,0-12.8-0.4-12.8-12.8C770.7,110.7,771.7,110.5,782.1,110.5L782.1,110.5z M791.8,113.1c-1,0-1.9,0.8-1.9,1.9
		c0,1,0.8,1.9,1.9,1.9c1,0,1.9-0.8,1.9-1.9C793.7,113.9,792.8,113.1,791.8,113.1 M783.5,115.3c-4.4,0-8,3.6-8,8s3.6,8,8,8s8-3.6,8-8
		C791.5,118.9,787.9,115.3,783.5,115.3 M783.5,118.1c6.9,0,6.9,10.4,0,10.4C776.6,128.5,776.6,118.1,783.5,118.1"/>
	<path class="st15" d="M797,39.8c-1.8,0.8-3.7,1.3-5.7,1.6c2-1.2,3.6-3.2,4.4-5.5c-1.9,1.1-4,2-6.3,2.4c-1.8-1.9-4.4-3.1-7.2-3.1
		c-5.5,0-9.9,4.5-9.9,9.9c0,0.8,0.1,1.5,0.2,2.3C764.3,46.9,757,43,752.1,37c-0.8,1.5-1.3,3.2-1.3,5c0,3.4,1.8,6.5,4.4,8.2
		c-1.6,0-3.2-0.5-4.5-1.2v0.1c0,4.8,3.4,8.8,7.9,9.7c-0.8,0.2-1.7,0.3-2.6,0.3c-0.6,0-1.3,0-1.9-0.2c1.3,3.9,4.9,6.8,9.3,6.9
		c-3.4,2.6-7.7,4.2-12.3,4.2c-0.8,0-1.6,0-2.4-0.1c4.4,2.8,9.6,4.4,15.2,4.4c18.2,0,28.2-15.1,28.2-28.2c0-0.4,0-0.9,0-1.3
		C794,43.6,795.7,41.8,797,39.8"/>
	
		<rect x="556.4" y="100.8" transform="matrix(0.9742 -0.2255 0.2255 0.9742 -15.0807 133.0731)" class="st20" width="37" height="63.6"/>
	<path class="st20" d="M561.2,155l-11.6,2.7c-6,1.4-11.9-2.3-13.3-8.3l-3.5-15c-1.4-6,2.3-11.9,8.3-13.3l11.6-2.7L561.2,155z"/>
	
		<rect x="580.8" y="162.8" transform="matrix(0.9742 -0.2256 0.2256 0.9742 -27.7672 137.6415)" class="st20" width="15" height="55"/>
	<polygon class="st20" points="585.9,97.4 600.2,159.3 698.1,171.6 690.4,138.4 676.1,76.5 668.4,43.4 	"/>
	<line class="st21" x1="692.2" y1="72.8" x2="718.7" y2="52.3"/>
	<line class="st21" x1="741.1" y1="137.8" x2="707.8" y2="133.6"/>
	<line class="st21" x1="707.4" y1="98.8" x2="743" y2="90.6"/>
</g>
<g>
	<path class="st10" d="M642.5-449.6c-3.6-1.9-6.1-5.7-6.1-10v-125.6h-3.6l19.7-49.9c1.6-4,5.5-6.7,9.8-6.7c0.7,0,1.4,0.1,2.1,0.2
		v-27.5c0,0-9-19.8-28-19.8H501.7c-10,0-18.2,8.1-18.2,18.2l-0.7,228.2c0,7.4,5.6,13.6,13,14.4l152.8,15.4c0,0,13.3-7.9,15.8-19.9
		v-4.4h-6.1C650.6-437.1,644.2-442.5,642.5-449.6"/>
	<path class="st5" d="M471.3-630.3h-15.7c-2.1,0-3.8-1.7-3.8-3.8c0-2.1,1.7-3.8,3.8-3.8h15.7c2.1,0,3.8,1.7,3.8,3.8
		S473.4-630.3,471.3-630.3"/>
	<path class="st5" d="M471.3-597.6h-15.7c-2.1,0-3.8-1.7-3.8-3.8s1.7-3.8,3.8-3.8h15.7c2.1,0,3.8,1.7,3.8,3.8
		S473.4-597.6,471.3-597.6"/>
	<path class="st5" d="M471.3-564.9h-15.7c-2.1,0-3.8-1.7-3.8-3.8c0-2.1,1.7-3.8,3.8-3.8h15.7c2.1,0,3.8,1.7,3.8,3.8
		C475.1-566.6,473.4-564.9,471.3-564.9"/>
	<path class="st5" d="M471.3-532.2h-15.7c-2.1,0-3.8-1.7-3.8-3.8c0-2.1,1.7-3.8,3.8-3.8h15.7c2.1,0,3.8,1.7,3.8,3.8
		C475.1-533.9,473.4-532.2,471.3-532.2"/>
	<path class="st5" d="M471.3-499.5h-15.7c-2.1,0-3.8-1.7-3.8-3.8s1.7-3.8,3.8-3.8h15.7c2.1,0,3.8,1.7,3.8,3.8
		S473.4-499.5,471.3-499.5"/>
	<path class="st5" d="M471.3-466.8h-15.7c-2.1,0-3.8-1.7-3.8-3.8s1.7-3.8,3.8-3.8h15.7c2.1,0,3.8,1.7,3.8,3.8
		S473.4-466.8,471.3-466.8"/>
	<path class="st9" d="M658.3-448.5c-2.7,0-4.9-2.2-4.9-4.9v-6.4h-5.6v-121.8h29v121.8h-5.6v6.4c0,2.6-2,4.7-4.5,4.8c0,0-0.3,0-0.3,0
		L658.3-448.5L658.3-448.5z"/>
	<path class="st5" d="M673-577.7v114.2h-5.6v7.6v2.6c0,0.6-0.4,1-1,1.1l-0.2,0h0h-6.9h-0.9c-0.6,0-1.1-0.5-1.1-1.1v-2.6v-7.6h-5.6
		v-114.2H673 M680.6-585.3H644v125.7c0,2,1.7,3.7,3.7,3.7h1.9v2.6c0,4.8,3.9,8.7,8.7,8.7h0.9h7c0.2,0,0.4,0,0.5,0
		c4.5-0.3,8.1-4,8.1-8.6v-2.6h1.9c2,0,3.7-1.7,3.7-3.7L680.6-585.3L680.6-585.3z"/>
	<path class="st5" d="M659.2-437.1v0.6c0,11-8.9,19.9-20,19.9H487.5c-11,0-20-8.9-20-19.9v-227.9c0-11,8.9-20,20-20h151.8
		c11,0,20,8.9,20,20v19.6c0,1.7,1.4,3,3,3h0c0.4,0,0.9,0,1.3,0.1c1.7,0.2,3.2-1.2,3.2-2.9v-19.7c0-15.2-12.3-27.6-27.6-27.6H487.5
		c-15.2,0-27.6,12.3-27.6,27.6v227.9c0,15.2,12.3,27.6,27.6,27.6h151.8c15.2,0,27.6-12.3,27.6-27.6v-0.6c-0.2,0-0.4,0-0.5,0
		L659.2-437.1L659.2-437.1z"/>
	<polygon class="st9" points="649.6,-596.7 662.3,-628.9 675,-596.7 	"/>
	<path class="st5" d="M662.3-618.5l7.1,18h-2.6h-7.6h-4L662.3-618.5 M662.3-634.2c-1.1,0-2.2,0.6-2.7,1.8l-0.3,0.9L644-592.9h15.2
		h7.6h13.7l-13.7-34.9l-1.8-4.6C664.5-633.6,663.4-634.2,662.3-634.2"/>
	<path class="st5" d="M690.3-520.6c-1.8,0-3.2,1.4-3.2,3.2v49.2c0,1.8,1.4,3.2,3.2,3.2c1.8,0,3.2-1.4,3.2-3.2v-49.2
		C693.5-519.2,692-520.6,690.3-520.6"/>
	<rect x="648.6" y="-464.5" class="st5" width="24.3" height="6.8"/>
	<path class="st22" d="M630.4-653.9H504.5c-2.1,0-3.8-1.7-3.8-3.8s1.7-3.8,3.8-3.8h125.9c2.1,0,3.8,1.7,3.8,3.8
		S632.5-653.9,630.4-653.9"/>
	<path class="st22" d="M630.4-635.6H504.5c-2.1,0-3.8-1.7-3.8-3.8c0-2.1,1.7-3.8,3.8-3.8h125.9c2.1,0,3.8,1.7,3.8,3.8
		C634.2-637.3,632.5-635.6,630.4-635.6"/>
	<path class="st22" d="M591.6-617.4h-87.1c-2.1,0-3.8-1.7-3.8-3.8s1.7-3.8,3.8-3.8h87.1c2.1,0,3.8,1.7,3.8,3.8
		S593.7-617.4,591.6-617.4"/>
	<path class="st22" d="M591.6-576.3h-87.1c-2.1,0-3.8-1.7-3.8-3.8c0-2.1,1.7-3.8,3.8-3.8h87.1c2.1,0,3.8,1.7,3.8,3.8
		C595.4-578,593.7-576.3,591.6-576.3"/>
	<path class="st22" d="M591.6-552h-87.1c-2.1,0-3.8-1.7-3.8-3.8c0-2.1,1.7-3.8,3.8-3.8h87.1c2.1,0,3.8,1.7,3.8,3.8
		C595.4-553.7,593.7-552,591.6-552"/>
	<path class="st22" d="M591.6-528.4h-87.1c-2.1,0-3.8-1.7-3.8-3.8c0-2.1,1.7-3.8,3.8-3.8h87.1c2.1,0,3.8,1.7,3.8,3.8
		C595.4-530.1,593.7-528.4,591.6-528.4"/>
	<path class="st22" d="M613.6-484.3h-53.3c-2.1,0-3.8-1.7-3.8-3.8s1.7-3.8,3.8-3.8h53.3c2.1,0,3.8,1.7,3.8,3.8
		S615.7-484.3,613.6-484.3"/>
	<path class="st22" d="M613.6-466.8h-53.3c-2.1,0-3.8-1.7-3.8-3.8s1.7-3.8,3.8-3.8h53.3c2.1,0,3.8,1.7,3.8,3.8
		S615.7-466.8,613.6-466.8"/>
</g>
<g class="st11">
	<rect x="-1082.1" y="189.3" class="st15" width="257.2" height="14.9"/>
	<rect x="-1081.3" y="348.1" class="st15" width="257.2" height="14.9"/>
	<polygon class="st15" points="-957.5,367 -958.6,400.8 -939.8,403.2 -939.8,367 	"/>
	<path class="st15" d="M-977.8,407.1c0,0-15.4,6.3-14.6,12.6l87.3,2.4c0,0,1-6-5.4-10.1c-6.4-4.1-16.6-5.7-24.9-4.9
		C-943.7,407.9-977.8,407.1-977.8,407.1"/>
	<path class="st15" d="M-974.4,235.3c0,8.9-7.2,16.1-16.1,16.1c-8.9,0-16.1-7.2-16.1-16.1s7.2-16.1,16.1-16.1
		C-981.6,219.2-974.4,226.4-974.4,235.3"/>
	<polygon class="st15" points="-965.8,225.8 -981,254.2 -995.1,288.1 -996.3,291 -999,297.3 -1001.1,302.5 -996,302.7 -989.5,303 
		-986.8,303.2 -932.5,305.7 -921.7,305.7 	"/>
	<polygon class="st15" points="-1017.3,305.1 -1006.1,284.3 -1025,250.2 -1036.8,272.1 -1049.9,303.6 	"/>
	<polygon class="st16" points="-994.1,306.1 -1004.7,305.7 -1008.7,305.7 -1008.6,305.5 -1017.3,305.1 -1018,306.4 -993.9,306.4 	
		"/>
	<polygon class="st16" points="-981,254.2 -965.8,217.6 -915.4,306.4 -932.5,305.7 -985.4,305.7 -981.1,313.5 -908.4,313.5 
		-965.9,209.3 -1001.7,276.1 -997.2,284.3 	"/>
	<polygon class="st16" points="-1004.7,305.7 -994.1,306.1 -994.4,305.7 	"/>
	<polygon class="st16" points="-1006.1,284.3 -1017.3,305.1 -1008.6,305.5 -1001.6,292.5 	"/>
	<polygon class="st16" points="-921.7,305.7 -932.5,305.7 -915.4,306.4 -965.8,217.6 -981,254.2 -965.8,225.8 	"/>
	<polygon class="st16" points="-981.1,313.5 -1021.8,313.5 -1018,306.4 -1055.2,306.4 -1036.8,272.1 -1025,250.2 -1006.1,284.3 
		-1003.2,278.9 -1001.7,276.1 -1025.1,233.7 -1068.4,314.3 	"/>
	<polygon class="st16" points="-998.6,286.9 -997.2,284.3 -1001.7,276.1 -1003.2,278.9 	"/>
	<polygon class="st16" points="-988,305.7 -987.5,306.4 -994.1,306.1 -993.9,306.4 -1018,306.4 -1021.8,313.5 -981.1,313.5 
		-985.4,305.7 	"/>
	<polygon class="st16" points="-994.1,306.1 -987.5,306.4 -988,305.7 -994.4,305.7 	"/>
	<polygon class="st16" points="-1001.6,292.5 -998.6,286.9 -1003.2,278.9 -1006.1,284.3 	"/>
	<path class="st15" d="M-877.7,260.3c-0.7,1-16.8,30-16.8,30l7.7,18.9l0.9,2.3l-1.9,4.8l-2.2,5.6l2.5,0.1l2.5,0.1l21,0.9l-4.5-10.8
		l9-17.7l1.1-2.2l1-2C-857.3,290.3-876.1,262.7-877.7,260.3"/>
	<path class="st16" d="M-855.7,290.1l-23.4-33.6l-1.5,2.2c-0.7,1-21.4,30.7-21.4,30.7l-0.6,0.9l10.8,22.1l-7.4,14.4l12.6,0l2.6,0
		l25.1-0.1l-7.4-14.3L-855.7,290.1z M-879.1,286.3c2.2,0,4,1.8,4,4c0,2.2-1.8,4-4,4s-4-1.8-4-4C-883,288.1-881.3,286.3-879.1,286.3
		 M-898.3,290.5c2.5-3.6,12.2-17.5,17.4-25v17.3c-3.3,0.8-5.8,3.8-5.8,7.4c0,4.2,3.4,7.7,7.7,7.7c4.2,0,7.7-3.4,7.7-7.7
		c0-3.6-2.5-6.6-5.8-7.4v-17.3l17.3,24.8l-9.7,20h-19L-898.3,290.5z M-865.1,322.9l-19.8,0.1l-2.5,0l-5.8,0l4.6-8.9h19L-865.1,322.9
		z"/>
	<path class="st16" d="M-850.9,252.8v-10.4h-10.4v3.4h-12.9c-0.8-2.1-2.8-3.6-5.1-3.6s-4.3,1.5-5.1,3.6h-12.7v-3.4h-10.4v10.4h10.4
		v-3.4h5.8c0,0-0.1,0.1-0.1,0.1c-3.6,2.6-8,7.5-9.2,16.1c-2.2,0.7-3.8,2.8-3.8,5.2c0,3,2.4,5.4,5.4,5.4s5.4-2.4,5.4-5.4
		c0-2.3-1.4-4.2-3.4-5c1.6-10.9,9.3-14.8,12.7-15.9c0.9,1.9,2.8,3.1,4.9,3.1c2.2,0,4.1-1.3,5-3.2c3.3,1.1,11.3,4.8,12.9,15.9
		c-2.1,0.8-3.6,2.8-3.6,5.1c0,3,2.4,5.4,5.4,5.4s5.4-2.4,5.4-5.4c0-2.3-1.5-4.3-3.5-5.1c-1.1-8.6-5.5-13.6-9.2-16.2
		c0,0-0.1-0.1-0.1-0.1h5.7v3.4L-850.9,252.8L-850.9,252.8L-850.9,252.8z M-900.8,249.1h-3v-3h3V249.1z M-899,272.5
		c-1,0-1.7-0.8-1.7-1.7s0.8-1.7,1.7-1.7c1,0,1.7,0.8,1.7,1.7C-897.2,271.8-898,272.5-899,272.5 M-859.6,272.5c-1,0-1.7-0.8-1.7-1.7
		s0.8-1.7,1.7-1.7c1,0,1.7,0.8,1.7,1.7S-858.7,272.5-859.6,272.5 M-879.3,249.3c-1,0-1.7-0.8-1.7-1.7s0.8-1.7,1.7-1.7
		c1,0,1.7,0.8,1.7,1.7C-877.5,248.5-878.3,249.3-879.3,249.3 M-857.6,246.1h3v3h-3V246.1z"/>
	<path class="st16" d="M-1082.1,336.8c-2.2,0-3.9-1.8-3.9-3.9V199.5c0-7.8,6.4-14.2,14.2-14.2h236.7c7.8,0,14.2,6.4,14.2,14.2v11
		c0,2.2-1.8,3.9-3.9,3.9c-2.2,0-3.9-1.8-3.9-3.9v-11c0-3.5-2.8-6.3-6.3-6.3h-236.7c-3.5,0-6.3,2.8-6.3,6.3v133.3
		C-1078.2,335-1079.9,336.8-1082.1,336.8"/>
	<path class="st16" d="M-835.2,370.9h-236.7c-7.8,0-14.2-6.4-14.2-14.2v-23.9c0-2.2,1.8-3.9,3.9-3.9c2.2,0,3.9,1.8,3.9,3.9v23.9
		c0,3.5,2.8,6.3,6.3,6.3h236.7c3.5,0,6.3-2.8,6.3-6.3V242.1c0-2.2,1.8-3.9,3.9-3.9s3.9,1.8,3.9,3.9v114.7
		C-821,364.6-827.4,370.9-835.2,370.9"/>
	<path class="st16" d="M-937,411h-33v-48h33V411z M-962.2,403.2h17.3v-32.2h-17.3V403.2z"/>
	<path class="st16" d="M-900.4,429.9h-105.4V426c0-12.6,10.2-22.8,22.8-22.8h59.8c12.6,0,22.8,10.2,22.8,22.8L-900.4,429.9
		L-900.4,429.9z M-997.4,422.1h88.6c-1.7-6.3-7.5-11-14.4-11H-983C-989.9,411-995.7,415.7-997.4,422.1"/>
</g>
</svg>
