<?xml version="1.0" encoding="utf-8"?>
<!-- Generator: Adobe Illustrator 23.0.5, SVG Export Plug-In . SVG Version: 6.00 Build 0)  -->
<svg version="1.1" id="Layer_1" xmlns="http://www.w3.org/2000/svg" xmlns:xlink="http://www.w3.org/1999/xlink" x="0px" y="0px"
	 viewBox="0 0 204.9 204.9" style="enable-background:new 0 0 204.9 204.9;" xml:space="preserve">
<style type="text/css">
	.st0{fill:#FFFFFF;}
	.st1{fill:#4274B9;}
	.st2{fill:#131445;}
	.st3{fill:#232A5E;}
</style>
<circle class="st0" cx="102.4" cy="102.4" r="102.4"/>
<g>
	
		<image style="overflow:visible;opacity:0.75;" width="786" height="742" xlink:href="3CD7D0E3.png"  transform="matrix(0.24 0 0 0.24 15.0712 19.1513)">
	</image>
	<g>
		<g>
			<path class="st1" d="M117,52c0.3-0.8,0.6-1.6,0.9-2.4c0.9-2.2,2-4.4,3.3-6.5c0.7-1,1.4-2.1,2.1-3c0.7-0.9,1.4-2.1,2.3-2.8
				c-4.7,3.5-8.5,8.3-11,13.7c-1.2,2.7-2.2,5.6-2.7,8.6c-0.3,1.5-0.5,3-0.6,4.5c-1.9-1.2-4-2.2-6.3-2.8c-3.8-1-7.8-0.8-11.5,0.4
				C85.9,64.1,80.2,71,79,78.8c-1.3,7.7,2.3,15.9,8.6,20.2c6.1,4.4,14.5,4.8,20.7,1.4c1.2,0.9,2.5,1.6,3.8,2
				c0.8,0.2,1.6,0.4,2.4,0.5l2.4,0l-2.3-0.5c-0.7-0.2-1.4-0.5-2.1-0.9c-1.4-0.7-2.5-1.6-3.6-2.7l-0.3-0.4l-0.6,0.2
				c-3.1,1.2-6.4,1.6-9.6,1.1c-3.1-0.6-6.1-1.8-8.5-3.8c-4.8-4-7.3-10.4-6.1-16.4c1-6,5.5-11.2,11.2-13.1c3.5-1.2,7.3-1.1,10.8,0
				c3.8,1.2,6.3,3.6,9.2,6.2c0.4,0.4,0.8,0.7,1.2,1.1c-0.4-3.9-1.1-7.7-1-11.6C115.3,58.7,115.9,55.3,117,52"/>
			<path class="st2" d="M76.7,175.2c5.5-6.5,8.8-14.5,9.5-22.6l0.2-2.6l2.3,1.4c5.7,3.6,13.2,3.3,18.5-0.3c2.7-1.8,4.8-4.3,6.1-7.2
				c1.3-2.9,1.7-6.2,1.2-9.3c-0.8-6.3-5.7-11.8-11.9-13.6c-3.1-0.9-6.5-1-9.6-0.1c-3.2,0.9-6.1,2.7-8.3,5.2l-2.3,2.5l-0.3-3.3
				c-0.3-3.4-1.4-6.8-3.5-9.6c-2-2.8-5-5.1-8.5-6.3c3.6,0.5,7.2,2.3,9.8,5.1c2.6,2.8,4.4,6.4,5.1,10.3l-2.6-0.7
				c4.6-6.4,13.5-9.8,21.4-7.6c4,1,7.7,3.1,10.4,6.2c2.8,3,4.7,6.9,5.3,11c1.3,8.2-2.7,17-9.8,21.1c-3.5,2.1-7.6,3.2-11.6,3.1
				c-4-0.2-8-1.5-11.2-3.9l2.5-1.1C88,161.8,83.3,169.8,76.7,175.2"/>
			<path class="st3" d="M100,31.7l-0.8,0.1C99.6,31.8,99.8,31.7,100,31.7"/>
			<path class="st3" d="M105.7,31.7l0.1-0.2C105.6,31.6,105.4,31.7,105.7,31.7"/>
			<path class="st3" d="M149.9,46c0.1,0.1,0.1,0.2,0.2,0.3c0.3,0.1,0.6,0.1,0.9,0.2C150.7,46.4,150.3,46.2,149.9,46"/>
			<path class="st3" d="M148.2,46.9l-1-1.1C147.4,46.1,147.7,46.4,148.2,46.9"/>
			<path class="st3" d="M70.3,39.3c-0.2,0.3-0.4,0.5-0.6,0.8C70.9,39.4,70.2,39.5,70.3,39.3"/>
			<path class="st3" d="M32.9,133.9c0,0.1,0,0.2,0,0.3C33.1,134.2,33,134.1,32.9,133.9"/>
			<path class="st3" d="M33.3,74.9c0,0-0.1,0.1-0.1,0.1C33,75.8,33.1,75.5,33.3,74.9"/>
			<path class="st3" d="M86.5,33.4l1.9,0c-2.1,1-3.6,1.2-1.9,1.3c0-0.7,1.7-1,3.5-1.4c1.8-0.3,3.5-0.6,3.6-1.2l1.2,0.2
				c-0.3,0-0.4,0.1-0.7,0.1c1.2,0.2,1.6-0.1,2.1-0.4c0.5-0.4,1.1-0.8,2.6-0.7c1.1,0.1,1.8,0.2,1.1,0.4c0.8-0.2,1.6-0.3,2.4-0.4
				c0.7,0,0.5,0.3-0.2,0.2c1.2,0,2.4-0.1,3.6,0l0,0c0.5-0.2,1.7-0.4,2.3-0.5c0.9,0.3-0.5,0.1-0.3,0.3c0.7-0.1,1.4-0.1,2-0.1
				c0.8,0.4-0.9,0.6-2.3,0.4c0.9,0.7,1.3,0.7,2,0.6c0.7-0.1,1.7-0.2,3.6,0.5c-0.6,0-1.3-0.1-1.9-0.1c0.6,0.4,1.2,0.7,2,0.9
				c0.8,0.2,1.6,0.4,2.6,0.8c-0.4-0.4-4-1.8-1.8-1.9c0.3,0.1,0.6,0.2,1.1,0.2c0.4,0.1,0.9,0.1,1.5,0.1c-0.1,0.5,1.1,0.6,2.5,0.9
				l-0.2,0.6c1.5,0.2,1.5-0.1,2.5-0.2c1.7,0.5,1.9,1.1,2.1,1.6c2.6,0.9-1.6-1.3,1.6-0.5c1.1,0.4,2,0.8,3,1.1c1,0.3,2.1,0.6,3.4,0.9
				c1.4,0.8-0.4,0.2,0.1,0.6c0.5,0,1,0,1.5,0.1c0.3,0.2,0.1,0.3,0.1,0.3c1.2,0.3,0.4-0.5,2.2,0.1c0.4-0.2,1.2,0.4,2.1,1.3
				c1,0.8,2.1,1.7,3.3,2c0.4,0.5-0.4,0.2-0.4,0.5c3,1.2,2.6,1.1,5.2,2.1c0.6,0.5,1.1,1.1,1.6,1.7c-1.1-1.4,1-0.6,2.8,0.2
				c-0.3-0.5-0.6-1-0.9-1.3c0.9,0.5,1.8,1.1,2.6,1.6c0.2,0.3-0.2,0.3-0.7,0.2c0.2,0.1,0.4,0.2,0.5,0.2c0.7,0.9,0,0.8-0.8,0.6
				c-0.2-0.3-0.4-0.7-0.6-1c-0.8-0.2-1.6-0.2-1.8,0.1c0.2,0.1,0.5,0.2,0.9,0.5c-0.2,0-0.4,0-0.3,0.1c0,0.1,0.4,0.2,0.9,0.4l0.1,1
				l0.3-0.1c0.9,1,1.8,1.9,2.6,2.9c1.3,0.7,2.5,1.2,3.8,2.1c0.7,0.4,1.4,0.9,2.1,1.4c0.7,0.6,1.5,1.3,2.3,2.1
				c-1.1-0.5-0.8,0.4-1.3,0.7c-0.2-0.7-0.8-1.3-1.5-1.9c-0.8-0.7-1.7-1.3-2.5-2.2c0.8,0.9,0.4,0.9,0.1,0.8l1.6,1.3l1.6,1.3
				c-0.4,0.3,0.3,0.9,0.8,1.8c0.1-0.6,0.7-0.1,1.5,0.7c0.7,0.8,1.6,1.9,2.2,2.5c-0.2,0.3-0.7,0.1-1.9-1.5c0.4,1.1,1,1.5,1.7,1.9
				c0.7,0.4,1.4,0.8,1.7,1.9c-0.3-0.4-0.4-0.7-0.7-0.7c0.9,0.8,2.2,3.3,1.6,2.9l-0.3-0.4c0.2,0.4,0.5,0.8,0.7,1.2
				c0.3,0.4,0.5,0.9,0.8,1.4c0.6,1,1.2,1.9,1.7,2.9c0.5,0.9,1.1,1.8,1.5,2.4c0.4,0.6,0.8,1,1,1.1c-0.1,0.1-1.1,0-1.3-0.1
				c0.8,0.7,1.7,1.4,2.5,2.1l2.4,2.3c-0.9-0.2-1.7,2.2-3.1-0.2c0.1,0.4,0.2,0.8,0.4,1.3c0.2,0.5,0.4,1.1,0.8,1.9
				c-0.1-0.5,0.5-1.6,0.8-0.9c-0.1,2.2,0.1,1.5,0.1,4c-0.1-0.8,1.3-0.3,1.6,1c-0.2-0.1-1,0.4-1.3,0c0.7,0.9,1.2,1.8,1.9,2.8
				c-0.4-0.7-0.9,0.1-1.1,0.8c0.1-0.2,0.2,0.5,0.4,1.3c0.1,0.8,0.3,1.8,0.4,2.2l0-1.4c0.3,1.8,0.8,2.6,1.3,3.4
				c0.5,0.8,1.1,1.6,1.2,3.4c-0.3-0.4-1.5-0.9-1.5,0.9c0.7,0.7,3,3.5,3.5,6.8l-0.3,0.6c0.1,0.8,0.3,1.7,0.3,2.5
				c-0.4-0.8-1-2.3-1.7-3.8c-0.6-1.5-1.4-3.1-1.8-4.3c-0.2,1.3-0.4,0.4-0.3,2.4c-0.3,0.7-0.5-1.1-0.5-1.6c0,1.5,0,3.1-0.1,4.6
				c0.3-0.1,0.5,0.8,0.6,1.7c0.1,0.9,0.2,1.8,0.5,1.7c-0.1-1.7-0.4-3.4-0.6-5c0.3-0.1,0.8,0.6,1.2,1.8c0.2,0.6,0.4,1.3,0.4,2.1
				c0.1,0.8,0.1,1.6,0,2.4c-0.3,0.8-1.1-0.7-1.4-0.6c0.1,0.2,0.2,1,0.2,1.8c0,0.8-0.1,1.5-0.2,1.7l-0.2-1.4
				c-0.4,1.8,0.6,3.1-0.4,5.2c-0.1,0.8-1.2,2.1-0.8,2.3c1-1.1,3.3-0.9,3.7,0c-0.1,0.3-1.5,3.9-2.1,4.7c-0.9,1.1-0.9-2.2-1.7-1.2
				c0.2,0.1,0.2,0.8,0.2,1.1c-0.3,0.7-0.5-0.5-0.8,1.2c0.6,0.5-1.1,3.4,0.3,0.9c-0.3,1.7-0.7,1.7-1.2,3.6c0.6-0.5,0.8,2.2,0.4,3.9
				c-0.1-0.2-0.5,0.1-0.6,0.3c-0.7,1.6-1.3,2.9-2,4c-0.6,1.2-1.3,2.3-2.1,3.8c-0.3,0.2-1.2,1.5-1.1,0.8c-0.1,0.5-0.1,1-0.6,1.8
				c-1.5,1.4,1.1-2-0.3-1c0.3,0.3-0.9,2.5-1.5,3.9c0.7,0,1.9-2.8,2.4-4.2c0.4,0.2,0.4,1,0.2,2.1c-0.3,1.1-0.7,2.6-1.6,4.1
				c-1.4,2.4-1.1,0.7-1.3,1.2c-0.4,0.5-0.7,1-1,1.4c-0.3,0.4-0.5,0.8-0.7,1.1c-0.4,0.6-0.6,1.2-0.7,1.7c-0.2,0.5-0.4,1-0.7,1.5
				c-0.2,0.3-0.4,0.6-0.6,0.9c-0.3,0.3-0.6,0.6-1.1,1c-1.6,0.9-0.8-0.6-1.4-0.6c1.4-1.7,2.5-2.4,3.4-3.6l-1.4,1.3
				c0.3-0.7,1.1-1.9,1.8-2.5c-0.3,0.2-0.8,0.7-1.4,1.5c-0.6,0.7-1.3,1.7-2.2,2.6c-1.7,1.8-3.6,3.9-5.3,5.1c-0.4,0.6-1.2,1.6-0.6,1.3
				l0.9-0.9c1.2-0.5-1.4,2,0,1.1c-0.5,0.7-1.1,1.4-1.7,2.2c-0.3,0.4-0.7,0.8-1.1,1.1c-0.4,0.3-0.9,0.7-1.4,1l-0.7-0.2
				c0.1,0.1,1.5-0.7,1.9-1.2c-0.6,0.8-3.4,1.6-3.8,2.9l1.6-0.7c-0.6,0.6-1.2,1.5-2,2.2c-0.8,0.7-1.6,1.4-2.6,1.9
				c1.2,0,0.4-0.3,2.1-0.6c-0.8,0,0.4-0.7,1.4-1.5c1-0.8,2-1.5,0.8-1.2c1.7-0.3,2.4-1.4,4.5-2.2c-0.2-0.1-0.8,0.2,0.6-1
				c0-0.1,0.1-0.3,0.2-0.4c0,0,0.1,0,0.1-0.1c0,0-0.1,0-0.1,0.1c0-0.1,0-0.1,0,0c-0.4,0.2-0.7,0.4-0.9,0.4c0.4-1,2.5-2.9,3.1-3.7
				c0.9-0.7-0.2,0.5,0.4,0.2c0.3-0.4,0.6-0.8,0.8-1.3c0.4,0.2,2.5-1.6,0.9,0.5l1.6-1.7c0.6-0.4,1.2-0.9,1.7-1.5
				c0.3-0.3,0.5-0.6,0.8-0.8c0.2-0.3,0.4-0.6,0.5-0.8c0.8-0.8,1.3-2.5,1-1.5l2-3l0.1,0c0.5-0.7,1-1.5,1.5-2.3
				c0.5-0.8,0.9-1.6,1.4-2.4c0.5-0.8,0.9-1.7,1.5-2.5c0.5-0.8,1.1-1.7,1.7-2.5c0.5-1.1,0.9-2.3,1.9-4l0.5-0.2c0.5-1.5,2.2-4.1,2-4.9
				c0.8-0.6,1.5-2.4,2-4.3c0.6-1.9,0.9-4.1,1.3-5.4l-0.5-0.2c0.4-1.8,0.7-3.6,0.8-5.9l-0.5,0.1c0-1,0.2-2.3,0.5-3.7
				c0.1-0.7,0.3-1.4,0.4-2.2c0.1-0.8,0.2-1.5,0.2-2.3c0.2,0.2,0.1,1-0.1,1.6c0.3-0.9,0.4-1.9,0.5-2.9c0-1-0.1-2-0.2-2.9
				c-0.1-1-0.3-1.9-0.3-2.9c-0.1-0.9-0.1-1.8,0-2.7c-0.2-0.8-0.2-1.4-0.2-2.1c0,0.1,0,0.1,0,0.2c0-0.1,0-0.2,0-0.3
				c0-0.4,0.1-0.8,0.1-1.2c-0.1,0.4-0.1,0.7-0.1,1c0-0.7-0.3-1.6-0.5-2.6l0.4-0.5c0-0.1,0-0.1,0-0.2c0-1-0.3-0.7-0.6-0.2
				c-0.1-0.5-0.3-0.9-0.5-1.2c0.6-0.9-0.7-2.4-0.1-3.6c-0.3-0.3-0.6-1.5-1-2.6c-0.4-1.1-0.9-2.2-1.4-2.3c0.1-0.1,0.1-0.3,0.2,0.1
				c-0.2-1.1-0.4-2.1-1-3l0.4-0.6l-1.5-2c-0.2-1.4-0.2-2.1,0.8-0.9c-1-1.5-1.3-2.1-1.6-2.7c-0.3-0.6-0.6-1-1.5-2.2l0.4,0
				c-0.4-1-1.6-2.2-1.6-2.9c-0.2-1.2-1.5-3.8-3.3-6.6c-1.7-2.9-4.1-5.9-5.7-8.4c-0.1,1.6-1.5-2.4-2.3-2c0-0.4-0.5-1.2,0.3-0.6
				c-2.3-2.1-2.9-3.7-5-4.5c-0.1-0.4,0.8,0.2,0.6-0.2c-0.2-0.1-0.9-0.5-1-0.8c-0.1-0.3,0.5,0.1,0.9,0.4c-1.2-1.1-2-1.5-2.6-1.5
				c-0.6-0.1-1,0.1-1.3,0.4c-0.5-0.6-0.9-1.1-1.3-1.4c-0.4-0.3-0.9-0.5-1.5-0.6c-0.3-0.5-0.9-1.3,0.8-0.2c-0.4-0.3-1.7-1.5-2.9-2.3
				c-1.3-0.9-2.5-1.6-2.7-1.4c-0.2-0.3-1.3-0.8-1.6-0.9c-2.1-1.3-2.2-1.5-4.4-2.5l0.5,0.4c-1.2,0.2-1.8-0.8-3.6-1.5l0.1,0
				c-1.9-1.2-2.4-1.3-2.8-1.4c-0.5-0.1-0.9-0.3-2.8-1.4l0.1,0.5c-0.7,0.8-3.4-1.9-6-2.2l0.8,0.5c-0.7,0-1.5-0.7-2.4-1.3
				c-0.8-0.6-1.7-1.3-2.3-1.6c-0.3-0.2,0.5,0,0.9,0c-1.7-0.8-1.9-0.6-1.9-0.4c-0.1,0.2,0,0.6-1.4,0.4c-0.4-0.4,0.8-0.7-1-1.1
				c-0.9-0.5-5.5,0.2-7.9-0.6c0.5,0.3,1,0.6-0.2,0.7c-1-0.1-2.3-0.3-3.5-0.6c-1.3-0.2-2.6-0.3-3.4,0.1c-0.2-0.1-0.3-0.1-0.4-0.2
				c-0.7,0.1-1.9,0.2-3.1,0.4c-1.1,0.1-2.2,0.4-2.6,0.6c-0.4-0.4-1.1-0.5-2.1-0.4c-0.9,0-2,0.3-3.1,0.6c-1,0.2-2,0.5-2.8,0.7
				c-0.7,0.1-1.2,0.1-1.3-0.3c-1.5,0.3-3,0.7-4.4,1.1l0.1-0.2c-2.8,0.7-3.7,1.3-4.6,2c-0.7,0.1-0.2-0.2-0.2-0.3
				c-1,0.3-1.8,0.5-2.5,0.7c-0.7,0.2-1.2,0.4-1.7,0.7c-1,0.5-1.9,1-3.3,2.1l-0.5-0.3c-0.8,0.6-5.9,2-9.2,4.7c0-0.1,0-0.2,0.3-0.4
				c-0.9,0.8-2,1.4-3.1,2.1c-1.1,0.7-2.3,1.3-3.3,2c-1,0.7-2,1.4-2.6,2c-0.7,0.7-1.1,1.3-1.1,1.9c-0.7,0.8-1.4,1.6-2,2.4
				c3-2.6,0.1,1,1.5,0.1c-1,1.1-3.3,2.4-1.9,1l0.3-0.1c-0.1-0.6-1,0.2-2,1.1c-0.9,0.9-1.9,1.9-2.1,1.7c-2.6,2.9-5.2,5.9-7.4,9.1
				l-0.9,1.2l-0.8,1.2c-0.5,0.8-1.1,1.6-1.6,2.4c-0.9,1.6-1.9,3.3-2.7,4.9l1-0.5l-1.1,2.3c-0.4,0.5-0.9,0.6-0.1-1.1
				c-0.8,0.7-0.9,3-0.8,3.1c-1.7,3.2-0.2-1.6-0.7-0.6l-0.5,1.4l0.2-0.3c-0.2,1.2,0.1,1.5-0.7,3.5c-0.6,1.3-0.7,0.5-0.9,1
				c0,0-0.1,0.1-0.3,0.8l-1,3.1l0.9-1.1c-0.2,1.4-0.8,2.9,0.1,1.7c-0.4,0.5-0.8,1.4-1.2,2.6c-0.4,1.2-0.7,2.7-1,4.1
				c-0.3,1.4-0.4,2.9-0.6,4c-0.1,1.1-0.2,2-0.3,2.3c0.1,0.5,0.1,1,0.1,1.5c0,0.5,0,1,0,1.6c0,1.1-0.1,2.2-0.1,3.4
				c0.1-0.6,0.8-1,0.7,1.1c-0.6-0.4-0.8,0.6-0.9,1.9c0,1.3,0,2.9-0.4,3.8c0.2-0.8,0.4,0.7,0.6,2.1c0.2,1.4,0.5,2.7,0.8,1.4
				c0.1,1.8-0.5,0.2-0.6,1.5c1.1,4.1,1.3,9.3,3.1,14.2c0.2,0,0.2-0.9,0.8,0.1c0,1,0,1.9,0.1,2.9c0.5,0.9,1.3,0.5,1.4,2.5
				c0-0.3,0.1-0.8,0.4-0.1c1.6,4.9,4.2,9.5,7.2,13.8c3,4.3,6.3,8.3,9.5,12.6c-0.7-1.3-0.1-0.6,0.7,0.1c-0.5-0.5,0.3-0.3,0.4-0.6
				c0.9,1.1,1.8,2.3,2.8,3.4c0.5,0,1.4,0.8,2.3,1.5c0.9,0.7,1.8,1.3,2.1,1.2l-1.2-0.7c1,0.3,0.7-0.4,0.3-1.3
				c-0.4-0.9-0.8-1.9-0.4-2.1c-1-0.3-1.8-1.4-2.7-2.6c-0.4-0.6-0.9-1.2-1.5-1.8c-0.5-0.6-1.2-1.1-1.9-1.5c-0.4-0.6,0.6,0.2,0.5-0.2
				c-0.4-0.2-0.8-0.4-1.3-0.8c-0.4-0.4-0.9-0.9-1.4-1.7l0.2,0.1c-0.4-0.5-0.8-0.9-1.2-1.3c-0.4-0.4-0.7-0.9-1-1.3
				c-0.6-0.8-1.2-1.6-1.7-2.4c-0.5-0.8-1-1.6-1.6-2.6c-0.5-1-1.1-2-1.8-3.3l-0.2,0.6c-0.6-1.1-0.6-1.4-0.8-2
				c-0.7-0.4-0.2,0.3,0.2,1.1c0.4,0.8,0.9,1.5,0.2,1.2c0-0.5-0.3-1.2-0.7-2c-0.4-0.8-1-1.8-1.4-2.7c-0.5-1-1-1.9-1.2-2.7
				c-0.3-0.8-0.4-1.5-0.3-1.8c-0.8-1.7-0.3,0.7-1-1c0-0.2,0.1-0.4,0.1-0.6l-0.5-0.3c-0.4-1.2-0.3-1.9-0.1-2c0.1,0.3,0.4,0.8,0.5,1.1
				c-0.3-1.6-1.7-4.2-1.7-4.8l0.4,1.8c-2-4.8-3-11.1-4.2-16l-0.2,0.4c-0.8-3.8-0.1-3.1-0.5-7.3l0.1,0.2c-0.3-0.8-0.3-2-0.3-3.1
				c0.3,1.1,0.5-2,0.8-0.6c-0.2-2.1-0.2-2.6-0.3-2.9c-0.1-0.3-0.3-0.5-0.6-1.9l0.4-0.6c-0.2-1-0.4-1.1-0.2-3.2
				c0,1.8,0.8-1.3,0.9,0.7c0.7-2.1,0.8-3.8,0.9-5.1c0.1-0.7,0.1-1.3,0.2-1.8c0.2-0.5,0.4-1,0.8-1.4c-0.2-1.1-0.6-0.2-0.9,0.8
				c-0.3,1-0.4,2.2-0.4,1.6c-0.5,0.9-0.4-1.8,0.1-3.2c0.4-1.4,1.8-2,2.9-5.4c-0.1,0.3-0.1,0.4-0.2,0.7c0.7-1.2,0.5-2.6,1.5-3.9
				c-0.2-1.1,0.8-1.9,0.2-2.5c-0.4,1-0.8,2-1.1,3.1c0.2-0.9,0.3-1.8,0.5-2.9c0.1-0.5,0.3-1.1,0.5-1.7c0.2-0.6,0.6-1.2,1-1.8
				c0,0.3-0.2,1.2-0.3,1.8c0.6-0.7,0.6-1.6,1.2-2.4c0.3,0.3-0.1,1.2-0.6,2.3c-0.5,1.1-1,2.4-1.1,3.4c0.7-0.7,0.9-3.7,1.3-2.4
				c-0.2-0.9,0.2-1.6,0.7-2.5c0.5-0.9,1.1-1.8,1.3-3.1l0.3,0.4c0.1-0.4,0.3-1.2,0.6-1.8L37,70.3c0.2-1,0.8-1.7,1.4-2.4
				c0.6-0.7,1.2-1.4,1.6-2.2c-2,3.3-0.9,0.4-2.1,1.7c1-2.2,1.7-2.6,2.4-3.1c0.7-0.4,1.5-0.9,3-3.1c-0.4,0.6-1.9,2-1.4,1
				c0.7-0.8,1.7-1.7,2.2-2.1c2.2-2.8-0.7,0.1,0-1.2c1.2-0.6,0.9-1.5,1.8-2.8l0.4,0.3c1.5-1.4,1.5-1.7,1.5-2.1c0-0.3-0.1-0.6,1.4-1.8
				c-0.2,0.5-0.4,1-0.6,1.6c0.4-0.5,0.8-1,1.2-1.5l0.1,0.7c0.6-0.9,1-1.4,1.5-1.9c0.5-0.5,1-0.8,1.9-1.5c-0.6,0.1-0.4-0.8,1-2
				c1.1-0.5-0.3,0.8,1.7-0.9c-0.3,0.6-0.5,1.3-1.7,1.6c0,0.2-0.2,0.6-0.2,0.8c1.2-0.6,2.6-2,3.3-2.6c-0.3,0.2-0.6,0.4-0.8,0.5
				c0.8-1,1.7-1.8,2.6-2.7c0.6-0.2,0.3,0.2,0,0.6c0.6-0.5,0.9-1,1.8-1.6c0,0.5,0.2,0.7-0.9,1.8c0.8-0.8,1.8-1.5,2.7-2.3
				c0.1,0,0.6-0.1,0.9-0.2c0.4-0.1,0.7-0.1,0.5,0c0.9-0.4,1.8-1.1,2.8-1.9c1-0.7,2.2-1.5,3.4-1.9c0.1-0.1,0.3-0.3,0.8-0.6
				c1.1-0.5,2.2-0.8,3.3-1.2c1.1-0.4,2.3-0.9,3.6-1.6l1.7,0.1c2.1-0.8-2.4-0.2,1.1-1.5c2.5-0.9,1.1,0.3,2.1,0.2
				c0.6-0.4,1.4-0.8,2.4-1.2c1-0.4,2.1-0.7,3.4-0.6C87.9,33.2,87.3,33.2,86.5,33.4 M114.1,32.4c-0.5,0-1.6,0.2-2-0.2
				C112.8,31.8,113.2,32.1,114.1,32.4 M152.6,49.4c-0.4-0.1-0.8-0.6-1.3-1.2C151.7,48.5,152.1,48.9,152.6,49.4 M161.3,159
				C161.4,158.9,161.4,158.9,161.3,159C162.4,158.1,162,158.4,161.3,159 M159.4,160.8c-0.1,0.2-0.1,0.3,0.1,0.2
				c0-0.2,0.4-0.7,0.9-1.1C160.1,159.9,159.9,160.1,159.4,160.8 M27.3,81.3l0.3-0.4C27.3,82,27.3,81.7,27.3,81.3"/>
			<path class="st3" d="M148.4,46.8c-0.1-0.2-0.1-0.3,0-0.3C148.2,46.4,148.1,46.5,148.4,46.8"/>
			<path class="st3" d="M70.4,39.1L70.4,39.1c-0.1,0.1-0.1,0.1-0.1,0.1L70.4,39.1z"/>
			<path class="st3" d="M157.2,163.4c-0.5,0.3,0.1,0.6-0.3,0.7c-0.1,0.4,0.5-0.4,0.9-0.9c0.2-0.3,0.3-0.5,0.2-0.5
				C158,162.6,157.8,162.8,157.2,163.4"/>
			<path class="st3" d="M161.6,153.7c0.4-0.4,0.5-0.3,0.8-0.5l-0.4-0.4L161.6,153.7z"/>
			<path class="st3" d="M117.9,34.4l0.1-0.1c-0.2-0.2-0.5-0.3-1.2-0.4L117.9,34.4z"/>
			<polygon class="st3" points="98.2,32.4 98.5,32.4 97.8,31.8 			"/>
			<path class="st3" d="M81.9,35.9c0.7-0.2,1.4-0.5,2.1-0.7C82.5,35.7,81.5,35.2,81.9,35.9"/>
		</g>
	</g>
</g>
</svg>
