<?xml version="1.0" encoding="utf-8"?>
<!-- Generator: Adobe Illustrator 23.0.5, SVG Export Plug-In . SVG Version: 6.00 Build 0)  -->
<svg version="1.1" id="Layer_1" xmlns="http://www.w3.org/2000/svg" xmlns:xlink="http://www.w3.org/1999/xlink" x="0px" y="0px"
	 viewBox="0 0 204.9 204.9" style="enable-background:new 0 0 204.9 204.9;" xml:space="preserve">
<style type="text/css">
	.st0{fill:#FFFFFF;}
</style>
<path class="st0" d="M101.9,126c-6.3,6.6-12.2,13-18.4,19.2c-18,18.1-36,36.2-54.1,54.3c-7.1,7.1-17.7,7.2-24.5,0.5
	c-6.9-6.9-6.5-17.5,0.8-24.8c22.6-22.5,45.2-45,67.8-67.6c1.5-1.5,3-3.2,5.5-5.9C75,98,70.9,94.7,67.2,91
	C46.7,70.7,26.3,50.3,5.9,29.9C-1.6,22.4-2,11.7,5.1,4.8C12-2,22.6-1.5,29.9,5.9c22.6,22.7,45.3,45.4,67.9,68.1
	c1.4,1.4,2.8,2.7,4.5,4.3c1.6-1.5,3.2-2.8,4.6-4.2c22.6-22.7,45.3-45.4,67.9-68.1c8.9-8.9,21.8-7.7,27.9,2.6
	c3.9,6.6,2.5,15.2-3.6,21.2c-13.6,13.6-27.2,27.1-40.8,40.7c-9.3,9.3-18.6,18.5-27.9,27.8c-1.3,1.3-2.4,2.6-4.5,4.8
	c5.9,5.6,11.7,10.8,17.2,16.4c18.6,18.5,37.2,37,55.8,55.6c7.4,7.4,7.8,17.9,1,24.8c-6.9,7.1-17.6,6.7-25.1-0.8
	c-22.6-22.7-45.2-45.4-67.9-68.1C105.7,129.5,104.3,128.2,101.9,126z"/>
</svg>
