<?xml version="1.0" encoding="utf-8"?>
<!-- Generator: Adobe Illustrator 23.0.5, SVG Export Plug-In . SVG Version: 6.00 Build 0)  -->
<svg version="1.1" id="Layer_1" xmlns="http://www.w3.org/2000/svg" xmlns:xlink="http://www.w3.org/1999/xlink" x="0px" y="0px"
	 viewBox="0 0 283.5 283.5" style="enable-background:new 0 0 283.5 283.5;" xml:space="preserve">
<style type="text/css">
	.st0{fill:#F7931E;}
	.st1{fill:#0E142F;}
	.st2{fill:#FF0000;}
	.st3{fill:#FFFFFF;}
	.st4{fill:#FCFDFF;}
</style>
<path class="st0" d="M206.1,242.3c-3.5-1.9-6-5.6-6-9.8V109h-3.5l19.3-49c1.6-4,5.4-6.6,9.6-6.6c0.7,0,1.4,0.1,2,0.2V26.6
	c0,0-8.9-19.4-27.5-19.4H67.6c-9.9,0-17.9,8-17.9,17.9L49,249.3c0,7.3,5.5,13.4,12.7,14.1l150.3,15.1c0,0,13.1-7.8,15.5-19.5v-4.3
	h-6C214.1,254.6,207.7,249.4,206.1,242.3"/>
<path class="st1" d="M37.8,64.8H22.3c-2.1,0-3.7-1.7-3.7-3.7s1.7-3.7,3.7-3.7h15.4c2.1,0,3.7,1.7,3.7,3.7S39.8,64.8,37.8,64.8"/>
<path class="st1" d="M37.8,96.9H22.3c-2.1,0-3.7-1.7-3.7-3.7s1.7-3.7,3.7-3.7h15.4c2.1,0,3.7,1.7,3.7,3.7S39.8,96.9,37.8,96.9"/>
<path class="st1" d="M37.8,129H22.3c-2.1,0-3.7-1.7-3.7-3.7s1.7-3.7,3.7-3.7h15.4c2.1,0,3.7,1.7,3.7,3.7S39.8,129,37.8,129"/>
<path class="st1" d="M37.8,161.2H22.3c-2.1,0-3.7-1.7-3.7-3.7c0-2.1,1.7-3.7,3.7-3.7h15.4c2.1,0,3.7,1.7,3.7,3.7
	C41.5,159.5,39.8,161.2,37.8,161.2"/>
<path class="st1" d="M37.8,193.3H22.3c-2.1,0-3.7-1.7-3.7-3.7c0-2.1,1.7-3.7,3.7-3.7h15.4c2.1,0,3.7,1.7,3.7,3.7
	C41.5,191.7,39.8,193.3,37.8,193.3"/>
<path class="st1" d="M37.8,225.5H22.3c-2.1,0-3.7-1.7-3.7-3.7c0-2.1,1.7-3.7,3.7-3.7h15.4c2.1,0,3.7,1.7,3.7,3.7
	C41.5,223.8,39.8,225.5,37.8,225.5"/>
<path class="st2" d="M221.6,243.4c-2.6,0-4.8-2.1-4.8-4.8v-6.3h-5.5V112.7h28.5v119.7h-5.5v6.3c0,2.5-2,4.6-4.5,4.8c0,0-0.3,0-0.3,0
	H221.6z"/>
<path class="st1" d="M236,116.5v112.2h-5.5v7.5v2.5c0,0.5-0.4,1-1,1l-0.2,0l0,0h-6.8h-0.9c-0.6,0-1-0.5-1-1v-2.5v-7.5h-5.5V116.5
	H236 M243.5,109h-36v123.5c0,2,1.6,3.6,3.6,3.6h1.9v2.5c0,4.7,3.8,8.5,8.5,8.5h0.9h6.9c0.2,0,0.4,0,0.5,0c4.5-0.3,8-4,8-8.5v-2.5
	h1.9c2,0,3.6-1.6,3.6-3.6V109z"/>
<path class="st1" d="M222.5,254.6v0.6c0,10.8-8.8,19.6-19.6,19.6H53.7c-10.8,0-19.6-8.8-19.6-19.6V31.3c0-10.8,8.8-19.6,19.6-19.6
	h149.3c10.8,0,19.6,8.8,19.6,19.6v19.3c0,1.6,1.3,2.9,3,2.9h0c0.4,0,0.9,0,1.3,0.1c1.7,0.2,3.2-1.2,3.2-2.9V31.3
	c0-15-12.1-27.1-27.1-27.1H53.7c-15,0-27.1,12.1-27.1,27.1v223.9c0,15,12.1,27.1,27.1,27.1h149.3c15,0,27.1-12.1,27.1-27.1v-0.6
	c-0.2,0-0.4,0-0.5,0H222.5z"/>
<polygon class="st3" points="213.1,97.8 225.6,66.2 238,97.8 "/>
<path class="st1" d="M225.6,76.4l7,17.7H230h-7.5h-4L225.6,76.4 M225.6,61c-1.1,0-2.2,0.6-2.7,1.8l-0.3,0.9l-15,37.9h15h7.5h13.5
	L230,67.3l-1.8-4.5C227.7,61.6,226.7,61,225.6,61"/>
<path class="st1" d="M253.1,172.5c-1.7,0-3.1,1.4-3.1,3.1V224c0,1.7,1.4,3.1,3.1,3.1c1.7,0,3.1-1.4,3.1-3.1v-48.4
	C256.2,173.9,254.8,172.5,253.1,172.5"/>
<rect x="212.1" y="227.7" class="st1" width="23.9" height="6.7"/>
<path class="st4" d="M194.1,41.6H70.4c-2.1,0-3.7-1.7-3.7-3.7c0-2.1,1.7-3.7,3.7-3.7h123.8c2.1,0,3.7,1.7,3.7,3.7
	C197.9,39.9,196.2,41.6,194.1,41.6"/>
<path class="st4" d="M194.1,59.5H70.4c-2.1,0-3.7-1.7-3.7-3.7c0-2.1,1.7-3.7,3.7-3.7h123.8c2.1,0,3.7,1.7,3.7,3.7
	C197.9,57.8,196.2,59.5,194.1,59.5"/>
<path class="st4" d="M156.1,77.5H70.4c-2.1,0-3.7-1.7-3.7-3.7c0-2.1,1.7-3.7,3.7-3.7h85.7c2.1,0,3.7,1.7,3.7,3.7
	C159.8,75.8,158.1,77.5,156.1,77.5"/>
<path class="st4" d="M156.1,117.8H70.4c-2.1,0-3.7-1.7-3.7-3.7c0-2.1,1.7-3.7,3.7-3.7h85.7c2.1,0,3.7,1.7,3.7,3.7
	C159.8,116.2,158.1,117.8,156.1,117.8"/>
<path class="st4" d="M156.1,141.8H70.4c-2.1,0-3.7-1.7-3.7-3.7c0-2.1,1.7-3.7,3.7-3.7h85.7c2.1,0,3.7,1.7,3.7,3.7
	C159.8,140.1,158.1,141.8,156.1,141.8"/>
<path class="st4" d="M156.1,164.9H70.4c-2.1,0-3.7-1.7-3.7-3.7c0-2.1,1.7-3.7,3.7-3.7h85.7c2.1,0,3.7,1.7,3.7,3.7
	C159.8,163.3,158.1,164.9,156.1,164.9"/>
<path class="st4" d="M177.7,208.3h-52.4c-2.1,0-3.7-1.7-3.7-3.7c0-2.1,1.7-3.7,3.7-3.7h52.4c2.1,0,3.7,1.7,3.7,3.7
	C181.4,206.6,179.7,208.3,177.7,208.3"/>
<path class="st4" d="M177.7,225.5h-52.4c-2.1,0-3.7-1.7-3.7-3.7c0-2.1,1.7-3.7,3.7-3.7h52.4c2.1,0,3.7,1.7,3.7,3.7
	C181.4,223.8,179.7,225.5,177.7,225.5"/>
</svg>
