<?xml version="1.0" encoding="utf-8"?>
<!-- Generator: Adobe Illustrator 23.0.5, SVG Export Plug-In . SVG Version: 6.00 Build 0)  -->
<svg version="1.1" id="Layer_1" xmlns="http://www.w3.org/2000/svg" xmlns:xlink="http://www.w3.org/1999/xlink" x="0px" y="0px"
	 viewBox="0 0 283.46 283.46" style="enable-background:new 0 0 283.46 283.46;" xml:space="preserve">
<style type="text/css">
	.st0{fill:#061F3E;}
	.st1{fill:#88B5E0;}
	.st2{fill:#0F142F;}
	.st3{fill:#0B0E17;}
	.st4{fill:#5E90CC;}
	.st5{fill:#4274B9;}
	.st6{fill:none;stroke:#0F142F;stroke-width:3.665;stroke-linecap:round;stroke-miterlimit:10;}
	.st7{fill:#FFFFFF;}
	.st8{fill:none;stroke:#FFFFFF;stroke-width:0.792;stroke-miterlimit:10;}
	.st9{fill:none;stroke:#FFFFFF;stroke-width:0.792;stroke-miterlimit:10;stroke-dasharray:2.001,2.001;}
	.st10{fill:none;stroke:#FFFFFF;stroke-width:0.792;stroke-miterlimit:10;stroke-dasharray:1.979,1.979;}
	.st11{fill:none;stroke:#FFFFFF;stroke-width:0.396;stroke-miterlimit:10;}
	.st12{fill:none;stroke:#0F142F;stroke-width:0.396;stroke-miterlimit:10;}
	.st13{fill:none;stroke:#0F142F;stroke-width:3.793;stroke-miterlimit:10;}
	.st14{fill:none;stroke:#4274B9;stroke-width:3.793;stroke-miterlimit:10;}
	.st15{fill:#FDFEFF;}
</style>
<polygon class="st0" points="-611.76,8.11 -629,22.93 -582.15,88.28 -565.02,76.61 -569.05,66.11 "/>
<path class="st1" d="M-617.18-73.64c0,37.83-30.67,68.5-68.51,68.5c-37.83,0-68.51-30.67-68.51-68.5
	c0-37.83,30.67-68.51,68.51-68.51C-647.85-142.15-617.18-111.47-617.18-73.64"/>
<path class="st2" d="M-637.58-21.18L-658.73-5.6l25.82,35.03l21.15-15.59L-637.58-21.18z M-647.84-3.95l8.62-6.35l16.58,22.5
	l-8.62,6.35L-647.84-3.95z"/>
<path class="st3" d="M-563.26,67.02l-47.32-64.22l-33.21,24.48l47.32,64.21c3.67,4.99,10.7,6.06,15.69,2.38l15.14-11.16
	C-560.65,79.03-559.58,72.01-563.26,67.02 M-570.64,76.74l-14.37,10.59c-1.74,1.28-4.2,0.91-5.48-0.83l-42.42-57.55l20.68-15.24
	l42.43,57.55C-568.53,72.99-568.9,75.45-570.64,76.74"/>
<path class="st2" d="M-711.94-89.37c1.78,0,3.33,1.2,3.79,2.92l5.48,20.7c1.34,5.19,2.52,10.06,3.46,14.85h0.23
	c1.04-4.69,2.58-9.74,4.17-14.78l6.73-20.96c0.52-1.62,2.03-2.72,3.73-2.72h1.38c1.72,0,3.23,1.12,3.74,2.75l6.38,20.52
	c1.66,5.52,3.03,10.45,4.11,15.19h0.22c0.85-4.71,2.1-9.62,3.61-15.12l5.84-20.5c0.48-1.68,2.02-2.85,3.77-2.85
	c2.66,0,4.55,2.59,3.73,5.12l-12.5,38.7c-0.52,1.62-2.03,2.71-3.73,2.71h-1.97c-1.71,0-3.22-1.1-3.73-2.73l-6.2-19.48
	c-1.68-5.22-3-9.87-4.13-15.34h-0.19c-1.18,5.62-2.62,10.44-4.26,15.42l-6.58,19.47c-0.54,1.59-2.03,2.66-3.71,2.66h-2.02
	c-1.73,0-3.25-1.13-3.75-2.79l-11.67-38.7c-0.76-2.52,1.12-5.05,3.75-5.05H-711.94z"/>
<path class="st2" d="M-639.96-89.37c1.78,0,3.33,1.2,3.79,2.92l5.48,20.7c1.34,5.19,2.52,10.06,3.46,14.85h0.23
	c1.04-4.69,2.58-9.74,4.17-14.78l6.73-20.96c0.52-1.62,2.03-2.72,3.73-2.72h1.38c1.72,0,3.23,1.12,3.74,2.75l6.38,20.52
	c1.66,5.52,3.03,10.45,4.11,15.19h0.22c0.85-4.71,2.1-9.62,3.61-15.12l5.84-20.5c0.48-1.68,2.02-2.85,3.77-2.85
	c2.66,0,4.55,2.59,3.73,5.12l-12.5,38.7c-0.52,1.62-2.03,2.71-3.73,2.71h-1.97c-1.71,0-3.22-1.1-3.73-2.73l-6.2-19.48
	c-1.68-5.22-3-9.87-4.13-15.34h-0.19c-1.18,5.62-2.62,10.44-4.26,15.42l-6.58,19.47c-0.54,1.59-2.03,2.66-3.71,2.66h-2.02
	c-1.73,0-3.25-1.13-3.75-2.79l-11.67-38.7c-0.76-2.52,1.13-5.05,3.75-5.05H-639.96z"/>
<path class="st2" d="M-567.99-89.37c1.78,0,3.33,1.2,3.79,2.92l5.48,20.7c1.34,5.19,2.52,10.06,3.46,14.85h0.23
	c1.04-4.69,2.58-9.74,4.17-14.78l6.73-20.96c0.52-1.62,2.03-2.72,3.73-2.72h1.38c1.72,0,3.23,1.12,3.74,2.75l6.38,20.52
	c1.66,5.52,3.03,10.45,4.11,15.19h0.23c0.85-4.71,2.1-9.62,3.61-15.12l5.84-20.5c0.48-1.68,2.02-2.85,3.77-2.85
	c2.66,0,4.55,2.59,3.73,5.12l-12.5,38.7c-0.52,1.62-2.03,2.71-3.73,2.71h-1.97c-1.71,0-3.22-1.1-3.73-2.73l-6.2-19.48
	c-1.68-5.22-3-9.87-4.13-15.34h-0.19c-1.18,5.62-2.62,10.44-4.26,15.42l-6.58,19.47c-0.54,1.59-2.03,2.66-3.71,2.66h-2.02
	c-1.73,0-3.25-1.13-3.75-2.79l-11.67-38.7c-0.76-2.52,1.13-5.05,3.75-5.05H-567.99z"/>
<path class="st2" d="M-625.17-26.12c1.68-2.48,0.18-6.01-2.82-6.24c-1.39-0.11-2.74,0.53-3.52,1.68c-1.39,2.06-2.9,4.04-4.5,5.95
	l5.53,5.53C-628.58-21.42-626.8-23.72-625.17-26.12"/>
<path class="st2" d="M-636.01-24.74c-3.54,4.21-7.58,8.04-12.12,11.39c-15.07,11.11-33.56,15.68-52.06,12.88
	c-19.3-2.92-36.21-13.5-47.32-29.69c-9.65-14.05-13.83-31.26-11.73-48.17c2.4-19.29,12.39-36.34,27.97-47.83
	c2.06-1.52,4.2-2.93,6.41-4.21c2.2-1.28,4.46-2.44,6.78-3.47c2.3-1.02,4.66-1.93,7.06-2.69c2.4-0.77,4.83-1.4,7.3-1.9
	c2.47-0.5,4.97-0.87,7.47-1.1c1.24-0.11,2.48-0.19,3.72-0.24c2.07-0.07,3.73-1.74,3.73-3.81v-0.16c0-2.15-1.77-3.89-3.91-3.81
	c-15.48,0.57-30.43,5.75-43.17,15.14c-16.74,12.34-27.67,30.46-30.79,51.02c-3.19,21.07,2.22,42.12,15.23,59.07
	c12.59,16.42,31.34,27.17,51.86,29.81c3.36,0.43,6.71,0.65,10.05,0.65c16.49,0,32.5-5.23,46.03-15.2
	c4.85-3.58,9.21-7.65,13.03-12.12L-636.01-24.74z"/>
<path class="st2" d="M-628.81-112.22L-628.81-112.22c-1.94,1.09-2.58,3.57-1.39,5.46c1.09,1.74,2.1,3.52,3.03,5.34
	c0.63,1.24,1.89,2.03,3.27,2.09c3,0.14,4.92-3.22,3.54-5.88c-1-1.94-2.09-3.85-3.26-5.71
	C-624.72-112.68-627.01-113.23-628.81-112.22"/>
<path class="st2" d="M-666.64-144.13c-2.48-0.76-5,1.09-5.03,3.68c-0.02,1.78,1.24,3.3,2.94,3.83c11.19,3.48,21.26,9.68,29.41,18.14
	c1.43,1.49,3.76,1.63,5.33,0.3c1.73-1.46,1.85-4.07,0.29-5.69C-642.83-133.34-654.1-140.27-666.64-144.13"/>
<path class="st4" d="M12.91-193.08c0,64.59-52.36,116.96-116.96,116.96c-64.59,0-116.96-52.36-116.96-116.96
	c0-64.59,52.36-116.96,116.96-116.96C-39.46-310.04,12.91-257.68,12.91-193.08"/>
<path class="st2" d="M-34.15-45.86h-0.18c-3.35-0.08-6.3-2.25-7.36-5.44l-33.6-100.78c-0.95-2.86-0.21-6.01,1.92-8.15
	c2.13-2.14,5.28-2.88,8.15-1.92l100.78,33.6c3.18,1.06,5.36,4.01,5.44,7.36c0.07,3.35-1.96,6.41-5.1,7.61l-45.23,17.4l-17.4,45.23
	C-27.91-47.88-30.87-45.86-34.15-45.86"/>
<path class="st2" d="M3.39-229.89c-1.85,0-3.61-1.09-4.38-2.9c-2.06-4.85-4.46-9.61-7.14-14.16c-1.34-2.26-0.58-5.18,1.68-6.51
	c2.26-1.34,5.18-0.58,6.51,1.68c2.89,4.9,5.49,10.04,7.71,15.27c1.03,2.42-0.1,5.21-2.52,6.24C4.64-230.01,4.01-229.89,3.39-229.89"
	/>
<path class="st2" d="M-112.48-210.6c-11.33,0-22.57-1.45-33.42-4.32c-2.54-0.67-4.06-3.27-3.38-5.81c0.67-2.54,3.28-4.05,5.81-3.38
	c10.06,2.65,20.48,4,30.99,4c2.63,0,4.76,2.13,4.76,4.76C-107.73-212.73-109.86-210.6-112.48-210.6"/>
<path class="st2" d="M-94.23-211.91c-2.32,0-4.36-1.7-4.7-4.07c-0.38-2.6,1.42-5.01,4.02-5.39c16.75-2.44,32.52-8.25,46.87-17.29
	c2.22-1.4,5.16-0.73,6.56,1.49c1.4,2.22,0.73,5.16-1.49,6.56c-15.48,9.75-32.49,16.03-50.57,18.66
	C-93.77-211.93-94-211.91-94.23-211.91"/>
<path class="st2" d="M-92.6-212.16c-2.3,0-4.32-1.67-4.69-4.01c-0.41-2.59,1.36-5.03,3.95-5.44c23.12-3.67,44.57-13.96,62.03-29.74
	c1.95-1.76,4.95-1.61,6.72,0.34c1.76,1.95,1.61,4.95-0.34,6.72c-18.82,17.02-41.96,28.12-66.91,32.08
	C-92.1-212.18-92.35-212.16-92.6-212.16"/>
<path class="st2" d="M-145.79-215.05c-0.42,0-0.84-0.06-1.26-0.17c-26.66-7.3-50.82-23.35-68.03-45.18l-2.32-2.94l2.32-2.95
	c24.95-31.65,62.35-49.8,102.6-49.8c29.94,0,58.1,9.86,81.44,28.51c2.05,1.64,2.39,4.63,0.75,6.68c-1.64,2.05-4.63,2.39-6.68,0.75
	c-21.64-17.29-47.75-26.43-75.5-26.43c-36.06,0-69.64,15.71-92.73,43.23c15.77,18.75,37.18,32.51,60.68,38.95
	c2.53,0.69,4.02,3.31,3.33,5.84C-141.79-216.44-143.7-215.05-145.79-215.05"/>
<path class="st2" d="M-83.09-127.47c-0.5-0.12-0.99-0.24-1.49-0.36C-84.08-127.71-83.59-127.59-83.09-127.47"/>
<path class="st2" d="M-138.01-138.07c0.55-0.11,1.11-0.21,1.67-0.31C-136.9-138.28-137.46-138.18-138.01-138.07"/>
<path class="st2" d="M-141.12-137.42c0.55-0.12,1.09-0.24,1.64-0.35C-140.03-137.66-140.58-137.54-141.12-137.42"/>
<path class="st2" d="M-131.74-139.15c0.57-0.08,1.14-0.16,1.72-0.24C-130.59-139.31-131.17-139.23-131.74-139.15"/>
<path class="st2" d="M-134.89-138.65c0.56-0.1,1.13-0.19,1.7-0.27C-133.76-138.84-134.32-138.75-134.89-138.65"/>
<path class="st2" d="M-85.95-128.14c-0.5-0.11-1-0.22-1.51-0.32C-86.95-128.36-86.45-128.25-85.95-128.14"/>
<path class="st2" d="M-153.32-134.07c0.52-0.17,1.05-0.34,1.58-0.51C-152.27-134.41-152.8-134.24-153.32-134.07"/>
<path class="st2" d="M-128.57-139.58c0.58-0.07,1.17-0.13,1.76-0.2C-127.4-139.71-127.98-139.65-128.57-139.58"/>
<path class="st2" d="M-91.73-129.28c-0.52-0.09-1.04-0.17-1.56-0.25C-92.76-129.45-92.24-129.37-91.73-129.28"/>
<path class="st2" d="M-156.31-133.05c0.52-0.18,1.04-0.37,1.56-0.55C-155.27-133.42-155.79-133.24-156.31-133.05"/>
<path class="st2" d="M-88.83-128.74c-0.51-0.1-1.02-0.2-1.53-0.29C-89.85-128.94-89.34-128.84-88.83-128.74"/>
<path class="st2" d="M-147.27-135.89c0.54-0.15,1.07-0.29,1.61-0.43C-146.2-136.18-146.74-136.04-147.27-135.89"/>
<path class="st2" d="M-144.21-136.69c0.54-0.13,1.08-0.26,1.62-0.39C-143.13-136.96-143.67-136.83-144.21-136.69"/>
<path class="st2" d="M-150.31-135.02c0.53-0.16,1.06-0.32,1.59-0.47C-149.25-135.34-149.78-135.18-150.31-135.02"/>
<path class="st2" d="M-159.28-131.96c0.52-0.2,1.04-0.4,1.56-0.59C-158.24-132.35-158.76-132.15-159.28-131.96"/>
<path class="st2" d="M-94.95-139.39c0.57,0.08,1.15,0.15,1.72,0.24C-93.8-139.23-94.37-139.31-94.95-139.39"/>
<path class="st2" d="M-104.71-140.32c0.64,0.04,1.28,0.07,1.92,0.12C-103.42-140.24-104.07-140.28-104.71-140.32"/>
<path class="st2" d="M-101.4-140.08c0.61,0.05,1.21,0.1,1.82,0.16C-100.19-139.98-100.79-140.03-101.4-140.08"/>
<path class="st2" d="M-125.38-139.93c0.61-0.06,1.21-0.11,1.82-0.16C-124.17-140.03-124.78-139.98-125.38-139.93"/>
<path class="st2" d="M-85.49-137.77c0.55,0.11,1.1,0.23,1.64,0.35C-84.39-137.54-84.94-137.66-85.49-137.77"/>
<path class="st2" d="M-91.77-138.92c0.57,0.09,1.13,0.18,1.7,0.28C-90.64-138.75-91.21-138.84-91.77-138.92"/>
<path class="st2" d="M-88.62-138.39c0.56,0.1,1.11,0.21,1.67,0.31C-87.51-138.18-88.06-138.29-88.62-138.39"/>
<path class="st2" d="M-98.16-139.77c0.59,0.06,1.17,0.13,1.76,0.2C-96.98-139.65-97.57-139.71-98.16-139.77"/>
<path class="st2" d="M-122.18-140.2c0.64-0.05,1.28-0.08,1.92-0.12C-120.9-140.28-121.54-140.24-122.18-140.2"/>
<path class="st2" d="M-118.96-140.39c0.72-0.03,1.44-0.06,2.16-0.08C-117.53-140.45-118.25-140.43-118.96-140.39"/>
<path class="st2" d="M-112.48-140.55c1.09,0,2.17,0.01,3.25,0.04C-110.32-140.54-111.4-140.55-112.48-140.55"/>
<path class="st2" d="M-108.16-140.47c0.72,0.02,1.44,0.05,2.16,0.08C-106.72-140.43-107.44-140.45-108.16-140.47"/>
<path class="st2" d="M-115.73-140.51c1.08-0.03,2.16-0.04,3.25-0.04C-113.57-140.55-114.65-140.54-115.73-140.51"/>
<path class="st2" d="M-162.52-120.29c-0.48,0.22-0.95,0.44-1.42,0.66C-163.47-119.85-163-120.08-162.52-120.29"/>
<path class="st2" d="M-131.68-129.53c-0.52,0.08-1.04,0.16-1.56,0.25C-132.72-129.37-132.2-129.45-131.68-129.53"/>
<path class="st2" d="M-146.07-126.35c-0.48,0.14-0.97,0.28-1.45,0.43C-147.04-126.07-146.56-126.21-146.07-126.35"/>
<path class="st2" d="M-151.66-124.6c-0.48,0.16-0.95,0.33-1.43,0.5C-152.61-124.27-152.14-124.43-151.66-124.6"/>
<path class="st2" d="M-165.16-119.05c-0.5,0.24-0.99,0.49-1.48,0.74C-166.15-118.56-165.66-118.81-165.16-119.05"/>
<path class="st2" d="M-116.5-130.97c-0.66,0.02-1.33,0.04-1.99,0.07C-117.83-130.93-117.16-130.94-116.5-130.97"/>
<path class="st2" d="M-143.24-127.12c-0.49,0.13-0.98,0.26-1.47,0.39C-144.22-126.86-143.73-126.99-143.24-127.12"/>
<path class="st2" d="M-119.69-130.82c-0.59,0.03-1.18,0.07-1.78,0.11C-120.88-130.75-120.29-130.79-119.69-130.82"/>
<path class="st2" d="M-125.76-130.32c-0.54,0.06-1.09,0.12-1.63,0.18C-126.85-130.2-126.3-130.26-125.76-130.32"/>
<path class="st2" d="M-128.73-129.96c-0.53,0.07-1.06,0.14-1.59,0.22C-129.79-129.82-129.26-129.89-128.73-129.96"/>
<path class="st2" d="M-154.41-123.62c-0.47,0.18-0.94,0.36-1.42,0.54C-155.36-123.27-154.89-123.45-154.41-123.62"/>
<path class="st2" d="M-112.48-131.04c-1.01,0-2.01,0.01-3.01,0.04C-114.49-131.03-113.49-131.04-112.48-131.04"/>
<path class="st2" d="M-122.76-130.61c-0.56,0.05-1.12,0.09-1.68,0.15C-123.88-130.51-123.32-130.56-122.76-130.61"/>
<path class="st2" d="M-148.88-125.51c-0.48,0.15-0.96,0.31-1.44,0.46C-149.84-125.2-149.36-125.36-148.88-125.51"/>
<path class="st2" d="M-157.14-122.58c-0.47,0.19-0.94,0.38-1.41,0.57C-158.08-122.2-157.62-122.39-157.14-122.58"/>
<path class="st2" d="M-159.84-121.47c-0.47,0.2-0.94,0.41-1.41,0.62C-160.79-121.06-160.32-121.27-159.84-121.47"/>
<path class="st2" d="M-140.38-127.83c-0.5,0.12-0.99,0.24-1.49,0.36C-141.38-127.59-140.88-127.71-140.38-127.83"/>
<path class="st2" d="M-168.06-128.21c0.53-0.25,1.06-0.5,1.59-0.74C-167-128.71-167.53-128.46-168.06-128.21"/>
<path class="st2" d="M-170.99-126.79c0.56-0.28,1.11-0.56,1.67-0.83C-169.88-127.35-170.43-127.06-170.99-126.79"/>
<path class="st2" d="M-100.53-130.46c-0.56-0.05-1.12-0.1-1.68-0.15C-101.65-130.56-101.09-130.51-100.53-130.46"/>
<path class="st2" d="M-97.58-130.14c-0.54-0.07-1.09-0.12-1.63-0.18C-98.66-130.26-98.12-130.2-97.58-130.14"/>
<path class="st2" d="M-165.15-129.54c0.52-0.23,1.04-0.46,1.56-0.68C-164.11-130-164.63-129.77-165.15-129.54"/>
<path class="st2" d="M-162.22-130.79c0.52-0.21,1.03-0.43,1.55-0.63C-161.19-131.21-161.71-131-162.22-130.79"/>
<path class="st2" d="M-137.51-128.47c-0.5,0.11-1.01,0.21-1.51,0.32C-138.51-128.25-138.01-128.36-137.51-128.47"/>
<path class="st2" d="M-103.5-130.71c-0.59-0.04-1.18-0.08-1.78-0.11C-104.68-130.79-104.09-130.75-103.5-130.71"/>
<path class="st2" d="M-106.48-130.89c-0.66-0.03-1.32-0.05-1.99-0.07C-107.8-130.94-107.14-130.92-106.48-130.89"/>
<path class="st2" d="M-94.64-129.74c-0.53-0.08-1.06-0.15-1.59-0.22C-95.7-129.89-95.17-129.82-94.64-129.74"/>
<path class="st2" d="M-82.38-137.09c0.54,0.13,1.08,0.26,1.62,0.39C-81.3-136.83-81.84-136.96-82.38-137.09"/>
<path class="st2" d="M-168.19-117.53c0.14-0.07,0.27-0.15,0.41-0.22C-167.92-117.68-168.05-117.6-168.19-117.53L-168.19-117.53z"/>
<path class="st2" d="M-109.47-131c-1-0.03-2-0.04-3.01-0.04C-111.48-131.04-110.48-131.03-109.47-131"/>
<path class="st2" d="M-134.61-129.03c-0.51,0.09-1.02,0.19-1.53,0.29C-135.63-128.84-135.12-128.94-134.61-129.03"/>
<path class="st2" d="M-201.85-105.16c-0.21,0.2-0.43,0.4-0.64,0.6c-20.06-22.27-31.06-50.83-31.06-80.95
	c0-25.48,7.72-49.61,22.38-70.15c7.82,9,16.86,16.87,26.75,23.42c0.74-3.33,1.56-6.61,2.47-9.82c-9.64-6.77-18.33-14.91-25.67-24.22
	l-3.74-4.74l-3.74,4.74c-18.3,23.22-27.98,51.15-27.98,80.77c0,32.67,12,63.63,33.86,87.71l3.17-3.25
	C-204.66-102.47-203.26-103.83-201.85-105.16"/>
<path class="st2" d="M-189.5-115.45c-0.46,0.34-0.93,0.68-1.39,1.03C-190.43-114.76-189.96-115.1-189.5-115.45"/>
<path class="st2" d="M-199.47-107.35c-0.43,0.39-0.86,0.78-1.29,1.17C-200.33-106.57-199.9-106.96-199.47-107.35"/>
<path class="st2" d="M-206.03-94.43l3.41,3.5l0.07-0.07C-203.72-92.12-204.89-93.26-206.03-94.43"/>
<path class="st2" d="M-186.89-117.31c-0.48,0.33-0.96,0.66-1.43,1C-187.85-116.65-187.37-116.98-186.89-117.31"/>
<path class="st2" d="M-192.06-113.52c-0.45,0.35-0.91,0.7-1.36,1.06C-192.97-112.81-192.51-113.17-192.06-113.52"/>
<path class="st2" d="M-197.04-109.47c-0.44,0.37-0.87,0.75-1.31,1.13C-197.92-108.72-197.48-109.09-197.04-109.47"/>
<path class="st2" d="M18.09-185.52c0-10.41-1.23-20.77-3.65-30.8c-0.58-2.4-2.89-4.11-5.34-3.74c-2.81,0.41-4.6,3.13-3.94,5.83
	c2.27,9.34,3.42,19,3.42,28.71c0,11.16-1.51,22.1-4.43,32.58c-0.68,2.45,0.65,5.01,3.07,5.81c2.57,0.86,5.36-0.6,6.09-3.21
	C16.46-161.66,18.09-173.47,18.09-185.52"/>
<path class="st2" d="M-194.57-111.52c-0.44,0.36-0.89,0.72-1.33,1.09C-195.46-110.8-195.02-111.16-194.57-111.52"/>
<path class="st2" d="M-194.27-99.22c0.38-0.35,0.77-0.7,1.16-1.05C-193.5-99.92-193.89-99.57-194.27-99.22"/>
<path class="st2" d="M-184.23-119.12c-0.5,0.33-0.99,0.65-1.48,0.99C-185.22-118.47-184.73-118.79-184.23-119.12"/>
<path class="st2" d="M-192.05-101.22c0.39-0.34,0.78-0.68,1.18-1.01C-191.26-101.9-191.66-101.56-192.05-101.22"/>
<path class="st2" d="M-79.13-136.28c-0.06-0.01-0.11-0.03-0.17-0.04C-79.25-136.31-79.19-136.29-79.13-136.28L-79.13-136.28z"/>
<path class="st2" d="M-187.47-105.03c0.4-0.32,0.81-0.63,1.22-0.95C-186.66-105.66-187.07-105.35-187.47-105.03"/>
<path class="st2" d="M-180.38-121.57c0.19-0.12,0.39-0.23,0.58-0.35c0,0,0,0,0,0C-180-121.81-180.19-121.69-180.38-121.57"/>
<path class="st2" d="M-185.13-106.84c0.41-0.31,0.83-0.61,1.24-0.92C-184.3-107.46-184.72-107.15-185.13-106.84"/>
<path class="st2" d="M-182.75-108.59c0.42-0.3,0.84-0.59,1.26-0.89C-181.91-109.19-182.33-108.89-182.75-108.59"/>
<path class="st2" d="M-140.09-218.3c0.67-2.54-0.84-5.14-3.38-5.81c-10.56-2.79-20.69-7.06-30.09-12.58
	c-0.83,3.16-1.6,6.38-2.27,9.66c9.43,5.25,19.49,9.36,29.94,12.12C-143.36-214.24-140.76-215.76-140.09-218.3"/>
<path class="st2" d="M-189.78-103.15c0.4-0.33,0.8-0.66,1.2-0.98C-188.98-103.81-189.38-103.48-189.78-103.15"/>
<path class="st2" d="M-181.5-120.87c-0.52,0.33-1.04,0.65-1.56,0.98C-182.55-120.22-182.03-120.55-181.5-120.87"/>
<path class="st2" d="M-180.33-110.28c0.43-0.29,0.86-0.58,1.29-0.86C-179.47-110.86-179.9-110.57-180.33-110.28"/>
<path class="st2" d="M-177.88-111.91c0.44-0.29,0.89-0.56,1.33-0.84C-176.99-112.47-177.44-112.19-177.88-111.91"/>
<path class="st2" d="M-195.86-97.75C-195.85-97.74-195.85-97.74-195.86-97.75c0.18-0.16,0.36-0.33,0.54-0.5
	C-195.5-98.08-195.68-97.92-195.86-97.75"/>
<path class="st2" d="M-30.39-111.52c0.44,0.36,0.89,0.72,1.33,1.09C-29.5-110.8-29.95-111.16-30.39-111.52"/>
<path class="st2" d="M-64.3-131.42c0.52,0.21,1.04,0.42,1.55,0.63C-63.26-131-63.78-131.21-64.3-131.42"/>
<path class="st2" d="M-48.42-112.75c0.45,0.28,0.89,0.56,1.33,0.84C-47.52-112.19-47.97-112.47-48.42-112.75"/>
<path class="st2" d="M-40.74-119.12c0.5,0.33,0.99,0.65,1.48,0.99C-39.74-118.47-40.24-118.79-40.74-119.12"/>
<path class="st2" d="M-45.92-111.14c0.43,0.28,0.86,0.57,1.29,0.86C-45.06-110.57-45.49-110.86-45.92-111.14"/>
<path class="st2" d="M-22.41-91l0.07,0.07l3.41-3.5C-20.08-93.26-21.24-92.12-22.41-91"/>
<path class="st2" d="M-38.08-117.31c0.48,0.33,0.96,0.66,1.43,1C-37.12-116.65-37.6-116.98-38.08-117.31"/>
<path class="st2" d="M-29.65-98.25c0.18,0.17,0.35,0.34,0.53,0.51c0,0,0,0,0.01-0.01C-29.29-97.92-29.47-98.08-29.65-98.25"/>
<path class="st2" d="M-67.24-132.55c0.52,0.19,1.04,0.39,1.56,0.59C-66.2-132.15-66.72-132.35-67.24-132.55"/>
<path class="st2" d="M-25.5-107.35c0.43,0.39,0.86,0.78,1.29,1.17C-24.64-106.57-25.07-106.96-25.5-107.35"/>
<path class="st2" d="M-34.1-102.23c0.39,0.34,0.79,0.67,1.18,1.02C-33.31-101.56-33.7-101.9-34.1-102.23"/>
<path class="st2" d="M-44.58-121.57c-0.19-0.12-0.39-0.23-0.58-0.35l0,0C-44.97-121.8-44.77-121.69-44.58-121.57"/>
<path class="st2" d="M-61.38-130.22c0.52,0.22,1.04,0.45,1.56,0.68C-60.34-129.77-60.86-130-61.38-130.22"/>
<path class="st2" d="M-58.5-128.95c0.53,0.24,1.06,0.49,1.59,0.74C-57.43-128.46-57.96-128.71-58.5-128.95"/>
<path class="st2" d="M-32.9-113.52c0.45,0.35,0.91,0.7,1.36,1.06C-32-112.81-32.45-113.17-32.9-113.52"/>
<path class="st2" d="M-56.78-117.53L-56.78-117.53c-0.14-0.07-0.27-0.15-0.41-0.22C-57.05-117.68-56.91-117.6-56.78-117.53"/>
<path class="st2" d="M-43.48-109.48c0.42,0.29,0.84,0.59,1.26,0.89C-42.63-108.89-43.06-109.19-43.48-109.48"/>
<path class="st2" d="M-31.85-100.27c0.39,0.35,0.77,0.7,1.16,1.05C-31.08-99.57-31.46-99.92-31.85-100.27"/>
<path class="st2" d="M-36.38-104.14c0.4,0.32,0.8,0.65,1.2,0.98C-35.58-103.48-35.98-103.81-36.38-104.14"/>
<path class="st2" d="M-55.64-127.62c0.56,0.27,1.11,0.55,1.67,0.83C-54.53-127.06-55.08-127.35-55.64-127.62"/>
<path class="st2" d="M-38.71-105.98c0.41,0.31,0.81,0.63,1.22,0.95C-37.89-105.35-38.3-105.66-38.71-105.98"/>
<path class="st2" d="M-61.03-119.63c-0.47-0.22-0.94-0.45-1.42-0.66C-61.97-120.08-61.5-119.85-61.03-119.63"/>
<path class="st2" d="M-41.07-107.76c0.42,0.31,0.83,0.61,1.24,0.92C-40.25-107.15-40.66-107.45-41.07-107.76"/>
<path class="st2" d="M-27.92-109.47c0.44,0.37,0.87,0.75,1.31,1.13C-27.05-108.72-27.48-109.09-27.92-109.47"/>
<path class="st2" d="M-63.71-120.85c-0.47-0.21-0.94-0.42-1.41-0.62C-64.65-121.27-64.18-121.06-63.71-120.85"/>
<path class="st2" d="M-43.46-120.87c0.52,0.33,1.04,0.65,1.56,0.98C-42.42-120.22-42.94-120.55-43.46-120.87"/>
<path class="st2" d="M-35.47-115.45c0.46,0.34,0.93,0.68,1.39,1.03C-34.54-114.76-35-115.1-35.47-115.45"/>
<path class="st2" d="M-58.32-118.32c-0.49-0.25-0.99-0.5-1.48-0.74C-59.3-118.81-58.81-118.56-58.32-118.32"/>
<path class="st2" d="M-121.47-130.71c-0.43,0.03-0.86,0.07-1.29,0.11C-122.33-130.64-121.9-130.68-121.47-130.71"/>
<path class="st2" d="M-118.49-130.89c-0.4,0.02-0.8,0.05-1.21,0.07C-119.29-130.85-118.89-130.87-118.49-130.89"/>
<path class="st2" d="M-186.26-105.98c0.37-0.29,0.75-0.58,1.13-0.86C-185.51-106.56-185.88-106.27-186.26-105.98"/>
<path class="st2" d="M-130.32-129.74c-0.45,0.07-0.91,0.14-1.36,0.21C-131.23-129.6-130.78-129.68-130.32-129.74"/>
<path class="st2" d="M-133.24-129.28c-0.46,0.08-0.91,0.16-1.37,0.25C-134.15-129.12-133.7-129.2-133.24-129.28"/>
<path class="st2" d="M-195.32-98.25c0.35-0.33,0.7-0.65,1.05-0.97C-194.62-98.9-194.97-98.57-195.32-98.25"/>
<path class="st2" d="M-115.49-131c-0.34,0.01-0.67,0.02-1.01,0.04C-116.17-130.98-115.83-130.99-115.49-131"/>
<path class="st2" d="M-209.26-97.75l3.23,3.32c-1.08-1.11-2.13-2.24-3.17-3.38L-209.26-97.75z"/>
<path class="st2" d="M-124.44-130.46c-0.44,0.04-0.88,0.09-1.32,0.14C-125.32-130.37-124.88-130.42-124.44-130.46"/>
<path class="st2" d="M-190.87-102.23c0.36-0.31,0.73-0.62,1.09-0.92C-190.14-102.85-190.51-102.54-190.87-102.23"/>
<path class="st2" d="M-188.58-104.14c0.37-0.3,0.74-0.6,1.11-0.89C-187.85-104.73-188.22-104.43-188.58-104.14"/>
<path class="st2" d="M-127.39-130.14c-0.45,0.05-0.9,0.12-1.34,0.18C-128.29-130.02-127.84-130.08-127.39-130.14"/>
<path class="st2" d="M-193.11-100.27c0.35-0.32,0.71-0.63,1.07-0.95C-192.4-100.9-192.76-100.59-193.11-100.27"/>
<path class="st2" d="M-193.42-112.46c-0.39,0.31-0.77,0.62-1.16,0.93C-194.19-111.84-193.81-112.15-193.42-112.46"/>
<path class="st2" d="M-84.58-127.83c-0.46-0.11-0.91-0.21-1.37-0.31C-85.49-128.04-85.04-127.93-84.58-127.83"/>
<path class="st2" d="M-190.89-114.42c-0.39,0.3-0.78,0.6-1.17,0.9C-191.67-113.82-191.28-114.12-190.89-114.42"/>
<path class="st2" d="M-90.36-129.03c-0.45-0.08-0.91-0.17-1.37-0.25C-91.27-129.2-90.81-129.12-90.36-129.03"/>
<path class="st2" d="M-185.71-118.13c-0.39,0.27-0.79,0.54-1.18,0.82C-186.5-117.59-186.11-117.86-185.71-118.13"/>
<path class="st2" d="M-87.46-128.47c-0.46-0.09-0.92-0.19-1.37-0.28C-88.37-128.66-87.91-128.56-87.46-128.47"/>
<path class="st2" d="M-188.32-116.31c-0.39,0.28-0.79,0.57-1.18,0.86C-189.11-115.73-188.72-116.02-188.32-116.31"/>
<path class="st2" d="M-200.75-106.18c-0.37,0.34-0.73,0.68-1.09,1.02C-201.49-105.5-201.12-105.84-200.75-106.18"/>
<path class="st2" d="M-198.35-108.34c-0.37,0.33-0.75,0.66-1.12,0.99C-199.1-107.68-198.73-108.01-198.35-108.34"/>
<path class="st2" d="M-195.9-110.43c-0.38,0.32-0.76,0.64-1.14,0.97C-196.67-109.79-196.29-110.11-195.9-110.43"/>
<path class="st2" d="M-96.23-129.96c-0.45-0.06-0.9-0.12-1.34-0.18C-97.13-130.08-96.68-130.02-96.23-129.96"/>
<path class="st2" d="M-102.21-130.61c-0.43-0.03-0.86-0.08-1.29-0.11C-103.07-130.68-102.64-130.64-102.21-130.61"/>
<path class="st2" d="M-179.04-111.14c0.39-0.26,0.77-0.51,1.16-0.76C-178.27-111.66-178.65-111.4-179.04-111.14"/>
<path class="st2" d="M-105.27-130.82c-0.4-0.02-0.8-0.05-1.21-0.07C-106.08-130.87-105.67-130.85-105.27-130.82"/>
<path class="st2" d="M-181.49-109.48c0.38-0.27,0.77-0.54,1.15-0.8C-180.72-110.02-181.1-109.75-181.49-109.48"/>
<path class="st2" d="M-108.46-130.97c-0.34-0.01-0.67-0.03-1.01-0.03C-109.14-130.99-108.8-130.98-108.46-130.97"/>
<path class="st2" d="M-99.21-130.32c-0.44-0.05-0.88-0.1-1.32-0.14C-100.09-130.42-99.65-130.37-99.21-130.32"/>
<path class="st2" d="M-183.07-119.89c-0.39,0.25-0.78,0.51-1.16,0.77C-183.84-119.37-183.46-119.63-183.07-119.89"/>
<path class="st2" d="M-136.14-128.74c-0.46,0.09-0.92,0.18-1.37,0.28C-137.05-128.56-136.59-128.66-136.14-128.74"/>
<path class="st2" d="M-183.89-107.76c0.38-0.28,0.76-0.56,1.14-0.83C-183.13-108.32-183.51-108.04-183.89-107.76"/>
<path class="st2" d="M-93.28-129.53c-0.45-0.07-0.9-0.14-1.36-0.21C-94.19-129.68-93.74-129.6-93.28-129.53"/>
<path class="st2" d="M-180.38-121.57c-0.38,0.23-0.75,0.47-1.12,0.7C-181.13-121.11-180.76-121.34-180.38-121.57"/>
<path class="st2" d="M-120.26-140.32c0.43-0.03,0.86-0.06,1.29-0.08C-119.4-140.37-119.83-140.34-120.26-140.32"/>
<path class="st2" d="M-136.35-138.39c0.49-0.09,0.97-0.18,1.46-0.26C-135.38-138.57-135.86-138.48-136.35-138.39"/>
<path class="st2" d="M-133.19-138.92c0.48-0.08,0.97-0.15,1.46-0.23C-132.22-139.08-132.71-139-133.19-138.92"/>
<path class="st2" d="M-160.67-131.42c0.46-0.18,0.93-0.36,1.39-0.54C-159.74-131.78-160.21-131.6-160.67-131.42"/>
<path class="st2" d="M-123.56-140.08c0.46-0.04,0.92-0.08,1.38-0.11C-122.64-140.17-123.1-140.12-123.56-140.08"/>
<path class="st2" d="M-126.81-139.77c0.47-0.05,0.95-0.1,1.42-0.15C-125.86-139.88-126.33-139.82-126.81-139.77"/>
<path class="st2" d="M-130.02-139.39c0.48-0.06,0.97-0.13,1.45-0.19C-129.05-139.52-129.53-139.45-130.02-139.39"/>
<path class="st2" d="M-139.48-137.77c0.49-0.1,0.98-0.2,1.47-0.3C-138.5-137.98-138.99-137.88-139.48-137.77"/>
<path class="st2" d="M-154.75-133.6c0.47-0.16,0.95-0.32,1.43-0.47C-153.8-133.92-154.28-133.76-154.75-133.6"/>
<path class="st2" d="M-157.72-132.55c0.47-0.17,0.94-0.34,1.41-0.51C-156.79-132.88-157.25-132.72-157.72-132.55"/>
<path class="st2" d="M-145.66-136.32c0.48-0.13,0.97-0.25,1.46-0.37C-144.69-136.57-145.18-136.45-145.66-136.32"/>
<path class="st2" d="M-148.72-135.49c0.48-0.14,0.96-0.27,1.45-0.41C-147.75-135.76-148.24-135.63-148.72-135.49"/>
<path class="st2" d="M-151.75-134.58c0.48-0.15,0.96-0.3,1.44-0.44C-150.79-134.88-151.27-134.73-151.75-134.58"/>
<path class="st2" d="M-142.58-137.09c0.49-0.11,0.97-0.23,1.46-0.34C-141.61-137.31-142.1-137.2-142.58-137.09"/>
<path class="st2" d="M-90.08-138.65c0.49,0.08,0.97,0.17,1.46,0.26C-89.1-138.48-89.59-138.57-90.08-138.65"/>
<path class="st2" d="M-86.95-138.07c0.49,0.1,0.98,0.2,1.47,0.3C-85.97-137.88-86.46-137.98-86.95-138.07"/>
<path class="st2" d="M-93.23-139.15c0.49,0.07,0.97,0.15,1.45,0.23C-92.26-139-92.74-139.08-93.23-139.15"/>
<path class="st2" d="M-116.81-140.47c0.36-0.01,0.72-0.03,1.08-0.04C-116.09-140.5-116.45-140.48-116.81-140.47"/>
<path class="st2" d="M-96.4-139.58c0.48,0.06,0.97,0.13,1.45,0.19C-95.43-139.45-95.91-139.52-96.4-139.58"/>
<path class="st2" d="M-83.84-137.42c0.49,0.11,0.98,0.22,1.46,0.34C-82.87-137.2-83.35-137.31-83.84-137.42"/>
<path class="st2" d="M-99.58-139.93c0.48,0.05,0.95,0.1,1.42,0.15C-98.63-139.83-99.11-139.88-99.58-139.93"/>
<path class="st2" d="M-109.23-140.51c0.36,0.01,0.72,0.03,1.08,0.04C-108.52-140.48-108.87-140.5-109.23-140.51"/>
<path class="st2" d="M-176.52-112.77c-0.01,0.01-0.02,0.01-0.03,0.02C-176.54-112.75-176.53-112.76-176.52-112.77"/>
<path class="st2" d="M-102.78-140.2c0.46,0.03,0.92,0.08,1.38,0.11C-101.86-140.12-102.32-140.17-102.78-140.2"/>
<path class="st2" d="M-106-140.39c0.43,0.02,0.86,0.05,1.29,0.08C-105.14-140.34-105.57-140.37-106-140.39"/>
<path class="st2" d="M-155.83-123.09c-0.44,0.17-0.88,0.33-1.31,0.51C-156.71-122.75-156.27-122.92-155.83-123.09"/>
<path class="st2" d="M-76.45-69.88c-10.92,9.76-23.21,14.93-36.03,14.93c19.82,0,38.92-4.37,56.25-12.65l-3.04-9.1
	C-64.81-73.99-70.55-71.71-76.45-69.88"/>
<path class="st2" d="M-166.65-118.32c-0.38,0.19-0.76,0.37-1.13,0.57C-167.4-117.94-167.02-118.13-166.65-118.32"/>
<path class="st2" d="M-144.71-126.73c-0.45,0.13-0.91,0.25-1.36,0.38C-145.62-126.48-145.16-126.6-144.71-126.73"/>
<path class="st2" d="M-163.94-119.63c-0.41,0.19-0.82,0.38-1.23,0.58C-164.76-119.25-164.35-119.44-163.94-119.63"/>
<path class="st2" d="M-147.52-125.92c-0.45,0.14-0.91,0.27-1.36,0.42C-148.43-125.65-147.97-125.78-147.52-125.92"/>
<path class="st2" d="M-150.32-125.04c-0.45,0.15-0.9,0.29-1.34,0.45C-151.21-124.75-150.76-124.9-150.32-125.04"/>
<path class="st2" d="M-153.08-124.1c-0.44,0.16-0.89,0.31-1.33,0.48C-153.97-123.78-153.53-123.94-153.08-124.1"/>
<path class="st2" d="M-158.55-122c-0.43,0.18-0.86,0.35-1.29,0.53C-159.42-121.65-158.98-121.83-158.55-122"/>
<path class="st2" d="M-161.25-120.85c-0.42,0.19-0.85,0.37-1.26,0.56C-162.1-120.49-161.68-120.67-161.25-120.85"/>
<path class="st2" d="M-171.33-126.61L-171.33-126.61c0.11-0.06,0.23-0.11,0.35-0.17C-171.1-126.73-171.22-126.67-171.33-126.61"/>
<path class="st2" d="M-195.85-97.74c-1.14,1.08-2.26,2.18-3.36,3.31l-3.34,3.43c24.39,23.29,56.18,36.06,90.07,36.06
	c-12.83,0-25.11-5.18-36.04-14.93C-166.07-75.32-182.2-84.75-195.85-97.74"/>
<path class="st2" d="M-163.58-130.22c0.45-0.19,0.91-0.38,1.36-0.56C-162.68-130.6-163.13-130.42-163.58-130.22"/>
<path class="st2" d="M-169.32-127.62c0.42-0.2,0.84-0.4,1.26-0.59C-168.48-128.01-168.9-127.82-169.32-127.62"/>
<path class="st2" d="M-166.47-128.95c0.44-0.2,0.88-0.39,1.32-0.59C-165.59-129.35-166.03-129.15-166.47-128.95"/>
<path class="st2" d="M-139.01-128.14c-0.46,0.1-0.91,0.21-1.37,0.31C-139.93-127.94-139.47-128.04-139.01-128.14"/>
<path class="st2" d="M-141.87-127.47c-0.45,0.11-0.91,0.23-1.36,0.35C-142.78-127.24-142.33-127.36-141.87-127.47"/>
<path class="st2" d="M-39.25-118.13c0.39,0.27,0.79,0.54,1.18,0.82C-38.47-117.59-38.86-117.86-39.25-118.13"/>
<path class="st2" d="M-65.68-131.96c0.46,0.18,0.93,0.35,1.39,0.54C-64.76-131.6-65.22-131.78-65.68-131.96"/>
<path class="st2" d="M-34.08-114.42c0.39,0.3,0.78,0.6,1.17,0.9C-33.29-113.82-33.68-114.12-34.08-114.42"/>
<path class="st2" d="M-53.63-126.61L-53.63-126.61c-0.11-0.06-0.23-0.12-0.35-0.17C-53.86-126.73-53.75-126.67-53.63-126.61"/>
<path class="st2" d="M-68.65-133.05c0.47,0.17,0.94,0.33,1.41,0.51C-67.71-132.72-68.18-132.88-68.65-133.05"/>
<path class="st2" d="M-31.55-112.46c0.39,0.31,0.77,0.62,1.16,0.93C-30.78-111.84-31.16-112.15-31.55-112.46"/>
<path class="st2" d="M-57.19-117.75c-0.37-0.19-0.75-0.38-1.13-0.57C-57.94-118.13-57.56-117.94-57.19-117.75"/>
<path class="st2" d="M-59.8-119.05c-0.41-0.2-0.82-0.39-1.23-0.58C-60.62-119.44-60.21-119.25-59.8-119.05"/>
<path class="st2" d="M-62.45-120.29c-0.42-0.19-0.84-0.37-1.26-0.56C-63.29-120.67-62.87-120.49-62.45-120.29"/>
<path class="st2" d="M-62.74-130.79c0.45,0.19,0.91,0.37,1.36,0.56C-61.83-130.42-62.29-130.6-62.74-130.79"/>
<path class="st2" d="M-56.9-128.21c0.42,0.2,0.84,0.39,1.26,0.59C-56.06-127.82-56.48-128.01-56.9-128.21"/>
<path class="st2" d="M-44.58-121.57c0.38,0.23,0.75,0.47,1.12,0.7C-43.83-121.11-44.21-121.34-44.58-121.57"/>
<path class="st2" d="M-36.64-116.31c0.39,0.28,0.79,0.57,1.18,0.86C-35.86-115.73-36.25-116.02-36.64-116.31"/>
<path class="st2" d="M-35.19-103.15c0.37,0.3,0.73,0.61,1.09,0.92C-34.46-102.54-34.82-102.85-35.19-103.15"/>
<path class="st2" d="M-32.92-101.22c0.36,0.31,0.71,0.63,1.07,0.95C-32.2-100.59-32.56-100.9-32.92-101.22"/>
<path class="st2" d="M-37.49-105.03c0.37,0.3,0.74,0.59,1.11,0.89C-36.75-104.43-37.12-104.73-37.49-105.03"/>
<path class="st2" d="M-30.69-99.22c0.35,0.32,0.7,0.65,1.05,0.97C-29.99-98.57-30.34-98.9-30.69-99.22"/>
<path class="st2" d="M-48.42-112.75c-0.01-0.01-0.02-0.01-0.03-0.02C-48.44-112.76-48.43-112.75-48.42-112.75"/>
<path class="st2" d="M-39.83-106.84c0.38,0.28,0.75,0.58,1.13,0.86C-39.08-106.27-39.46-106.56-39.83-106.84"/>
<path class="st2" d="M-15.71-97.75l-0.06-0.07c-1.04,1.14-2.09,2.27-3.17,3.38L-15.71-97.75z"/>
<path class="st2" d="M-24.21-106.18c0.37,0.34,0.73,0.68,1.09,1.02C-23.48-105.5-23.84-105.84-24.21-106.18"/>
<path class="st2" d="M-26.61-108.34c0.37,0.33,0.75,0.66,1.12,0.99C-25.87-107.68-26.24-108.01-26.61-108.34"/>
<path class="st2" d="M-42.21-108.59c0.38,0.27,0.76,0.55,1.14,0.83C-41.45-108.04-41.83-108.32-42.21-108.59"/>
<path class="st2" d="M-44.63-110.28c0.39,0.26,0.77,0.53,1.15,0.8C-43.86-109.75-44.25-110.02-44.63-110.28"/>
<path class="st2" d="M-47.08-111.91c0.39,0.25,0.77,0.51,1.16,0.76C-46.31-111.4-46.69-111.66-47.08-111.91"/>
<path class="st2" d="M-195.85-97.74C-195.85-97.74-195.85-97.74-195.85-97.74c0.17-0.18,0.35-0.34,0.53-0.51
	c0.35-0.33,0.7-0.65,1.05-0.97c0.38-0.35,0.77-0.7,1.16-1.05c0.35-0.32,0.71-0.63,1.07-0.95c0.39-0.34,0.78-0.68,1.18-1.01
	c0.36-0.31,0.73-0.62,1.09-0.92c0.4-0.33,0.8-0.66,1.2-0.98c0.37-0.3,0.74-0.6,1.11-0.89c0.4-0.32,0.81-0.63,1.22-0.95
	c0.37-0.29,0.75-0.58,1.13-0.86c0.41-0.31,0.82-0.61,1.24-0.92c0.38-0.28,0.76-0.56,1.14-0.83c0.42-0.3,0.84-0.59,1.26-0.89
	c0.38-0.27,0.77-0.54,1.15-0.8c0.43-0.29,0.86-0.57,1.29-0.86c0.39-0.26,0.77-0.52,1.16-0.77c0.44-0.29,0.89-0.56,1.33-0.84
	c0.01-0.01,0.02-0.01,0.03-0.02c-1.17-2.98-2.26-6.04-3.28-9.16c-0.19,0.12-0.39,0.23-0.58,0.35c-0.38,0.23-0.75,0.47-1.12,0.7
	c-0.52,0.33-1.04,0.65-1.56,0.98c-0.39,0.25-0.78,0.51-1.16,0.77c-0.5,0.33-0.99,0.65-1.48,0.99c-0.39,0.27-0.79,0.54-1.18,0.82
	c-0.48,0.33-0.96,0.67-1.43,1.01c-0.39,0.28-0.79,0.57-1.18,0.86c-0.46,0.34-0.93,0.68-1.39,1.03c-0.39,0.3-0.78,0.6-1.17,0.9
	c-0.45,0.35-0.91,0.7-1.36,1.06c-0.39,0.31-0.77,0.62-1.16,0.93c-0.44,0.36-0.89,0.72-1.33,1.09c-0.38,0.32-0.76,0.64-1.14,0.97
	c-0.44,0.37-0.87,0.75-1.31,1.13c-0.37,0.33-0.75,0.66-1.12,0.99c-0.43,0.39-0.86,0.77-1.29,1.17c-0.37,0.34-0.73,0.68-1.09,1.02
	c-1.42,1.33-2.81,2.69-4.18,4.1l-3.17,3.25c1.04,1.14,2.09,2.27,3.17,3.38c1.14,1.17,2.3,2.31,3.47,3.43l3.34-3.43
	C-198.11-95.56-196.99-96.66-195.85-97.74"/>
<path class="st2" d="M-179.8-121.92c0.39-0.24,0.79-0.47,1.19-0.7c0.32-0.19,0.63-0.38,0.95-0.56c0.9-0.52,1.82-1.04,2.73-1.54
	c0.29-0.16,0.58-0.31,0.88-0.47c0.64-0.34,1.27-0.68,1.91-1.01c0.27-0.14,0.54-0.27,0.81-0.41c-5.61-17.82-8.6-37.94-8.6-58.91
	c0-14.39,1.4-28.39,4.1-41.51c-2.92-1.63-5.79-3.37-8.58-5.22c-3.29,14.72-5.03,30.5-5.03,46.73
	C-189.44-162.89-186.08-141.14-179.8-121.92"/>
<path class="st2" d="M-62.4-86.08l-3.87-11.61c-12.66,21.44-29.03,33.24-46.21,33.24c12.42,0,24.53-1.86,36.03-5.42
	C-71.45-74.34-66.75-79.76-62.4-86.08"/>
<path class="st2" d="M-159.41-272.12c12.75-22.22,29.42-34.46,46.93-34.46c17.51,0,34.18,12.24,46.93,34.46
	c13.23,23.05,20.52,53.81,20.52,86.6c0,5.73-0.24,11.4-0.68,16.97c-0.17,2.17,1.17,4.17,3.24,4.86c2.92,0.97,6-1.04,6.25-4.11
	c0.46-5.83,0.71-11.74,0.71-17.72c0-34.42-7.74-66.86-21.78-91.34c-14.52-25.3-34.12-39.24-55.18-39.24
	c-21.06,0-40.66,13.94-55.18,39.24c-5.92,10.32-10.71,22.07-14.28,34.78c2.72,1.91,5.52,3.7,8.38,5.38
	C-170.14-249.72-165.39-261.71-159.41-272.12"/>
<path class="st2" d="M-159.41-98.92c-3.3-5.75-6.23-11.99-8.77-18.61c-0.54,0.28-1.08,0.56-1.61,0.85
	c-0.45,0.24-0.89,0.49-1.34,0.73c-0.58,0.32-1.16,0.65-1.74,0.98c-0.37,0.21-0.73,0.44-1.1,0.65c-0.47,0.28-0.95,0.56-1.42,0.85
	c-0.38,0.23-0.75,0.47-1.12,0.7c2.59,6.58,5.54,12.81,8.85,18.58c5.68,9.89,12.13,18.04,19.15,24.31
	c11.51,3.57,23.62,5.42,36.03,5.42C-129.99-64.45-146.66-76.69-159.41-98.92"/>
<path class="st2" d="M-171.14-115.94c-0.58,0.32-1.16,0.65-1.74,0.98C-172.3-115.3-171.72-115.62-171.14-115.94"/>
<path class="st2" d="M-174.93-124.73c-0.92,0.5-1.83,1.01-2.73,1.54C-176.76-123.72-175.85-124.23-174.93-124.73"/>
<path class="st2" d="M-175.83-227.03c0.67-3.28,1.44-6.49,2.27-9.66c-2.86-1.68-5.66-3.47-8.38-5.38c-0.9,3.21-1.72,6.49-2.47,9.82
	C-181.62-230.4-178.76-228.66-175.83-227.03"/>
<path class="st2" d="M-179.8-121.92L-179.8-121.92c0.39-0.24,0.79-0.47,1.19-0.7C-179.01-122.39-179.41-122.16-179.8-121.92"/>
<path class="st2" d="M-173.98-114.31c-0.47,0.28-0.95,0.56-1.42,0.85C-174.92-113.76-174.45-114.03-173.98-114.31"/>
<path class="st2" d="M-172.14-126.21c-0.64,0.33-1.28,0.67-1.91,1.01C-173.42-125.54-172.79-125.88-172.14-126.21"/>
<path class="st2" d="M-169.8-116.68c0.54-0.29,1.07-0.57,1.61-0.85v0C-168.73-117.25-169.27-116.97-169.8-116.68"/>
<path class="st2" d="M-55.16-116.68c-0.54-0.29-1.07-0.58-1.61-0.86v0C-56.24-117.25-55.7-116.97-55.16-116.68"/>
<path class="st2" d="M-52.82-126.21c0.64,0.33,1.28,0.67,1.91,1.01C-51.55-125.54-52.18-125.88-52.82-126.21"/>
<path class="st2" d="M-50.03-124.73c0.92,0.5,1.83,1.01,2.73,1.54C-48.21-123.72-49.12-124.23-50.03-124.73"/>
<path class="st2" d="M-45.16-121.92c-0.39-0.24-0.79-0.47-1.19-0.7C-45.95-122.39-45.56-122.16-45.16-121.92L-45.16-121.92z"/>
<path class="st2" d="M-53.83-115.94c0.58,0.32,1.16,0.65,1.74,0.98C-52.66-115.3-53.24-115.62-53.83-115.94"/>
<path class="st2" d="M-50.99-114.31c0.47,0.28,0.95,0.56,1.42,0.85C-50.04-113.76-50.51-114.03-50.99-114.31"/>
<path class="st2" d="M-174.06-125.19c-0.29,0.16-0.59,0.31-0.88,0.47C-174.64-124.89-174.35-125.04-174.06-125.19"/>
<path class="st2" d="M-169.8-116.68c-0.45,0.24-0.89,0.49-1.34,0.73C-170.7-116.19-170.25-116.44-169.8-116.68"/>
<path class="st2" d="M-172.88-114.97c-0.37,0.21-0.73,0.44-1.1,0.65C-173.61-114.53-173.25-114.75-172.88-114.97"/>
<path class="st2" d="M-172.14-126.21c0.27-0.14,0.54-0.27,0.81-0.41v0C-171.6-126.48-171.88-126.35-172.14-126.21"/>
<path class="st2" d="M-177.67-123.19c-0.32,0.18-0.63,0.38-0.95,0.56C-178.3-122.81-177.98-123.01-177.67-123.19"/>
<path class="st2" d="M-112.48-64.45c-12.42,0-24.53-1.86-36.03-5.42c10.92,9.76,23.21,14.93,36.03,14.93
	c12.83,0,25.11-5.18,36.03-14.93C-87.95-66.31-100.07-64.45-112.48-64.45"/>
<path class="st2" d="M-175.39-113.47c-0.38,0.23-0.75,0.47-1.12,0.7C-176.14-113-175.77-113.24-175.39-113.47"/>
<path class="st2" d="M-48.45-112.77L-48.45-112.77c-0.37-0.23-0.75-0.47-1.12-0.7C-49.19-113.24-48.82-113-48.45-112.77"/>
<path class="st2" d="M-52.09-114.97c0.37,0.21,0.73,0.44,1.1,0.65C-51.35-114.53-51.72-114.75-52.09-114.97"/>
<path class="st2" d="M-47.3-123.19c0.32,0.18,0.63,0.38,0.95,0.56C-46.67-122.81-46.98-123.01-47.3-123.19"/>
<path class="st2" d="M-52.82-126.21c-0.27-0.14-0.54-0.27-0.81-0.41v0C-53.36-126.48-53.09-126.35-52.82-126.21"/>
<path class="st2" d="M-50.91-125.19c0.29,0.16,0.59,0.31,0.88,0.47C-50.32-124.89-50.62-125.04-50.91-125.19"/>
<path class="st2" d="M-55.16-116.68c0.45,0.24,0.89,0.49,1.34,0.73C-54.27-116.19-54.72-116.44-55.16-116.68"/>
<path class="st2" d="M-173.98-114.31c0.37-0.22,0.73-0.44,1.1-0.65c0.58-0.33,1.16-0.66,1.74-0.98c0.44-0.25,0.89-0.49,1.34-0.73
	c0.54-0.29,1.07-0.58,1.61-0.86c-1.13-2.95-2.17-5.98-3.14-9.08c-0.27,0.14-0.54,0.27-0.81,0.41c-0.64,0.33-1.28,0.67-1.91,1.01
	c-0.29,0.16-0.59,0.31-0.88,0.46c-0.92,0.5-1.83,1.01-2.73,1.54c-0.32,0.18-0.63,0.38-0.95,0.56c-0.4,0.23-0.79,0.47-1.19,0.71
	c1.02,3.12,2.11,6.18,3.28,9.16c0.37-0.23,0.75-0.47,1.12-0.7C-174.92-113.76-174.45-114.03-173.98-114.31"/>
<rect x="-117.24" y="-311.34" class="st2" width="9.51" height="251.64"/>
<path class="st2" d="M-184.69-180.76h-53.61c-2.63,0-4.76-2.13-4.76-4.76s2.13-4.76,4.76-4.76h53.61c2.63,0,4.76,2.13,4.76,4.76
	S-182.06-180.76-184.69-180.76"/>
<path class="st2" d="M-3.09-180.76h-179c-2.63,0-4.76-2.13-4.76-4.76s2.13-4.76,4.76-4.76h179c2.63,0,4.76,2.13,4.76,4.76
	S-0.47-180.76-3.09-180.76"/>
<path class="st2" d="M-88.7-132.34c0-2.65,1.99-4.84,4.57-5.15c-0.45-0.1-0.9-0.2-1.35-0.29c-0.49-0.1-0.98-0.2-1.47-0.3
	c-0.55-0.11-1.11-0.21-1.67-0.31c-0.49-0.09-0.97-0.18-1.46-0.26c-0.56-0.1-1.13-0.18-1.69-0.27c-0.49-0.08-0.97-0.15-1.45-0.23
	c-0.57-0.08-1.15-0.16-1.72-0.23c-0.48-0.06-0.97-0.13-1.45-0.19c-0.58-0.07-1.17-0.13-1.76-0.2c-0.47-0.05-0.95-0.11-1.42-0.15
	c-0.61-0.06-1.21-0.11-1.82-0.16c-0.46-0.04-0.92-0.08-1.38-0.11c-0.64-0.05-1.28-0.08-1.92-0.12c-0.43-0.02-0.86-0.06-1.29-0.08
	c-0.72-0.03-1.44-0.06-2.16-0.08c-0.36-0.01-0.72-0.03-1.08-0.04c-1.08-0.03-2.16-0.04-3.25-0.04c-1.08,0-2.17,0.01-3.25,0.04
	c-0.36,0.01-0.72,0.03-1.08,0.04c-0.72,0.02-1.44,0.05-2.16,0.08c-0.43,0.02-0.86,0.05-1.29,0.08c-0.64,0.04-1.28,0.07-1.92,0.12
	c-0.46,0.03-0.92,0.08-1.38,0.11c-0.61,0.05-1.22,0.1-1.82,0.16c-0.48,0.05-0.95,0.1-1.42,0.15c-0.59,0.06-1.17,0.13-1.76,0.2
	c-0.49,0.06-0.97,0.13-1.45,0.19c-0.57,0.08-1.15,0.15-1.72,0.23c-0.49,0.07-0.97,0.15-1.46,0.23c-0.57,0.09-1.13,0.18-1.7,0.27
	c-0.49,0.08-0.97,0.17-1.46,0.26c-0.56,0.1-1.11,0.2-1.67,0.31c-0.49,0.1-0.98,0.2-1.47,0.3c-0.55,0.11-1.1,0.23-1.64,0.35
	c-0.49,0.11-0.98,0.22-1.46,0.34c-0.54,0.13-1.08,0.26-1.62,0.39c-0.49,0.12-0.97,0.24-1.46,0.37c-0.54,0.14-1.07,0.28-1.61,0.43
	c-0.48,0.13-0.97,0.27-1.45,0.41c-0.53,0.15-1.06,0.31-1.59,0.47c-0.48,0.14-0.96,0.29-1.44,0.44c-0.53,0.16-1.05,0.34-1.58,0.51
	c-0.48,0.16-0.95,0.31-1.43,0.47c-0.52,0.18-1.04,0.36-1.56,0.55c-0.47,0.17-0.94,0.33-1.41,0.51c-0.52,0.19-1.04,0.39-1.56,0.59
	c-0.46,0.18-0.93,0.35-1.39,0.54c-0.52,0.2-1.04,0.42-1.55,0.63c-0.46,0.19-0.91,0.37-1.36,0.56c-0.52,0.22-1.04,0.45-1.56,0.68
	c-0.44,0.2-0.89,0.39-1.32,0.59c-0.53,0.24-1.06,0.49-1.59,0.74c-0.42,0.2-0.84,0.39-1.26,0.59c-0.56,0.27-1.11,0.55-1.67,0.83
	c-0.11,0.06-0.23,0.11-0.35,0.17c0.97,3.09,2.01,6.13,3.14,9.08c0.14-0.07,0.27-0.15,0.41-0.22c0.38-0.19,0.76-0.38,1.13-0.57
	c0.49-0.25,0.98-0.5,1.48-0.74c0.41-0.2,0.82-0.39,1.23-0.58c0.47-0.22,0.94-0.45,1.42-0.66c0.42-0.19,0.84-0.37,1.26-0.56
	c0.47-0.21,0.94-0.42,1.41-0.62c0.43-0.18,0.86-0.36,1.29-0.54c0.47-0.19,0.94-0.39,1.41-0.57c0.44-0.17,0.87-0.34,1.31-0.51
	c0.47-0.18,0.94-0.36,1.42-0.54c0.44-0.16,0.89-0.32,1.33-0.48c0.47-0.17,0.95-0.34,1.42-0.5c0.45-0.15,0.9-0.3,1.34-0.45
	c0.48-0.16,0.96-0.31,1.44-0.46c0.45-0.14,0.9-0.28,1.36-0.41c0.48-0.15,0.97-0.29,1.45-0.43c0.45-0.13,0.91-0.26,1.36-0.38
	c0.49-0.13,0.98-0.27,1.47-0.39c0.45-0.12,0.91-0.23,1.36-0.35c0.5-0.12,0.99-0.24,1.49-0.36c0.46-0.11,0.91-0.21,1.37-0.31
	c0.5-0.11,1-0.22,1.51-0.32c0.46-0.09,0.91-0.19,1.37-0.28c0.51-0.1,1.02-0.19,1.53-0.29c0.46-0.08,0.91-0.17,1.37-0.24
	c0.52-0.09,1.04-0.17,1.56-0.25c0.45-0.07,0.9-0.14,1.36-0.21c0.53-0.08,1.06-0.15,1.59-0.22c0.45-0.06,0.89-0.12,1.34-0.18
	c0.54-0.07,1.09-0.12,1.63-0.18c0.44-0.05,0.88-0.1,1.32-0.14c0.56-0.05,1.12-0.1,1.68-0.15c0.43-0.04,0.86-0.07,1.29-0.11
	c0.59-0.04,1.18-0.08,1.78-0.11c0.4-0.02,0.8-0.05,1.21-0.07c0.66-0.03,1.32-0.05,1.99-0.07c0.34-0.01,0.67-0.03,1.01-0.04
	c1-0.02,2-0.04,3.01-0.04c1.01,0,2.01,0.01,3.01,0.04c6.25,0.15,12.49,0.78,18.64,1.89c1.35,0.24,2.7,0.51,4.04,0.8
	C-87.96-129.27-88.7-130.72-88.7-132.34"/>
<path class="st2" d="M-78.33-132.34c0-1.81-0.93-3.41-2.34-4.34c-0.03-0.01-0.06-0.01-0.09-0.02c-0.54-0.13-1.08-0.27-1.62-0.39
	c-0.49-0.11-0.97-0.23-1.46-0.34c-0.1-0.02-0.2-0.04-0.29-0.06c-2.57,0.31-4.57,2.49-4.57,5.15c0,1.62,0.74,3.07,1.91,4.02
	c1.22,0.26,2.44,0.54,3.65,0.84c0.26,0.06,0.51,0.14,0.77,0.2C-80.06-127.8-78.33-129.86-78.33-132.34"/>
<polygon class="st5" points="666.51,-79.22 696.23,-30.6 706.36,-48.83 713.36,-56.97 740.8,-62.34 738.1,-69.76 711.88,-104.2 
	697.24,-86.17 "/>
<polygon class="st5" points="560.35,-99.66 546.99,-69.09 569.27,-64.36 580.08,-29.25 619.24,-76.52 609.07,-79.91 583.12,-79.91 
	578.05,-85.97 563.2,-104.2 "/>
<path class="st5" d="M642.93-266.99c-38.36,0-69.58,31.21-69.58,69.58c0,38.36,31.21,69.58,69.58,69.58
	c38.36,0,69.58-31.21,69.58-69.58C712.51-235.78,681.3-266.99,642.93-266.99"/>
<path class="st2" d="M711.56-97.13l23.87,31.38l-24.86,4.69l-3.94,0.75l-1.77,3.6l-11.16,22.71l-31.22-41.05l1.78-0.86h19.91h0.05
	h0.01c6.65,0,12.84-2.99,16.96-8.18L711.56-97.13 M713.11-108.36l-4.66,2.24L694.88-89.1c-2.59,3.26-6.52,5.16-10.68,5.16h-0.03
	H662.4l-12.3,5.92l38.33,50.4c1.3,1.7,3.31,2.7,5.45,2.71c0.22,0,0.44-0.01,0.66-0.03c2.36-0.23,4.44-1.67,5.49-3.79l12.01-24.42
	l26.57-5.02c2.27-0.43,4.29-1.89,5.19-4.02c1.02-2.41,0.61-5-0.84-6.9L713.11-108.36z"/>
<path class="st2" d="M562.15-97.13l10.39,13.02c4.13,5.21,10.32,8.2,17,8.2h19.93l1.78,0.86l-31.22,41.05l-11.16-22.71l-1.77-3.6
	l-3.95-0.75l-24.86-4.69L562.15-97.13 M560.6-108.36L530.74-69.1c-2.59,3.41-1.5,8.47,2.62,10.4c0.51,0.24,1.07,0.39,1.63,0.5
	l26.68,5.03l11.92,24.26c0.99,2.02,2.86,3.54,5.09,3.9c0.38,0.06,0.76,0.09,1.14,0.09c2.14,0,4.16-1,5.45-2.71l38.33-50.4
	l-12.29-5.92h-21.76h-0.03c-4.16,0-8.09-1.9-10.68-5.16l-13.57-17.01L560.6-108.36z"/>
<path class="st6" d="M696.13-285.26l-8.07-10.12c-1.27-1.59-3.18-2.51-5.21-2.51"/>
<path class="st6" d="M741.69-228.13l-10.41-13.05l-5.05-22.11c-0.45-1.98-1.78-3.64-3.61-4.52l-10.98-5.29"/>
<line class="st6" x1="743.58" y1="-204.13" x2="746.71" y2="-217.81"/>
<path class="st6" d="M682.85-297.89h-22.68l-20.43-9.84c-1.83-0.88-3.95-0.88-5.78,0l-20.43,9.84h-22.68
	c-2.03,0-3.95,0.92-5.21,2.51l-14.14,17.73l-20.43,9.84c-1.83,0.88-3.16,2.55-3.61,4.52l-5.04,22.11l-14.14,17.73
	c-1.26,1.58-1.74,3.66-1.29,5.64l5.05,22.11L527-173.6c-0.45,1.98,0.02,4.06,1.29,5.64l14.14,17.73l5.04,22.1
	c0.45,1.98,1.78,3.64,3.61,4.52l20.43,9.84l14.14,17.73c1.26,1.59,3.18,2.51,5.21,2.51h22.68l20.43,9.84c1.83,0.88,3.95,0.88,5.78,0
	l20.43-9.84h22.68c2.03,0,3.95-0.92,5.21-2.51l14.14-17.73l20.43-9.84c1.83-0.88,3.16-2.54,3.61-4.52l5.04-22.11l14.14-17.73
	c1.26-1.59,1.74-3.66,1.29-5.64l-3.33-14.59"/>
<path class="st6" d="M702.78-234.21c-1.37-2.32-2.87-4.59-4.52-6.8"/>
<path class="st6" d="M683.49-256.04c-26.44-20.31-64.2-21.6-92.26-0.75c-33.86,25.16-40.94,73.17-15.78,107.03
	c25.16,33.86,73.17,40.94,107.03,15.78c28.82-21.41,38.24-59.38,24.9-91.09"/>
<polygon class="st7" points="617.12,-187.72 597.11,-207.23 624.77,-211.25 637.14,-236.32 649.51,-211.25 677.17,-207.23 
	657.16,-187.72 661.88,-160.17 637.14,-173.17 612.4,-160.17 "/>
<path class="st2" d="M637.14-227.24l7.84,15.88l1.87,3.79l4.18,0.61l17.52,2.55l-12.68,12.36l-3.02,2.95l0.72,4.16l2.99,17.45
	l-15.67-8.24l-3.74-1.96l-3.74,1.96l-15.67,8.24l2.99-17.45l0.72-4.16l-3.02-2.95l-12.68-12.36l17.52-2.55l4.18-0.61l1.87-3.79
	L637.14-227.24z M637.14-245.39l-15.04,30.47l-33.63,4.89l24.33,23.72l-5.74,33.49l30.08-15.81l30.08,15.81l-5.74-33.49l24.33-23.72
	l-33.63-4.89L637.14-245.39z"/>
<g>
	<path class="st5" d="M253.88-254.48c-1.16,1.35-2.23,2.72-3.21,4.12c-1.58,5.14-2.15,10.48-1.37,15.75
		c6.1,0.37,12.2-1.01,17.81-3.85c7.41-8.17,11.73-19.35,12.17-31.46C270.68-268.68,261.23-263,253.88-254.48"/>
	<path class="st2" d="M264.52-239.01c-0.54,0.6-1.1,1.18-1.68,1.75c-5.71,5.52-12.82,8.73-19.85,9.02c-0.31-6.97,2.16-14.45,7-21.29
		c0.87-1.24,1.81-2.46,2.84-3.65c6.5-7.53,14.85-12.55,22.45-13.65c-0.03,0.89-0.09,1.77-0.17,2.64c-0.16,1.71,1.16,3.2,2.87,3.3
		c1.63,0.09,3.06-1.11,3.21-2.74c0.2-2.16,0.27-4.35,0.21-6.57l-0.08-2.97h-2.97c-5.4,0-11.23,1.76-16.78,4.91
		c-4.81,2.73-9.42,6.5-13.37,11.08c-7.6,8.81-11.61,19.1-11.32,28.76c0.04,1.23,0.13,2.45,0.31,3.65l0.36,2.46l2.48,0.15
		c0.63,0.04,1.25,0.06,1.88,0.06c6.41,0,12.89-1.99,18.67-5.64c2.3-1.45,4.49-3.16,6.52-5.13c2.5-2.42,4.71-5.16,6.59-8.13
		c0.9-1.43,0.5-3.32-0.92-4.24c-1.43-0.92-3.33-0.49-4.24,0.94C267.34-242.4,266-240.64,264.52-239.01"/>
	<path class="st2" d="M276.76-256.78L276.76-256.78c-1.55-0.29-3.06,0.65-3.48,2.17c-0.35,1.27-0.77,2.65-1.17,3.9
		c-0.49,1.52,0.28,3.16,1.76,3.75c1.63,0.64,3.47-0.24,3.99-1.92c0.33-1.08,0.65-2.14,0.83-2.66c0.15-0.46,0.3-0.92,0.44-1.38
		C279.65-254.65,278.53-256.45,276.76-256.78"/>
	<path class="st5" d="M178.27-301c-1.81,2.6-41.5,74.07-41.5,74.07l19.08,46.46l2.31,5.62l-4.67,11.88l-5.39,13.71l6.04,0.26
		l6.22,0.27l51.74,2.22l-10.97-26.51l22.13-43.52l2.8-5.51l2.49-4.9C228.54-226.96,182.37-295.12,178.27-301"/>
	<path class="st5" d="M201.48-71.36c-0.3-0.16-0.6-0.32-0.9-0.49C200.88-71.68,201.18-71.52,201.48-71.36"/>
	<path class="st5" d="M178.71-96.34c-0.15-0.26-0.3-0.52-0.45-0.79C178.41-96.87,178.56-96.6,178.71-96.34"/>
	<path class="st5" d="M199.03-72.8c-0.3-0.19-0.59-0.39-0.89-0.59C198.44-73.19,198.73-72.99,199.03-72.8"/>
	<path class="st5" d="M177.83-97.9c-0.15-0.26-0.29-0.52-0.43-0.78C177.54-98.42,177.68-98.16,177.83-97.9"/>
	<path class="st5" d="M180.87-92.76c-0.28-0.45-0.57-0.91-0.85-1.37C180.31-93.66,180.59-93.21,180.87-92.76"/>
	<path class="st5" d="M179.65-94.76c-0.17-0.28-0.34-0.57-0.51-0.86C179.31-95.33,179.48-95.04,179.65-94.76"/>
	<path class="st5" d="M209.21-68.75c-0.29-0.04-0.57-0.09-0.86-0.15C208.64-68.84,208.92-68.79,209.21-68.75"/>
	<path class="st5" d="M210.46-68.61c-0.28-0.02-0.56-0.05-0.84-0.09C209.9-68.66,210.18-68.63,210.46-68.61"/>
	<path class="st5" d="M190.57-80c-0.23-0.25-0.47-0.5-0.7-0.76C190.1-80.5,190.33-80.25,190.57-80"/>
	<path class="st5" d="M175.77-101.71c-0.12-0.24-0.24-0.47-0.37-0.71C175.53-102.19,175.65-101.95,175.77-101.71"/>
	<path class="st5" d="M174.95-103.32c-0.11-0.22-0.22-0.45-0.34-0.67C174.73-103.77,174.84-103.55,174.95-103.32"/>
	<path class="st5" d="M212.03-68.53c-0.4,0-0.8-0.02-1.2-0.05C211.23-68.55,211.63-68.53,212.03-68.53"/>
	<path class="st5" d="M176.92-99.54c-0.24-0.44-0.47-0.87-0.7-1.31C176.45-100.41,176.69-99.97,176.92-99.54"/>
	<path class="st5" d="M195.29-75.55c-0.25-0.21-0.5-0.42-0.75-0.63C194.79-75.97,195.04-75.76,195.29-75.55"/>
	<path class="st5" d="M183.85-88.29c-0.23-0.32-0.46-0.65-0.68-0.98C183.4-88.94,183.63-88.61,183.85-88.29"/>
	<path class="st5" d="M193.09-77.48c-0.36-0.33-0.71-0.67-1.06-1.02C192.38-78.16,192.73-77.81,193.09-77.48"/>
	<path class="st5" d="M187.11-83.97c-0.22-0.27-0.43-0.54-0.65-0.81C186.68-84.51,186.89-84.24,187.11-83.97"/>
	<path class="st5" d="M205.26-69.72c-0.27-0.09-0.54-0.19-0.81-0.29C204.72-69.91,204.99-69.81,205.26-69.72"/>
	<path class="st5" d="M188.4-82.41c-0.31-0.36-0.62-0.73-0.93-1.11C187.78-83.14,188.09-82.77,188.4-82.41"/>
	<path class="st5" d="M186.07-85.29c-0.22-0.28-0.43-0.56-0.64-0.84C185.64-85.85,185.85-85.57,186.07-85.29"/>
	<path class="st5" d="M204.05-70.17c-0.29-0.12-0.58-0.24-0.87-0.37C203.47-70.41,203.76-70.29,204.05-70.17"/>
	<path class="st5" d="M185.07-86.61c-0.31-0.42-0.63-0.85-0.94-1.29C184.44-87.46,184.75-87.03,185.07-86.61"/>
	<path class="st5" d="M182.77-89.85c-0.19-0.27-0.37-0.55-0.56-0.83C182.4-90.4,182.59-90.12,182.77-89.85"/>
	<path class="st5" d="M194.17-76.5c-0.3-0.27-0.61-0.54-0.91-0.82C193.57-77.04,193.87-76.77,194.17-76.5"/>
	<path class="st5" d="M208-68.96c-0.39-0.08-0.79-0.17-1.18-0.28C207.22-69.14,207.61-69.04,208-68.96"/>
	<path class="st5" d="M206.66-69.29c-0.34-0.09-0.68-0.19-1.01-0.3C205.98-69.48,206.32-69.38,206.66-69.29"/>
	<path class="st5" d="M196.49-74.59c-0.27-0.21-0.55-0.42-0.82-0.64C195.94-75.01,196.22-74.8,196.49-74.59"/>
	<path class="st5" d="M181.81-91.3c-0.18-0.28-0.36-0.56-0.54-0.85C181.44-91.87,181.62-91.58,181.81-91.3"/>
	<path class="st5" d="M258.17-73.32c0.57,0.24,1.14,0.48,1.71,0.72c1.63,0.69,3.28,1.39,5.05,2c-1.77-0.61-3.42-1.31-5.05-2
		C259.31-72.84,258.74-73.08,258.17-73.32"/>
	<path class="st5" d="M166.36-124.1c-0.03-0.08-0.05-0.15-0.08-0.23C166.31-124.25,166.33-124.17,166.36-124.1"/>
	<path class="st5" d="M283.95-70.7c-0.21,0.09-0.42,0.17-0.64,0.26C283.53-70.52,283.74-70.61,283.95-70.7"/>
	<path class="st5" d="M165.83-125.7c-0.01-0.03-0.02-0.05-0.02-0.08C165.82-125.75,165.82-125.72,165.83-125.7"/>
	<path class="st5" d="M202.88-70.67c-0.38-0.18-0.77-0.36-1.15-0.56C202.11-71.03,202.5-70.85,202.88-70.67"/>
	<path class="st5" d="M168.48-118.13c-0.04-0.11-0.08-0.22-0.12-0.33C168.4-118.35,168.44-118.24,168.48-118.13"/>
	<path class="st5" d="M197.9-73.55c-0.37-0.26-0.74-0.53-1.11-0.81C197.16-74.08,197.53-73.81,197.9-73.55"/>
	<path class="st5" d="M191.69-78.84c-0.25-0.25-0.49-0.5-0.74-0.75C191.2-79.34,191.45-79.09,191.69-78.84"/>
	<path class="st5" d="M164.04-131.6c-0.01-0.03-0.02-0.07-0.03-0.1C164.02-131.67,164.03-131.64,164.04-131.6"/>
	<path class="st5" d="M280.21-69.46c-0.55,0.13-1.1,0.25-1.65,0.34C279.12-69.21,279.67-69.33,280.21-69.46"/>
	<path class="st5" d="M264.93-70.59c2.95,1.01,6.21,1.76,10.25,1.76c0.88,0,1.75-0.06,2.62-0.17c-0.86,0.11-1.74,0.17-2.62,0.17
		C271.14-68.83,267.87-69.58,264.93-70.59"/>
	<path class="st5" d="M189.51-81.15c-0.31-0.35-0.62-0.7-0.93-1.06C188.89-81.85,189.2-81.5,189.51-81.15"/>
	<path class="st5" d="M170.82-112.28c-0.03-0.07-0.06-0.14-0.09-0.21C170.77-112.42,170.79-112.35,170.82-112.28"/>
	<path class="st5" d="M171.53-110.64c-0.07-0.17-0.15-0.34-0.22-0.51C171.38-110.98,171.46-110.81,171.53-110.64"/>
	<path class="st5" d="M169.1-116.52c-0.05-0.13-0.1-0.25-0.15-0.38C169-116.78,169.05-116.65,169.1-116.52"/>
	<path class="st5" d="M252.85-75.21c-0.95-0.26-1.94-0.49-2.99-0.68C250.92-75.71,251.91-75.48,252.85-75.21"/>
	<path class="st5" d="M249.86-75.89c-1.05-0.18-2.16-0.32-3.36-0.4C247.7-76.21,248.81-76.07,249.86-75.89"/>
	<path class="st5" d="M172.84-107.71c-0.03-0.08-0.07-0.15-0.11-0.23C172.77-107.86,172.81-107.79,172.84-107.71"/>
	<path class="st5" d="M239.53-75.77c-2.6,0.63-5.38,1.67-8.27,2.75C234.15-74.1,236.93-75.14,239.53-75.77"/>
	<path class="st5" d="M172.25-109.02c-0.08-0.18-0.16-0.36-0.24-0.53C172.09-109.38,172.16-109.2,172.25-109.02"/>
	<path class="st5" d="M169.61-115.24c-0.01-0.01-0.01-0.03-0.02-0.04C169.6-115.26,169.6-115.25,169.61-115.24"/>
	<path class="st5" d="M256.46-74.01c-0.87-0.33-1.75-0.65-2.67-0.93C254.7-74.65,255.59-74.34,256.46-74.01"/>
	<path class="st5" d="M200.19-72.08c-0.26-0.15-0.52-0.31-0.78-0.48C199.67-72.39,199.93-72.23,200.19-72.08"/>
	<path class="st5" d="M258.17-73.32c-0.57-0.24-1.14-0.47-1.72-0.69C257.03-73.78,257.61-73.55,258.17-73.32"/>
	<path class="st5" d="M174.15-104.93c-0.1-0.2-0.19-0.4-0.29-0.6C173.96-105.33,174.06-105.13,174.15-104.93"/>
	<path class="st2" d="M302.61-175.8c-1.62-1.35-4.07-0.69-4.8,1.28c-0.47,1.27-0.93,2.63-1.31,3.93c-0.47,1.58,0.4,3.26,1.97,3.78
		c1.65,0.55,3.42-0.39,3.91-2.06c0.35-1.2,0.76-2.45,1.15-3.54C303.96-173.62,303.6-174.98,302.61-175.8"/>
	<path class="st2" d="M241.93-210.88c1.95,0,4.8-1.08,9.28-2.85l0.14-0.06c6.52-2.6,14.63-5.83,23.92-5.83
		c8.06,0,28.13,1.98,40.33,20.29c0.86,1.29,0.56,3.03-0.67,3.96l-0.02,0.01c-1.08,0.81-2.29,1.73-3.6,2.8
		c-1.69,1.38-4.87,3.98-7.94,7.95c-0.99,1.29-0.72,3.14,0.58,4.11l0.21,0.16c1.29,0.97,3.1,0.7,4.09-0.57
		c0.01-0.01,0.01-0.02,0.02-0.02c2.23-2.84,4.7-5.09,6.91-6.89c1.22-0.99,2.39-1.88,3.44-2.67l4.6-3.47
		c1.24-0.94,1.53-2.67,0.67-3.96l-1.88-2.83l-1.31-1.97c-13.83-20.77-36.37-23.01-45.48-23.01c-10.4,0-19.12,3.47-26.12,6.26
		l-0.14,0.05c-2.09,0.83-5.99,2.37-7.03,2.42c-2.01,0-6.72-1.73-10.5-3.12c-1.74-0.64-3.54-1.3-5.38-1.93l-2.8,5.51
		c2.07,0.69,4.11,1.44,6.06,2.16C234.21-212.58,238.83-210.88,241.93-210.88"/>
	<path class="st2" d="M319.85-131.75c-1.13-0.68-2.26-1.36-3.36-2.09c-1.31-0.87-2.58-1.8-3.79-2.81c-1.36-1.14-2.63-2.38-3.78-3.72
		c-1.28-1.49-2.41-3.12-3.36-4.84c-1.08-1.95-1.92-4.03-2.53-6.17c-0.72-2.51-1.12-5.1-1.28-7.7c-0.01-0.08-0.01-0.16-0.01-0.24
		c-0.08-1.56-1.36-2.79-2.92-2.79h-0.26c-1.69,0-3.02,1.43-2.93,3.12c0.02,0.39,0.05,0.78,0.08,1.17c0.11,1.31,0.27,2.63,0.49,3.93
		c0.21,1.21,0.48,2.42,0.8,3.61c0.3,1.12,0.66,2.22,1.06,3.3c0.38,1.02,0.81,2.03,1.29,3.01c0.45,0.93,0.95,1.84,1.48,2.73
		c0.51,0.85,1.05,1.67,1.63,2.47c0.55,0.76,1.13,1.5,1.74,2.22c0.58,0.68,1.18,1.35,1.81,1.99c0.59,0.61,1.21,1.2,1.84,1.76
		c0.6,0.54,1.21,1.06,1.83,1.56c0.58,0.47,1.18,0.93,1.79,1.37c0.56,0.41,1.13,0.8,1.71,1.19c0.52,0.35,1.05,0.69,1.58,1.02
		c0.47,0.3,0.95,0.59,1.42,0.87c0.18,0.11,0.35,0.21,0.53,0.32c1.83,1.1,3,1.87,3.63,2.74c0.53,0.72,0.64,1.66,0.37,2.51
		c-1.66,5.32-10.82,27.94-24.37,41.67c-3.81,3.86-7.97,7.01-12.41,8.88c-0.21,0.09-0.42,0.17-0.63,0.26
		c-1.02,0.4-2.05,0.73-3.1,0.98c-0.55,0.13-1.1,0.25-1.65,0.34c-0.26,0.04-0.51,0.08-0.77,0.12c-0.86,0.11-1.74,0.17-2.62,0.17
		c-4.03,0-7.3-0.75-10.25-1.76c-1.77-0.61-3.42-1.31-5.05-2c-0.57-0.24-1.14-0.48-1.71-0.72c-0.57-0.24-1.14-0.47-1.72-0.69
		c-0.87-0.33-1.75-0.65-2.67-0.93c-0.31-0.1-0.62-0.19-0.93-0.27c-0.95-0.26-1.94-0.49-2.99-0.68c-1.05-0.18-2.16-0.32-3.36-0.4
		c-0.8-0.05-1.63-0.08-2.5-0.08c-1.42,0-2.92,0.23-4.48,0.61c-2.6,0.63-5.37,1.67-8.27,2.75c-0.7,0.26-1.42,0.53-2.15,0.8
		c-0.73,0.27-1.47,0.53-2.22,0.79c-0.38,0.13-0.75,0.26-1.14,0.38c-1.52,0.51-3.09,0.98-4.7,1.37c-2.82,0.69-5.77,1.15-8.83,1.15
		h-0.18h-0.01c-0.4,0-0.8-0.02-1.2-0.05c-0.13-0.01-0.25-0.02-0.37-0.03c-0.28-0.02-0.56-0.05-0.84-0.09
		c-0.14-0.02-0.28-0.04-0.41-0.06c-0.28-0.04-0.57-0.09-0.85-0.15c-0.12-0.02-0.23-0.04-0.35-0.07c-0.39-0.08-0.79-0.17-1.18-0.28
		c-0.06-0.01-0.11-0.03-0.17-0.05c-0.34-0.09-0.68-0.19-1.01-0.3c-0.13-0.04-0.26-0.09-0.39-0.13c-0.27-0.09-0.54-0.19-0.81-0.29
		c-0.13-0.05-0.26-0.1-0.4-0.15c-0.29-0.12-0.58-0.24-0.87-0.37c-0.1-0.04-0.2-0.08-0.3-0.13c-0.38-0.18-0.77-0.36-1.15-0.56
		c-0.08-0.04-0.16-0.09-0.25-0.13c-0.3-0.16-0.6-0.32-0.9-0.49c-0.13-0.07-0.26-0.15-0.39-0.22c-0.26-0.16-0.52-0.31-0.78-0.48
		c-0.13-0.08-0.26-0.16-0.38-0.24c-0.3-0.19-0.59-0.39-0.89-0.59c-0.08-0.06-0.16-0.11-0.25-0.17c-0.37-0.26-0.74-0.53-1.11-0.81
		c-0.1-0.07-0.2-0.15-0.3-0.23c-0.27-0.21-0.55-0.42-0.82-0.64c-0.13-0.1-0.25-0.21-0.38-0.31c-0.25-0.21-0.5-0.42-0.75-0.63
		c-0.12-0.1-0.24-0.21-0.37-0.32c-0.3-0.27-0.61-0.54-0.91-0.82c-0.06-0.05-0.12-0.11-0.18-0.16c-0.36-0.33-0.71-0.67-1.06-1.02
		c-0.11-0.11-0.22-0.22-0.33-0.33c-0.25-0.25-0.49-0.5-0.74-0.75c-0.13-0.13-0.26-0.27-0.39-0.41c-0.24-0.25-0.47-0.5-0.7-0.76
		c-0.12-0.13-0.24-0.26-0.36-0.4c-0.31-0.35-0.62-0.7-0.93-1.06c-0.06-0.07-0.12-0.14-0.18-0.21c-0.31-0.36-0.62-0.73-0.93-1.11
		c-0.12-0.15-0.24-0.3-0.37-0.45c-0.22-0.27-0.43-0.54-0.65-0.81c-0.13-0.17-0.26-0.33-0.39-0.5c-0.21-0.28-0.43-0.56-0.64-0.84
		c-0.12-0.16-0.24-0.32-0.36-0.48c-0.31-0.42-0.63-0.85-0.94-1.29c-0.09-0.13-0.18-0.26-0.28-0.39c-0.23-0.32-0.46-0.65-0.68-0.98
		c-0.13-0.19-0.26-0.39-0.4-0.58c-0.19-0.27-0.37-0.55-0.56-0.83c-0.14-0.21-0.28-0.42-0.41-0.63c-0.18-0.28-0.36-0.56-0.54-0.85
		c-0.13-0.2-0.26-0.4-0.39-0.61c-0.28-0.45-0.57-0.91-0.85-1.37c-0.13-0.21-0.25-0.42-0.38-0.64c-0.17-0.28-0.34-0.57-0.51-0.86
		c-0.14-0.24-0.28-0.48-0.42-0.73c-0.15-0.26-0.3-0.52-0.45-0.79c-0.14-0.25-0.29-0.51-0.43-0.76c-0.15-0.26-0.29-0.52-0.43-0.78
		c-0.16-0.29-0.31-0.57-0.47-0.86c-0.24-0.44-0.47-0.87-0.7-1.31c-0.15-0.29-0.3-0.57-0.45-0.86c-0.12-0.24-0.24-0.47-0.37-0.71
		c-0.15-0.3-0.3-0.6-0.46-0.9c-0.11-0.22-0.22-0.45-0.33-0.67c-0.15-0.31-0.31-0.63-0.46-0.94c-0.1-0.2-0.19-0.4-0.29-0.6
		c-0.35-0.72-0.69-1.45-1.02-2.18c-0.03-0.08-0.07-0.15-0.11-0.23c-0.17-0.36-0.33-0.72-0.49-1.08c-0.08-0.18-0.16-0.36-0.24-0.53
		c-0.16-0.36-0.32-0.72-0.48-1.08c-0.07-0.17-0.15-0.34-0.22-0.51c-0.16-0.38-0.33-0.76-0.49-1.14c-0.03-0.07-0.06-0.14-0.09-0.21
		c-0.38-0.91-0.76-1.83-1.13-2.75c-0.01-0.01-0.01-0.02-0.01-0.04c-0.17-0.42-0.33-0.83-0.49-1.25c-0.05-0.13-0.1-0.25-0.15-0.38
		c-0.16-0.41-0.31-0.82-0.47-1.23c-0.04-0.11-0.08-0.22-0.12-0.33c-0.7-1.88-1.37-3.76-2-5.64c-0.03-0.07-0.05-0.15-0.08-0.23
		c-0.15-0.46-0.3-0.92-0.45-1.37c-0.01-0.03-0.02-0.05-0.02-0.08c-0.63-1.95-1.22-3.9-1.76-5.83c-0.01-0.03-0.02-0.07-0.03-0.1
		c-0.55-1.95-1.05-3.88-1.5-5.78l-6.3,0.03c2.87,12.67,7.77,26.38,13.92,38.27c12.23,23.64,27.1,36.7,41.89,36.79h0.2
		c8.11,0,15.05-2.59,21.18-4.88l0.06-0.02c3.87-1.45,7.87-2.95,10.55-2.95c5.75,0,9.16,1.45,13.48,3.29
		c4.45,1.89,9.99,4.25,17.69,4.25c13.06,0,26.15-9.87,37.86-28.54c3.97-6.33,7.31-12.94,9.73-18.42c2.74-6.18,4.31-10.92,4.31-12.18
		C327.07-127.4,322.91-129.9,319.85-131.75"/>
	<path class="st2" d="M199.41-72.56c-0.13-0.08-0.26-0.16-0.38-0.24C199.16-72.71,199.28-72.64,199.41-72.56"/>
	<path class="st2" d="M200.58-71.86c-0.13-0.07-0.26-0.15-0.39-0.22C200.32-72,200.45-71.93,200.58-71.86"/>
	<path class="st2" d="M201.73-71.23c-0.08-0.04-0.16-0.09-0.25-0.13C201.57-71.32,201.65-71.27,201.73-71.23"/>
	<path class="st2" d="M208.35-68.9c-0.12-0.02-0.23-0.04-0.35-0.07C208.12-68.94,208.24-68.92,208.35-68.9"/>
	<path class="st2" d="M229.11-72.22c-0.73,0.27-1.47,0.53-2.22,0.79C227.64-71.69,228.38-71.95,229.11-72.22"/>
	<path class="st2" d="M278.56-69.12c-0.26,0.04-0.51,0.08-0.77,0.12C278.05-69.04,278.31-69.08,278.56-69.12"/>
	<path class="st2" d="M225.75-71.04c-1.52,0.51-3.09,0.98-4.7,1.37C222.66-70.07,224.23-70.54,225.75-71.04"/>
	<path class="st2" d="M283.31-70.44c-1.02,0.4-2.05,0.73-3.1,0.98C281.26-69.72,282.29-70.04,283.31-70.44"/>
	<path class="st2" d="M296.36-79.58L296.36-79.58c-3.81,3.86-7.97,7.01-12.41,8.88C288.39-72.57,292.55-75.72,296.36-79.58"/>
	<path class="st2" d="M203.18-70.54c-0.1-0.04-0.2-0.08-0.3-0.13C202.98-70.62,203.08-70.58,203.18-70.54"/>
	<path class="st2" d="M205.65-69.59c-0.13-0.04-0.26-0.09-0.39-0.13C205.39-69.68,205.52-69.63,205.65-69.59"/>
	<path class="st2" d="M204.45-70.01c-0.13-0.05-0.27-0.1-0.4-0.15C204.18-70.12,204.32-70.07,204.45-70.01"/>
	<path class="st2" d="M206.83-69.24c-0.06-0.01-0.11-0.03-0.17-0.05C206.71-69.27,206.77-69.25,206.83-69.24"/>
	<path class="st2" d="M210.84-68.57c-0.13-0.01-0.25-0.02-0.37-0.03C210.58-68.6,210.71-68.58,210.84-68.57"/>
	<path class="st2" d="M209.62-68.69c-0.14-0.02-0.28-0.04-0.41-0.06C209.34-68.73,209.48-68.71,209.62-68.69"/>
	<path class="st2" d="M192.02-78.5c-0.11-0.11-0.22-0.22-0.33-0.33C191.8-78.73,191.91-78.61,192.02-78.5"/>
	<path class="st2" d="M178.26-97.13c-0.15-0.25-0.29-0.51-0.43-0.76C177.97-97.64,178.11-97.38,178.26-97.13"/>
	<path class="st2" d="M174.62-104c-0.15-0.31-0.31-0.63-0.46-0.94C174.31-104.62,174.46-104.31,174.62-104"/>
	<path class="st2" d="M172.73-107.94c-0.17-0.36-0.33-0.72-0.49-1.08C172.41-108.66,172.57-108.3,172.73-107.94"/>
	<path class="st2" d="M171.31-111.14c-0.16-0.38-0.33-0.76-0.49-1.14C170.98-111.9,171.15-111.52,171.31-111.14"/>
	<path class="st2" d="M172.01-109.56c-0.16-0.36-0.32-0.72-0.48-1.08C171.69-110.28,171.85-109.92,172.01-109.56"/>
	<path class="st2" d="M175.41-102.42c-0.15-0.3-0.3-0.6-0.45-0.9C175.1-103.02,175.25-102.72,175.41-102.42"/>
	<path class="st2" d="M177.39-98.68c-0.16-0.28-0.31-0.57-0.47-0.86C177.08-99.25,177.24-98.96,177.39-98.68"/>
	<path class="st2" d="M176.22-100.85c-0.15-0.29-0.3-0.57-0.45-0.86C175.92-101.42,176.07-101.14,176.22-100.85"/>
	<path class="st2" d="M173.87-105.53c-0.35-0.72-0.69-1.45-1.02-2.18C173.18-106.98,173.52-106.26,173.87-105.53"/>
	<path class="st2" d="M212.04-68.53L212.04-68.53L212.04-68.53h0.18c3.06,0,6.01-0.46,8.83-1.15c-2.82,0.69-5.77,1.15-8.83,1.15
		H212.04z"/>
	<path class="st2" d="M166.28-124.33c-0.15-0.46-0.3-0.92-0.45-1.37C165.98-125.24,166.13-124.78,166.28-124.33"/>
	<path class="st2" d="M165.81-125.77c-0.63-1.95-1.22-3.9-1.76-5.83C164.59-129.67,165.18-127.73,165.81-125.77"/>
	<path class="st2" d="M162.51-137.48L162.51-137.48c0.45,1.9,0.95,3.83,1.5,5.78C163.47-133.65,162.97-135.58,162.51-137.48"/>
	<path class="st2" d="M168.95-116.91c-0.16-0.41-0.31-0.82-0.47-1.23C168.64-117.72,168.8-117.31,168.95-116.91"/>
	<path class="st2" d="M169.59-115.27c-0.17-0.42-0.33-0.83-0.49-1.25C169.26-116.1,169.43-115.69,169.59-115.27"/>
	<path class="st2" d="M168.36-118.46c-0.7-1.88-1.37-3.76-2-5.64C166.99-122.22,167.66-120.34,168.36-118.46"/>
	<path class="st2" d="M198.14-73.39c-0.08-0.06-0.16-0.11-0.25-0.17C197.98-73.5,198.06-73.44,198.14-73.39"/>
	<path class="st2" d="M170.74-112.49c-0.38-0.91-0.76-1.83-1.13-2.75C169.98-114.32,170.35-113.4,170.74-112.49"/>
	<path class="st2" d="M190.96-79.59c-0.13-0.13-0.26-0.27-0.39-0.41C190.7-79.86,190.83-79.72,190.96-79.59"/>
	<path class="st2" d="M189.87-80.75c-0.12-0.13-0.24-0.26-0.36-0.4C189.63-81.01,189.75-80.88,189.87-80.75"/>
	<path class="st2" d="M193.26-77.32c-0.06-0.05-0.12-0.11-0.18-0.16C193.15-77.43,193.21-77.37,193.26-77.32"/>
	<path class="st2" d="M188.58-82.2c-0.06-0.07-0.12-0.14-0.18-0.21C188.46-82.34,188.52-82.27,188.58-82.2"/>
	<path class="st2" d="M187.48-83.52c-0.12-0.15-0.24-0.3-0.37-0.45C187.23-83.82,187.35-83.67,187.48-83.52"/>
	<path class="st2" d="M194.54-76.18c-0.12-0.1-0.24-0.21-0.37-0.32C194.29-76.39,194.42-76.29,194.54-76.18"/>
	<path class="st2" d="M196.79-74.36c-0.1-0.08-0.2-0.15-0.3-0.23C196.59-74.51,196.69-74.44,196.79-74.36"/>
	<path class="st2" d="M195.67-75.23c-0.13-0.1-0.25-0.21-0.38-0.31C195.42-75.44,195.54-75.34,195.67-75.23"/>
	<path class="st2" d="M180.03-94.12c-0.13-0.21-0.25-0.42-0.38-0.64C179.77-94.55,179.9-94.33,180.03-94.12"/>
	<path class="st2" d="M181.26-92.15c-0.13-0.2-0.26-0.4-0.39-0.61C181-92.55,181.13-92.35,181.26-92.15"/>
	<path class="st2" d="M182.22-90.68c-0.14-0.21-0.28-0.42-0.41-0.63C181.94-91.09,182.08-90.88,182.22-90.68"/>
	<path class="st2" d="M179.14-95.61c-0.14-0.24-0.28-0.48-0.42-0.73C178.85-96.1,178.99-95.86,179.14-95.61"/>
	<path class="st2" d="M183.17-89.27c-0.13-0.19-0.26-0.39-0.4-0.58C182.91-89.65,183.04-89.46,183.17-89.27"/>
	<path class="st2" d="M185.43-86.13c-0.12-0.16-0.24-0.32-0.36-0.48C185.19-86.45,185.31-86.29,185.43-86.13"/>
	<path class="st2" d="M186.46-84.78c-0.13-0.17-0.26-0.33-0.39-0.5C186.2-85.12,186.33-84.95,186.46-84.78"/>
	<path class="st2" d="M184.13-87.89c-0.09-0.13-0.18-0.26-0.28-0.39C183.95-88.16,184.04-88.02,184.13-87.89"/>
	<path class="st2" d="M232.63-227.67l-57.77-82.93l-3.75,5.39c-1.81,2.6-52.72,75.67-52.72,75.67l-1.53,2.2l26.55,54.61l-18.31,35.4
		l31.11-0.12l6.3-0.02l61.84-0.24l-18.28-35.34L232.63-227.67z M174.9-236.89c5.37,0,9.74,4.37,9.74,9.74
		c0,5.37-4.37,9.74-9.74,9.74c-5.37,0-9.74-4.37-9.74-9.74C165.16-232.52,169.53-236.89,174.9-236.89 M127.42-226.52
		c6.24-8.96,30.01-43.08,42.87-61.53v42.61c-8.18,2.07-14.26,9.47-14.26,18.28c0,10.41,8.47,18.88,18.88,18.88
		s18.88-8.47,18.88-18.88c0-8.85-6.13-16.27-14.36-18.31v-42.59l42.64,61.2l-23.96,49.28h-46.88L127.42-226.52z M209.36-146.81
		l-48.69,0.19l-6.2,0.02l-14.33,0.06l11.32-21.89h46.71L209.36-146.81z"/>
	<path class="st2" d="M244.41-319.61v-25.69h-25.69v8.27h-31.7c-1.88-5.15-6.81-8.85-12.6-8.85c-5.79,0-10.73,3.7-12.6,8.85H130.5
		v-8.27h-25.69v25.69h25.69v-8.27h14.2c-0.11,0.08-0.23,0.16-0.34,0.24c-8.94,6.49-19.86,18.58-22.61,39.77
		c-5.36,1.76-9.25,6.81-9.25,12.75c0,7.4,6.02,13.42,13.42,13.42c7.4,0,13.42-6.02,13.42-13.42c0-5.63-3.49-10.45-8.41-12.44
		c3.86-26.97,22.8-36.36,31.31-39.25c2.14,4.59,6.78,7.78,12.16,7.78c5.44,0,10.13-3.26,12.23-7.93
		c8.27,2.7,27.75,11.92,31.75,39.22c-5.19,1.86-8.92,6.81-8.92,12.63c0,7.4,6.02,13.42,13.42,13.42c7.4,0,13.42-6.02,13.42-13.42
		c0-5.73-3.62-10.62-8.68-12.54c-2.7-21.32-13.67-33.47-22.63-39.98c-0.11-0.08-0.22-0.16-0.34-0.24h14.05v8.27H244.41z
		 M121.36-328.75h-7.41v-7.41h7.41V-328.75z M125.93-270.83c-2.36,0-4.28-1.92-4.28-4.28c0-2.36,1.92-4.28,4.28-4.28
		c2.36,0,4.28,1.92,4.28,4.28C130.21-272.75,128.29-270.83,125.93-270.83 M222.91-270.83c-2.36,0-4.28-1.92-4.28-4.28
		c0-2.36,1.92-4.28,4.28-4.28c2.36,0,4.28,1.92,4.28,4.28C227.19-272.75,225.26-270.83,222.91-270.83 M174.42-328.17
		c-2.36,0-4.28-1.92-4.28-4.28s1.92-4.28,4.28-4.28c2.36,0,4.28,1.92,4.28,4.28S176.78-328.17,174.42-328.17 M227.86-336.15h7.41
		v7.41h-7.41V-336.15z"/>
</g>
<g>
	<line class="st8" x1="-261.31" y1="-2.73" x2="-261.31" y2="-0.78"/>
	<line class="st9" x1="-261.31" y1="3.17" x2="-261.31" y2="135.32"/>
	<line class="st8" x1="-261.31" y1="137.29" x2="-261.31" y2="139.25"/>
	<line class="st10" x1="-213.7" y1="0.39" x2="-213.7" y2="142.37"/>
	<line class="st8" x1="-318.28" y1="-1.95" x2="-318.28" y2="0"/>
	<line class="st9" x1="-318.28" y1="3.95" x2="-318.28" y2="136.1"/>
	<line class="st8" x1="-318.28" y1="138.07" x2="-318.28" y2="140.03"/>
	<line class="st8" x1="-366.66" y1="-5.07" x2="-366.66" y2="-3.12"/>
	<line class="st9" x1="-366.66" y1="0.83" x2="-366.66" y2="132.98"/>
	<line class="st8" x1="-366.66" y1="134.95" x2="-366.66" y2="136.9"/>
	<path class="st5" d="M-200.44,27.71h1.95v-20l-14.63-9.27h-50.08h-3.25l-1.14-3.04l-8.87-23.71l-21.54,1.39v15.8l11.71,1.37
		l-11.71,0.78l-21.07,15.61l0.12-1.54V-4.96v-52.9c0-4.24-3.45-7.7-7.7-7.7h-21.76c-4.72,1.75-8.08,6.27-8.08,11.6l-0.03,49.38
		l15.61,2.62h-15.61l-14.44-0.39h-4.68v-4.68v-20.29h-11.6l-12.21,3.51l-6.02,18.73l14.61,2.34l-15.61,0.78v139.69l24.19,0.78
		l-23.41,0.78l3.9,8.59l-0.78,14.05l24.93,2.08l7.3-22.27l1.07-3.25l3.42,0.03l45.48,0.35l34.86,0.43l-19.38,1.79l7.67,21.62
		l21.04,1.91v-20.24v-4.68h4.68h0.03v-0.4l46.04,0.78l-26.57,2.75l-0.36,47.5c0,6.24,5.06,11.29,11.29,11.29l19.53,0.89
		c0.58,0,1.13,0,1.66,0c2.2-1.07,3.73-3.33,3.73-5.94v-52.47v-2.54l2.13-1.38l15.5-10.05V44.88h-1.95v-4.68h1.95v-7.8h-1.95V27.71z"
		/>
	<path class="st5" d="M-193.8,5.13l-17.95-11.37L-193.8,5.13z"/>
	<path class="st5" d="M-211.43,144.11l17.63-11.43L-211.43,144.11z"/>
	
		<rect x="-281.8" y="154.71" transform="matrix(0.083 -0.9965 0.9965 0.083 -403.1137 -128.6554)" class="st5" width="20.66" height="0.03"/>
	<polygon class="st2" points="-377.63,164.01 -378.1,165.44 -407.24,165.44 -407.24,149.45 -407.24,147.91 -408.15,146.68 
		-412.71,140.48 -412.71,-4.25 -404.35,-27.31 -387.23,-27.31 -370.95,-31.99 -407.63,-31.99 -417.39,-5.07 -417.39,142.02 
		-411.93,149.45 -411.93,170.13 -374.71,170.13 -365.88,143.21 -374.47,164.28 	"/>
	<path class="st2" d="M-326.64-70.23L-326.64-70.23c2.14,0,4.15,0.54,5.9,1.49C-322.49-69.69-324.5-70.23-326.64-70.23"/>
	<polygon class="st2" points="-211.43,196.58 -211.43,196.58 -211.43,196.58 -211.43,144.11 	"/>
	<polygon class="st2" points="-276.17,165.45 -302.94,165.45 -310.3,142.18 -311.33,138.94 -314.73,138.91 -320.36,138.87 
		-365.88,143.21 -314.77,143.6 -306.37,170.13 -271.48,170.13 -271.48,165.06 -276.17,164.63 	"/>
	<path class="st2" d="M-314.26-57.86c0-1.28-0.19-2.52-0.56-3.68C-314.46-60.37-314.26-59.14-314.26-57.86"/>
	<path class="st2" d="M-219.84,202.52c-0.87,0.43-1.85,0.67-2.89,0.67h-29.23c-3.64,0-6.61-2.97-6.61-6.61v-52.18v-4.68h-4.68h-8.19
		v4.68h8.19v52.18c0,6.24,5.06,11.29,11.29,11.29h29.23c5.49,0,10.05-3.91,11.08-9.1C-212.44,202.31-215.39,202.52-219.84,202.52"/>
	<polygon class="st2" points="-318.94,6.35 -310.95,-1.64 -304.2,-8.39 -302.83,-9.76 -302.83,-11.7 -302.83,-28.87 -276.65,-28.87 
		-276.44,-28.31 -273.8,-28.48 -263.19,-6.24 -273.4,-33.55 -307.51,-33.55 -307.51,-11.7 -314.26,-4.95 -314.26,-57.86 
		-318.94,5.09 	"/>
	<path class="st2" d="M-365.85-2.34h4.68v-4.68v-50.84c0-4.24,3.45-7.69,7.7-7.69h5.07c1.34-0.5,2.78-0.78,4.29-0.78l17.47-3.9
		h-26.83c-6.84,0-12.38,5.54-12.38,12.38v50.84h-5.11v4.68H-365.85z"/>
	<path class="st2" d="M-317.09-65.73c-1.01-1.22-2.25-2.25-3.65-3.01C-319.34-67.98-318.1-66.95-317.09-65.73"/>
	<path class="st2" d="M-198.49,130.13l-15.5,10.05l-2.13,1.38v2.54v52.47c0,2.61-1.53,4.87-3.73,5.94c4.46,0,7.4-0.21,8.19-3.74
		c0.14-0.71,0.22-1.44,0.22-2.19c0,0,0,0,0-0.01v-52.47l17.63-11.43V47.22c0-1.29-1.05-2.34-2.34-2.34c-1.29,0-2.34,1.05-2.34,2.34
		V130.13z"/>
	<path class="st2" d="M-348.4-65.55h21.76c4.24,0,7.7,3.45,7.7,7.69v52.9V5.09l4.68-62.95c0-1.28-0.19-2.52-0.56-3.68
		c-0.48-1.55-1.26-2.97-2.27-4.19c-1.01-1.22-2.25-2.25-3.65-3.01c-1.75-0.95-3.76-1.49-5.9-1.49l-17.47,3.9
		C-345.62-66.33-347.06-66.05-348.4-65.55"/>
	<path class="st2" d="M-273.79-28.48l-2.65,0.17l8.87,23.71l1.14,3.04h3.25h50.08l14.63,9.27v17.66c0,1.29,1.05,2.34,2.34,2.34
		c1.29,0,2.34-1.05,2.34-2.34V5.14l-17.95-11.38h-51.44L-273.79-28.48z"/>
	<polygon class="st2" points="-365.85,138.52 -369.27,138.5 -370.33,141.75 -377.63,164.01 -374.47,164.28 -365.88,143.21 
		-320.36,138.87 	"/>
	<polygon class="st2" points="-375.64,-27.31 -375.64,-7.02 -375.64,-2.34 -370.95,-2.34 -370.95,-7.02 -370.95,-31.99 
		-387.23,-27.31 	"/>
	<polygon class="st2" points="-271.48,139.71 -276.17,139.71 -276.17,144.39 -276.17,164.63 -271.48,165.06 -271.48,144.39 
		-271.45,144.39 -271.45,139.71 	"/>
	<line class="st11" x1="-308.91" y1="16" x2="-269.98" y2="16"/>
	<line class="st11" x1="-308.91" y1="20.68" x2="-269.98" y2="20.68"/>
	<line class="st11" x1="-308.91" y1="25.37" x2="-269.98" y2="25.37"/>
	<line class="st11" x1="-308.91" y1="30.05" x2="-269.98" y2="30.05"/>
	<line class="st11" x1="-308.13" y1="119.01" x2="-269.2" y2="119.01"/>
	<line class="st11" x1="-308.13" y1="61.27" x2="-269.2" y2="61.27"/>
	<line class="st12" x1="-308.13" y1="65.95" x2="-269.2" y2="65.95"/>
	<line class="st11" x1="-340.95" y1="89.4" x2="-340.95" y2="128.33"/>
	<line class="st11" x1="-269.98" y1="36.82" x2="-288.57" y2="36.82"/>
	<line class="st11" x1="-269.98" y1="42.29" x2="-288.57" y2="42.29"/>
	<line class="st12" x1="-269.98" y1="47.75" x2="-288.57" y2="47.75"/>
	<line class="st11" x1="-326.88" y1="22.7" x2="-326.88" y2="4.12"/>
	<line class="st11" x1="-279.35" y1="123.45" x2="-297.93" y2="123.45"/>
	<line class="st11" x1="-361.2" y1="110.03" x2="-361.2" y2="128.47"/>
	<line class="st11" x1="-381.63" y1="89.59" x2="-400.08" y2="89.59"/>
	<line class="st11" x1="-361.2" y1="2.73" x2="-361.2" y2="98.44"/>
	<line class="st11" x1="-354.96" y1="2.73" x2="-354.96" y2="128.47"/>
	<line class="st11" x1="-348.71" y1="2.73" x2="-348.71" y2="128.47"/>
	<path class="st7" d="M-391.24,42.31l14.05,8.11v16.22l-14.05,8.11l-14.05-8.11V50.42L-391.24,42.31z M-391.24,37.81l-17.95,10.36
		V68.9l17.95,10.36l17.95-10.36V48.17L-391.24,37.81z"/>
	<path class="st7" d="M-300.33,77.43l14.05,8.11v16.22l-14.05,8.11l-14.05-8.11V85.54L-300.33,77.43z M-300.33,72.93l-17.95,10.36
		v20.73l17.95,10.36l17.95-10.36V83.29L-300.33,72.93z"/>
	<line class="st11" x1="-406.85" y1="84.29" x2="-374.21" y2="84.29"/>
	<polygon class="st7" points="-252.72,86.97 -258.97,90.58 -258.97,95.08 -252.72,91.48 -238.68,99.59 -238.68,115.81 
		-252.72,123.92 -258.97,120.31 -258.97,124.82 -252.72,128.42 -234.77,118.06 -234.77,97.34 	"/>
	<polygon class="st7" points="-205.12,11.27 -198.88,14.88 -198.88,19.38 -205.12,15.78 -219.17,23.89 -219.17,40.11 -205.12,48.22 
		-198.88,44.61 -198.88,49.12 -205.12,52.73 -223.07,42.36 -223.07,21.64 	"/>
</g>
<g>
	<path class="st5" d="M553.61,116.68c-10.1,2.34-16.39,12.42-14.05,22.52c2.34,10.1,12.42,16.39,22.52,14.05l-0.88,1.74l-7.83-38.25
		L553.61,116.68z"/>
	<path class="st5" d="M580.2,163.94l12.42,53.63l10.26-2.37l-12.42-53.63C590.46,161.57,580.18,163.95,580.2,163.94"/>
	<polygon class="st5" points="592.36,93.15 606.02,152.15 698.08,171.58 668.4,43.36 	"/>
	<polygon class="st5" points="557.11,104.05 569.98,159.63 601.33,157.51 587.34,97.05 	"/>
	<path class="st5" d="M713.32-15.14h-32.06c-2.95,0-5.34,2.4-5.34,5.34v32.06c0,2.95,2.4,5.34,5.34,5.34h32.06
		c2.95,0,5.34-2.4,5.34-5.34V-9.8C718.67-12.74,716.27-15.14,713.32-15.14"/>
	<path class="st7" d="M711.99,6.23h-6.68V0.89c0-1.47,1.2-1.34,2.67-1.34h2.67v-6.68h-5.34c-4.43,0-8.02,3.59-8.02,8.02v5.34h-5.34
		v6.68h5.34v14.7h8.02v-14.7h4.01L711.99,6.23z"/>
	<path class="st5" d="M765.06,105.06c-3.31,3.44-2.63,7.1-2.63,18.2c0,9.22-1.61,18.47,6.81,20.64c2.63,0.68,25.93,0.68,28.55,0
		c3.51-0.9,6.36-3.75,6.75-8.71c0.05-0.69,0.05-23.16,0-23.87c-0.41-5.28-3.67-8.32-7.95-8.94c-0.98-0.14-1.18-0.18-6.22-0.19
		C772.5,102.2,768.58,101.41,765.06,105.06"/>
	<path class="st7" d="M783.5,107.71c-6.38,0-12.43-0.57-14.75,5.37c-0.96,2.45-0.82,5.64-0.82,10.19c0,4-0.13,7.76,0.82,10.2
		c2.31,5.94,8.41,5.37,14.74,5.37c6.11,0,12.4,0.64,14.74-5.37c0.96-2.48,0.82-5.61,0.82-10.2c0-6.08,0.34-10.01-2.61-12.95
		C793.45,107.34,789.42,107.71,783.5,107.71L783.5,107.71z M782.1,110.51c13.3-0.02,15-1.5,14.06,19.04
		c-0.33,7.27-5.86,6.47-12.67,6.47c-12.4,0-12.76-0.36-12.76-12.76C770.74,110.72,771.72,110.52,782.1,110.51L782.1,110.51z
		 M791.8,113.1c-1.03,0-1.87,0.84-1.87,1.87c0,1.03,0.84,1.87,1.87,1.87c1.03,0,1.87-0.84,1.87-1.87
		C793.67,113.93,792.83,113.1,791.8,113.1 M783.5,115.28c-4.41,0-7.99,3.58-7.99,7.99c0,4.41,3.58,7.99,7.99,7.99
		c4.41,0,7.99-3.58,7.99-7.99C791.48,118.86,787.91,115.28,783.5,115.28 M783.5,118.09c6.86,0,6.87,10.38,0,10.38
		C776.64,128.46,776.63,118.09,783.5,118.09"/>
	<path class="st5" d="M797.04,39.81c-1.8,0.79-3.71,1.31-5.71,1.56c2.05-1.23,3.62-3.15,4.36-5.48c-1.91,1.14-4.03,1.95-6.28,2.4
		c-1.82-1.94-4.41-3.14-7.24-3.14c-5.48,0-9.9,4.45-9.9,9.91c0,0.78,0.07,1.54,0.23,2.26c-8.24-0.4-15.52-4.35-20.42-10.36
		c-0.85,1.48-1.35,3.18-1.35,5.01c0,3.43,1.77,6.47,4.4,8.23c-1.59-0.03-3.15-0.49-4.48-1.22v0.11c0,4.81,3.43,8.81,7.94,9.73
		c-0.81,0.22-1.69,0.33-2.6,0.33c-0.63,0-1.27-0.04-1.88-0.17c1.28,3.92,4.93,6.81,9.26,6.9c-3.37,2.64-7.65,4.23-12.28,4.23
		c-0.81,0-1.59-0.04-2.37-0.14c4.39,2.83,9.59,4.45,15.2,4.45c18.23,0,28.2-15.1,28.2-28.19c0-0.44-0.02-0.86-0.04-1.28
		C794.04,43.56,795.69,41.82,797.04,39.81"/>
	
		<rect x="556.49" y="100.75" transform="matrix(0.9742 -0.2255 0.2255 0.9742 -15.0746 133.1057)" class="st13" width="37.03" height="63.56"/>
	<path class="st13" d="M561.2,154.99l-11.64,2.69c-5.96,1.38-11.91-2.33-13.29-8.29l-3.47-14.99c-1.38-5.96,2.33-11.91,8.29-13.29
		l11.64-2.69L561.2,154.99z"/>
	
		<rect x="580.87" y="162.78" transform="matrix(0.9742 -0.2256 0.2256 0.9742 -27.7646 137.6567)" class="st13" width="15.01" height="55.05"/>
	<polygon class="st13" points="585.88,97.39 600.21,159.31 698.08,171.58 690.41,138.43 676.07,76.51 668.4,43.36 	"/>
	<line class="st14" x1="692.16" y1="72.79" x2="718.74" y2="52.25"/>
	<line class="st14" x1="741.1" y1="137.82" x2="707.79" y2="133.55"/>
	<line class="st14" x1="707.44" y1="98.78" x2="742.95" y2="90.56"/>
</g>
<g>
	<path class="st5" d="M-94.44,446.25c-0.94-0.5-1.59-1.49-1.59-2.63v-32.98h-0.94l5.16-13.1c0.42-1.06,1.43-1.75,2.57-1.75
		c0.19,0,0.37,0.02,0.54,0.05v-7.23c0,0-2.38-5.19-7.36-5.19h-35.36c-2.64,0-4.78,2.14-4.79,4.78l-0.18,59.92
		c-0.01,1.95,1.47,3.58,3.4,3.77l40.14,4.03c0,0,3.5-2.08,4.15-5.22v-1.15h-1.59C-92.3,449.54-94,448.13-94.44,446.25"/>
	<path class="st2" d="M-139.38,398.8h-4.12c-0.55,0-1-0.45-1-1c0-0.55,0.45-1,1-1h4.12c0.55,0,1,0.45,1,1
		C-138.38,398.35-138.83,398.8-139.38,398.8"/>
	<path class="st2" d="M-139.38,407.39h-4.12c-0.55,0-1-0.45-1-1c0-0.55,0.45-1,1-1h4.12c0.55,0,1,0.45,1,1
		C-138.38,406.94-138.83,407.39-139.38,407.39"/>
	<path class="st2" d="M-139.38,415.98h-4.12c-0.55,0-1-0.45-1-1c0-0.55,0.45-1,1-1h4.12c0.55,0,1,0.45,1,1
		C-138.38,415.53-138.83,415.98-139.38,415.98"/>
	<path class="st2" d="M-139.38,424.57h-4.12c-0.55,0-1-0.45-1-1c0-0.55,0.45-1,1-1h4.12c0.55,0,1,0.45,1,1
		C-138.38,424.12-138.83,424.57-139.38,424.57"/>
	<path class="st2" d="M-139.38,433.16h-4.12c-0.55,0-1-0.45-1-1s0.45-1,1-1h4.12c0.55,0,1,0.45,1,1S-138.83,433.16-139.38,433.16"/>
	<path class="st2" d="M-139.38,441.75h-4.12c-0.55,0-1-0.45-1-1s0.45-1,1-1h4.12c0.55,0,1,0.45,1,1S-138.83,441.75-139.38,441.75"/>
	<path class="st7" d="M-90.28,446.54c-0.7,0-1.28-0.57-1.28-1.28v-1.68h-1.48v-31.98h7.6v31.98h-1.48v1.68
		c0,0.67-0.52,1.23-1.2,1.27c0,0-0.07,0.01-0.08,0.01H-90.28z"/>
	<path class="st2" d="M-86.43,412.61v29.98h-1.48v2v0.68c0,0.15-0.11,0.27-0.26,0.28l-0.04,0l-0.01,0h-1.82h-0.24
		c-0.15,0-0.28-0.13-0.28-0.28v-0.68v-2h-1.48v-29.98H-86.43 M-84.43,410.62h-9.6v33c0,0.54,0.44,0.97,0.97,0.97h0.5v0.68
		c0,1.26,1.02,2.28,2.28,2.28h0.24h1.85c0.05,0,0.1,0,0.15-0.01c1.19-0.08,2.13-1.06,2.13-2.27v-0.68h0.5
		c0.54,0,0.97-0.44,0.97-0.97V410.62z"/>
	<path class="st2" d="M-90.04,449.54v0.15c0,2.89-2.35,5.24-5.24,5.24h-39.86c-2.89,0-5.24-2.35-5.24-5.24v-59.84
		c0-2.89,2.35-5.24,5.24-5.24h39.86c2.89,0,5.24,2.35,5.24,5.24v5.16c0,0.44,0.36,0.77,0.8,0.77h0.01c0.12,0,0.23,0.01,0.34,0.02
		c0.45,0.06,0.85-0.31,0.85-0.77v-5.18c0-4-3.24-7.24-7.24-7.24h-39.86c-4,0-7.24,3.24-7.24,7.24v59.84c0,4,3.24,7.24,7.24,7.24
		h39.86c4,0,7.24-3.24,7.24-7.24v-0.16c-0.05,0-0.1,0.01-0.15,0.01H-90.04z"/>
	<polygon class="st7" points="-92.57,407.64 -89.23,399.18 -85.9,407.64 	"/>
	<path class="st2" d="M-89.23,401.9l1.87,4.73h-0.67h-2h-1.06L-89.23,401.9 M-89.23,397.78c-0.29,0-0.59,0.16-0.71,0.49l-0.09,0.23
		l-4,10.14h4h2h3.61l-3.61-9.15l-0.48-1.21C-88.65,397.94-88.94,397.78-89.23,397.78"/>
	<path class="st2" d="M-81.88,427.6c-0.46,0-0.83,0.37-0.83,0.83v12.92c0,0.46,0.37,0.83,0.83,0.83c0.46,0,0.83-0.37,0.83-0.83
		v-12.92C-81.05,427.97-81.42,427.6-81.88,427.6"/>
	<rect x="-92.83" y="442.35" class="st2" width="6.39" height="1.8"/>
	<path class="st15" d="M-97.62,392.61h-33.05c-0.55,0-1-0.45-1-1c0-0.55,0.45-1,1-1h33.05c0.55,0,1,0.45,1,1
		C-96.62,392.16-97.07,392.61-97.62,392.61"/>
	<path class="st15" d="M-97.62,397.4h-33.05c-0.55,0-1-0.45-1-1c0-0.55,0.45-1,1-1h33.05c0.55,0,1,0.45,1,1
		C-96.62,396.95-97.07,397.4-97.62,397.4"/>
	<path class="st15" d="M-107.79,402.19h-22.88c-0.55,0-1-0.45-1-1c0-0.55,0.45-1,1-1h22.88c0.55,0,1,0.45,1,1
		C-106.79,401.75-107.24,402.19-107.79,402.19"/>
	<path class="st15" d="M-107.79,412.98h-22.88c-0.55,0-1-0.45-1-1c0-0.55,0.45-1,1-1h22.88c0.55,0,1,0.45,1,1
		C-106.79,412.54-107.24,412.98-107.79,412.98"/>
	<path class="st15" d="M-107.79,419.38h-22.88c-0.55,0-1-0.45-1-1c0-0.55,0.45-1,1-1h22.88c0.55,0,1,0.45,1,1
		C-106.79,418.93-107.24,419.38-107.79,419.38"/>
	<path class="st15" d="M-107.79,425.57h-22.88c-0.55,0-1-0.45-1-1c0-0.55,0.45-1,1-1h22.88c0.55,0,1,0.45,1,1
		C-106.79,425.12-107.24,425.57-107.79,425.57"/>
	<path class="st15" d="M-102.02,437.16h-13.98c-0.55,0-1-0.45-1-1c0-0.55,0.45-1,1-1h13.98c0.55,0,1,0.45,1,1
		C-101.02,436.71-101.47,437.16-102.02,437.16"/>
	<path class="st15" d="M-102.02,441.75h-13.98c-0.55,0-1-0.45-1-1c0-0.55,0.45-1,1-1h13.98c0.55,0,1,0.45,1,1
		C-101.02,441.3-101.47,441.75-102.02,441.75"/>
</g>
<g>
	<rect x="8.18" y="26.05" class="st5" width="257.17" height="14.94"/>
	<rect x="8.97" y="184.91" class="st5" width="257.17" height="14.94"/>
	<polygon class="st5" points="132.79,203.79 131.65,237.61 150.53,239.96 150.51,203.79 	"/>
	<path class="st5" d="M112.48,243.9c0,0-15.43,6.29-14.64,12.58l87.29,2.36c0,0,0.95-5.97-5.42-10.06
		c-6.37-4.09-16.63-5.67-24.87-4.88C146.59,244.68,112.48,243.9,112.48,243.9"/>
	<path class="st5" d="M115.92,72.06c0,8.9-7.22,16.12-16.12,16.12s-16.12-7.22-16.12-16.12c0-8.9,7.22-16.12,16.12-16.12
		S115.92,63.16,115.92,72.06"/>
	<polygon class="st5" points="124.51,62.59 109.25,90.98 95.19,124.85 93.97,127.77 91.33,134.14 89.18,139.3 94.3,139.54 
		100.84,139.83 103.52,139.96 157.76,142.45 168.56,142.45 	"/>
	<polygon class="st5" points="72.99,141.87 84.14,121.11 65.31,86.97 53.54,108.88 40.42,140.38 	"/>
	<polygon class="st2" points="96.18,142.93 85.59,142.45 81.6,142.45 81.7,142.27 72.99,141.87 72.25,143.23 96.35,143.23 	"/>
	<polygon class="st2" points="109.25,90.98 124.46,54.36 174.91,143.23 157.76,142.45 104.89,142.45 109.23,150.31 181.88,150.31 
		124.41,46.14 88.57,112.86 93.09,121.06 	"/>
	<polygon class="st2" points="85.59,142.45 96.18,142.93 95.91,142.45 	"/>
	<polygon class="st2" points="84.14,121.11 72.99,141.87 81.7,142.27 88.66,129.3 	"/>
	<polygon class="st2" points="168.56,142.45 157.76,142.45 174.91,143.23 124.46,54.36 109.25,90.98 124.51,62.59 	"/>
	<polygon class="st2" points="109.23,150.31 68.45,150.31 72.25,143.23 35.08,143.23 53.54,108.88 65.31,86.97 84.14,121.11 
		87.08,115.64 88.57,112.86 65.22,70.52 21.93,151.1 	"/>
	<polygon class="st2" points="91.67,123.71 93.09,121.06 88.57,112.86 87.08,115.64 	"/>
	<polygon class="st2" points="102.33,142.45 102.77,143.23 96.18,142.93 96.35,143.23 72.25,143.23 68.45,150.31 109.23,150.31 
		104.89,142.45 	"/>
	<polygon class="st2" points="96.18,142.93 102.77,143.23 102.33,142.45 95.91,142.45 	"/>
	<polygon class="st2" points="88.66,129.31 91.67,123.71 87.08,115.64 84.14,121.11 	"/>
	<path class="st5" d="M212.57,97.1c-0.73,1.05-16.83,30.04-16.83,30.04l7.74,18.85l0.94,2.28l-1.89,4.82l-2.18,5.56l2.45,0.11
		l2.52,0.11l20.99,0.9l-4.45-10.75l8.98-17.66l1.14-2.24l1.01-1.99C232.96,127.13,214.23,99.49,212.57,97.1"/>
	<path class="st2" d="M234.62,126.84L211.18,93.2l-1.52,2.18c-0.74,1.05-21.38,30.7-21.38,30.7l-0.62,0.89l10.77,22.15L191,163.48
		l12.62-0.05l2.56-0.01l25.09-0.1l-7.41-14.34L234.62,126.84z M211.2,123.1c2.18,0,3.95,1.77,3.95,3.95c0,2.18-1.77,3.95-3.95,3.95
		c-2.18,0-3.95-1.77-3.95-3.95C207.25,124.88,209.02,123.1,211.2,123.1 M191.94,127.31c2.53-3.63,12.17-17.48,17.39-24.96v17.28
		c-3.32,0.84-5.79,3.84-5.79,7.42c0,4.22,3.44,7.66,7.66,7.66c4.22,0,7.66-3.44,7.66-7.66c0-3.59-2.49-6.6-5.82-7.43v-17.28
		l17.29,24.83l-9.72,19.99H201.6L191.94,127.31z M225.18,159.64l-19.75,0.08l-2.51,0.01l-5.81,0.02l4.59-8.88h18.95L225.18,159.64z"
		/>
	<path class="st2" d="M239.39,89.55V79.13h-10.42v3.36h-12.86c-0.76-2.09-2.76-3.59-5.11-3.59c-2.35,0-4.35,1.5-5.11,3.59h-12.7
		v-3.36h-10.42v10.42h10.42v-3.36h5.76c-0.05,0.03-0.09,0.07-0.14,0.1c-3.62,2.63-8.05,7.54-9.17,16.13
		c-2.17,0.71-3.75,2.76-3.75,5.17c0,3,2.44,5.44,5.44,5.44c3,0,5.44-2.44,5.44-5.44c0-2.28-1.41-4.24-3.41-5.05
		c1.57-10.94,9.25-14.75,12.7-15.92c0.87,1.86,2.75,3.15,4.93,3.15c2.21,0,4.11-1.32,4.96-3.22c3.35,1.1,11.26,4.83,12.88,15.91
		c-2.1,0.75-3.62,2.76-3.62,5.12c0,3,2.44,5.44,5.44,5.44c3,0,5.44-2.44,5.44-5.44c0-2.32-1.47-4.31-3.52-5.09
		c-1.1-8.65-5.54-13.58-9.18-16.22c-0.05-0.03-0.09-0.07-0.14-0.1h5.7v3.36H239.39z M189.48,85.84h-3v-3h3V85.84z M191.34,109.33
		c-0.96,0-1.74-0.78-1.74-1.74c0-0.96,0.78-1.74,1.74-1.74s1.74,0.78,1.74,1.74C193.07,108.56,192.29,109.33,191.34,109.33
		 M230.67,109.33c-0.96,0-1.74-0.78-1.74-1.74c0-0.96,0.78-1.74,1.74-1.74c0.96,0,1.74,0.78,1.74,1.74
		C232.41,108.56,231.63,109.33,230.67,109.33 M211,86.08c-0.96,0-1.74-0.78-1.74-1.74c0-0.96,0.78-1.74,1.74-1.74
		c0.96,0,1.74,0.78,1.74,1.74C212.74,85.3,211.96,86.08,211,86.08 M232.68,82.84h3v3h-3V82.84z"/>
	<path class="st2" d="M8.18,173.58c-2.17,0-3.93-1.76-3.93-3.93V36.3c0-7.82,6.36-14.18,14.18-14.18H255.1
		c7.82,0,14.18,6.36,14.18,14.18v11.02c0,2.17-1.76,3.93-3.93,3.93c-2.17,0-3.93-1.76-3.93-3.93V36.3c0-3.48-2.83-6.32-6.32-6.32
		H18.43c-3.48,0-6.31,2.83-6.31,6.32v133.35C12.11,171.82,10.35,173.58,8.18,173.58"/>
	<path class="st2" d="M255.1,207.72H18.43c-7.82,0-14.18-6.36-14.18-14.18v-23.89c0-2.17,1.76-3.93,3.93-3.93s3.93,1.76,3.93,3.93
		v23.89c0,3.48,2.83,6.32,6.32,6.32H255.1c3.48,0,6.32-2.83,6.32-6.32V78.9c0-2.17,1.76-3.93,3.93-3.93c2.17,0,3.93,1.76,3.93,3.93
		v114.64C269.28,201.36,262.92,207.72,255.1,207.72"/>
	<path class="st2" d="M153.28,247.83h-33.03v-47.97h33.03V247.83z M128.11,239.96h17.3v-32.24h-17.3V239.96z"/>
	<path class="st2" d="M189.85,266.7H84.46v-3.93c0-12.57,10.23-22.81,22.81-22.81h59.77c12.58,0,22.81,10.23,22.81,22.81V266.7z
		 M92.85,258.84h88.6c-1.73-6.34-7.54-11.01-14.42-11.01h-59.77C100.39,247.83,94.59,252.5,92.85,258.84"/>
</g>
</svg>
