<?xml version="1.0" encoding="utf-8"?>
<!-- Generator: Adobe Illustrator 23.0.5, SVG Export Plug-In . SVG Version: 6.00 Build 0)  -->
<svg version="1.1" id="Layer_1" xmlns="http://www.w3.org/2000/svg" xmlns:xlink="http://www.w3.org/1999/xlink" x="0px" y="0px"
	 viewBox="0 0 283.5 283.5" style="enable-background:new 0 0 283.5 283.5;" xml:space="preserve">
<style type="text/css">
	.st0{fill:#FCEE21;}
	.st1{fill:#F7931E;}
	.st2{fill:#F15A24;}
	.st3{fill:#0E142F;}
	.st4{fill:#FF0000;}
	.st5{fill:#E6E6E6;}
	.st6{fill:#FFFFFF;}
</style>
<rect x="5.6" y="15.9" width="272.5" height="15.3"/>
<rect x="6.4" y="178.3" width="272.5" height="15.3"/>
<polygon points="137.6,197.6 136.4,232.2 156.4,234.6 156.4,197.6 "/>
<path d="M116.1,238.6c0,0-16.3,6.4-15.5,12.9l92.5,2.4c0,0,1-6.1-5.7-10.3c-6.8-4.2-17.6-5.8-26.3-5
	C152.2,239.4,116.1,238.6,116.1,238.6"/>
<path class="st0" d="M119.7,62.9c0,9.1-7.6,16.5-17.1,16.5S85.6,72,85.6,62.9c0-9.1,7.6-16.5,17.1-16.5S119.7,53.8,119.7,62.9"/>
<polygon class="st1" points="128.8,53.3 112.6,82.3 97.7,116.9 96.5,119.9 93.7,126.4 91.4,131.7 96.8,131.9 103.7,132.2 
	106.6,132.4 164,134.9 175.5,134.9 "/>
<polygon class="st2" points="74.2,134.3 86,113.1 66.1,78.2 53.6,100.6 39.7,132.8 "/>
<polygon class="st3" points="98.8,135.4 87.6,134.9 83.4,134.9 83.5,134.7 74.2,134.3 73.4,135.7 99,135.7 "/>
<polygon class="st3" points="112.6,82.3 128.8,44.8 182.2,135.7 164,134.9 108,134.9 112.6,143 189.6,143 128.7,36.4 90.7,104.7 
	95.5,113 "/>
<polygon class="st3" points="87.6,134.9 98.8,135.4 98.5,134.9 "/>
<polygon class="st3" points="86,113.1 74.2,134.3 83.5,134.7 90.8,121.5 "/>
<polygon class="st3" points="175.5,134.9 164,134.9 182.2,135.7 128.8,44.8 112.6,82.3 128.8,53.3 "/>
<polygon class="st3" points="112.6,143 69.4,143 73.4,135.7 34.1,135.7 53.6,100.6 66.1,78.2 86,113.1 89.2,107.5 90.7,104.7 
	66,61.4 20.1,143.8 "/>
<polygon class="st3" points="94,115.8 95.5,113 90.7,104.7 89.1,107.5 "/>
<polygon class="st3" points="105.3,134.9 105.8,135.7 98.8,135.4 99,135.7 73.4,135.7 69.4,143 112.6,143 108,134.9 "/>
<polygon class="st3" points="98.8,135.4 105.8,135.7 105.3,134.9 98.5,134.9 "/>
<polygon class="st3" points="90.8,121.5 94,115.8 89.1,107.5 86,113.1 "/>
<path class="st4" d="M213.5,140.9L213.5,140.9l-2,4.9l-2.3,5.7l2.6,0.1l2.7,0.1l22.2,0.9l-4.7-11l0.1-0.2
	C226.1,140.2,219.5,141.3,213.5,140.9z"/>
<path class="st5" d="M222.1,88.5c-0.2,0.3-1.6,2.6-3.4,5.8v17.3c-3.5,0.9-6.1,3.9-6.1,7.6c0,4.3,3.6,7.8,8.1,7.8
	c4.5,0,8.1-3.5,8.1-7.8c0-3.7-2.6-6.8-6.2-7.6V93.9l18.3,25.4l-10.3,20.4H213l0.5,1.1c6,0.4,12.6-0.7,18.6,0.5l9.4-17.8l1.2-2.3
	l1.1-2C243.7,119.2,223.9,91,222.1,88.5z M224.8,119.2c0,2.2-1.9,4-4.2,4c-2.3,0-4.2-1.8-4.2-4c0-2.2,1.9-4,4.2-4
	C223,115.1,224.8,116.9,224.8,119.2z"/>
<path class="st3" d="M245.5,119l-24.8-34.4l-1.6,2.2c-0.8,1.1-22.7,31.4-22.7,31.4l-0.7,0.9l11.4,22.6l-7.9,14.7l13.4-0.1l2.7,0
	l26.6-0.1l-7.9-14.7L245.5,119z M220.7,115.1c2.3,0,4.2,1.8,4.2,4c0,2.2-1.9,4-4.2,4c-2.3,0-4.2-1.8-4.2-4
	C216.5,116.9,218.4,115.1,220.7,115.1z M200.3,119.4c2.7-3.7,12.9-17.9,18.4-25.5v17.7c-3.5,0.9-6.1,3.9-6.1,7.6
	c0,4.3,3.6,7.8,8.1,7.8c4.5,0,8.1-3.5,8.1-7.8c0-3.7-2.6-6.8-6.2-7.6V93.9l18.3,25.4l-10.3,20.4h-20.1L200.3,119.4z M235.5,152.5
	l-20.9,0.1l-2.7,0l-6.2,0l4.9-9.1h20.1L235.5,152.5z"/>
<polygon class="st4" points="235.5,152.5 214.5,152.6 211.9,152.6 205.7,152.6 210.6,143.5 230.7,143.5 "/>
<path class="st5" d="M240.9,119.3l-10.3,20.4H213l-0.5-1.2l-8.2-19.3c0,0,9.2-16,14.4-24.9v17.3c-3.5,0.9-6.1,3.9-6.1,7.6
	c0,4.3,3.6,7.8,8.1,7.8c4.5,0,8.1-3.5,8.1-7.8c0-3.7-2.6-6.8-6.2-7.6V93.9L240.9,119.3z"/>
<path class="st6" d="M224.8,119.2c0,2.2-1.9,4-4.2,4c-2.3,0-4.2-1.8-4.2-4c0-2.2,1.9-4,4.2-4C223,115.1,224.8,116.9,224.8,119.2z"/>
<path class="st3" d="M250.5,80.8V70.2h-11v3.4h-13.6c-0.8-2.1-2.9-3.7-5.4-3.7c-2.5,0-4.6,1.5-5.4,3.7h-13.5v-3.4h-11v10.7h11v-3.4
	h6.1c0,0-0.1,0.1-0.1,0.1c-3.8,2.7-8.5,7.7-9.7,16.5c-2.3,0.7-4,2.8-4,5.3c0,3.1,2.6,5.6,5.8,5.6c3.2,0,5.8-2.5,5.8-5.6
	c0-2.3-1.5-4.3-3.6-5.2c1.7-11.2,9.8-15.1,13.5-16.3c0.9,1.9,2.9,3.2,5.2,3.2c2.3,0,4.4-1.4,5.3-3.3c3.6,1.1,11.9,4.9,13.6,16.3
	c-2.2,0.8-3.8,2.8-3.8,5.2c0,3.1,2.6,5.6,5.8,5.6c3.2,0,5.8-2.5,5.8-5.6c0-2.4-1.6-4.4-3.7-5.2c-1.2-8.8-5.9-13.9-9.7-16.6
	c0,0-0.1-0.1-0.1-0.1h6v3.4H250.5z M197.7,77h-3.2V74h3.2V77z M199.6,101.1c-1,0-1.8-0.8-1.8-1.8c0-1,0.8-1.8,1.8-1.8
	c1,0,1.8,0.8,1.8,1.8C201.5,100.3,200.6,101.1,199.6,101.1 M241.3,101.1c-1,0-1.8-0.8-1.8-1.8c0-1,0.8-1.8,1.8-1.8
	c1,0,1.8,0.8,1.8,1.8C243.1,100.3,242.3,101.1,241.3,101.1 M220.5,77.3c-1,0-1.8-0.8-1.8-1.8c0-1,0.8-1.8,1.8-1.8
	c1,0,1.8,0.8,1.8,1.8C222.3,76.5,221.5,77.3,220.5,77.3 M243.4,74h3.2V77h-3.2V74z"/>
<path class="st3" d="M5.6,166.7c-2.3,0-4.2-1.8-4.2-4V26.4c0-8,6.7-14.5,15-14.5h250.8c8.3,0,15,6.5,15,14.5v11.3c0,2.2-1.9,4-4.2,4
	c-2.3,0-4.2-1.8-4.2-4V26.4c0-3.6-3-6.5-6.7-6.5H16.4c-3.7,0-6.7,2.9-6.7,6.5v136.3C9.7,164.9,7.9,166.7,5.6,166.7"/>
<path class="st3" d="M267.2,201.7H16.4c-8.3,0-15-6.5-15-14.5v-24.4c0-2.2,1.9-4,4.2-4s4.2,1.8,4.2,4v24.4c0,3.6,3,6.5,6.7,6.5
	h250.8c3.7,0,6.7-2.9,6.7-6.5V69.9c0-2.2,1.9-4,4.2-4c2.3,0,4.2,1.8,4.2,4v117.2C282.2,195.1,275.5,201.7,267.2,201.7"/>
<path class="st3" d="M159.3,242.7h-35v-49.1h35V242.7z M132.6,234.6H151v-33h-18.3V234.6z"/>
<path class="st3" d="M198,262H86.4v-4c0-12.9,10.8-23.3,24.2-23.3h63.3c13.3,0,24.2,10.5,24.2,23.3V262z M95.3,253.9h93.9
	c-1.8-6.5-8-11.3-15.3-11.3h-63.3C103.3,242.7,97.1,247.4,95.3,253.9"/>
</svg>
