<?xml version="1.0" encoding="utf-8"?>
<!-- Generator: Adobe Illustrator 23.0.5, SVG Export Plug-In . SVG Version: 6.00 Build 0)  -->
<svg version="1.1" id="Layer_1" xmlns="http://www.w3.org/2000/svg" xmlns:xlink="http://www.w3.org/1999/xlink" x="0px" y="0px"
	 viewBox="0 0 595.28 269.07" style="enable-background:new 0 0 595.28 269.07;" xml:space="preserve">
<style type="text/css">
	.st0{fill:#4068B2;}
	.st1{fill:#0F1031;}
</style>
<path class="st0" d="M34.26,117.07c4.09,0.1,7.71-1.1,10.86-3.59c3.15-2.49,5.16-5.74,6.02-9.75l16.16-0.07
	c-0.53,5.17-2.39,9.88-5.59,14.14c-3.2,4.25-7.3,7.56-12.3,9.93c-5,2.37-10.22,3.48-15.65,3.33c-6.69-0.1-12.38-1.84-17.1-5.22
	c-4.71-3.38-8.15-8.06-10.31-14.03c-2.16-5.97-2.88-12.63-2.16-19.98L4.4,89.3c0.82-7.59,3.02-14.46,6.6-20.63
	c3.58-6.16,8.21-10.91,13.89-14.25s11.97-4.91,18.9-4.71c8.46,0.19,15.22,3.01,20.27,8.45c5.05,5.44,7.57,12.51,7.57,21.21H55.62
	c0-4.5-1.09-8.17-3.28-11.02c-2.19-2.85-5.35-4.38-9.48-4.57c-6.68-0.19-11.95,2.66-15.8,8.55c-3.85,5.9-5.91,14.21-6.2,24.94
	C20.51,110.28,24.98,116.88,34.26,117.07"/>
<polygon class="st0" points="94.13,129.61 77.04,129.61 96.3,18.25 113.39,18.25 "/>
<path class="st0" d="M117.36,90.1c0.82-7.68,3.06-14.67,6.74-20.95c3.68-6.28,8.4-11.14,14.17-14.57
	c5.77-3.43,12.17-5.05,19.19-4.86c6.68,0.1,12.46,1.88,17.31,5.36c4.86,3.48,8.4,8.24,10.64,14.28c2.24,6.04,3.02,12.76,2.34,20.16
	c-0.77,8.31-3.02,15.66-6.74,22.04c-3.73,6.38-8.49,11.27-14.28,14.68c-5.8,3.41-12.23,5.01-19.3,4.82
	c-6.63-0.1-12.37-1.87-17.2-5.33c-4.83-3.46-8.38-8.19-10.64-14.21c-2.26-6.02-3.08-12.65-2.45-19.9L117.36,90.1z M134.17,100.03
	c0.24,5.08,1.57,9.15,4,12.22c2.43,3.07,5.81,4.68,10.13,4.82c5.87,0.14,10.79-2.13,14.75-6.82c3.97-4.69,6.46-11.09,7.47-19.21
	l0.43-7.1c0-6.19-1.23-11.04-3.68-14.57c-2.45-3.53-6.01-5.39-10.67-5.58c-7.31-0.19-13.08,3.41-17.31,10.8
	c-2.55,4.49-4.16,9.67-4.83,15.51C134.07,94.16,133.98,97.47,134.17,100.03"/>
<path class="st0" d="M243.81,121.85c-5.91,6.33-13.32,9.4-22.22,9.21c-5.05-0.1-9.24-1.35-12.59-3.77
	c-3.34-2.42-5.72-5.79-7.14-10.11c-1.42-4.33-1.84-9.41-1.26-15.26l8.44-50.75h17.09l-8.51,50.97c-0.19,1.79-0.22,3.53-0.07,5.22
	c0.48,5.99,3.49,9.11,9.02,9.35c7.55,0.29,13.66-2.75,18.32-9.14l9.81-56.4h17.09l-13.49,78.44h-16.01L243.81,121.85z"/>
<path class="st0" d="M352.78,34.01c0.52-1.59,1.09-3.17,1.72-4.72c1.79-4.43,3.97-8.71,6.5-12.75c1.28-2.05,2.65-4.05,4.1-5.98
	c1.31-1.76,2.73-4.1,4.44-5.48c-9.17,6.87-16.59,16.32-21.53,27.05c-2.43,5.39-4.24,11.09-5.35,16.96c-0.53,2.94-0.92,5.91-1.1,8.92
	c-3.78-2.45-7.93-4.37-12.32-5.48c-7.38-1.91-15.28-1.52-22.57,0.8c-14.77,4.5-26.07,18.09-28.29,33.33
	c-2.54,15.19,4.41,31.37,16.79,39.8c11.86,8.7,28.4,9.5,40.56,2.7c2.31,1.68,4.81,3.05,7.47,3.9c1.51,0.49,3.07,0.78,4.62,0.94
	l4.64,0.05l-4.47-0.91c-1.45-0.42-2.83-1.02-4.15-1.67c-2.65-1.33-4.98-3.16-6.95-5.28l-0.65-0.7l-1.09,0.44
	c-6.08,2.45-12.59,3.13-18.79,2.15c-6.17-1.1-12-3.64-16.7-7.57c-9.47-7.79-14.25-20.52-11.91-32.29
	c1.94-11.74,10.72-21.96,21.94-25.7c6.83-2.28,14.3-2.17,21.13,0.06c7.35,2.39,12.33,7.12,17.92,12.17c0.78,0.7,1.55,1.4,2.32,2.1
	c-0.87-7.64-2.21-15.16-1.88-22.89C349.47,47.17,350.68,40.44,352.78,34.01"/>
<path class="st1" d="M34.26,221.42c4.09,0.1,7.71-1.1,10.86-3.59c3.15-2.49,5.16-5.74,6.02-9.75L67.29,208
	c-0.53,5.17-2.39,9.88-5.59,14.14c-3.2,4.25-7.3,7.56-12.3,9.93c-5,2.37-10.22,3.48-15.65,3.34c-6.68-0.1-12.38-1.84-17.09-5.22
	c-4.71-3.38-8.15-8.06-10.31-14.03c-2.16-5.97-2.88-12.63-2.16-19.98l0.22-2.54c0.82-7.59,3.02-14.46,6.6-20.63
	c3.58-6.16,8.21-10.91,13.88-14.25s11.97-4.91,18.9-4.71c8.46,0.19,15.22,3.01,20.27,8.45c5.05,5.44,7.57,12.51,7.57,21.21H55.61
	c0-4.5-1.09-8.17-3.28-11.02c-2.19-2.85-5.35-4.37-9.48-4.57c-6.68-0.19-11.95,2.66-15.8,8.55c-3.85,5.9-5.91,14.21-6.2,24.94
	C20.5,214.63,24.98,221.22,34.26,221.42"/>
<path class="st1" d="M79.33,194.44c0.82-7.68,3.07-14.67,6.74-20.95c3.68-6.28,8.4-11.14,14.17-14.57
	c5.77-3.43,12.16-5.05,19.18-4.86c6.69,0.1,12.45,1.88,17.31,5.36c4.86,3.48,8.41,8.24,10.65,14.28c2.24,6.04,3.01,12.76,2.33,20.16
	c-0.77,8.31-3.01,15.66-6.73,22.04c-3.73,6.38-8.49,11.27-14.28,14.68c-5.79,3.41-12.24,5.02-19.3,4.82
	c-6.64-0.1-12.37-1.87-17.2-5.33c-4.83-3.45-8.38-8.19-10.64-14.21c-2.26-6.02-3.08-12.65-2.45-19.9L79.33,194.44z M96.14,204.38
	c0.24,5.08,1.58,9.15,4.01,12.22c2.43,3.07,5.81,4.68,10.12,4.82c5.86,0.14,10.79-2.13,14.76-6.82c3.97-4.69,6.44-11.09,7.45-19.21
	l0.43-7.1c0-6.19-1.23-11.04-3.68-14.57c-2.45-3.53-6.01-5.39-10.68-5.58c-7.31-0.19-13.07,3.41-17.3,10.8
	c-2.55,4.5-4.16,9.67-4.83,15.51C96.04,198.51,95.94,201.82,96.14,204.38"/>
<path class="st1" d="M186.28,155.44l-1.52,8.34c6.44-6.67,14.14-9.91,23.08-9.72c4.91,0.1,8.98,1.23,12.23,3.41
	c3.25,2.17,5.45,5.05,6.6,8.63c7.21-8.22,15.48-12.23,24.81-12.04c7.6,0.19,13.24,2.82,16.92,7.87c3.68,5.05,5.06,12.12,4.15,21.21
	l-8.44,50.82h-17.09l8.51-50.97c0.24-2.13,0.26-4.08,0.07-5.87c-0.77-5.65-4.33-8.55-10.67-8.7c-7.07-0.19-12.65,3.7-16.74,11.67
	l-0.22,1.6l-8.95,52.27h-17.17l8.51-50.75c0.24-2.08,0.26-4.01,0.07-5.8c-0.77-5.85-4.33-8.85-10.68-8.99
	c-6.4-0.1-11.73,2.78-16.01,8.63l-9.88,56.91h-17.09l13.49-78.45L186.28,155.44z"/>
<path class="st1" d="M410.44,233.96c-0.58-1.93-0.82-4.37-0.72-7.32c-6.44,6.04-13.39,8.97-20.84,8.77
	c-6.78-0.1-12.4-2.28-16.84-6.56c-4.45-4.28-6.53-9.7-6.24-16.28c0.39-8.27,3.94-14.77,10.67-19.5c6.74-4.74,15.77-7.11,27.12-7.11
	l11.11,0.15l1.01-5.37c0.29-1.88,0.29-3.65,0-5.29c-0.96-5.22-4.4-7.9-10.31-8.05c-3.65-0.1-6.86,0.83-9.63,2.79
	c-2.77,1.96-4.46,4.58-5.09,7.87l-17.09,0.14c0.33-4.83,2.04-9.07,5.12-12.72c3.08-3.65,7.16-6.49,12.26-8.52
	c5.1-2.03,10.48-3,16.16-2.9c8.51,0.19,15.15,2.77,19.91,7.72c4.76,4.95,6.73,11.37,5.91,19.25l-5.99,36.76l-0.58,6.53
	c-0.14,2.85,0.22,5.63,1.08,8.34l-0.07,1.31H410.44z M392.84,221.34c3.61,0.1,6.95-0.74,10.03-2.5c3.08-1.76,5.7-4.05,7.86-6.85
	l2.67-14.86l-8.15-0.07c-6.45,0-11.59,1.22-15.44,3.66c-3.85,2.44-6.03,5.79-6.56,10.04c-0.39,3.24,0.33,5.79,2.13,7.65
	C387.17,220.27,389.66,221.25,392.84,221.34"/>
<path class="st1" d="M470.94,155.44l-1.73,9.21c6.68-7.25,14.4-10.78,23.15-10.59c7.31,0.14,12.72,2.77,16.23,7.87
	c3.51,5.1,4.81,12.22,3.89,21.35l-8.44,50.68h-17.1l8.51-50.9c0.24-2.08,0.26-4.01,0.07-5.8c-0.63-5.75-4.04-8.7-10.24-8.85
	c-6.49-0.1-12.19,3.12-17.09,9.64l-9.74,55.9h-17.1l13.49-78.45L470.94,155.44z"/>
<path class="st1" d="M551.85,208.58l24.53-53.07h18.9l-46.24,92c-6.45,12.37-14.93,18.49-25.46,18.34c-2.6-0.1-5.55-0.58-8.87-1.45
	l1.44-13.63l3.1,0.29c4.14,0.14,7.55-0.64,10.24-2.36c2.69-1.72,4.95-4.39,6.78-8.01l4.11-8.12l-13.06-77.07h17.74L551.85,208.58z"
	/>
<path class="st1" d="M273.88,269.07c10.69-12.89,17.25-28.53,18.67-44.51l0.45-5.1l4.54,2.85c11.17,7,25.91,6.43,36.31-0.67
	c5.2-3.53,9.4-8.49,11.94-14.2c2.53-5.7,3.36-12.15,2.4-18.31c-1.62-12.43-11.16-23.31-23.28-26.85
	c-6.03-1.78-12.66-1.88-18.82-0.12c-6.18,1.75-11.86,5.4-16.32,10.29l-4.55,5.01l-0.59-6.44c-0.61-6.66-2.82-13.3-6.81-18.88
	c-3.94-5.6-9.74-10.02-16.57-12.32c7.13,0.95,14.1,4.56,19.2,10.14c5.14,5.53,8.58,12.69,9.94,20.27l-5.14-1.44
	c8.97-12.69,26.39-19.23,41.94-15.01c7.75,1.92,15.05,6.15,20.39,12.22c5.43,5.97,9.11,13.62,10.31,21.66
	c2.62,16.1-5.25,33.42-19.18,41.64c-6.83,4.22-14.9,6.34-22.8,6.03c-7.91-0.33-15.68-2.99-21.95-7.63l4.99-2.25
	C295.89,242.6,286.81,258.4,273.88,269.07"/>
</svg>
