<?xml version="1.0" encoding="utf-8"?>
<!-- Generator: Adobe Illustrator 23.0.5, SVG Export Plug-In . SVG Version: 6.00 Build 0)  -->
<svg version="1.1" id="Layer_1" xmlns="http://www.w3.org/2000/svg" xmlns:xlink="http://www.w3.org/1999/xlink" x="0px" y="0px"
	 viewBox="0 0 595.3 269.1" style="enable-background:new 0 0 595.3 269.1;" xml:space="preserve">
<style type="text/css">
	.st0{fill:#4068B2;}
	.st1{fill:#0F1031;}
</style>
<path class="st0" d="M34.3,117.1c4.1,0.1,7.7-1.1,10.9-3.6s5.2-5.7,6-9.8l16.2-0.1c-0.5,5.2-2.4,9.9-5.6,14.1
	c-3.2,4.3-7.3,7.6-12.3,9.9c-5,2.4-10.2,3.5-15.7,3.3c-6.7-0.1-12.4-1.8-17.1-5.2c-4.7-3.4-8.1-8.1-10.3-14s-2.9-12.6-2.2-20
	l0.2-2.5c0.8-7.6,3-14.5,6.6-20.6c3.6-6.2,8.2-10.9,13.9-14.3s12-4.9,18.9-4.7c8.5,0.2,15.2,3,20.3,8.5c5.1,5.4,7.6,12.5,7.6,21.2
	h-16c0-4.5-1.1-8.2-3.3-11c-2.2-2.8-5.3-4.4-9.5-4.6c-6.7-0.2-12,2.7-15.8,8.6c-3.9,5.9-5.9,14.2-6.2,24.9
	C20.5,110.3,25,116.9,34.3,117.1"/>
<polygon class="st0" points="94.1,129.6 77,129.6 96.3,18.2 113.4,18.2 "/>
<path class="st0" d="M117.4,90.1c0.8-7.7,3.1-14.7,6.7-21c3.7-6.3,8.4-11.1,14.2-14.6s12.2-5,19.2-4.9c6.7,0.1,12.5,1.9,17.3,5.4
	c4.9,3.5,8.4,8.2,10.6,14.3s3,12.8,2.3,20.2c-0.8,8.3-3,15.7-6.7,22c-3.7,6.4-8.5,11.3-14.3,14.7c-5.8,3.4-12.2,5-19.3,4.8
	c-6.6-0.1-12.4-1.9-17.2-5.3c-4.8-3.5-8.4-8.2-10.6-14.2s-3.1-12.7-2.4-19.9L117.4,90.1z M134.2,100c0.2,5.1,1.6,9.2,4,12.2
	s5.8,4.7,10.1,4.8c5.9,0.1,10.8-2.1,14.8-6.8c4-4.7,6.5-11.1,7.5-19.2l0.4-7.1c0-6.2-1.2-11-3.7-14.6s-6-5.4-10.7-5.6
	c-7.3-0.2-13.1,3.4-17.3,10.8c-2.6,4.5-4.2,9.7-4.8,15.5C134.1,94.2,134,97.5,134.2,100"/>
<path class="st0" d="M243.8,121.8c-5.9,6.3-13.3,9.4-22.2,9.2c-5.1-0.1-9.2-1.4-12.6-3.8c-3.3-2.4-5.7-5.8-7.1-10.1
	c-1.4-4.3-1.8-9.4-1.3-15.3l8.4-50.8h17.1l-8.5,51c-0.2,1.8-0.2,3.5-0.1,5.2c0.5,6,3.5,9.1,9,9.3c7.6,0.3,13.7-2.8,18.3-9.1
	l9.8-56.4h17.1l-13.5,78.4h-16L243.8,121.8z"/>
<path class="st0" d="M352.8,34c0.5-1.6,1.1-3.2,1.7-4.7c1.8-4.4,4-8.7,6.5-12.8c1.3-2,2.6-4,4.1-6c1.3-1.8,2.7-4.1,4.4-5.5
	c-9.2,6.9-16.6,16.3-21.5,27c-2.4,5.4-4.2,11.1-5.4,17c-0.5,2.9-0.9,5.9-1.1,8.9c-3.8-2.5-7.9-4.4-12.3-5.5
	c-7.4-1.9-15.3-1.5-22.6,0.8c-14.8,4.5-26.1,18.1-28.3,33.3c-2.5,15.2,4.4,31.4,16.8,39.8c11.9,8.7,28.4,9.5,40.6,2.7
	c2.3,1.7,4.8,3.1,7.5,3.9c1.5,0.5,3.1,0.8,4.6,0.9l4.6,0.1l-4.5-0.9c-1.5-0.4-2.8-1-4.1-1.7c-2.6-1.3-5-3.2-7-5.3l-0.6-0.7l-1.1,0.4
	c-6.1,2.5-12.6,3.1-18.8,2.2c-6.2-1.1-12-3.6-16.7-7.6c-9.5-7.8-14.3-20.5-11.9-32.3c1.9-11.7,10.7-22,21.9-25.7
	c6.8-2.3,14.3-2.2,21.1,0.1c7.4,2.4,12.3,7.1,17.9,12.2c0.8,0.7,1.5,1.4,2.3,2.1c-0.9-7.6-2.2-15.2-1.9-22.9
	C349.5,47.2,350.7,40.4,352.8,34"/>
<path class="st1" d="M34.3,221.4c4.1,0.1,7.7-1.1,10.9-3.6c3.2-2.5,5.2-5.7,6-9.8l16.2-0.1c-0.5,5.2-2.4,9.9-5.6,14.1
	c-3.2,4.3-7.3,7.6-12.3,9.9c-5,2.4-10.2,3.5-15.7,3.3c-6.7-0.1-12.4-1.8-17.1-5.2s-8.1-8.1-10.3-14s-2.9-12.6-2.2-20l0.2-2.5
	c0.8-7.6,3-14.5,6.6-20.6c3.6-6.2,8.2-10.9,13.9-14.3s12-4.9,18.9-4.7c8.5,0.2,15.2,3,20.3,8.4c5.1,5.4,7.6,12.5,7.6,21.2h-16
	c0-4.5-1.1-8.2-3.3-11s-5.3-4.4-9.5-4.6c-6.7-0.2-12,2.7-15.8,8.6c-3.9,5.9-5.9,14.2-6.2,24.9C20.5,214.6,25,221.2,34.3,221.4"/>
<path class="st1" d="M79.3,194.4c0.8-7.7,3.1-14.7,6.7-20.9c3.7-6.3,8.4-11.1,14.2-14.6s12.2-5.1,19.2-4.9
	c6.7,0.1,12.4,1.9,17.3,5.4s8.4,8.2,10.6,14.3c2.2,6,3,12.8,2.3,20.2c-0.8,8.3-3,15.7-6.7,22c-3.7,6.4-8.5,11.3-14.3,14.7
	c-5.8,3.4-12.2,5-19.3,4.8c-6.6-0.1-12.4-1.9-17.2-5.3c-4.8-3.4-8.4-8.2-10.6-14.2s-3.1-12.6-2.4-19.9L79.3,194.4z M96.1,204.4
	c0.2,5.1,1.6,9.1,4,12.2s5.8,4.7,10.1,4.8c5.9,0.1,10.8-2.1,14.8-6.8c4-4.7,6.4-11.1,7.5-19.2l0.4-7.1c0-6.2-1.2-11-3.7-14.6
	c-2.4-3.5-6-5.4-10.7-5.6c-7.3-0.2-13.1,3.4-17.3,10.8c-2.6,4.5-4.2,9.7-4.8,15.5C96,198.5,95.9,201.8,96.1,204.4"/>
<path class="st1" d="M186.3,155.4l-1.5,8.3c6.4-6.7,14.1-9.9,23.1-9.7c4.9,0.1,9,1.2,12.2,3.4c3.3,2.2,5.4,5.1,6.6,8.6
	c7.2-8.2,15.5-12.2,24.8-12c7.6,0.2,13.2,2.8,16.9,7.9c3.7,5.1,5.1,12.1,4.1,21.2l-8.4,50.8H247l8.5-51c0.2-2.1,0.3-4.1,0.1-5.9
	c-0.8-5.6-4.3-8.6-10.7-8.7c-7.1-0.2-12.6,3.7-16.7,11.7l-0.2,1.6L219,234h-17.2l8.5-50.8c0.2-2.1,0.3-4,0.1-5.8
	c-0.8-5.9-4.3-8.9-10.7-9c-6.4-0.1-11.7,2.8-16,8.6l-9.9,56.9h-17.1l13.5-78.4L186.3,155.4z"/>
<path class="st1" d="M410.4,234c-0.6-1.9-0.8-4.4-0.7-7.3c-6.4,6-13.4,9-20.8,8.8c-6.8-0.1-12.4-2.3-16.8-6.6
	c-4.5-4.3-6.5-9.7-6.2-16.3c0.4-8.3,3.9-14.8,10.7-19.5c6.7-4.7,15.8-7.1,27.1-7.1l11.1,0.1l1-5.4c0.3-1.9,0.3-3.6,0-5.3
	c-1-5.2-4.4-7.9-10.3-8.1c-3.6-0.1-6.9,0.8-9.6,2.8c-2.8,2-4.5,4.6-5.1,7.9l-17.1,0.1c0.3-4.8,2-9.1,5.1-12.7
	c3.1-3.6,7.2-6.5,12.3-8.5s10.5-3,16.2-2.9c8.5,0.2,15.1,2.8,19.9,7.7s6.7,11.4,5.9,19.3l-6,36.8l-0.6,6.5c-0.1,2.9,0.2,5.6,1.1,8.3
	l-0.1,1.3L410.4,234L410.4,234z M392.8,221.3c3.6,0.1,7-0.7,10-2.5s5.7-4.1,7.9-6.9l2.7-14.9l-8.1-0.1c-6.5,0-11.6,1.2-15.4,3.7
	s-6,5.8-6.6,10c-0.4,3.2,0.3,5.8,2.1,7.6C387.2,220.3,389.7,221.3,392.8,221.3"/>
<path class="st1" d="M470.9,155.4l-1.7,9.2c6.7-7.3,14.4-10.8,23.1-10.6c7.3,0.1,12.7,2.8,16.2,7.9c3.5,5.1,4.8,12.2,3.9,21.4
	L504,234h-17.1l8.5-50.9c0.2-2.1,0.3-4,0.1-5.8c-0.6-5.8-4-8.7-10.2-8.9c-6.5-0.1-12.2,3.1-17.1,9.6l-9.7,55.9h-17.1l13.5-78.4
	L470.9,155.4z"/>
<path class="st1" d="M551.8,208.6l24.5-53.1h18.9l-46.2,92c-6.5,12.4-14.9,18.5-25.5,18.3c-2.6-0.1-5.5-0.6-8.9-1.5l1.4-13.6
	l3.1,0.3c4.1,0.1,7.5-0.6,10.2-2.4s5-4.4,6.8-8l4.1-8.1l-13.1-77.1h17.7L551.8,208.6z"/>
<path class="st1" d="M273.9,269.1c10.7-12.9,17.3-28.5,18.7-44.5l0.5-5.1l4.5,2.9c11.2,7,25.9,6.4,36.3-0.7
	c5.2-3.5,9.4-8.5,11.9-14.2c2.5-5.7,3.4-12.1,2.4-18.3c-1.6-12.4-11.2-23.3-23.3-26.9c-6-1.8-12.7-1.9-18.8-0.1
	c-6.2,1.8-11.9,5.4-16.3,10.3l-4.5,5l-0.6-6.4c-0.6-6.7-2.8-13.3-6.8-18.9c-3.9-5.6-9.7-10-16.6-12.3c7.1,0.9,14.1,4.6,19.2,10.1
	c5.1,5.5,8.6,12.7,9.9,20.3l-5.1-1.4c9-12.7,26.4-19.2,41.9-15c7.8,1.9,15,6.1,20.4,12.2c5.4,6,9.1,13.6,10.3,21.7
	c2.6,16.1-5.3,33.4-19.2,41.6c-6.8,4.2-14.9,6.3-22.8,6c-7.9-0.3-15.7-3-22-7.6l5-2.3C295.9,242.6,286.8,258.4,273.9,269.1"/>
<g>
	<path class="st0" d="M392,11h-5.2V8h14v3h-5.2v13.3H392V11z"/>
	<path class="st0" d="M403.2,8h4.7l3.8,7.2l3.7-7.2h4.7v16.4h-3.4V12.7h0l-3.6,7.4h-2.8l-3.6-7.3h0v11.5h-3.4V8z"/>
</g>
</svg>
