<?xml version="1.0" encoding="utf-8"?>
<!-- Generator: Adobe Illustrator 23.0.5, SVG Export Plug-In . SVG Version: 6.00 Build 0)  -->
<svg version="1.1" id="Layer_1" xmlns="http://www.w3.org/2000/svg" xmlns:xlink="http://www.w3.org/1999/xlink" x="0px" y="0px"
	 viewBox="0 0 283.5 283.5" style="enable-background:new 0 0 283.5 283.5;" xml:space="preserve">
<style type="text/css">
	.st0{fill:#FF0000;}
	.st1{fill:#0E142F;}
	.st2{fill:#CCCCCC;}
	.st3{fill:#88B4E0;}
</style>
<path class="st0" d="M180.8,94.1c-1.1,1.3-2.2,2.6-3.1,4c-1.5,5-2.1,10.1-1.3,15.2c5.9,0.4,11.8-1,17.2-3.7
	c7.2-7.9,11.4-18.7,11.8-30.4C197.1,80.3,187.9,85.8,180.8,94.1"/>
<path class="st1" d="M191.1,109.1c-0.5,0.6-1.1,1.1-1.6,1.7c-5.5,5.3-12.4,8.4-19.2,8.7c-0.3-6.7,2.1-14,6.8-20.6
	c0.8-1.2,1.8-2.4,2.8-3.5c6.3-7.3,14.4-12.1,21.7-13.2c0,0.9-0.1,1.7-0.2,2.6c-0.2,1.7,1.1,3.1,2.8,3.2c1.6,0.1,3-1.1,3.1-2.7
	c0.2-2.1,0.3-4.2,0.2-6.4l-0.1-2.9h-2.9c-5.2,0-10.9,1.7-16.2,4.8c-4.7,2.6-9.1,6.3-12.9,10.7c-7.4,8.5-11.2,18.5-11,27.8
	c0,1.2,0.1,2.4,0.3,3.5l0.4,2.4l2.4,0.1c0.6,0,1.2,0.1,1.8,0.1c6.2,0,12.5-1.9,18.1-5.5c2.2-1.4,4.3-3.1,6.3-5
	c2.4-2.3,4.6-5,6.4-7.9c0.9-1.4,0.5-3.2-0.9-4.1c-1.4-0.9-3.2-0.5-4.1,0.9C193.8,105.8,192.5,107.5,191.1,109.1"/>
<path class="st1" d="M202.9,91.9L202.9,91.9c-1.5-0.3-3,0.6-3.4,2.1c-0.3,1.2-0.7,2.6-1.1,3.8c-0.5,1.5,0.3,3.1,1.7,3.6
	c1.6,0.6,3.4-0.2,3.9-1.9c0.3-1,0.6-2.1,0.8-2.6c0.1-0.4,0.3-0.9,0.4-1.3C205.7,93.9,204.7,92.2,202.9,91.9"/>
<path d="M87.6,169.8l0.6,1.4l-4.5,11.5l-5.2,13.3l5.8,0.2l6,0.3l50.1,2.1l-10.6-25.7l1.4-2.8C116.6,168.6,102.1,170.1,87.6,169.8z"
	/>
<path class="st2" d="M107.6,49.1c-1.8,2.5-40.2,71.7-40.2,71.7l18.5,45l1.7,4.1c14.5,0.3,29-1.2,43.5,0.4l20-39.4l2.7-5.3l2.4-4.7
	C156.3,120.7,111.6,54.8,107.6,49.1z"/>
<path class="st3" d="M130.1,271.3c-0.3-0.2-0.6-0.3-0.9-0.5C129.5,271,129.8,271.1,130.1,271.3"/>
<path class="st3" d="M108.1,247.1c-0.1-0.3-0.3-0.5-0.4-0.8C107.8,246.6,107.9,246.9,108.1,247.1"/>
<path class="st3" d="M127.7,269.9c-0.3-0.2-0.6-0.4-0.9-0.6C127.2,269.5,127.4,269.7,127.7,269.9"/>
<path class="st3" d="M107.2,245.6c-0.1-0.3-0.3-0.5-0.4-0.8C106.9,245.1,107.1,245.4,107.2,245.6"/>
<path class="st3" d="M110.2,250.6c-0.3-0.4-0.5-0.9-0.8-1.3C109.6,249.7,109.9,250.2,110.2,250.6"/>
<path class="st3" d="M109,248.7c-0.2-0.3-0.3-0.6-0.5-0.8C108.6,248.1,108.8,248.4,109,248.7"/>
<path class="st3" d="M137.6,273.8c-0.3,0-0.6-0.1-0.8-0.1C137,273.7,137.3,273.8,137.6,273.8"/>
<path class="st3" d="M138.8,274c-0.3,0-0.5-0.1-0.8-0.1C138.2,273.9,138.5,273.9,138.8,274"/>
<path class="st3" d="M119.5,262.9c-0.2-0.2-0.5-0.5-0.7-0.7C119.1,262.5,119.3,262.7,119.5,262.9"/>
<path class="st3" d="M105.2,241.9c-0.1-0.2-0.2-0.5-0.4-0.7C105,241.5,105.1,241.7,105.2,241.9"/>
<path class="st3" d="M104.4,240.4c-0.1-0.2-0.2-0.4-0.3-0.7C104.2,239.9,104.3,240.1,104.4,240.4"/>
<path class="st3" d="M140.3,274c-0.4,0-0.8,0-1.2,0C139.5,274,139.9,274,140.3,274"/>
<path class="st3" d="M106.3,244c-0.2-0.4-0.5-0.8-0.7-1.3C105.9,243.2,106.1,243.6,106.3,244"/>
<path class="st3" d="M124.1,267.2c-0.2-0.2-0.5-0.4-0.7-0.6C123.6,266.8,123.9,267,124.1,267.2"/>
<path class="st3" d="M113,254.9c-0.2-0.3-0.4-0.6-0.7-0.9C112.6,254.3,112.8,254.6,113,254.9"/>
<path class="st3" d="M122,265.4c-0.3-0.3-0.7-0.7-1-1C121.3,264.7,121.6,265.1,122,265.4"/>
<path class="st3" d="M116.2,259.1c-0.2-0.3-0.4-0.5-0.6-0.8C115.8,258.6,116,258.8,116.2,259.1"/>
<path class="st3" d="M133.8,272.9c-0.3-0.1-0.5-0.2-0.8-0.3C133.2,272.7,133.5,272.8,133.8,272.9"/>
<path class="st3" d="M117.4,260.6c-0.3-0.4-0.6-0.7-0.9-1.1C116.8,259.9,117.1,260.3,117.4,260.6"/>
<path class="st3" d="M115.2,257.8c-0.2-0.3-0.4-0.5-0.6-0.8C114.8,257.3,115,257.5,115.2,257.8"/>
<path class="st3" d="M132.6,272.4c-0.3-0.1-0.6-0.2-0.8-0.4C132,272.2,132.3,272.3,132.6,272.4"/>
<path class="st3" d="M114.2,256.5c-0.3-0.4-0.6-0.8-0.9-1.2C113.6,255.7,113.9,256.1,114.2,256.5"/>
<path class="st3" d="M112,253.4c-0.2-0.3-0.4-0.5-0.5-0.8C111.6,252.9,111.8,253.1,112,253.4"/>
<path class="st3" d="M123,266.3c-0.3-0.3-0.6-0.5-0.9-0.8C122.4,265.8,122.7,266.1,123,266.3"/>
<path class="st3" d="M136.4,273.6c-0.4-0.1-0.8-0.2-1.1-0.3C135.6,273.5,136,273.5,136.4,273.6"/>
<path class="st3" d="M135.1,273.3c-0.3-0.1-0.7-0.2-1-0.3C134.5,273.1,134.8,273.2,135.1,273.3"/>
<path class="st3" d="M125.3,268.2c-0.3-0.2-0.5-0.4-0.8-0.6C124.7,267.8,125,268,125.3,268.2"/>
<path class="st3" d="M111.1,252c-0.2-0.3-0.4-0.5-0.5-0.8C110.7,251.5,110.9,251.7,111.1,252"/>
<path class="st3" d="M185,269.4c0.6,0.2,1.1,0.5,1.7,0.7c1.6,0.7,3.2,1.3,4.9,1.9c-1.7-0.6-3.3-1.3-4.9-1.9
	C186.1,269.9,185.5,269.6,185,269.4"/>
<path class="st3" d="M96.1,220.3c0-0.1,0-0.1-0.1-0.2C96.1,220.1,96.1,220.2,96.1,220.3"/>
<path class="st3" d="M209.9,271.9c-0.2,0.1-0.4,0.2-0.6,0.2C209.5,272.1,209.7,272,209.9,271.9"/>
<path class="st3" d="M95.6,218.7C95.6,218.7,95.6,218.7,95.6,218.7C95.6,218.7,95.6,218.7,95.6,218.7"/>
<path class="st3" d="M131.5,272c-0.4-0.2-0.7-0.4-1.1-0.5C130.7,271.6,131.1,271.8,131.5,272"/>
<path class="st3" d="M98.2,226c0-0.1-0.1-0.2-0.1-0.3C98.1,225.8,98.1,225.9,98.2,226"/>
<path class="st3" d="M126.6,269.2c-0.4-0.3-0.7-0.5-1.1-0.8C125.9,268.7,126.3,268.9,126.6,269.2"/>
<path class="st3" d="M120.6,264.1c-0.2-0.2-0.5-0.5-0.7-0.7C120.1,263.6,120.4,263.8,120.6,264.1"/>
<path class="st3" d="M93.9,213C93.9,213,93.8,212.9,93.9,213C93.8,212.9,93.9,213,93.9,213"/>
<path class="st3" d="M206.3,273.1c-0.5,0.1-1.1,0.2-1.6,0.3C205.2,273.4,205.8,273.3,206.3,273.1"/>
<path class="st3" d="M191.5,272c2.9,1,6,1.7,9.9,1.7c0.9,0,1.7-0.1,2.5-0.2c-0.8,0.1-1.7,0.2-2.5,0.2
	C197.5,273.7,194.3,273,191.5,272"/>
<path class="st3" d="M118.5,261.8c-0.3-0.3-0.6-0.7-0.9-1C117.9,261.1,118.2,261.5,118.5,261.8"/>
<path class="st3" d="M100.4,231.7c0-0.1-0.1-0.1-0.1-0.2C100.4,231.6,100.4,231.6,100.4,231.7"/>
<path class="st3" d="M101.1,233.3c-0.1-0.2-0.1-0.3-0.2-0.5C101,233,101,233.1,101.1,233.3"/>
<path class="st3" d="M98.8,227.6c0-0.1-0.1-0.2-0.1-0.4C98.7,227.3,98.7,227.5,98.8,227.6"/>
<path class="st3" d="M179.8,267.6c-0.9-0.3-1.9-0.5-2.9-0.7C177.9,267.1,178.9,267.3,179.8,267.6"/>
<path class="st3" d="M176.9,266.9c-1-0.2-2.1-0.3-3.2-0.4C174.8,266.6,175.9,266.7,176.9,266.9"/>
<path class="st3" d="M102.4,236.1c0-0.1-0.1-0.1-0.1-0.2C102.3,236,102.3,236,102.4,236.1"/>
<path class="st3" d="M166.9,267c-2.5,0.6-5.2,1.6-8,2.7C161.7,268.6,164.4,267.6,166.9,267"/>
<path class="st3" d="M101.8,234.9c-0.1-0.2-0.2-0.3-0.2-0.5C101.6,234.5,101.7,234.7,101.8,234.9"/>
<path class="st3" d="M99.3,228.8C99.2,228.8,99.2,228.8,99.3,228.8C99.2,228.8,99.2,228.8,99.3,228.8"/>
<path class="st3" d="M183.3,268.7c-0.8-0.3-1.7-0.6-2.6-0.9C181.6,268.1,182.5,268.4,183.3,268.7"/>
<path class="st3" d="M128.9,270.6c-0.3-0.1-0.5-0.3-0.8-0.5C128.3,270.3,128.6,270.5,128.9,270.6"/>
<path class="st3" d="M185,269.4c-0.6-0.2-1.1-0.5-1.7-0.7C183.9,269,184.4,269.2,185,269.4"/>
<path class="st3" d="M103.7,238.8c-0.1-0.2-0.2-0.4-0.3-0.6C103.5,238.4,103.6,238.6,103.7,238.8"/>
<path class="st1" d="M228,170.2c-1.6-1.3-3.9-0.7-4.6,1.2c-0.5,1.2-0.9,2.5-1.3,3.8c-0.5,1.5,0.4,3.2,1.9,3.7c1.6,0.5,3.3-0.4,3.8-2
	c0.3-1.2,0.7-2.4,1.1-3.4C229.3,172.3,228.9,171,228,170.2"/>
<path class="st1" d="M169.2,136.3c1.9,0,4.6-1,9-2.8l0.1-0.1c6.3-2.5,14.2-5.6,23.2-5.6c7.8,0,27.2,1.9,39,19.6
	c0.8,1.2,0.5,2.9-0.7,3.8l0,0c-1,0.8-2.2,1.7-3.5,2.7c-1.6,1.3-4.7,3.9-7.7,7.7c-1,1.2-0.7,3,0.6,4l0.2,0.2c1.2,0.9,3,0.7,4-0.6
	c0,0,0,0,0,0c2.2-2.7,4.6-4.9,6.7-6.7c1.2-1,2.3-1.8,3.3-2.6l4.4-3.4c1.2-0.9,1.5-2.6,0.7-3.8l-1.8-2.7l-1.3-1.9
	c-13.4-20.1-35.2-22.3-44-22.3c-10.1,0-18.5,3.4-25.3,6.1L176,128c-2,0.8-5.8,2.3-6.8,2.3c-1.9,0-6.5-1.7-10.2-3
	c-1.7-0.6-3.4-1.3-5.2-1.9l-2.7,5.3c2,0.7,4,1.4,5.9,2.1C161.8,134.6,166.2,136.3,169.2,136.3"/>
<path class="st1" d="M244.6,212.9c-1.1-0.7-2.2-1.3-3.2-2c-1.3-0.8-2.5-1.7-3.7-2.7c-1.3-1.1-2.5-2.3-3.7-3.6
	c-1.2-1.4-2.3-3-3.3-4.7c-1-1.9-1.9-3.9-2.4-6c-0.7-2.4-1.1-4.9-1.2-7.5c0-0.1,0-0.2,0-0.2c-0.1-1.5-1.3-2.7-2.8-2.7H224
	c-1.6,0-2.9,1.4-2.8,3c0,0.4,0,0.8,0.1,1.1c0.1,1.3,0.3,2.5,0.5,3.8c0.2,1.2,0.5,2.3,0.8,3.5c0.3,1.1,0.6,2.1,1,3.2
	c0.4,1,0.8,2,1.3,2.9c0.4,0.9,0.9,1.8,1.4,2.6c0.5,0.8,1,1.6,1.6,2.4c0.5,0.7,1.1,1.5,1.7,2.1c0.6,0.7,1.1,1.3,1.8,1.9
	c0.6,0.6,1.2,1.2,1.8,1.7c0.6,0.5,1.2,1,1.8,1.5c0.6,0.5,1.1,0.9,1.7,1.3c0.5,0.4,1.1,0.8,1.7,1.1c0.5,0.3,1,0.7,1.5,1
	c0.5,0.3,0.9,0.6,1.4,0.8c0.2,0.1,0.3,0.2,0.5,0.3c1.8,1.1,2.9,1.8,3.5,2.6c0.5,0.7,0.6,1.6,0.4,2.4c-1.6,5.2-10.5,27-23.6,40.3
	c-3.7,3.7-7.7,6.8-12,8.6c-0.2,0.1-0.4,0.2-0.6,0.2c-1,0.4-2,0.7-3,0.9c-0.5,0.1-1.1,0.2-1.6,0.3c-0.2,0-0.5,0.1-0.7,0.1
	c-0.8,0.1-1.7,0.2-2.5,0.2c-3.9,0-7.1-0.7-9.9-1.7c-1.7-0.6-3.3-1.3-4.9-1.9c-0.6-0.2-1.1-0.5-1.7-0.7c-0.6-0.2-1.1-0.5-1.7-0.7
	c-0.8-0.3-1.7-0.6-2.6-0.9c-0.3-0.1-0.6-0.2-0.9-0.3c-0.9-0.3-1.9-0.5-2.9-0.7c-1-0.2-2.1-0.3-3.2-0.4c-0.8-0.1-1.6-0.1-2.4-0.1
	c-1.4,0-2.8,0.2-4.3,0.6c-2.5,0.6-5.2,1.6-8,2.7c-0.7,0.3-1.4,0.5-2.1,0.8c-0.7,0.3-1.4,0.5-2.1,0.8c-0.4,0.1-0.7,0.2-1.1,0.4
	c-1.5,0.5-3,0.9-4.6,1.3c-2.7,0.7-5.6,1.1-8.5,1.1h-0.2h0c-0.4,0-0.8,0-1.2,0c-0.1,0-0.2,0-0.4,0c-0.3,0-0.5-0.1-0.8-0.1
	c-0.1,0-0.3,0-0.4-0.1c-0.3,0-0.6-0.1-0.8-0.1c-0.1,0-0.2,0-0.3-0.1c-0.4-0.1-0.8-0.2-1.1-0.3c-0.1,0-0.1,0-0.2,0
	c-0.3-0.1-0.7-0.2-1-0.3c-0.1,0-0.2-0.1-0.4-0.1c-0.3-0.1-0.5-0.2-0.8-0.3c-0.1,0-0.3-0.1-0.4-0.1c-0.3-0.1-0.6-0.2-0.8-0.4
	c-0.1,0-0.2-0.1-0.3-0.1c-0.4-0.2-0.7-0.4-1.1-0.5c-0.1,0-0.2-0.1-0.2-0.1c-0.3-0.2-0.6-0.3-0.9-0.5c-0.1-0.1-0.2-0.1-0.4-0.2
	c-0.3-0.2-0.5-0.3-0.8-0.5c-0.1-0.1-0.2-0.2-0.4-0.2c-0.3-0.2-0.6-0.4-0.9-0.6c-0.1-0.1-0.2-0.1-0.2-0.2c-0.4-0.3-0.7-0.5-1.1-0.8
	c-0.1-0.1-0.2-0.1-0.3-0.2c-0.3-0.2-0.5-0.4-0.8-0.6c-0.1-0.1-0.2-0.2-0.4-0.3c-0.2-0.2-0.5-0.4-0.7-0.6c-0.1-0.1-0.2-0.2-0.4-0.3
	c-0.3-0.3-0.6-0.5-0.9-0.8c-0.1-0.1-0.1-0.1-0.2-0.2c-0.3-0.3-0.7-0.7-1-1c-0.1-0.1-0.2-0.2-0.3-0.3c-0.2-0.2-0.5-0.5-0.7-0.7
	c-0.1-0.1-0.2-0.3-0.4-0.4c-0.2-0.2-0.5-0.5-0.7-0.7c-0.1-0.1-0.2-0.3-0.3-0.4c-0.3-0.3-0.6-0.7-0.9-1c-0.1-0.1-0.1-0.1-0.2-0.2
	c-0.3-0.4-0.6-0.7-0.9-1.1c-0.1-0.1-0.2-0.3-0.4-0.4c-0.2-0.3-0.4-0.5-0.6-0.8c-0.1-0.2-0.3-0.3-0.4-0.5c-0.2-0.3-0.4-0.5-0.6-0.8
	c-0.1-0.2-0.2-0.3-0.3-0.5c-0.3-0.4-0.6-0.8-0.9-1.2c-0.1-0.1-0.2-0.3-0.3-0.4c-0.2-0.3-0.4-0.6-0.7-0.9c-0.1-0.2-0.3-0.4-0.4-0.6
	c-0.2-0.3-0.4-0.5-0.5-0.8c-0.1-0.2-0.3-0.4-0.4-0.6c-0.2-0.3-0.4-0.5-0.5-0.8c-0.1-0.2-0.3-0.4-0.4-0.6c-0.3-0.4-0.5-0.9-0.8-1.3
	c-0.1-0.2-0.2-0.4-0.4-0.6c-0.2-0.3-0.3-0.6-0.5-0.8c-0.1-0.2-0.3-0.5-0.4-0.7c-0.1-0.3-0.3-0.5-0.4-0.8c-0.1-0.2-0.3-0.5-0.4-0.7
	c-0.1-0.3-0.3-0.5-0.4-0.8c-0.2-0.3-0.3-0.6-0.5-0.8c-0.2-0.4-0.5-0.8-0.7-1.3c-0.1-0.3-0.3-0.6-0.4-0.8c-0.1-0.2-0.2-0.5-0.4-0.7
	c-0.1-0.3-0.3-0.6-0.4-0.9c-0.1-0.2-0.2-0.4-0.3-0.7c-0.1-0.3-0.3-0.6-0.4-0.9c-0.1-0.2-0.2-0.4-0.3-0.6c-0.3-0.7-0.7-1.4-1-2.1
	c0-0.1-0.1-0.1-0.1-0.2c-0.2-0.3-0.3-0.7-0.5-1c-0.1-0.2-0.2-0.3-0.2-0.5c-0.2-0.3-0.3-0.7-0.5-1c-0.1-0.2-0.1-0.3-0.2-0.5
	c-0.2-0.4-0.3-0.7-0.5-1.1c0-0.1-0.1-0.1-0.1-0.2c-0.4-0.9-0.7-1.8-1.1-2.7c0,0,0,0,0,0c-0.2-0.4-0.3-0.8-0.5-1.2
	c0-0.1-0.1-0.2-0.1-0.4c-0.2-0.4-0.3-0.8-0.5-1.2c0-0.1-0.1-0.2-0.1-0.3c-0.7-1.8-1.3-3.6-1.9-5.5c0-0.1,0-0.1-0.1-0.2
	c-0.1-0.4-0.3-0.9-0.4-1.3c0,0,0,0,0-0.1c-0.6-1.9-1.2-3.8-1.7-5.6c0,0,0-0.1,0-0.1c-0.5-1.9-1-3.8-1.5-5.6l-6.1,0
	c2.8,12.3,7.5,25.5,13.5,37c11.8,22.9,26.2,35.5,40.5,35.6h0.2c7.8,0,14.6-2.5,20.5-4.7l0.1,0c3.7-1.4,7.6-2.9,10.2-2.9
	c5.6,0,8.9,1.4,13,3.2c4.3,1.8,9.7,4.1,17.1,4.1c12.6,0,25.3-9.5,36.6-27.6c3.8-6.1,7.1-12.5,9.4-17.8c2.6-6,4.2-10.6,4.2-11.8
	C251.6,217.1,247.6,214.6,244.6,212.9"/>
<path class="st1" d="M128.1,270.1c-0.1-0.1-0.2-0.2-0.4-0.2C127.8,270,128,270.1,128.1,270.1"/>
<path class="st1" d="M129.2,270.8c-0.1-0.1-0.2-0.1-0.4-0.2C129,270.7,129.1,270.7,129.2,270.8"/>
<path class="st1" d="M130.3,271.4c-0.1,0-0.2-0.1-0.2-0.1C130.2,271.3,130.3,271.4,130.3,271.4"/>
<path class="st1" d="M136.7,273.7c-0.1,0-0.2,0-0.3-0.1C136.5,273.6,136.6,273.7,136.7,273.7"/>
<path class="st1" d="M156.8,270.5c-0.7,0.3-1.4,0.5-2.1,0.8C155.4,271,156.1,270.7,156.8,270.5"/>
<path class="st1" d="M204.7,273.5c-0.2,0-0.5,0.1-0.7,0.1C204.2,273.5,204.4,273.5,204.7,273.5"/>
<path class="st1" d="M153.6,271.6c-1.5,0.5-3,0.9-4.6,1.3C150.6,272.5,152.1,272.1,153.6,271.6"/>
<path class="st1" d="M209.3,272.2c-1,0.4-2,0.7-3,0.9C207.3,272.9,208.3,272.6,209.3,272.2"/>
<path class="st1" d="M221.9,263.3L221.9,263.3c-3.7,3.7-7.7,6.8-12,8.6C214.2,270.1,218.2,267.1,221.9,263.3"/>
<path class="st1" d="M131.7,272.1c-0.1,0-0.2-0.1-0.3-0.1C131.5,272,131.6,272.1,131.7,272.1"/>
<path class="st1" d="M134.1,273c-0.1,0-0.2-0.1-0.4-0.1C133.9,272.9,134,273,134.1,273"/>
<path class="st1" d="M133,272.6c-0.1,0-0.3-0.1-0.4-0.1C132.7,272.5,132.8,272.5,133,272.6"/>
<path class="st1" d="M135.3,273.4c-0.1,0-0.1,0-0.2,0C135.2,273.3,135.2,273.3,135.3,273.4"/>
<path class="st1" d="M139.1,274c-0.1,0-0.2,0-0.4,0C138.9,274,139,274,139.1,274"/>
<path class="st1" d="M138,273.9c-0.1,0-0.3,0-0.4-0.1C137.7,273.8,137.8,273.9,138,273.9"/>
<path class="st1" d="M120.9,264.4c-0.1-0.1-0.2-0.2-0.3-0.3C120.7,264.2,120.8,264.3,120.9,264.4"/>
<path class="st1" d="M107.6,246.4c-0.1-0.2-0.3-0.5-0.4-0.7C107.3,245.9,107.5,246.1,107.6,246.4"/>
<path class="st1" d="M104.1,239.7c-0.1-0.3-0.3-0.6-0.4-0.9C103.8,239.1,103.9,239.4,104.1,239.7"/>
<path class="st1" d="M102.3,235.9c-0.2-0.3-0.3-0.7-0.5-1C102,235.2,102.1,235.5,102.3,235.9"/>
<path class="st1" d="M100.9,232.8c-0.2-0.4-0.3-0.7-0.5-1.1C100.6,232.1,100.7,232.4,100.9,232.8"/>
<path class="st1" d="M101.6,234.3c-0.2-0.3-0.3-0.7-0.5-1C101.3,233.6,101.4,234,101.6,234.3"/>
<path class="st1" d="M104.9,241.2c-0.1-0.3-0.3-0.6-0.4-0.9C104.6,240.7,104.7,240.9,104.9,241.2"/>
<path class="st1" d="M106.8,244.9c-0.2-0.3-0.3-0.6-0.5-0.8C106.5,244.3,106.6,244.6,106.8,244.9"/>
<path class="st1" d="M105.7,242.8c-0.1-0.3-0.3-0.6-0.4-0.8C105.4,242.2,105.5,242.5,105.7,242.8"/>
<path class="st1" d="M103.4,238.2c-0.3-0.7-0.7-1.4-1-2.1C102.7,236.8,103,237.5,103.4,238.2"/>
<path class="st1" d="M140.3,274L140.3,274L140.3,274h0.2c3,0,5.8-0.4,8.5-1.1c-2.7,0.7-5.6,1.1-8.5,1.1H140.3z"/>
<path class="st1" d="M96,220c-0.1-0.4-0.3-0.9-0.4-1.3C95.7,219.2,95.9,219.6,96,220"/>
<path class="st1" d="M95.6,218.6c-0.6-1.9-1.2-3.8-1.7-5.6C94.4,214.9,95,216.7,95.6,218.6"/>
<path class="st1" d="M92.4,207.3L92.4,207.3c0.4,1.8,0.9,3.7,1.5,5.6C93.3,211,92.8,209.1,92.4,207.3"/>
<path class="st1" d="M98.6,227.2c-0.2-0.4-0.3-0.8-0.5-1.2C98.3,226.4,98.5,226.8,98.6,227.2"/>
<path class="st1" d="M99.2,228.8c-0.2-0.4-0.3-0.8-0.5-1.2C98.9,228,99.1,228.4,99.2,228.8"/>
<path class="st1" d="M98,225.7c-0.7-1.8-1.3-3.6-1.9-5.5C96.7,222.1,97.4,223.9,98,225.7"/>
<path class="st1" d="M126.9,269.3c-0.1-0.1-0.2-0.1-0.2-0.2C126.7,269.2,126.8,269.3,126.9,269.3"/>
<path class="st1" d="M100.3,231.5c-0.4-0.9-0.7-1.8-1.1-2.7C99.6,229.7,100,230.6,100.3,231.5"/>
<path class="st1" d="M119.9,263.3c-0.1-0.1-0.2-0.3-0.4-0.4C119.7,263.1,119.8,263.2,119.9,263.3"/>
<path class="st1" d="M118.9,262.2c-0.1-0.1-0.2-0.3-0.3-0.4C118.6,262,118.7,262.1,118.9,262.2"/>
<path class="st1" d="M122.1,265.5c-0.1-0.1-0.1-0.1-0.2-0.2C122,265.4,122.1,265.5,122.1,265.5"/>
<path class="st1" d="M117.6,260.8c-0.1-0.1-0.1-0.1-0.2-0.2C117.5,260.7,117.6,260.7,117.6,260.8"/>
<path class="st1" d="M116.5,259.5c-0.1-0.1-0.2-0.3-0.4-0.4C116.3,259.2,116.4,259.4,116.5,259.5"/>
<path class="st1" d="M123.4,266.6c-0.1-0.1-0.2-0.2-0.4-0.3C123.1,266.4,123.3,266.5,123.4,266.6"/>
<path class="st1" d="M125.6,268.4c-0.1-0.1-0.2-0.1-0.3-0.2C125.4,268.2,125.5,268.3,125.6,268.4"/>
<path class="st1" d="M124.5,267.5c-0.1-0.1-0.2-0.2-0.4-0.3C124.2,267.3,124.4,267.4,124.5,267.5"/>
<path class="st1" d="M109.3,249.3c-0.1-0.2-0.2-0.4-0.4-0.6C109.1,248.9,109.2,249.1,109.3,249.3"/>
<path class="st1" d="M110.5,251.2c-0.1-0.2-0.2-0.4-0.4-0.6C110.3,250.8,110.4,251,110.5,251.2"/>
<path class="st1" d="M111.5,252.6c-0.1-0.2-0.3-0.4-0.4-0.6C111.2,252.2,111.3,252.4,111.5,252.6"/>
<path class="st1" d="M108.5,247.8c-0.1-0.2-0.3-0.5-0.4-0.7C108.2,247.4,108.3,247.6,108.5,247.8"/>
<path class="st1" d="M112.4,254c-0.1-0.2-0.3-0.4-0.4-0.6C112.1,253.6,112.2,253.8,112.4,254"/>
<path class="st1" d="M114.6,257c-0.1-0.2-0.2-0.3-0.3-0.5C114.3,256.7,114.4,256.8,114.6,257"/>
<path class="st1" d="M115.6,258.3c-0.1-0.2-0.3-0.3-0.4-0.5C115.3,258,115.4,258.1,115.6,258.3"/>
<path class="st1" d="M113.3,255.3c-0.1-0.1-0.2-0.3-0.3-0.4C113.1,255,113.2,255.2,113.3,255.3"/>
<path class="st1" d="M160.2,120l-55.9-80.3l-3.6,5.2c-1.8,2.5-51,73.2-51,73.2l-1.5,2.1l25.7,52.8l-17.7,34.3l30.1-0.1l6.1,0
	l59.8-0.2l-17.7-34.2L160.2,120z M104.4,111.1c5.2,0,9.4,4.2,9.4,9.4c0,5.2-4.2,9.4-9.4,9.4c-5.2,0-9.4-4.2-9.4-9.4
	C95,115.3,99.2,111.1,104.4,111.1 M58.4,121.1c6-8.7,29-41.7,41.5-59.5v41.2c-7.9,2-13.8,9.2-13.8,17.7c0,10.1,8.2,18.3,18.3,18.3
	s18.3-8.2,18.3-18.3c0-8.6-5.9-15.7-13.9-17.7V61.6l41.3,59.2l-23.2,47.7H81.5L58.4,121.1z M137.7,198.3l-47.1,0.2l-6,0l-13.9,0.1
	l11-21.2h45.2L137.7,198.3z"/>
<path class="st1" d="M171.6,31.1V6.2h-24.9v8h-30.7c-1.8-5-6.6-8.6-12.2-8.6c-5.6,0-10.4,3.6-12.2,8.6H61.4v-8H36.5v24.9h24.9v-8
	h13.7c-0.1,0.1-0.2,0.2-0.3,0.2c-8.6,6.3-19.2,18-21.9,38.5c-5.2,1.7-8.9,6.6-8.9,12.3c0,7.2,5.8,13,13,13c7.2,0,13-5.8,13-13
	c0-5.4-3.4-10.1-8.1-12c3.7-26.1,22.1-35.2,30.3-38c2.1,4.4,6.6,7.5,11.8,7.5c5.3,0,9.8-3.2,11.8-7.7c8,2.6,26.9,11.5,30.7,38
	c-5,1.8-8.6,6.6-8.6,12.2c0,7.2,5.8,13,13,13c7.2,0,13-5.8,13-13c0-5.5-3.5-10.3-8.4-12.1c-2.6-20.6-13.2-32.4-21.9-38.7
	c-0.1-0.1-0.2-0.2-0.3-0.2h13.6v8H171.6z M52.6,22.2h-7.2V15h7.2V22.2z M57,78.3c-2.3,0-4.1-1.9-4.1-4.1c0-2.3,1.9-4.1,4.1-4.1
	c2.3,0,4.1,1.9,4.1,4.1C61.1,76.4,59.3,78.3,57,78.3 M150.8,78.3c-2.3,0-4.1-1.9-4.1-4.1c0-2.3,1.9-4.1,4.1-4.1
	c2.3,0,4.1,1.9,4.1,4.1C155,76.4,153.1,78.3,150.8,78.3 M103.9,22.8c-2.3,0-4.1-1.9-4.1-4.1s1.9-4.1,4.1-4.1c2.3,0,4.1,1.9,4.1,4.1
	S106.2,22.8,103.9,22.8 M155.6,15h7.2v7.2h-7.2V15z"/>
</svg>
