<?xml version="1.0" encoding="utf-8"?>
<!-- Generator: Adobe Illustrator 23.0.5, SVG Export Plug-In . SVG Version: 6.00 Build 0)  -->
<svg version="1.1" id="Layer_1" xmlns="http://www.w3.org/2000/svg" xmlns:xlink="http://www.w3.org/1999/xlink" x="0px" y="0px"
	 viewBox="0 0 283.46 283.46" style="enable-background:new 0 0 283.46 283.46;" xml:space="preserve">
<style type="text/css">
	.st0{fill:#061F3E;}
	.st1{fill:#88B5E0;}
	.st2{fill:#0F142F;}
	.st3{fill:#0B0E17;}
	.st4{fill:#5E90CC;}
	.st5{fill:#4274B9;}
	.st6{fill:none;stroke:#0F142F;stroke-width:3.665;stroke-linecap:round;stroke-miterlimit:10;}
	.st7{fill:#FFFFFF;}
	.st8{fill:none;stroke:#FFFFFF;stroke-width:0.792;stroke-miterlimit:10;}
	.st9{fill:none;stroke:#FFFFFF;stroke-width:0.792;stroke-miterlimit:10;stroke-dasharray:2.001,2.001;}
	.st10{fill:none;stroke:#FFFFFF;stroke-width:0.792;stroke-miterlimit:10;stroke-dasharray:1.979,1.979;}
	.st11{fill:none;stroke:#FFFFFF;stroke-width:0.396;stroke-miterlimit:10;}
	.st12{fill:none;stroke:#0F142F;stroke-width:0.396;stroke-miterlimit:10;}
	.st13{fill:none;stroke:#0F142F;stroke-width:3.793;stroke-miterlimit:10;}
	.st14{fill:none;stroke:#4274B9;stroke-width:3.793;stroke-miterlimit:10;}
	.st15{fill:#FDFEFF;}
</style>
<polygon class="st0" points="-574.12,-31.5 -588.37,-19.26 -549.65,34.76 -535.49,25.11 -538.82,16.43 "/>
<path class="st1" d="M-578.61-99.08c0,31.27-25.35,56.62-56.63,56.62c-31.27,0-56.63-25.35-56.63-56.62
	c0-31.27,25.35-56.63,56.63-56.63C-603.96-155.7-578.61-130.35-578.61-99.08"/>
<path class="st2" d="M-595.46-55.72l-17.48,12.89l21.34,28.96l17.48-12.89L-595.46-55.72z M-603.95-41.47l7.12-5.25l13.71,18.6
	l-7.12,5.25L-603.95-41.47z"/>
<path class="st3" d="M-534.04,17.19l-39.12-53.08l-27.45,20.24l39.12,53.07c3.04,4.13,8.85,5.01,12.97,1.97l12.52-9.23
	C-531.88,27.12-531,21.32-534.04,17.19 M-540.14,25.22l-11.88,8.75c-1.44,1.06-3.47,0.75-4.53-0.69l-35.06-47.57l17.09-12.6
	l35.07,47.57C-538.39,22.13-538.7,24.16-540.14,25.22"/>
<path class="st2" d="M-656.93-112.08c1.47,0,2.76,0.99,3.13,2.41l4.53,17.11c1.11,4.29,2.08,8.32,2.86,12.27h0.19
	c0.86-3.87,2.13-8.05,3.45-12.22l5.56-17.33c0.43-1.34,1.68-2.25,3.08-2.25h1.14c1.42,0,2.67,0.92,3.09,2.28l5.28,16.96
	c1.37,4.56,2.51,8.64,3.4,12.56h0.19c0.7-3.9,1.74-7.95,2.99-12.49l4.83-16.95c0.4-1.39,1.67-2.35,3.11-2.35
	c2.2,0,3.76,2.14,3.08,4.24l-10.33,31.99c-0.43,1.34-1.68,2.24-3.08,2.24h-1.63c-1.41,0-2.66-0.91-3.09-2.26l-5.13-16.1
	c-1.39-4.31-2.48-8.16-3.41-12.68h-0.16c-0.97,4.64-2.16,8.63-3.52,12.74l-5.44,16.09c-0.45,1.32-1.68,2.2-3.07,2.2h-1.67
	c-1.43,0-2.69-0.94-3.1-2.31l-9.64-31.99c-0.63-2.08,0.93-4.18,3.1-4.18H-656.93z"/>
<path class="st2" d="M-597.44-112.08c1.47,0,2.75,0.99,3.13,2.41l4.53,17.11c1.11,4.29,2.08,8.32,2.86,12.27h0.19
	c0.86-3.87,2.13-8.05,3.45-12.22l5.56-17.33c0.43-1.34,1.68-2.25,3.08-2.25h1.14c1.42,0,2.67,0.92,3.09,2.28l5.28,16.96
	c1.37,4.56,2.51,8.64,3.4,12.56h0.19c0.7-3.9,1.74-7.95,2.99-12.49l4.82-16.95c0.4-1.39,1.67-2.35,3.12-2.35
	c2.2,0,3.76,2.14,3.08,4.24l-10.33,31.99c-0.43,1.34-1.68,2.24-3.08,2.24h-1.63c-1.41,0-2.66-0.91-3.09-2.26l-5.13-16.1
	c-1.39-4.31-2.48-8.16-3.41-12.68h-0.16c-0.97,4.64-2.16,8.63-3.52,12.74l-5.44,16.09c-0.45,1.32-1.68,2.2-3.07,2.2h-1.67
	c-1.43,0-2.69-0.94-3.1-2.31l-9.64-31.99c-0.63-2.08,0.93-4.18,3.1-4.18H-597.44z"/>
<path class="st2" d="M-537.94-112.08c1.47,0,2.75,0.99,3.13,2.41l4.53,17.11c1.11,4.29,2.08,8.32,2.86,12.27h0.19
	c0.86-3.87,2.13-8.05,3.45-12.22l5.56-17.33c0.43-1.34,1.68-2.25,3.08-2.25h1.14c1.42,0,2.67,0.92,3.09,2.28l5.28,16.96
	c1.37,4.56,2.51,8.64,3.4,12.56h0.19c0.7-3.9,1.74-7.95,2.99-12.49l4.82-16.95c0.4-1.39,1.67-2.35,3.12-2.35
	c2.2,0,3.76,2.14,3.08,4.24l-10.33,31.99c-0.43,1.34-1.68,2.24-3.08,2.24h-1.63c-1.41,0-2.66-0.91-3.09-2.26l-5.13-16.1
	c-1.39-4.31-2.48-8.16-3.41-12.68h-0.16c-0.97,4.64-2.16,8.63-3.52,12.74l-5.44,16.09c-0.45,1.32-1.68,2.2-3.07,2.2h-1.67
	c-1.43,0-2.69-0.94-3.1-2.31l-9.64-31.99c-0.63-2.08,0.93-4.18,3.1-4.18H-537.94z"/>
<path class="st2" d="M-585.21-59.8c1.39-2.05,0.14-4.97-2.33-5.16c-1.15-0.09-2.27,0.44-2.91,1.39c-1.15,1.7-2.39,3.34-3.72,4.92
	l4.57,4.57C-588.02-55.91-586.56-57.82-585.21-59.8"/>
<path class="st2" d="M-594.17-58.66c-2.92,3.48-6.27,6.65-10.02,9.41c-12.45,9.18-27.74,12.96-43.03,10.64
	c-15.96-2.42-29.93-11.16-39.11-24.54c-7.97-11.62-11.43-25.84-9.7-39.82c1.98-15.95,10.24-30.04,23.12-39.53
	c1.7-1.25,3.47-2.42,5.3-3.48c1.82-1.06,3.69-2.02,5.6-2.87c1.9-0.85,3.86-1.59,5.84-2.23c1.98-0.64,3.99-1.16,6.03-1.57
	c2.04-0.42,4.1-0.72,6.18-0.91c1.02-0.09,2.05-0.16,3.07-0.2c1.71-0.06,3.08-1.44,3.08-3.15v-0.13c0-1.77-1.46-3.22-3.24-3.15
	c-12.8,0.47-25.15,4.75-35.68,12.52c-13.84,10.2-22.88,25.17-25.45,42.17c-2.64,17.41,1.84,34.81,12.59,48.83
	c10.41,13.57,25.91,22.46,42.87,24.64c2.78,0.36,5.55,0.53,8.31,0.53c13.63,0,26.86-4.32,38.04-12.56
	c4.01-2.96,7.61-6.32,10.77-10.02L-594.17-58.66z"/>
<path class="st2" d="M-588.22-130.97L-588.22-130.97c-1.6,0.9-2.13,2.95-1.15,4.51c0.9,1.44,1.74,2.91,2.5,4.41
	c0.52,1.02,1.56,1.68,2.7,1.73c2.48,0.12,4.06-2.66,2.93-4.86c-0.83-1.6-1.73-3.18-2.69-4.72
	C-584.84-131.34-586.73-131.8-588.22-130.97"/>
<path class="st2" d="M-619.49-157.34c-2.05-0.63-4.13,0.9-4.16,3.05c-0.02,1.47,1.03,2.73,2.43,3.16c9.25,2.88,17.57,8,24.31,14.99
	c1.18,1.23,3.1,1.35,4.41,0.25c1.43-1.2,1.53-3.36,0.24-4.71C-599.8-148.42-609.12-154.15-619.49-157.34"/>
<path class="st4" d="M12.91-193.08c0,64.59-52.36,116.96-116.96,116.96c-64.59,0-116.96-52.36-116.96-116.96
	c0-64.59,52.36-116.96,116.96-116.96C-39.46-310.04,12.91-257.68,12.91-193.08"/>
<path class="st2" d="M-34.15-45.86h-0.18c-3.35-0.08-6.3-2.25-7.36-5.44l-33.6-100.78c-0.95-2.86-0.21-6.01,1.92-8.15
	c2.13-2.14,5.28-2.88,8.15-1.92l100.78,33.6c3.18,1.06,5.36,4.01,5.44,7.36c0.07,3.35-1.96,6.41-5.1,7.61l-45.23,17.4l-17.4,45.23
	C-27.91-47.88-30.87-45.86-34.15-45.86"/>
<path class="st2" d="M3.39-229.89c-1.85,0-3.61-1.09-4.38-2.9c-2.06-4.85-4.46-9.61-7.14-14.16c-1.34-2.26-0.58-5.18,1.68-6.51
	c2.26-1.34,5.18-0.58,6.51,1.68c2.89,4.9,5.49,10.04,7.71,15.27c1.03,2.42-0.1,5.21-2.52,6.24C4.64-230.01,4.01-229.89,3.39-229.89"
	/>
<path class="st2" d="M-112.48-210.6c-11.33,0-22.57-1.45-33.42-4.32c-2.54-0.67-4.06-3.27-3.38-5.81c0.67-2.54,3.28-4.05,5.81-3.38
	c10.06,2.65,20.48,4,30.99,4c2.63,0,4.76,2.13,4.76,4.76C-107.73-212.73-109.86-210.6-112.48-210.6"/>
<path class="st2" d="M-94.23-211.91c-2.32,0-4.36-1.7-4.7-4.07c-0.38-2.6,1.42-5.01,4.02-5.39c16.75-2.44,32.52-8.25,46.87-17.29
	c2.22-1.4,5.16-0.73,6.56,1.49c1.4,2.22,0.73,5.16-1.49,6.56c-15.48,9.75-32.49,16.03-50.57,18.66
	C-93.77-211.93-94-211.91-94.23-211.91"/>
<path class="st2" d="M-92.6-212.16c-2.3,0-4.32-1.67-4.69-4.01c-0.41-2.59,1.36-5.03,3.95-5.44c23.12-3.67,44.57-13.96,62.03-29.74
	c1.95-1.76,4.95-1.61,6.72,0.34c1.76,1.95,1.61,4.95-0.34,6.72c-18.82,17.02-41.96,28.12-66.91,32.08
	C-92.1-212.18-92.35-212.16-92.6-212.16"/>
<path class="st2" d="M-145.79-215.05c-0.42,0-0.84-0.06-1.26-0.17c-26.66-7.3-50.82-23.35-68.03-45.18l-2.32-2.94l2.32-2.95
	c24.95-31.65,62.35-49.8,102.6-49.8c29.94,0,58.1,9.86,81.44,28.51c2.05,1.64,2.39,4.63,0.75,6.68c-1.64,2.05-4.63,2.39-6.68,0.75
	c-21.64-17.29-47.75-26.43-75.5-26.43c-36.06,0-69.64,15.71-92.73,43.23c15.77,18.75,37.18,32.51,60.68,38.95
	c2.53,0.69,4.02,3.31,3.33,5.84C-141.79-216.44-143.7-215.05-145.79-215.05"/>
<path class="st2" d="M-83.09-127.47c-0.5-0.12-0.99-0.24-1.49-0.36C-84.08-127.71-83.59-127.59-83.09-127.47"/>
<path class="st2" d="M-138.01-138.07c0.55-0.11,1.11-0.21,1.67-0.31C-136.9-138.28-137.46-138.18-138.01-138.07"/>
<path class="st2" d="M-141.12-137.42c0.55-0.12,1.09-0.24,1.64-0.35C-140.03-137.66-140.58-137.54-141.12-137.42"/>
<path class="st2" d="M-131.74-139.15c0.57-0.08,1.14-0.16,1.72-0.24C-130.59-139.31-131.17-139.23-131.74-139.15"/>
<path class="st2" d="M-134.89-138.65c0.56-0.1,1.13-0.19,1.7-0.27C-133.76-138.84-134.32-138.75-134.89-138.65"/>
<path class="st2" d="M-85.95-128.14c-0.5-0.11-1-0.22-1.51-0.32C-86.95-128.36-86.45-128.25-85.95-128.14"/>
<path class="st2" d="M-153.32-134.07c0.52-0.17,1.05-0.34,1.58-0.51C-152.27-134.41-152.8-134.24-153.32-134.07"/>
<path class="st2" d="M-128.57-139.58c0.58-0.07,1.17-0.13,1.76-0.2C-127.4-139.71-127.98-139.65-128.57-139.58"/>
<path class="st2" d="M-91.73-129.28c-0.52-0.09-1.04-0.17-1.56-0.25C-92.76-129.45-92.24-129.37-91.73-129.28"/>
<path class="st2" d="M-156.31-133.05c0.52-0.18,1.04-0.37,1.56-0.55C-155.27-133.42-155.79-133.24-156.31-133.05"/>
<path class="st2" d="M-88.83-128.74c-0.51-0.1-1.02-0.2-1.53-0.29C-89.85-128.94-89.34-128.84-88.83-128.74"/>
<path class="st2" d="M-147.27-135.89c0.54-0.15,1.07-0.29,1.61-0.43C-146.2-136.18-146.74-136.04-147.27-135.89"/>
<path class="st2" d="M-144.21-136.69c0.54-0.13,1.08-0.26,1.62-0.39C-143.13-136.96-143.67-136.83-144.21-136.69"/>
<path class="st2" d="M-150.31-135.02c0.53-0.16,1.06-0.32,1.59-0.47C-149.25-135.34-149.78-135.18-150.31-135.02"/>
<path class="st2" d="M-159.28-131.96c0.52-0.2,1.04-0.4,1.56-0.59C-158.24-132.35-158.76-132.15-159.28-131.96"/>
<path class="st2" d="M-94.95-139.39c0.57,0.08,1.15,0.15,1.72,0.24C-93.8-139.23-94.37-139.31-94.95-139.39"/>
<path class="st2" d="M-104.71-140.32c0.64,0.04,1.28,0.07,1.92,0.12C-103.42-140.24-104.07-140.28-104.71-140.32"/>
<path class="st2" d="M-101.4-140.08c0.61,0.05,1.21,0.1,1.82,0.16C-100.19-139.98-100.79-140.03-101.4-140.08"/>
<path class="st2" d="M-125.38-139.93c0.61-0.06,1.21-0.11,1.82-0.16C-124.17-140.03-124.78-139.98-125.38-139.93"/>
<path class="st2" d="M-85.49-137.77c0.55,0.11,1.1,0.23,1.64,0.35C-84.39-137.54-84.94-137.66-85.49-137.77"/>
<path class="st2" d="M-91.77-138.92c0.57,0.09,1.13,0.18,1.7,0.28C-90.64-138.75-91.21-138.84-91.77-138.92"/>
<path class="st2" d="M-88.62-138.39c0.56,0.1,1.11,0.21,1.67,0.31C-87.51-138.18-88.06-138.29-88.62-138.39"/>
<path class="st2" d="M-98.16-139.77c0.59,0.06,1.17,0.13,1.76,0.2C-96.98-139.65-97.57-139.71-98.16-139.77"/>
<path class="st2" d="M-122.18-140.2c0.64-0.05,1.28-0.08,1.92-0.12C-120.9-140.28-121.54-140.24-122.18-140.2"/>
<path class="st2" d="M-118.96-140.39c0.72-0.03,1.44-0.06,2.16-0.08C-117.53-140.45-118.25-140.43-118.96-140.39"/>
<path class="st2" d="M-112.48-140.55c1.09,0,2.17,0.01,3.25,0.04C-110.32-140.54-111.4-140.55-112.48-140.55"/>
<path class="st2" d="M-108.16-140.47c0.72,0.02,1.44,0.05,2.16,0.08C-106.72-140.43-107.44-140.45-108.16-140.47"/>
<path class="st2" d="M-115.73-140.51c1.08-0.03,2.16-0.04,3.25-0.04C-113.57-140.55-114.65-140.54-115.73-140.51"/>
<path class="st2" d="M-162.52-120.29c-0.48,0.22-0.95,0.44-1.42,0.66C-163.47-119.85-163-120.08-162.52-120.29"/>
<path class="st2" d="M-131.68-129.53c-0.52,0.08-1.04,0.16-1.56,0.25C-132.72-129.37-132.2-129.45-131.68-129.53"/>
<path class="st2" d="M-146.07-126.35c-0.48,0.14-0.97,0.28-1.45,0.43C-147.04-126.07-146.56-126.21-146.07-126.35"/>
<path class="st2" d="M-151.66-124.6c-0.48,0.16-0.95,0.33-1.43,0.5C-152.61-124.27-152.14-124.43-151.66-124.6"/>
<path class="st2" d="M-165.16-119.05c-0.5,0.24-0.99,0.49-1.48,0.74C-166.15-118.56-165.66-118.81-165.16-119.05"/>
<path class="st2" d="M-116.5-130.97c-0.66,0.02-1.33,0.04-1.99,0.07C-117.83-130.93-117.16-130.94-116.5-130.97"/>
<path class="st2" d="M-143.24-127.12c-0.49,0.13-0.98,0.26-1.47,0.39C-144.22-126.86-143.73-126.99-143.24-127.12"/>
<path class="st2" d="M-119.69-130.82c-0.59,0.03-1.18,0.07-1.78,0.11C-120.88-130.75-120.29-130.79-119.69-130.82"/>
<path class="st2" d="M-125.76-130.32c-0.54,0.06-1.09,0.12-1.63,0.18C-126.85-130.2-126.3-130.26-125.76-130.32"/>
<path class="st2" d="M-128.73-129.96c-0.53,0.07-1.06,0.14-1.59,0.22C-129.79-129.82-129.26-129.89-128.73-129.96"/>
<path class="st2" d="M-154.41-123.62c-0.47,0.18-0.94,0.36-1.42,0.54C-155.36-123.27-154.89-123.45-154.41-123.62"/>
<path class="st2" d="M-112.48-131.04c-1.01,0-2.01,0.01-3.01,0.04C-114.49-131.03-113.49-131.04-112.48-131.04"/>
<path class="st2" d="M-122.76-130.61c-0.56,0.05-1.12,0.09-1.68,0.15C-123.88-130.51-123.32-130.56-122.76-130.61"/>
<path class="st2" d="M-148.88-125.51c-0.48,0.15-0.96,0.31-1.44,0.46C-149.84-125.2-149.36-125.36-148.88-125.51"/>
<path class="st2" d="M-157.14-122.58c-0.47,0.19-0.94,0.38-1.41,0.57C-158.08-122.2-157.62-122.39-157.14-122.58"/>
<path class="st2" d="M-159.84-121.47c-0.47,0.2-0.94,0.41-1.41,0.62C-160.79-121.06-160.32-121.27-159.84-121.47"/>
<path class="st2" d="M-140.38-127.83c-0.5,0.12-0.99,0.24-1.49,0.36C-141.38-127.59-140.88-127.71-140.38-127.83"/>
<path class="st2" d="M-168.06-128.21c0.53-0.25,1.06-0.5,1.59-0.74C-167-128.71-167.53-128.46-168.06-128.21"/>
<path class="st2" d="M-170.99-126.79c0.56-0.28,1.11-0.56,1.67-0.83C-169.88-127.35-170.43-127.06-170.99-126.79"/>
<path class="st2" d="M-100.53-130.46c-0.56-0.05-1.12-0.1-1.68-0.15C-101.65-130.56-101.09-130.51-100.53-130.46"/>
<path class="st2" d="M-97.58-130.14c-0.54-0.07-1.09-0.12-1.63-0.18C-98.66-130.26-98.12-130.2-97.58-130.14"/>
<path class="st2" d="M-165.15-129.54c0.52-0.23,1.04-0.46,1.56-0.68C-164.11-130-164.63-129.77-165.15-129.54"/>
<path class="st2" d="M-162.22-130.79c0.52-0.21,1.03-0.43,1.55-0.63C-161.19-131.21-161.71-131-162.22-130.79"/>
<path class="st2" d="M-137.51-128.47c-0.5,0.11-1.01,0.21-1.51,0.32C-138.51-128.25-138.01-128.36-137.51-128.47"/>
<path class="st2" d="M-103.5-130.71c-0.59-0.04-1.18-0.08-1.78-0.11C-104.68-130.79-104.09-130.75-103.5-130.71"/>
<path class="st2" d="M-106.48-130.89c-0.66-0.03-1.32-0.05-1.99-0.07C-107.8-130.94-107.14-130.92-106.48-130.89"/>
<path class="st2" d="M-94.64-129.74c-0.53-0.08-1.06-0.15-1.59-0.22C-95.7-129.89-95.17-129.82-94.64-129.74"/>
<path class="st2" d="M-82.38-137.09c0.54,0.13,1.08,0.26,1.62,0.39C-81.3-136.83-81.84-136.96-82.38-137.09"/>
<path class="st2" d="M-168.19-117.53c0.14-0.07,0.27-0.15,0.41-0.22C-167.92-117.68-168.05-117.6-168.19-117.53L-168.19-117.53z"/>
<path class="st2" d="M-109.47-131c-1-0.03-2-0.04-3.01-0.04C-111.48-131.04-110.48-131.03-109.47-131"/>
<path class="st2" d="M-134.61-129.03c-0.51,0.09-1.02,0.19-1.53,0.29C-135.63-128.84-135.12-128.94-134.61-129.03"/>
<path class="st2" d="M-201.85-105.16c-0.21,0.2-0.43,0.4-0.64,0.6c-20.06-22.27-31.06-50.83-31.06-80.95
	c0-25.48,7.72-49.61,22.38-70.15c7.82,9,16.86,16.87,26.75,23.42c0.74-3.33,1.56-6.61,2.47-9.82c-9.64-6.77-18.33-14.91-25.67-24.22
	l-3.74-4.74l-3.74,4.74c-18.3,23.22-27.98,51.15-27.98,80.77c0,32.67,12,63.63,33.86,87.71l3.17-3.25
	C-204.66-102.47-203.26-103.83-201.85-105.16"/>
<path class="st2" d="M-189.5-115.45c-0.46,0.34-0.93,0.68-1.39,1.03C-190.43-114.76-189.96-115.1-189.5-115.45"/>
<path class="st2" d="M-199.47-107.35c-0.43,0.39-0.86,0.78-1.29,1.17C-200.33-106.57-199.9-106.96-199.47-107.35"/>
<path class="st2" d="M-206.03-94.43l3.41,3.5l0.07-0.07C-203.72-92.12-204.89-93.26-206.03-94.43"/>
<path class="st2" d="M-186.89-117.31c-0.48,0.33-0.96,0.66-1.43,1C-187.85-116.65-187.37-116.98-186.89-117.31"/>
<path class="st2" d="M-192.06-113.52c-0.45,0.35-0.91,0.7-1.36,1.06C-192.97-112.81-192.51-113.17-192.06-113.52"/>
<path class="st2" d="M-197.04-109.47c-0.44,0.37-0.87,0.75-1.31,1.13C-197.92-108.72-197.48-109.09-197.04-109.47"/>
<path class="st2" d="M18.09-185.52c0-10.41-1.23-20.77-3.65-30.8c-0.58-2.4-2.89-4.11-5.34-3.74c-2.81,0.41-4.6,3.13-3.94,5.83
	c2.27,9.34,3.42,19,3.42,28.71c0,11.16-1.51,22.1-4.43,32.58c-0.68,2.45,0.65,5.01,3.07,5.81c2.57,0.86,5.36-0.6,6.09-3.21
	C16.46-161.66,18.09-173.47,18.09-185.52"/>
<path class="st2" d="M-194.57-111.52c-0.44,0.36-0.89,0.72-1.33,1.09C-195.46-110.8-195.02-111.16-194.57-111.52"/>
<path class="st2" d="M-194.27-99.22c0.38-0.35,0.77-0.7,1.16-1.05C-193.5-99.92-193.89-99.57-194.27-99.22"/>
<path class="st2" d="M-184.23-119.12c-0.5,0.33-0.99,0.65-1.48,0.99C-185.22-118.47-184.73-118.79-184.23-119.12"/>
<path class="st2" d="M-192.05-101.22c0.39-0.34,0.78-0.68,1.18-1.01C-191.26-101.9-191.66-101.56-192.05-101.22"/>
<path class="st2" d="M-79.13-136.28c-0.06-0.01-0.11-0.03-0.17-0.04C-79.25-136.31-79.19-136.29-79.13-136.28L-79.13-136.28z"/>
<path class="st2" d="M-187.47-105.03c0.4-0.32,0.81-0.63,1.22-0.95C-186.66-105.66-187.07-105.35-187.47-105.03"/>
<path class="st2" d="M-180.38-121.57c0.19-0.12,0.39-0.23,0.58-0.35c0,0,0,0,0,0C-180-121.81-180.19-121.69-180.38-121.57"/>
<path class="st2" d="M-185.13-106.84c0.41-0.31,0.83-0.61,1.24-0.92C-184.3-107.46-184.72-107.15-185.13-106.84"/>
<path class="st2" d="M-182.75-108.59c0.42-0.3,0.84-0.59,1.26-0.89C-181.91-109.19-182.33-108.89-182.75-108.59"/>
<path class="st2" d="M-140.09-218.3c0.67-2.54-0.84-5.14-3.38-5.81c-10.56-2.79-20.69-7.06-30.09-12.58
	c-0.83,3.16-1.6,6.38-2.27,9.66c9.43,5.25,19.49,9.36,29.94,12.12C-143.36-214.24-140.76-215.76-140.09-218.3"/>
<path class="st2" d="M-189.78-103.15c0.4-0.33,0.8-0.66,1.2-0.98C-188.98-103.81-189.38-103.48-189.78-103.15"/>
<path class="st2" d="M-181.5-120.87c-0.52,0.33-1.04,0.65-1.56,0.98C-182.55-120.22-182.03-120.55-181.5-120.87"/>
<path class="st2" d="M-180.33-110.28c0.43-0.29,0.86-0.58,1.29-0.86C-179.47-110.86-179.9-110.57-180.33-110.28"/>
<path class="st2" d="M-177.88-111.91c0.44-0.29,0.89-0.56,1.33-0.84C-176.99-112.47-177.44-112.19-177.88-111.91"/>
<path class="st2" d="M-195.86-97.75C-195.85-97.74-195.85-97.74-195.86-97.75c0.18-0.16,0.36-0.33,0.54-0.5
	C-195.5-98.08-195.68-97.92-195.86-97.75"/>
<path class="st2" d="M-30.39-111.52c0.44,0.36,0.89,0.72,1.33,1.09C-29.5-110.8-29.95-111.16-30.39-111.52"/>
<path class="st2" d="M-64.3-131.42c0.52,0.21,1.04,0.42,1.55,0.63C-63.26-131-63.78-131.21-64.3-131.42"/>
<path class="st2" d="M-48.42-112.75c0.45,0.28,0.89,0.56,1.33,0.84C-47.52-112.19-47.97-112.47-48.42-112.75"/>
<path class="st2" d="M-40.74-119.12c0.5,0.33,0.99,0.65,1.48,0.99C-39.74-118.47-40.24-118.79-40.74-119.12"/>
<path class="st2" d="M-45.92-111.14c0.43,0.28,0.86,0.57,1.29,0.86C-45.06-110.57-45.49-110.86-45.92-111.14"/>
<path class="st2" d="M-22.41-91l0.07,0.07l3.41-3.5C-20.08-93.26-21.24-92.12-22.41-91"/>
<path class="st2" d="M-38.08-117.31c0.48,0.33,0.96,0.66,1.43,1C-37.12-116.65-37.6-116.98-38.08-117.31"/>
<path class="st2" d="M-29.65-98.25c0.18,0.17,0.35,0.34,0.53,0.51c0,0,0,0,0.01-0.01C-29.29-97.92-29.47-98.08-29.65-98.25"/>
<path class="st2" d="M-67.24-132.55c0.52,0.19,1.04,0.39,1.56,0.59C-66.2-132.15-66.72-132.35-67.24-132.55"/>
<path class="st2" d="M-25.5-107.35c0.43,0.39,0.86,0.78,1.29,1.17C-24.64-106.57-25.07-106.96-25.5-107.35"/>
<path class="st2" d="M-34.1-102.23c0.39,0.34,0.79,0.67,1.18,1.02C-33.31-101.56-33.7-101.9-34.1-102.23"/>
<path class="st2" d="M-44.58-121.57c-0.19-0.12-0.39-0.23-0.58-0.35l0,0C-44.97-121.8-44.77-121.69-44.58-121.57"/>
<path class="st2" d="M-61.38-130.22c0.52,0.22,1.04,0.45,1.56,0.68C-60.34-129.77-60.86-130-61.38-130.22"/>
<path class="st2" d="M-58.5-128.95c0.53,0.24,1.06,0.49,1.59,0.74C-57.43-128.46-57.96-128.71-58.5-128.95"/>
<path class="st2" d="M-32.9-113.52c0.45,0.35,0.91,0.7,1.36,1.06C-32-112.81-32.45-113.17-32.9-113.52"/>
<path class="st2" d="M-56.78-117.53L-56.78-117.53c-0.14-0.07-0.27-0.15-0.41-0.22C-57.05-117.68-56.91-117.6-56.78-117.53"/>
<path class="st2" d="M-43.48-109.48c0.42,0.29,0.84,0.59,1.26,0.89C-42.63-108.89-43.06-109.19-43.48-109.48"/>
<path class="st2" d="M-31.85-100.27c0.39,0.35,0.77,0.7,1.16,1.05C-31.08-99.57-31.46-99.92-31.85-100.27"/>
<path class="st2" d="M-36.38-104.14c0.4,0.32,0.8,0.65,1.2,0.98C-35.58-103.48-35.98-103.81-36.38-104.14"/>
<path class="st2" d="M-55.64-127.62c0.56,0.27,1.11,0.55,1.67,0.83C-54.53-127.06-55.08-127.35-55.64-127.62"/>
<path class="st2" d="M-38.71-105.98c0.41,0.31,0.81,0.63,1.22,0.95C-37.89-105.35-38.3-105.66-38.71-105.98"/>
<path class="st2" d="M-61.03-119.63c-0.47-0.22-0.94-0.45-1.42-0.66C-61.97-120.08-61.5-119.85-61.03-119.63"/>
<path class="st2" d="M-41.07-107.76c0.42,0.31,0.83,0.61,1.24,0.92C-40.25-107.15-40.66-107.45-41.07-107.76"/>
<path class="st2" d="M-27.92-109.47c0.44,0.37,0.87,0.75,1.31,1.13C-27.05-108.72-27.48-109.09-27.92-109.47"/>
<path class="st2" d="M-63.71-120.85c-0.47-0.21-0.94-0.42-1.41-0.62C-64.65-121.27-64.18-121.06-63.71-120.85"/>
<path class="st2" d="M-43.46-120.87c0.52,0.33,1.04,0.65,1.56,0.98C-42.42-120.22-42.94-120.55-43.46-120.87"/>
<path class="st2" d="M-35.47-115.45c0.46,0.34,0.93,0.68,1.39,1.03C-34.54-114.76-35-115.1-35.47-115.45"/>
<path class="st2" d="M-58.32-118.32c-0.49-0.25-0.99-0.5-1.48-0.74C-59.3-118.81-58.81-118.56-58.32-118.32"/>
<path class="st2" d="M-121.47-130.71c-0.43,0.03-0.86,0.07-1.29,0.11C-122.33-130.64-121.9-130.68-121.47-130.71"/>
<path class="st2" d="M-118.49-130.89c-0.4,0.02-0.8,0.05-1.21,0.07C-119.29-130.85-118.89-130.87-118.49-130.89"/>
<path class="st2" d="M-186.26-105.98c0.37-0.29,0.75-0.58,1.13-0.86C-185.51-106.56-185.88-106.27-186.26-105.98"/>
<path class="st2" d="M-130.32-129.74c-0.45,0.07-0.91,0.14-1.36,0.21C-131.23-129.6-130.78-129.68-130.32-129.74"/>
<path class="st2" d="M-133.24-129.28c-0.46,0.08-0.91,0.16-1.37,0.25C-134.15-129.12-133.7-129.2-133.24-129.28"/>
<path class="st2" d="M-195.32-98.25c0.35-0.33,0.7-0.65,1.05-0.97C-194.62-98.9-194.97-98.57-195.32-98.25"/>
<path class="st2" d="M-115.49-131c-0.34,0.01-0.67,0.02-1.01,0.04C-116.17-130.98-115.83-130.99-115.49-131"/>
<path class="st2" d="M-209.26-97.75l3.23,3.32c-1.08-1.11-2.13-2.24-3.17-3.38L-209.26-97.75z"/>
<path class="st2" d="M-124.44-130.46c-0.44,0.04-0.88,0.09-1.32,0.14C-125.32-130.37-124.88-130.42-124.44-130.46"/>
<path class="st2" d="M-190.87-102.23c0.36-0.31,0.73-0.62,1.09-0.92C-190.14-102.85-190.51-102.54-190.87-102.23"/>
<path class="st2" d="M-188.58-104.14c0.37-0.3,0.74-0.6,1.11-0.89C-187.85-104.73-188.22-104.43-188.58-104.14"/>
<path class="st2" d="M-127.39-130.14c-0.45,0.05-0.9,0.12-1.34,0.18C-128.29-130.02-127.84-130.08-127.39-130.14"/>
<path class="st2" d="M-193.11-100.27c0.35-0.32,0.71-0.63,1.07-0.95C-192.4-100.9-192.76-100.59-193.11-100.27"/>
<path class="st2" d="M-193.42-112.46c-0.39,0.31-0.77,0.62-1.16,0.93C-194.19-111.84-193.81-112.15-193.42-112.46"/>
<path class="st2" d="M-84.58-127.83c-0.46-0.11-0.91-0.21-1.37-0.31C-85.49-128.04-85.04-127.93-84.58-127.83"/>
<path class="st2" d="M-190.89-114.42c-0.39,0.3-0.78,0.6-1.17,0.9C-191.67-113.82-191.28-114.12-190.89-114.42"/>
<path class="st2" d="M-90.36-129.03c-0.45-0.08-0.91-0.17-1.37-0.25C-91.27-129.2-90.81-129.12-90.36-129.03"/>
<path class="st2" d="M-185.71-118.13c-0.39,0.27-0.79,0.54-1.18,0.82C-186.5-117.59-186.11-117.86-185.71-118.13"/>
<path class="st2" d="M-87.46-128.47c-0.46-0.09-0.92-0.19-1.37-0.28C-88.37-128.66-87.91-128.56-87.46-128.47"/>
<path class="st2" d="M-188.32-116.31c-0.39,0.28-0.79,0.57-1.18,0.86C-189.11-115.73-188.72-116.02-188.32-116.31"/>
<path class="st2" d="M-200.75-106.18c-0.37,0.34-0.73,0.68-1.09,1.02C-201.49-105.5-201.12-105.84-200.75-106.18"/>
<path class="st2" d="M-198.35-108.34c-0.37,0.33-0.75,0.66-1.12,0.99C-199.1-107.68-198.73-108.01-198.35-108.34"/>
<path class="st2" d="M-195.9-110.43c-0.38,0.32-0.76,0.64-1.14,0.97C-196.67-109.79-196.29-110.11-195.9-110.43"/>
<path class="st2" d="M-96.23-129.96c-0.45-0.06-0.9-0.12-1.34-0.18C-97.13-130.08-96.68-130.02-96.23-129.96"/>
<path class="st2" d="M-102.21-130.61c-0.43-0.03-0.86-0.08-1.29-0.11C-103.07-130.68-102.64-130.64-102.21-130.61"/>
<path class="st2" d="M-179.04-111.14c0.39-0.26,0.77-0.51,1.16-0.76C-178.27-111.66-178.65-111.4-179.04-111.14"/>
<path class="st2" d="M-105.27-130.82c-0.4-0.02-0.8-0.05-1.21-0.07C-106.08-130.87-105.67-130.85-105.27-130.82"/>
<path class="st2" d="M-181.49-109.48c0.38-0.27,0.77-0.54,1.15-0.8C-180.72-110.02-181.1-109.75-181.49-109.48"/>
<path class="st2" d="M-108.46-130.97c-0.34-0.01-0.67-0.03-1.01-0.03C-109.14-130.99-108.8-130.98-108.46-130.97"/>
<path class="st2" d="M-99.21-130.32c-0.44-0.05-0.88-0.1-1.32-0.14C-100.09-130.42-99.65-130.37-99.21-130.32"/>
<path class="st2" d="M-183.07-119.89c-0.39,0.25-0.78,0.51-1.16,0.77C-183.84-119.37-183.46-119.63-183.07-119.89"/>
<path class="st2" d="M-136.14-128.74c-0.46,0.09-0.92,0.18-1.37,0.28C-137.05-128.56-136.59-128.66-136.14-128.74"/>
<path class="st2" d="M-183.89-107.76c0.38-0.28,0.76-0.56,1.14-0.83C-183.13-108.32-183.51-108.04-183.89-107.76"/>
<path class="st2" d="M-93.28-129.53c-0.45-0.07-0.9-0.14-1.36-0.21C-94.19-129.68-93.74-129.6-93.28-129.53"/>
<path class="st2" d="M-180.38-121.57c-0.38,0.23-0.75,0.47-1.12,0.7C-181.13-121.11-180.76-121.34-180.38-121.57"/>
<path class="st2" d="M-120.26-140.32c0.43-0.03,0.86-0.06,1.29-0.08C-119.4-140.37-119.83-140.34-120.26-140.32"/>
<path class="st2" d="M-136.35-138.39c0.49-0.09,0.97-0.18,1.46-0.26C-135.38-138.57-135.86-138.48-136.35-138.39"/>
<path class="st2" d="M-133.19-138.92c0.48-0.08,0.97-0.15,1.46-0.23C-132.22-139.08-132.71-139-133.19-138.92"/>
<path class="st2" d="M-160.67-131.42c0.46-0.18,0.93-0.36,1.39-0.54C-159.74-131.78-160.21-131.6-160.67-131.42"/>
<path class="st2" d="M-123.56-140.08c0.46-0.04,0.92-0.08,1.38-0.11C-122.64-140.17-123.1-140.12-123.56-140.08"/>
<path class="st2" d="M-126.81-139.77c0.47-0.05,0.95-0.1,1.42-0.15C-125.86-139.88-126.33-139.82-126.81-139.77"/>
<path class="st2" d="M-130.02-139.39c0.48-0.06,0.97-0.13,1.45-0.19C-129.05-139.52-129.53-139.45-130.02-139.39"/>
<path class="st2" d="M-139.48-137.77c0.49-0.1,0.98-0.2,1.47-0.3C-138.5-137.98-138.99-137.88-139.48-137.77"/>
<path class="st2" d="M-154.75-133.6c0.47-0.16,0.95-0.32,1.43-0.47C-153.8-133.92-154.28-133.76-154.75-133.6"/>
<path class="st2" d="M-157.72-132.55c0.47-0.17,0.94-0.34,1.41-0.51C-156.79-132.88-157.25-132.72-157.72-132.55"/>
<path class="st2" d="M-145.66-136.32c0.48-0.13,0.97-0.25,1.46-0.37C-144.69-136.57-145.18-136.45-145.66-136.32"/>
<path class="st2" d="M-148.72-135.49c0.48-0.14,0.96-0.27,1.45-0.41C-147.75-135.76-148.24-135.63-148.72-135.49"/>
<path class="st2" d="M-151.75-134.58c0.48-0.15,0.96-0.3,1.44-0.44C-150.79-134.88-151.27-134.73-151.75-134.58"/>
<path class="st2" d="M-142.58-137.09c0.49-0.11,0.97-0.23,1.46-0.34C-141.61-137.31-142.1-137.2-142.58-137.09"/>
<path class="st2" d="M-90.08-138.65c0.49,0.08,0.97,0.17,1.46,0.26C-89.1-138.48-89.59-138.57-90.08-138.65"/>
<path class="st2" d="M-86.95-138.07c0.49,0.1,0.98,0.2,1.47,0.3C-85.97-137.88-86.46-137.98-86.95-138.07"/>
<path class="st2" d="M-93.23-139.15c0.49,0.07,0.97,0.15,1.45,0.23C-92.26-139-92.74-139.08-93.23-139.15"/>
<path class="st2" d="M-116.81-140.47c0.36-0.01,0.72-0.03,1.08-0.04C-116.09-140.5-116.45-140.48-116.81-140.47"/>
<path class="st2" d="M-96.4-139.58c0.48,0.06,0.97,0.13,1.45,0.19C-95.43-139.45-95.91-139.52-96.4-139.58"/>
<path class="st2" d="M-83.84-137.42c0.49,0.11,0.98,0.22,1.46,0.34C-82.87-137.2-83.35-137.31-83.84-137.42"/>
<path class="st2" d="M-99.58-139.93c0.48,0.05,0.95,0.1,1.42,0.15C-98.63-139.83-99.11-139.88-99.58-139.93"/>
<path class="st2" d="M-109.23-140.51c0.36,0.01,0.72,0.03,1.08,0.04C-108.52-140.48-108.87-140.5-109.23-140.51"/>
<path class="st2" d="M-176.52-112.77c-0.01,0.01-0.02,0.01-0.03,0.02C-176.54-112.75-176.53-112.76-176.52-112.77"/>
<path class="st2" d="M-102.78-140.2c0.46,0.03,0.92,0.08,1.38,0.11C-101.86-140.12-102.32-140.17-102.78-140.2"/>
<path class="st2" d="M-106-140.39c0.43,0.02,0.86,0.05,1.29,0.08C-105.14-140.34-105.57-140.37-106-140.39"/>
<path class="st2" d="M-155.83-123.09c-0.44,0.17-0.88,0.33-1.31,0.51C-156.71-122.75-156.27-122.92-155.83-123.09"/>
<path class="st2" d="M-76.45-69.88c-10.92,9.76-23.21,14.93-36.03,14.93c19.82,0,38.92-4.37,56.25-12.65l-3.04-9.1
	C-64.81-73.99-70.55-71.71-76.45-69.88"/>
<path class="st2" d="M-166.65-118.32c-0.38,0.19-0.76,0.37-1.13,0.57C-167.4-117.94-167.02-118.13-166.65-118.32"/>
<path class="st2" d="M-144.71-126.73c-0.45,0.13-0.91,0.25-1.36,0.38C-145.62-126.48-145.16-126.6-144.71-126.73"/>
<path class="st2" d="M-163.94-119.63c-0.41,0.19-0.82,0.38-1.23,0.58C-164.76-119.25-164.35-119.44-163.94-119.63"/>
<path class="st2" d="M-147.52-125.92c-0.45,0.14-0.91,0.27-1.36,0.42C-148.43-125.65-147.97-125.78-147.52-125.92"/>
<path class="st2" d="M-150.32-125.04c-0.45,0.15-0.9,0.29-1.34,0.45C-151.21-124.75-150.76-124.9-150.32-125.04"/>
<path class="st2" d="M-153.08-124.1c-0.44,0.16-0.89,0.31-1.33,0.48C-153.97-123.78-153.53-123.94-153.08-124.1"/>
<path class="st2" d="M-158.55-122c-0.43,0.18-0.86,0.35-1.29,0.53C-159.42-121.65-158.98-121.83-158.55-122"/>
<path class="st2" d="M-161.25-120.85c-0.42,0.19-0.85,0.37-1.26,0.56C-162.1-120.49-161.68-120.67-161.25-120.85"/>
<path class="st2" d="M-171.33-126.61L-171.33-126.61c0.11-0.06,0.23-0.11,0.35-0.17C-171.1-126.73-171.22-126.67-171.33-126.61"/>
<path class="st2" d="M-195.85-97.74c-1.14,1.08-2.26,2.18-3.36,3.31l-3.34,3.43c24.39,23.29,56.18,36.06,90.07,36.06
	c-12.83,0-25.11-5.18-36.04-14.93C-166.07-75.32-182.2-84.75-195.85-97.74"/>
<path class="st2" d="M-163.58-130.22c0.45-0.19,0.91-0.38,1.36-0.56C-162.68-130.6-163.13-130.42-163.58-130.22"/>
<path class="st2" d="M-169.32-127.62c0.42-0.2,0.84-0.4,1.26-0.59C-168.48-128.01-168.9-127.82-169.32-127.62"/>
<path class="st2" d="M-166.47-128.95c0.44-0.2,0.88-0.39,1.32-0.59C-165.59-129.35-166.03-129.15-166.47-128.95"/>
<path class="st2" d="M-139.01-128.14c-0.46,0.1-0.91,0.21-1.37,0.31C-139.93-127.94-139.47-128.04-139.01-128.14"/>
<path class="st2" d="M-141.87-127.47c-0.45,0.11-0.91,0.23-1.36,0.35C-142.78-127.24-142.33-127.36-141.87-127.47"/>
<path class="st2" d="M-39.25-118.13c0.39,0.27,0.79,0.54,1.18,0.82C-38.47-117.59-38.86-117.86-39.25-118.13"/>
<path class="st2" d="M-65.68-131.96c0.46,0.18,0.93,0.35,1.39,0.54C-64.76-131.6-65.22-131.78-65.68-131.96"/>
<path class="st2" d="M-34.08-114.42c0.39,0.3,0.78,0.6,1.17,0.9C-33.29-113.82-33.68-114.12-34.08-114.42"/>
<path class="st2" d="M-53.63-126.61L-53.63-126.61c-0.11-0.06-0.23-0.12-0.35-0.17C-53.86-126.73-53.75-126.67-53.63-126.61"/>
<path class="st2" d="M-68.65-133.05c0.47,0.17,0.94,0.33,1.41,0.51C-67.71-132.72-68.18-132.88-68.65-133.05"/>
<path class="st2" d="M-31.55-112.46c0.39,0.31,0.77,0.62,1.16,0.93C-30.78-111.84-31.16-112.15-31.55-112.46"/>
<path class="st2" d="M-57.19-117.75c-0.37-0.19-0.75-0.38-1.13-0.57C-57.94-118.13-57.56-117.94-57.19-117.75"/>
<path class="st2" d="M-59.8-119.05c-0.41-0.2-0.82-0.39-1.23-0.58C-60.62-119.44-60.21-119.25-59.8-119.05"/>
<path class="st2" d="M-62.45-120.29c-0.42-0.19-0.84-0.37-1.26-0.56C-63.29-120.67-62.87-120.49-62.45-120.29"/>
<path class="st2" d="M-62.74-130.79c0.45,0.19,0.91,0.37,1.36,0.56C-61.83-130.42-62.29-130.6-62.74-130.79"/>
<path class="st2" d="M-56.9-128.21c0.42,0.2,0.84,0.39,1.26,0.59C-56.06-127.82-56.48-128.01-56.9-128.21"/>
<path class="st2" d="M-44.58-121.57c0.38,0.23,0.75,0.47,1.12,0.7C-43.83-121.11-44.21-121.34-44.58-121.57"/>
<path class="st2" d="M-36.64-116.31c0.39,0.28,0.79,0.57,1.18,0.86C-35.86-115.73-36.25-116.02-36.64-116.31"/>
<path class="st2" d="M-35.19-103.15c0.37,0.3,0.73,0.61,1.09,0.92C-34.46-102.54-34.82-102.85-35.19-103.15"/>
<path class="st2" d="M-32.92-101.22c0.36,0.31,0.71,0.63,1.07,0.95C-32.2-100.59-32.56-100.9-32.92-101.22"/>
<path class="st2" d="M-37.49-105.03c0.37,0.3,0.74,0.59,1.11,0.89C-36.75-104.43-37.12-104.73-37.49-105.03"/>
<path class="st2" d="M-30.69-99.22c0.35,0.32,0.7,0.65,1.05,0.97C-29.99-98.57-30.34-98.9-30.69-99.22"/>
<path class="st2" d="M-48.42-112.75c-0.01-0.01-0.02-0.01-0.03-0.02C-48.44-112.76-48.43-112.75-48.42-112.75"/>
<path class="st2" d="M-39.83-106.84c0.38,0.28,0.75,0.58,1.13,0.86C-39.08-106.27-39.46-106.56-39.83-106.84"/>
<path class="st2" d="M-15.71-97.75l-0.06-0.07c-1.04,1.14-2.09,2.27-3.17,3.38L-15.71-97.75z"/>
<path class="st2" d="M-24.21-106.18c0.37,0.34,0.73,0.68,1.09,1.02C-23.48-105.5-23.84-105.84-24.21-106.18"/>
<path class="st2" d="M-26.61-108.34c0.37,0.33,0.75,0.66,1.12,0.99C-25.87-107.68-26.24-108.01-26.61-108.34"/>
<path class="st2" d="M-42.21-108.59c0.38,0.27,0.76,0.55,1.14,0.83C-41.45-108.04-41.83-108.32-42.21-108.59"/>
<path class="st2" d="M-44.63-110.28c0.39,0.26,0.77,0.53,1.15,0.8C-43.86-109.75-44.25-110.02-44.63-110.28"/>
<path class="st2" d="M-47.08-111.91c0.39,0.25,0.77,0.51,1.16,0.76C-46.31-111.4-46.69-111.66-47.08-111.91"/>
<path class="st2" d="M-195.85-97.74C-195.85-97.74-195.85-97.74-195.85-97.74c0.17-0.18,0.35-0.34,0.53-0.51
	c0.35-0.33,0.7-0.65,1.05-0.97c0.38-0.35,0.77-0.7,1.16-1.05c0.35-0.32,0.71-0.63,1.07-0.95c0.39-0.34,0.78-0.68,1.18-1.01
	c0.36-0.31,0.73-0.62,1.09-0.92c0.4-0.33,0.8-0.66,1.2-0.98c0.37-0.3,0.74-0.6,1.11-0.89c0.4-0.32,0.81-0.63,1.22-0.95
	c0.37-0.29,0.75-0.58,1.13-0.86c0.41-0.31,0.82-0.61,1.24-0.92c0.38-0.28,0.76-0.56,1.14-0.83c0.42-0.3,0.84-0.59,1.26-0.89
	c0.38-0.27,0.77-0.54,1.15-0.8c0.43-0.29,0.86-0.57,1.29-0.86c0.39-0.26,0.77-0.52,1.16-0.77c0.44-0.29,0.89-0.56,1.33-0.84
	c0.01-0.01,0.02-0.01,0.03-0.02c-1.17-2.98-2.26-6.04-3.28-9.16c-0.19,0.12-0.39,0.23-0.58,0.35c-0.38,0.23-0.75,0.47-1.12,0.7
	c-0.52,0.33-1.04,0.65-1.56,0.98c-0.39,0.25-0.78,0.51-1.16,0.77c-0.5,0.33-0.99,0.65-1.48,0.99c-0.39,0.27-0.79,0.54-1.18,0.82
	c-0.48,0.33-0.96,0.67-1.43,1.01c-0.39,0.28-0.79,0.57-1.18,0.86c-0.46,0.34-0.93,0.68-1.39,1.03c-0.39,0.3-0.78,0.6-1.17,0.9
	c-0.45,0.35-0.91,0.7-1.36,1.06c-0.39,0.31-0.77,0.62-1.16,0.93c-0.44,0.36-0.89,0.72-1.33,1.09c-0.38,0.32-0.76,0.64-1.14,0.97
	c-0.44,0.37-0.87,0.75-1.31,1.13c-0.37,0.33-0.75,0.66-1.12,0.99c-0.43,0.39-0.86,0.77-1.29,1.17c-0.37,0.34-0.73,0.68-1.09,1.02
	c-1.42,1.33-2.81,2.69-4.18,4.1l-3.17,3.25c1.04,1.14,2.09,2.27,3.17,3.38c1.14,1.17,2.3,2.31,3.47,3.43l3.34-3.43
	C-198.11-95.56-196.99-96.66-195.85-97.74"/>
<path class="st2" d="M-179.8-121.92c0.39-0.24,0.79-0.47,1.19-0.7c0.32-0.19,0.63-0.38,0.95-0.56c0.9-0.52,1.82-1.04,2.73-1.54
	c0.29-0.16,0.58-0.31,0.88-0.47c0.64-0.34,1.27-0.68,1.91-1.01c0.27-0.14,0.54-0.27,0.81-0.41c-5.61-17.82-8.6-37.94-8.6-58.91
	c0-14.39,1.4-28.39,4.1-41.51c-2.92-1.63-5.79-3.37-8.58-5.22c-3.29,14.72-5.03,30.5-5.03,46.73
	C-189.44-162.89-186.08-141.14-179.8-121.92"/>
<path class="st2" d="M-62.4-86.08l-3.87-11.61c-12.66,21.44-29.03,33.24-46.21,33.24c12.42,0,24.53-1.86,36.03-5.42
	C-71.45-74.34-66.75-79.76-62.4-86.08"/>
<path class="st2" d="M-159.41-272.12c12.75-22.22,29.42-34.46,46.93-34.46c17.51,0,34.18,12.24,46.93,34.46
	c13.23,23.05,20.52,53.81,20.52,86.6c0,5.73-0.24,11.4-0.68,16.97c-0.17,2.17,1.17,4.17,3.24,4.86c2.92,0.97,6-1.04,6.25-4.11
	c0.46-5.83,0.71-11.74,0.71-17.72c0-34.42-7.74-66.86-21.78-91.34c-14.52-25.3-34.12-39.24-55.18-39.24
	c-21.06,0-40.66,13.94-55.18,39.24c-5.92,10.32-10.71,22.07-14.28,34.78c2.72,1.91,5.52,3.7,8.38,5.38
	C-170.14-249.72-165.39-261.71-159.41-272.12"/>
<path class="st2" d="M-159.41-98.92c-3.3-5.75-6.23-11.99-8.77-18.61c-0.54,0.28-1.08,0.56-1.61,0.85
	c-0.45,0.24-0.89,0.49-1.34,0.73c-0.58,0.32-1.16,0.65-1.74,0.98c-0.37,0.21-0.73,0.44-1.1,0.65c-0.47,0.28-0.95,0.56-1.42,0.85
	c-0.38,0.23-0.75,0.47-1.12,0.7c2.59,6.58,5.54,12.81,8.85,18.58c5.68,9.89,12.13,18.04,19.15,24.31
	c11.51,3.57,23.62,5.42,36.03,5.42C-129.99-64.45-146.66-76.69-159.41-98.92"/>
<path class="st2" d="M-171.14-115.94c-0.58,0.32-1.16,0.65-1.74,0.98C-172.3-115.3-171.72-115.62-171.14-115.94"/>
<path class="st2" d="M-174.93-124.73c-0.92,0.5-1.83,1.01-2.73,1.54C-176.76-123.72-175.85-124.23-174.93-124.73"/>
<path class="st2" d="M-175.83-227.03c0.67-3.28,1.44-6.49,2.27-9.66c-2.86-1.68-5.66-3.47-8.38-5.38c-0.9,3.21-1.72,6.49-2.47,9.82
	C-181.62-230.4-178.76-228.66-175.83-227.03"/>
<path class="st2" d="M-179.8-121.92L-179.8-121.92c0.39-0.24,0.79-0.47,1.19-0.7C-179.01-122.39-179.41-122.16-179.8-121.92"/>
<path class="st2" d="M-173.98-114.31c-0.47,0.28-0.95,0.56-1.42,0.85C-174.92-113.76-174.45-114.03-173.98-114.31"/>
<path class="st2" d="M-172.14-126.21c-0.64,0.33-1.28,0.67-1.91,1.01C-173.42-125.54-172.79-125.88-172.14-126.21"/>
<path class="st2" d="M-169.8-116.68c0.54-0.29,1.07-0.57,1.61-0.85v0C-168.73-117.25-169.27-116.97-169.8-116.68"/>
<path class="st2" d="M-55.16-116.68c-0.54-0.29-1.07-0.58-1.61-0.86v0C-56.24-117.25-55.7-116.97-55.16-116.68"/>
<path class="st2" d="M-52.82-126.21c0.64,0.33,1.28,0.67,1.91,1.01C-51.55-125.54-52.18-125.88-52.82-126.21"/>
<path class="st2" d="M-50.03-124.73c0.92,0.5,1.83,1.01,2.73,1.54C-48.21-123.72-49.12-124.23-50.03-124.73"/>
<path class="st2" d="M-45.16-121.92c-0.39-0.24-0.79-0.47-1.19-0.7C-45.95-122.39-45.56-122.16-45.16-121.92L-45.16-121.92z"/>
<path class="st2" d="M-53.83-115.94c0.58,0.32,1.16,0.65,1.74,0.98C-52.66-115.3-53.24-115.62-53.83-115.94"/>
<path class="st2" d="M-50.99-114.31c0.47,0.28,0.95,0.56,1.42,0.85C-50.04-113.76-50.51-114.03-50.99-114.31"/>
<path class="st2" d="M-174.06-125.19c-0.29,0.16-0.59,0.31-0.88,0.47C-174.64-124.89-174.35-125.04-174.06-125.19"/>
<path class="st2" d="M-169.8-116.68c-0.45,0.24-0.89,0.49-1.34,0.73C-170.7-116.19-170.25-116.44-169.8-116.68"/>
<path class="st2" d="M-172.88-114.97c-0.37,0.21-0.73,0.44-1.1,0.65C-173.61-114.53-173.25-114.75-172.88-114.97"/>
<path class="st2" d="M-172.14-126.21c0.27-0.14,0.54-0.27,0.81-0.41v0C-171.6-126.48-171.88-126.35-172.14-126.21"/>
<path class="st2" d="M-177.67-123.19c-0.32,0.18-0.63,0.38-0.95,0.56C-178.3-122.81-177.98-123.01-177.67-123.19"/>
<path class="st2" d="M-112.48-64.45c-12.42,0-24.53-1.86-36.03-5.42c10.92,9.76,23.21,14.93,36.03,14.93
	c12.83,0,25.11-5.18,36.03-14.93C-87.95-66.31-100.07-64.45-112.48-64.45"/>
<path class="st2" d="M-175.39-113.47c-0.38,0.23-0.75,0.47-1.12,0.7C-176.14-113-175.77-113.24-175.39-113.47"/>
<path class="st2" d="M-48.45-112.77L-48.45-112.77c-0.37-0.23-0.75-0.47-1.12-0.7C-49.19-113.24-48.82-113-48.45-112.77"/>
<path class="st2" d="M-52.09-114.97c0.37,0.21,0.73,0.44,1.1,0.65C-51.35-114.53-51.72-114.75-52.09-114.97"/>
<path class="st2" d="M-47.3-123.19c0.32,0.18,0.63,0.38,0.95,0.56C-46.67-122.81-46.98-123.01-47.3-123.19"/>
<path class="st2" d="M-52.82-126.21c-0.27-0.14-0.54-0.27-0.81-0.41v0C-53.36-126.48-53.09-126.35-52.82-126.21"/>
<path class="st2" d="M-50.91-125.19c0.29,0.16,0.59,0.31,0.88,0.47C-50.32-124.89-50.62-125.04-50.91-125.19"/>
<path class="st2" d="M-55.16-116.68c0.45,0.24,0.89,0.49,1.34,0.73C-54.27-116.19-54.72-116.44-55.16-116.68"/>
<path class="st2" d="M-173.98-114.31c0.37-0.22,0.73-0.44,1.1-0.65c0.58-0.33,1.16-0.66,1.74-0.98c0.44-0.25,0.89-0.49,1.34-0.73
	c0.54-0.29,1.07-0.58,1.61-0.86c-1.13-2.95-2.17-5.98-3.14-9.08c-0.27,0.14-0.54,0.27-0.81,0.41c-0.64,0.33-1.28,0.67-1.91,1.01
	c-0.29,0.16-0.59,0.31-0.88,0.46c-0.92,0.5-1.83,1.01-2.73,1.54c-0.32,0.18-0.63,0.38-0.95,0.56c-0.4,0.23-0.79,0.47-1.19,0.71
	c1.02,3.12,2.11,6.18,3.28,9.16c0.37-0.23,0.75-0.47,1.12-0.7C-174.92-113.76-174.45-114.03-173.98-114.31"/>
<rect x="-117.24" y="-311.34" class="st2" width="9.51" height="251.64"/>
<path class="st2" d="M-184.69-180.76h-53.61c-2.63,0-4.76-2.13-4.76-4.76s2.13-4.76,4.76-4.76h53.61c2.63,0,4.76,2.13,4.76,4.76
	S-182.06-180.76-184.69-180.76"/>
<path class="st2" d="M-3.09-180.76h-179c-2.63,0-4.76-2.13-4.76-4.76s2.13-4.76,4.76-4.76h179c2.63,0,4.76,2.13,4.76,4.76
	S-0.47-180.76-3.09-180.76"/>
<path class="st2" d="M-88.7-132.34c0-2.65,1.99-4.84,4.57-5.15c-0.45-0.1-0.9-0.2-1.35-0.29c-0.49-0.1-0.98-0.2-1.47-0.3
	c-0.55-0.11-1.11-0.21-1.67-0.31c-0.49-0.09-0.97-0.18-1.46-0.26c-0.56-0.1-1.13-0.18-1.69-0.27c-0.49-0.08-0.97-0.15-1.45-0.23
	c-0.57-0.08-1.15-0.16-1.72-0.23c-0.48-0.06-0.97-0.13-1.45-0.19c-0.58-0.07-1.17-0.13-1.76-0.2c-0.47-0.05-0.95-0.11-1.42-0.15
	c-0.61-0.06-1.21-0.11-1.82-0.16c-0.46-0.04-0.92-0.08-1.38-0.11c-0.64-0.05-1.28-0.08-1.92-0.12c-0.43-0.02-0.86-0.06-1.29-0.08
	c-0.72-0.03-1.44-0.06-2.16-0.08c-0.36-0.01-0.72-0.03-1.08-0.04c-1.08-0.03-2.16-0.04-3.25-0.04c-1.08,0-2.17,0.01-3.25,0.04
	c-0.36,0.01-0.72,0.03-1.08,0.04c-0.72,0.02-1.44,0.05-2.16,0.08c-0.43,0.02-0.86,0.05-1.29,0.08c-0.64,0.04-1.28,0.07-1.92,0.12
	c-0.46,0.03-0.92,0.08-1.38,0.11c-0.61,0.05-1.22,0.1-1.82,0.16c-0.48,0.05-0.95,0.1-1.42,0.15c-0.59,0.06-1.17,0.13-1.76,0.2
	c-0.49,0.06-0.97,0.13-1.45,0.19c-0.57,0.08-1.15,0.15-1.72,0.23c-0.49,0.07-0.97,0.15-1.46,0.23c-0.57,0.09-1.13,0.18-1.7,0.27
	c-0.49,0.08-0.97,0.17-1.46,0.26c-0.56,0.1-1.11,0.2-1.67,0.31c-0.49,0.1-0.98,0.2-1.47,0.3c-0.55,0.11-1.1,0.23-1.64,0.35
	c-0.49,0.11-0.98,0.22-1.46,0.34c-0.54,0.13-1.08,0.26-1.62,0.39c-0.49,0.12-0.97,0.24-1.46,0.37c-0.54,0.14-1.07,0.28-1.61,0.43
	c-0.48,0.13-0.97,0.27-1.45,0.41c-0.53,0.15-1.06,0.31-1.59,0.47c-0.48,0.14-0.96,0.29-1.44,0.44c-0.53,0.16-1.05,0.34-1.58,0.51
	c-0.48,0.16-0.95,0.31-1.43,0.47c-0.52,0.18-1.04,0.36-1.56,0.55c-0.47,0.17-0.94,0.33-1.41,0.51c-0.52,0.19-1.04,0.39-1.56,0.59
	c-0.46,0.18-0.93,0.35-1.39,0.54c-0.52,0.2-1.04,0.42-1.55,0.63c-0.46,0.19-0.91,0.37-1.36,0.56c-0.52,0.22-1.04,0.45-1.56,0.68
	c-0.44,0.2-0.89,0.39-1.32,0.59c-0.53,0.24-1.06,0.49-1.59,0.74c-0.42,0.2-0.84,0.39-1.26,0.59c-0.56,0.27-1.11,0.55-1.67,0.83
	c-0.11,0.06-0.23,0.11-0.35,0.17c0.97,3.09,2.01,6.13,3.14,9.08c0.14-0.07,0.27-0.15,0.41-0.22c0.38-0.19,0.76-0.38,1.13-0.57
	c0.49-0.25,0.98-0.5,1.48-0.74c0.41-0.2,0.82-0.39,1.23-0.58c0.47-0.22,0.94-0.45,1.42-0.66c0.42-0.19,0.84-0.37,1.26-0.56
	c0.47-0.21,0.94-0.42,1.41-0.62c0.43-0.18,0.86-0.36,1.29-0.54c0.47-0.19,0.94-0.39,1.41-0.57c0.44-0.17,0.87-0.34,1.31-0.51
	c0.47-0.18,0.94-0.36,1.42-0.54c0.44-0.16,0.89-0.32,1.33-0.48c0.47-0.17,0.95-0.34,1.42-0.5c0.45-0.15,0.9-0.3,1.34-0.45
	c0.48-0.16,0.96-0.31,1.44-0.46c0.45-0.14,0.9-0.28,1.36-0.41c0.48-0.15,0.97-0.29,1.45-0.43c0.45-0.13,0.91-0.26,1.36-0.38
	c0.49-0.13,0.98-0.27,1.47-0.39c0.45-0.12,0.91-0.23,1.36-0.35c0.5-0.12,0.99-0.24,1.49-0.36c0.46-0.11,0.91-0.21,1.37-0.31
	c0.5-0.11,1-0.22,1.51-0.32c0.46-0.09,0.91-0.19,1.37-0.28c0.51-0.1,1.02-0.19,1.53-0.29c0.46-0.08,0.91-0.17,1.37-0.24
	c0.52-0.09,1.04-0.17,1.56-0.25c0.45-0.07,0.9-0.14,1.36-0.21c0.53-0.08,1.06-0.15,1.59-0.22c0.45-0.06,0.89-0.12,1.34-0.18
	c0.54-0.07,1.09-0.12,1.63-0.18c0.44-0.05,0.88-0.1,1.32-0.14c0.56-0.05,1.12-0.1,1.68-0.15c0.43-0.04,0.86-0.07,1.29-0.11
	c0.59-0.04,1.18-0.08,1.78-0.11c0.4-0.02,0.8-0.05,1.21-0.07c0.66-0.03,1.32-0.05,1.99-0.07c0.34-0.01,0.67-0.03,1.01-0.04
	c1-0.02,2-0.04,3.01-0.04c1.01,0,2.01,0.01,3.01,0.04c6.25,0.15,12.49,0.78,18.64,1.89c1.35,0.24,2.7,0.51,4.04,0.8
	C-87.96-129.27-88.7-130.72-88.7-132.34"/>
<path class="st2" d="M-78.33-132.34c0-1.81-0.93-3.41-2.34-4.34c-0.03-0.01-0.06-0.01-0.09-0.02c-0.54-0.13-1.08-0.27-1.62-0.39
	c-0.49-0.11-0.97-0.23-1.46-0.34c-0.1-0.02-0.2-0.04-0.29-0.06c-2.57,0.31-4.57,2.49-4.57,5.15c0,1.62,0.74,3.07,1.91,4.02
	c1.22,0.26,2.44,0.54,3.65,0.84c0.26,0.06,0.51,0.14,0.77,0.2C-80.06-127.8-78.33-129.86-78.33-132.34"/>
<polygon class="st5" points="830.96,-69.3 845.3,-45.84 850.19,-54.64 853.57,-58.57 866.81,-61.16 865.51,-64.74 852.85,-81.37 
	845.79,-72.66 "/>
<polygon class="st5" points="779.71,-79.17 773.26,-64.42 784.02,-62.13 789.23,-45.18 808.14,-68 803.23,-69.64 790.7,-69.64 
	788.25,-72.56 781.08,-81.37 "/>
<path class="st5" d="M819.57-159.94c-18.52,0-33.58,15.07-33.58,33.58c0,18.52,15.07,33.58,33.58,33.58
	c18.52,0,33.58-15.07,33.58-33.58C853.16-144.88,838.09-159.94,819.57-159.94"/>
<path class="st2" d="M852.7-77.95l11.52,15.15l-12,2.26l-1.9,0.36l-0.86,1.74l-5.39,10.96L829-67.3l0.86-0.41h9.61h0.02h0
	c3.21,0,6.2-1.44,8.19-3.95L852.7-77.95 M853.45-83.37l-2.25,1.08l-6.55,8.21c-1.25,1.57-3.15,2.49-5.15,2.49h-0.02h-10.5
	l-5.94,2.86l18.5,24.33c0.63,0.82,1.6,1.31,2.63,1.31c0.11,0,0.21-0.01,0.32-0.02c1.14-0.11,2.14-0.8,2.65-1.83l5.8-11.79
	l12.83-2.42c1.1-0.21,2.07-0.91,2.5-1.94c0.49-1.16,0.29-2.41-0.4-3.33L853.45-83.37z"/>
<path class="st2" d="M780.58-77.95l5.01,6.29c2,2.51,4.98,3.96,8.21,3.96h9.62l0.86,0.41l-15.07,19.82l-5.39-10.96l-0.86-1.74
	l-1.9-0.36l-12-2.26L780.58-77.95 M779.83-83.37l-14.41,18.95c-1.25,1.65-0.73,4.09,1.27,5.02c0.25,0.12,0.52,0.19,0.78,0.24
	l12.88,2.43l5.76,11.71c0.48,0.98,1.38,1.71,2.46,1.88c0.18,0.03,0.37,0.05,0.55,0.05c1.03,0,2.01-0.48,2.63-1.31l18.5-24.33
	l-5.93-2.86h-10.5h-0.02c-2.01,0-3.91-0.92-5.15-2.49l-6.55-8.21L779.83-83.37z"/>
<path class="st6" d="M845.25-168.76l-3.9-4.88c-0.61-0.77-1.54-1.21-2.52-1.21"/>
<path class="st6" d="M867.24-141.18l-5.03-6.3l-2.44-10.67c-0.22-0.95-0.86-1.76-1.74-2.18l-5.3-2.55"/>
<line class="st6" x1="868.16" y1="-129.6" x2="869.66" y2="-136.2"/>
<path class="st6" d="M838.84-174.86H827.9l-9.86-4.75c-0.88-0.42-1.91-0.42-2.79,0l-9.86,4.75h-10.95c-0.98,0-1.91,0.45-2.52,1.21
	l-6.82,8.56l-9.86,4.75c-0.88,0.43-1.52,1.23-1.74,2.18l-2.44,10.67l-6.82,8.56c-0.61,0.76-0.84,1.77-0.62,2.72l2.44,10.67
	l-2.44,10.67c-0.22,0.96,0.01,1.96,0.62,2.72l6.82,8.56l2.44,10.67c0.22,0.96,0.86,1.76,1.74,2.18l9.86,4.75l6.82,8.56
	c0.61,0.77,1.54,1.21,2.52,1.21h10.95l9.86,4.75c0.88,0.42,1.91,0.42,2.79,0l9.86-4.75h10.95c0.98,0,1.91-0.45,2.52-1.21l6.83-8.56
	l9.86-4.75c0.88-0.42,1.52-1.23,1.74-2.18l2.44-10.67l6.82-8.56c0.61-0.77,0.84-1.77,0.62-2.72l-1.61-7.04"/>
<path class="st6" d="M848.46-144.12c-0.66-1.12-1.39-2.22-2.18-3.28"/>
<path class="st6" d="M839.15-154.66c-12.76-9.8-30.99-10.42-44.53-0.36c-16.34,12.14-19.76,35.32-7.62,51.66
	c12.14,16.35,35.32,19.76,51.67,7.62c13.91-10.34,18.46-28.66,12.02-43.97"/>
<polygon class="st7" points="807.11,-121.68 797.45,-131.1 810.8,-133.04 816.78,-145.14 822.75,-133.04 836.1,-131.1 
	826.44,-121.68 828.72,-108.38 816.78,-114.66 804.83,-108.38 "/>
<path class="st2" d="M816.78-140.76l3.78,7.66l0.9,1.83l2.02,0.29l8.46,1.23l-6.12,5.97l-1.46,1.42l0.35,2.01l1.44,8.42l-7.56-3.98
	l-1.8-0.95l-1.8,0.95l-7.57,3.98l1.44-8.42l0.35-2.01l-1.46-1.42l-6.12-5.97l8.46-1.23l2.02-0.29l0.9-1.83L816.78-140.76z
	 M816.78-149.52l-7.26,14.71l-16.23,2.36L805.03-121l-2.77,16.17l14.52-7.63l14.52,7.63L828.52-121l11.75-11.45l-16.23-2.36
	L816.78-149.52z"/>
<g>
	<path class="st5" d="M179.67,91.39c-1.16,1.35-2.23,2.72-3.21,4.12c-1.58,5.14-2.15,10.48-1.37,15.75
		c6.1,0.37,12.2-1.01,17.81-3.85c7.41-8.17,11.73-19.35,12.17-31.46C196.47,77.2,187.02,82.88,179.67,91.39"/>
	<path class="st2" d="M190.31,106.87c-0.54,0.6-1.1,1.18-1.68,1.75c-5.71,5.52-12.82,8.73-19.85,9.02c-0.31-6.97,2.16-14.45,7-21.29
		c0.87-1.24,1.81-2.46,2.84-3.65c6.5-7.53,14.85-12.55,22.45-13.65c-0.03,0.89-0.09,1.77-0.17,2.64c-0.16,1.71,1.16,3.2,2.87,3.3
		c1.63,0.09,3.06-1.11,3.21-2.74c0.2-2.16,0.27-4.35,0.21-6.57l-0.08-2.97h-2.97c-5.4,0-11.23,1.76-16.78,4.91
		c-4.81,2.73-9.42,6.5-13.37,11.08c-7.6,8.81-11.61,19.1-11.32,28.76c0.04,1.23,0.13,2.45,0.31,3.65l0.36,2.46l2.48,0.15
		c0.63,0.04,1.25,0.06,1.88,0.06c6.41,0,12.89-1.99,18.67-5.64c2.3-1.45,4.49-3.16,6.52-5.13c2.5-2.42,4.71-5.16,6.59-8.13
		c0.9-1.43,0.5-3.32-0.92-4.24c-1.43-0.92-3.33-0.49-4.24,0.94C193.13,103.47,191.79,105.24,190.31,106.87"/>
	<path class="st2" d="M202.55,89.09L202.55,89.09c-1.55-0.29-3.06,0.65-3.48,2.17c-0.35,1.27-0.77,2.65-1.17,3.9
		c-0.49,1.52,0.28,3.16,1.76,3.75c1.63,0.64,3.47-0.24,3.99-1.92c0.33-1.08,0.65-2.14,0.83-2.66c0.15-0.46,0.3-0.92,0.44-1.38
		C205.44,91.22,204.32,89.42,202.55,89.09"/>
	<path class="st5" d="M104.06,44.87c-1.81,2.6-41.5,74.07-41.5,74.07l19.08,46.46l2.31,5.62l-4.67,11.88l-5.39,13.71l6.04,0.26
		l6.22,0.27l51.74,2.22l-10.97-26.51l22.13-43.52l2.8-5.51l2.49-4.9C154.33,118.92,108.15,50.76,104.06,44.87"/>
	<path class="st5" d="M127.27,274.51c-0.3-0.16-0.6-0.32-0.9-0.49C126.67,274.19,126.97,274.35,127.27,274.51"/>
	<path class="st5" d="M104.5,249.53c-0.15-0.26-0.3-0.52-0.45-0.79C104.2,249.01,104.35,249.27,104.5,249.53"/>
	<path class="st5" d="M124.82,273.08c-0.3-0.19-0.59-0.39-0.89-0.59C124.23,272.69,124.52,272.89,124.82,273.08"/>
	<path class="st5" d="M103.62,247.98c-0.15-0.26-0.29-0.52-0.43-0.78C103.33,247.46,103.47,247.72,103.62,247.98"/>
	<path class="st5" d="M106.66,253.12c-0.28-0.45-0.57-0.91-0.85-1.37C106.1,252.21,106.38,252.67,106.66,253.12"/>
	<path class="st5" d="M105.44,251.11c-0.17-0.28-0.34-0.57-0.51-0.86C105.1,250.55,105.27,250.83,105.44,251.11"/>
	<path class="st5" d="M135,277.12c-0.29-0.04-0.57-0.09-0.86-0.15C134.43,277.03,134.71,277.08,135,277.12"/>
	<path class="st5" d="M136.25,277.27c-0.28-0.02-0.56-0.05-0.84-0.09C135.69,277.22,135.97,277.24,136.25,277.27"/>
	<path class="st5" d="M116.36,265.88c-0.23-0.25-0.47-0.5-0.7-0.76C115.89,265.38,116.12,265.63,116.36,265.88"/>
	<path class="st5" d="M101.56,244.16c-0.12-0.24-0.24-0.47-0.37-0.71C101.32,243.69,101.44,243.92,101.56,244.16"/>
	<path class="st5" d="M100.74,242.55c-0.11-0.22-0.22-0.45-0.34-0.67C100.52,242.1,100.63,242.33,100.74,242.55"/>
	<path class="st5" d="M137.82,277.35c-0.4,0-0.8-0.02-1.2-0.05C137.02,277.33,137.42,277.34,137.82,277.35"/>
	<path class="st5" d="M102.71,246.34c-0.24-0.44-0.47-0.87-0.7-1.31C102.24,245.46,102.48,245.9,102.71,246.34"/>
	<path class="st5" d="M121.08,270.33c-0.25-0.21-0.5-0.42-0.75-0.63C120.58,269.91,120.83,270.12,121.08,270.33"/>
	<path class="st5" d="M109.64,257.59c-0.23-0.32-0.46-0.65-0.68-0.98C109.19,256.94,109.41,257.26,109.64,257.59"/>
	<path class="st5" d="M118.88,268.39c-0.36-0.33-0.71-0.67-1.06-1.02C118.17,267.72,118.52,268.06,118.88,268.39"/>
	<path class="st5" d="M112.9,261.9c-0.22-0.27-0.43-0.54-0.65-0.81C112.47,261.36,112.68,261.64,112.9,261.9"/>
	<path class="st5" d="M131.05,276.15c-0.27-0.09-0.54-0.19-0.81-0.29C130.51,275.96,130.78,276.06,131.05,276.15"/>
	<path class="st5" d="M114.19,263.46c-0.31-0.36-0.62-0.73-0.93-1.11C113.57,262.73,113.88,263.1,114.19,263.46"/>
	<path class="st5" d="M111.86,260.58c-0.22-0.28-0.43-0.56-0.64-0.84C111.43,260.03,111.64,260.31,111.86,260.58"/>
	<path class="st5" d="M129.84,275.7c-0.29-0.12-0.58-0.24-0.87-0.37C129.26,275.46,129.55,275.59,129.84,275.7"/>
	<path class="st5" d="M110.86,259.26c-0.31-0.42-0.63-0.85-0.94-1.29C110.23,258.41,110.54,258.84,110.86,259.26"/>
	<path class="st5" d="M108.56,256.03c-0.19-0.27-0.37-0.55-0.56-0.83C108.19,255.47,108.38,255.75,108.56,256.03"/>
	<path class="st5" d="M119.96,269.37c-0.3-0.27-0.61-0.54-0.91-0.82C119.36,268.83,119.66,269.11,119.96,269.37"/>
	<path class="st5" d="M133.79,276.91c-0.39-0.08-0.79-0.17-1.18-0.28C133.01,276.74,133.4,276.83,133.79,276.91"/>
	<path class="st5" d="M132.45,276.59c-0.34-0.09-0.68-0.19-1.01-0.3C131.77,276.39,132.11,276.49,132.45,276.59"/>
	<path class="st5" d="M122.28,271.28c-0.27-0.21-0.55-0.42-0.82-0.64C121.73,270.86,122.01,271.07,122.28,271.28"/>
	<path class="st5" d="M107.6,254.57c-0.18-0.28-0.36-0.56-0.54-0.85C107.23,254.01,107.41,254.29,107.6,254.57"/>
	<path class="st5" d="M183.96,272.56c0.57,0.24,1.14,0.48,1.71,0.72c1.63,0.69,3.28,1.39,5.05,2c-1.77-0.61-3.42-1.31-5.05-2
		C185.1,273.04,184.53,272.79,183.96,272.56"/>
	<path class="st5" d="M92.15,221.78c-0.03-0.08-0.05-0.15-0.08-0.23C92.1,221.62,92.12,221.7,92.15,221.78"/>
	<path class="st5" d="M209.74,275.17c-0.21,0.09-0.42,0.17-0.64,0.26C209.32,275.35,209.53,275.26,209.74,275.17"/>
	<path class="st5" d="M91.62,220.18c-0.01-0.03-0.02-0.05-0.02-0.08C91.61,220.13,91.61,220.15,91.62,220.18"/>
	<path class="st5" d="M128.67,275.2c-0.38-0.18-0.77-0.36-1.15-0.56C127.9,274.84,128.29,275.03,128.67,275.2"/>
	<path class="st5" d="M94.27,227.74c-0.04-0.11-0.08-0.22-0.12-0.33C94.19,227.52,94.23,227.63,94.27,227.74"/>
	<path class="st5" d="M123.69,272.32c-0.37-0.26-0.74-0.53-1.11-0.81C122.95,271.79,123.32,272.06,123.69,272.32"/>
	<path class="st5" d="M117.48,267.04c-0.25-0.25-0.49-0.5-0.74-0.75C116.99,266.54,117.24,266.79,117.48,267.04"/>
	<path class="st5" d="M89.83,214.27c-0.01-0.03-0.02-0.07-0.03-0.1C89.81,214.2,89.82,214.24,89.83,214.27"/>
	<path class="st5" d="M206,276.41c-0.55,0.13-1.1,0.25-1.65,0.34C204.91,276.66,205.46,276.55,206,276.41"/>
	<path class="st5" d="M190.72,275.28c2.95,1.01,6.21,1.76,10.25,1.76c0.88,0,1.75-0.06,2.62-0.17c-0.86,0.11-1.74,0.17-2.62,0.17
		C196.93,277.04,193.66,276.29,190.72,275.28"/>
	<path class="st5" d="M115.3,264.73c-0.31-0.35-0.62-0.7-0.93-1.06C114.68,264.03,114.99,264.38,115.3,264.73"/>
	<path class="st5" d="M96.61,233.59c-0.03-0.07-0.06-0.14-0.09-0.21C96.56,233.45,96.58,233.52,96.61,233.59"/>
	<path class="st5" d="M97.32,235.24c-0.07-0.17-0.15-0.34-0.22-0.51C97.17,234.9,97.25,235.07,97.32,235.24"/>
	<path class="st5" d="M94.89,229.35c-0.05-0.13-0.1-0.25-0.15-0.38C94.79,229.1,94.84,229.22,94.89,229.35"/>
	<path class="st5" d="M178.64,270.66c-0.95-0.26-1.94-0.49-2.99-0.68C176.71,270.17,177.7,270.4,178.64,270.66"/>
	<path class="st5" d="M175.65,269.98c-1.05-0.18-2.16-0.32-3.36-0.4C173.49,269.66,174.6,269.8,175.65,269.98"/>
	<path class="st5" d="M98.63,238.16c-0.03-0.08-0.07-0.15-0.11-0.23C98.56,238.01,98.6,238.09,98.63,238.16"/>
	<path class="st5" d="M165.32,270.1c-2.6,0.63-5.38,1.67-8.27,2.75C159.94,271.77,162.72,270.73,165.32,270.1"/>
	<path class="st5" d="M98.03,236.85c-0.08-0.18-0.16-0.36-0.24-0.53C97.87,236.49,97.95,236.67,98.03,236.85"/>
	<path class="st5" d="M95.4,230.64c-0.01-0.01-0.01-0.03-0.02-0.04C95.39,230.61,95.39,230.63,95.4,230.64"/>
	<path class="st5" d="M182.25,271.87c-0.87-0.33-1.75-0.65-2.67-0.93C180.49,271.22,181.38,271.53,182.25,271.87"/>
	<path class="st5" d="M125.98,273.79c-0.26-0.15-0.52-0.31-0.78-0.48C125.46,273.48,125.72,273.64,125.98,273.79"/>
	<path class="st5" d="M183.96,272.56c-0.57-0.24-1.14-0.47-1.72-0.69C182.82,272.09,183.4,272.32,183.96,272.56"/>
	<path class="st5" d="M99.94,240.94c-0.1-0.2-0.19-0.4-0.29-0.6C99.75,240.54,99.85,240.74,99.94,240.94"/>
	<path class="st2" d="M228.4,170.07c-1.62-1.35-4.07-0.69-4.8,1.28c-0.47,1.27-0.93,2.63-1.31,3.93c-0.47,1.58,0.4,3.26,1.97,3.78
		c1.65,0.55,3.42-0.39,3.91-2.06c0.35-1.2,0.76-2.45,1.15-3.54C229.75,172.25,229.39,170.9,228.4,170.07"/>
	<path class="st2" d="M167.72,134.99c1.95,0,4.8-1.08,9.28-2.85l0.14-0.06c6.52-2.6,14.63-5.83,23.92-5.83
		c8.06,0,28.13,1.98,40.33,20.29c0.86,1.29,0.56,3.03-0.67,3.96l-0.02,0.01c-1.08,0.81-2.29,1.73-3.6,2.8
		c-1.69,1.38-4.87,3.98-7.94,7.95c-0.99,1.29-0.72,3.14,0.58,4.11l0.21,0.16c1.29,0.97,3.1,0.7,4.09-0.57
		c0.01-0.01,0.01-0.02,0.02-0.02c2.23-2.84,4.7-5.09,6.91-6.89c1.22-0.99,2.39-1.88,3.44-2.67l4.6-3.47
		c1.24-0.94,1.53-2.67,0.67-3.96l-1.88-2.83l-1.31-1.97c-13.83-20.77-36.37-23.01-45.48-23.01c-10.4,0-19.12,3.47-26.12,6.26
		l-0.14,0.05c-2.09,0.83-5.99,2.37-7.03,2.42c-2.01,0-6.72-1.73-10.5-3.12c-1.74-0.64-3.54-1.3-5.38-1.93l-2.8,5.51
		c2.07,0.69,4.11,1.44,6.06,2.16C160,133.29,164.62,134.99,167.72,134.99"/>
	<path class="st2" d="M245.64,214.13c-1.13-0.68-2.26-1.36-3.36-2.09c-1.31-0.87-2.58-1.8-3.79-2.81c-1.36-1.14-2.63-2.38-3.78-3.72
		c-1.28-1.49-2.41-3.12-3.36-4.84c-1.08-1.95-1.92-4.03-2.53-6.17c-0.72-2.51-1.12-5.1-1.28-7.7c-0.01-0.08-0.01-0.16-0.01-0.24
		c-0.08-1.56-1.36-2.79-2.92-2.79h-0.26c-1.69,0-3.02,1.43-2.93,3.12c0.02,0.39,0.05,0.78,0.08,1.17c0.11,1.31,0.27,2.63,0.49,3.93
		c0.21,1.21,0.48,2.42,0.8,3.61c0.3,1.12,0.66,2.22,1.06,3.3c0.38,1.02,0.81,2.03,1.29,3.01c0.45,0.93,0.95,1.84,1.48,2.73
		c0.51,0.85,1.05,1.67,1.63,2.47c0.55,0.76,1.13,1.5,1.74,2.22c0.58,0.68,1.18,1.35,1.81,1.99c0.59,0.61,1.21,1.2,1.84,1.76
		c0.6,0.54,1.21,1.06,1.83,1.56c0.58,0.47,1.18,0.93,1.79,1.37c0.56,0.41,1.13,0.8,1.71,1.19c0.52,0.35,1.05,0.69,1.58,1.02
		c0.47,0.3,0.95,0.59,1.42,0.87c0.18,0.11,0.35,0.21,0.53,0.32c1.83,1.1,3,1.87,3.63,2.74c0.53,0.72,0.64,1.66,0.37,2.51
		c-1.66,5.32-10.82,27.94-24.37,41.67c-3.81,3.86-7.97,7.01-12.41,8.88c-0.21,0.09-0.42,0.17-0.63,0.26
		c-1.02,0.4-2.05,0.73-3.1,0.98c-0.55,0.13-1.1,0.25-1.65,0.34c-0.26,0.04-0.51,0.08-0.77,0.12c-0.86,0.11-1.74,0.17-2.62,0.17
		c-4.03,0-7.3-0.75-10.25-1.76c-1.77-0.61-3.42-1.31-5.05-2c-0.57-0.24-1.14-0.48-1.71-0.72c-0.57-0.24-1.14-0.47-1.72-0.69
		c-0.87-0.33-1.75-0.65-2.67-0.93c-0.31-0.1-0.62-0.19-0.93-0.27c-0.95-0.26-1.94-0.49-2.99-0.68c-1.05-0.18-2.16-0.32-3.36-0.4
		c-0.8-0.05-1.63-0.08-2.5-0.08c-1.42,0-2.92,0.23-4.48,0.61c-2.6,0.63-5.37,1.67-8.27,2.75c-0.7,0.26-1.42,0.53-2.15,0.8
		c-0.73,0.27-1.47,0.53-2.22,0.79c-0.38,0.13-0.75,0.26-1.14,0.38c-1.52,0.51-3.09,0.98-4.7,1.37c-2.82,0.69-5.77,1.15-8.83,1.15
		h-0.18h-0.01c-0.4,0-0.8-0.02-1.2-0.05c-0.13-0.01-0.25-0.02-0.37-0.03c-0.28-0.02-0.56-0.05-0.84-0.09
		c-0.14-0.02-0.28-0.04-0.41-0.06c-0.28-0.04-0.57-0.09-0.85-0.15c-0.12-0.02-0.23-0.04-0.35-0.07c-0.39-0.08-0.79-0.17-1.18-0.28
		c-0.06-0.01-0.11-0.03-0.17-0.05c-0.34-0.09-0.68-0.19-1.01-0.3c-0.13-0.04-0.26-0.09-0.39-0.13c-0.27-0.09-0.54-0.19-0.81-0.29
		c-0.13-0.05-0.26-0.1-0.4-0.15c-0.29-0.12-0.58-0.24-0.87-0.37c-0.1-0.04-0.2-0.08-0.3-0.13c-0.38-0.18-0.77-0.36-1.15-0.56
		c-0.08-0.04-0.16-0.09-0.25-0.13c-0.3-0.16-0.6-0.32-0.9-0.49c-0.13-0.07-0.26-0.15-0.39-0.22c-0.26-0.16-0.52-0.31-0.78-0.48
		c-0.13-0.08-0.26-0.16-0.38-0.24c-0.3-0.19-0.59-0.39-0.89-0.59c-0.08-0.06-0.16-0.11-0.25-0.17c-0.37-0.26-0.74-0.53-1.11-0.81
		c-0.1-0.07-0.2-0.15-0.3-0.23c-0.27-0.21-0.55-0.42-0.82-0.64c-0.13-0.1-0.25-0.21-0.38-0.31c-0.25-0.21-0.5-0.42-0.75-0.63
		c-0.12-0.1-0.24-0.21-0.37-0.32c-0.3-0.27-0.61-0.54-0.91-0.82c-0.06-0.05-0.12-0.11-0.18-0.16c-0.36-0.33-0.71-0.67-1.06-1.02
		c-0.11-0.11-0.22-0.22-0.33-0.33c-0.25-0.25-0.49-0.5-0.74-0.75c-0.13-0.13-0.26-0.27-0.39-0.41c-0.24-0.25-0.47-0.5-0.7-0.76
		c-0.12-0.13-0.24-0.26-0.36-0.4c-0.31-0.35-0.62-0.7-0.93-1.06c-0.06-0.07-0.12-0.14-0.18-0.21c-0.31-0.36-0.62-0.73-0.93-1.11
		c-0.12-0.15-0.24-0.3-0.37-0.45c-0.22-0.27-0.43-0.54-0.65-0.81c-0.13-0.17-0.26-0.33-0.39-0.5c-0.21-0.28-0.43-0.56-0.64-0.84
		c-0.12-0.16-0.24-0.32-0.36-0.48c-0.31-0.42-0.63-0.85-0.94-1.29c-0.09-0.13-0.18-0.26-0.28-0.39c-0.23-0.32-0.46-0.65-0.68-0.98
		c-0.13-0.19-0.26-0.39-0.4-0.58c-0.19-0.27-0.37-0.55-0.56-0.83c-0.14-0.21-0.28-0.42-0.41-0.63c-0.18-0.28-0.36-0.56-0.54-0.85
		c-0.13-0.2-0.26-0.4-0.39-0.61c-0.28-0.45-0.57-0.91-0.85-1.37c-0.13-0.21-0.25-0.42-0.38-0.64c-0.17-0.28-0.34-0.57-0.51-0.86
		c-0.14-0.24-0.28-0.48-0.42-0.73c-0.15-0.26-0.3-0.52-0.45-0.79c-0.14-0.25-0.29-0.51-0.43-0.76c-0.15-0.26-0.29-0.52-0.43-0.78
		c-0.16-0.29-0.31-0.57-0.47-0.86c-0.24-0.44-0.47-0.87-0.7-1.31c-0.15-0.29-0.3-0.57-0.45-0.86c-0.12-0.24-0.24-0.47-0.37-0.71
		c-0.15-0.3-0.3-0.6-0.46-0.9c-0.11-0.22-0.22-0.45-0.33-0.67c-0.15-0.31-0.31-0.63-0.46-0.94c-0.1-0.2-0.19-0.4-0.29-0.6
		c-0.35-0.72-0.69-1.45-1.02-2.18c-0.03-0.08-0.07-0.15-0.11-0.23c-0.17-0.36-0.33-0.72-0.49-1.08c-0.08-0.18-0.16-0.36-0.24-0.53
		c-0.16-0.36-0.32-0.72-0.48-1.08c-0.07-0.17-0.15-0.34-0.22-0.51c-0.16-0.38-0.33-0.76-0.49-1.14c-0.03-0.07-0.06-0.14-0.09-0.21
		c-0.38-0.91-0.76-1.83-1.13-2.75c-0.01-0.01-0.01-0.02-0.01-0.04c-0.17-0.42-0.33-0.83-0.49-1.25c-0.05-0.13-0.1-0.25-0.15-0.38
		c-0.16-0.41-0.31-0.82-0.47-1.23c-0.04-0.11-0.08-0.22-0.12-0.33c-0.7-1.88-1.37-3.76-2-5.64c-0.03-0.07-0.05-0.15-0.08-0.23
		c-0.15-0.46-0.3-0.92-0.45-1.37c-0.01-0.03-0.02-0.05-0.02-0.08c-0.63-1.95-1.22-3.9-1.76-5.83c-0.01-0.03-0.02-0.07-0.03-0.1
		c-0.55-1.95-1.05-3.88-1.5-5.78l-6.3,0.03c2.87,12.67,7.77,26.38,13.92,38.27c12.23,23.64,27.1,36.7,41.89,36.79h0.2
		c8.11,0,15.05-2.59,21.18-4.88l0.06-0.02c3.87-1.45,7.87-2.95,10.55-2.95c5.75,0,9.16,1.45,13.48,3.29
		c4.45,1.89,9.99,4.25,17.69,4.25c13.06,0,26.15-9.87,37.86-28.54c3.97-6.33,7.31-12.94,9.73-18.42c2.74-6.18,4.31-10.92,4.31-12.18
		C252.86,218.47,248.7,215.97,245.64,214.13"/>
	<path class="st2" d="M125.2,273.32c-0.13-0.08-0.26-0.16-0.38-0.24C124.95,273.16,125.07,273.24,125.2,273.32"/>
	<path class="st2" d="M126.37,274.02c-0.13-0.07-0.26-0.15-0.39-0.22C126.11,273.87,126.24,273.94,126.37,274.02"/>
	<path class="st2" d="M127.52,274.64c-0.08-0.04-0.16-0.09-0.25-0.13C127.36,274.56,127.44,274.6,127.52,274.64"/>
	<path class="st2" d="M134.14,276.98c-0.12-0.02-0.23-0.04-0.35-0.07C133.91,276.94,134.03,276.95,134.14,276.98"/>
	<path class="st2" d="M154.9,273.65c-0.73,0.27-1.47,0.53-2.22,0.79C153.43,274.19,154.17,273.92,154.9,273.65"/>
	<path class="st2" d="M204.35,276.75c-0.26,0.04-0.51,0.08-0.77,0.12C203.84,276.83,204.1,276.79,204.35,276.75"/>
	<path class="st2" d="M151.54,274.83c-1.52,0.51-3.09,0.98-4.7,1.37C148.45,275.81,150.02,275.34,151.54,274.83"/>
	<path class="st2" d="M209.1,275.43c-1.02,0.4-2.05,0.73-3.1,0.98C207.05,276.16,208.08,275.83,209.1,275.43"/>
	<path class="st2" d="M222.15,266.3L222.15,266.3c-3.81,3.86-7.97,7.01-12.41,8.88C214.17,273.31,218.34,270.16,222.15,266.3"/>
	<path class="st2" d="M128.97,275.33c-0.1-0.04-0.2-0.08-0.3-0.13C128.77,275.25,128.87,275.29,128.97,275.33"/>
	<path class="st2" d="M131.43,276.28c-0.13-0.04-0.26-0.09-0.39-0.13C131.18,276.2,131.31,276.24,131.43,276.28"/>
	<path class="st2" d="M130.24,275.86c-0.13-0.05-0.27-0.1-0.4-0.15C129.97,275.76,130.11,275.81,130.24,275.86"/>
	<path class="st2" d="M132.61,276.63c-0.06-0.01-0.11-0.03-0.17-0.05C132.5,276.6,132.56,276.62,132.61,276.63"/>
	<path class="st2" d="M136.62,277.3c-0.13-0.01-0.25-0.02-0.37-0.03C136.37,277.28,136.5,277.29,136.62,277.3"/>
	<path class="st2" d="M135.41,277.18c-0.14-0.02-0.28-0.04-0.41-0.06C135.13,277.14,135.27,277.16,135.41,277.18"/>
	<path class="st2" d="M117.81,267.37c-0.11-0.11-0.22-0.22-0.33-0.33C117.59,267.15,117.7,267.26,117.81,267.37"/>
	<path class="st2" d="M104.05,248.74c-0.15-0.25-0.29-0.51-0.43-0.76C103.76,248.23,103.9,248.49,104.05,248.74"/>
	<path class="st2" d="M100.41,241.88c-0.15-0.31-0.31-0.63-0.46-0.94C100.1,241.25,100.25,241.57,100.41,241.88"/>
	<path class="st2" d="M98.52,237.93c-0.17-0.36-0.33-0.72-0.49-1.08C98.2,237.21,98.36,237.57,98.52,237.93"/>
	<path class="st2" d="M97.1,234.73c-0.16-0.38-0.33-0.76-0.49-1.14C96.77,233.97,96.94,234.35,97.1,234.73"/>
	<path class="st2" d="M97.8,236.32c-0.16-0.36-0.32-0.72-0.48-1.08C97.48,235.6,97.64,235.96,97.8,236.32"/>
	<path class="st2" d="M101.2,243.45c-0.15-0.3-0.3-0.6-0.45-0.9C100.89,242.85,101.04,243.15,101.2,243.45"/>
	<path class="st2" d="M103.18,247.19c-0.16-0.28-0.31-0.57-0.47-0.86C102.87,246.62,103.02,246.91,103.18,247.19"/>
	<path class="st2" d="M102.01,245.02c-0.15-0.29-0.3-0.57-0.45-0.86C101.71,244.45,101.86,244.74,102.01,245.02"/>
	<path class="st2" d="M99.66,240.34c-0.35-0.72-0.69-1.45-1.02-2.18C98.97,238.89,99.31,239.62,99.66,240.34"/>
	<path class="st2" d="M137.83,277.35L137.83,277.35L137.83,277.35h0.18c3.06,0,6.01-0.46,8.83-1.15c-2.82,0.69-5.77,1.15-8.83,1.15
		H137.83z"/>
	<path class="st2" d="M92.07,221.55c-0.15-0.46-0.3-0.92-0.45-1.37C91.77,220.63,91.92,221.09,92.07,221.55"/>
	<path class="st2" d="M91.6,220.1c-0.63-1.95-1.22-3.9-1.76-5.83C90.38,216.2,90.97,218.15,91.6,220.1"/>
	<path class="st2" d="M88.3,208.39L88.3,208.39c0.45,1.9,0.95,3.83,1.5,5.78C89.26,212.22,88.76,210.29,88.3,208.39"/>
	<path class="st2" d="M94.74,228.97c-0.16-0.41-0.31-0.82-0.47-1.23C94.43,228.15,94.59,228.56,94.74,228.97"/>
	<path class="st2" d="M95.38,230.6c-0.17-0.42-0.33-0.83-0.49-1.25C95.05,229.77,95.22,230.18,95.38,230.6"/>
	<path class="st2" d="M94.15,227.41c-0.7-1.88-1.37-3.76-2-5.64C92.78,223.65,93.45,225.54,94.15,227.41"/>
	<path class="st2" d="M123.93,272.49c-0.08-0.06-0.16-0.11-0.25-0.17C123.77,272.38,123.85,272.43,123.93,272.49"/>
	<path class="st2" d="M96.53,233.38c-0.38-0.91-0.76-1.83-1.13-2.75C95.77,231.56,96.14,232.47,96.53,233.38"/>
	<path class="st2" d="M116.75,266.28c-0.13-0.13-0.26-0.27-0.39-0.41C116.49,266.01,116.62,266.15,116.75,266.28"/>
	<path class="st2" d="M115.66,265.12c-0.12-0.13-0.24-0.26-0.36-0.4C115.42,264.86,115.54,264.99,115.66,265.12"/>
	<path class="st2" d="M119.05,268.55c-0.06-0.05-0.12-0.11-0.18-0.16C118.94,268.45,119,268.5,119.05,268.55"/>
	<path class="st2" d="M114.37,263.67c-0.06-0.07-0.12-0.14-0.18-0.21C114.25,263.53,114.31,263.6,114.37,263.67"/>
	<path class="st2" d="M113.27,262.36c-0.12-0.15-0.24-0.3-0.37-0.45C113.02,262.05,113.14,262.21,113.27,262.36"/>
	<path class="st2" d="M120.33,269.69c-0.12-0.1-0.24-0.21-0.37-0.32C120.08,269.48,120.21,269.59,120.33,269.69"/>
	<path class="st2" d="M122.58,271.51c-0.1-0.08-0.2-0.15-0.3-0.23C122.38,271.36,122.48,271.44,122.58,271.51"/>
	<path class="st2" d="M121.46,270.64c-0.13-0.1-0.25-0.21-0.38-0.31C121.21,270.43,121.33,270.54,121.46,270.64"/>
	<path class="st2" d="M105.82,251.75c-0.13-0.21-0.25-0.42-0.38-0.64C105.56,251.33,105.69,251.54,105.82,251.75"/>
	<path class="st2" d="M107.05,253.72c-0.13-0.2-0.26-0.4-0.39-0.61C106.79,253.32,106.92,253.52,107.05,253.72"/>
	<path class="st2" d="M108.01,255.2c-0.14-0.21-0.28-0.42-0.41-0.63C107.73,254.78,107.87,254.99,108.01,255.2"/>
	<path class="st2" d="M104.93,250.26c-0.14-0.24-0.28-0.48-0.42-0.73C104.64,249.77,104.78,250.02,104.93,250.26"/>
	<path class="st2" d="M108.96,256.61c-0.13-0.19-0.26-0.39-0.4-0.58C108.7,256.22,108.83,256.41,108.96,256.61"/>
	<path class="st2" d="M111.22,259.74c-0.12-0.16-0.24-0.32-0.36-0.48C110.98,259.42,111.1,259.58,111.22,259.74"/>
	<path class="st2" d="M112.25,261.09c-0.13-0.17-0.26-0.33-0.39-0.5C111.99,260.75,112.12,260.92,112.25,261.09"/>
	<path class="st2" d="M109.92,257.98c-0.09-0.13-0.18-0.26-0.28-0.39C109.73,257.72,109.83,257.85,109.92,257.98"/>
	<path class="st2" d="M158.42,118.2l-57.77-82.93l-3.75,5.39c-1.81,2.6-52.72,75.67-52.72,75.67l-1.53,2.2l26.55,54.61l-18.31,35.4
		L82,208.41l6.3-0.02l61.84-0.24l-18.28-35.34L158.42,118.2z M100.69,108.98c5.37,0,9.74,4.37,9.74,9.74c0,5.37-4.37,9.74-9.74,9.74
		s-9.74-4.37-9.74-9.74C90.95,113.35,95.32,108.98,100.69,108.98 M53.21,119.35c6.24-8.96,30.01-43.08,42.87-61.53v42.61
		c-8.18,2.07-14.26,9.47-14.26,18.28c0,10.41,8.47,18.88,18.88,18.88s18.88-8.47,18.88-18.88c0-8.85-6.13-16.27-14.36-18.31V57.82
		l42.64,61.2l-23.96,49.28H77.01L53.21,119.35z M135.15,199.07l-48.69,0.19l-6.2,0.02l-14.33,0.06l11.32-21.89h46.71L135.15,199.07z
		"/>
	<path class="st2" d="M170.2,26.27V0.58h-25.69v8.27h-31.7C110.93,3.7,106,0,100.21,0c-5.79,0-10.73,3.7-12.6,8.85H56.29V0.58H30.6
		v25.69h25.69v-8.27h14.2c-0.11,0.08-0.23,0.16-0.34,0.24c-8.94,6.49-19.86,18.58-22.61,39.77c-5.36,1.76-9.25,6.81-9.25,12.75
		c0,7.4,6.02,13.42,13.42,13.42c7.4,0,13.42-6.02,13.42-13.42c0-5.63-3.49-10.45-8.41-12.44c3.86-26.97,22.8-36.36,31.31-39.25
		c2.14,4.59,6.78,7.78,12.16,7.78c5.44,0,10.13-3.26,12.23-7.93c8.27,2.7,27.75,11.92,31.75,39.22c-5.19,1.86-8.92,6.81-8.92,12.63
		c0,7.4,6.02,13.42,13.42,13.42c7.4,0,13.42-6.02,13.42-13.42c0-5.73-3.62-10.62-8.68-12.54c-2.7-21.32-13.67-33.47-22.63-39.98
		c-0.11-0.08-0.22-0.16-0.34-0.24h14.05v8.27H170.2z M47.15,17.12h-7.41V9.72h7.41V17.12z M51.72,75.04c-2.36,0-4.28-1.92-4.28-4.28
		c0-2.36,1.92-4.28,4.28-4.28c2.36,0,4.28,1.92,4.28,4.28C56,73.12,54.08,75.04,51.72,75.04 M148.69,75.04
		c-2.36,0-4.28-1.92-4.28-4.28c0-2.36,1.92-4.28,4.28-4.28c2.36,0,4.28,1.92,4.28,4.28C152.97,73.12,151.05,75.04,148.69,75.04
		 M100.21,17.7c-2.36,0-4.28-1.92-4.28-4.28s1.92-4.28,4.28-4.28c2.36,0,4.28,1.92,4.28,4.28S102.57,17.7,100.21,17.7 M153.65,9.72
		h7.41v7.41h-7.41V9.72z"/>
</g>
<g>
	<line class="st8" x1="834.15" y1="400" x2="834.15" y2="401.05"/>
	<line class="st9" x1="834.15" y1="403.16" x2="834.15" y2="473.97"/>
	<line class="st8" x1="834.15" y1="475.02" x2="834.15" y2="476.07"/>
	<line class="st10" x1="859.65" y1="401.68" x2="859.65" y2="477.74"/>
	<line class="st8" x1="803.63" y1="400.42" x2="803.63" y2="401.47"/>
	<line class="st9" x1="803.63" y1="403.58" x2="803.63" y2="474.39"/>
	<line class="st8" x1="803.63" y1="475.44" x2="803.63" y2="476.49"/>
	<line class="st8" x1="777.7" y1="398.75" x2="777.7" y2="399.79"/>
	<line class="st9" x1="777.7" y1="401.91" x2="777.7" y2="472.71"/>
	<line class="st8" x1="777.7" y1="473.77" x2="777.7" y2="474.81"/>
	<path class="st5" d="M866.76,416.31h1.05V405.6l-7.84-4.97h-26.83h-1.74l-0.61-1.63l-4.75-12.7l-11.54,0.75v8.47l6.27,0.73
		l-6.27,0.42l-11.29,8.36l0.06-0.83v-5.38v-28.34c0-2.27-1.85-4.12-4.12-4.12h-11.66c-2.53,0.94-4.33,3.36-4.33,6.21l-0.02,26.46
		l8.36,1.4h-8.36l-7.74-0.21h-2.51v-2.51v-10.87h-6.21l-6.54,1.88l-3.23,10.03l7.83,1.25l-8.36,0.42v74.84l12.96,0.42l-12.54,0.42
		l2.09,4.6l-0.42,7.53l13.36,1.11l3.91-11.93l0.57-1.74l1.83,0.01l24.37,0.19l18.68,0.23l-10.38,0.96l4.11,11.58l11.27,1.02v-10.84
		v-2.51h2.51h0.02v-0.22l24.67,0.42l-14.23,1.47l-0.19,25.45c0,3.34,2.71,6.05,6.05,6.05l10.46,0.48c0.31,0,0.6,0,0.89,0
		c1.18-0.58,2-1.78,2-3.18v-28.11v-1.36l1.14-0.74l8.3-5.38v-45.68h-1.05V423h1.05v-4.18h-1.05V416.31z"/>
	<path class="st5" d="M870.32,404.22l-9.62-6.09L870.32,404.22z"/>
	<path class="st5" d="M860.87,478.67l9.45-6.13L860.87,478.67z"/>
	
		<rect x="823.17" y="484.35" transform="matrix(0.083 -0.9965 0.9965 0.083 277.1961 1269.9816)" class="st5" width="11.07" height="0.02"/>
	<polygon class="st2" points="771.83,489.34 771.57,490.11 755.96,490.11 755.96,481.54 755.96,480.71 755.47,480.05 753.03,476.73 
		753.03,399.19 757.51,386.83 766.68,386.83 775.4,384.32 755.75,384.32 750.53,398.75 750.53,477.56 753.45,481.54 753.45,492.61 
		773.39,492.61 778.12,478.19 773.52,489.48 	"/>
	<path class="st2" d="M799.15,363.84L799.15,363.84c1.14,0,2.22,0.29,3.16,0.8C801.37,364.13,800.29,363.84,799.15,363.84"/>
	<polygon class="st2" points="860.87,506.79 860.87,506.79 860.87,506.79 860.87,478.67 	"/>
	<polygon class="st2" points="826.19,490.11 811.84,490.11 807.9,477.64 807.35,475.91 805.53,475.89 802.51,475.87 778.12,478.19 
		805.51,478.4 810.01,492.61 828.7,492.61 828.7,489.9 826.19,489.67 	"/>
	<path class="st2" d="M805.78,370.47c0-0.69-0.1-1.35-0.3-1.97C805.67,369.12,805.78,369.78,805.78,370.47"/>
	<path class="st2" d="M856.36,509.97c-0.47,0.23-0.99,0.36-1.55,0.36h-15.66c-1.95,0-3.54-1.59-3.54-3.54v-27.96v-2.51h-2.51h-4.39
		v2.51h4.39v27.96c0,3.34,2.71,6.05,6.05,6.05h15.66c2.94,0,5.39-2.1,5.94-4.87C860.33,509.86,858.75,509.97,856.36,509.97"/>
	<polygon class="st2" points="803.27,404.87 807.55,400.58 811.17,396.97 811.9,396.23 811.9,395.2 811.9,386 825.93,386 
		826.04,386.3 827.46,386.21 833.14,398.12 827.67,383.49 809.39,383.49 809.39,395.2 805.78,398.81 805.78,370.47 803.27,404.19 	
		"/>
	<path class="st2" d="M778.14,400.21h2.51v-2.51v-27.24c0-2.27,1.85-4.12,4.12-4.12h2.72c0.72-0.27,1.49-0.42,2.3-0.42l9.36-2.09
		h-14.38c-3.66,0-6.63,2.97-6.63,6.63v27.24h-2.74v2.51H778.14z"/>
	<path class="st2" d="M804.26,366.25c-0.54-0.65-1.2-1.2-1.96-1.61C803.06,365.04,803.72,365.59,804.26,366.25"/>
	<path class="st2" d="M867.81,471.18l-8.3,5.38l-1.14,0.74v1.36v28.11c0,1.4-0.82,2.61-2,3.18c2.39,0,3.97-0.11,4.39-2.01
		c0.07-0.38,0.12-0.77,0.12-1.17c0,0,0,0,0,0v-28.11l9.45-6.13v-45.78c0-0.69-0.56-1.25-1.25-1.25c-0.69,0-1.25,0.56-1.25,1.25
		V471.18z"/>
	<path class="st2" d="M787.49,366.35h11.66c2.27,0,4.12,1.85,4.12,4.12v28.34v5.38l2.51-33.73c0-0.69-0.1-1.35-0.3-1.97
		c-0.26-0.83-0.68-1.59-1.22-2.25c-0.54-0.66-1.2-1.2-1.96-1.61c-0.94-0.51-2.02-0.8-3.16-0.8l-9.36,2.09
		C788.98,365.93,788.21,366.08,787.49,366.35"/>
	<path class="st2" d="M827.46,386.21l-1.42,0.09l4.75,12.7l0.61,1.63h1.74h26.83l7.84,4.97v9.46c0,0.69,0.56,1.25,1.25,1.25
		s1.25-0.56,1.25-1.25v-10.84l-9.62-6.09h-27.56L827.46,386.21z"/>
	<polygon class="st2" points="778.14,475.68 776.31,475.67 775.74,477.41 771.83,489.34 773.52,489.48 778.12,478.19 802.51,475.87 
			"/>
	<polygon class="st2" points="772.89,386.83 772.89,397.7 772.89,400.21 775.4,400.21 775.4,397.7 775.4,384.32 766.68,386.83 	"/>
	<polygon class="st2" points="828.7,476.32 826.19,476.32 826.19,478.83 826.19,489.67 828.7,489.9 828.7,478.83 828.71,478.83 
		828.71,476.32 	"/>
	<line class="st11" x1="808.64" y1="410.04" x2="829.5" y2="410.04"/>
	<line class="st11" x1="808.64" y1="412.55" x2="829.5" y2="412.55"/>
	<line class="st11" x1="808.64" y1="415.06" x2="829.5" y2="415.06"/>
	<line class="st11" x1="808.64" y1="417.56" x2="829.5" y2="417.56"/>
	<line class="st11" x1="809.06" y1="465.23" x2="829.92" y2="465.23"/>
	<line class="st11" x1="809.06" y1="434.29" x2="829.92" y2="434.29"/>
	<line class="st12" x1="809.06" y1="436.8" x2="829.92" y2="436.8"/>
	<line class="st11" x1="791.48" y1="449.37" x2="791.48" y2="470.22"/>
	<line class="st11" x1="829.5" y1="421.19" x2="819.54" y2="421.19"/>
	<line class="st11" x1="829.5" y1="424.12" x2="819.54" y2="424.12"/>
	<line class="st12" x1="829.5" y1="427.05" x2="819.54" y2="427.05"/>
	<line class="st11" x1="799.02" y1="413.63" x2="799.02" y2="403.67"/>
	<line class="st11" x1="824.48" y1="467.6" x2="814.53" y2="467.6"/>
	<line class="st11" x1="780.63" y1="460.41" x2="780.63" y2="470.3"/>
	<line class="st11" x1="769.68" y1="449.47" x2="759.8" y2="449.47"/>
	<line class="st11" x1="780.63" y1="402.93" x2="780.63" y2="454.21"/>
	<line class="st11" x1="783.97" y1="402.93" x2="783.97" y2="470.3"/>
	<line class="st11" x1="787.32" y1="402.93" x2="787.32" y2="470.3"/>
	<path class="st7" d="M764.53,424.14l7.53,4.35v8.69l-7.53,4.34l-7.53-4.34v-8.69L764.53,424.14z M764.53,421.72l-9.62,5.55v11.1
		l9.62,5.55l9.62-5.55v-11.1L764.53,421.72z"/>
	<path class="st7" d="M813.24,442.95l7.53,4.35v8.69l-7.53,4.34l-7.53-4.34v-8.69L813.24,442.95z M813.24,440.54l-9.62,5.55v11.1
		l9.62,5.55l9.62-5.55v-11.1L813.24,440.54z"/>
	<line class="st11" x1="756.17" y1="446.62" x2="773.66" y2="446.62"/>
	<polygon class="st7" points="838.75,448.06 835.4,449.99 835.4,452.41 838.75,450.48 846.27,454.82 846.27,463.51 838.75,467.86 
		835.4,465.93 835.4,468.34 838.75,470.27 848.37,464.72 848.37,453.61 	"/>
	<polygon class="st7" points="864.25,407.51 867.6,409.44 867.6,411.85 864.25,409.92 856.73,414.26 856.73,422.95 864.25,427.3 
		867.6,425.37 867.6,427.78 864.25,429.71 854.64,424.16 854.64,413.06 	"/>
</g>
<g>
	<path class="st5" d="M289,438.34c-5.21,1.21-8.45,6.4-7.24,11.61c1.21,5.21,6.4,8.45,11.61,7.24l-0.45,0.9l-4.04-19.72L289,438.34z
		"/>
	<path class="st5" d="M302.71,462.71l6.4,27.65l5.29-1.22l-6.4-27.65C308,461.48,302.7,462.71,302.71,462.71"/>
	<polygon class="st5" points="308.98,426.21 316.02,456.63 363.49,466.65 348.18,400.53 	"/>
	<polygon class="st5" points="290.81,431.83 297.44,460.48 313.61,459.39 306.39,428.22 	"/>
	<path class="st5" d="M371.35,370.37h-16.53c-1.52,0-2.75,1.24-2.75,2.75v16.53c0,1.52,1.24,2.75,2.75,2.75h16.53
		c1.52,0,2.75-1.24,2.75-2.75v-16.53C374.1,371.61,372.87,370.37,371.35,370.37"/>
	<path class="st7" d="M370.66,381.39h-3.44v-2.75c0-0.76,0.62-0.69,1.38-0.69h1.38v-3.44h-2.75c-2.28,0-4.13,1.85-4.13,4.13v2.75
		h-2.76v3.44h2.76v7.58h4.13v-7.58h2.07L370.66,381.39z"/>
	<path class="st5" d="M398.02,432.35c-1.71,1.77-1.36,3.66-1.36,9.38c0,4.75-0.83,9.52,3.51,10.64c1.36,0.35,13.37,0.35,14.72,0
		c1.81-0.47,3.28-1.93,3.48-4.49c0.03-0.36,0.03-11.94,0-12.3c-0.21-2.72-1.89-4.29-4.1-4.61c-0.51-0.07-0.61-0.09-3.2-0.1
		C401.86,430.88,399.84,430.47,398.02,432.35"/>
	<path class="st7" d="M407.53,433.71c-3.29,0-6.41-0.29-7.6,2.77c-0.49,1.26-0.42,2.91-0.42,5.26c0,2.06-0.07,4,0.42,5.26
		c1.19,3.06,4.34,2.77,7.6,2.77c3.15,0,6.4,0.33,7.6-2.77c0.49-1.28,0.42-2.89,0.42-5.26c0-3.13,0.17-5.16-1.35-6.68
		C412.66,433.52,410.58,433.71,407.53,433.71L407.53,433.71z M406.81,435.16c6.86-0.01,7.73-0.77,7.25,9.82
		c-0.17,3.75-3.02,3.34-6.53,3.34c-6.39,0-6.58-0.18-6.58-6.58C400.95,435.26,401.46,435.16,406.81,435.16L406.81,435.16z
		 M411.81,436.49c-0.53,0-0.96,0.43-0.96,0.96c0,0.53,0.43,0.96,0.96,0.96c0.53,0,0.96-0.43,0.96-0.96
		C412.78,436.92,412.34,436.49,411.81,436.49 M407.53,437.62c-2.28,0-4.12,1.85-4.12,4.12c0,2.28,1.84,4.12,4.12,4.12
		c2.28,0,4.12-1.84,4.12-4.12C411.65,439.46,409.8,437.62,407.53,437.62 M407.53,439.06c3.54,0,3.54,5.35,0,5.35
		C403.99,444.41,403.99,439.06,407.53,439.06"/>
	<path class="st5" d="M414.51,398.71c-0.93,0.41-1.91,0.68-2.94,0.81c1.06-0.63,1.87-1.63,2.25-2.82c-0.99,0.59-2.08,1-3.24,1.24
		c-0.94-1-2.27-1.62-3.73-1.62c-2.83,0-5.1,2.3-5.1,5.11c0,0.4,0.03,0.79,0.12,1.16c-4.25-0.21-8-2.24-10.53-5.34
		c-0.44,0.76-0.7,1.64-0.7,2.58c0,1.77,0.91,3.34,2.27,4.24c-0.82-0.01-1.63-0.25-2.31-0.63v0.06c0,2.48,1.77,4.54,4.09,5.02
		c-0.42,0.11-0.87,0.17-1.34,0.17c-0.33,0-0.66-0.02-0.97-0.09c0.66,2.02,2.54,3.51,4.77,3.56c-1.74,1.36-3.94,2.18-6.33,2.18
		c-0.42,0-0.82-0.02-1.22-0.07c2.26,1.46,4.94,2.29,7.84,2.29c9.4,0,14.54-7.79,14.54-14.54c0-0.23-0.01-0.44-0.02-0.66
		C412.96,400.64,413.82,399.74,414.51,398.71"/>
	
		<rect x="290.49" y="430.13" transform="matrix(0.9742 -0.2255 0.2255 0.9742 -92.9779 79.1772)" class="st13" width="19.09" height="32.77"/>
	<path class="st13" d="M292.91,458.09l-6,1.39c-3.07,0.71-6.14-1.2-6.85-4.28l-1.79-7.73c-0.71-3.07,1.2-6.14,4.28-6.85l6-1.39
		L292.91,458.09z"/>
	
		<rect x="303.06" y="462.11" transform="matrix(0.9742 -0.2256 0.2256 0.9742 -99.5479 81.5302)" class="st13" width="7.74" height="28.38"/>
	<polygon class="st13" points="305.64,428.39 313.03,460.32 363.49,466.65 359.53,449.55 352.14,417.63 348.18,400.53 	"/>
	<line class="st14" x1="360.44" y1="415.71" x2="374.14" y2="405.12"/>
	<line class="st14" x1="385.67" y1="449.24" x2="368.49" y2="447.04"/>
	<line class="st14" x1="368.32" y1="429.11" x2="386.63" y2="424.87"/>
</g>
<g>
	<path class="st5" d="M-94.44,446.25c-0.94-0.5-1.59-1.49-1.59-2.63v-32.98h-0.94l5.16-13.1c0.42-1.06,1.43-1.75,2.57-1.75
		c0.19,0,0.37,0.02,0.54,0.05v-7.23c0,0-2.38-5.19-7.36-5.19h-35.36c-2.64,0-4.78,2.14-4.79,4.78l-0.18,59.92
		c-0.01,1.95,1.47,3.58,3.4,3.77l40.14,4.03c0,0,3.5-2.08,4.15-5.22v-1.15h-1.59C-92.3,449.54-94,448.13-94.44,446.25"/>
	<path class="st2" d="M-139.38,398.8h-4.12c-0.55,0-1-0.45-1-1c0-0.55,0.45-1,1-1h4.12c0.55,0,1,0.45,1,1
		C-138.38,398.35-138.83,398.8-139.38,398.8"/>
	<path class="st2" d="M-139.38,407.39h-4.12c-0.55,0-1-0.45-1-1c0-0.55,0.45-1,1-1h4.12c0.55,0,1,0.45,1,1
		C-138.38,406.94-138.83,407.39-139.38,407.39"/>
	<path class="st2" d="M-139.38,415.98h-4.12c-0.55,0-1-0.45-1-1c0-0.55,0.45-1,1-1h4.12c0.55,0,1,0.45,1,1
		C-138.38,415.53-138.83,415.98-139.38,415.98"/>
	<path class="st2" d="M-139.38,424.57h-4.12c-0.55,0-1-0.45-1-1c0-0.55,0.45-1,1-1h4.12c0.55,0,1,0.45,1,1
		C-138.38,424.12-138.83,424.57-139.38,424.57"/>
	<path class="st2" d="M-139.38,433.16h-4.12c-0.55,0-1-0.45-1-1s0.45-1,1-1h4.12c0.55,0,1,0.45,1,1S-138.83,433.16-139.38,433.16"/>
	<path class="st2" d="M-139.38,441.75h-4.12c-0.55,0-1-0.45-1-1s0.45-1,1-1h4.12c0.55,0,1,0.45,1,1S-138.83,441.75-139.38,441.75"/>
	<path class="st7" d="M-90.28,446.54c-0.7,0-1.28-0.57-1.28-1.28v-1.68h-1.48v-31.98h7.6v31.98h-1.48v1.68
		c0,0.67-0.52,1.23-1.2,1.27c0,0-0.07,0.01-0.08,0.01H-90.28z"/>
	<path class="st2" d="M-86.43,412.61v29.98h-1.48v2v0.68c0,0.15-0.11,0.27-0.26,0.28l-0.04,0l-0.01,0h-1.82h-0.24
		c-0.15,0-0.28-0.13-0.28-0.28v-0.68v-2h-1.48v-29.98H-86.43 M-84.43,410.62h-9.6v33c0,0.54,0.44,0.97,0.97,0.97h0.5v0.68
		c0,1.26,1.02,2.28,2.28,2.28h0.24h1.85c0.05,0,0.1,0,0.15-0.01c1.19-0.08,2.13-1.06,2.13-2.27v-0.68h0.5
		c0.54,0,0.97-0.44,0.97-0.97V410.62z"/>
	<path class="st2" d="M-90.04,449.54v0.15c0,2.89-2.35,5.24-5.24,5.24h-39.86c-2.89,0-5.24-2.35-5.24-5.24v-59.84
		c0-2.89,2.35-5.24,5.24-5.24h39.86c2.89,0,5.24,2.35,5.24,5.24v5.16c0,0.44,0.36,0.77,0.8,0.77h0.01c0.12,0,0.23,0.01,0.34,0.02
		c0.45,0.06,0.85-0.31,0.85-0.77v-5.18c0-4-3.24-7.24-7.24-7.24h-39.86c-4,0-7.24,3.24-7.24,7.24v59.84c0,4,3.24,7.24,7.24,7.24
		h39.86c4,0,7.24-3.24,7.24-7.24v-0.16c-0.05,0-0.1,0.01-0.15,0.01H-90.04z"/>
	<polygon class="st7" points="-92.57,407.64 -89.23,399.18 -85.9,407.64 	"/>
	<path class="st2" d="M-89.23,401.9l1.87,4.73h-0.67h-2h-1.06L-89.23,401.9 M-89.23,397.78c-0.29,0-0.59,0.16-0.71,0.49l-0.09,0.23
		l-4,10.14h4h2h3.61l-3.61-9.15l-0.48-1.21C-88.65,397.94-88.94,397.78-89.23,397.78"/>
	<path class="st2" d="M-81.88,427.6c-0.46,0-0.83,0.37-0.83,0.83v12.92c0,0.46,0.37,0.83,0.83,0.83c0.46,0,0.83-0.37,0.83-0.83
		v-12.92C-81.05,427.97-81.42,427.6-81.88,427.6"/>
	<rect x="-92.83" y="442.35" class="st2" width="6.39" height="1.8"/>
	<path class="st15" d="M-97.62,392.61h-33.05c-0.55,0-1-0.45-1-1c0-0.55,0.45-1,1-1h33.05c0.55,0,1,0.45,1,1
		C-96.62,392.16-97.07,392.61-97.62,392.61"/>
	<path class="st15" d="M-97.62,397.4h-33.05c-0.55,0-1-0.45-1-1c0-0.55,0.45-1,1-1h33.05c0.55,0,1,0.45,1,1
		C-96.62,396.95-97.07,397.4-97.62,397.4"/>
	<path class="st15" d="M-107.79,402.19h-22.88c-0.55,0-1-0.45-1-1c0-0.55,0.45-1,1-1h22.88c0.55,0,1,0.45,1,1
		C-106.79,401.75-107.24,402.19-107.79,402.19"/>
	<path class="st15" d="M-107.79,412.98h-22.88c-0.55,0-1-0.45-1-1c0-0.55,0.45-1,1-1h22.88c0.55,0,1,0.45,1,1
		C-106.79,412.54-107.24,412.98-107.79,412.98"/>
	<path class="st15" d="M-107.79,419.38h-22.88c-0.55,0-1-0.45-1-1c0-0.55,0.45-1,1-1h22.88c0.55,0,1,0.45,1,1
		C-106.79,418.93-107.24,419.38-107.79,419.38"/>
	<path class="st15" d="M-107.79,425.57h-22.88c-0.55,0-1-0.45-1-1c0-0.55,0.45-1,1-1h22.88c0.55,0,1,0.45,1,1
		C-106.79,425.12-107.24,425.57-107.79,425.57"/>
	<path class="st15" d="M-102.02,437.16h-13.98c-0.55,0-1-0.45-1-1c0-0.55,0.45-1,1-1h13.98c0.55,0,1,0.45,1,1
		C-101.02,436.71-101.47,437.16-102.02,437.16"/>
	<path class="st15" d="M-102.02,441.75h-13.98c-0.55,0-1-0.45-1-1c0-0.55,0.45-1,1-1h13.98c0.55,0,1,0.45,1,1
		C-101.02,441.3-101.47,441.75-102.02,441.75"/>
</g>
<g>
	<rect x="-627.82" y="370.99" class="st5" width="118.76" height="6.9"/>
	<rect x="-627.45" y="444.35" class="st5" width="118.76" height="6.9"/>
	<polygon class="st5" points="-570.27,453.07 -570.8,468.69 -562.08,469.78 -562.09,453.07 	"/>
	<path class="st5" d="M-579.65,471.59c0,0-7.12,2.91-6.76,5.81l40.31,1.09c0,0,0.44-2.76-2.5-4.65c-2.94-1.89-7.68-2.62-11.48-2.25
		C-563.9,471.95-579.65,471.59-579.65,471.59"/>
	<path class="st5" d="M-578.06,392.24c0,4.11-3.33,7.44-7.44,7.44s-7.44-3.33-7.44-7.44c0-4.11,3.33-7.44,7.44-7.44
		S-578.06,388.13-578.06,392.24"/>
	<polygon class="st5" points="-574.1,387.87 -581.14,400.98 -587.64,416.62 -588.2,417.96 -589.42,420.91 -590.41,423.29 
		-588.04,423.4 -585.03,423.54 -583.79,423.59 -558.74,424.74 -553.76,424.74 	"/>
	<polygon class="st5" points="-597.89,424.48 -592.74,414.89 -601.43,399.12 -606.87,409.24 -612.93,423.79 	"/>
	<polygon class="st2" points="-587.18,424.97 -592.07,424.74 -593.91,424.74 -593.87,424.66 -597.89,424.48 -598.23,425.11 
		-587.1,425.11 	"/>
	<polygon class="st2" points="-581.14,400.98 -574.12,384.07 -550.82,425.11 -558.74,424.74 -583.15,424.74 -581.15,428.38 
		-547.61,428.38 -574.14,380.27 -590.69,411.08 -588.6,414.87 	"/>
	<polygon class="st2" points="-592.07,424.74 -587.18,424.97 -587.3,424.74 	"/>
	<polygon class="st2" points="-592.74,414.89 -597.89,424.48 -593.87,424.66 -590.65,418.68 	"/>
	<polygon class="st2" points="-553.76,424.74 -558.74,424.74 -550.82,425.11 -574.12,384.07 -581.14,400.98 -574.1,387.87 	"/>
	<polygon class="st2" points="-581.15,428.37 -599.98,428.37 -598.23,425.11 -615.39,425.11 -606.87,409.24 -601.43,399.12 
		-592.74,414.89 -591.38,412.37 -590.69,411.08 -601.48,391.53 -621.47,428.74 	"/>
	<polygon class="st2" points="-589.26,416.09 -588.6,414.87 -590.69,411.08 -591.38,412.37 	"/>
	<polygon class="st2" points="-584.34,424.74 -584.13,425.11 -587.18,424.97 -587.1,425.11 -598.23,425.11 -599.98,428.37 
		-581.15,428.37 -583.16,424.74 	"/>
	<polygon class="st2" points="-587.18,424.97 -584.13,425.11 -584.34,424.74 -587.3,424.74 	"/>
	<polygon class="st2" points="-590.65,418.68 -589.26,416.09 -591.38,412.37 -592.74,414.89 	"/>
	<path class="st5" d="M-533.43,403.8c-0.34,0.49-7.77,13.87-7.77,13.87l3.57,8.7l0.43,1.05l-0.87,2.23l-1.01,2.57l1.13,0.05
		l1.16,0.05l9.69,0.42l-2.05-4.97l4.15-8.15l0.52-1.03l0.47-0.92C-524.02,417.67-532.67,404.9-533.43,403.8"/>
	<path class="st2" d="M-523.25,417.54L-534.07,402l-0.7,1.01c-0.34,0.49-9.88,14.17-9.88,14.17l-0.29,0.41l4.97,10.23l-3.43,6.63
		l5.83-0.02l1.18,0l11.58-0.04l-3.42-6.62L-523.25,417.54z M-534.06,415.81c1.01,0,1.82,0.82,1.82,1.82c0,1.01-0.82,1.82-1.82,1.82
		c-1.01,0-1.82-0.82-1.82-1.82C-535.89,416.63-535.07,415.81-534.06,415.81 M-542.96,417.75c1.17-1.68,5.62-8.07,8.03-11.53v7.98
		c-1.53,0.39-2.67,1.77-2.67,3.43c0,1.95,1.59,3.54,3.54,3.54s3.54-1.59,3.54-3.54c0-1.66-1.15-3.05-2.69-3.43v-7.98l7.99,11.46
		l-4.49,9.23h-8.78L-542.96,417.75z M-527.61,432.68l-9.12,0.03l-1.16,0l-2.68,0.01l2.12-4.1h8.75L-527.61,432.68z"/>
	<path class="st2" d="M-521.04,400.32v-4.81h-4.81v1.55h-5.94c-0.35-0.97-1.28-1.66-2.36-1.66c-1.09,0-2.01,0.69-2.36,1.66h-5.87
		v-1.55h-4.81v4.81h4.81v-1.55h2.66c-0.02,0.01-0.04,0.03-0.06,0.05c-1.67,1.21-3.72,3.48-4.23,7.45c-1,0.33-1.73,1.28-1.73,2.39
		c0,1.39,1.13,2.51,2.51,2.51c1.39,0,2.51-1.13,2.51-2.51c0-1.05-0.65-1.96-1.58-2.33c0.72-5.05,4.27-6.81,5.87-7.35
		c0.4,0.86,1.27,1.46,2.28,1.46c1.02,0,1.9-0.61,2.29-1.49c1.55,0.51,5.2,2.23,5.95,7.35c-0.97,0.35-1.67,1.28-1.67,2.37
		c0,1.39,1.13,2.51,2.51,2.51c1.39,0,2.51-1.13,2.51-2.51c0-1.07-0.68-1.99-1.63-2.35c-0.51-3.99-2.56-6.27-4.24-7.49
		c-0.02-0.02-0.04-0.03-0.06-0.05h2.63v1.55H-521.04z M-544.09,398.6h-1.39v-1.39h1.39V398.6z M-543.24,409.45
		c-0.44,0-0.8-0.36-0.8-0.8c0-0.44,0.36-0.8,0.8-0.8s0.8,0.36,0.8,0.8C-542.43,409.09-542.79,409.45-543.24,409.45 M-525.07,409.45
		c-0.44,0-0.8-0.36-0.8-0.8c0-0.44,0.36-0.8,0.8-0.8c0.44,0,0.8,0.36,0.8,0.8C-524.27,409.09-524.63,409.45-525.07,409.45
		 M-534.15,398.71c-0.44,0-0.8-0.36-0.8-0.8s0.36-0.8,0.8-0.8c0.44,0,0.8,0.36,0.8,0.8S-533.71,398.71-534.15,398.71
		 M-524.14,397.22h1.39v1.39h-1.39V397.22z"/>
	<path class="st2" d="M-627.82,439.12c-1,0-1.82-0.81-1.82-1.82v-61.58c0-3.61,2.94-6.55,6.55-6.55h109.29
		c3.61,0,6.55,2.94,6.55,6.55v5.09c0,1-0.81,1.82-1.82,1.82c-1,0-1.82-0.81-1.82-1.82v-5.09c0-1.61-1.31-2.92-2.92-2.92h-109.29
		c-1.61,0-2.92,1.31-2.92,2.92v61.58C-626,438.31-626.81,439.12-627.82,439.12"/>
	<path class="st2" d="M-513.79,454.89h-109.29c-3.61,0-6.55-2.94-6.55-6.55V437.3c0-1,0.81-1.82,1.82-1.82s1.82,0.81,1.82,1.82
		v11.03c0,1.61,1.31,2.92,2.92,2.92h109.29c1.61,0,2.92-1.31,2.92-2.92V395.4c0-1,0.81-1.82,1.82-1.82c1,0,1.82,0.81,1.82,1.82
		v52.94C-507.24,451.95-510.18,454.89-513.79,454.89"/>
	<path class="st2" d="M-560.81,473.41h-15.25v-22.15h15.25V473.41z M-572.43,469.78h7.99v-14.89h-7.99V469.78z"/>
	<path class="st2" d="M-543.92,482.12h-48.66v-1.82c0-5.81,4.72-10.53,10.53-10.53h27.6c5.81,0,10.53,4.73,10.53,10.53V482.12z
		 M-588.71,478.49h40.92c-0.8-2.93-3.48-5.08-6.66-5.08h-27.6C-585.23,473.41-587.91,475.57-588.71,478.49"/>
</g>
</svg>
