<?xml version="1.0" encoding="utf-8"?>
<!-- Generator: Adobe Illustrator 23.0.5, SVG Export Plug-In . SVG Version: 6.00 Build 0)  -->
<svg version="1.1" id="Layer_1" xmlns="http://www.w3.org/2000/svg" xmlns:xlink="http://www.w3.org/1999/xlink" x="0px" y="0px"
	 viewBox="0 0 595.28 269.07" style="enable-background:new 0 0 595.28 269.07;" xml:space="preserve">
<style type="text/css">
	.st0{fill:#FFFFFF;}
	.st1{fill:#061F3E;}
	.st2{fill:#88B5E0;}
	.st3{fill:#0F142F;}
	.st4{fill:#0B0E17;}
	.st5{fill:#5E90CC;}
	.st6{fill:#4274B9;}
	.st7{fill:none;stroke:#0F142F;stroke-width:3.665;stroke-linecap:round;stroke-miterlimit:10;}
	.st8{fill:none;stroke:#FFFFFF;stroke-width:0.792;stroke-miterlimit:10;}
	.st9{fill:none;stroke:#FFFFFF;stroke-width:0.792;stroke-miterlimit:10;stroke-dasharray:2.001,2.001;}
	.st10{fill:none;stroke:#FFFFFF;stroke-width:0.792;stroke-miterlimit:10;stroke-dasharray:1.979,1.979;}
	.st11{fill:none;stroke:#FFFFFF;stroke-width:0.396;stroke-miterlimit:10;}
	.st12{fill:none;stroke:#0F142F;stroke-width:0.396;stroke-miterlimit:10;}
	.st13{fill:none;stroke:#0F142F;stroke-width:3.793;stroke-miterlimit:10;}
	.st14{fill:none;stroke:#4274B9;stroke-width:3.793;stroke-miterlimit:10;}
	.st15{fill:#FDFEFF;}
</style>
<path class="st0" d="M34.26,117.07c4.09,0.1,7.71-1.1,10.86-3.59c3.15-2.49,5.16-5.74,6.02-9.75l16.16-0.07
	c-0.53,5.17-2.39,9.88-5.59,14.14c-3.2,4.25-7.3,7.56-12.3,9.93c-5,2.37-10.22,3.48-15.65,3.33c-6.69-0.1-12.38-1.84-17.1-5.22
	c-4.71-3.38-8.15-8.06-10.31-14.03c-2.16-5.97-2.88-12.63-2.16-19.98L4.4,89.3c0.82-7.59,3.02-14.46,6.6-20.63
	c3.58-6.16,8.21-10.91,13.89-14.25s11.97-4.91,18.9-4.71c8.46,0.19,15.22,3.01,20.27,8.45c5.05,5.44,7.57,12.51,7.57,21.21H55.62
	c0-4.5-1.09-8.17-3.28-11.02c-2.19-2.85-5.35-4.38-9.48-4.57c-6.68-0.19-11.95,2.66-15.8,8.55c-3.85,5.9-5.91,14.21-6.2,24.94
	C20.51,110.28,24.98,116.88,34.26,117.07"/>
<polygon class="st0" points="94.13,129.61 77.04,129.61 96.3,18.25 113.39,18.25 "/>
<path class="st0" d="M117.36,90.1c0.82-7.68,3.06-14.67,6.74-20.95c3.68-6.28,8.4-11.14,14.17-14.57
	c5.77-3.43,12.17-5.05,19.19-4.86c6.68,0.1,12.46,1.88,17.31,5.36c4.86,3.48,8.4,8.24,10.64,14.28c2.24,6.04,3.02,12.76,2.34,20.16
	c-0.77,8.31-3.02,15.66-6.74,22.04c-3.73,6.38-8.49,11.27-14.28,14.68c-5.8,3.41-12.23,5.01-19.3,4.82
	c-6.63-0.1-12.37-1.87-17.2-5.33c-4.83-3.46-8.38-8.19-10.64-14.21c-2.26-6.02-3.08-12.65-2.45-19.9L117.36,90.1z M134.17,100.03
	c0.24,5.08,1.57,9.15,4,12.22c2.43,3.07,5.81,4.68,10.13,4.82c5.87,0.14,10.79-2.13,14.75-6.82c3.97-4.69,6.46-11.09,7.47-19.21
	l0.43-7.1c0-6.19-1.23-11.04-3.68-14.57c-2.45-3.53-6.01-5.39-10.67-5.58c-7.31-0.19-13.08,3.41-17.31,10.8
	c-2.55,4.49-4.16,9.67-4.83,15.51C134.07,94.16,133.98,97.47,134.17,100.03"/>
<path class="st0" d="M243.81,121.85c-5.91,6.33-13.32,9.4-22.22,9.21c-5.05-0.1-9.24-1.35-12.59-3.77
	c-3.34-2.42-5.72-5.79-7.14-10.11c-1.42-4.33-1.84-9.41-1.26-15.26l8.44-50.75h17.09l-8.51,50.97c-0.19,1.79-0.22,3.53-0.07,5.22
	c0.48,5.99,3.49,9.11,9.02,9.35c7.55,0.29,13.66-2.75,18.32-9.14l9.81-56.4h17.09l-13.49,78.44h-16.01L243.81,121.85z"/>
<path class="st0" d="M352.78,34.01c0.52-1.59,1.09-3.17,1.72-4.72c1.79-4.43,3.97-8.71,6.5-12.75c1.28-2.05,2.65-4.05,4.1-5.98
	c1.31-1.76,2.73-4.1,4.44-5.48c-9.17,6.87-16.59,16.32-21.53,27.05c-2.43,5.39-4.24,11.09-5.35,16.96c-0.53,2.94-0.92,5.91-1.1,8.92
	c-3.78-2.45-7.93-4.37-12.32-5.48c-7.38-1.91-15.28-1.52-22.57,0.8c-14.77,4.5-26.07,18.09-28.29,33.33
	c-2.54,15.19,4.41,31.37,16.79,39.8c11.86,8.7,28.4,9.5,40.56,2.7c2.31,1.68,4.81,3.05,7.47,3.9c1.51,0.49,3.07,0.78,4.62,0.94
	l4.64,0.05l-4.47-0.91c-1.45-0.42-2.83-1.02-4.15-1.67c-2.65-1.33-4.98-3.16-6.95-5.28l-0.65-0.7l-1.09,0.44
	c-6.08,2.45-12.59,3.13-18.79,2.15c-6.17-1.1-12-3.64-16.7-7.57c-9.47-7.79-14.25-20.52-11.91-32.29
	c1.94-11.74,10.72-21.96,21.94-25.7c6.83-2.28,14.3-2.17,21.13,0.06c7.35,2.39,12.33,7.12,17.92,12.17c0.78,0.7,1.55,1.4,2.32,2.1
	c-0.87-7.64-2.21-15.16-1.88-22.89C349.47,47.17,350.68,40.44,352.78,34.01"/>
<path class="st0" d="M34.26,221.42c4.09,0.1,7.71-1.1,10.86-3.59c3.15-2.49,5.16-5.74,6.02-9.75L67.29,208
	c-0.53,5.17-2.39,9.88-5.59,14.14c-3.2,4.25-7.3,7.56-12.3,9.93c-5,2.37-10.22,3.48-15.65,3.34c-6.68-0.1-12.38-1.84-17.09-5.22
	c-4.71-3.38-8.15-8.06-10.31-14.03c-2.16-5.97-2.88-12.63-2.16-19.98l0.22-2.54c0.82-7.59,3.02-14.46,6.6-20.63
	c3.58-6.16,8.21-10.91,13.88-14.25s11.97-4.91,18.9-4.71c8.46,0.19,15.22,3.01,20.27,8.45c5.05,5.44,7.57,12.51,7.57,21.21H55.61
	c0-4.5-1.09-8.17-3.28-11.02c-2.19-2.85-5.35-4.37-9.48-4.57c-6.68-0.19-11.95,2.66-15.8,8.55c-3.85,5.9-5.91,14.21-6.2,24.94
	C20.5,214.63,24.98,221.22,34.26,221.42"/>
<path class="st0" d="M79.33,194.44c0.82-7.68,3.07-14.67,6.74-20.95c3.68-6.28,8.4-11.14,14.17-14.57
	c5.77-3.43,12.16-5.05,19.18-4.86c6.69,0.1,12.45,1.88,17.31,5.36c4.86,3.48,8.41,8.24,10.65,14.28c2.24,6.04,3.01,12.76,2.33,20.16
	c-0.77,8.31-3.01,15.66-6.73,22.04c-3.73,6.38-8.49,11.27-14.28,14.68c-5.79,3.41-12.24,5.02-19.3,4.82
	c-6.64-0.1-12.37-1.87-17.2-5.33c-4.83-3.45-8.38-8.19-10.64-14.21c-2.26-6.02-3.08-12.65-2.45-19.9L79.33,194.44z M96.14,204.38
	c0.24,5.08,1.58,9.15,4.01,12.22c2.43,3.07,5.81,4.68,10.12,4.82c5.86,0.14,10.79-2.13,14.76-6.82c3.97-4.69,6.44-11.09,7.45-19.21
	l0.43-7.1c0-6.19-1.23-11.04-3.68-14.57c-2.45-3.53-6.01-5.39-10.68-5.58c-7.31-0.19-13.07,3.41-17.3,10.8
	c-2.55,4.5-4.16,9.67-4.83,15.51C96.04,198.51,95.94,201.82,96.14,204.38"/>
<path class="st0" d="M186.28,155.44l-1.52,8.34c6.44-6.67,14.14-9.91,23.08-9.72c4.91,0.1,8.98,1.23,12.23,3.41
	c3.25,2.17,5.45,5.05,6.6,8.63c7.21-8.22,15.48-12.23,24.81-12.04c7.6,0.19,13.24,2.82,16.92,7.87c3.68,5.05,5.06,12.12,4.15,21.21
	l-8.44,50.82h-17.09l8.51-50.97c0.24-2.13,0.26-4.08,0.07-5.87c-0.77-5.65-4.33-8.55-10.67-8.7c-7.07-0.19-12.65,3.7-16.74,11.67
	l-0.22,1.6l-8.95,52.27h-17.17l8.51-50.75c0.24-2.08,0.26-4.01,0.07-5.8c-0.77-5.85-4.33-8.85-10.68-8.99
	c-6.4-0.1-11.73,2.78-16.01,8.63l-9.88,56.91h-17.09l13.49-78.45L186.28,155.44z"/>
<path class="st0" d="M410.44,233.96c-0.58-1.93-0.82-4.37-0.72-7.32c-6.44,6.04-13.39,8.97-20.84,8.77
	c-6.78-0.1-12.4-2.28-16.84-6.56c-4.45-4.28-6.53-9.7-6.24-16.28c0.39-8.27,3.94-14.77,10.67-19.5c6.74-4.74,15.77-7.11,27.12-7.11
	l11.11,0.15l1.01-5.37c0.29-1.88,0.29-3.65,0-5.29c-0.96-5.22-4.4-7.9-10.31-8.05c-3.65-0.1-6.86,0.83-9.63,2.79
	c-2.77,1.96-4.46,4.58-5.09,7.87l-17.09,0.14c0.33-4.83,2.04-9.07,5.12-12.72c3.08-3.65,7.16-6.49,12.26-8.52
	c5.1-2.03,10.48-3,16.16-2.9c8.51,0.19,15.15,2.77,19.91,7.72c4.76,4.95,6.73,11.37,5.91,19.25l-5.99,36.76l-0.58,6.53
	c-0.14,2.85,0.22,5.63,1.08,8.34l-0.07,1.31H410.44z M392.84,221.34c3.61,0.1,6.95-0.74,10.03-2.5c3.08-1.76,5.7-4.05,7.86-6.85
	l2.67-14.86l-8.15-0.07c-6.45,0-11.59,1.22-15.44,3.66c-3.85,2.44-6.03,5.79-6.56,10.04c-0.39,3.24,0.33,5.79,2.13,7.65
	C387.17,220.27,389.66,221.25,392.84,221.34"/>
<path class="st0" d="M470.94,155.44l-1.73,9.21c6.68-7.25,14.4-10.78,23.15-10.59c7.31,0.14,12.72,2.77,16.23,7.87
	c3.51,5.1,4.81,12.22,3.89,21.35l-8.44,50.68h-17.1l8.51-50.9c0.24-2.08,0.26-4.01,0.07-5.8c-0.63-5.75-4.04-8.7-10.24-8.85
	c-6.49-0.1-12.19,3.12-17.09,9.64l-9.74,55.9h-17.1l13.49-78.45L470.94,155.44z"/>
<path class="st0" d="M551.85,208.58l24.53-53.07h18.9l-46.24,92c-6.45,12.37-14.93,18.49-25.46,18.34c-2.6-0.1-5.55-0.58-8.87-1.45
	l1.44-13.63l3.1,0.29c4.14,0.14,7.55-0.64,10.24-2.36c2.69-1.72,4.95-4.39,6.78-8.01l4.11-8.12l-13.06-77.07h17.74L551.85,208.58z"
	/>
<path class="st0" d="M273.88,269.07c10.69-12.89,17.25-28.53,18.67-44.51l0.45-5.1l4.54,2.85c11.17,7,25.91,6.43,36.31-0.67
	c5.2-3.53,9.4-8.49,11.94-14.2c2.53-5.7,3.36-12.15,2.4-18.31c-1.62-12.43-11.16-23.31-23.28-26.85
	c-6.03-1.78-12.66-1.88-18.82-0.12c-6.18,1.75-11.86,5.4-16.32,10.29l-4.55,5.01l-0.59-6.44c-0.61-6.66-2.82-13.3-6.81-18.88
	c-3.94-5.6-9.74-10.02-16.57-12.32c7.13,0.95,14.1,4.56,19.2,10.14c5.14,5.53,8.58,12.69,9.94,20.27l-5.14-1.44
	c8.97-12.69,26.39-19.23,41.94-15.01c7.75,1.92,15.05,6.15,20.39,12.22c5.43,5.97,9.11,13.62,10.31,21.66
	c2.62,16.1-5.25,33.42-19.18,41.64c-6.83,4.22-14.9,6.34-22.8,6.03c-7.91-0.33-15.68-2.99-21.95-7.63l4.99-2.25
	C295.89,242.6,286.81,258.4,273.88,269.07"/>
<polygon class="st1" points="-582.24,-38.7 -596.49,-26.45 -557.76,27.57 -543.61,17.92 -546.93,9.24 "/>
<path class="st2" d="M-586.72-106.27c0,31.27-25.35,56.62-56.63,56.62c-31.27,0-56.63-25.35-56.63-56.62
	c0-31.27,25.35-56.63,56.63-56.63C-612.07-162.9-586.72-137.55-586.72-106.27"/>
<path class="st3" d="M-603.58-62.91l-17.48,12.89l21.34,28.96l17.48-12.89L-603.58-62.91z M-612.06-48.67l7.12-5.25l13.71,18.6
	l-7.12,5.25L-612.06-48.67z"/>
<path class="st4" d="M-542.15,9.99l-39.12-53.08l-27.45,20.24l39.12,53.07c3.04,4.13,8.85,5.01,12.97,1.97l12.52-9.23
	C-539.99,19.92-539.11,14.12-542.15,9.99 M-548.25,18.03l-11.88,8.75c-1.44,1.06-3.47,0.75-4.53-0.69l-35.06-47.57l17.09-12.6
	l35.07,47.57C-546.5,14.93-546.81,16.96-548.25,18.03"/>
<path class="st3" d="M-665.04-119.27c1.47,0,2.76,0.99,3.13,2.41l4.53,17.11c1.11,4.29,2.08,8.32,2.86,12.27h0.19
	c0.86-3.87,2.13-8.05,3.45-12.22l5.56-17.33c0.43-1.34,1.68-2.25,3.08-2.25h1.14c1.42,0,2.67,0.92,3.09,2.28l5.28,16.96
	c1.37,4.56,2.51,8.64,3.4,12.56h0.19c0.7-3.9,1.74-7.95,2.99-12.49l4.83-16.95c0.4-1.39,1.67-2.35,3.11-2.35
	c2.2,0,3.76,2.14,3.08,4.24l-10.33,31.99c-0.43,1.34-1.68,2.24-3.08,2.24h-1.63c-1.41,0-2.66-0.91-3.09-2.26l-5.13-16.1
	c-1.39-4.31-2.48-8.16-3.41-12.68h-0.16c-0.97,4.64-2.16,8.63-3.52,12.74l-5.44,16.09c-0.45,1.32-1.68,2.2-3.07,2.2h-1.67
	c-1.43,0-2.69-0.94-3.1-2.31l-9.64-31.99c-0.63-2.08,0.93-4.18,3.1-4.18H-665.04z"/>
<path class="st3" d="M-605.55-119.27c1.47,0,2.75,0.99,3.13,2.41l4.53,17.11c1.11,4.29,2.08,8.32,2.86,12.27h0.19
	c0.86-3.87,2.13-8.05,3.45-12.22l5.56-17.33c0.43-1.34,1.68-2.25,3.08-2.25h1.14c1.42,0,2.67,0.92,3.09,2.28l5.28,16.96
	c1.37,4.56,2.51,8.64,3.4,12.56h0.19c0.7-3.9,1.74-7.95,2.99-12.49l4.82-16.95c0.4-1.39,1.67-2.35,3.12-2.35
	c2.2,0,3.76,2.14,3.08,4.24l-10.33,31.99c-0.43,1.34-1.68,2.24-3.08,2.24h-1.63c-1.41,0-2.66-0.91-3.09-2.26l-5.13-16.1
	c-1.39-4.31-2.48-8.16-3.41-12.68h-0.16c-0.97,4.64-2.16,8.63-3.52,12.74l-5.44,16.09c-0.45,1.32-1.68,2.2-3.07,2.2h-1.67
	c-1.43,0-2.69-0.94-3.1-2.31l-9.64-31.99c-0.63-2.08,0.93-4.18,3.1-4.18H-605.55z"/>
<path class="st3" d="M-546.06-119.27c1.47,0,2.75,0.99,3.13,2.41l4.53,17.11c1.11,4.29,2.08,8.32,2.86,12.27h0.19
	c0.86-3.87,2.13-8.05,3.45-12.22l5.56-17.33c0.43-1.34,1.68-2.25,3.08-2.25h1.14c1.42,0,2.67,0.92,3.09,2.28l5.28,16.96
	c1.37,4.56,2.51,8.64,3.4,12.56h0.19c0.7-3.9,1.74-7.95,2.99-12.49l4.82-16.95c0.4-1.39,1.67-2.35,3.12-2.35
	c2.2,0,3.76,2.14,3.08,4.24l-10.33,31.99c-0.43,1.34-1.68,2.24-3.08,2.24h-1.63c-1.41,0-2.66-0.91-3.09-2.26l-5.13-16.1
	c-1.39-4.31-2.48-8.16-3.41-12.68h-0.16c-0.97,4.64-2.16,8.63-3.52,12.74l-5.44,16.09c-0.45,1.32-1.68,2.2-3.07,2.2h-1.67
	c-1.43,0-2.69-0.94-3.1-2.31l-9.64-31.99c-0.63-2.08,0.93-4.18,3.1-4.18H-546.06z"/>
<path class="st3" d="M-593.32-67c1.39-2.05,0.14-4.97-2.33-5.16c-1.15-0.09-2.27,0.44-2.91,1.39c-1.15,1.7-2.39,3.34-3.72,4.92
	l4.57,4.57C-596.14-63.11-594.67-65.01-593.32-67"/>
<path class="st3" d="M-602.28-65.85c-2.92,3.48-6.27,6.65-10.02,9.41c-12.45,9.18-27.74,12.96-43.03,10.64
	c-15.96-2.42-29.93-11.16-39.11-24.54c-7.97-11.62-11.43-25.84-9.7-39.82c1.98-15.95,10.24-30.04,23.12-39.53
	c1.7-1.25,3.47-2.42,5.3-3.48c1.82-1.06,3.69-2.02,5.6-2.87c1.9-0.85,3.86-1.59,5.84-2.23c1.98-0.64,3.99-1.16,6.03-1.57
	c2.04-0.42,4.1-0.72,6.18-0.91c1.02-0.09,2.05-0.16,3.07-0.2c1.71-0.06,3.08-1.44,3.08-3.15v-0.13c0-1.77-1.46-3.22-3.24-3.15
	c-12.8,0.47-25.15,4.75-35.68,12.52c-13.84,10.2-22.88,25.17-25.45,42.17c-2.64,17.41,1.84,34.81,12.59,48.83
	c10.41,13.57,25.91,22.46,42.87,24.64c2.78,0.36,5.55,0.53,8.31,0.53c13.63,0,26.86-4.32,38.04-12.56
	c4.01-2.96,7.61-6.32,10.77-10.02L-602.28-65.85z"/>
<path class="st3" d="M-596.33-138.16L-596.33-138.16c-1.6,0.9-2.13,2.95-1.15,4.51c0.9,1.44,1.74,2.91,2.5,4.41
	c0.52,1.02,1.56,1.68,2.7,1.73c2.48,0.12,4.06-2.66,2.93-4.86c-0.83-1.6-1.73-3.18-2.69-4.72
	C-592.95-138.54-594.85-139-596.33-138.16"/>
<path class="st3" d="M-627.6-164.54c-2.05-0.63-4.13,0.9-4.16,3.05c-0.02,1.47,1.03,2.73,2.43,3.16c9.25,2.88,17.57,8,24.31,14.99
	c1.18,1.23,3.1,1.35,4.41,0.25c1.43-1.2,1.53-3.36,0.24-4.71C-607.92-155.62-617.23-161.35-627.6-164.54"/>
<path class="st5" d="M-54.82-121.54c0,35.42-28.72,64.14-64.14,64.14c-35.42,0-64.14-28.72-64.14-64.14
	c0-35.42,28.72-64.14,64.14-64.14C-83.54-185.68-54.82-156.97-54.82-121.54"/>
<path class="st3" d="M-80.62-40.8h-0.1c-1.84-0.04-3.46-1.23-4.04-2.98l-18.43-55.27c-0.52-1.57-0.12-3.3,1.05-4.47
	c1.17-1.17,2.9-1.58,4.47-1.05l55.27,18.43c1.75,0.58,2.94,2.2,2.99,4.04c0.04,1.84-1.08,3.51-2.8,4.17l-24.8,9.54l-9.54,24.8
	C-77.2-41.91-78.83-40.8-80.62-40.8"/>
<path class="st3" d="M-60.04-141.73c-1.01,0-1.98-0.6-2.4-1.59c-1.13-2.66-2.45-5.27-3.92-7.76c-0.73-1.24-0.32-2.84,0.92-3.57
	c1.24-0.73,2.84-0.32,3.57,0.92c1.59,2.69,3.01,5.51,4.23,8.38c0.56,1.33-0.06,2.86-1.38,3.42
	C-59.35-141.79-59.7-141.73-60.04-141.73"/>
<path class="st3" d="M-123.58-131.15c-6.21,0-12.38-0.8-18.33-2.37c-1.39-0.37-2.22-1.79-1.86-3.19c0.37-1.39,1.8-2.22,3.19-1.86
	c5.52,1.46,11.23,2.19,16.99,2.19c1.44,0,2.61,1.17,2.61,2.61C-120.98-132.31-122.14-131.15-123.58-131.15"/>
<path class="st3" d="M-113.57-131.87c-1.27,0-2.39-0.94-2.58-2.23c-0.21-1.43,0.78-2.75,2.21-2.96c9.19-1.34,17.84-4.53,25.7-9.48
	c1.22-0.77,2.83-0.4,3.6,0.82c0.77,1.22,0.4,2.83-0.82,3.6c-8.49,5.35-17.82,8.79-27.73,10.23
	C-113.32-131.88-113.45-131.87-113.57-131.87"/>
<path class="st3" d="M-112.68-132c-1.26,0-2.37-0.92-2.57-2.2c-0.23-1.42,0.74-2.76,2.17-2.98c12.68-2.01,24.44-7.65,34.02-16.31
	c1.07-0.97,2.72-0.88,3.68,0.18c0.97,1.07,0.88,2.72-0.18,3.68c-10.32,9.34-23.01,15.42-36.7,17.59
	C-112.41-132.01-112.54-132-112.68-132"/>
<path class="st3" d="M-141.85-133.59c-0.23,0-0.46-0.03-0.69-0.09c-14.62-4-27.87-12.8-37.31-24.78l-1.27-1.61l1.27-1.62
	c13.68-17.36,34.19-27.31,56.27-27.31c16.42,0,31.86,5.41,44.66,15.63c1.13,0.9,1.31,2.54,0.41,3.67c-0.9,1.13-2.54,1.31-3.67,0.41
	c-11.87-9.48-26.19-14.49-41.41-14.49c-19.77,0-38.19,8.61-50.86,23.71c8.65,10.28,20.39,17.83,33.28,21.36
	c1.39,0.38,2.21,1.81,1.83,3.2C-139.66-134.35-140.71-133.59-141.85-133.59"/>
<path class="st3" d="M-107.47-85.56c-0.27-0.07-0.54-0.13-0.82-0.2C-108.01-85.69-107.74-85.62-107.47-85.56"/>
<path class="st3" d="M-137.59-91.37c0.3-0.06,0.61-0.12,0.91-0.17C-136.98-91.49-137.28-91.43-137.59-91.37"/>
<path class="st3" d="M-139.29-91.01c0.3-0.07,0.6-0.13,0.9-0.19C-138.69-91.15-138.99-91.08-139.29-91.01"/>
<path class="st3" d="M-134.14-91.96c0.31-0.05,0.63-0.09,0.94-0.13C-133.52-92.05-133.83-92.01-134.14-91.96"/>
<path class="st3" d="M-135.87-91.69c0.31-0.05,0.62-0.1,0.93-0.15C-135.25-91.79-135.56-91.74-135.87-91.69"/>
<path class="st3" d="M-109.03-85.93c-0.28-0.06-0.55-0.12-0.83-0.18C-109.58-86.04-109.31-85.99-109.03-85.93"/>
<path class="st3" d="M-145.98-89.18c0.29-0.09,0.58-0.19,0.86-0.28C-145.41-89.37-145.7-89.27-145.98-89.18"/>
<path class="st3" d="M-132.41-92.2c0.32-0.04,0.64-0.07,0.96-0.11C-131.76-92.27-132.09-92.24-132.41-92.2"/>
<path class="st3" d="M-112.2-86.55c-0.28-0.05-0.57-0.09-0.86-0.14C-112.77-86.64-112.49-86.6-112.2-86.55"/>
<path class="st3" d="M-147.62-88.62c0.29-0.1,0.57-0.2,0.86-0.3C-147.05-88.82-147.34-88.72-147.62-88.62"/>
<path class="st3" d="M-110.61-86.26c-0.28-0.05-0.56-0.11-0.84-0.16C-111.17-86.36-110.89-86.31-110.61-86.26"/>
<path class="st3" d="M-142.66-90.18c0.29-0.08,0.59-0.16,0.88-0.24C-142.08-90.34-142.37-90.26-142.66-90.18"/>
<path class="st3" d="M-140.98-90.62c0.3-0.07,0.59-0.14,0.89-0.21C-140.39-90.76-140.69-90.69-140.98-90.62"/>
<path class="st3" d="M-144.33-89.7c0.29-0.09,0.58-0.17,0.87-0.26C-143.75-89.87-144.04-89.79-144.33-89.7"/>
<path class="st3" d="M-149.25-88.02c0.28-0.11,0.57-0.22,0.85-0.32C-148.68-88.24-148.97-88.13-149.25-88.02"/>
<path class="st3" d="M-113.97-92.09c0.31,0.04,0.63,0.08,0.94,0.13C-113.34-92.01-113.65-92.05-113.97-92.09"/>
<path class="st3" d="M-119.32-92.6c0.35,0.02,0.7,0.04,1.05,0.07C-118.62-92.56-118.97-92.58-119.32-92.6"/>
<path class="st3" d="M-117.51-92.47c0.33,0.03,0.67,0.05,1,0.09C-116.84-92.42-117.17-92.45-117.51-92.47"/>
<path class="st3" d="M-130.66-92.39c0.33-0.03,0.67-0.06,1-0.09C-129.99-92.45-130.33-92.42-130.66-92.39"/>
<path class="st3" d="M-108.78-91.21c0.3,0.06,0.6,0.13,0.9,0.19C-108.18-91.08-108.48-91.15-108.78-91.21"/>
<path class="st3" d="M-112.23-91.84c0.31,0.05,0.62,0.1,0.93,0.15C-111.61-91.74-111.92-91.79-112.23-91.84"/>
<path class="st3" d="M-110.5-91.54c0.31,0.06,0.61,0.11,0.91,0.17C-109.89-91.43-110.19-91.49-110.5-91.54"/>
<path class="st3" d="M-115.73-92.3c0.32,0.03,0.64,0.07,0.96,0.11C-115.08-92.24-115.41-92.27-115.73-92.3"/>
<path class="st3" d="M-128.9-92.54c0.35-0.03,0.7-0.05,1.05-0.07C-128.2-92.58-128.55-92.56-128.9-92.54"/>
<path class="st3" d="M-127.14-92.64c0.39-0.02,0.79-0.03,1.18-0.04C-126.35-92.68-126.75-92.66-127.14-92.64"/>
<path class="st3" d="M-123.58-92.73c0.6,0,1.19,0.01,1.78,0.02C-122.4-92.72-122.99-92.73-123.58-92.73"/>
<path class="st3" d="M-121.21-92.69c0.39,0.01,0.79,0.03,1.18,0.04C-120.42-92.66-120.82-92.68-121.21-92.69"/>
<path class="st3" d="M-125.37-92.71c0.59-0.01,1.19-0.02,1.78-0.02C-124.18-92.73-124.77-92.72-125.37-92.71"/>
<path class="st3" d="M-151.03-81.62c-0.26,0.12-0.52,0.24-0.78,0.36C-151.54-81.38-151.29-81.5-151.03-81.62"/>
<path class="st3" d="M-134.11-86.69c-0.29,0.05-0.57,0.09-0.86,0.14C-134.68-86.6-134.4-86.64-134.11-86.69"/>
<path class="st3" d="M-142.01-84.94c-0.27,0.08-0.53,0.15-0.79,0.23C-142.54-84.79-142.27-84.87-142.01-84.94"/>
<path class="st3" d="M-145.07-83.98c-0.26,0.09-0.52,0.18-0.78,0.27C-145.59-83.8-145.33-83.89-145.07-83.98"/>
<path class="st3" d="M-152.48-80.94c-0.27,0.13-0.54,0.27-0.81,0.41C-153.02-80.67-152.75-80.81-152.48-80.94"/>
<path class="st3" d="M-125.79-87.47c-0.36,0.01-0.73,0.02-1.09,0.04C-126.52-87.45-126.15-87.46-125.79-87.47"/>
<path class="st3" d="M-140.45-85.37c-0.27,0.07-0.54,0.14-0.81,0.22C-140.99-85.22-140.72-85.3-140.45-85.37"/>
<path class="st3" d="M-127.54-87.39c-0.32,0.02-0.65,0.04-0.97,0.06C-128.19-87.36-127.86-87.38-127.54-87.39"/>
<path class="st3" d="M-130.87-87.12c-0.3,0.03-0.6,0.06-0.89,0.1C-131.46-87.05-131.16-87.09-130.87-87.12"/>
<path class="st3" d="M-132.5-86.92c-0.29,0.04-0.58,0.08-0.87,0.12C-133.08-86.85-132.79-86.88-132.5-86.92"/>
<path class="st3" d="M-146.58-83.45c-0.26,0.1-0.52,0.2-0.78,0.29C-147.1-83.25-146.84-83.35-146.58-83.45"/>
<path class="st3" d="M-123.58-87.51c-0.55,0-1.1,0.01-1.65,0.02C-124.69-87.51-124.14-87.51-123.58-87.51"/>
<path class="st3" d="M-129.22-87.28c-0.31,0.03-0.61,0.05-0.92,0.08C-129.83-87.23-129.53-87.25-129.22-87.28"/>
<path class="st3" d="M-143.54-84.48c-0.26,0.08-0.53,0.17-0.79,0.25C-144.07-84.31-143.81-84.4-143.54-84.48"/>
<path class="st3" d="M-148.08-82.87c-0.26,0.1-0.52,0.21-0.77,0.31C-148.59-82.67-148.34-82.77-148.08-82.87"/>
<path class="st3" d="M-149.56-82.27c-0.26,0.11-0.52,0.22-0.77,0.34C-150.08-82.04-149.82-82.16-149.56-82.27"/>
<path class="st3" d="M-138.89-85.75c-0.27,0.06-0.54,0.13-0.82,0.2C-139.43-85.62-139.16-85.69-138.89-85.75"/>
<path class="st3" d="M-154.07-85.96c0.29-0.14,0.58-0.27,0.87-0.41C-153.48-86.24-153.77-86.1-154.07-85.96"/>
<path class="st3" d="M-155.67-85.18c0.3-0.15,0.61-0.31,0.91-0.46C-155.06-85.49-155.37-85.33-155.67-85.18"/>
<path class="st3" d="M-117.03-87.2c-0.31-0.03-0.61-0.05-0.92-0.08C-117.64-87.25-117.33-87.23-117.03-87.2"/>
<path class="st3" d="M-115.41-87.02c-0.3-0.04-0.6-0.07-0.89-0.1C-116.01-87.09-115.71-87.06-115.41-87.02"/>
<path class="st3" d="M-152.47-86.69c0.29-0.13,0.57-0.25,0.86-0.37C-151.9-86.94-152.18-86.82-152.47-86.69"/>
<path class="st3" d="M-150.86-87.38c0.28-0.12,0.57-0.23,0.85-0.35C-150.3-87.61-150.58-87.49-150.86-87.38"/>
<path class="st3" d="M-137.31-86.1c-0.28,0.06-0.55,0.12-0.83,0.18C-137.86-85.99-137.58-86.05-137.31-86.1"/>
<path class="st3" d="M-118.66-87.34c-0.32-0.02-0.65-0.04-0.97-0.06C-119.31-87.38-118.98-87.36-118.66-87.34"/>
<path class="st3" d="M-120.29-87.43c-0.36-0.02-0.73-0.03-1.09-0.04C-121.02-87.46-120.65-87.45-120.29-87.43"/>
<path class="st3" d="M-113.8-86.8c-0.29-0.04-0.58-0.08-0.87-0.12C-114.38-86.88-114.09-86.85-113.8-86.8"/>
<path class="st3" d="M-107.08-90.83c0.3,0.07,0.59,0.14,0.89,0.21C-106.48-90.69-106.78-90.76-107.08-90.83"/>
<path class="st3" d="M-154.14-80.11c0.08-0.04,0.15-0.08,0.23-0.12C-153.99-80.19-154.06-80.15-154.14-80.11L-154.14-80.11z"/>
<path class="st3" d="M-121.93-87.49c-0.55-0.01-1.1-0.02-1.65-0.02C-123.03-87.51-122.48-87.51-121.93-87.49"/>
<path class="st3" d="M-135.72-86.41c-0.28,0.05-0.56,0.1-0.84,0.16C-136.28-86.31-136-86.36-135.72-86.41"/>
<path class="st3" d="M-172.6-73.32c-0.12,0.11-0.24,0.22-0.35,0.33c-11-12.21-17.03-27.88-17.03-44.4
	c0-13.98,4.23-27.21,12.27-38.47c4.29,4.94,9.24,9.25,14.67,12.84c0.41-1.83,0.86-3.62,1.35-5.39c-5.29-3.71-10.05-8.18-14.08-13.28
	l-2.05-2.6l-2.05,2.6c-10.04,12.73-15.34,28.05-15.34,44.3c0,17.92,6.58,34.9,18.57,48.1l1.74-1.78
	C-174.14-71.85-173.37-72.59-172.6-73.32"/>
<path class="st3" d="M-165.82-78.96c-0.25,0.19-0.51,0.37-0.76,0.56C-166.33-78.59-166.08-78.78-165.82-78.96"/>
<path class="st3" d="M-171.29-74.52c-0.24,0.21-0.47,0.43-0.71,0.64C-171.76-74.1-171.53-74.31-171.29-74.52"/>
<path class="st3" d="M-174.89-67.44l1.87,1.92l0.04-0.04C-173.62-66.17-174.26-66.79-174.89-67.44"/>
<path class="st3" d="M-164.39-79.99c-0.26,0.18-0.52,0.36-0.79,0.55C-164.92-79.62-164.65-79.8-164.39-79.99"/>
<path class="st3" d="M-167.23-77.9c-0.25,0.19-0.5,0.38-0.74,0.58C-167.72-77.52-167.48-77.71-167.23-77.9"/>
<path class="st3" d="M-169.96-75.68c-0.24,0.2-0.48,0.41-0.72,0.62C-170.44-75.27-170.2-75.48-169.96-75.68"/>
<path class="st3" d="M-51.97-117.39c0-5.71-0.67-11.39-2-16.89c-0.32-1.32-1.59-2.25-2.93-2.05c-1.54,0.23-2.52,1.72-2.16,3.2
	c1.25,5.12,1.88,10.42,1.88,15.75c0,6.12-0.83,12.12-2.43,17.87c-0.37,1.34,0.36,2.75,1.68,3.19c1.41,0.47,2.94-0.33,3.34-1.76
	C-52.87-104.31-51.97-110.78-51.97-117.39"/>
<path class="st3" d="M-168.61-76.81c-0.24,0.2-0.49,0.4-0.73,0.6C-169.09-76.42-168.85-76.61-168.61-76.81"/>
<path class="st3" d="M-168.44-70.06c0.21-0.19,0.42-0.39,0.63-0.58C-168.02-70.45-168.23-70.26-168.44-70.06"/>
<path class="st3" d="M-162.93-80.98c-0.27,0.18-0.54,0.36-0.81,0.54C-163.48-80.62-163.2-80.8-162.93-80.98"/>
<path class="st3" d="M-167.22-71.16c0.21-0.19,0.43-0.37,0.65-0.56C-166.79-71.53-167-71.35-167.22-71.16"/>
<path class="st3" d="M-105.29-90.39c-0.03-0.01-0.06-0.02-0.09-0.02C-105.36-90.4-105.33-90.4-105.29-90.39L-105.29-90.39z"/>
<path class="st3" d="M-164.71-73.25c0.22-0.18,0.44-0.35,0.67-0.52C-164.27-73.6-164.49-73.43-164.71-73.25"/>
<path class="st3" d="M-160.82-82.32c0.11-0.06,0.21-0.13,0.32-0.19c0,0,0,0,0,0C-160.61-82.45-160.72-82.39-160.82-82.32"/>
<path class="st3" d="M-163.43-74.24c0.23-0.17,0.45-0.34,0.68-0.5C-162.97-74.58-163.2-74.41-163.43-74.24"/>
<path class="st3" d="M-162.12-75.2c0.23-0.16,0.46-0.33,0.69-0.49C-161.66-75.53-161.89-75.37-162.12-75.2"/>
<path class="st3" d="M-138.72-135.37c0.37-1.39-0.46-2.82-1.86-3.19c-5.79-1.53-11.34-3.87-16.5-6.9c-0.46,1.73-0.88,3.5-1.24,5.3
	c5.17,2.88,10.69,5.13,16.42,6.65C-140.52-133.14-139.09-133.98-138.72-135.37"/>
<path class="st3" d="M-165.98-72.22c0.22-0.18,0.44-0.36,0.66-0.54C-165.54-72.58-165.76-72.4-165.98-72.22"/>
<path class="st3" d="M-161.44-81.94c-0.29,0.18-0.57,0.36-0.86,0.54C-162.01-81.58-161.72-81.76-161.44-81.94"/>
<path class="st3" d="M-160.8-76.13c0.24-0.16,0.47-0.32,0.71-0.47C-160.32-76.45-160.56-76.29-160.8-76.13"/>
<path class="st3" d="M-159.45-77.02c0.24-0.16,0.49-0.31,0.73-0.46C-158.96-77.33-159.21-77.18-159.45-77.02"/>
<path class="st3" d="M-169.31-69.26C-169.31-69.25-169.31-69.25-169.31-69.26c0.1-0.09,0.2-0.18,0.29-0.27
	C-169.11-69.44-169.21-69.35-169.31-69.26"/>
<path class="st3" d="M-78.56-76.81c0.24,0.2,0.49,0.4,0.73,0.6C-78.08-76.42-78.32-76.61-78.56-76.81"/>
<path class="st3" d="M-97.16-87.72c0.28,0.11,0.57,0.23,0.85,0.35C-96.59-87.49-96.87-87.61-97.16-87.72"/>
<path class="st3" d="M-88.45-77.48c0.24,0.15,0.49,0.3,0.73,0.46C-87.96-77.18-88.2-77.33-88.45-77.48"/>
<path class="st3" d="M-84.24-80.98c0.27,0.18,0.54,0.36,0.81,0.54C-83.69-80.62-83.96-80.8-84.24-80.98"/>
<path class="st3" d="M-87.08-76.6c0.24,0.16,0.47,0.31,0.71,0.47C-86.61-76.29-86.85-76.45-87.08-76.6"/>
<path class="st3" d="M-74.19-65.56l0.04,0.04l1.87-1.92C-72.91-66.79-73.55-66.17-74.19-65.56"/>
<path class="st3" d="M-82.78-79.99c0.26,0.18,0.52,0.36,0.78,0.55C-82.25-79.62-82.52-79.8-82.78-79.99"/>
<path class="st3" d="M-78.15-69.53c0.1,0.09,0.19,0.18,0.29,0.28c0,0,0,0,0,0C-77.96-69.35-78.06-69.44-78.15-69.53"/>
<path class="st3" d="M-98.77-88.34c0.29,0.11,0.57,0.21,0.85,0.32C-98.2-88.13-98.49-88.23-98.77-88.34"/>
<path class="st3" d="M-75.88-74.52c0.24,0.21,0.47,0.43,0.71,0.64C-75.41-74.1-75.64-74.31-75.88-74.52"/>
<path class="st3" d="M-80.59-71.72c0.22,0.18,0.43,0.37,0.65,0.56C-80.16-71.35-80.38-71.53-80.59-71.72"/>
<path class="st3" d="M-86.35-82.32c-0.11-0.06-0.21-0.13-0.32-0.19l0,0C-86.56-82.45-86.45-82.39-86.35-82.32"/>
<path class="st3" d="M-95.56-87.07c0.29,0.12,0.57,0.25,0.86,0.37C-94.99-86.82-95.27-86.94-95.56-87.07"/>
<path class="st3" d="M-93.98-86.37c0.29,0.13,0.58,0.27,0.87,0.41C-93.39-86.1-93.68-86.24-93.98-86.37"/>
<path class="st3" d="M-79.94-77.9c0.25,0.19,0.5,0.38,0.74,0.58C-79.44-77.52-79.69-77.71-79.94-77.9"/>
<path class="st3" d="M-93.03-80.11L-93.03-80.11c-0.08-0.04-0.15-0.08-0.23-0.12C-93.18-80.19-93.11-80.15-93.03-80.11"/>
<path class="st3" d="M-85.74-75.69c0.23,0.16,0.46,0.32,0.69,0.49C-85.28-75.37-85.51-75.53-85.74-75.69"/>
<path class="st3" d="M-79.36-70.64c0.21,0.19,0.42,0.38,0.63,0.58C-78.94-70.26-79.15-70.45-79.36-70.64"/>
<path class="st3" d="M-81.85-72.76c0.22,0.18,0.44,0.36,0.66,0.54C-81.41-72.4-81.63-72.58-81.85-72.76"/>
<path class="st3" d="M-92.41-85.64c0.31,0.15,0.61,0.3,0.92,0.46C-91.8-85.33-92.11-85.49-92.41-85.64"/>
<path class="st3" d="M-83.12-73.77c0.22,0.17,0.45,0.35,0.67,0.52C-82.68-73.43-82.9-73.6-83.12-73.77"/>
<path class="st3" d="M-95.37-81.26c-0.26-0.12-0.52-0.24-0.78-0.36C-95.88-81.5-95.62-81.38-95.37-81.26"/>
<path class="st3" d="M-84.42-74.75c0.23,0.17,0.45,0.33,0.68,0.5C-83.97-74.41-84.19-74.58-84.42-74.75"/>
<path class="st3" d="M-77.21-75.68c0.24,0.2,0.48,0.41,0.72,0.62C-76.73-75.27-76.97-75.48-77.21-75.68"/>
<path class="st3" d="M-96.84-81.93c-0.26-0.11-0.51-0.23-0.77-0.34C-97.35-82.16-97.09-82.04-96.84-81.93"/>
<path class="st3" d="M-85.73-81.94c0.29,0.18,0.57,0.36,0.86,0.54C-85.16-81.58-85.45-81.76-85.73-81.94"/>
<path class="st3" d="M-81.35-78.96c0.25,0.19,0.51,0.37,0.76,0.56C-80.84-78.59-81.09-78.78-81.35-78.96"/>
<path class="st3" d="M-93.88-80.54c-0.27-0.14-0.54-0.27-0.81-0.41C-94.42-80.81-94.15-80.67-93.88-80.54"/>
<path class="st3" d="M-128.51-87.34c-0.24,0.02-0.47,0.04-0.71,0.06C-128.98-87.3-128.75-87.32-128.51-87.34"/>
<path class="st3" d="M-126.88-87.43c-0.22,0.01-0.44,0.03-0.66,0.04C-127.32-87.41-127.1-87.42-126.88-87.43"/>
<path class="st3" d="M-164.04-73.77c0.21-0.16,0.41-0.32,0.62-0.47C-163.63-74.09-163.84-73.93-164.04-73.77"/>
<path class="st3" d="M-133.37-86.8c-0.25,0.04-0.5,0.08-0.74,0.12C-133.87-86.73-133.62-86.77-133.37-86.8"/>
<path class="st3" d="M-134.97-86.55c-0.25,0.04-0.5,0.09-0.75,0.13C-135.47-86.46-135.22-86.51-134.97-86.55"/>
<path class="st3" d="M-169.01-69.53c0.19-0.18,0.38-0.36,0.57-0.53C-168.63-69.89-168.82-69.71-169.01-69.53"/>
<path class="st3" d="M-125.23-87.49c-0.18,0-0.37,0.01-0.55,0.02C-125.6-87.48-125.42-87.49-125.23-87.49"/>
<path class="st3" d="M-176.66-69.26l1.77,1.82c-0.59-0.61-1.17-1.23-1.74-1.86L-176.66-69.26z"/>
<path class="st3" d="M-130.14-87.2c-0.24,0.02-0.48,0.05-0.73,0.08C-130.62-87.15-130.38-87.17-130.14-87.2"/>
<path class="st3" d="M-166.57-71.72c0.2-0.17,0.4-0.34,0.6-0.51C-166.18-72.05-166.38-71.89-166.57-71.72"/>
<path class="st3" d="M-165.32-72.76c0.2-0.16,0.4-0.33,0.61-0.49C-164.92-73.09-165.12-72.92-165.32-72.76"/>
<path class="st3" d="M-131.76-87.02c-0.25,0.03-0.49,0.06-0.74,0.1C-132.25-86.96-132.01-86.99-131.76-87.02"/>
<path class="st3" d="M-167.81-70.64c0.19-0.17,0.39-0.35,0.59-0.52C-167.42-70.99-167.61-70.81-167.81-70.64"/>
<path class="st3" d="M-167.97-77.32c-0.21,0.17-0.42,0.34-0.63,0.51C-168.39-76.98-168.18-77.16-167.97-77.32"/>
<path class="st3" d="M-108.28-85.75c-0.25-0.06-0.5-0.12-0.75-0.17C-108.78-85.87-108.53-85.81-108.28-85.75"/>
<path class="st3" d="M-166.58-78.4c-0.22,0.16-0.43,0.33-0.64,0.49C-167.01-78.07-166.8-78.24-166.58-78.4"/>
<path class="st3" d="M-111.45-86.41c-0.25-0.05-0.5-0.09-0.75-0.13C-111.95-86.51-111.7-86.46-111.45-86.41"/>
<path class="st3" d="M-163.75-80.44c-0.22,0.15-0.43,0.3-0.65,0.45C-164.18-80.14-163.96-80.29-163.75-80.44"/>
<path class="st3" d="M-109.86-86.1c-0.25-0.05-0.5-0.1-0.75-0.15C-110.36-86.21-110.11-86.15-109.86-86.1"/>
<path class="st3" d="M-165.18-79.44c-0.22,0.16-0.43,0.31-0.65,0.47C-165.61-79.12-165.39-79.28-165.18-79.44"/>
<path class="st3" d="M-172-73.88c-0.2,0.18-0.4,0.37-0.6,0.56C-172.4-73.51-172.2-73.7-172-73.88"/>
<path class="st3" d="M-170.68-75.07c-0.21,0.18-0.41,0.36-0.61,0.54C-171.09-74.7-170.88-74.89-170.68-75.07"/>
<path class="st3" d="M-169.33-76.21c-0.21,0.17-0.42,0.35-0.63,0.53C-169.75-75.86-169.54-76.04-169.33-76.21"/>
<path class="st3" d="M-114.67-86.92c-0.25-0.03-0.49-0.07-0.74-0.1C-115.16-86.99-114.92-86.96-114.67-86.92"/>
<path class="st3" d="M-117.95-87.28c-0.24-0.02-0.47-0.04-0.71-0.06C-118.42-87.32-118.19-87.3-117.95-87.28"/>
<path class="st3" d="M-160.09-76.6c0.21-0.14,0.42-0.28,0.64-0.42C-159.66-76.88-159.87-76.74-160.09-76.6"/>
<path class="st3" d="M-119.63-87.39c-0.22-0.01-0.44-0.03-0.66-0.04C-120.07-87.42-119.85-87.41-119.63-87.39"/>
<path class="st3" d="M-161.43-75.69c0.21-0.15,0.42-0.29,0.63-0.44C-161.01-75.99-161.22-75.84-161.43-75.69"/>
<path class="st3" d="M-121.38-87.47c-0.18-0.01-0.37-0.02-0.55-0.02C-121.75-87.49-121.57-87.48-121.38-87.47"/>
<path class="st3" d="M-116.3-87.12c-0.24-0.03-0.48-0.05-0.73-0.08C-116.79-87.17-116.54-87.15-116.3-87.12"/>
<path class="st3" d="M-162.29-81.4c-0.21,0.14-0.43,0.28-0.64,0.42C-162.72-81.12-162.51-81.26-162.29-81.4"/>
<path class="st3" d="M-136.56-86.26c-0.25,0.05-0.5,0.1-0.75,0.15C-137.06-86.15-136.81-86.21-136.56-86.26"/>
<path class="st3" d="M-162.75-74.75c0.21-0.15,0.42-0.31,0.63-0.46C-162.33-75.05-162.54-74.9-162.75-74.75"/>
<path class="st3" d="M-113.06-86.69c-0.25-0.04-0.5-0.08-0.74-0.12C-113.55-86.77-113.3-86.73-113.06-86.69"/>
<path class="st3" d="M-160.82-82.32c-0.21,0.13-0.41,0.26-0.62,0.39C-161.23-82.07-161.03-82.2-160.82-82.32"/>
<path class="st3" d="M-127.85-92.6c0.24-0.01,0.47-0.03,0.71-0.04C-127.38-92.63-127.61-92.62-127.85-92.6"/>
<path class="st3" d="M-136.67-91.54c0.27-0.05,0.53-0.1,0.8-0.14C-136.14-91.64-136.41-91.59-136.67-91.54"/>
<path class="st3" d="M-134.94-91.84c0.27-0.04,0.53-0.09,0.8-0.12C-134.41-91.92-134.68-91.88-134.94-91.84"/>
<path class="st3" d="M-150.01-87.72c0.25-0.1,0.51-0.2,0.76-0.29C-149.5-87.92-149.76-87.82-150.01-87.72"/>
<path class="st3" d="M-129.66-92.47c0.25-0.02,0.5-0.05,0.76-0.06C-129.16-92.52-129.41-92.5-129.66-92.47"/>
<path class="st3" d="M-131.44-92.3c0.26-0.03,0.52-0.06,0.78-0.08C-130.92-92.36-131.18-92.33-131.44-92.3"/>
<path class="st3" d="M-133.2-92.09c0.26-0.04,0.53-0.07,0.8-0.1C-132.67-92.16-132.94-92.13-133.2-92.09"/>
<path class="st3" d="M-138.39-91.21c0.27-0.06,0.54-0.11,0.8-0.16C-137.85-91.32-138.12-91.26-138.39-91.21"/>
<path class="st3" d="M-146.76-88.92c0.26-0.09,0.52-0.17,0.78-0.26C-146.24-89.09-146.5-89.01-146.76-88.92"/>
<path class="st3" d="M-148.4-88.34c0.26-0.09,0.51-0.19,0.77-0.28C-147.88-88.53-148.14-88.44-148.4-88.34"/>
<path class="st3" d="M-141.78-90.41c0.27-0.07,0.53-0.14,0.8-0.2C-141.25-90.55-141.52-90.48-141.78-90.41"/>
<path class="st3" d="M-143.46-89.95c0.26-0.08,0.53-0.15,0.79-0.22C-142.93-90.1-143.19-90.03-143.46-89.95"/>
<path class="st3" d="M-145.12-89.46c0.26-0.08,0.53-0.16,0.79-0.24C-144.59-89.62-144.86-89.54-145.12-89.46"/>
<path class="st3" d="M-140.09-90.83c0.27-0.06,0.53-0.12,0.8-0.18C-139.56-90.95-139.83-90.89-140.09-90.83"/>
<path class="st3" d="M-111.3-91.69c0.27,0.05,0.53,0.1,0.8,0.14C-110.76-91.59-111.03-91.64-111.3-91.69"/>
<path class="st3" d="M-109.58-91.37c0.27,0.05,0.54,0.11,0.8,0.16C-109.05-91.26-109.31-91.32-109.58-91.37"/>
<path class="st3" d="M-113.02-91.96c0.27,0.04,0.53,0.08,0.8,0.12C-112.49-91.88-112.76-91.92-113.02-91.96"/>
<path class="st3" d="M-125.96-92.69c0.2-0.01,0.39-0.02,0.59-0.02C-125.56-92.7-125.76-92.69-125.96-92.69"/>
<path class="st3" d="M-114.76-92.2c0.27,0.03,0.53,0.07,0.8,0.1C-114.23-92.13-114.5-92.16-114.76-92.2"/>
<path class="st3" d="M-107.88-91.01c0.27,0.06,0.54,0.12,0.8,0.18C-107.34-90.89-107.61-90.95-107.88-91.01"/>
<path class="st3" d="M-116.51-92.39c0.26,0.03,0.52,0.05,0.78,0.08C-115.99-92.33-116.25-92.36-116.51-92.39"/>
<path class="st3" d="M-121.8-92.71c0.2,0.01,0.39,0.02,0.59,0.02C-121.41-92.69-121.61-92.7-121.8-92.71"/>
<path class="st3" d="M-158.7-77.49c-0.01,0-0.01,0.01-0.02,0.01C-158.71-77.49-158.71-77.49-158.7-77.49"/>
<path class="st3" d="M-118.27-92.54c0.25,0.02,0.51,0.04,0.76,0.06C-117.76-92.5-118.01-92.52-118.27-92.54"/>
<path class="st3" d="M-120.03-92.64c0.24,0.01,0.47,0.03,0.71,0.04C-119.56-92.62-119.79-92.63-120.03-92.64"/>
<path class="st3" d="M-147.36-83.15c-0.24,0.09-0.48,0.18-0.72,0.28C-147.84-82.97-147.6-83.06-147.36-83.15"/>
<path class="st3" d="M-103.82-53.97c-5.99,5.35-12.73,8.19-19.76,8.19c10.87,0,21.35-2.4,30.85-6.94l-1.66-4.99
	C-97.44-56.22-100.59-54.97-103.82-53.97"/>
<path class="st3" d="M-153.29-80.54c-0.21,0.1-0.42,0.2-0.62,0.31C-153.7-80.33-153.5-80.43-153.29-80.54"/>
<path class="st3" d="M-141.26-85.15c-0.25,0.07-0.5,0.14-0.75,0.21C-141.76-85.01-141.51-85.08-141.26-85.15"/>
<path class="st3" d="M-151.8-81.26c-0.22,0.11-0.45,0.21-0.67,0.32C-152.25-81.05-152.03-81.15-151.8-81.26"/>
<path class="st3" d="M-142.8-84.71c-0.25,0.07-0.5,0.15-0.74,0.23C-143.3-84.56-143.05-84.63-142.8-84.71"/>
<path class="st3" d="M-144.33-84.23c-0.25,0.08-0.49,0.16-0.74,0.24C-144.82-84.06-144.58-84.15-144.33-84.23"/>
<path class="st3" d="M-145.85-83.71c-0.24,0.09-0.49,0.17-0.73,0.26C-146.34-83.54-146.09-83.62-145.85-83.71"/>
<path class="st3" d="M-148.85-82.56c-0.24,0.1-0.47,0.19-0.71,0.29C-149.32-82.37-149.09-82.46-148.85-82.56"/>
<path class="st3" d="M-150.33-81.93c-0.23,0.1-0.46,0.2-0.69,0.31C-150.8-81.73-150.56-81.83-150.33-81.93"/>
<path class="st3" d="M-155.86-85.09L-155.86-85.09c0.06-0.03,0.13-0.06,0.19-0.09C-155.73-85.15-155.8-85.12-155.86-85.09"/>
<path class="st3" d="M-169.3-69.25c-0.62,0.59-1.24,1.2-1.84,1.82l-1.83,1.88c13.37,12.77,30.81,19.78,49.4,19.78
	c-7.04,0-13.77-2.84-19.76-8.19C-152.97-56.96-161.82-62.13-169.3-69.25"/>
<path class="st3" d="M-151.61-87.07c0.25-0.11,0.5-0.21,0.75-0.31C-151.11-87.27-151.36-87.17-151.61-87.07"/>
<path class="st3" d="M-154.76-85.64c0.23-0.11,0.46-0.22,0.69-0.33C-154.3-85.86-154.53-85.75-154.76-85.64"/>
<path class="st3" d="M-153.19-86.37c0.24-0.11,0.48-0.21,0.73-0.32C-152.71-86.59-152.95-86.48-153.19-86.37"/>
<path class="st3" d="M-138.14-85.93c-0.25,0.06-0.5,0.11-0.75,0.17C-138.64-85.81-138.39-85.87-138.14-85.93"/>
<path class="st3" d="M-139.7-85.56c-0.25,0.06-0.5,0.12-0.75,0.19C-140.2-85.43-139.95-85.49-139.7-85.56"/>
<path class="st3" d="M-83.42-80.44c0.22,0.15,0.43,0.3,0.65,0.45C-82.99-80.14-83.21-80.29-83.42-80.44"/>
<path class="st3" d="M-97.92-88.02c0.25,0.1,0.51,0.19,0.76,0.29C-97.41-87.82-97.66-87.92-97.92-88.02"/>
<path class="st3" d="M-80.59-78.4c0.22,0.16,0.43,0.33,0.64,0.49C-80.16-78.07-80.37-78.24-80.59-78.4"/>
<path class="st3" d="M-91.31-85.09L-91.31-85.09c-0.06-0.03-0.13-0.06-0.19-0.09C-91.43-85.15-91.37-85.12-91.31-85.09"/>
<path class="st3" d="M-99.55-88.62c0.26,0.09,0.52,0.18,0.77,0.28C-99.03-88.44-99.29-88.53-99.55-88.62"/>
<path class="st3" d="M-79.2-77.32c0.21,0.17,0.42,0.34,0.63,0.51C-78.77-76.98-78.98-77.16-79.2-77.32"/>
<path class="st3" d="M-93.26-80.23c-0.21-0.11-0.41-0.21-0.62-0.31C-93.67-80.43-93.46-80.33-93.26-80.23"/>
<path class="st3" d="M-94.69-80.94c-0.22-0.11-0.45-0.21-0.67-0.32C-95.14-81.15-94.92-81.05-94.69-80.94"/>
<path class="st3" d="M-96.14-81.62c-0.23-0.1-0.46-0.2-0.69-0.31C-96.6-81.83-96.37-81.73-96.14-81.62"/>
<path class="st3" d="M-96.31-87.38c0.25,0.1,0.5,0.2,0.75,0.31C-95.81-87.17-96.06-87.27-96.31-87.38"/>
<path class="st3" d="M-93.1-85.96c0.23,0.11,0.46,0.22,0.69,0.33C-92.64-85.75-92.87-85.86-93.1-85.96"/>
<path class="st3" d="M-86.35-82.32c0.21,0.13,0.41,0.26,0.62,0.39C-85.94-82.07-86.14-82.2-86.35-82.32"/>
<path class="st3" d="M-81.99-79.44c0.22,0.16,0.43,0.31,0.65,0.47C-81.56-79.12-81.78-79.28-81.99-79.44"/>
<path class="st3" d="M-81.19-72.22c0.2,0.17,0.4,0.34,0.6,0.51C-80.79-71.89-80.99-72.05-81.19-72.22"/>
<path class="st3" d="M-79.95-71.16c0.2,0.17,0.39,0.35,0.59,0.52C-79.56-70.81-79.75-70.99-79.95-71.16"/>
<path class="st3" d="M-82.46-73.25c0.2,0.16,0.41,0.33,0.61,0.49C-82.05-72.92-82.25-73.09-82.46-73.25"/>
<path class="st3" d="M-78.73-70.06c0.19,0.18,0.38,0.35,0.57,0.53C-78.35-69.71-78.54-69.89-78.73-70.06"/>
<path class="st3" d="M-88.45-77.48c-0.01,0-0.01-0.01-0.02-0.01C-88.46-77.49-88.45-77.49-88.45-77.48"/>
<path class="st3" d="M-83.74-74.24c0.21,0.16,0.41,0.32,0.62,0.47C-83.33-73.93-83.54-74.09-83.74-74.24"/>
<path class="st3" d="M-70.51-69.26l-0.03-0.04c-0.57,0.63-1.15,1.25-1.74,1.86L-70.51-69.26z"/>
<path class="st3" d="M-75.17-73.88c0.2,0.18,0.4,0.37,0.6,0.56C-74.77-73.51-74.97-73.7-75.17-73.88"/>
<path class="st3" d="M-76.49-75.07c0.2,0.18,0.41,0.36,0.61,0.54C-76.08-74.7-76.29-74.89-76.49-75.07"/>
<path class="st3" d="M-85.05-75.2c0.21,0.15,0.42,0.3,0.63,0.46C-84.63-74.9-84.84-75.05-85.05-75.2"/>
<path class="st3" d="M-86.37-76.13c0.21,0.14,0.42,0.29,0.63,0.44C-85.95-75.84-86.16-75.99-86.37-76.13"/>
<path class="st3" d="M-87.72-77.02c0.21,0.14,0.42,0.28,0.64,0.42C-87.29-76.74-87.5-76.88-87.72-77.02"/>
<path class="st3" d="M-169.3-69.25C-169.31-69.25-169.31-69.25-169.3-69.25c0.09-0.1,0.19-0.18,0.29-0.28
	c0.19-0.18,0.38-0.36,0.57-0.53c0.21-0.19,0.42-0.39,0.64-0.58c0.19-0.17,0.39-0.35,0.59-0.52c0.21-0.19,0.43-0.37,0.65-0.56
	c0.2-0.17,0.4-0.34,0.6-0.51c0.22-0.18,0.44-0.36,0.66-0.54c0.2-0.16,0.4-0.33,0.61-0.49c0.22-0.18,0.44-0.35,0.67-0.52
	c0.21-0.16,0.41-0.32,0.62-0.47c0.23-0.17,0.45-0.34,0.68-0.5c0.21-0.15,0.42-0.31,0.63-0.46c0.23-0.16,0.46-0.33,0.69-0.49
	c0.21-0.15,0.42-0.29,0.63-0.44c0.24-0.16,0.47-0.31,0.71-0.47c0.21-0.14,0.42-0.28,0.64-0.42c0.24-0.16,0.49-0.31,0.73-0.46
	c0.01,0,0.01-0.01,0.02-0.01c-0.64-1.63-1.24-3.31-1.8-5.02c-0.11,0.06-0.21,0.12-0.32,0.19c-0.21,0.13-0.41,0.26-0.62,0.39
	c-0.29,0.18-0.57,0.36-0.86,0.54c-0.21,0.14-0.43,0.28-0.64,0.42c-0.27,0.18-0.54,0.36-0.81,0.54c-0.22,0.15-0.43,0.3-0.65,0.45
	c-0.26,0.18-0.52,0.37-0.79,0.55c-0.22,0.16-0.43,0.31-0.65,0.47c-0.25,0.19-0.51,0.37-0.76,0.56c-0.22,0.16-0.43,0.33-0.64,0.49
	c-0.25,0.19-0.5,0.38-0.74,0.58c-0.21,0.17-0.42,0.34-0.63,0.51c-0.24,0.2-0.49,0.4-0.73,0.6c-0.21,0.17-0.42,0.35-0.63,0.53
	c-0.24,0.2-0.48,0.41-0.72,0.62c-0.21,0.18-0.41,0.36-0.61,0.54c-0.24,0.21-0.47,0.43-0.71,0.64c-0.2,0.18-0.4,0.37-0.6,0.56
	c-0.78,0.73-1.54,1.48-2.29,2.25l-1.74,1.78c0.57,0.63,1.14,1.25,1.74,1.86c0.62,0.64,1.26,1.27,1.91,1.88l1.83-1.88
	C-170.55-68.06-169.93-68.66-169.3-69.25"/>
<path class="st3" d="M-160.5-82.51c0.22-0.13,0.43-0.26,0.65-0.39c0.17-0.1,0.35-0.21,0.52-0.31c0.5-0.29,1-0.57,1.5-0.84
	c0.16-0.09,0.32-0.17,0.48-0.26c0.35-0.19,0.7-0.37,1.05-0.56c0.15-0.08,0.3-0.15,0.44-0.22c-3.07-9.77-4.71-20.81-4.71-32.31
	c0-7.89,0.77-15.57,2.25-22.77c-1.6-0.89-3.17-1.85-4.71-2.86c-1.8,8.07-2.76,16.73-2.76,25.63
	C-165.79-104.98-163.95-93.05-160.5-82.51"/>
<path class="st3" d="M-96.12-62.86l-2.12-6.37C-105.18-57.47-114.16-51-123.58-51c6.81,0,13.45-1.02,19.76-2.97
	C-101.08-56.42-98.5-59.39-96.12-62.86"/>
<path class="st3" d="M-149.32-164.89c6.99-12.19,16.14-18.9,25.74-18.9c9.6,0,18.74,6.71,25.74,18.9
	c7.26,12.64,11.25,29.51,11.25,47.49c0,3.14-0.13,6.25-0.37,9.31c-0.09,1.19,0.64,2.29,1.78,2.66c1.6,0.53,3.29-0.57,3.43-2.25
	c0.25-3.19,0.39-6.44,0.39-9.72c0-18.88-4.24-36.67-11.94-50.09c-7.96-13.88-18.71-21.52-30.26-21.52
	c-11.55,0-22.3,7.64-30.26,21.52c-3.25,5.66-5.87,12.11-7.83,19.08c1.49,1.05,3.03,2.03,4.6,2.95
	C-155.2-152.6-152.6-159.18-149.32-164.89"/>
<path class="st3" d="M-149.32-69.9c-1.81-3.16-3.42-6.58-4.81-10.21c-0.3,0.15-0.59,0.31-0.88,0.47c-0.25,0.13-0.49,0.27-0.73,0.4
	c-0.32,0.18-0.64,0.35-0.95,0.54c-0.2,0.12-0.4,0.24-0.6,0.36c-0.26,0.15-0.52,0.31-0.78,0.46c-0.21,0.13-0.41,0.26-0.62,0.39
	c1.42,3.61,3.04,7.02,4.86,10.19c3.11,5.43,6.65,9.89,10.5,13.33c6.31,1.96,12.95,2.97,19.76,2.97
	C-133.19-51-142.33-57.71-149.32-69.9"/>
<path class="st3" d="M-155.75-79.24c-0.32,0.18-0.64,0.35-0.95,0.54C-156.39-78.88-156.07-79.06-155.75-79.24"/>
<path class="st3" d="M-157.83-84.05c-0.5,0.27-1,0.56-1.5,0.84C-158.84-83.5-158.34-83.78-157.83-84.05"/>
<path class="st3" d="M-158.33-140.16c0.37-1.8,0.79-3.56,1.24-5.3c-1.57-0.92-3.1-1.91-4.6-2.95c-0.5,1.76-0.94,3.56-1.35,5.39
	C-161.5-142.01-159.93-141.05-158.33-140.16"/>
<path class="st3" d="M-160.5-82.51L-160.5-82.51c0.22-0.13,0.43-0.26,0.65-0.39C-160.07-82.77-160.29-82.64-160.5-82.51"/>
<path class="st3" d="M-157.31-78.34c-0.26,0.15-0.52,0.31-0.78,0.46C-157.83-78.04-157.57-78.19-157.31-78.34"/>
<path class="st3" d="M-156.3-84.86c-0.35,0.18-0.7,0.37-1.05,0.56C-157-84.5-156.66-84.68-156.3-84.86"/>
<path class="st3" d="M-155.02-79.64c0.29-0.16,0.59-0.31,0.88-0.47v0C-154.43-79.95-154.73-79.8-155.02-79.64"/>
<path class="st3" d="M-92.15-79.64c-0.29-0.16-0.59-0.32-0.88-0.47v0C-92.74-79.95-92.44-79.8-92.15-79.64"/>
<path class="st3" d="M-90.86-84.86c0.35,0.18,0.7,0.37,1.05,0.56C-90.16-84.5-90.51-84.68-90.86-84.86"/>
<path class="st3" d="M-89.33-84.05c0.5,0.27,1,0.56,1.5,0.84C-88.33-83.5-88.83-83.78-89.33-84.05"/>
<path class="st3" d="M-86.66-82.51c-0.22-0.13-0.43-0.26-0.65-0.39C-87.1-82.77-86.88-82.64-86.66-82.51L-86.66-82.51z"/>
<path class="st3" d="M-91.42-79.24c0.32,0.18,0.64,0.35,0.95,0.54C-90.78-78.88-91.1-79.06-91.42-79.24"/>
<path class="st3" d="M-89.86-78.34c0.26,0.15,0.52,0.31,0.78,0.46C-89.34-78.04-89.6-78.19-89.86-78.34"/>
<path class="st3" d="M-157.35-84.31c-0.16,0.09-0.32,0.17-0.48,0.26C-157.68-84.14-157.51-84.22-157.35-84.31"/>
<path class="st3" d="M-155.02-79.64c-0.25,0.13-0.49,0.27-0.73,0.4C-155.51-79.37-155.27-79.51-155.02-79.64"/>
<path class="st3" d="M-156.71-78.7c-0.2,0.12-0.4,0.24-0.6,0.36C-157.11-78.46-156.91-78.58-156.71-78.7"/>
<path class="st3" d="M-156.3-84.86c0.15-0.08,0.3-0.15,0.44-0.22v0C-156.01-85.01-156.16-84.94-156.3-84.86"/>
<path class="st3" d="M-159.33-83.21c-0.18,0.1-0.35,0.21-0.52,0.31C-159.68-83-159.51-83.11-159.33-83.21"/>
<path class="st3" d="M-123.58-51c-6.81,0-13.45-1.02-19.76-2.97c5.99,5.35,12.73,8.19,19.76,8.19c7.04,0,13.77-2.84,19.76-8.19
	C-110.13-52.02-116.77-51-123.58-51"/>
<path class="st3" d="M-158.09-77.88c-0.21,0.13-0.41,0.26-0.62,0.39C-158.5-77.62-158.29-77.75-158.09-77.88"/>
<path class="st3" d="M-88.47-77.49L-88.47-77.49c-0.2-0.13-0.41-0.26-0.62-0.39C-88.88-77.75-88.67-77.62-88.47-77.49"/>
<path class="st3" d="M-90.46-78.7c0.2,0.12,0.4,0.24,0.6,0.36C-90.06-78.46-90.26-78.58-90.46-78.7"/>
<path class="st3" d="M-87.84-83.21c0.18,0.1,0.35,0.21,0.52,0.31C-87.49-83-87.66-83.11-87.84-83.21"/>
<path class="st3" d="M-90.86-84.86c-0.15-0.08-0.3-0.15-0.44-0.22v0C-91.16-85.01-91.01-84.94-90.86-84.86"/>
<path class="st3" d="M-89.82-84.31c0.16,0.09,0.32,0.17,0.48,0.26C-89.49-84.14-89.66-84.22-89.82-84.31"/>
<path class="st3" d="M-92.15-79.64c0.25,0.13,0.49,0.27,0.73,0.4C-91.66-79.37-91.9-79.51-92.15-79.64"/>
<path class="st3" d="M-157.31-78.34c0.2-0.12,0.4-0.24,0.6-0.36c0.32-0.18,0.64-0.36,0.95-0.54c0.24-0.14,0.49-0.27,0.73-0.4
	c0.29-0.16,0.59-0.32,0.88-0.47c-0.62-1.62-1.19-3.28-1.72-4.98c-0.15,0.07-0.3,0.15-0.44,0.22c-0.35,0.18-0.7,0.37-1.05,0.56
	c-0.16,0.09-0.32,0.17-0.48,0.26c-0.5,0.27-1,0.56-1.5,0.84c-0.18,0.1-0.35,0.21-0.52,0.31c-0.22,0.13-0.43,0.26-0.65,0.39
	c0.56,1.71,1.16,3.39,1.8,5.02c0.21-0.13,0.41-0.26,0.62-0.39C-157.83-78.04-157.57-78.19-157.31-78.34"/>
<rect x="-126.19" y="-186.39" class="st3" width="5.22" height="138.01"/>
<path class="st3" d="M-163.18-114.78h-29.4c-1.44,0-2.61-1.17-2.61-2.61s1.17-2.61,2.61-2.61h29.4c1.44,0,2.61,1.17,2.61,2.61
	S-161.74-114.78-163.18-114.78"/>
<path class="st3" d="M-63.59-114.78h-98.17c-1.44,0-2.61-1.17-2.61-2.61s1.17-2.61,2.61-2.61h98.17c1.44,0,2.61,1.17,2.61,2.61
	S-62.15-114.78-63.59-114.78"/>
<path class="st3" d="M-110.54-88.23c0-1.46,1.09-2.65,2.5-2.82c-0.25-0.05-0.49-0.11-0.74-0.16c-0.27-0.06-0.54-0.11-0.8-0.16
	c-0.3-0.06-0.61-0.12-0.91-0.17c-0.27-0.05-0.53-0.1-0.8-0.14c-0.31-0.05-0.62-0.1-0.93-0.15c-0.27-0.04-0.53-0.09-0.8-0.12
	c-0.31-0.05-0.63-0.09-0.94-0.13c-0.27-0.04-0.53-0.07-0.8-0.1c-0.32-0.04-0.64-0.07-0.96-0.11c-0.26-0.03-0.52-0.06-0.78-0.08
	c-0.33-0.03-0.67-0.06-1-0.09c-0.25-0.02-0.5-0.05-0.76-0.06c-0.35-0.03-0.7-0.05-1.05-0.07c-0.24-0.01-0.47-0.03-0.71-0.04
	c-0.39-0.02-0.79-0.03-1.18-0.04c-0.2-0.01-0.39-0.02-0.59-0.02c-0.59-0.01-1.19-0.02-1.78-0.02c-0.59,0-1.19,0.01-1.78,0.02
	c-0.2,0-0.39,0.01-0.59,0.02c-0.39,0.01-0.79,0.03-1.18,0.04c-0.24,0.01-0.47,0.03-0.71,0.04c-0.35,0.02-0.7,0.04-1.05,0.07
	c-0.25,0.02-0.51,0.04-0.76,0.06c-0.33,0.03-0.67,0.05-1,0.09c-0.26,0.03-0.52,0.05-0.78,0.08c-0.32,0.03-0.64,0.07-0.96,0.11
	c-0.27,0.03-0.53,0.07-0.8,0.1c-0.31,0.04-0.63,0.08-0.94,0.13c-0.27,0.04-0.53,0.08-0.8,0.12c-0.31,0.05-0.62,0.1-0.93,0.15
	c-0.27,0.05-0.53,0.1-0.8,0.14c-0.31,0.06-0.61,0.11-0.91,0.17c-0.27,0.05-0.54,0.11-0.8,0.16c-0.3,0.06-0.6,0.13-0.9,0.19
	c-0.27,0.06-0.54,0.12-0.8,0.18c-0.3,0.07-0.59,0.14-0.89,0.21c-0.27,0.07-0.53,0.13-0.8,0.2c-0.29,0.08-0.59,0.16-0.88,0.24
	c-0.26,0.07-0.53,0.15-0.79,0.22c-0.29,0.08-0.58,0.17-0.87,0.26c-0.26,0.08-0.53,0.16-0.79,0.24c-0.29,0.09-0.58,0.18-0.86,0.28
	c-0.26,0.09-0.52,0.17-0.78,0.26c-0.29,0.1-0.57,0.2-0.86,0.3c-0.26,0.09-0.52,0.18-0.77,0.28c-0.29,0.1-0.57,0.21-0.85,0.32
	c-0.25,0.1-0.51,0.19-0.76,0.29c-0.28,0.11-0.57,0.23-0.85,0.35c-0.25,0.1-0.5,0.2-0.75,0.31c-0.29,0.12-0.57,0.25-0.86,0.37
	c-0.24,0.11-0.49,0.21-0.73,0.32c-0.29,0.13-0.58,0.27-0.87,0.41c-0.23,0.11-0.46,0.22-0.69,0.33c-0.31,0.15-0.61,0.3-0.91,0.46
	c-0.06,0.03-0.13,0.06-0.19,0.09c0.53,1.7,1.1,3.36,1.72,4.98c0.08-0.04,0.15-0.08,0.23-0.12c0.21-0.11,0.41-0.21,0.62-0.31
	c0.27-0.14,0.54-0.27,0.81-0.4c0.22-0.11,0.45-0.21,0.67-0.32c0.26-0.12,0.52-0.24,0.78-0.36c0.23-0.1,0.46-0.2,0.69-0.31
	c0.26-0.11,0.51-0.23,0.77-0.34c0.24-0.1,0.47-0.2,0.71-0.29c0.26-0.11,0.51-0.21,0.77-0.31c0.24-0.09,0.48-0.19,0.72-0.28
	c0.26-0.1,0.52-0.2,0.78-0.29c0.24-0.09,0.49-0.18,0.73-0.26c0.26-0.09,0.52-0.18,0.78-0.27c0.25-0.08,0.49-0.16,0.74-0.24
	c0.26-0.09,0.52-0.17,0.79-0.25c0.25-0.08,0.5-0.15,0.74-0.23c0.26-0.08,0.53-0.16,0.79-0.23c0.25-0.07,0.5-0.14,0.75-0.21
	c0.27-0.07,0.54-0.15,0.81-0.22c0.25-0.07,0.5-0.13,0.75-0.19c0.27-0.07,0.54-0.13,0.82-0.2c0.25-0.06,0.5-0.12,0.75-0.17
	c0.27-0.06,0.55-0.12,0.83-0.18c0.25-0.05,0.5-0.1,0.75-0.15c0.28-0.05,0.56-0.11,0.84-0.16c0.25-0.05,0.5-0.09,0.75-0.13
	c0.28-0.05,0.57-0.09,0.86-0.14c0.25-0.04,0.5-0.08,0.74-0.12c0.29-0.04,0.58-0.08,0.87-0.12c0.25-0.03,0.49-0.07,0.74-0.1
	c0.3-0.04,0.6-0.07,0.89-0.1c0.24-0.03,0.48-0.05,0.73-0.08c0.31-0.03,0.61-0.05,0.92-0.08c0.24-0.02,0.47-0.04,0.71-0.06
	c0.32-0.02,0.65-0.04,0.97-0.06c0.22-0.01,0.44-0.03,0.66-0.04c0.36-0.02,0.73-0.03,1.09-0.04c0.18-0.01,0.37-0.02,0.55-0.02
	c0.55-0.01,1.1-0.02,1.65-0.02c0.55,0,1.1,0.01,1.65,0.02c3.43,0.08,6.85,0.43,10.22,1.03c0.74,0.13,1.48,0.28,2.21,0.44
	C-110.13-86.54-110.54-87.34-110.54-88.23"/>
<path class="st3" d="M-104.85-88.23c0-0.99-0.51-1.87-1.28-2.38c-0.02,0-0.03-0.01-0.05-0.01c-0.3-0.07-0.59-0.15-0.89-0.21
	c-0.27-0.06-0.53-0.12-0.8-0.18c-0.05-0.01-0.11-0.02-0.16-0.03c-1.41,0.17-2.5,1.37-2.5,2.82c0,0.89,0.41,1.68,1.05,2.2
	c0.67,0.14,1.34,0.3,2,0.46c0.14,0.03,0.28,0.07,0.42,0.11C-105.8-85.74-104.85-86.87-104.85-88.23"/>
<polygon class="st6" points="822.84,-76.5 837.19,-53.03 842.08,-61.83 845.45,-65.76 858.7,-68.35 857.4,-71.94 844.74,-88.56 
	837.67,-79.86 "/>
<polygon class="st6" points="771.6,-86.37 765.15,-71.61 775.9,-69.33 781.12,-52.38 800.03,-75.2 795.11,-76.83 782.59,-76.83 
	780.14,-79.76 772.97,-88.56 "/>
<path class="st6" d="M811.46-167.14c-18.52,0-33.58,15.07-33.58,33.58c0,18.52,15.07,33.58,33.58,33.58
	c18.52,0,33.58-15.07,33.58-33.58C845.04-152.07,829.98-167.14,811.46-167.14"/>
<path class="st3" d="M844.58-85.15L856.1-70l-12,2.26l-1.9,0.36l-0.86,1.74l-5.39,10.96l-15.07-19.82l0.86-0.41h9.61h0.02h0
	c3.21,0,6.2-1.44,8.19-3.95L844.58-85.15 M845.33-90.57l-2.25,1.08l-6.55,8.21c-1.25,1.57-3.15,2.49-5.15,2.49h-0.02h-10.5
	l-5.94,2.86l18.5,24.33c0.63,0.82,1.6,1.31,2.63,1.31c0.11,0,0.21-0.01,0.32-0.02c1.14-0.11,2.14-0.8,2.65-1.83l5.8-11.79
	l12.83-2.42c1.1-0.21,2.07-0.91,2.5-1.94c0.49-1.16,0.29-2.41-0.4-3.33L845.33-90.57z"/>
<path class="st3" d="M772.47-85.15l5.01,6.29c2,2.51,4.98,3.96,8.21,3.96h9.62l0.86,0.41L781.1-54.68l-5.39-10.96l-0.86-1.74
	l-1.9-0.36l-12-2.26L772.47-85.15 M771.72-90.57L757.3-71.62c-1.25,1.65-0.73,4.09,1.27,5.02c0.25,0.12,0.52,0.19,0.78,0.24
	l12.88,2.43l5.76,11.71c0.48,0.98,1.38,1.71,2.46,1.88c0.18,0.03,0.37,0.05,0.55,0.05c1.03,0,2.01-0.48,2.63-1.31l18.5-24.33
	l-5.93-2.86h-10.5h-0.02c-2.01,0-3.91-0.92-5.15-2.49l-6.55-8.21L771.72-90.57z"/>
<path class="st7" d="M837.14-175.96l-3.9-4.88c-0.61-0.77-1.54-1.21-2.52-1.21"/>
<path class="st7" d="M859.13-148.38l-5.03-6.3l-2.44-10.67c-0.22-0.95-0.86-1.76-1.74-2.18l-5.3-2.55"/>
<line class="st7" x1="860.04" y1="-136.8" x2="861.55" y2="-143.4"/>
<path class="st7" d="M830.73-182.05h-10.95l-9.86-4.75c-0.88-0.42-1.91-0.42-2.79,0l-9.86,4.75h-10.95c-0.98,0-1.91,0.45-2.52,1.21
	l-6.82,8.56l-9.86,4.75c-0.88,0.43-1.52,1.23-1.74,2.18l-2.44,10.67l-6.82,8.56c-0.61,0.76-0.84,1.77-0.62,2.72l2.44,10.67
	l-2.44,10.67c-0.22,0.96,0.01,1.96,0.62,2.72l6.82,8.56l2.44,10.67c0.22,0.96,0.86,1.76,1.74,2.18l9.86,4.75l6.82,8.56
	c0.61,0.77,1.54,1.21,2.52,1.21h10.95l9.86,4.75c0.88,0.42,1.91,0.42,2.79,0l9.86-4.75h10.95c0.98,0,1.91-0.45,2.52-1.21l6.83-8.56
	l9.86-4.75c0.88-0.42,1.52-1.23,1.74-2.18l2.44-10.67l6.82-8.56c0.61-0.77,0.84-1.77,0.62-2.72l-1.61-7.04"/>
<path class="st7" d="M840.35-151.32c-0.66-1.12-1.39-2.22-2.18-3.28"/>
<path class="st7" d="M831.04-161.86c-12.76-9.8-30.99-10.42-44.53-0.36c-16.34,12.14-19.76,35.32-7.62,51.66
	c12.14,16.35,35.32,19.76,51.67,7.62c13.91-10.34,18.46-28.66,12.02-43.97"/>
<polygon class="st0" points="799,-128.87 789.34,-138.29 802.69,-140.23 808.66,-152.33 814.64,-140.23 827.99,-138.29 
	818.33,-128.87 820.61,-115.57 808.66,-121.85 796.72,-115.57 "/>
<path class="st3" d="M808.66-147.95l3.78,7.66l0.9,1.83l2.02,0.29l8.46,1.23l-6.12,5.97l-1.46,1.42l0.35,2.01l1.44,8.42l-7.56-3.98
	l-1.8-0.95l-1.8,0.95l-7.57,3.98l1.44-8.42l0.35-2.01l-1.46-1.42l-6.12-5.97l8.46-1.23l2.02-0.29l0.9-1.83L808.66-147.95z
	 M808.66-156.71L801.4-142l-16.23,2.36l11.75,11.45l-2.77,16.17l14.52-7.63l14.52,7.63l-2.77-16.17l11.75-11.45L815.92-142
	L808.66-156.71z"/>
<g>
	<path class="st6" d="M350.15-123.02c-0.69,0.8-1.32,1.61-1.9,2.44c-0.93,3.05-1.27,6.21-0.81,9.33c3.61,0.22,7.23-0.6,10.55-2.28
		c4.39-4.84,6.95-11.46,7.21-18.64C360.1-131.43,354.5-128.06,350.15-123.02"/>
	<path class="st3" d="M356.45-113.85c-0.32,0.35-0.65,0.7-0.99,1.03c-3.38,3.27-7.59,5.17-11.76,5.35
		c-0.18-4.13,1.28-8.56,4.14-12.61c0.52-0.73,1.08-1.46,1.68-2.16c3.85-4.46,8.8-7.44,13.3-8.09c-0.02,0.52-0.05,1.05-0.1,1.56
		c-0.09,1.01,0.69,1.9,1.7,1.95c0.97,0.05,1.82-0.66,1.9-1.62c0.12-1.28,0.16-2.58,0.12-3.89l-0.05-1.76h-1.76
		c-3.2,0-6.65,1.04-9.94,2.91c-2.85,1.62-5.58,3.85-7.92,6.57c-4.51,5.22-6.88,11.32-6.71,17.04c0.02,0.73,0.08,1.45,0.18,2.16
		l0.22,1.46l1.47,0.09c0.37,0.02,0.74,0.03,1.12,0.03c3.8,0,7.64-1.18,11.06-3.34c1.36-0.86,2.66-1.87,3.87-3.04
		c1.48-1.44,2.79-3.06,3.91-4.82c0.54-0.85,0.3-1.97-0.55-2.51c-0.85-0.54-1.97-0.29-2.51,0.56
		C358.12-115.86,357.33-114.81,356.45-113.85"/>
	<path class="st3" d="M363.7-124.38L363.7-124.38c-0.92-0.17-1.81,0.39-2.06,1.28c-0.21,0.75-0.45,1.57-0.7,2.31
		c-0.29,0.9,0.16,1.87,1.04,2.22c0.97,0.38,2.06-0.14,2.36-1.14c0.2-0.64,0.39-1.27,0.49-1.58c0.09-0.27,0.18-0.54,0.26-0.82
		C365.41-123.12,364.75-124.19,363.7-124.38"/>
	<path class="st6" d="M305.34-150.58c-1.07,1.54-24.59,43.88-24.59,43.88l11.31,27.53l1.37,3.33l-2.77,7.04l-3.19,8.12l3.58,0.15
		l3.68,0.16l30.66,1.31l-6.5-15.71L332-100.54l1.66-3.27l1.48-2.9C335.13-106.71,307.77-147.09,305.34-150.58"/>
	<path class="st6" d="M319.1-14.52c-0.18-0.09-0.36-0.19-0.54-0.29C318.74-14.71,318.92-14.61,319.1-14.52"/>
	<path class="st6" d="M305.61-29.32c-0.09-0.15-0.18-0.31-0.27-0.47C305.43-29.63,305.52-29.48,305.61-29.32"/>
	<path class="st6" d="M317.65-15.37c-0.18-0.11-0.35-0.23-0.52-0.35C317.3-15.6,317.47-15.48,317.65-15.37"/>
	<path class="st6" d="M305.08-30.24c-0.09-0.15-0.17-0.31-0.26-0.46C304.91-30.55,305-30.4,305.08-30.24"/>
	<path class="st6" d="M306.89-27.2c-0.17-0.27-0.34-0.54-0.5-0.81C306.55-27.73,306.72-27.46,306.89-27.2"/>
	<path class="st6" d="M306.16-28.38c-0.1-0.17-0.2-0.34-0.3-0.51C305.96-28.72,306.06-28.55,306.16-28.38"/>
	<path class="st6" d="M323.68-12.97c-0.17-0.03-0.34-0.05-0.51-0.09C323.34-13.03,323.51-13,323.68-12.97"/>
	<path class="st6" d="M324.42-12.89c-0.17-0.01-0.33-0.03-0.5-0.05C324.09-12.92,324.25-12.9,324.42-12.89"/>
	<path class="st6" d="M312.63-19.64c-0.14-0.15-0.28-0.3-0.42-0.45C312.36-19.93,312.49-19.78,312.63-19.64"/>
	<path class="st6" d="M303.87-32.5c-0.07-0.14-0.14-0.28-0.22-0.42C303.72-32.78,303.79-32.64,303.87-32.5"/>
	<path class="st6" d="M303.38-33.46c-0.07-0.13-0.13-0.27-0.2-0.4C303.25-33.72,303.31-33.59,303.38-33.46"/>
	<path class="st6" d="M325.35-12.84c-0.24,0-0.47-0.01-0.71-0.03C324.88-12.85,325.11-12.84,325.35-12.84"/>
	<path class="st6" d="M304.55-31.21c-0.14-0.26-0.28-0.52-0.42-0.78C304.27-31.73,304.41-31.47,304.55-31.21"/>
	<path class="st6" d="M315.43-17c-0.15-0.12-0.3-0.25-0.45-0.38C315.13-17.25,315.28-17.12,315.43-17"/>
	<path class="st6" d="M308.65-24.55c-0.14-0.19-0.27-0.38-0.4-0.58C308.38-24.93,308.52-24.74,308.65-24.55"/>
	<path class="st6" d="M314.13-18.15c-0.21-0.2-0.42-0.4-0.63-0.61C313.7-18.55,313.91-18.34,314.13-18.15"/>
	<path class="st6" d="M310.58-21.99c-0.13-0.16-0.26-0.32-0.38-0.48C310.33-22.31,310.45-22.15,310.58-21.99"/>
	<path class="st6" d="M321.34-13.55c-0.16-0.05-0.32-0.11-0.48-0.17C321.02-13.66,321.18-13.6,321.34-13.55"/>
	<path class="st6" d="M311.35-21.07c-0.18-0.22-0.37-0.43-0.55-0.66C310.98-21.5,311.17-21.28,311.35-21.07"/>
	<path class="st6" d="M309.97-22.77c-0.13-0.16-0.25-0.33-0.38-0.5C309.71-23.1,309.84-22.94,309.97-22.77"/>
	<path class="st6" d="M320.62-13.81c-0.17-0.07-0.34-0.14-0.51-0.22C320.28-13.96,320.45-13.88,320.62-13.81"/>
	<path class="st6" d="M309.37-23.55c-0.19-0.25-0.37-0.5-0.56-0.76C309-24.06,309.19-23.8,309.37-23.55"/>
	<path class="st6" d="M308.01-25.47c-0.11-0.16-0.22-0.33-0.33-0.49C307.79-25.8,307.9-25.64,308.01-25.47"/>
	<path class="st6" d="M314.77-17.56c-0.18-0.16-0.36-0.32-0.54-0.49C314.41-17.88,314.59-17.72,314.77-17.56"/>
	<path class="st6" d="M322.96-13.1c-0.23-0.05-0.47-0.1-0.7-0.16C322.5-13.2,322.73-13.15,322.96-13.1"/>
	<path class="st6" d="M322.17-13.29c-0.2-0.05-0.4-0.11-0.6-0.18C321.76-13.41,321.96-13.35,322.17-13.29"/>
	<path class="st6" d="M316.14-16.43c-0.16-0.12-0.32-0.25-0.49-0.38C315.82-16.68,315.98-16.56,316.14-16.43"/>
	<path class="st6" d="M307.44-26.34c-0.11-0.17-0.22-0.33-0.32-0.5C307.23-26.67,307.33-26.5,307.44-26.34"/>
	<path class="st6" d="M352.69-15.68c0.34,0.14,0.67,0.28,1.01,0.43c0.97,0.41,1.94,0.83,2.99,1.19c-1.05-0.36-2.03-0.77-2.99-1.19
		C353.36-15.39,353.03-15.54,352.69-15.68"/>
	<path class="st6" d="M298.29-45.77c-0.02-0.04-0.03-0.09-0.05-0.13C298.26-45.86,298.27-45.81,298.29-45.77"/>
	<path class="st6" d="M367.96-14.13c-0.13,0.05-0.25,0.1-0.38,0.15C367.71-14.02,367.84-14.07,367.96-14.13"/>
	<path class="st6" d="M297.98-46.71c0-0.02-0.01-0.03-0.01-0.05C297.97-46.74,297.97-46.73,297.98-46.71"/>
	<path class="st6" d="M319.93-14.11c-0.23-0.11-0.46-0.21-0.68-0.33C319.47-14.32,319.7-14.21,319.93-14.11"/>
	<path class="st6" d="M299.55-42.23c-0.02-0.06-0.05-0.13-0.07-0.19C299.5-42.36,299.52-42.3,299.55-42.23"/>
	<path class="st6" d="M316.98-15.82c-0.22-0.15-0.44-0.31-0.66-0.48C316.54-16.13,316.76-15.97,316.98-15.82"/>
	<path class="st6" d="M313.3-18.95c-0.15-0.15-0.29-0.3-0.44-0.45C313.01-19.24,313.15-19.1,313.3-18.95"/>
	<path class="st6" d="M296.92-50.21c-0.01-0.02-0.01-0.04-0.02-0.06C296.91-50.25,296.91-50.23,296.92-50.21"/>
	<path class="st6" d="M365.75-13.39c-0.32,0.08-0.65,0.15-0.98,0.2C365.1-13.25,365.42-13.31,365.75-13.39"/>
	<path class="st6" d="M356.69-14.06c1.74,0.6,3.68,1.04,6.07,1.04c0.52,0,1.04-0.04,1.55-0.1c-0.51,0.07-1.03,0.1-1.55,0.1
		C360.37-13.02,358.44-13.46,356.69-14.06"/>
	<path class="st6" d="M312-20.32c-0.18-0.21-0.37-0.41-0.55-0.63C311.64-20.73,311.82-20.52,312-20.32"/>
	<path class="st6" d="M300.93-38.76c-0.02-0.04-0.03-0.08-0.05-0.12C300.9-38.85,300.92-38.81,300.93-38.76"/>
	<path class="st6" d="M301.35-37.79c-0.04-0.1-0.09-0.2-0.13-0.3C301.27-37.99,301.31-37.89,301.35-37.79"/>
	<path class="st6" d="M299.91-41.28c-0.03-0.08-0.06-0.15-0.09-0.23C299.85-41.43,299.88-41.35,299.91-41.28"/>
	<path class="st6" d="M349.54-16.8c-0.56-0.16-1.15-0.29-1.77-0.4C348.39-17.09,348.97-16.96,349.54-16.8"/>
	<path class="st6" d="M347.77-17.2c-0.62-0.11-1.28-0.19-1.99-0.24C346.48-17.39,347.14-17.31,347.77-17.2"/>
	<path class="st6" d="M302.13-36.06c-0.02-0.05-0.04-0.09-0.06-0.14C302.09-36.15,302.11-36.1,302.13-36.06"/>
	<path class="st6" d="M341.64-17.13c-1.54,0.37-3.19,0.99-4.9,1.63C338.46-16.14,340.1-16.76,341.64-17.13"/>
	<path class="st6" d="M301.78-36.83c-0.05-0.11-0.09-0.21-0.14-0.32C301.68-37.05,301.73-36.94,301.78-36.83"/>
	<path class="st6" d="M300.21-40.52c0-0.01-0.01-0.02-0.01-0.02C300.21-40.53,300.21-40.52,300.21-40.52"/>
	<path class="st6" d="M351.67-16.09c-0.51-0.2-1.04-0.38-1.58-0.55C350.63-16.47,351.16-16.28,351.67-16.09"/>
	<path class="st6" d="M318.34-14.95c-0.15-0.09-0.31-0.18-0.46-0.28C318.03-15.13,318.18-15.04,318.34-14.95"/>
	<path class="st6" d="M352.69-15.68c-0.34-0.14-0.68-0.28-1.02-0.41C352.01-15.95,352.35-15.82,352.69-15.68"/>
	<path class="st6" d="M302.91-34.41c-0.06-0.12-0.11-0.24-0.17-0.36C302.79-34.65,302.85-34.53,302.91-34.41"/>
	<path class="st3" d="M379.02-76.4c-0.96-0.8-2.41-0.41-2.85,0.76c-0.28,0.75-0.55,1.56-0.78,2.33c-0.28,0.94,0.23,1.93,1.16,2.24
		c0.98,0.33,2.03-0.23,2.31-1.22c0.21-0.71,0.45-1.45,0.68-2.1C379.82-75.11,379.6-75.91,379.02-76.4"/>
	<path class="st3" d="M343.06-97.18c1.15,0,2.85-0.64,5.5-1.69l0.08-0.03c3.86-1.54,8.67-3.45,14.17-3.45
		c4.78,0,16.67,1.17,23.89,12.02c0.51,0.76,0.33,1.79-0.4,2.35l-0.01,0.01c-0.64,0.48-1.36,1.03-2.13,1.66
		c-1,0.82-2.89,2.36-4.7,4.71c-0.59,0.76-0.43,1.86,0.34,2.44l0.13,0.09c0.76,0.57,1.84,0.41,2.42-0.34c0,0,0.01-0.01,0.01-0.01
		c1.32-1.68,2.79-3.02,4.09-4.08c0.72-0.59,1.41-1.11,2.04-1.58l2.72-2.05c0.73-0.55,0.91-1.58,0.4-2.35l-1.12-1.68l-0.78-1.17
		c-8.2-12.31-21.55-13.64-26.94-13.64c-6.16,0-11.33,2.06-15.48,3.71l-0.08,0.03c-1.24,0.49-3.55,1.41-4.16,1.43
		c-1.19,0-3.98-1.03-6.22-1.85c-1.03-0.38-2.09-0.77-3.19-1.15l-1.66,3.27c1.23,0.41,2.43,0.85,3.59,1.28
		C338.49-98.19,341.23-97.18,343.06-97.18"/>
	<path class="st3" d="M389.23-50.3c-0.67-0.4-1.34-0.81-1.99-1.24c-0.78-0.51-1.53-1.07-2.24-1.66c-0.8-0.67-1.56-1.41-2.24-2.21
		c-0.76-0.88-1.43-1.85-1.99-2.87c-0.64-1.16-1.14-2.39-1.5-3.65c-0.43-1.49-0.67-3.02-0.76-4.56c0-0.05-0.01-0.09-0.01-0.14
		c-0.05-0.93-0.8-1.66-1.73-1.66h-0.15c-1,0-1.79,0.85-1.73,1.85c0.01,0.23,0.03,0.46,0.05,0.69c0.06,0.78,0.16,1.56,0.29,2.33
		c0.12,0.72,0.28,1.43,0.47,2.14c0.18,0.66,0.39,1.31,0.63,1.96c0.23,0.61,0.48,1.2,0.77,1.78c0.27,0.55,0.56,1.09,0.88,1.62
		c0.3,0.5,0.62,0.99,0.97,1.46c0.33,0.45,0.67,0.89,1.03,1.31c0.34,0.41,0.7,0.8,1.07,1.18c0.35,0.36,0.72,0.71,1.09,1.04
		c0.35,0.32,0.72,0.63,1.09,0.92c0.35,0.28,0.7,0.55,1.06,0.81c0.33,0.24,0.67,0.48,1.01,0.7c0.31,0.21,0.62,0.41,0.94,0.61
		c0.28,0.18,0.56,0.35,0.84,0.52c0.1,0.06,0.21,0.13,0.31,0.19c1.08,0.65,1.78,1.11,2.15,1.62c0.31,0.43,0.38,0.98,0.22,1.49
		c-0.98,3.15-6.41,16.56-14.44,24.69c-2.26,2.29-4.72,4.15-7.35,5.26c-0.13,0.05-0.25,0.1-0.38,0.15c-0.6,0.24-1.22,0.43-1.84,0.58
		c-0.32,0.08-0.65,0.15-0.98,0.2c-0.15,0.02-0.3,0.05-0.46,0.07c-0.51,0.07-1.03,0.1-1.55,0.1c-2.39,0-4.33-0.44-6.07-1.04
		c-1.05-0.36-2.02-0.77-2.99-1.19c-0.34-0.14-0.67-0.29-1.01-0.43c-0.34-0.14-0.68-0.28-1.02-0.41c-0.51-0.2-1.04-0.38-1.58-0.55
		c-0.18-0.06-0.37-0.11-0.55-0.16c-0.56-0.16-1.15-0.29-1.77-0.4c-0.62-0.11-1.28-0.19-1.99-0.24c-0.47-0.03-0.96-0.05-1.48-0.05
		c-0.84,0-1.73,0.14-2.65,0.36c-1.54,0.37-3.18,0.99-4.9,1.63c-0.42,0.16-0.84,0.32-1.27,0.47c-0.43,0.16-0.87,0.32-1.31,0.47
		c-0.22,0.08-0.45,0.15-0.67,0.23c-0.9,0.3-1.83,0.58-2.79,0.81c-1.67,0.41-3.42,0.68-5.23,0.68h-0.11h0
		c-0.24,0-0.47-0.01-0.71-0.03c-0.07,0-0.15-0.01-0.22-0.02c-0.17-0.01-0.33-0.03-0.5-0.05c-0.08-0.01-0.16-0.02-0.24-0.03
		c-0.17-0.03-0.34-0.05-0.51-0.09c-0.07-0.01-0.14-0.02-0.21-0.04c-0.23-0.05-0.47-0.1-0.7-0.16c-0.03-0.01-0.07-0.02-0.1-0.03
		c-0.2-0.06-0.4-0.11-0.6-0.18c-0.08-0.02-0.15-0.05-0.23-0.08c-0.16-0.06-0.32-0.11-0.48-0.17c-0.08-0.03-0.16-0.06-0.24-0.09
		c-0.17-0.07-0.34-0.14-0.51-0.22c-0.06-0.03-0.12-0.05-0.18-0.08c-0.23-0.11-0.46-0.22-0.68-0.33c-0.05-0.03-0.1-0.05-0.15-0.08
		c-0.18-0.09-0.36-0.19-0.54-0.29c-0.08-0.04-0.15-0.09-0.23-0.13c-0.16-0.09-0.31-0.19-0.46-0.28c-0.07-0.05-0.15-0.09-0.23-0.14
		c-0.18-0.11-0.35-0.23-0.52-0.35c-0.05-0.03-0.1-0.07-0.15-0.1c-0.22-0.15-0.44-0.31-0.66-0.48c-0.06-0.04-0.12-0.09-0.18-0.14
		c-0.16-0.13-0.32-0.25-0.49-0.38c-0.08-0.06-0.15-0.12-0.23-0.19c-0.15-0.12-0.3-0.25-0.45-0.38c-0.07-0.06-0.14-0.12-0.22-0.19
		c-0.18-0.16-0.36-0.32-0.54-0.49c-0.03-0.03-0.07-0.06-0.11-0.1c-0.21-0.2-0.42-0.4-0.63-0.61c-0.07-0.06-0.13-0.13-0.2-0.2
		c-0.15-0.15-0.29-0.3-0.44-0.45c-0.08-0.08-0.15-0.16-0.23-0.24c-0.14-0.15-0.28-0.3-0.42-0.45c-0.07-0.08-0.14-0.16-0.21-0.23
		c-0.18-0.21-0.37-0.41-0.55-0.63c-0.04-0.04-0.07-0.08-0.1-0.12c-0.18-0.22-0.37-0.43-0.55-0.66c-0.07-0.09-0.14-0.18-0.22-0.27
		c-0.13-0.16-0.26-0.32-0.38-0.48c-0.08-0.1-0.16-0.2-0.23-0.3c-0.13-0.16-0.25-0.33-0.38-0.5c-0.07-0.09-0.14-0.19-0.21-0.28
		c-0.19-0.25-0.37-0.5-0.56-0.76c-0.05-0.08-0.11-0.16-0.16-0.23c-0.14-0.19-0.27-0.38-0.4-0.58c-0.08-0.11-0.16-0.23-0.23-0.34
		c-0.11-0.16-0.22-0.33-0.33-0.49c-0.08-0.12-0.16-0.25-0.24-0.37c-0.11-0.17-0.22-0.33-0.32-0.5c-0.08-0.12-0.15-0.24-0.23-0.36
		c-0.17-0.27-0.34-0.54-0.5-0.81c-0.08-0.13-0.15-0.25-0.23-0.38c-0.1-0.17-0.2-0.34-0.3-0.51c-0.08-0.14-0.17-0.29-0.25-0.43
		c-0.09-0.15-0.18-0.31-0.27-0.47c-0.09-0.15-0.17-0.3-0.26-0.45c-0.09-0.15-0.17-0.31-0.26-0.46c-0.09-0.17-0.19-0.34-0.28-0.51
		c-0.14-0.26-0.28-0.52-0.41-0.78c-0.09-0.17-0.18-0.34-0.27-0.51c-0.07-0.14-0.14-0.28-0.22-0.42c-0.09-0.18-0.18-0.35-0.27-0.53
		c-0.07-0.13-0.13-0.27-0.2-0.4c-0.09-0.19-0.18-0.37-0.27-0.56c-0.06-0.12-0.11-0.24-0.17-0.36c-0.2-0.43-0.41-0.86-0.61-1.29
		c-0.02-0.05-0.04-0.09-0.06-0.14c-0.1-0.21-0.19-0.43-0.29-0.64c-0.05-0.11-0.09-0.21-0.14-0.32c-0.09-0.21-0.19-0.43-0.28-0.64
		c-0.04-0.1-0.09-0.2-0.13-0.3c-0.1-0.22-0.19-0.45-0.29-0.67c-0.02-0.04-0.03-0.08-0.05-0.12c-0.23-0.54-0.45-1.08-0.67-1.63
		c0-0.01-0.01-0.01-0.01-0.02c-0.1-0.25-0.2-0.49-0.29-0.74c-0.03-0.08-0.06-0.15-0.09-0.23c-0.09-0.24-0.19-0.48-0.28-0.73
		c-0.02-0.06-0.05-0.13-0.07-0.19c-0.42-1.11-0.81-2.23-1.19-3.34c-0.02-0.04-0.03-0.09-0.04-0.13c-0.09-0.27-0.18-0.54-0.27-0.81
		c0-0.02-0.01-0.03-0.01-0.05c-0.37-1.16-0.72-2.31-1.04-3.46c-0.01-0.02-0.01-0.04-0.02-0.06c-0.32-1.15-0.62-2.3-0.89-3.42
		l-3.73,0.02c1.7,7.51,4.6,15.63,8.25,22.67c7.25,14,16.06,21.75,24.82,21.8h0.12c4.8,0,8.92-1.54,12.55-2.89l0.03-0.01
		c2.29-0.86,4.66-1.75,6.25-1.75c3.4,0,5.43,0.86,7.99,1.95c2.64,1.12,5.92,2.52,10.48,2.52c7.74,0,15.49-5.85,22.43-16.91
		c2.35-3.75,4.33-7.67,5.77-10.92c1.62-3.66,2.55-6.47,2.55-7.21C393.51-47.72,391.05-49.21,389.23-50.3"/>
	<path class="st3" d="M317.87-15.23c-0.08-0.05-0.15-0.09-0.23-0.14C317.72-15.32,317.8-15.27,317.87-15.23"/>
	<path class="st3" d="M318.56-14.81c-0.08-0.04-0.15-0.09-0.23-0.13C318.41-14.9,318.49-14.86,318.56-14.81"/>
	<path class="st3" d="M319.25-14.44c-0.05-0.02-0.1-0.05-0.15-0.08C319.15-14.49,319.2-14.47,319.25-14.44"/>
	<path class="st3" d="M323.17-13.06c-0.07-0.01-0.14-0.02-0.21-0.04C323.03-13.08,323.1-13.07,323.17-13.06"/>
	<path class="st3" d="M335.47-15.03c-0.43,0.16-0.87,0.32-1.31,0.47C334.6-14.71,335.03-14.87,335.47-15.03"/>
	<path class="st3" d="M364.77-13.19c-0.15,0.02-0.3,0.05-0.46,0.07C364.47-13.15,364.62-13.17,364.77-13.19"/>
	<path class="st3" d="M333.48-14.33c-0.9,0.3-1.83,0.58-2.79,0.81C331.65-13.75,332.58-14.03,333.48-14.33"/>
	<path class="st3" d="M367.58-13.97c-0.6,0.24-1.22,0.43-1.84,0.58C366.37-13.54,366.98-13.74,367.58-13.97"/>
	<path class="st3" d="M375.31-19.39L375.31-19.39c-2.26,2.29-4.72,4.15-7.35,5.26C370.59-15.23,373.05-17.1,375.31-19.39"/>
	<path class="st3" d="M320.11-14.03c-0.06-0.03-0.12-0.05-0.18-0.08C319.99-14.08,320.05-14.06,320.11-14.03"/>
	<path class="st3" d="M321.57-13.47c-0.08-0.02-0.15-0.05-0.23-0.08C321.41-13.52,321.49-13.49,321.57-13.47"/>
	<path class="st3" d="M320.86-13.72c-0.08-0.03-0.16-0.06-0.24-0.09C320.7-13.78,320.78-13.75,320.86-13.72"/>
	<path class="st3" d="M322.26-13.26c-0.03-0.01-0.07-0.02-0.1-0.03C322.2-13.28,322.23-13.27,322.26-13.26"/>
	<path class="st3" d="M324.64-12.87c-0.07,0-0.15-0.01-0.22-0.02C324.49-12.88,324.57-12.87,324.64-12.87"/>
	<path class="st3" d="M323.92-12.94c-0.08-0.01-0.16-0.02-0.24-0.03C323.76-12.96,323.84-12.95,323.92-12.94"/>
	<path class="st3" d="M313.5-18.75c-0.07-0.06-0.13-0.13-0.2-0.2C313.36-18.88,313.43-18.82,313.5-18.75"/>
	<path class="st3" d="M305.34-29.79c-0.09-0.15-0.17-0.3-0.26-0.45C305.17-30.09,305.25-29.94,305.34-29.79"/>
	<path class="st3" d="M303.18-33.86c-0.09-0.18-0.18-0.37-0.27-0.56C303-34.23,303.09-34.04,303.18-33.86"/>
	<path class="st3" d="M302.07-36.19c-0.1-0.21-0.19-0.43-0.29-0.64C301.87-36.62,301.97-36.41,302.07-36.19"/>
	<path class="st3" d="M301.22-38.09c-0.1-0.22-0.19-0.45-0.29-0.67C301.03-38.54,301.12-38.32,301.22-38.09"/>
	<path class="st3" d="M301.63-37.15c-0.09-0.21-0.19-0.43-0.28-0.64C301.45-37.58,301.54-37.36,301.63-37.15"/>
	<path class="st3" d="M303.65-32.92c-0.09-0.18-0.18-0.35-0.27-0.53C303.47-33.28,303.56-33.1,303.65-32.92"/>
	<path class="st3" d="M304.83-30.71c-0.09-0.17-0.19-0.34-0.28-0.51C304.64-31.04,304.73-30.87,304.83-30.71"/>
	<path class="st3" d="M304.13-31.99c-0.09-0.17-0.18-0.34-0.27-0.51C303.95-32.33,304.04-32.16,304.13-31.99"/>
	<path class="st3" d="M302.74-34.77c-0.21-0.43-0.41-0.86-0.61-1.29C302.33-35.62,302.53-35.19,302.74-34.77"/>
	<path class="st3" d="M325.35-12.84L325.35-12.84L325.35-12.84h0.11c1.82,0,3.56-0.27,5.23-0.68c-1.67,0.41-3.42,0.68-5.23,0.68
		H325.35z"/>
	<path class="st3" d="M298.24-45.9c-0.09-0.27-0.18-0.54-0.27-0.81C298.06-46.44,298.15-46.17,298.24-45.9"/>
	<path class="st3" d="M297.96-46.76c-0.37-1.16-0.72-2.31-1.04-3.45C297.24-49.07,297.59-47.92,297.96-46.76"/>
	<path class="st3" d="M296.01-53.7L296.01-53.7c0.27,1.13,0.57,2.27,0.89,3.42C296.57-51.43,296.28-52.57,296.01-53.7"/>
	<path class="st3" d="M299.83-41.5c-0.09-0.24-0.19-0.48-0.28-0.73C299.64-41.99,299.73-41.75,299.83-41.5"/>
	<path class="st3" d="M300.2-40.54c-0.1-0.25-0.2-0.49-0.29-0.74C300.01-41.03,300.11-40.78,300.2-40.54"/>
	<path class="st3" d="M299.47-42.42c-0.42-1.11-0.81-2.23-1.19-3.34C298.66-44.65,299.06-43.54,299.47-42.42"/>
	<path class="st3" d="M317.12-15.72c-0.05-0.03-0.1-0.07-0.15-0.1C317.02-15.79,317.07-15.75,317.12-15.72"/>
	<path class="st3" d="M300.88-38.89c-0.23-0.54-0.45-1.08-0.67-1.63C300.43-39.97,300.65-39.43,300.88-38.89"/>
	<path class="st3" d="M312.86-19.4c-0.08-0.08-0.15-0.16-0.23-0.24C312.71-19.55,312.79-19.47,312.86-19.4"/>
	<path class="st3" d="M312.22-20.08c-0.07-0.08-0.14-0.15-0.21-0.23C312.07-20.24,312.15-20.16,312.22-20.08"/>
	<path class="st3" d="M314.23-18.05c-0.03-0.03-0.07-0.06-0.11-0.1C314.16-18.11,314.2-18.08,314.23-18.05"/>
	<path class="st3" d="M311.45-20.94c-0.04-0.04-0.07-0.08-0.1-0.12C311.38-21.03,311.42-20.98,311.45-20.94"/>
	<path class="st3" d="M310.8-21.72c-0.07-0.09-0.14-0.18-0.22-0.27C310.66-21.9,310.73-21.81,310.8-21.72"/>
	<path class="st3" d="M314.98-17.38c-0.07-0.06-0.14-0.12-0.22-0.19C314.84-17.5,314.91-17.44,314.98-17.38"/>
	<path class="st3" d="M316.32-16.3c-0.06-0.04-0.12-0.09-0.18-0.14C316.2-16.39,316.26-16.34,316.32-16.3"/>
	<path class="st3" d="M315.66-16.81c-0.08-0.06-0.15-0.12-0.23-0.19C315.51-16.94,315.58-16.88,315.66-16.81"/>
	<path class="st3" d="M306.39-28.01c-0.08-0.13-0.15-0.25-0.23-0.38C306.24-28.26,306.31-28.13,306.39-28.01"/>
	<path class="st3" d="M307.12-26.84c-0.08-0.12-0.15-0.24-0.23-0.36C306.97-27.08,307.04-26.96,307.12-26.84"/>
	<path class="st3" d="M307.69-25.96c-0.08-0.12-0.16-0.25-0.24-0.37C307.52-26.21,307.6-26.09,307.69-25.96"/>
	<path class="st3" d="M305.86-28.89c-0.08-0.14-0.17-0.29-0.25-0.43C305.69-29.18,305.77-29.03,305.86-28.89"/>
	<path class="st3" d="M308.25-25.13c-0.08-0.11-0.16-0.23-0.23-0.34C308.09-25.36,308.17-25.24,308.25-25.13"/>
	<path class="st3" d="M309.59-23.27c-0.07-0.09-0.14-0.19-0.21-0.28C309.44-23.46,309.51-23.36,309.59-23.27"/>
	<path class="st3" d="M310.2-22.47c-0.08-0.1-0.16-0.2-0.23-0.3C310.04-22.67,310.12-22.57,310.2-22.47"/>
	<path class="st3" d="M308.82-24.32c-0.06-0.08-0.11-0.16-0.16-0.23C308.71-24.47,308.76-24.39,308.82-24.32"/>
	<path class="st3" d="M337.55-107.13l-34.23-49.14l-2.22,3.19c-1.07,1.54-31.24,44.84-31.24,44.84l-0.91,1.3l15.73,32.35
		l-10.85,20.97l18.43-0.07l3.73-0.01l36.64-0.14l-10.83-20.94L337.55-107.13z M303.35-112.6c3.18,0,5.77,2.59,5.77,5.77
		c0,3.18-2.59,5.77-5.77,5.77s-5.77-2.59-5.77-5.77C297.58-110.01,300.17-112.6,303.35-112.6 M275.22-106.45
		c3.7-5.31,17.78-25.53,25.4-36.46v25.25c-4.85,1.23-8.45,5.61-8.45,10.83c0,6.17,5.02,11.19,11.19,11.19
		c6.17,0,11.19-5.02,11.19-11.19c0-5.24-3.63-9.64-8.51-10.85v-25.23l25.26,36.26l-14.2,29.2h-27.78L275.22-106.45z M323.77-59.22
		l-28.85,0.11l-3.67,0.01l-8.49,0.03l6.71-12.97h27.68L323.77-59.22z"/>
	<path class="st3" d="M344.53-161.61v-15.22h-15.22v4.9h-18.78c-1.11-3.05-4.03-5.24-7.47-5.24c-3.43,0-6.36,2.19-7.47,5.24h-18.55
		v-4.9h-15.22v15.22h15.22v-4.9h8.41c-0.07,0.05-0.13,0.1-0.2,0.14c-5.29,3.84-11.77,11.01-13.39,23.57
		c-3.18,1.04-5.48,4.03-5.48,7.55c0,4.38,3.57,7.95,7.95,7.95c4.39,0,7.95-3.57,7.95-7.95c0-3.33-2.07-6.19-4.98-7.37
		c2.29-15.98,13.51-21.55,18.55-23.26c1.27,2.72,4.02,4.61,7.21,4.61c3.22,0,6-1.93,7.25-4.7c4.9,1.6,16.44,7.06,18.81,23.24
		c-3.07,1.1-5.28,4.03-5.28,7.48c0,4.38,3.57,7.95,7.95,7.95c4.38,0,7.95-3.57,7.95-7.95c0-3.4-2.14-6.29-5.14-7.43
		c-1.6-12.63-8.1-19.83-13.41-23.69c-0.07-0.05-0.13-0.1-0.2-0.14h8.32v4.9H344.53z M271.63-167.02h-4.39v-4.39h4.39V-167.02z
		 M274.33-132.71c-1.4,0-2.54-1.14-2.54-2.54c0-1.4,1.14-2.54,2.54-2.54c1.4,0,2.54,1.14,2.54,2.54
		C276.87-133.85,275.73-132.71,274.33-132.71 M331.79-132.71c-1.4,0-2.54-1.14-2.54-2.54c0-1.4,1.14-2.54,2.54-2.54
		c1.4,0,2.54,1.14,2.54,2.54C334.33-133.85,333.19-132.71,331.79-132.71 M303.06-166.68c-1.4,0-2.54-1.14-2.54-2.54
		c0-1.4,1.14-2.54,2.54-2.54c1.4,0,2.54,1.14,2.54,2.54C305.6-167.82,304.46-166.68,303.06-166.68 M334.73-171.41h4.39v4.39h-4.39
		V-171.41z"/>
</g>
<g>
	<line class="st8" x1="826.04" y1="392.81" x2="826.04" y2="393.85"/>
	<line class="st9" x1="826.04" y1="395.97" x2="826.04" y2="466.77"/>
	<line class="st8" x1="826.04" y1="467.83" x2="826.04" y2="468.87"/>
	<line class="st10" x1="851.54" y1="394.48" x2="851.54" y2="470.55"/>
	<line class="st8" x1="795.51" y1="393.22" x2="795.51" y2="394.27"/>
	<line class="st9" x1="795.51" y1="396.38" x2="795.51" y2="467.19"/>
	<line class="st8" x1="795.51" y1="468.25" x2="795.51" y2="469.29"/>
	<line class="st8" x1="769.59" y1="391.55" x2="769.59" y2="392.6"/>
	<line class="st9" x1="769.59" y1="394.71" x2="769.59" y2="465.52"/>
	<line class="st8" x1="769.59" y1="466.57" x2="769.59" y2="467.62"/>
	<path class="st6" d="M858.65,409.11h1.05V398.4l-7.84-4.97h-26.83h-1.74l-0.61-1.63l-4.75-12.7l-11.54,0.75v8.47l6.27,0.73
		l-6.27,0.42l-11.29,8.36l0.06-0.83v-5.38v-28.34c0-2.27-1.85-4.12-4.12-4.12h-11.66c-2.53,0.94-4.33,3.36-4.33,6.21l-0.02,26.46
		l8.36,1.4h-8.36l-7.74-0.21h-2.51v-2.51v-10.87h-6.21l-6.54,1.88l-3.23,10.03l7.83,1.25l-8.36,0.42v74.84l12.96,0.42l-12.54,0.42
		l2.09,4.6l-0.42,7.53l13.36,1.11l3.91-11.93l0.57-1.74l1.83,0.01l24.37,0.19l18.68,0.23l-10.38,0.96l4.11,11.58l11.27,1.02v-10.84
		v-2.51h2.51h0.02v-0.22l24.67,0.42l-14.23,1.47l-0.19,25.45c0,3.34,2.71,6.05,6.05,6.05l10.46,0.48c0.31,0,0.6,0,0.89,0
		c1.18-0.58,2-1.78,2-3.18v-28.11v-1.36l1.14-0.74l8.3-5.38v-45.68h-1.05v-2.51h1.05v-4.18h-1.05V409.11z"/>
	<path class="st6" d="M862.2,397.02l-9.62-6.09L862.2,397.02z"/>
	<path class="st6" d="M852.76,471.48l9.45-6.13L852.76,471.48z"/>
	
		<rect x="815.06" y="477.16" transform="matrix(0.083 -0.9965 0.9965 0.083 276.9284 1255.2976)" class="st6" width="11.07" height="0.02"/>
	<polygon class="st3" points="763.71,482.14 763.46,482.91 747.85,482.91 747.85,474.34 747.85,473.52 747.36,472.85 744.92,469.54 
		744.92,391.99 749.4,379.64 758.57,379.64 767.29,377.13 747.64,377.13 742.41,391.55 742.41,470.36 745.34,474.34 745.34,485.42 
		765.28,485.42 770.01,471 765.41,482.28 	"/>
	<path class="st3" d="M791.03,356.64L791.03,356.64c1.14,0,2.22,0.29,3.16,0.8C793.26,356.93,792.18,356.64,791.03,356.64"/>
	<polygon class="st3" points="852.76,499.59 852.76,499.59 852.76,499.59 852.76,471.48 	"/>
	<polygon class="st3" points="818.08,482.91 803.73,482.91 799.79,470.45 799.24,468.71 797.41,468.7 794.4,468.67 770.01,471 
		797.39,471.2 801.89,485.42 820.58,485.42 820.58,482.7 818.08,482.47 	"/>
	<path class="st3" d="M797.67,363.27c0-0.69-0.1-1.35-0.3-1.97C797.56,361.92,797.67,362.58,797.67,363.27"/>
	<path class="st3" d="M848.25,502.77c-0.47,0.23-0.99,0.36-1.55,0.36h-15.66c-1.95,0-3.54-1.59-3.54-3.54v-27.96v-2.51h-2.51h-4.39
		v2.51h4.39v27.96c0,3.34,2.71,6.05,6.05,6.05h15.66c2.94,0,5.39-2.1,5.94-4.87C852.22,502.66,850.64,502.77,848.25,502.77"/>
	<polygon class="st3" points="795.16,397.67 799.44,393.39 803.05,389.77 803.79,389.04 803.79,388 803.79,378.8 817.81,378.8 
		817.93,379.1 819.35,379.01 825.03,390.93 819.56,376.29 801.28,376.29 801.28,388 797.67,391.61 797.67,363.27 795.16,397 	"/>
	<path class="st3" d="M770.03,393.02h2.51v-2.51v-27.24c0-2.27,1.85-4.12,4.12-4.12h2.72c0.72-0.27,1.49-0.42,2.3-0.42l9.36-2.09
		h-14.38c-3.66,0-6.63,2.97-6.63,6.63v27.24h-2.74v2.51H770.03z"/>
	<path class="st3" d="M796.15,359.05c-0.54-0.65-1.2-1.2-1.96-1.61C794.95,357.85,795.61,358.4,796.15,359.05"/>
	<path class="st3" d="M859.69,463.99l-8.3,5.38l-1.14,0.74v1.36v28.11c0,1.4-0.82,2.61-2,3.18c2.39,0,3.97-0.11,4.39-2.01
		c0.07-0.38,0.12-0.77,0.12-1.17c0,0,0,0,0,0v-28.11l9.45-6.13v-45.78c0-0.69-0.56-1.25-1.25-1.25c-0.69,0-1.25,0.56-1.25,1.25
		V463.99z"/>
	<path class="st3" d="M779.38,359.15h11.66c2.27,0,4.12,1.85,4.12,4.12v28.34V397l2.51-33.73c0-0.69-0.1-1.35-0.3-1.97
		c-0.26-0.83-0.68-1.59-1.22-2.25c-0.54-0.66-1.2-1.2-1.96-1.61c-0.94-0.51-2.02-0.8-3.16-0.8l-9.36,2.09
		C780.87,358.73,780.09,358.88,779.38,359.15"/>
	<path class="st3" d="M819.35,379.01l-1.42,0.09l4.75,12.7l0.61,1.63h1.74h26.83l7.84,4.97v9.46c0,0.69,0.56,1.25,1.25,1.25
		c0.69,0,1.25-0.56,1.25-1.25v-10.84l-9.62-6.09h-27.56L819.35,379.01z"/>
	<polygon class="st3" points="770.03,468.49 768.2,468.47 767.62,470.21 763.71,482.14 765.41,482.28 770.01,471 794.4,468.67 	"/>
	<polygon class="st3" points="764.78,379.64 764.78,390.51 764.78,393.02 767.29,393.02 767.29,390.51 767.29,377.13 758.57,379.64 
			"/>
	<polygon class="st3" points="820.58,469.12 818.08,469.12 818.08,471.63 818.08,482.47 820.58,482.7 820.58,471.63 820.6,471.63 
		820.6,469.12 	"/>
	<line class="st11" x1="800.53" y1="402.84" x2="821.39" y2="402.84"/>
	<line class="st11" x1="800.53" y1="405.35" x2="821.39" y2="405.35"/>
	<line class="st11" x1="800.53" y1="407.86" x2="821.39" y2="407.86"/>
	<line class="st11" x1="800.53" y1="410.37" x2="821.39" y2="410.37"/>
	<line class="st11" x1="800.95" y1="458.03" x2="821.81" y2="458.03"/>
	<line class="st11" x1="800.95" y1="427.09" x2="821.81" y2="427.09"/>
	<line class="st12" x1="800.95" y1="429.6" x2="821.81" y2="429.6"/>
	<line class="st11" x1="783.36" y1="442.17" x2="783.36" y2="463.03"/>
	<line class="st11" x1="821.39" y1="414" x2="811.43" y2="414"/>
	<line class="st11" x1="821.39" y1="416.92" x2="811.43" y2="416.92"/>
	<line class="st12" x1="821.39" y1="419.85" x2="811.43" y2="419.85"/>
	<line class="st11" x1="790.9" y1="406.43" x2="790.9" y2="396.47"/>
	<line class="st11" x1="816.37" y1="460.41" x2="806.41" y2="460.41"/>
	<line class="st11" x1="772.52" y1="453.22" x2="772.52" y2="463.1"/>
	<line class="st11" x1="761.57" y1="442.27" x2="751.69" y2="442.27"/>
	<line class="st11" x1="772.52" y1="395.73" x2="772.52" y2="447.01"/>
	<line class="st11" x1="775.86" y1="395.73" x2="775.86" y2="463.1"/>
	<line class="st11" x1="779.21" y1="395.73" x2="779.21" y2="463.1"/>
	<path class="st0" d="M756.42,416.94l7.53,4.35v8.69l-7.53,4.34l-7.53-4.34v-8.69L756.42,416.94z M756.42,414.52l-9.62,5.55v11.1
		l9.62,5.55l9.62-5.55v-11.1L756.42,414.52z"/>
	<path class="st0" d="M805.13,435.75l7.53,4.35v8.69l-7.53,4.34l-7.53-4.34v-8.69L805.13,435.75z M805.13,433.34l-9.62,5.55V450
		l9.62,5.55l9.62-5.55v-11.1L805.13,433.34z"/>
	<line class="st11" x1="748.06" y1="439.43" x2="765.55" y2="439.43"/>
	<polygon class="st0" points="830.64,440.87 827.29,442.8 827.29,445.21 830.64,443.28 838.16,447.63 838.16,456.32 830.64,460.66 
		827.29,458.73 827.29,461.14 830.64,463.07 840.25,457.52 840.25,446.42 	"/>
	<polygon class="st0" points="856.14,400.31 859.49,402.24 859.49,404.65 856.14,402.72 848.61,407.07 848.61,415.76 856.14,420.1 
		859.49,418.17 859.49,420.59 856.14,422.52 846.52,416.96 846.52,405.86 	"/>
</g>
<g>
	<path class="st6" d="M280.89,431.14c-5.21,1.21-8.45,6.4-7.24,11.61c1.21,5.21,6.4,8.45,11.61,7.24l-0.45,0.9l-4.04-19.72
		L280.89,431.14z"/>
	<path class="st6" d="M294.6,455.51l6.4,27.65l5.29-1.22l-6.4-27.65C299.89,454.29,294.59,455.51,294.6,455.51"/>
	<polygon class="st6" points="300.87,419.01 307.91,449.43 355.38,459.45 340.07,393.34 	"/>
	<polygon class="st6" points="282.69,424.63 289.33,453.29 305.5,452.19 298.28,421.02 	"/>
	<path class="st6" d="M363.24,363.18h-16.53c-1.52,0-2.75,1.24-2.75,2.75v16.53c0,1.52,1.24,2.76,2.75,2.76h16.53
		c1.52,0,2.75-1.24,2.75-2.76v-16.53C365.99,364.41,364.76,363.18,363.24,363.18"/>
	<path class="st0" d="M362.55,374.2h-3.44v-2.75c0-0.76,0.62-0.69,1.38-0.69h1.38v-3.44h-2.75c-2.28,0-4.13,1.85-4.13,4.13v2.75
		h-2.75v3.44h2.75v7.58h4.13v-7.58h2.07L362.55,374.2z"/>
	<path class="st6" d="M389.91,425.15c-1.71,1.77-1.36,3.66-1.36,9.38c0,4.75-0.83,9.52,3.51,10.64c1.36,0.35,13.37,0.35,14.72,0
		c1.81-0.47,3.28-1.93,3.48-4.49c0.03-0.36,0.03-11.94,0-12.3c-0.21-2.72-1.89-4.29-4.1-4.61c-0.51-0.07-0.61-0.09-3.2-0.1
		C393.75,423.68,391.73,423.27,389.91,425.15"/>
	<path class="st0" d="M399.42,426.52c-3.29,0-6.41-0.29-7.6,2.77c-0.49,1.26-0.42,2.91-0.42,5.26c0,2.06-0.07,4,0.42,5.26
		c1.19,3.06,4.34,2.77,7.6,2.77c3.15,0,6.4,0.33,7.6-2.77c0.49-1.28,0.42-2.89,0.42-5.26c0-3.13,0.17-5.16-1.35-6.68
		C404.55,426.32,402.47,426.52,399.42,426.52L399.42,426.52z M398.7,427.96c6.86-0.01,7.73-0.77,7.25,9.82
		c-0.17,3.75-3.02,3.34-6.53,3.34c-6.39,0-6.58-0.18-6.58-6.58C392.84,428.07,393.35,427.97,398.7,427.96L398.7,427.96z
		 M403.7,429.3c-0.53,0-0.96,0.43-0.96,0.96c0,0.53,0.43,0.96,0.96,0.96c0.53,0,0.96-0.43,0.96-0.96
		C404.66,429.73,404.23,429.3,403.7,429.3 M399.42,430.42c-2.28,0-4.12,1.85-4.12,4.12c0,2.28,1.84,4.12,4.12,4.12
		c2.28,0,4.12-1.84,4.12-4.12C403.54,432.27,401.69,430.42,399.42,430.42 M399.42,431.87c3.54,0,3.54,5.35,0,5.35
		C395.88,437.22,395.88,431.87,399.42,431.87"/>
	<path class="st6" d="M406.4,391.51c-0.93,0.41-1.91,0.68-2.94,0.81c1.06-0.63,1.87-1.63,2.25-2.82c-0.99,0.59-2.08,1-3.24,1.24
		c-0.94-1-2.27-1.62-3.73-1.62c-2.83,0-5.1,2.3-5.1,5.11c0,0.4,0.03,0.79,0.12,1.16c-4.25-0.21-8-2.24-10.53-5.34
		c-0.44,0.76-0.7,1.64-0.7,2.58c0,1.77,0.91,3.34,2.27,4.24c-0.82-0.01-1.63-0.25-2.31-0.63v0.06c0,2.48,1.77,4.54,4.09,5.02
		c-0.42,0.11-0.87,0.17-1.34,0.17c-0.33,0-0.66-0.02-0.97-0.09c0.66,2.02,2.54,3.51,4.77,3.56c-1.74,1.36-3.94,2.18-6.33,2.18
		c-0.42,0-0.82-0.02-1.22-0.07c2.26,1.46,4.94,2.29,7.84,2.29c9.4,0,14.54-7.79,14.54-14.54c0-0.23-0.01-0.44-0.02-0.66
		C404.85,393.44,405.7,392.54,406.4,391.51"/>
	
		<rect x="282.37" y="422.93" transform="matrix(0.9742 -0.2255 0.2255 0.9742 -91.5638 77.1619)" class="st13" width="19.09" height="32.77"/>
	<path class="st13" d="M284.8,450.89l-6,1.39c-3.07,0.71-6.14-1.2-6.85-4.28l-1.79-7.73c-0.71-3.07,1.2-6.14,4.28-6.85l6-1.39
		L284.8,450.89z"/>
	
		<rect x="294.95" y="454.91" transform="matrix(0.9742 -0.2256 0.2256 0.9742 -98.1334 79.5142)" class="st13" width="7.74" height="28.38"/>
	<polygon class="st13" points="297.53,421.2 304.92,453.12 355.38,459.45 351.42,442.36 344.03,410.43 340.07,393.34 	"/>
	<line class="st14" x1="352.32" y1="408.51" x2="366.03" y2="397.92"/>
	<line class="st14" x1="377.56" y1="442.04" x2="360.38" y2="439.84"/>
	<line class="st14" x1="360.2" y1="421.92" x2="378.51" y2="417.68"/>
</g>
<g>
	<path class="st6" d="M-102.55,439.05c-0.94-0.5-1.59-1.49-1.59-2.63v-32.98h-0.94l5.16-13.1c0.42-1.06,1.43-1.75,2.57-1.75
		c0.19,0,0.37,0.02,0.54,0.05v-7.23c0,0-2.38-5.19-7.36-5.19h-35.36c-2.64,0-4.78,2.14-4.79,4.78l-0.18,59.92
		c-0.01,1.95,1.47,3.58,3.4,3.77l40.14,4.03c0,0,3.5-2.08,4.15-5.22v-1.15h-1.59C-100.41,442.34-102.11,440.94-102.55,439.05"/>
	<path class="st3" d="M-147.49,391.6h-4.12c-0.55,0-1-0.45-1-1s0.45-1,1-1h4.12c0.55,0,1,0.45,1,1S-146.94,391.6-147.49,391.6"/>
	<path class="st3" d="M-147.49,400.19h-4.12c-0.55,0-1-0.45-1-1c0-0.55,0.45-1,1-1h4.12c0.55,0,1,0.45,1,1
		C-146.5,399.75-146.94,400.19-147.49,400.19"/>
	<path class="st3" d="M-147.49,408.78h-4.12c-0.55,0-1-0.45-1-1c0-0.55,0.45-1,1-1h4.12c0.55,0,1,0.45,1,1
		C-146.5,408.34-146.94,408.78-147.49,408.78"/>
	<path class="st3" d="M-147.49,417.37h-4.12c-0.55,0-1-0.45-1-1c0-0.55,0.45-1,1-1h4.12c0.55,0,1,0.45,1,1
		C-146.5,416.93-146.94,417.37-147.49,417.37"/>
	<path class="st3" d="M-147.49,425.96h-4.12c-0.55,0-1-0.45-1-1c0-0.55,0.45-1,1-1h4.12c0.55,0,1,0.45,1,1
		C-146.5,425.52-146.94,425.96-147.49,425.96"/>
	<path class="st3" d="M-147.49,434.55h-4.12c-0.55,0-1-0.45-1-1c0-0.55,0.45-1,1-1h4.12c0.55,0,1,0.45,1,1
		C-146.5,434.11-146.94,434.55-147.49,434.55"/>
	<path class="st0" d="M-98.39,439.35c-0.7,0-1.28-0.57-1.28-1.28v-1.68h-1.48v-31.98h7.6v31.98h-1.48v1.68
		c0,0.67-0.52,1.23-1.2,1.27c0,0-0.07,0.01-0.08,0.01H-98.39z"/>
	<path class="st3" d="M-94.54,405.42v29.98h-1.48v2v0.68c0,0.15-0.11,0.27-0.26,0.28l-0.04,0l-0.01,0h-1.82h-0.24
		c-0.15,0-0.28-0.13-0.28-0.28v-0.68v-2h-1.48v-29.98H-94.54 M-92.54,403.42h-9.6v33c0,0.54,0.44,0.97,0.97,0.97h0.5v0.68
		c0,1.26,1.02,2.28,2.28,2.28h0.24h1.85c0.05,0,0.1,0,0.15-0.01c1.19-0.08,2.13-1.06,2.13-2.27v-0.68h0.5
		c0.54,0,0.97-0.44,0.97-0.97V403.42z"/>
	<path class="st3" d="M-98.15,442.34v0.15c0,2.89-2.35,5.24-5.24,5.24h-39.86c-2.89,0-5.24-2.35-5.24-5.24v-59.84
		c0-2.89,2.35-5.24,5.24-5.24h39.86c2.89,0,5.24,2.35,5.24,5.24v5.16c0,0.44,0.36,0.77,0.8,0.77h0.01c0.12,0,0.23,0.01,0.34,0.02
		c0.45,0.06,0.85-0.31,0.85-0.77v-5.18c0-4-3.24-7.24-7.24-7.24h-39.86c-4,0-7.24,3.24-7.24,7.24v59.84c0,4,3.24,7.24,7.24,7.24
		h39.86c4,0,7.24-3.24,7.24-7.24v-0.16c-0.05,0-0.1,0.01-0.15,0.01H-98.15z"/>
	<polygon class="st0" points="-100.68,400.44 -97.35,391.98 -94.01,400.44 	"/>
	<path class="st3" d="M-97.35,394.71l1.87,4.73h-0.67h-2h-1.06L-97.35,394.71 M-97.35,390.59c-0.29,0-0.59,0.16-0.71,0.49
		l-0.09,0.23l-4,10.14h4h2h3.61l-3.61-9.15l-0.48-1.21C-96.76,390.75-97.05,390.59-97.35,390.59"/>
	<path class="st3" d="M-89.99,420.41c-0.46,0-0.83,0.37-0.83,0.83v12.92c0,0.46,0.37,0.83,0.83,0.83c0.46,0,0.83-0.37,0.83-0.83
		v-12.92C-89.16,420.78-89.53,420.41-89.99,420.41"/>
	<rect x="-100.95" y="435.15" class="st3" width="6.39" height="1.8"/>
	<path class="st15" d="M-105.73,385.41h-33.05c-0.55,0-1-0.45-1-1c0-0.55,0.45-1,1-1h33.05c0.55,0,1,0.45,1,1
		C-104.74,384.96-105.18,385.41-105.73,385.41"/>
	<path class="st15" d="M-105.73,390.2h-33.05c-0.55,0-1-0.45-1-1c0-0.55,0.45-1,1-1h33.05c0.55,0,1,0.45,1,1
		C-104.74,389.76-105.18,390.2-105.73,390.2"/>
	<path class="st15" d="M-115.91,395h-22.88c-0.55,0-1-0.45-1-1c0-0.55,0.45-1,1-1h22.88c0.55,0,1,0.45,1,1
		C-114.91,394.55-115.35,395-115.91,395"/>
	<path class="st15" d="M-115.91,405.79h-22.88c-0.55,0-1-0.45-1-1c0-0.55,0.45-1,1-1h22.88c0.55,0,1,0.45,1,1
		C-114.91,405.34-115.35,405.79-115.91,405.79"/>
	<path class="st15" d="M-115.91,412.18h-22.88c-0.55,0-1-0.45-1-1c0-0.55,0.45-1,1-1h22.88c0.55,0,1,0.45,1,1
		C-114.91,411.73-115.35,412.18-115.91,412.18"/>
	<path class="st15" d="M-115.91,418.37h-22.88c-0.55,0-1-0.45-1-1c0-0.55,0.45-1,1-1h22.88c0.55,0,1,0.45,1,1
		C-114.91,417.92-115.35,418.37-115.91,418.37"/>
	<path class="st15" d="M-110.14,429.96h-13.98c-0.55,0-1-0.45-1-1c0-0.55,0.45-1,1-1h13.98c0.55,0,1,0.45,1,1
		C-109.14,429.51-109.59,429.96-110.14,429.96"/>
	<path class="st15" d="M-110.14,434.55h-13.98c-0.55,0-1-0.45-1-1c0-0.55,0.45-1,1-1h13.98c0.55,0,1,0.45,1,1
		C-109.14,434.11-109.59,434.55-110.14,434.55"/>
</g>
<g>
	<rect x="-635.93" y="363.8" class="st6" width="118.76" height="6.9"/>
	<rect x="-635.57" y="437.16" class="st6" width="118.76" height="6.9"/>
	<polygon class="st6" points="-578.38,445.87 -578.91,461.49 -570.2,462.58 -570.2,445.87 	"/>
	<path class="st6" d="M-587.77,464.4c0,0-7.12,2.91-6.76,5.81l40.31,1.09c0,0,0.44-2.76-2.5-4.65c-2.94-1.89-7.68-2.62-11.48-2.25
		C-572.01,464.76-587.77,464.4-587.77,464.4"/>
	<path class="st6" d="M-586.17,385.04c0,4.11-3.33,7.44-7.44,7.44s-7.44-3.33-7.44-7.44c0-4.11,3.33-7.44,7.44-7.44
		S-586.17,380.93-586.17,385.04"/>
	<polygon class="st6" points="-582.21,380.67 -589.26,393.78 -595.75,409.42 -596.31,410.77 -597.53,413.71 -598.52,416.09 
		-596.16,416.2 -593.14,416.34 -591.9,416.4 -566.85,417.55 -561.87,417.55 	"/>
	<polygon class="st6" points="-606,417.28 -600.85,407.69 -609.55,391.93 -614.98,402.05 -621.04,416.59 	"/>
	<polygon class="st3" points="-595.29,417.77 -600.18,417.55 -602.02,417.55 -601.98,417.46 -606,417.28 -606.34,417.91 
		-595.22,417.91 	"/>
	<polygon class="st3" points="-589.26,393.78 -582.23,376.87 -558.94,417.91 -566.85,417.55 -591.27,417.55 -589.27,421.18 
		-555.72,421.18 -582.25,373.07 -598.81,403.88 -596.72,407.67 	"/>
	<polygon class="st3" points="-600.18,417.55 -595.29,417.77 -595.42,417.55 	"/>
	<polygon class="st3" points="-600.85,407.69 -606,417.28 -601.98,417.46 -598.76,411.48 	"/>
	<polygon class="st3" points="-561.87,417.55 -566.85,417.55 -558.94,417.91 -582.23,376.87 -589.26,393.78 -582.21,380.67 	"/>
	<polygon class="st3" points="-589.27,421.18 -608.1,421.18 -606.34,417.91 -623.51,417.91 -614.98,402.05 -609.55,391.93 
		-600.85,407.69 -599.5,405.17 -598.81,403.88 -609.59,384.33 -629.58,421.54 	"/>
	<polygon class="st3" points="-597.38,408.9 -596.72,407.67 -598.8,403.88 -599.5,405.17 	"/>
	<polygon class="st3" points="-592.45,417.55 -592.25,417.91 -595.29,417.77 -595.22,417.91 -606.34,417.91 -608.1,421.18 
		-589.27,421.18 -591.27,417.55 	"/>
	<polygon class="st3" points="-595.29,417.77 -592.25,417.91 -592.45,417.55 -595.42,417.55 	"/>
	<polygon class="st3" points="-598.76,411.48 -597.38,408.9 -599.5,405.17 -600.85,407.69 	"/>
	<path class="st6" d="M-541.55,396.61c-0.34,0.49-7.77,13.87-7.77,13.87l3.57,8.7l0.43,1.05l-0.87,2.23l-1.01,2.57l1.13,0.05
		l1.16,0.05l9.69,0.42l-2.05-4.97l4.15-8.15l0.52-1.03l0.47-0.92C-532.13,410.48-540.78,397.71-541.55,396.61"/>
	<path class="st3" d="M-531.36,410.34l-10.82-15.53l-0.7,1.01c-0.34,0.49-9.88,14.17-9.88,14.17l-0.29,0.41l4.97,10.23l-3.43,6.63
		l5.83-0.02l1.18,0l11.58-0.04l-3.42-6.62L-531.36,410.34z M-542.18,408.61c1.01,0,1.82,0.82,1.82,1.82c0,1.01-0.82,1.82-1.82,1.82
		c-1.01,0-1.82-0.82-1.82-1.82C-544,409.43-543.18,408.61-542.18,408.61 M-551.07,410.56c1.17-1.68,5.62-8.07,8.03-11.53v7.98
		c-1.53,0.39-2.67,1.77-2.67,3.43c0,1.95,1.59,3.54,3.54,3.54s3.54-1.59,3.54-3.54c0-1.66-1.15-3.05-2.69-3.43v-7.98l7.99,11.46
		l-4.49,9.23h-8.78L-551.07,410.56z M-535.72,425.49l-9.12,0.03l-1.16,0l-2.68,0.01l2.12-4.1h8.75L-535.72,425.49z"/>
	<path class="st3" d="M-529.16,393.12v-4.81h-4.81v1.55h-5.94c-0.35-0.97-1.28-1.66-2.36-1.66c-1.09,0-2.01,0.69-2.36,1.66h-5.87
		v-1.55h-4.81v4.81h4.81v-1.55h2.66c-0.02,0.01-0.04,0.03-0.06,0.05c-1.67,1.21-3.72,3.48-4.23,7.45c-1,0.33-1.73,1.28-1.73,2.39
		c0,1.39,1.13,2.51,2.51,2.51c1.39,0,2.51-1.13,2.51-2.51c0-1.05-0.65-1.96-1.58-2.33c0.72-5.05,4.27-6.81,5.87-7.35
		c0.4,0.86,1.27,1.46,2.28,1.46c1.02,0,1.9-0.61,2.29-1.49c1.55,0.51,5.2,2.23,5.95,7.35c-0.97,0.35-1.67,1.28-1.67,2.37
		c0,1.39,1.13,2.51,2.51,2.51c1.39,0,2.51-1.13,2.51-2.51c0-1.07-0.68-1.99-1.63-2.35c-0.51-3.99-2.56-6.27-4.24-7.49
		c-0.02-0.02-0.04-0.03-0.06-0.05h2.63v1.55H-529.16z M-552.21,391.41h-1.39v-1.39h1.39V391.41z M-551.35,402.26
		c-0.44,0-0.8-0.36-0.8-0.8c0-0.44,0.36-0.8,0.8-0.8c0.44,0,0.8,0.36,0.8,0.8C-550.55,401.9-550.91,402.26-551.35,402.26
		 M-533.19,402.26c-0.44,0-0.8-0.36-0.8-0.8c0-0.44,0.36-0.8,0.8-0.8c0.44,0,0.8,0.36,0.8,0.8
		C-532.38,401.9-532.74,402.26-533.19,402.26 M-542.27,391.52c-0.44,0-0.8-0.36-0.8-0.8s0.36-0.8,0.8-0.8c0.44,0,0.8,0.36,0.8,0.8
		S-541.83,391.52-542.27,391.52 M-532.26,390.02h1.39v1.39h-1.39V390.02z"/>
	<path class="st3" d="M-635.93,431.92c-1,0-1.82-0.81-1.82-1.82v-61.58c0-3.61,2.94-6.55,6.55-6.55h109.29
		c3.61,0,6.55,2.94,6.55,6.55v5.09c0,1-0.81,1.82-1.82,1.82c-1,0-1.82-0.81-1.82-1.82v-5.09c0-1.61-1.31-2.92-2.92-2.92H-631.2
		c-1.61,0-2.92,1.31-2.92,2.92v61.58C-634.11,431.11-634.93,431.92-635.93,431.92"/>
	<path class="st3" d="M-521.91,447.69H-631.2c-3.61,0-6.55-2.94-6.55-6.55v-11.03c0-1,0.81-1.82,1.82-1.82s1.82,0.81,1.82,1.82
		v11.03c0,1.61,1.31,2.92,2.92,2.92h109.29c1.61,0,2.92-1.31,2.92-2.92V388.2c0-1,0.81-1.82,1.82-1.82c1,0,1.82,0.81,1.82,1.82
		v52.94C-515.36,444.75-518.29,447.69-521.91,447.69"/>
	<path class="st3" d="M-568.92,466.21h-15.25v-22.15h15.25V466.21z M-580.55,462.58h7.99v-14.89h-7.99V462.58z"/>
	<path class="st3" d="M-552.04,474.93h-48.66v-1.82c0-5.81,4.72-10.53,10.53-10.53h27.6c5.81,0,10.53,4.73,10.53,10.53V474.93z
		 M-596.83,471.3h40.92c-0.8-2.93-3.48-5.08-6.66-5.08h-27.6C-593.35,466.21-596.03,468.37-596.83,471.3"/>
</g>
</svg>
