<?xml version="1.0" encoding="utf-8"?>
<!-- Generator: Adobe Illustrator 23.0.5, SVG Export Plug-In . SVG Version: 6.00 Build 0)  -->
<svg version="1.1" id="Layer_1" xmlns="http://www.w3.org/2000/svg" xmlns:xlink="http://www.w3.org/1999/xlink" x="0px" y="0px"
	 viewBox="0 0 425.2 425.2" style="enable-background:new 0 0 425.2 425.2;" xml:space="preserve">
<style type="text/css">
	.st0{fill:#4274B9;}
	.st1{fill:none;stroke:#1E3018;stroke-width:8;stroke-miterlimit:10;}
</style>
<g>
	<path class="st0" d="M218.16,245.14c41.76,0,75.62-41.12,75.62-91.85c0-50.73-11.12-91.85-75.62-91.85s-75.62,41.12-75.62,91.85
		C142.53,204.02,176.39,245.14,218.16,245.14"/>
	<path class="st0" d="M360.83,381.68c-1.4-88.37-12.94-113.55-101.26-129.49c0,0-12.43,15.84-41.41,15.84
		c-28.98,0-41.41-15.84-41.41-15.84c-87.36,15.77-99.6,40.57-101.21,126.62c-0.13,7.03-0.19,7.4-0.22,6.58
		c0,1.53,0.01,4.35,0.01,9.28c0,0,21.03,42.39,142.82,42.39c121.8,0,142.83-42.39,142.83-42.39c0-3.17,0-5.37,0-6.87
		C360.96,388.31,360.92,387.33,360.83,381.68"/>
	<path class="st1" d="M386.87,421.3H38.33c-19.23,0-34.82-15.59-34.82-34.82V37.93C3.51,18.7,19.1,3.11,38.33,3.11h348.54
		c19.23,0,34.82,15.59,34.82,34.82v348.54C421.69,405.71,406.1,421.3,386.87,421.3z"/>
</g>
</svg>
