<?xml version="1.0" encoding="utf-8"?>
<!-- Generator: Adobe Illustrator 23.0.5, SVG Export Plug-In . SVG Version: 6.00 Build 0)  -->
<svg version="1.1" id="Layer_1" xmlns="http://www.w3.org/2000/svg" xmlns:xlink="http://www.w3.org/1999/xlink" x="0px" y="0px"
	 viewBox="0 0 283.5 283.5" style="enable-background:new 0 0 283.5 283.5;" xml:space="preserve">
<style type="text/css">
	.st0{fill:none;stroke:#FFFFFF;stroke-width:0.792;stroke-miterlimit:10;}
	.st1{fill:none;stroke:#FFFFFF;stroke-width:0.792;stroke-miterlimit:10;stroke-dasharray:2.001,2.001;}
	.st2{fill:none;stroke:#FFFFFF;stroke-width:0.792;stroke-miterlimit:10;stroke-dasharray:1.979,1.979;}
	.st3{fill:#93278F;}
	.st4{fill:#88B4E0;}
	.st5{fill:#0E142F;}
	.st6{fill:none;stroke:#FFFFFF;stroke-width:0.396;stroke-miterlimit:10;}
	.st7{fill:none;stroke:#0E142F;stroke-width:0.396;stroke-miterlimit:10;}
	.st8{fill:#FF00FF;}
</style>
<line class="st0" x1="179.9" y1="70.7" x2="179.9" y2="72.7"/>
<line class="st1" x1="179.9" y1="76.7" x2="179.9" y2="210.2"/>
<line class="st0" x1="179.9" y1="212.2" x2="179.9" y2="214.2"/>
<line class="st2" x1="228" y1="73.9" x2="228" y2="217.4"/>
<line class="st0" x1="122.4" y1="71.5" x2="122.4" y2="73.5"/>
<line class="st1" x1="122.4" y1="77.5" x2="122.4" y2="211"/>
<line class="st0" x1="122.4" y1="213" x2="122.4" y2="215"/>
<line class="st0" x1="73.5" y1="68.4" x2="73.5" y2="70.3"/>
<line class="st1" x1="73.5" y1="74.3" x2="73.5" y2="207.9"/>
<line class="st0" x1="73.5" y1="209.9" x2="73.5" y2="211.8"/>
<path class="st3" d="M241.5,101.5h2V81.3l-14.8-9.4H178h-3.3l-1.1-3.1l-9-24l-21.8,1.4v16l11.8,1.4l-11.8,0.8l-21.3,15.8l0.1-1.6
	V68.5V15c0-4.3-3.5-7.8-7.8-7.8h-22C87.2,9,83.8,13.6,83.8,19l0,49.9l15.8,2.6H83.7l-14.6-0.4h-4.7v-4.7V45.9H52.7l-12.3,3.5
	l-6.1,18.9L49,70.7l-15.8,0.8v141.2l24.4,0.8L34,214.3l3.9,8.7l-0.8,14.2l25.2,2.1l7.4-22.5l1.1-3.3l3.5,0l46,0.4l35.2,0.4
	l-19.6,1.8l7.8,21.8l21.3,1.9v-20.5v-4.7h4.7h0v-0.4l46.5,0.8l-26.8,2.8l-0.4,48c0,6.3,5.1,11.4,11.4,11.4l19.7,0.9
	c0.6,0,1.1,0,1.7,0c2.2-1.1,3.8-3.4,3.8-6v-53v-2.6l2.2-1.4l15.7-10.2v-86.2h-2v-4.7h2v-7.9h-2V101.5z"/>
<path class="st4" d="M248.2,78.7L230,67.2L248.2,78.7z"/>
<path class="st4" d="M230.3,219.1l17.8-11.6L230.3,219.1z"/>
<rect x="159.2" y="229.8" transform="matrix(8.304548e-02 -0.9965 0.9965 8.304548e-02 -73.4786 379.8415)" class="st4" width="20.9" height="0"/>
<polygon class="st5" points="62.4,239.2 61.9,240.7 32.5,240.7 32.5,224.5 32.5,223 31.5,221.7 26.9,215.5 26.9,69.2 35.4,45.9 
	52.7,45.9 69.1,41.2 32.1,41.2 22.2,68.4 22.2,217 27.7,224.5 27.7,245.4 65.3,245.4 74.3,218.2 65.6,239.5 "/>
<polygon class="st5" points="230.3,272.1 230.3,272.2 230.3,272.1 230.3,219.1 "/>
<polygon class="st5" points="164.9,240.7 137.9,240.7 130.4,217.2 129.4,213.9 125.9,213.9 120.3,213.8 74.3,218.2 125.9,218.6 
	134.4,245.4 169.7,245.4 169.7,240.3 164.9,239.9 "/>
<path class="st5" d="M221.8,278.1c-0.9,0.4-1.9,0.7-2.9,0.7h-29.5c-3.7,0-6.7-3-6.7-6.7v-52.7v-4.7H178h-8.3v4.7h8.3v52.7
	c0,6.3,5.1,11.4,11.4,11.4h29.5c5.5,0,10.2-4,11.2-9.2C229.3,277.9,226.3,278.1,221.8,278.1"/>
<polygon class="st5" points="121.7,79.9 129.8,71.8 136.6,65 138,63.6 138,61.7 138,44.3 164.4,44.3 164.6,44.9 167.3,44.7 
	178,67.2 167.7,39.6 133.2,39.6 133.2,61.7 126.4,68.5 126.4,15 121.7,78.6 "/>
<path class="st5" d="M74.3,71.1H79v-4.7V15c0-4.3,3.5-7.8,7.8-7.8h5.1c1.4-0.5,2.8-0.8,4.3-0.8l17.7-3.9H86.8
	c-6.9,0-12.5,5.6-12.5,12.5v51.4h-5.2v4.7H74.3z"/>
<path class="st5" d="M243.4,205l-15.7,10.2l-2.2,1.4v2.6v53c0,2.6-1.5,4.9-3.8,6c4.5,0,7.5-0.2,8.3-3.8c0.1-0.7,0.2-1.5,0.2-2.2
	c0,0,0,0,0,0v-53l17.8-11.6v-86.4c0-1.3-1.1-2.4-2.4-2.4c-1.3,0-2.4,1.1-2.4,2.4V205z"/>
<path class="st5" d="M91.9,7.2h22c4.3,0,7.8,3.5,7.8,7.8v53.5v10.2l4.7-63.6c0-1.3-0.2-2.5-0.6-3.7c-0.5-1.6-1.3-3-2.3-4.2
	c-1-1.2-2.3-2.3-3.7-3c-1.8-1-3.8-1.5-6-1.5L96.3,6.5C94.7,6.5,93.3,6.7,91.9,7.2"/>
<path class="st5" d="M167.3,44.7l-2.7,0.2l9,24l1.1,3.1h3.3h50.6l14.8,9.4v17.8c0,1.3,1.1,2.4,2.4,2.4c1.3,0,2.4-1.1,2.4-2.4V78.7
	L230,67.2h-52L167.3,44.7z"/>
<polygon class="st5" points="74.3,213.5 70.8,213.5 69.8,216.7 62.4,239.2 65.6,239.5 74.3,218.2 120.3,213.8 "/>
<polygon class="st5" points="64.4,45.9 64.4,66.4 64.4,71.1 69.1,71.1 69.1,66.4 69.1,41.2 52.7,45.9 "/>
<polygon class="st5" points="169.7,214.7 164.9,214.7 164.9,219.4 164.9,239.9 169.7,240.3 169.7,219.4 169.7,219.4 169.7,214.7 "/>
<line class="st6" x1="131.8" y1="89.7" x2="171.2" y2="89.7"/>
<line class="st6" x1="131.8" y1="94.4" x2="171.2" y2="94.4"/>
<line class="st6" x1="131.8" y1="99.1" x2="171.2" y2="99.1"/>
<line class="st6" x1="131.8" y1="103.9" x2="171.2" y2="103.9"/>
<line class="st6" x1="132.6" y1="193.8" x2="172" y2="193.8"/>
<line class="st6" x1="132.6" y1="135.4" x2="172" y2="135.4"/>
<line class="st7" x1="132.6" y1="140.1" x2="172" y2="140.1"/>
<line class="st6" x1="99.4" y1="163.8" x2="99.4" y2="203.2"/>
<line class="st6" x1="171.2" y1="110.7" x2="152.4" y2="110.7"/>
<line class="st6" x1="171.2" y1="116.2" x2="152.4" y2="116.2"/>
<line class="st7" x1="171.2" y1="121.7" x2="152.4" y2="121.7"/>
<line class="st6" x1="113.7" y1="96.4" x2="113.7" y2="77.6"/>
<line class="st6" x1="161.7" y1="198.2" x2="142.9" y2="198.2"/>
<line class="st6" x1="79" y1="184.7" x2="79" y2="203.3"/>
<line class="st6" x1="58.3" y1="164" x2="39.7" y2="164"/>
<line class="st6" x1="79" y1="76.2" x2="79" y2="173"/>
<line class="st6" x1="85.3" y1="76.2" x2="85.3" y2="203.3"/>
<line class="st6" x1="91.6" y1="76.2" x2="91.6" y2="203.3"/>
<path class="st8" d="M48.6,116.2l14.2,8.2v16.4L48.6,149l-14.2-8.2v-16.4L48.6,116.2z M48.6,111.7l-18.1,10.5v20.9l18.1,10.5
	l18.1-10.5v-20.9L48.6,111.7z"/>
<path class="st8" d="M140.5,151.7l14.2,8.2v16.4l-14.2,8.2l-14.2-8.2v-16.4L140.5,151.7z M140.5,147.2l-18.1,10.5v20.9l18.1,10.5
	l18.1-10.5v-20.9L140.5,147.2z"/>
<line class="st6" x1="32.8" y1="158.7" x2="65.8" y2="158.7"/>
<polygon class="st8" points="188.6,161.4 182.3,165 182.3,169.6 188.6,165.9 202.8,174.1 202.8,190.5 188.6,198.7 182.3,195.1 
	182.3,199.6 188.6,203.3 206.7,192.8 206.7,171.9 "/>
<polygon class="st8" points="236.7,84.9 243,88.5 243,93.1 236.7,89.4 222.5,97.6 222.5,114 236.7,122.2 243,118.6 243,123.1 
	236.7,126.8 218.6,116.3 218.6,95.4 "/>
</svg>
