<?xml version="1.0" encoding="utf-8"?>
<!-- Generator: Adobe Illustrator 23.0.5, SVG Export Plug-In . SVG Version: 6.00 Build 0)  -->
<svg version="1.1" id="Layer_1" xmlns="http://www.w3.org/2000/svg" xmlns:xlink="http://www.w3.org/1999/xlink" x="0px" y="0px"
	 viewBox="0 0 425.2 425.2" style="enable-background:new 0 0 425.2 425.2;" xml:space="preserve">
<style type="text/css">
	.st0{fill:#FDFEFE;stroke:#000000;stroke-width:5;stroke-miterlimit:10;}
	.st1{fill:#80AFDE;}
	.st2{fill:#141445;}
</style>
<circle class="st0" cx="212.6" cy="212.6" r="212.6"/>
<path class="st1" d="M275.79,57.44c0.76-2.31,1.61-4.6,2.54-6.86c2.63-6.43,5.84-12.64,9.56-18.52c1.89-2.98,3.9-5.88,6.03-8.69
	c1.93-2.55,4.02-5.96,6.54-7.96c-13.49,9.97-24.39,23.71-31.67,39.29c-3.57,7.82-6.24,16.11-7.87,24.64
	c-0.78,4.27-1.35,8.59-1.62,12.96c-5.56-3.56-11.66-6.34-18.12-7.96c-10.86-2.78-22.48-2.21-33.19,1.16
	c-21.72,6.53-38.33,26.28-41.6,48.41c-3.73,22.06,6.49,45.56,24.69,57.81c17.44,12.63,41.77,13.8,59.65,3.92
	c3.39,2.44,7.08,4.43,10.99,5.66c2.22,0.71,4.52,1.13,6.8,1.36l6.83,0.07l-6.58-1.33c-2.13-0.61-4.16-1.48-6.11-2.43
	c-3.89-1.93-7.33-4.59-10.23-7.67l-0.96-1.02l-1.61,0.64c-8.95,3.56-18.51,4.54-27.63,3.13c-9.08-1.59-17.65-5.28-24.56-11
	c-13.93-11.32-20.96-29.8-17.52-46.9c2.86-17.05,15.77-31.89,32.26-37.33c10.05-3.31,21.03-3.15,31.08,0.08
	c10.81,3.48,18.14,10.35,26.36,17.68c1.14,1.02,2.28,2.03,3.42,3.05c-1.28-11.1-3.25-22.02-2.77-33.25
	C270.92,76.56,272.7,66.79,275.79,57.44"/>
<path class="st2" d="M159.76,409.78c15.72-18.72,25.37-41.44,27.45-64.65l0.66-7.4l6.68,4.13c16.43,10.16,38.11,9.34,53.39-0.98
	c7.64-5.13,13.82-12.34,17.55-20.62c3.73-8.27,4.94-17.65,3.53-26.59c-2.39-18.05-16.42-33.85-34.24-38.99
	c-8.87-2.58-18.62-2.72-27.68-0.17c-9.1,2.53-17.45,7.84-24,14.95l-6.7,7.27l-0.87-9.36c-0.89-9.67-4.14-19.32-10.01-27.43
	c-5.8-8.14-14.32-14.55-24.38-17.89c10.49,1.38,20.73,6.63,28.24,14.72c7.56,8.03,12.62,18.43,14.62,29.44l-7.56-2.09
	c13.2-18.43,38.81-27.94,61.68-21.81c11.39,2.78,22.13,8.94,29.99,17.75c7.98,8.67,13.4,19.78,15.17,31.46
	c3.85,23.38-7.72,48.54-28.21,60.48c-10.04,6.13-21.91,9.22-33.54,8.76c-11.63-0.48-23.07-4.34-32.28-11.09l7.34-3.27
	C192.12,371.34,178.76,394.29,159.76,409.78"/>
</svg>
