<?xml version="1.0" encoding="utf-8"?>
<!-- Generator: Adobe Illustrator 23.0.5, SVG Export Plug-In . SVG Version: 6.00 Build 0)  -->
<svg version="1.1" id="Layer_1" xmlns="http://www.w3.org/2000/svg" xmlns:xlink="http://www.w3.org/1999/xlink" x="0px" y="0px"
	 viewBox="0 0 283.5 283.5" style="enable-background:new 0 0 283.5 283.5;" xml:space="preserve">
<style type="text/css">
	.st0{fill:#061F3E;}
	.st1{fill:#C0ECFF;}
	.st2{fill:#0E142F;}
	.st3{fill:#0A0D16;}
</style>
<polygon class="st0" points="182.1,180 163,196.4 214.7,268.5 233.7,255.6 229.2,244 "/>
<path class="st1" d="M176.1,89.8c0,41.8-33.9,75.6-75.6,75.6c-41.8,0-75.6-33.9-75.6-75.6c0-41.8,33.9-75.6,75.6-75.6
	C142.2,14.1,176.1,48,176.1,89.8"/>
<path class="st2" d="M153.6,147.7l-23.3,17.2l28.5,38.7l23.3-17.2L153.6,147.7z M142.2,166.7l9.5-7l18.3,24.8l-9.5,7L142.2,166.7z"
	/>
<path class="st3" d="M235.6,245l-52.2-70.9l-36.7,27l52.2,70.9c4.1,5.5,11.8,6.7,17.3,2.6l16.7-12.3
	C238.5,258.3,239.7,250.5,235.6,245 M227.4,255.8l-15.9,11.7c-1.9,1.4-4.6,1-6-0.9L158.7,203l22.8-16.8l46.8,63.5
	C229.8,251.6,229.4,254.3,227.4,255.8"/>
<path class="st2" d="M54.9,72.4c2,0,3.7,1.3,4.2,3.2l6,22.8c1.5,5.7,2.8,11.1,3.8,16.4h0.3c1.1-5.2,2.8-10.8,4.6-16.3l7.4-23.1
	c0.6-1.8,2.2-3,4.1-3h1.5c1.9,0,3.6,1.2,4.1,3l7,22.7c1.8,6.1,3.3,11.5,4.5,16.8h0.2c0.9-5.2,2.3-10.6,4-16.7l6.4-22.6
	c0.5-1.9,2.2-3.1,4.2-3.1c2.9,0,5,2.9,4.1,5.7l-13.8,42.7c-0.6,1.8-2.2,3-4.1,3h-2.2c-1.9,0-3.5-1.2-4.1-3l-6.8-21.5
	c-1.9-5.8-3.3-10.9-4.6-16.9h-0.2c-1.3,6.2-2.9,11.5-4.7,17l-7.3,21.5c-0.6,1.8-2.2,2.9-4.1,2.9h-2.2c-1.9,0-3.6-1.3-4.1-3.1
	L50.4,78c-0.8-2.8,1.2-5.6,4.1-5.6H54.9z"/>
<path class="st2" d="M134.4,72.4c2,0,3.7,1.3,4.2,3.2l6,22.8c1.5,5.7,2.8,11.1,3.8,16.4h0.3c1.1-5.2,2.8-10.8,4.6-16.3l7.4-23.1
	c0.6-1.8,2.2-3,4.1-3h1.5c1.9,0,3.6,1.2,4.1,3l7,22.7c1.8,6.1,3.3,11.5,4.5,16.8h0.2c0.9-5.2,2.3-10.6,4-16.7l6.4-22.6
	c0.5-1.9,2.2-3.1,4.2-3.1c2.9,0,5,2.9,4.1,5.7l-13.8,42.7c-0.6,1.8-2.2,3-4.1,3h-2.2c-1.9,0-3.5-1.2-4.1-3L170,99.3
	c-1.9-5.8-3.3-10.9-4.6-16.9h-0.2c-1.3,6.2-2.9,11.5-4.7,17l-7.3,21.5c-0.6,1.8-2.2,2.9-4.1,2.9h-2.2c-1.9,0-3.6-1.3-4.1-3.1
	L129.9,78c-0.8-2.8,1.2-5.6,4.1-5.6H134.4z"/>
<path class="st2" d="M213.8,72.4c2,0,3.7,1.3,4.2,3.2l6,22.8c1.5,5.7,2.8,11.1,3.8,16.4h0.3c1.1-5.2,2.8-10.8,4.6-16.3l7.4-23.1
	c0.6-1.8,2.2-3,4.1-3h1.5c1.9,0,3.6,1.2,4.1,3l7,22.7c1.8,6.1,3.3,11.5,4.5,16.8h0.2c0.9-5.2,2.3-10.6,4-16.7l6.4-22.6
	c0.5-1.9,2.2-3.1,4.2-3.1c2.9,0,5,2.9,4.1,5.7l-13.8,42.7c-0.6,1.8-2.2,3-4.1,3h-2.2c-1.9,0-3.5-1.2-4.1-3l-6.8-21.5
	c-1.9-5.8-3.3-10.9-4.6-16.9h-0.2c-1.3,6.2-2.9,11.5-4.7,17l-7.3,21.5c-0.6,1.8-2.2,2.9-4.1,2.9h-2.2c-1.9,0-3.6-1.3-4.1-3.1
	L209.3,78c-0.8-2.8,1.2-5.6,4.1-5.6H213.8z"/>
<path class="st2" d="M167.3,142.2c1.9-2.7,0.2-6.6-3.1-6.9c-1.5-0.1-3,0.6-3.9,1.9c-1.5,2.3-3.2,4.5-5,6.6l6.1,6.1
	C163.5,147.4,165.5,144.9,167.3,142.2"/>
<path class="st2" d="M155.3,143.7c-3.9,4.6-8.4,8.9-13.4,12.6c-16.6,12.3-37,17.3-57.5,14.2c-21.3-3.2-40-14.9-52.2-32.8
	c-10.6-15.5-15.3-34.5-12.9-53.2c2.6-21.3,13.7-40.1,30.9-52.8c2.3-1.7,4.6-3.2,7.1-4.6c2.4-1.4,4.9-2.7,7.5-3.8
	c2.5-1.1,5.1-2.1,7.8-3c2.6-0.8,5.3-1.5,8.1-2.1c2.7-0.6,5.5-1,8.2-1.2c1.4-0.1,2.7-0.2,4.1-0.3c2.3-0.1,4.1-1.9,4.1-4.2v-0.2
	c0-2.4-2-4.3-4.3-4.2C75.6,8.8,59.1,14.5,45,24.9c-18.5,13.6-30.5,33.6-34,56.3c-3.5,23.3,2.5,46.5,16.8,65.2
	c13.9,18.1,34.6,30,57.2,32.9c3.7,0.5,7.4,0.7,11.1,0.7c18.2,0,35.9-5.8,50.8-16.8c5.4-3.9,10.2-8.4,14.4-13.4L155.3,143.7z"/>
<path class="st2" d="M163.2,47.2L163.2,47.2c-2.1,1.2-2.8,3.9-1.5,6c1.2,1.9,2.3,3.9,3.3,5.9c0.7,1.4,2.1,2.2,3.6,2.3
	c3.3,0.2,5.4-3.5,3.9-6.5c-1.1-2.1-2.3-4.2-3.6-6.3C167.8,46.7,165.2,46.1,163.2,47.2"/>
<path class="st2" d="M121.5,12c-2.7-0.8-5.5,1.2-5.6,4.1c0,2,1.4,3.6,3.2,4.2c12.4,3.8,23.5,10.7,32.5,20c1.6,1.6,4.1,1.8,5.9,0.3
	c1.9-1.6,2-4.5,0.3-6.3C147.8,23.9,135.3,16.2,121.5,12"/>
</svg>
