<?xml version="1.0" encoding="utf-8"?>
<!-- Generator: Adobe Illustrator 23.0.5, SVG Export Plug-In . SVG Version: 6.00 Build 0)  -->
<svg version="1.1" id="Layer_1" xmlns="http://www.w3.org/2000/svg" xmlns:xlink="http://www.w3.org/1999/xlink" x="0px" y="0px"
	 viewBox="0 0 283.5 283.5" style="enable-background:new 0 0 283.5 283.5;" xml:space="preserve">
<style type="text/css">
	.st0{fill:#0E142F;}
	.st1{fill:#F7931E;}
	.st2{fill:#0000FF;}
	.st3{fill:#FFFFFF;}
	.st4{fill:url(#SVGID_1_);}
	.st5{fill:#88B4E0;}
	.st6{fill:none;stroke:#0E142F;stroke-width:3.793;stroke-miterlimit:10;}
	.st7{fill:none;stroke:#050505;stroke-width:3.793;stroke-miterlimit:10;}
</style>
<path class="st0" d="M184.3,212.4c-2.3,0.3-3.6,2.8-2.6,4.9c0.7,1.4,2.3,2.2,3.8,2c10.4-1.5,20.8-0.3,30.6,3.4
	c1.7,0.6,3.7-0.1,4.4-1.8c0.8-1.8-0.1-4-2-4.7C207.6,211.9,195.9,210.7,184.3,212.4"/>
<path d="M24.3,231.1c-9.2,7.3-10.7,20.6-3.4,29.7c7.3,9.2,20.6,10.7,29.7,3.4l-0.1,2.2l-26.5-35.2L24.3,231.1z"/>
<polygon class="st1" points="53.6,190.8 96,244.3 199.3,219.6 106.9,103.3 "/>
<polygon class="st1" points="21.8,216.6 61.8,267 92.7,249.6 49.2,194.8 "/>
<path class="st2" d="M123.2,19.5L90.6,35c-3,1.4-4.3,5-2.9,8l15.5,32.7c1.4,3,5,4.3,8,2.9l32.7-15.5c3-1.4,4.3-5,2.9-8l-15.5-32.7
	C129.9,19.4,126.2,18.1,123.2,19.5"/>
<path class="st3" d="M132.2,41.9l-6.8,3.2l-2.6-5.4c-0.7-1.5,0.6-1.9,2.1-2.7l2.7-1.3l-3.2-6.8l-5.4,2.6c-4.5,2.1-6.4,7.5-4.3,12
	l2.6,5.4l-5.4,2.6l3.2,6.8l5.4-2.6l7.1,15l8.2-3.9l-7.1-15l4.1-1.9L132.2,41.9z"/>
<linearGradient id="SVGID_1_" gradientUnits="userSpaceOnUse" x1="230.2417" y1="149.2445" x2="270.8017" y2="106.2845">
	<stop  offset="0" style="stop-color:#F1D200"/>
	<stop  offset="0.5846" style="stop-color:#F60400"/>
	<stop  offset="0.9665" style="stop-color:#7D37B0"/>
</linearGradient>
<path class="st4" d="M232.3,104.8c-4,3.6-3.5,7.8-4.3,20.3c-0.7,10.4-3.2,20.7,6,23.8c2.9,1,29,2.7,32,2.2c4-0.8,7.4-3.7,8.2-9.3
	c0.1-0.8,1.8-26.1,1.8-26.9c-0.1-6-3.5-9.7-8.2-10.7c-1.1-0.2-1.3-0.3-6.9-0.7C240.9,102.1,236.5,100.9,232.3,104.8"/>
<path class="st3" d="M252.8,109.1c-7.1-0.5-13.9-1.6-16.9,4.9c-1.3,2.7-1.3,6.3-1.7,11.4c-0.3,4.5-0.7,8.7,0.1,11.5
	c2.1,6.9,9,6.7,16.1,7.2c6.8,0.5,13.8,1.7,16.9-4.9c1.3-2.7,1.3-6.3,1.7-11.4c0.5-6.8,1.1-11.2-1.9-14.8
	C263.9,109.5,259.4,109.6,252.8,109.1L252.8,109.1z M251,112.2c14.9,1,16.9-0.6,14.3,22.5c-0.9,8.2-7.1,6.8-14.7,6.3
	c-13.9-0.9-14.3-1.4-13.3-15.3C238.2,111.5,239.4,111.4,251,112.2L251,112.2z M261.6,115.8c-1.2-0.1-2.2,0.8-2.2,2
	c-0.1,1.2,0.8,2.2,1.9,2.2c1.2,0.1,2.2-0.8,2.2-2C263.7,116.9,262.8,115.9,261.6,115.8 M252.2,117.7c-4.9-0.3-9.2,3.4-9.6,8.4
	c-0.3,5,3.4,9.3,8.3,9.6c4.9,0.3,9.2-3.4,9.6-8.4C260.8,122.3,257.1,118,252.2,117.7 M252,120.8c7.7,0.5,6.9,12.2-0.8,11.7
	C243.5,132,244.3,120.3,252,120.8"/>
<path class="st5" d="M235.1,35c-1.4,1.7-3.1,3.1-5.1,4.4c1.5-2.2,2.2-5,1.8-7.7c-1.4,2.1-3.2,3.9-5.2,5.5c-2.8-1.1-6-1.1-8.9,0.3
	c-5.6,2.7-7.9,9.3-5.3,14.9c0.4,0.8,0.8,1.5,1.3,2.2c-8.6,3.6-17.9,3.1-25.8-0.7c-0.2,1.9,0.2,3.9,1,5.8c1.7,3.5,4.9,5.7,8.5,6.3
	c-1.6,0.7-3.5,1-5.2,0.9l0.1,0.1c2.3,4.9,7.8,7.3,12.8,6.1c-0.7,0.6-1.6,1.1-2.5,1.6c-0.6,0.3-1.3,0.6-2,0.7
	c3.2,3.4,8.3,4.6,12.8,2.5c-2.2,4.3-5.7,8-10.5,10.3c-0.8,0.4-1.6,0.7-2.5,1c5.8,0.8,11.9-0.1,17.6-2.8c18.6-8.8,21.4-29,15.1-42.4
	c-0.2-0.4-0.4-0.9-0.7-1.3C233.9,40.2,234.7,37.7,235.1,35"/>
<rect x="32.9" y="201.1" transform="matrix(0.7832 -0.6218 0.6218 0.7832 -135.6651 84.827)" class="st6" width="41.8" height="71.7"/>
<path class="st6" d="M50.6,266.5L40,274.9c-5.4,4.3-13.3,3.4-17.6-2l-10.8-13.6c-4.3-5.4-3.4-13.3,2-17.6l10.6-8.4L50.6,266.5z"/>
<polygon class="st6" points="47.9,195.9 92.4,252 198.1,217.1 174.2,187.1 129.7,130.9 105.8,100.9 "/>
<line class="st7" x1="144.3" y1="119.3" x2="161.4" y2="85.5"/>
<line class="st7" x1="225.6" y1="161.9" x2="189.6" y2="173.7"/>
<line class="st7" x1="172.4" y1="138.4" x2="204.6" y2="112.9"/>
</svg>
