<?xml version="1.0" encoding="utf-8"?>
<!-- Generator: Adobe Illustrator 23.0.5, SVG Export Plug-In . SVG Version: 6.00 Build 0)  -->
<svg version="1.1" id="Layer_1" xmlns="http://www.w3.org/2000/svg" xmlns:xlink="http://www.w3.org/1999/xlink" x="0px" y="0px"
	 viewBox="0 0 220 220" style="enable-background:new 0 0 220 220;" xml:space="preserve">
<style type="text/css">
	.st0{fill:#1B75BC;}
	.st1{fill:#FBFDFF;}
</style>
<path class="st0" d="M109.9,220C49.8,220.3-0.3,170.8,0,109.2C0.3,48.8,49.7-0.3,110.8,0c61,0.3,109.9,50.4,109.1,111.4
	C219.3,171.4,170.1,220.3,109.9,220z M49.6,115.3c0,3.3,0,6.7,0,10c0.1,4.4,3.3,7.8,7.7,7.9c1.9,0,2.6,0.4,2.9,2.4
	c2,10.5,11.4,18.9,22,20c0.7,0.1,1.4,0,1.6,1.1c0.4,3.2,1.4,4,4.6,4c4.5,0,9,0,13.6,0c1.2,0,2.3,0.1,3.5-0.2c2.2-0.5,3.4-2,3.5-4.2
	c0-1.5,0-3,0-4.5c0-2.9-1.8-4.8-4.7-4.8c-5.6,0-11.3,0-16.9,0c-0.8,0-1.8,0-2.2,0.7c-1.3,2-3.1,1.5-4.9,1.2
	c-7.4-1.1-13.2-6.3-14.8-13.3c-0.3-1.5-0.3-2.3,1.6-2.6c4.9-0.8,7.7-4.1,7.8-8.7c0.1-6.1,0.1-12.3,0-18.4c0-3.8-1.8-6.8-5.4-8.2
	C67.2,97,67,96,67.3,94c3.2-20.5,21-35.9,41.7-35.7c14.1,0.1,25.5,6,34.1,17.1c4.4,5.6,6.9,12.1,7.9,19.2c0.2,1.1,0.7,2.4-0.9,3.2
	c-3.2,1.4-4.7,4.3-4.7,7.6c-0.2,6.6-0.2,13.1,0,19.7c0.1,5.1,3.5,8.2,8.6,8.2c2.4,0,4.8,0,7.2,0c4.3-0.1,9.6-3.3,9.3-9.4
	c-0.3-5.7-0.1-11.5-0.1-17.3c0-5.2-3.1-8.9-8.3-9.7c-1-0.2-1.4-0.5-1.4-1.5c-0.3-3.8-1-7.6-2.2-11.3c-8.4-26.3-34.8-41.4-61.6-35.3
	C75,53.8,58.8,73,57,95.2c-0.1,1.1-0.4,1.6-1.5,2c-4,1.4-6,4.2-6,8.4C49.6,108.9,49.6,112.1,49.6,115.3z"/>
<path class="st1" d="M49.6,115.3c0-3.2,0-6.4,0-9.7c0-4.2,2-7,6-8.4c1.1-0.4,1.4-0.9,1.5-2C58.8,73,75,53.8,96.8,48.9
	c26.9-6.1,53.3,9,61.6,35.3c1.2,3.7,1.9,7.4,2.2,11.3c0.1,1,0.4,1.3,1.4,1.5c5.3,0.8,8.3,4.4,8.3,9.7c0,5.8-0.2,11.5,0.1,17.3
	c0.3,6.1-5,9.3-9.3,9.4c-2.4,0-4.8,0-7.2,0c-5.2,0-8.5-3.1-8.6-8.2c-0.1-6.6-0.1-13.1,0-19.7c0.1-3.3,1.5-6.2,4.7-7.6
	c1.7-0.8,1.1-2.1,0.9-3.2c-1-7.1-3.6-13.5-7.9-19.2c-8.6-11.1-20-17-34.1-17.1C88.3,58.1,70.5,73.5,67.3,94c-0.3,2-0.1,3,2,3.8
	c3.6,1.4,5.3,4.3,5.4,8.2c0.1,6.1,0.1,12.3,0,18.4c0,4.7-2.9,7.9-7.8,8.7c-1.9,0.3-1.9,1.1-1.6,2.6c1.6,7,7.4,12.2,14.8,13.3
	c1.8,0.3,3.6,0.8,4.9-1.2c0.4-0.7,1.4-0.7,2.2-0.7c5.6,0,11.3,0,16.9,0c2.9,0,4.7,1.9,4.7,4.8c0,1.5,0,3,0,4.5
	c0,2.3-1.2,3.7-3.5,4.2c-1.2,0.3-2.3,0.2-3.5,0.2c-4.5,0-9,0-13.6,0c-3.2,0-4.1-0.8-4.6-4c-0.2-1.1-0.8-1-1.6-1.1
	c-10.6-1.1-20-9.5-22-20c-0.4-2-1.1-2.4-2.9-2.4c-4.4,0-7.6-3.4-7.7-7.9C49.5,122,49.6,118.6,49.6,115.3z"/>
</svg>
