<?xml version="1.0" encoding="utf-8"?>
<!-- Generator: Adobe Illustrator 23.0.5, SVG Export Plug-In . SVG Version: 6.00 Build 0)  -->
<svg version="1.1" id="Layer_1" xmlns="http://www.w3.org/2000/svg" xmlns:xlink="http://www.w3.org/1999/xlink" x="0px" y="0px"
	 viewBox="0 0 204.9 204.9" style="enable-background:new 0 0 204.9 204.9;" xml:space="preserve">
<style type="text/css">
	.st0{fill:#BCBEC0;}
</style>
<g>
	<path class="st0" d="M102.8,201.5c-27.6,0-55.3,0-82.9,0c-12.3,0-16.6-4.3-16.6-16.3c-0.1-14-0.1-27.9,0-41.9
		c0.1-10,4.6-15.8,12.3-16c7.9-0.2,12.3,5.3,12.5,15.6c0.2,9.1,0.2,18.2,0,27.3c-0.1,4.4,0.9,6.6,6,6.6c45.6-0.1,91.1-0.1,136.7,0
		c4.3,0,5.9-1.5,5.8-5.8c-0.2-9.4-0.2-18.8,0-28.2c0.2-10,5-15.7,12.8-15.5c7.4,0.2,12.1,5.8,12.2,15.2c0.2,14.6,0.2,29.2,0,43.7
		c-0.1,10.8-4.8,15.3-15.8,15.3C158.1,201.5,130.4,201.5,102.8,201.5z"/>
	<path class="st0" d="M87.7,46.4C79.8,54.7,72,63.2,64,71.4c-7.2,7.3-14.3,8.1-19.8,2.6c-5.3-5.4-4.4-12.8,2.5-19.8
		C62,38.9,77.2,23.6,92.5,8.5c6.7-6.7,12.9-6.8,19.7-0.1c15.8,15.5,31.4,31.2,47,46.9c5.9,6,6.3,13.7,1.5,18.6
		c-5.1,5.2-12.2,5.1-18.5-1.1c-8.7-8.5-16.9-17.4-25.2-26c-3.8,2.7-2.4,5.7-2.4,8.1c-0.1,27.3-0.1,54.6-0.1,81.9
		c0,9.6-4.4,15-11.9,15.1c-7.4,0.2-12.1-5.5-12.1-14.9c-0.1-29.7,0-59.3,0-89C89.5,47.5,88.6,46.9,87.7,46.4z"/>
</g>
</svg>
