<?xml version="1.0" encoding="utf-8"?>
<!-- Generator: Adobe Illustrator 23.0.5, SVG Export Plug-In . SVG Version: 6.00 Build 0)  -->
<svg version="1.1" id="Layer_1" xmlns="http://www.w3.org/2000/svg" xmlns:xlink="http://www.w3.org/1999/xlink" x="0px" y="0px"
	 viewBox="0 0 283.46 283.46" style="enable-background:new 0 0 283.46 283.46;" xml:space="preserve">
<style type="text/css">
	.st0{fill:#061F3E;}
	.st1{fill:#88B5E0;}
	.st2{fill:#0F142F;}
	.st3{fill:#0B0E17;}
	.st4{fill:#5E90CC;}
	.st5{fill:#4274B9;}
	.st6{fill:none;stroke:#0F142F;stroke-width:3.665;stroke-linecap:round;stroke-miterlimit:10;}
	.st7{fill:#FFFFFF;}
	.st8{fill:none;stroke:#FFFFFF;stroke-width:0.792;stroke-miterlimit:10;}
	.st9{fill:none;stroke:#FFFFFF;stroke-width:0.792;stroke-miterlimit:10;stroke-dasharray:2.001,2.001;}
	.st10{fill:none;stroke:#FFFFFF;stroke-width:0.792;stroke-miterlimit:10;stroke-dasharray:1.979,1.979;}
	.st11{fill:none;stroke:#FFFFFF;stroke-width:0.396;stroke-miterlimit:10;}
	.st12{fill:none;stroke:#0F142F;stroke-width:0.396;stroke-miterlimit:10;}
	.st13{fill:none;stroke:#0F142F;stroke-width:3.793;stroke-miterlimit:10;}
	.st14{fill:none;stroke:#4274B9;stroke-width:3.793;stroke-miterlimit:10;}
	.st15{fill:#FDFEFF;}
</style>
<polygon class="st0" points="-574.12,-31.5 -588.37,-19.26 -549.65,34.76 -535.49,25.11 -538.82,16.43 "/>
<path class="st1" d="M-578.61-99.08c0,31.27-25.35,56.62-56.63,56.62c-31.27,0-56.63-25.35-56.63-56.62
	c0-31.27,25.35-56.63,56.63-56.63C-603.96-155.7-578.61-130.35-578.61-99.08"/>
<path class="st2" d="M-595.46-55.72l-17.48,12.89l21.34,28.96l17.48-12.89L-595.46-55.72z M-603.95-41.47l7.12-5.25l13.71,18.6
	l-7.12,5.25L-603.95-41.47z"/>
<path class="st3" d="M-534.04,17.19l-39.12-53.08l-27.45,20.24l39.12,53.07c3.04,4.13,8.85,5.01,12.97,1.97l12.52-9.23
	C-531.88,27.12-531,21.32-534.04,17.19 M-540.14,25.22l-11.88,8.75c-1.44,1.06-3.47,0.75-4.53-0.69l-35.06-47.57l17.09-12.6
	l35.07,47.57C-538.39,22.13-538.7,24.16-540.14,25.22"/>
<path class="st2" d="M-656.93-112.08c1.47,0,2.76,0.99,3.13,2.41l4.53,17.11c1.11,4.29,2.08,8.32,2.86,12.27h0.19
	c0.86-3.87,2.13-8.05,3.45-12.22l5.56-17.33c0.43-1.34,1.68-2.25,3.08-2.25h1.14c1.42,0,2.67,0.92,3.09,2.28l5.28,16.96
	c1.37,4.56,2.51,8.64,3.4,12.56h0.19c0.7-3.9,1.74-7.95,2.99-12.49l4.83-16.95c0.4-1.39,1.67-2.35,3.11-2.35
	c2.2,0,3.76,2.14,3.08,4.24l-10.33,31.99c-0.43,1.34-1.68,2.24-3.08,2.24h-1.63c-1.41,0-2.66-0.91-3.09-2.26l-5.13-16.1
	c-1.39-4.31-2.48-8.16-3.41-12.68h-0.16c-0.97,4.64-2.16,8.63-3.52,12.74l-5.44,16.09c-0.45,1.32-1.68,2.2-3.07,2.2h-1.67
	c-1.43,0-2.69-0.94-3.1-2.31l-9.64-31.99c-0.63-2.08,0.93-4.18,3.1-4.18H-656.93z"/>
<path class="st2" d="M-597.44-112.08c1.47,0,2.75,0.99,3.13,2.41l4.53,17.11c1.11,4.29,2.08,8.32,2.86,12.27h0.19
	c0.86-3.87,2.13-8.05,3.45-12.22l5.56-17.33c0.43-1.34,1.68-2.25,3.08-2.25h1.14c1.42,0,2.67,0.92,3.09,2.28l5.28,16.96
	c1.37,4.56,2.51,8.64,3.4,12.56h0.19c0.7-3.9,1.74-7.95,2.99-12.49l4.82-16.95c0.4-1.39,1.67-2.35,3.12-2.35
	c2.2,0,3.76,2.14,3.08,4.24l-10.33,31.99c-0.43,1.34-1.68,2.24-3.08,2.24h-1.63c-1.41,0-2.66-0.91-3.09-2.26l-5.13-16.1
	c-1.39-4.31-2.48-8.16-3.41-12.68h-0.16c-0.97,4.64-2.16,8.63-3.52,12.74l-5.44,16.09c-0.45,1.32-1.68,2.2-3.07,2.2h-1.67
	c-1.43,0-2.69-0.94-3.1-2.31l-9.64-31.99c-0.63-2.08,0.93-4.18,3.1-4.18H-597.44z"/>
<path class="st2" d="M-537.94-112.08c1.47,0,2.75,0.99,3.13,2.41l4.53,17.11c1.11,4.29,2.08,8.32,2.86,12.27h0.19
	c0.86-3.87,2.13-8.05,3.45-12.22l5.56-17.33c0.43-1.34,1.68-2.25,3.08-2.25h1.14c1.42,0,2.67,0.92,3.09,2.28l5.28,16.96
	c1.37,4.56,2.51,8.64,3.4,12.56h0.19c0.7-3.9,1.74-7.95,2.99-12.49l4.82-16.95c0.4-1.39,1.67-2.35,3.12-2.35
	c2.2,0,3.76,2.14,3.08,4.24l-10.33,31.99c-0.43,1.34-1.68,2.24-3.08,2.24h-1.63c-1.41,0-2.66-0.91-3.09-2.26l-5.13-16.1
	c-1.39-4.31-2.48-8.16-3.41-12.68h-0.16c-0.97,4.64-2.16,8.63-3.52,12.74l-5.44,16.09c-0.45,1.32-1.68,2.2-3.07,2.2h-1.67
	c-1.43,0-2.69-0.94-3.1-2.31l-9.64-31.99c-0.63-2.08,0.93-4.18,3.1-4.18H-537.94z"/>
<path class="st2" d="M-585.21-59.8c1.39-2.05,0.14-4.97-2.33-5.16c-1.15-0.09-2.27,0.44-2.91,1.39c-1.15,1.7-2.39,3.34-3.72,4.92
	l4.57,4.57C-588.02-55.91-586.56-57.82-585.21-59.8"/>
<path class="st2" d="M-594.17-58.66c-2.92,3.48-6.27,6.65-10.02,9.41c-12.45,9.18-27.74,12.96-43.03,10.64
	c-15.96-2.42-29.93-11.16-39.11-24.54c-7.97-11.62-11.43-25.84-9.7-39.82c1.98-15.95,10.24-30.04,23.12-39.53
	c1.7-1.25,3.47-2.42,5.3-3.48c1.82-1.06,3.69-2.02,5.6-2.87c1.9-0.85,3.86-1.59,5.84-2.23c1.98-0.64,3.99-1.16,6.03-1.57
	c2.04-0.42,4.1-0.72,6.18-0.91c1.02-0.09,2.05-0.16,3.07-0.2c1.71-0.06,3.08-1.44,3.08-3.15v-0.13c0-1.77-1.46-3.22-3.24-3.15
	c-12.8,0.47-25.15,4.75-35.68,12.52c-13.84,10.2-22.88,25.17-25.45,42.17c-2.64,17.41,1.84,34.81,12.59,48.83
	c10.41,13.57,25.91,22.46,42.87,24.64c2.78,0.36,5.55,0.53,8.31,0.53c13.63,0,26.86-4.32,38.04-12.56
	c4.01-2.96,7.61-6.32,10.77-10.02L-594.17-58.66z"/>
<path class="st2" d="M-588.22-130.97L-588.22-130.97c-1.6,0.9-2.13,2.95-1.15,4.51c0.9,1.44,1.74,2.91,2.5,4.41
	c0.52,1.02,1.56,1.68,2.7,1.73c2.48,0.12,4.06-2.66,2.93-4.86c-0.83-1.6-1.73-3.18-2.69-4.72
	C-584.84-131.34-586.73-131.8-588.22-130.97"/>
<path class="st2" d="M-619.49-157.34c-2.05-0.63-4.13,0.9-4.16,3.05c-0.02,1.47,1.03,2.73,2.43,3.16c9.25,2.88,17.57,8,24.31,14.99
	c1.18,1.23,3.1,1.35,4.41,0.25c1.43-1.2,1.53-3.36,0.24-4.71C-599.8-148.42-609.12-154.15-619.49-157.34"/>
<path class="st4" d="M255.66,129.63c0,64.59-52.36,116.96-116.96,116.96c-64.59,0-116.96-52.36-116.96-116.96
	c0-64.59,52.36-116.96,116.96-116.96C203.3,12.67,255.66,65.03,255.66,129.63"/>
<path class="st2" d="M208.61,276.85h-0.18c-3.35-0.08-6.3-2.25-7.36-5.44l-33.6-100.78c-0.95-2.86-0.21-6.01,1.92-8.15
	c2.13-2.14,5.28-2.88,8.15-1.92l100.78,33.6c3.18,1.06,5.36,4.01,5.44,7.36c0.07,3.35-1.96,6.41-5.1,7.61l-45.23,17.4l-17.4,45.23
	C214.85,274.83,211.89,276.85,208.61,276.85"/>
<path class="st2" d="M246.15,92.82c-1.85,0-3.61-1.09-4.38-2.9c-2.06-4.85-4.46-9.61-7.14-14.16c-1.34-2.26-0.58-5.18,1.68-6.51
	c2.26-1.34,5.18-0.58,6.51,1.68c2.89,4.9,5.49,10.04,7.71,15.27c1.03,2.42-0.1,5.21-2.52,6.24C247.4,92.7,246.77,92.82,246.15,92.82
	"/>
<path class="st2" d="M130.28,112.12c-11.33,0-22.57-1.45-33.42-4.32c-2.54-0.67-4.06-3.27-3.38-5.81c0.67-2.54,3.28-4.05,5.81-3.38
	c10.06,2.65,20.48,4,30.99,4c2.63,0,4.76,2.13,4.76,4.76C135.03,109.99,132.9,112.12,130.28,112.12"/>
<path class="st2" d="M148.53,110.8c-2.32,0-4.36-1.7-4.7-4.07c-0.38-2.6,1.42-5.01,4.02-5.39c16.75-2.44,32.52-8.25,46.87-17.29
	c2.22-1.4,5.16-0.73,6.56,1.49c1.4,2.22,0.73,5.16-1.49,6.56c-15.48,9.75-32.49,16.03-50.57,18.66
	C148.99,110.78,148.76,110.8,148.53,110.8"/>
<path class="st2" d="M150.16,110.55c-2.3,0-4.32-1.67-4.69-4.01c-0.41-2.59,1.36-5.03,3.95-5.44c23.12-3.67,44.57-13.96,62.03-29.74
	c1.95-1.76,4.95-1.61,6.72,0.34c1.76,1.95,1.61,4.95-0.34,6.72c-18.82,17.02-41.96,28.12-66.91,32.08
	C150.66,110.53,150.41,110.55,150.16,110.55"/>
<path class="st2" d="M96.96,107.66c-0.42,0-0.84-0.06-1.26-0.17c-26.66-7.3-50.82-23.35-68.03-45.18l-2.32-2.94l2.32-2.95
	c24.95-31.65,62.35-49.8,102.6-49.8c29.94,0,58.1,9.86,81.44,28.51c2.05,1.64,2.39,4.63,0.75,6.68c-1.64,2.05-4.63,2.39-6.68,0.75
	c-21.64-17.29-47.75-26.43-75.5-26.43c-36.06,0-69.64,15.71-92.73,43.23c15.77,18.75,37.18,32.51,60.68,38.95
	c2.53,0.69,4.02,3.31,3.33,5.84C100.97,106.27,99.05,107.66,96.96,107.66"/>
<path class="st2" d="M159.67,195.24c-0.5-0.12-0.99-0.24-1.49-0.36C158.67,195,159.17,195.12,159.67,195.24"/>
<path class="st2" d="M104.74,184.64c0.55-0.11,1.11-0.21,1.67-0.31C105.85,184.43,105.3,184.53,104.74,184.64"/>
<path class="st2" d="M101.64,185.29c0.55-0.12,1.09-0.24,1.64-0.35C102.73,185.05,102.18,185.17,101.64,185.29"/>
<path class="st2" d="M111.02,183.56c0.57-0.08,1.14-0.16,1.72-0.24C112.16,183.4,111.59,183.48,111.02,183.56"/>
<path class="st2" d="M107.87,184.06c0.56-0.1,1.13-0.19,1.7-0.27C109,183.88,108.43,183.97,107.87,184.06"/>
<path class="st2" d="M156.81,194.57c-0.5-0.11-1-0.22-1.51-0.32C155.8,194.35,156.3,194.46,156.81,194.57"/>
<path class="st2" d="M89.43,188.64c0.52-0.17,1.05-0.34,1.58-0.51C90.48,188.3,89.96,188.47,89.43,188.64"/>
<path class="st2" d="M114.19,183.13c0.58-0.07,1.17-0.13,1.76-0.2C115.36,183,114.77,183.06,114.19,183.13"/>
<path class="st2" d="M151.03,193.43c-0.52-0.09-1.04-0.17-1.56-0.25C149.99,193.26,150.51,193.34,151.03,193.43"/>
<path class="st2" d="M86.44,189.66c0.52-0.18,1.04-0.37,1.56-0.55C87.48,189.29,86.96,189.47,86.44,189.66"/>
<path class="st2" d="M153.93,193.97c-0.51-0.1-1.02-0.2-1.53-0.29C152.91,193.77,153.42,193.87,153.93,193.97"/>
<path class="st2" d="M95.49,186.82c0.54-0.15,1.07-0.29,1.61-0.43C96.56,186.53,96.02,186.67,95.49,186.82"/>
<path class="st2" d="M98.55,186.02c0.54-0.13,1.08-0.26,1.62-0.39C99.63,185.75,99.09,185.88,98.55,186.02"/>
<path class="st2" d="M92.45,187.69c0.53-0.16,1.06-0.32,1.59-0.47C93.51,187.38,92.98,187.53,92.45,187.69"/>
<path class="st2" d="M83.48,190.75c0.52-0.2,1.04-0.4,1.56-0.59C84.51,190.36,83.99,190.56,83.48,190.75"/>
<path class="st2" d="M147.81,183.32c0.57,0.08,1.15,0.15,1.72,0.24C148.96,183.48,148.38,183.4,147.81,183.32"/>
<path class="st2" d="M138.05,182.39c0.64,0.04,1.28,0.07,1.92,0.12C139.33,182.47,138.69,182.43,138.05,182.39"/>
<path class="st2" d="M141.36,182.63c0.61,0.05,1.21,0.1,1.82,0.16C142.57,182.73,141.96,182.68,141.36,182.63"/>
<path class="st2" d="M117.37,182.79c0.61-0.06,1.21-0.11,1.82-0.16C118.59,182.68,117.98,182.73,117.37,182.79"/>
<path class="st2" d="M157.27,184.94c0.55,0.11,1.1,0.23,1.64,0.35C158.37,185.17,157.82,185.05,157.27,184.94"/>
<path class="st2" d="M150.98,183.79c0.57,0.09,1.13,0.18,1.7,0.28C152.12,183.97,151.55,183.88,150.98,183.79"/>
<path class="st2" d="M154.14,184.32c0.56,0.1,1.11,0.21,1.67,0.31C155.25,184.53,154.7,184.43,154.14,184.32"/>
<path class="st2" d="M144.6,182.94c0.59,0.06,1.17,0.13,1.76,0.2C145.78,183.06,145.19,183,144.6,182.94"/>
<path class="st2" d="M120.58,182.51c0.64-0.05,1.28-0.08,1.92-0.12C121.86,182.43,121.22,182.47,120.58,182.51"/>
<path class="st2" d="M123.79,182.32c0.72-0.03,1.44-0.06,2.16-0.08C125.23,182.26,124.51,182.28,123.79,182.32"/>
<path class="st2" d="M130.27,182.16c1.09,0,2.17,0.01,3.25,0.04C132.44,182.17,131.36,182.16,130.27,182.16"/>
<path class="st2" d="M134.6,182.24c0.72,0.02,1.44,0.05,2.16,0.08C136.04,182.28,135.32,182.26,134.6,182.24"/>
<path class="st2" d="M127.03,182.2c1.08-0.03,2.16-0.04,3.25-0.04C129.19,182.16,128.11,182.17,127.03,182.2"/>
<path class="st2" d="M80.24,202.42c-0.48,0.22-0.95,0.44-1.42,0.66C79.29,202.86,79.76,202.63,80.24,202.42"/>
<path class="st2" d="M111.08,193.18c-0.52,0.08-1.04,0.16-1.56,0.25C110.04,193.34,110.56,193.26,111.08,193.18"/>
<path class="st2" d="M96.69,196.36c-0.48,0.14-0.97,0.28-1.45,0.43C95.72,196.65,96.2,196.5,96.69,196.36"/>
<path class="st2" d="M91.1,198.11c-0.48,0.16-0.95,0.33-1.43,0.5C90.15,198.44,90.62,198.28,91.1,198.11"/>
<path class="st2" d="M77.59,203.66c-0.5,0.24-0.99,0.49-1.48,0.74C76.6,204.15,77.1,203.9,77.59,203.66"/>
<path class="st2" d="M126.26,191.74c-0.66,0.02-1.33,0.04-1.99,0.07C124.93,191.79,125.59,191.77,126.26,191.74"/>
<path class="st2" d="M99.52,195.59c-0.49,0.13-0.98,0.26-1.47,0.39C98.54,195.85,99.03,195.72,99.52,195.59"/>
<path class="st2" d="M123.06,191.89c-0.59,0.03-1.18,0.07-1.78,0.11C121.88,191.96,122.47,191.92,123.06,191.89"/>
<path class="st2" d="M117,192.39c-0.54,0.06-1.09,0.12-1.63,0.18C115.91,192.51,116.45,192.45,117,192.39"/>
<path class="st2" d="M114.02,192.75c-0.53,0.07-1.06,0.14-1.59,0.22C112.96,192.89,113.49,192.82,114.02,192.75"/>
<path class="st2" d="M88.34,199.09c-0.47,0.18-0.94,0.36-1.42,0.54C87.4,199.45,87.87,199.26,88.34,199.09"/>
<path class="st2" d="M130.27,191.67c-1.01,0-2.01,0.01-3.01,0.04C128.27,191.68,129.27,191.67,130.27,191.67"/>
<path class="st2" d="M120,192.11c-0.56,0.05-1.12,0.09-1.68,0.15C118.88,192.2,119.44,192.15,120,192.11"/>
<path class="st2" d="M93.88,197.2c-0.48,0.15-0.96,0.31-1.44,0.46C92.92,197.51,93.4,197.36,93.88,197.2"/>
<path class="st2" d="M85.61,200.13c-0.47,0.19-0.94,0.38-1.41,0.57C84.67,200.51,85.14,200.32,85.61,200.13"/>
<path class="st2" d="M82.91,201.24c-0.47,0.2-0.94,0.41-1.41,0.62C81.97,201.65,82.44,201.44,82.91,201.24"/>
<path class="st2" d="M102.37,194.88c-0.5,0.12-0.99,0.24-1.49,0.36C101.38,195.12,101.88,195,102.37,194.88"/>
<path class="st2" d="M74.7,194.5c0.53-0.25,1.06-0.5,1.59-0.74C75.76,194,75.23,194.25,74.7,194.5"/>
<path class="st2" d="M71.77,195.93c0.56-0.28,1.11-0.56,1.67-0.83C72.88,195.36,72.32,195.65,71.77,195.93"/>
<path class="st2" d="M142.23,192.25c-0.56-0.05-1.12-0.1-1.68-0.15C141.11,192.15,141.67,192.2,142.23,192.25"/>
<path class="st2" d="M145.18,192.58c-0.54-0.07-1.09-0.12-1.63-0.18C144.09,192.45,144.64,192.51,145.18,192.58"/>
<path class="st2" d="M77.61,193.17c0.52-0.23,1.04-0.46,1.56-0.68C78.65,192.71,78.13,192.94,77.61,193.17"/>
<path class="st2" d="M80.54,191.92c0.52-0.21,1.03-0.43,1.55-0.63C81.57,191.5,81.05,191.71,80.54,191.92"/>
<path class="st2" d="M105.25,194.25c-0.5,0.11-1.01,0.21-1.51,0.32C104.24,194.46,104.75,194.35,105.25,194.25"/>
<path class="st2" d="M139.26,192c-0.59-0.04-1.18-0.08-1.78-0.11C138.08,191.92,138.67,191.96,139.26,192"/>
<path class="st2" d="M136.28,191.82c-0.66-0.03-1.32-0.05-1.99-0.07C134.96,191.77,135.62,191.79,136.28,191.82"/>
<path class="st2" d="M148.11,192.97c-0.53-0.08-1.06-0.15-1.59-0.22C147.06,192.82,147.59,192.89,148.11,192.97"/>
<path class="st2" d="M160.38,185.63c0.54,0.13,1.08,0.26,1.62,0.39C161.46,185.88,160.92,185.75,160.38,185.63"/>
<path class="st2" d="M74.57,205.18c0.14-0.07,0.27-0.15,0.41-0.22C74.84,205.03,74.7,205.11,74.57,205.18L74.57,205.18z"/>
<path class="st2" d="M133.28,191.71c-1-0.03-2-0.04-3.01-0.04C131.28,191.67,132.28,191.68,133.28,191.71"/>
<path class="st2" d="M108.15,193.68c-0.51,0.09-1.02,0.19-1.53,0.29C107.13,193.87,107.64,193.77,108.15,193.68"/>
<path class="st2" d="M40.91,217.55c-0.21,0.2-0.43,0.4-0.64,0.6C20.2,195.88,9.21,167.32,9.21,137.19
	c0-25.48,7.72-49.61,22.38-70.15c7.82,9,16.86,16.87,26.75,23.42c0.74-3.33,1.56-6.61,2.47-9.82c-9.64-6.77-18.33-14.91-25.67-24.22
	l-3.74-4.74l-3.74,4.74C9.37,79.64-0.3,107.57-0.3,137.19c0,32.67,12,63.63,33.86,87.71l3.17-3.25
	C38.1,220.24,39.49,218.88,40.91,217.55"/>
<path class="st2" d="M53.26,207.27c-0.46,0.34-0.93,0.68-1.39,1.03C52.33,207.95,52.79,207.61,53.26,207.27"/>
<path class="st2" d="M43.29,215.36c-0.43,0.39-0.86,0.78-1.29,1.17C42.43,216.14,42.86,215.75,43.29,215.36"/>
<path class="st2" d="M36.73,228.28l3.41,3.5l0.07-0.07C39.03,230.59,37.87,229.45,36.73,228.28"/>
<path class="st2" d="M55.87,205.4c-0.48,0.33-0.96,0.66-1.43,1C54.91,206.06,55.39,205.73,55.87,205.4"/>
<path class="st2" d="M50.7,209.2c-0.45,0.35-0.91,0.7-1.36,1.06C49.79,209.9,50.24,209.55,50.7,209.2"/>
<path class="st2" d="M45.71,213.24c-0.44,0.37-0.87,0.75-1.31,1.13C44.84,213.99,45.28,213.62,45.71,213.24"/>
<path class="st2" d="M260.85,137.19c0-10.41-1.23-20.77-3.65-30.8c-0.58-2.4-2.89-4.11-5.34-3.74c-2.81,0.41-4.6,3.13-3.94,5.83
	c2.27,9.34,3.42,19,3.42,28.71c0,11.16-1.51,22.1-4.43,32.58c-0.68,2.45,0.65,5.01,3.07,5.81c2.57,0.86,5.36-0.6,6.09-3.21
	C259.22,161.05,260.85,149.24,260.85,137.19"/>
<path class="st2" d="M48.18,211.19c-0.44,0.36-0.89,0.72-1.33,1.09C47.29,211.91,47.74,211.55,48.18,211.19"/>
<path class="st2" d="M48.48,223.49c0.38-0.35,0.77-0.7,1.16-1.05C49.25,222.79,48.87,223.14,48.48,223.49"/>
<path class="st2" d="M58.53,203.59c-0.5,0.33-0.99,0.65-1.48,0.99C57.54,204.25,58.03,203.92,58.53,203.59"/>
<path class="st2" d="M50.71,221.49c0.39-0.34,0.78-0.68,1.18-1.01C51.49,220.81,51.1,221.15,50.71,221.49"/>
<path class="st2" d="M163.62,186.43c-0.06-0.01-0.11-0.03-0.17-0.04C163.51,186.4,163.57,186.42,163.62,186.43L163.62,186.43z"/>
<path class="st2" d="M55.28,217.68c0.4-0.32,0.81-0.63,1.22-0.95C56.09,217.05,55.69,217.36,55.28,217.68"/>
<path class="st2" d="M62.37,201.14c0.19-0.12,0.39-0.23,0.58-0.35c0,0,0,0,0,0C62.76,200.9,62.57,201.02,62.37,201.14"/>
<path class="st2" d="M57.63,215.87c0.41-0.31,0.83-0.61,1.24-0.92C58.45,215.26,58.04,215.56,57.63,215.87"/>
<path class="st2" d="M60.01,214.12c0.42-0.3,0.84-0.59,1.26-0.89C60.85,213.53,60.43,213.82,60.01,214.12"/>
<path class="st2" d="M102.67,104.41c0.67-2.54-0.84-5.14-3.38-5.81c-10.56-2.79-20.69-7.06-30.09-12.58
	c-0.83,3.16-1.6,6.38-2.27,9.66c9.43,5.25,19.49,9.36,29.94,12.12C99.4,108.47,102,106.95,102.67,104.41"/>
<path class="st2" d="M52.98,219.56c0.4-0.33,0.8-0.66,1.2-0.98C53.77,218.9,53.37,219.23,52.98,219.56"/>
<path class="st2" d="M61.25,201.84c-0.52,0.33-1.04,0.65-1.56,0.98C60.21,202.49,60.73,202.17,61.25,201.84"/>
<path class="st2" d="M62.42,212.43c0.43-0.29,0.86-0.58,1.29-0.86C63.29,211.85,62.85,212.14,62.42,212.43"/>
<path class="st2" d="M64.88,210.8c0.44-0.29,0.89-0.56,1.33-0.84C65.76,210.24,65.32,210.52,64.88,210.8"/>
<path class="st2" d="M46.9,224.96C46.9,224.97,46.91,224.97,46.9,224.96c0.18-0.16,0.36-0.33,0.54-0.5
	C47.26,224.63,47.08,224.79,46.9,224.96"/>
<path class="st2" d="M212.37,211.19c0.44,0.36,0.89,0.72,1.33,1.09C213.26,211.91,212.81,211.55,212.37,211.19"/>
<path class="st2" d="M178.46,191.29c0.52,0.21,1.04,0.42,1.55,0.63C179.5,191.71,178.98,191.5,178.46,191.29"/>
<path class="st2" d="M194.34,209.96c0.45,0.28,0.89,0.56,1.33,0.84C195.23,210.52,194.79,210.24,194.34,209.96"/>
<path class="st2" d="M202.02,203.59c0.5,0.33,0.99,0.65,1.48,0.99C203.01,204.25,202.52,203.92,202.02,203.59"/>
<path class="st2" d="M196.83,211.57c0.43,0.28,0.86,0.57,1.29,0.86C197.7,212.14,197.26,211.85,196.83,211.57"/>
<path class="st2" d="M220.34,231.71l0.07,0.07l3.41-3.5C222.68,229.45,221.52,230.59,220.34,231.71"/>
<path class="st2" d="M204.68,205.4c0.48,0.33,0.96,0.66,1.43,1C205.64,206.06,205.16,205.73,204.68,205.4"/>
<path class="st2" d="M213.11,224.46c0.18,0.17,0.35,0.34,0.53,0.51c0,0,0,0,0.01-0.01C213.47,224.79,213.29,224.63,213.11,224.46"/>
<path class="st2" d="M175.52,190.16c0.52,0.19,1.04,0.39,1.56,0.59C176.55,190.56,176.04,190.36,175.52,190.16"/>
<path class="st2" d="M217.26,215.36c0.43,0.39,0.86,0.78,1.29,1.17C218.12,216.14,217.69,215.75,217.26,215.36"/>
<path class="st2" d="M208.66,220.48c0.39,0.34,0.79,0.67,1.18,1.02C209.45,221.15,209.06,220.81,208.66,220.48"/>
<path class="st2" d="M198.18,201.14c-0.19-0.12-0.39-0.23-0.58-0.35l0,0C197.79,200.91,197.98,201.02,198.18,201.14"/>
<path class="st2" d="M181.38,192.49c0.52,0.22,1.04,0.45,1.56,0.68C182.42,192.94,181.9,192.71,181.38,192.49"/>
<path class="st2" d="M184.26,193.76c0.53,0.24,1.06,0.49,1.59,0.74C185.32,194.25,184.8,194,184.26,193.76"/>
<path class="st2" d="M209.85,209.2c0.45,0.35,0.91,0.7,1.36,1.06C210.76,209.9,210.31,209.55,209.85,209.2"/>
<path class="st2" d="M185.98,205.18L185.98,205.18c-0.14-0.07-0.27-0.15-0.41-0.22C185.71,205.03,185.84,205.11,185.98,205.18"/>
<path class="st2" d="M199.28,213.23c0.42,0.29,0.84,0.59,1.26,0.89C200.12,213.82,199.7,213.52,199.28,213.23"/>
<path class="st2" d="M210.91,222.44c0.39,0.35,0.77,0.7,1.16,1.05C211.68,223.14,211.29,222.79,210.91,222.44"/>
<path class="st2" d="M206.38,218.58c0.4,0.32,0.8,0.65,1.2,0.98C207.17,219.23,206.78,218.9,206.38,218.58"/>
<path class="st2" d="M187.11,195.09c0.56,0.27,1.11,0.55,1.67,0.83C188.23,195.65,187.67,195.36,187.11,195.09"/>
<path class="st2" d="M204.05,216.73c0.41,0.31,0.81,0.63,1.22,0.95C204.86,217.36,204.46,217.05,204.05,216.73"/>
<path class="st2" d="M181.73,203.08c-0.47-0.22-0.94-0.45-1.42-0.66C180.79,202.63,181.26,202.86,181.73,203.08"/>
<path class="st2" d="M201.68,214.95c0.42,0.31,0.83,0.61,1.24,0.92C202.51,215.56,202.1,215.26,201.68,214.95"/>
<path class="st2" d="M214.84,213.24c0.44,0.37,0.87,0.75,1.31,1.13C215.71,213.99,215.27,213.62,214.84,213.24"/>
<path class="st2" d="M179.05,201.86c-0.47-0.21-0.94-0.42-1.41-0.62C178.11,201.44,178.58,201.65,179.05,201.86"/>
<path class="st2" d="M199.3,201.84c0.52,0.33,1.04,0.65,1.56,0.98C200.34,202.49,199.82,202.17,199.3,201.84"/>
<path class="st2" d="M207.29,207.27c0.46,0.34,0.93,0.68,1.39,1.03C208.22,207.95,207.76,207.61,207.29,207.27"/>
<path class="st2" d="M184.44,204.39c-0.49-0.25-0.99-0.5-1.48-0.74C183.45,203.9,183.94,204.15,184.44,204.39"/>
<path class="st2" d="M121.29,192c-0.43,0.03-0.86,0.07-1.29,0.11C120.43,192.07,120.86,192.03,121.29,192"/>
<path class="st2" d="M124.27,191.82c-0.4,0.02-0.8,0.05-1.21,0.07C123.47,191.87,123.87,191.84,124.27,191.82"/>
<path class="st2" d="M56.5,216.73c0.37-0.29,0.75-0.58,1.13-0.86C57.25,216.15,56.88,216.44,56.5,216.73"/>
<path class="st2" d="M112.43,192.97c-0.45,0.07-0.91,0.14-1.36,0.21C111.53,193.11,111.98,193.03,112.43,192.97"/>
<path class="st2" d="M109.52,193.43c-0.46,0.08-0.91,0.16-1.37,0.25C108.61,193.59,109.06,193.51,109.52,193.43"/>
<path class="st2" d="M47.44,224.46c0.35-0.33,0.7-0.65,1.05-0.97C48.13,223.81,47.79,224.14,47.44,224.46"/>
<path class="st2" d="M127.27,191.71c-0.34,0.01-0.67,0.02-1.01,0.04C126.59,191.73,126.93,191.72,127.27,191.71"/>
<path class="st2" d="M33.5,224.96l3.23,3.32c-1.08-1.11-2.13-2.24-3.17-3.38L33.5,224.96z"/>
<path class="st2" d="M118.32,192.25c-0.44,0.04-0.88,0.09-1.32,0.14C117.44,192.34,117.88,192.29,118.32,192.25"/>
<path class="st2" d="M51.89,220.48c0.36-0.31,0.73-0.62,1.09-0.92C52.61,219.86,52.25,220.17,51.89,220.48"/>
<path class="st2" d="M54.17,218.58c0.37-0.3,0.74-0.6,1.11-0.89C54.91,217.98,54.54,218.28,54.17,218.58"/>
<path class="st2" d="M115.37,192.58c-0.45,0.05-0.9,0.12-1.34,0.18C114.47,192.69,114.92,192.63,115.37,192.58"/>
<path class="st2" d="M49.64,222.44c0.35-0.32,0.71-0.63,1.07-0.95C50.35,221.81,50,222.12,49.64,222.44"/>
<path class="st2" d="M49.34,210.25c-0.39,0.31-0.77,0.62-1.16,0.93C48.57,210.87,48.95,210.56,49.34,210.25"/>
<path class="st2" d="M158.18,194.88c-0.46-0.11-0.91-0.21-1.37-0.31C157.26,194.67,157.72,194.78,158.18,194.88"/>
<path class="st2" d="M51.87,208.29c-0.39,0.3-0.78,0.6-1.17,0.9C51.09,208.89,51.48,208.59,51.87,208.29"/>
<path class="st2" d="M152.4,193.68c-0.45-0.08-0.91-0.17-1.37-0.25C151.49,193.51,151.94,193.59,152.4,193.68"/>
<path class="st2" d="M57.04,204.58c-0.39,0.27-0.79,0.54-1.18,0.82C56.26,205.12,56.65,204.85,57.04,204.58"/>
<path class="st2" d="M155.3,194.25c-0.46-0.09-0.92-0.19-1.37-0.28C154.39,194.06,154.84,194.15,155.3,194.25"/>
<path class="st2" d="M54.44,206.4c-0.39,0.28-0.79,0.57-1.18,0.86C53.65,206.98,54.04,206.69,54.44,206.4"/>
<path class="st2" d="M42,216.53c-0.37,0.34-0.73,0.68-1.09,1.02C41.27,217.21,41.64,216.87,42,216.53"/>
<path class="st2" d="M44.41,214.37c-0.37,0.33-0.75,0.66-1.12,0.99C43.66,215.03,44.03,214.7,44.41,214.37"/>
<path class="st2" d="M46.85,212.28c-0.38,0.32-0.76,0.64-1.14,0.97C46.09,212.92,46.47,212.6,46.85,212.28"/>
<path class="st2" d="M146.53,192.75c-0.45-0.06-0.9-0.12-1.34-0.18C145.63,192.63,146.08,192.69,146.53,192.75"/>
<path class="st2" d="M140.55,192.11c-0.43-0.03-0.86-0.08-1.29-0.11C139.69,192.03,140.12,192.07,140.55,192.11"/>
<path class="st2" d="M63.72,211.57c0.39-0.26,0.77-0.51,1.16-0.76C64.49,211.05,64.1,211.31,63.72,211.57"/>
<path class="st2" d="M137.49,191.89c-0.4-0.02-0.8-0.05-1.21-0.07C136.68,191.84,137.08,191.87,137.49,191.89"/>
<path class="st2" d="M61.27,213.23c0.38-0.27,0.77-0.54,1.15-0.8C62.04,212.69,61.65,212.96,61.27,213.23"/>
<path class="st2" d="M134.29,191.74c-0.34-0.01-0.67-0.03-1.01-0.03C133.62,191.72,133.96,191.73,134.29,191.74"/>
<path class="st2" d="M143.55,192.39c-0.44-0.05-0.88-0.1-1.32-0.14C142.67,192.29,143.11,192.35,143.55,192.39"/>
<path class="st2" d="M59.69,202.82c-0.39,0.25-0.78,0.51-1.16,0.77C58.92,203.34,59.3,203.08,59.69,202.82"/>
<path class="st2" d="M106.62,193.97c-0.46,0.09-0.92,0.18-1.37,0.28C105.71,194.15,106.16,194.06,106.62,193.97"/>
<path class="st2" d="M58.87,214.95c0.38-0.28,0.76-0.56,1.14-0.83C59.62,214.39,59.25,214.67,58.87,214.95"/>
<path class="st2" d="M149.47,193.18c-0.45-0.07-0.9-0.14-1.36-0.21C148.57,193.04,149.02,193.11,149.47,193.18"/>
<path class="st2" d="M62.37,201.14c-0.38,0.23-0.75,0.47-1.12,0.7C61.63,201.61,62,201.37,62.37,201.14"/>
<path class="st2" d="M122.5,182.39c0.43-0.03,0.86-0.06,1.29-0.08C123.36,182.34,122.93,182.37,122.5,182.39"/>
<path class="st2" d="M106.41,184.32c0.49-0.09,0.97-0.18,1.46-0.26C107.38,184.15,106.9,184.24,106.41,184.32"/>
<path class="st2" d="M109.56,183.79c0.48-0.08,0.97-0.15,1.46-0.23C110.53,183.63,110.05,183.71,109.56,183.79"/>
<path class="st2" d="M82.09,191.29c0.46-0.18,0.93-0.36,1.39-0.54C83.01,190.93,82.55,191.11,82.09,191.29"/>
<path class="st2" d="M119.19,182.63c0.46-0.04,0.92-0.08,1.38-0.11C120.11,182.55,119.65,182.59,119.19,182.63"/>
<path class="st2" d="M115.95,182.94c0.47-0.05,0.95-0.1,1.42-0.15C116.9,182.83,116.42,182.89,115.95,182.94"/>
<path class="st2" d="M112.74,183.32c0.48-0.06,0.97-0.13,1.45-0.19C113.7,183.19,113.22,183.26,112.74,183.32"/>
<path class="st2" d="M103.28,184.94c0.49-0.1,0.98-0.2,1.47-0.3C104.25,184.73,103.77,184.84,103.28,184.94"/>
<path class="st2" d="M88.01,189.11c0.47-0.16,0.95-0.32,1.43-0.47C88.96,188.8,88.48,188.95,88.01,189.11"/>
<path class="st2" d="M85.03,190.16c0.47-0.17,0.94-0.34,1.41-0.51C85.97,189.83,85.5,189.99,85.03,190.16"/>
<path class="st2" d="M97.09,186.39c0.48-0.13,0.97-0.25,1.46-0.37C98.06,186.14,97.58,186.26,97.09,186.39"/>
<path class="st2" d="M94.04,187.22c0.48-0.14,0.96-0.27,1.45-0.41C95,186.95,94.52,187.08,94.04,187.22"/>
<path class="st2" d="M91.01,188.13c0.48-0.15,0.96-0.3,1.44-0.44C91.97,187.83,91.49,187.98,91.01,188.13"/>
<path class="st2" d="M100.17,185.63c0.49-0.11,0.97-0.23,1.46-0.34C101.15,185.4,100.66,185.51,100.17,185.63"/>
<path class="st2" d="M152.68,184.06c0.49,0.08,0.97,0.17,1.46,0.26C153.65,184.24,153.17,184.14,152.68,184.06"/>
<path class="st2" d="M155.81,184.64c0.49,0.1,0.98,0.2,1.47,0.3C156.78,184.83,156.3,184.73,155.81,184.64"/>
<path class="st2" d="M149.53,183.56c0.49,0.07,0.97,0.15,1.45,0.23C150.5,183.71,150.01,183.63,149.53,183.56"/>
<path class="st2" d="M125.95,182.24c0.36-0.01,0.72-0.03,1.08-0.04C126.67,182.21,126.31,182.23,125.95,182.24"/>
<path class="st2" d="M146.36,183.13c0.48,0.06,0.97,0.13,1.45,0.19C147.33,183.26,146.84,183.19,146.36,183.13"/>
<path class="st2" d="M158.91,185.29c0.49,0.11,0.98,0.22,1.46,0.34C159.89,185.51,159.4,185.4,158.91,185.29"/>
<path class="st2" d="M143.18,182.79c0.48,0.05,0.95,0.1,1.42,0.15C144.13,182.89,143.65,182.83,143.18,182.79"/>
<path class="st2" d="M133.52,182.2c0.36,0.01,0.72,0.03,1.08,0.04C134.24,182.23,133.88,182.21,133.52,182.2"/>
<path class="st2" d="M66.24,209.95c-0.01,0.01-0.02,0.01-0.03,0.02C66.22,209.96,66.23,209.95,66.24,209.95"/>
<path class="st2" d="M139.97,182.51c0.46,0.03,0.92,0.08,1.38,0.11C140.89,182.59,140.43,182.55,139.97,182.51"/>
<path class="st2" d="M136.76,182.32c0.43,0.02,0.86,0.05,1.29,0.08C137.62,182.37,137.19,182.34,136.76,182.32"/>
<path class="st2" d="M86.93,199.63c-0.44,0.17-0.88,0.33-1.31,0.51C86.05,199.96,86.49,199.79,86.93,199.63"/>
<path class="st2" d="M166.31,252.83c-10.92,9.76-23.21,14.93-36.03,14.93c19.82,0,38.92-4.37,56.25-12.65l-3.04-9.1
	C177.95,248.73,172.21,251,166.31,252.83"/>
<path class="st2" d="M76.11,204.39c-0.38,0.19-0.76,0.37-1.13,0.57C75.35,204.77,75.73,204.58,76.11,204.39"/>
<path class="st2" d="M98.05,195.98c-0.45,0.13-0.91,0.25-1.36,0.38C97.14,196.23,97.59,196.11,98.05,195.98"/>
<path class="st2" d="M78.82,203.08c-0.41,0.19-0.82,0.38-1.23,0.58C78,203.46,78.41,203.27,78.82,203.08"/>
<path class="st2" d="M95.24,196.79c-0.45,0.14-0.91,0.27-1.36,0.42C94.33,197.06,94.78,196.93,95.24,196.79"/>
<path class="st2" d="M92.44,197.67c-0.45,0.15-0.9,0.29-1.34,0.45C91.55,197.96,91.99,197.81,92.44,197.67"/>
<path class="st2" d="M89.67,198.61c-0.44,0.16-0.89,0.31-1.33,0.48C88.79,198.93,89.23,198.77,89.67,198.61"/>
<path class="st2" d="M84.21,200.71c-0.43,0.18-0.86,0.35-1.29,0.53C83.34,201.06,83.77,200.88,84.21,200.71"/>
<path class="st2" d="M81.5,201.86c-0.42,0.19-0.85,0.37-1.26,0.56C80.66,202.22,81.08,202.04,81.5,201.86"/>
<path class="st2" d="M71.42,196.1L71.42,196.1c0.11-0.06,0.23-0.11,0.35-0.17C71.65,195.98,71.54,196.04,71.42,196.1"/>
<path class="st2" d="M46.91,224.97c-1.14,1.08-2.26,2.18-3.36,3.31l-3.34,3.43c24.39,23.29,56.18,36.06,90.07,36.06
	c-12.83,0-25.11-5.18-36.04-14.93C76.69,247.39,60.55,237.96,46.91,224.97"/>
<path class="st2" d="M79.17,192.49c0.45-0.19,0.91-0.38,1.36-0.56C80.08,192.11,79.62,192.3,79.17,192.49"/>
<path class="st2" d="M73.44,195.09c0.42-0.2,0.84-0.4,1.26-0.59C74.28,194.7,73.85,194.89,73.44,195.09"/>
<path class="st2" d="M76.29,193.76c0.44-0.2,0.88-0.39,1.32-0.59C77.17,193.37,76.73,193.56,76.29,193.76"/>
<path class="st2" d="M103.74,194.57c-0.46,0.1-0.91,0.21-1.37,0.31C102.83,194.78,103.29,194.67,103.74,194.57"/>
<path class="st2" d="M100.88,195.24c-0.45,0.11-0.91,0.23-1.36,0.35C99.97,195.47,100.43,195.36,100.88,195.24"/>
<path class="st2" d="M203.5,204.58c0.39,0.27,0.79,0.54,1.18,0.82C204.29,205.12,203.9,204.85,203.5,204.58"/>
<path class="st2" d="M177.07,190.75c0.46,0.18,0.93,0.35,1.39,0.54C178,191.11,177.54,190.93,177.07,190.75"/>
<path class="st2" d="M208.68,208.29c0.39,0.3,0.78,0.6,1.17,0.9C209.46,208.89,209.07,208.59,208.68,208.29"/>
<path class="st2" d="M189.13,196.1L189.13,196.1c-0.11-0.06-0.23-0.12-0.35-0.17C188.9,195.98,189.01,196.04,189.13,196.1"/>
<path class="st2" d="M174.11,189.66c0.47,0.17,0.94,0.33,1.41,0.51C175.05,189.99,174.58,189.83,174.11,189.66"/>
<path class="st2" d="M211.21,210.25c0.39,0.31,0.77,0.62,1.16,0.93C211.98,210.87,211.6,210.56,211.21,210.25"/>
<path class="st2" d="M185.57,204.96c-0.37-0.19-0.75-0.38-1.13-0.57C184.82,204.58,185.2,204.77,185.57,204.96"/>
<path class="st2" d="M182.96,203.66c-0.41-0.2-0.82-0.39-1.23-0.58C182.14,203.27,182.55,203.46,182.96,203.66"/>
<path class="st2" d="M180.31,202.42c-0.42-0.19-0.84-0.37-1.26-0.56C179.47,202.04,179.89,202.22,180.31,202.42"/>
<path class="st2" d="M180.01,191.92c0.45,0.19,0.91,0.37,1.36,0.56C180.92,192.3,180.47,192.11,180.01,191.92"/>
<path class="st2" d="M185.85,194.5c0.42,0.2,0.84,0.39,1.26,0.59C186.7,194.89,186.27,194.7,185.85,194.5"/>
<path class="st2" d="M198.18,201.14c0.38,0.23,0.75,0.47,1.12,0.7C198.92,201.61,198.55,201.37,198.18,201.14"/>
<path class="st2" d="M206.11,206.4c0.39,0.28,0.79,0.57,1.18,0.86C206.9,206.98,206.51,206.69,206.11,206.4"/>
<path class="st2" d="M207.57,219.56c0.37,0.3,0.73,0.61,1.09,0.92C208.3,220.17,207.94,219.86,207.57,219.56"/>
<path class="st2" d="M209.84,221.49c0.36,0.31,0.71,0.63,1.07,0.95C210.55,222.12,210.2,221.81,209.84,221.49"/>
<path class="st2" d="M205.27,217.68c0.37,0.3,0.74,0.59,1.11,0.89C206.01,218.28,205.64,217.98,205.27,217.68"/>
<path class="st2" d="M212.06,223.49c0.35,0.32,0.7,0.65,1.05,0.97C212.76,224.14,212.42,223.81,212.06,223.49"/>
<path class="st2" d="M194.34,209.96c-0.01-0.01-0.02-0.01-0.03-0.02C194.32,209.95,194.33,209.96,194.34,209.96"/>
<path class="st2" d="M202.92,215.87c0.38,0.28,0.75,0.58,1.13,0.86C203.68,216.44,203.3,216.15,202.92,215.87"/>
<path class="st2" d="M227.05,224.96l-0.06-0.07c-1.04,1.14-2.09,2.27-3.17,3.38L227.05,224.96z"/>
<path class="st2" d="M218.55,216.53c0.37,0.34,0.73,0.68,1.09,1.02C219.28,217.21,218.91,216.87,218.55,216.53"/>
<path class="st2" d="M216.14,214.37c0.37,0.33,0.75,0.66,1.12,0.99C216.89,215.03,216.52,214.7,216.14,214.37"/>
<path class="st2" d="M200.54,214.12c0.38,0.27,0.76,0.55,1.14,0.83C201.3,214.67,200.92,214.39,200.54,214.12"/>
<path class="st2" d="M198.12,212.43c0.39,0.26,0.77,0.53,1.15,0.8C198.89,212.96,198.51,212.69,198.12,212.43"/>
<path class="st2" d="M195.67,210.8c0.39,0.25,0.77,0.51,1.16,0.76C196.45,211.31,196.06,211.06,195.67,210.8"/>
<path class="st2" d="M46.91,224.97C46.91,224.97,46.9,224.97,46.91,224.97c0.17-0.18,0.35-0.34,0.53-0.51
	c0.35-0.33,0.7-0.65,1.05-0.97c0.38-0.35,0.77-0.7,1.16-1.05c0.35-0.32,0.71-0.63,1.07-0.95c0.39-0.34,0.78-0.68,1.18-1.01
	c0.36-0.31,0.73-0.62,1.09-0.92c0.4-0.33,0.8-0.66,1.2-0.98c0.37-0.3,0.74-0.6,1.11-0.89c0.4-0.32,0.81-0.63,1.22-0.95
	c0.37-0.29,0.75-0.58,1.13-0.86c0.41-0.31,0.82-0.61,1.24-0.92c0.38-0.28,0.76-0.56,1.14-0.83c0.42-0.3,0.84-0.59,1.26-0.89
	c0.38-0.27,0.77-0.54,1.15-0.8c0.43-0.29,0.86-0.57,1.29-0.86c0.39-0.26,0.77-0.52,1.16-0.77c0.44-0.29,0.89-0.56,1.33-0.84
	c0.01-0.01,0.02-0.01,0.03-0.02c-1.17-2.98-2.26-6.04-3.28-9.16c-0.19,0.12-0.39,0.23-0.58,0.35c-0.38,0.23-0.75,0.47-1.12,0.7
	c-0.52,0.33-1.04,0.65-1.56,0.98c-0.39,0.25-0.78,0.51-1.16,0.77c-0.5,0.33-0.99,0.65-1.48,0.99c-0.39,0.27-0.79,0.54-1.18,0.82
	c-0.48,0.33-0.96,0.67-1.43,1.01c-0.39,0.28-0.79,0.57-1.18,0.86c-0.46,0.34-0.93,0.68-1.39,1.03c-0.39,0.3-0.78,0.6-1.17,0.9
	c-0.45,0.35-0.91,0.7-1.36,1.06c-0.39,0.31-0.77,0.62-1.16,0.93c-0.44,0.36-0.89,0.72-1.33,1.09c-0.38,0.32-0.76,0.64-1.14,0.97
	c-0.44,0.37-0.87,0.75-1.31,1.13c-0.37,0.33-0.75,0.66-1.12,0.99c-0.43,0.39-0.86,0.77-1.29,1.17c-0.37,0.34-0.73,0.68-1.09,1.02
	c-1.42,1.33-2.81,2.69-4.18,4.1l-3.17,3.25c1.04,1.14,2.09,2.27,3.17,3.38c1.14,1.17,2.3,2.31,3.47,3.43l3.34-3.43
	C44.65,227.15,45.77,226.05,46.91,224.97"/>
<path class="st2" d="M62.95,200.79c0.39-0.24,0.79-0.47,1.19-0.7c0.32-0.19,0.63-0.38,0.95-0.56c0.9-0.52,1.82-1.04,2.73-1.54
	c0.29-0.16,0.58-0.31,0.88-0.47c0.64-0.34,1.27-0.68,1.91-1.01c0.27-0.14,0.54-0.27,0.81-0.41c-5.61-17.82-8.6-37.94-8.6-58.91
	c0-14.39,1.4-28.39,4.1-41.51c-2.92-1.63-5.79-3.37-8.58-5.22c-3.29,14.72-5.03,30.5-5.03,46.73
	C53.31,159.82,56.67,181.57,62.95,200.79"/>
<path class="st2" d="M180.36,236.63l-3.87-11.61c-12.66,21.44-29.03,33.24-46.21,33.24c12.42,0,24.53-1.86,36.03-5.42
	C171.3,248.37,176.01,242.95,180.36,236.63"/>
<path class="st2" d="M83.34,50.59c12.75-22.22,29.42-34.46,46.93-34.46c17.51,0,34.18,12.24,46.93,34.46
	c13.23,23.05,20.52,53.81,20.52,86.6c0,5.73-0.24,11.4-0.68,16.97c-0.17,2.17,1.17,4.17,3.24,4.86c2.92,0.97,6-1.04,6.25-4.11
	c0.46-5.83,0.71-11.74,0.71-17.72c0-34.42-7.74-66.86-21.78-91.34c-14.52-25.3-34.12-39.24-55.18-39.24
	c-21.06,0-40.66,13.94-55.18,39.24c-5.92,10.32-10.71,22.07-14.28,34.78c2.72,1.91,5.52,3.7,8.38,5.38
	C72.62,72.99,77.37,61,83.34,50.59"/>
<path class="st2" d="M83.34,223.79c-3.3-5.75-6.23-11.99-8.77-18.61c-0.54,0.28-1.08,0.56-1.61,0.85c-0.45,0.24-0.89,0.49-1.34,0.73
	c-0.58,0.32-1.16,0.65-1.74,0.98c-0.37,0.21-0.73,0.44-1.1,0.65c-0.47,0.28-0.95,0.56-1.42,0.85c-0.38,0.23-0.75,0.47-1.12,0.7
	c2.59,6.58,5.54,12.81,8.85,18.58c5.68,9.89,12.13,18.04,19.15,24.31c11.51,3.57,23.62,5.42,36.03,5.42
	C112.76,258.26,96.1,246.02,83.34,223.79"/>
<path class="st2" d="M71.62,206.77c-0.58,0.32-1.16,0.65-1.74,0.98C70.46,207.41,71.04,207.09,71.62,206.77"/>
<path class="st2" d="M67.82,197.98c-0.92,0.5-1.83,1.01-2.73,1.54C66,199,66.91,198.48,67.82,197.98"/>
<path class="st2" d="M66.92,95.68c0.67-3.28,1.44-6.49,2.27-9.66c-2.86-1.68-5.66-3.47-8.38-5.38c-0.9,3.21-1.72,6.49-2.47,9.82
	C61.14,92.31,64,94.05,66.92,95.68"/>
<path class="st2" d="M62.95,200.79L62.95,200.79c0.39-0.24,0.79-0.47,1.19-0.7C63.74,200.32,63.35,200.55,62.95,200.79"/>
<path class="st2" d="M68.78,208.4c-0.47,0.28-0.95,0.56-1.42,0.85C67.83,208.96,68.31,208.68,68.78,208.4"/>
<path class="st2" d="M70.61,196.5c-0.64,0.33-1.28,0.67-1.91,1.01C69.34,197.18,69.97,196.83,70.61,196.5"/>
<path class="st2" d="M72.96,206.03c0.54-0.29,1.07-0.57,1.61-0.85v0C74.03,205.46,73.49,205.74,72.96,206.03"/>
<path class="st2" d="M187.59,206.03c-0.54-0.29-1.07-0.58-1.61-0.86v0C186.52,205.46,187.06,205.74,187.59,206.03"/>
<path class="st2" d="M189.94,196.5c0.64,0.33,1.28,0.67,1.91,1.01C191.21,197.18,190.58,196.83,189.94,196.5"/>
<path class="st2" d="M192.73,197.98c0.92,0.5,1.83,1.01,2.73,1.54C194.55,199,193.64,198.48,192.73,197.98"/>
<path class="st2" d="M197.6,200.79c-0.39-0.24-0.79-0.47-1.19-0.7C196.81,200.32,197.2,200.55,197.6,200.79L197.6,200.79z"/>
<path class="st2" d="M188.93,206.77c0.58,0.32,1.16,0.65,1.74,0.98C190.09,207.41,189.51,207.09,188.93,206.77"/>
<path class="st2" d="M191.77,208.4c0.47,0.28,0.95,0.56,1.42,0.85C192.72,208.96,192.24,208.68,191.77,208.4"/>
<path class="st2" d="M68.7,197.52c-0.29,0.16-0.59,0.31-0.88,0.47C68.11,197.82,68.41,197.67,68.7,197.52"/>
<path class="st2" d="M72.96,206.03c-0.45,0.24-0.89,0.49-1.34,0.73C72.06,206.52,72.51,206.27,72.96,206.03"/>
<path class="st2" d="M69.88,207.74c-0.37,0.21-0.73,0.44-1.1,0.65C69.15,208.18,69.51,207.96,69.88,207.74"/>
<path class="st2" d="M70.61,196.5c0.27-0.14,0.54-0.27,0.81-0.41v0C71.15,196.23,70.88,196.36,70.61,196.5"/>
<path class="st2" d="M65.09,199.52c-0.32,0.18-0.63,0.38-0.95,0.56C64.46,199.9,64.77,199.7,65.09,199.52"/>
<path class="st2" d="M130.27,258.26c-12.42,0-24.53-1.86-36.03-5.42c10.92,9.76,23.21,14.93,36.03,14.93
	c12.83,0,25.11-5.18,36.03-14.93C154.8,256.4,142.69,258.26,130.27,258.26"/>
<path class="st2" d="M67.36,209.24c-0.38,0.23-0.75,0.47-1.12,0.7C66.61,209.71,66.99,209.47,67.36,209.24"/>
<path class="st2" d="M194.31,209.95L194.31,209.95c-0.37-0.23-0.75-0.47-1.12-0.7C193.56,209.47,193.94,209.71,194.31,209.95"/>
<path class="st2" d="M190.67,207.74c0.37,0.21,0.73,0.44,1.1,0.65C191.4,208.18,191.04,207.96,190.67,207.74"/>
<path class="st2" d="M195.46,199.52c0.32,0.18,0.63,0.38,0.95,0.56C196.09,199.9,195.78,199.7,195.46,199.52"/>
<path class="st2" d="M189.94,196.5c-0.27-0.14-0.54-0.27-0.81-0.41v0C189.4,196.23,189.67,196.36,189.94,196.5"/>
<path class="st2" d="M191.85,197.52c0.29,0.16,0.59,0.31,0.88,0.47C192.44,197.82,192.14,197.67,191.85,197.52"/>
<path class="st2" d="M187.59,206.03c0.45,0.24,0.89,0.49,1.34,0.73C188.49,206.52,188.04,206.27,187.59,206.03"/>
<path class="st2" d="M68.78,208.4c0.37-0.22,0.73-0.44,1.1-0.65c0.58-0.33,1.16-0.66,1.74-0.98c0.44-0.25,0.89-0.49,1.34-0.73
	c0.54-0.29,1.07-0.58,1.61-0.86c-1.13-2.95-2.17-5.98-3.14-9.08c-0.27,0.14-0.54,0.27-0.81,0.41c-0.64,0.33-1.28,0.67-1.91,1.01
	c-0.29,0.16-0.59,0.31-0.88,0.46c-0.92,0.5-1.83,1.01-2.73,1.54c-0.32,0.18-0.63,0.38-0.95,0.56c-0.4,0.23-0.79,0.47-1.19,0.71
	c1.02,3.12,2.11,6.18,3.28,9.16c0.37-0.23,0.75-0.47,1.12-0.7C67.83,208.96,68.31,208.68,68.78,208.4"/>
<rect x="125.52" y="11.37" class="st2" width="9.51" height="251.64"/>
<path class="st2" d="M58.07,141.95H4.45c-2.63,0-4.76-2.13-4.76-4.76c0-2.63,2.13-4.76,4.76-4.76h53.61c2.63,0,4.76,2.13,4.76,4.76
	C62.82,139.82,60.69,141.95,58.07,141.95"/>
<path class="st2" d="M239.66,141.95h-179c-2.63,0-4.76-2.13-4.76-4.76c0-2.63,2.13-4.76,4.76-4.76h179c2.63,0,4.76,2.13,4.76,4.76
	C244.42,139.82,242.29,141.95,239.66,141.95"/>
<path class="st2" d="M154.06,190.37c0-2.65,1.99-4.84,4.57-5.15c-0.45-0.1-0.9-0.2-1.35-0.29c-0.49-0.1-0.98-0.2-1.47-0.3
	c-0.55-0.11-1.11-0.21-1.67-0.31c-0.49-0.09-0.97-0.18-1.46-0.26c-0.56-0.1-1.13-0.18-1.69-0.27c-0.49-0.08-0.97-0.15-1.45-0.23
	c-0.57-0.08-1.15-0.16-1.72-0.23c-0.48-0.06-0.97-0.13-1.45-0.19c-0.58-0.07-1.17-0.13-1.76-0.2c-0.47-0.05-0.95-0.11-1.42-0.15
	c-0.61-0.06-1.21-0.11-1.82-0.16c-0.46-0.04-0.92-0.08-1.38-0.11c-0.64-0.05-1.28-0.08-1.92-0.12c-0.43-0.02-0.86-0.06-1.29-0.08
	c-0.72-0.03-1.44-0.06-2.16-0.08c-0.36-0.01-0.72-0.03-1.08-0.04c-1.08-0.03-2.16-0.04-3.25-0.04c-1.08,0-2.17,0.01-3.25,0.04
	c-0.36,0.01-0.72,0.03-1.08,0.04c-0.72,0.02-1.44,0.05-2.16,0.08c-0.43,0.02-0.86,0.05-1.29,0.08c-0.64,0.04-1.28,0.07-1.92,0.12
	c-0.46,0.03-0.92,0.08-1.38,0.11c-0.61,0.05-1.22,0.1-1.82,0.16c-0.48,0.05-0.95,0.1-1.42,0.15c-0.59,0.06-1.17,0.13-1.76,0.2
	c-0.49,0.06-0.97,0.13-1.45,0.19c-0.57,0.08-1.15,0.15-1.72,0.23c-0.49,0.07-0.97,0.15-1.46,0.23c-0.57,0.09-1.13,0.18-1.7,0.27
	c-0.49,0.08-0.97,0.17-1.46,0.26c-0.56,0.1-1.11,0.2-1.67,0.31c-0.49,0.1-0.98,0.2-1.47,0.3c-0.55,0.11-1.1,0.23-1.64,0.35
	c-0.49,0.11-0.98,0.22-1.46,0.34c-0.54,0.13-1.08,0.26-1.62,0.39c-0.49,0.12-0.97,0.24-1.46,0.37c-0.54,0.14-1.07,0.28-1.61,0.43
	c-0.48,0.13-0.97,0.27-1.45,0.41c-0.53,0.15-1.06,0.31-1.59,0.47c-0.48,0.14-0.96,0.29-1.44,0.44c-0.53,0.16-1.05,0.34-1.58,0.51
	c-0.48,0.16-0.95,0.31-1.43,0.47c-0.52,0.18-1.04,0.36-1.56,0.55c-0.47,0.17-0.94,0.33-1.41,0.51c-0.52,0.19-1.04,0.39-1.56,0.59
	c-0.46,0.18-0.93,0.35-1.39,0.54c-0.52,0.2-1.04,0.42-1.55,0.63c-0.46,0.19-0.91,0.37-1.36,0.56c-0.52,0.22-1.04,0.45-1.56,0.68
	c-0.44,0.2-0.89,0.39-1.32,0.59c-0.53,0.24-1.06,0.49-1.59,0.74c-0.42,0.2-0.84,0.39-1.26,0.59c-0.56,0.27-1.11,0.55-1.67,0.83
	c-0.11,0.06-0.23,0.11-0.35,0.17c0.97,3.09,2.01,6.13,3.14,9.08c0.14-0.07,0.27-0.15,0.41-0.22c0.38-0.19,0.76-0.38,1.13-0.57
	c0.49-0.25,0.98-0.5,1.48-0.74c0.41-0.2,0.82-0.39,1.23-0.58c0.47-0.22,0.94-0.45,1.42-0.66c0.42-0.19,0.84-0.37,1.26-0.56
	c0.47-0.21,0.94-0.42,1.41-0.62c0.43-0.18,0.86-0.36,1.29-0.54c0.47-0.19,0.94-0.39,1.41-0.57c0.44-0.17,0.87-0.34,1.31-0.51
	c0.47-0.18,0.94-0.36,1.42-0.54c0.44-0.16,0.89-0.32,1.33-0.48c0.47-0.17,0.95-0.34,1.42-0.5c0.45-0.15,0.9-0.3,1.34-0.45
	c0.48-0.16,0.96-0.31,1.44-0.46c0.45-0.14,0.9-0.28,1.36-0.41c0.48-0.15,0.97-0.29,1.45-0.43c0.45-0.13,0.91-0.26,1.36-0.38
	c0.49-0.13,0.98-0.27,1.47-0.39c0.45-0.12,0.91-0.23,1.36-0.35c0.5-0.12,0.99-0.24,1.49-0.36c0.46-0.11,0.91-0.21,1.37-0.31
	c0.5-0.11,1-0.22,1.51-0.32c0.46-0.09,0.91-0.19,1.37-0.28c0.51-0.1,1.02-0.19,1.53-0.29c0.46-0.08,0.91-0.17,1.37-0.24
	c0.52-0.09,1.04-0.17,1.56-0.25c0.45-0.07,0.9-0.14,1.36-0.21c0.53-0.08,1.06-0.15,1.59-0.22c0.45-0.06,0.89-0.12,1.34-0.18
	c0.54-0.07,1.09-0.12,1.63-0.18c0.44-0.05,0.88-0.1,1.32-0.14c0.56-0.05,1.12-0.1,1.68-0.15c0.43-0.04,0.86-0.07,1.29-0.11
	c0.59-0.04,1.18-0.08,1.78-0.11c0.4-0.02,0.8-0.05,1.21-0.07c0.66-0.03,1.32-0.05,1.99-0.07c0.34-0.01,0.67-0.03,1.01-0.04
	c1-0.02,2-0.04,3.01-0.04c1.01,0,2.01,0.01,3.01,0.04c6.25,0.15,12.49,0.78,18.64,1.89c1.35,0.24,2.7,0.51,4.04,0.8
	C154.8,193.44,154.06,191.99,154.06,190.37"/>
<path class="st2" d="M164.43,190.37c0-1.81-0.93-3.41-2.34-4.34c-0.03-0.01-0.06-0.01-0.09-0.02c-0.54-0.13-1.08-0.27-1.62-0.39
	c-0.49-0.11-0.97-0.23-1.46-0.34c-0.1-0.02-0.2-0.04-0.29-0.06c-2.57,0.31-4.57,2.49-4.57,5.15c0,1.62,0.74,3.07,1.91,4.02
	c1.22,0.26,2.44,0.54,3.65,0.84c0.26,0.06,0.51,0.14,0.77,0.2C162.7,194.91,164.43,192.85,164.43,190.37"/>
<polygon class="st5" points="830.96,-69.3 845.3,-45.84 850.19,-54.64 853.57,-58.57 866.81,-61.16 865.51,-64.74 852.85,-81.37 
	845.79,-72.66 "/>
<polygon class="st5" points="779.71,-79.17 773.26,-64.42 784.02,-62.13 789.23,-45.18 808.14,-68 803.23,-69.64 790.7,-69.64 
	788.25,-72.56 781.08,-81.37 "/>
<path class="st5" d="M819.57-159.94c-18.52,0-33.58,15.07-33.58,33.58c0,18.52,15.07,33.58,33.58,33.58
	c18.52,0,33.58-15.07,33.58-33.58C853.16-144.88,838.09-159.94,819.57-159.94"/>
<path class="st2" d="M852.7-77.95l11.52,15.15l-12,2.26l-1.9,0.36l-0.86,1.74l-5.39,10.96L829-67.3l0.86-0.41h9.61h0.02h0
	c3.21,0,6.2-1.44,8.19-3.95L852.7-77.95 M853.45-83.37l-2.25,1.08l-6.55,8.21c-1.25,1.57-3.15,2.49-5.15,2.49h-0.02h-10.5
	l-5.94,2.86l18.5,24.33c0.63,0.82,1.6,1.31,2.63,1.31c0.11,0,0.21-0.01,0.32-0.02c1.14-0.11,2.14-0.8,2.65-1.83l5.8-11.79
	l12.83-2.42c1.1-0.21,2.07-0.91,2.5-1.94c0.49-1.16,0.29-2.41-0.4-3.33L853.45-83.37z"/>
<path class="st2" d="M780.58-77.95l5.01,6.29c2,2.51,4.98,3.96,8.21,3.96h9.62l0.86,0.41l-15.07,19.82l-5.39-10.96l-0.86-1.74
	l-1.9-0.36l-12-2.26L780.58-77.95 M779.83-83.37l-14.41,18.95c-1.25,1.65-0.73,4.09,1.27,5.02c0.25,0.12,0.52,0.19,0.78,0.24
	l12.88,2.43l5.76,11.71c0.48,0.98,1.38,1.71,2.46,1.88c0.18,0.03,0.37,0.05,0.55,0.05c1.03,0,2.01-0.48,2.63-1.31l18.5-24.33
	l-5.93-2.86h-10.5h-0.02c-2.01,0-3.91-0.92-5.15-2.49l-6.55-8.21L779.83-83.37z"/>
<path class="st6" d="M845.25-168.76l-3.9-4.88c-0.61-0.77-1.54-1.21-2.52-1.21"/>
<path class="st6" d="M867.24-141.18l-5.03-6.3l-2.44-10.67c-0.22-0.95-0.86-1.76-1.74-2.18l-5.3-2.55"/>
<line class="st6" x1="868.16" y1="-129.6" x2="869.66" y2="-136.2"/>
<path class="st6" d="M838.84-174.86H827.9l-9.86-4.75c-0.88-0.42-1.91-0.42-2.79,0l-9.86,4.75h-10.95c-0.98,0-1.91,0.45-2.52,1.21
	l-6.82,8.56l-9.86,4.75c-0.88,0.43-1.52,1.23-1.74,2.18l-2.44,10.67l-6.82,8.56c-0.61,0.76-0.84,1.77-0.62,2.72l2.44,10.67
	l-2.44,10.67c-0.22,0.96,0.01,1.96,0.62,2.72l6.82,8.56l2.44,10.67c0.22,0.96,0.86,1.76,1.74,2.18l9.86,4.75l6.82,8.56
	c0.61,0.77,1.54,1.21,2.52,1.21h10.95l9.86,4.75c0.88,0.42,1.91,0.42,2.79,0l9.86-4.75h10.95c0.98,0,1.91-0.45,2.52-1.21l6.83-8.56
	l9.86-4.75c0.88-0.42,1.52-1.23,1.74-2.18l2.44-10.67l6.82-8.56c0.61-0.77,0.84-1.77,0.62-2.72l-1.61-7.04"/>
<path class="st6" d="M848.46-144.12c-0.66-1.12-1.39-2.22-2.18-3.28"/>
<path class="st6" d="M839.15-154.66c-12.76-9.8-30.99-10.42-44.53-0.36c-16.34,12.14-19.76,35.32-7.62,51.66
	c12.14,16.35,35.32,19.76,51.67,7.62c13.91-10.34,18.46-28.66,12.02-43.97"/>
<polygon class="st7" points="807.11,-121.68 797.45,-131.1 810.8,-133.04 816.78,-145.14 822.75,-133.04 836.1,-131.1 
	826.44,-121.68 828.72,-108.38 816.78,-114.66 804.83,-108.38 "/>
<path class="st2" d="M816.78-140.76l3.78,7.66l0.9,1.83l2.02,0.29l8.46,1.23l-6.12,5.97l-1.46,1.42l0.35,2.01l1.44,8.42l-7.56-3.98
	l-1.8-0.95l-1.8,0.95l-7.57,3.98l1.44-8.42l0.35-2.01l-1.46-1.42l-6.12-5.97l8.46-1.23l2.02-0.29l0.9-1.83L816.78-140.76z
	 M816.78-149.52l-7.26,14.71l-16.23,2.36L805.03-121l-2.77,16.17l14.52-7.63l14.52,7.63L828.52-121l11.75-11.45l-16.23-2.36
	L816.78-149.52z"/>
<g>
	<path class="st5" d="M358.26-115.82c-0.69,0.8-1.32,1.61-1.9,2.44c-0.93,3.05-1.27,6.21-0.81,9.33c3.61,0.22,7.23-0.6,10.55-2.28
		c4.39-4.84,6.95-11.46,7.21-18.64C368.21-124.23,362.61-120.87,358.26-115.82"/>
	<path class="st2" d="M364.56-106.65c-0.32,0.35-0.65,0.7-0.99,1.03c-3.38,3.27-7.59,5.17-11.76,5.35
		c-0.18-4.13,1.28-8.56,4.14-12.61c0.52-0.73,1.08-1.46,1.68-2.16c3.85-4.46,8.8-7.44,13.3-8.09c-0.02,0.52-0.05,1.05-0.1,1.56
		c-0.09,1.01,0.69,1.9,1.7,1.95c0.97,0.05,1.82-0.66,1.9-1.62c0.12-1.28,0.16-2.58,0.12-3.89l-0.05-1.76h-1.76
		c-3.2,0-6.65,1.04-9.94,2.91c-2.85,1.62-5.58,3.85-7.92,6.57c-4.51,5.22-6.88,11.32-6.71,17.04c0.02,0.73,0.08,1.45,0.18,2.16
		l0.22,1.46l1.47,0.09c0.37,0.02,0.74,0.03,1.12,0.03c3.8,0,7.64-1.18,11.06-3.34c1.36-0.86,2.66-1.87,3.87-3.04
		c1.48-1.44,2.79-3.06,3.91-4.82c0.54-0.85,0.3-1.97-0.55-2.51c-0.85-0.54-1.97-0.29-2.51,0.56
		C366.23-108.67,365.44-107.62,364.56-106.65"/>
	<path class="st2" d="M371.81-117.18L371.81-117.18c-0.92-0.17-1.81,0.39-2.06,1.28c-0.21,0.75-0.45,1.57-0.7,2.31
		c-0.29,0.9,0.16,1.87,1.04,2.22c0.97,0.38,2.06-0.14,2.36-1.14c0.2-0.64,0.39-1.27,0.49-1.58c0.09-0.27,0.18-0.54,0.26-0.82
		C373.52-115.92,372.87-116.99,371.81-117.18"/>
	<path class="st5" d="M313.46-143.39c-1.07,1.54-24.59,43.88-24.59,43.88l11.31,27.53l1.37,3.33l-2.77,7.04l-3.19,8.12l3.58,0.15
		l3.68,0.16l30.66,1.31L327-67.56l13.11-25.79l1.66-3.27l1.48-2.9C343.25-99.51,315.89-139.9,313.46-143.39"/>
	<path class="st5" d="M327.21-7.32c-0.18-0.09-0.36-0.19-0.54-0.29C326.86-7.51,327.03-7.42,327.21-7.32"/>
	<path class="st5" d="M313.72-22.12c-0.09-0.15-0.18-0.31-0.27-0.47C313.54-22.44,313.63-22.28,313.72-22.12"/>
	<path class="st5" d="M325.76-8.17c-0.18-0.11-0.35-0.23-0.52-0.35C325.41-8.4,325.58-8.29,325.76-8.17"/>
	<path class="st5" d="M313.2-23.04c-0.09-0.15-0.17-0.31-0.26-0.46C313.02-23.35,313.11-23.2,313.2-23.04"/>
	<path class="st5" d="M315-20c-0.17-0.27-0.34-0.54-0.5-0.81C314.67-20.54,314.83-20.27,315-20"/>
	<path class="st5" d="M314.27-21.19c-0.1-0.17-0.2-0.34-0.3-0.51C314.07-21.52,314.17-21.35,314.27-21.19"/>
	<path class="st5" d="M331.79-5.78c-0.17-0.03-0.34-0.05-0.51-0.09C331.45-5.83,331.62-5.8,331.79-5.78"/>
	<path class="st5" d="M332.53-5.69c-0.17-0.01-0.33-0.03-0.5-0.05C332.2-5.72,332.37-5.7,332.53-5.69"/>
	<path class="st5" d="M320.75-12.44c-0.14-0.15-0.28-0.3-0.42-0.45C320.47-12.74,320.61-12.59,320.75-12.44"/>
	<path class="st5" d="M311.98-25.31c-0.07-0.14-0.14-0.28-0.22-0.42C311.83-25.59,311.91-25.45,311.98-25.31"/>
	<path class="st5" d="M311.49-26.26c-0.07-0.13-0.13-0.27-0.2-0.4C311.36-26.53,311.43-26.39,311.49-26.26"/>
	<path class="st5" d="M333.46-5.64c-0.24,0-0.47-0.01-0.71-0.03C332.99-5.66,333.23-5.64,333.46-5.64"/>
	<path class="st5" d="M312.66-24.02c-0.14-0.26-0.28-0.52-0.42-0.78C312.38-24.53,312.52-24.28,312.66-24.02"/>
	<path class="st5" d="M323.54-9.8c-0.15-0.12-0.3-0.25-0.45-0.38C323.25-10.05,323.39-9.93,323.54-9.8"/>
	<path class="st5" d="M316.77-17.35c-0.14-0.19-0.27-0.38-0.4-0.58C316.5-17.74,316.63-17.54,316.77-17.35"/>
	<path class="st5" d="M322.24-10.95c-0.21-0.2-0.42-0.4-0.63-0.61C321.82-11.35,322.03-11.15,322.24-10.95"/>
	<path class="st5" d="M318.7-14.79c-0.13-0.16-0.26-0.32-0.38-0.48C318.44-15.11,318.57-14.95,318.7-14.79"/>
	<path class="st5" d="M329.45-6.35c-0.16-0.05-0.32-0.11-0.48-0.17C329.13-6.46,329.29-6.41,329.45-6.35"/>
	<path class="st5" d="M319.46-13.87c-0.18-0.22-0.37-0.43-0.55-0.66C319.1-14.3,319.28-14.09,319.46-13.87"/>
	<path class="st5" d="M318.08-15.57c-0.13-0.16-0.25-0.33-0.38-0.5C317.83-15.91,317.95-15.74,318.08-15.57"/>
	<path class="st5" d="M328.73-6.62c-0.17-0.07-0.34-0.14-0.51-0.22C328.39-6.76,328.56-6.69,328.73-6.62"/>
	<path class="st5" d="M317.49-16.36c-0.19-0.25-0.37-0.5-0.56-0.76C317.11-16.86,317.3-16.61,317.49-16.36"/>
	<path class="st5" d="M316.13-18.28c-0.11-0.16-0.22-0.33-0.33-0.49C315.91-18.6,316.02-18.44,316.13-18.28"/>
	<path class="st5" d="M322.88-10.37c-0.18-0.16-0.36-0.32-0.54-0.49C322.52-10.69,322.7-10.53,322.88-10.37"/>
	<path class="st5" d="M331.08-5.9c-0.23-0.05-0.47-0.1-0.7-0.16C330.61-6,330.84-5.95,331.08-5.9"/>
	<path class="st5" d="M330.28-6.09c-0.2-0.05-0.4-0.11-0.6-0.18C329.88-6.21,330.08-6.15,330.28-6.09"/>
	<path class="st5" d="M324.25-9.24c-0.16-0.12-0.32-0.25-0.49-0.38C323.93-9.49,324.09-9.36,324.25-9.24"/>
	<path class="st5" d="M315.55-19.14c-0.11-0.17-0.22-0.33-0.32-0.5C315.34-19.47,315.45-19.3,315.55-19.14"/>
	<path class="st5" d="M360.8-8.48c0.34,0.14,0.67,0.28,1.01,0.43c0.97,0.41,1.94,0.83,2.99,1.19c-1.05-0.36-2.03-0.77-2.99-1.19
		C361.48-8.2,361.14-8.34,360.8-8.48"/>
	<path class="st5" d="M306.4-38.57c-0.02-0.04-0.03-0.09-0.05-0.13C306.37-38.66,306.39-38.61,306.4-38.57"/>
	<path class="st5" d="M376.07-6.93c-0.13,0.05-0.25,0.1-0.38,0.15C375.82-6.83,375.95-6.88,376.07-6.93"/>
	<path class="st5" d="M306.09-39.52c0-0.02-0.01-0.03-0.01-0.05C306.08-39.55,306.08-39.53,306.09-39.52"/>
	<path class="st5" d="M328.04-6.91c-0.23-0.11-0.46-0.21-0.68-0.33C327.59-7.13,327.81-7.02,328.04-6.91"/>
	<path class="st5" d="M307.66-35.03c-0.02-0.06-0.05-0.13-0.07-0.19C307.61-35.16,307.64-35.1,307.66-35.03"/>
	<path class="st5" d="M325.09-8.62c-0.22-0.15-0.44-0.31-0.66-0.48C324.65-8.94,324.87-8.78,325.09-8.62"/>
	<path class="st5" d="M321.41-11.75c-0.15-0.15-0.29-0.3-0.44-0.45C321.12-12.05,321.27-11.9,321.41-11.75"/>
	<path class="st5" d="M305.03-43.02c-0.01-0.02-0.01-0.04-0.02-0.06C305.02-43.06,305.02-43.04,305.03-43.02"/>
	<path class="st5" d="M373.86-6.2c-0.32,0.08-0.65,0.15-0.98,0.2C373.21-6.05,373.54-6.12,373.86-6.2"/>
	<path class="st5" d="M364.8-6.87c1.74,0.6,3.68,1.04,6.07,1.04c0.52,0,1.04-0.04,1.55-0.1c-0.51,0.07-1.03,0.1-1.55,0.1
		C368.49-5.83,366.55-6.27,364.8-6.87"/>
	<path class="st5" d="M320.12-13.12c-0.18-0.21-0.37-0.41-0.55-0.63C319.75-13.54,319.93-13.33,320.12-13.12"/>
	<path class="st5" d="M309.05-31.57c-0.02-0.04-0.03-0.08-0.05-0.12C309.01-31.65,309.03-31.61,309.05-31.57"/>
	<path class="st5" d="M309.47-30.59c-0.04-0.1-0.09-0.2-0.13-0.3C309.38-30.79,309.42-30.69,309.47-30.59"/>
	<path class="st5" d="M308.03-34.08c-0.03-0.08-0.06-0.15-0.09-0.23C307.97-34.23,308-34.16,308.03-34.08"/>
	<path class="st5" d="M357.65-9.61c-0.56-0.16-1.15-0.29-1.77-0.4C356.5-9.9,357.09-9.76,357.65-9.61"/>
	<path class="st5" d="M355.88-10.01c-0.62-0.11-1.28-0.19-1.99-0.24C354.6-10.2,355.26-10.11,355.88-10.01"/>
	<path class="st5" d="M310.24-28.86c-0.02-0.05-0.04-0.09-0.06-0.14C310.2-28.95,310.22-28.91,310.24-28.86"/>
	<path class="st5" d="M349.75-9.94c-1.54,0.37-3.19,0.99-4.9,1.63C346.57-8.95,348.21-9.56,349.75-9.94"/>
	<path class="st5" d="M309.89-29.64c-0.05-0.11-0.09-0.21-0.14-0.32C309.79-29.85,309.84-29.74,309.89-29.64"/>
	<path class="st5" d="M308.33-33.32c0-0.01-0.01-0.02-0.01-0.02C308.32-33.33,308.32-33.33,308.33-33.32"/>
	<path class="st5" d="M359.78-8.89c-0.51-0.2-1.04-0.38-1.58-0.55C358.75-9.27,359.27-9.09,359.78-8.89"/>
	<path class="st5" d="M326.45-7.75c-0.15-0.09-0.31-0.18-0.46-0.28C326.14-7.93,326.29-7.84,326.45-7.75"/>
	<path class="st5" d="M360.8-8.48c-0.34-0.14-0.68-0.28-1.02-0.41C360.13-8.76,360.47-8.62,360.8-8.48"/>
	<path class="st5" d="M311.02-27.21c-0.06-0.12-0.11-0.24-0.17-0.36C310.91-27.45,310.96-27.33,311.02-27.21"/>
	<path class="st2" d="M387.13-69.2c-0.96-0.8-2.41-0.41-2.85,0.76c-0.28,0.75-0.55,1.56-0.78,2.33c-0.28,0.94,0.23,1.93,1.16,2.24
		c0.98,0.33,2.03-0.23,2.31-1.22c0.21-0.71,0.45-1.45,0.68-2.1C387.93-67.91,387.72-68.71,387.13-69.2"/>
	<path class="st2" d="M351.18-89.99c1.15,0,2.85-0.64,5.5-1.69l0.08-0.03c3.86-1.54,8.67-3.45,14.17-3.45
		c4.78,0,16.67,1.17,23.89,12.02c0.51,0.76,0.33,1.79-0.4,2.35l-0.01,0.01c-0.64,0.48-1.36,1.03-2.13,1.66
		c-1,0.82-2.89,2.36-4.7,4.71c-0.59,0.76-0.43,1.86,0.34,2.44l0.13,0.09c0.76,0.57,1.84,0.41,2.42-0.34c0,0,0.01-0.01,0.01-0.01
		c1.32-1.68,2.79-3.02,4.09-4.08c0.72-0.59,1.41-1.11,2.04-1.58l2.72-2.05c0.73-0.55,0.91-1.58,0.4-2.35l-1.12-1.68l-0.78-1.17
		c-8.2-12.31-21.55-13.64-26.94-13.64c-6.16,0-11.33,2.06-15.48,3.71l-0.08,0.03c-1.24,0.49-3.55,1.41-4.16,1.43
		c-1.19,0-3.98-1.03-6.22-1.85c-1.03-0.38-2.09-0.77-3.19-1.15l-1.66,3.27c1.23,0.41,2.43,0.85,3.59,1.28
		C346.6-91,349.34-89.99,351.18-89.99"/>
	<path class="st2" d="M397.34-43.1c-0.67-0.4-1.34-0.81-1.99-1.24c-0.78-0.51-1.53-1.07-2.24-1.66c-0.8-0.67-1.56-1.41-2.24-2.21
		c-0.76-0.88-1.43-1.85-1.99-2.87c-0.64-1.16-1.14-2.39-1.5-3.65c-0.43-1.49-0.67-3.02-0.76-4.56c0-0.05-0.01-0.09-0.01-0.14
		c-0.05-0.93-0.8-1.66-1.73-1.66h-0.15c-1,0-1.79,0.85-1.73,1.85c0.01,0.23,0.03,0.46,0.05,0.69c0.06,0.78,0.16,1.56,0.29,2.33
		c0.12,0.72,0.28,1.43,0.47,2.14c0.18,0.66,0.39,1.31,0.63,1.96c0.23,0.61,0.48,1.2,0.77,1.78c0.27,0.55,0.56,1.09,0.88,1.62
		c0.3,0.5,0.62,0.99,0.97,1.46c0.33,0.45,0.67,0.89,1.03,1.31c0.34,0.41,0.7,0.8,1.07,1.18c0.35,0.36,0.72,0.71,1.09,1.04
		c0.35,0.32,0.72,0.63,1.09,0.92c0.35,0.28,0.7,0.55,1.06,0.81c0.33,0.24,0.67,0.48,1.01,0.7c0.31,0.21,0.62,0.41,0.94,0.61
		c0.28,0.18,0.56,0.35,0.84,0.52c0.1,0.06,0.21,0.13,0.31,0.19c1.08,0.65,1.78,1.11,2.15,1.62c0.31,0.43,0.38,0.98,0.22,1.49
		c-0.98,3.15-6.41,16.56-14.44,24.69c-2.26,2.29-4.72,4.15-7.35,5.26c-0.13,0.05-0.25,0.1-0.38,0.15c-0.6,0.24-1.22,0.43-1.84,0.58
		c-0.32,0.08-0.65,0.15-0.98,0.2c-0.15,0.02-0.3,0.05-0.46,0.07c-0.51,0.07-1.03,0.1-1.55,0.1c-2.39,0-4.33-0.44-6.07-1.04
		c-1.05-0.36-2.02-0.77-2.99-1.19c-0.34-0.14-0.67-0.29-1.01-0.43c-0.34-0.14-0.68-0.28-1.02-0.41c-0.51-0.2-1.04-0.38-1.58-0.55
		c-0.18-0.06-0.37-0.11-0.55-0.16c-0.56-0.16-1.15-0.29-1.77-0.4c-0.62-0.11-1.28-0.19-1.99-0.24c-0.47-0.03-0.96-0.05-1.48-0.05
		c-0.84,0-1.73,0.14-2.65,0.36c-1.54,0.37-3.18,0.99-4.9,1.63c-0.42,0.16-0.84,0.32-1.27,0.47c-0.43,0.16-0.87,0.32-1.31,0.47
		c-0.22,0.08-0.45,0.15-0.67,0.23c-0.9,0.3-1.83,0.58-2.79,0.81c-1.67,0.41-3.42,0.68-5.23,0.68h-0.11h0
		c-0.24,0-0.47-0.01-0.71-0.03c-0.07,0-0.15-0.01-0.22-0.02c-0.17-0.01-0.33-0.03-0.5-0.05c-0.08-0.01-0.16-0.02-0.24-0.03
		c-0.17-0.03-0.34-0.05-0.51-0.09c-0.07-0.01-0.14-0.02-0.21-0.04c-0.23-0.05-0.47-0.1-0.7-0.16c-0.03-0.01-0.07-0.02-0.1-0.03
		c-0.2-0.06-0.4-0.11-0.6-0.18c-0.08-0.02-0.15-0.05-0.23-0.08c-0.16-0.06-0.32-0.11-0.48-0.17c-0.08-0.03-0.16-0.06-0.24-0.09
		c-0.17-0.07-0.34-0.14-0.51-0.22c-0.06-0.03-0.12-0.05-0.18-0.08c-0.23-0.11-0.46-0.22-0.68-0.33c-0.05-0.03-0.1-0.05-0.15-0.08
		c-0.18-0.09-0.36-0.19-0.54-0.29c-0.08-0.04-0.15-0.09-0.23-0.13c-0.16-0.09-0.31-0.19-0.46-0.28c-0.07-0.05-0.15-0.09-0.23-0.14
		c-0.18-0.11-0.35-0.23-0.52-0.35c-0.05-0.03-0.1-0.07-0.15-0.1c-0.22-0.15-0.44-0.31-0.66-0.48c-0.06-0.04-0.12-0.09-0.18-0.14
		c-0.16-0.13-0.32-0.25-0.49-0.38c-0.08-0.06-0.15-0.12-0.23-0.19c-0.15-0.12-0.3-0.25-0.45-0.38c-0.07-0.06-0.14-0.12-0.22-0.19
		c-0.18-0.16-0.36-0.32-0.54-0.49c-0.03-0.03-0.07-0.06-0.11-0.1c-0.21-0.2-0.42-0.4-0.63-0.61c-0.07-0.06-0.13-0.13-0.2-0.2
		c-0.15-0.15-0.29-0.3-0.44-0.45c-0.08-0.08-0.15-0.16-0.23-0.24c-0.14-0.15-0.28-0.3-0.42-0.45c-0.07-0.08-0.14-0.16-0.21-0.23
		c-0.18-0.21-0.37-0.41-0.55-0.63c-0.04-0.04-0.07-0.08-0.1-0.12c-0.18-0.22-0.37-0.43-0.55-0.66c-0.07-0.09-0.14-0.18-0.22-0.27
		c-0.13-0.16-0.26-0.32-0.38-0.48c-0.08-0.1-0.16-0.2-0.23-0.3c-0.13-0.16-0.25-0.33-0.38-0.5c-0.07-0.09-0.14-0.19-0.21-0.28
		c-0.19-0.25-0.37-0.5-0.56-0.76c-0.05-0.08-0.11-0.16-0.16-0.23c-0.14-0.19-0.27-0.38-0.4-0.58c-0.08-0.11-0.16-0.23-0.24-0.34
		c-0.11-0.16-0.22-0.33-0.33-0.49c-0.08-0.12-0.16-0.25-0.24-0.37c-0.11-0.17-0.22-0.33-0.32-0.5c-0.08-0.12-0.15-0.24-0.23-0.36
		c-0.17-0.27-0.34-0.54-0.5-0.81c-0.08-0.13-0.15-0.25-0.23-0.38c-0.1-0.17-0.2-0.34-0.3-0.51c-0.08-0.14-0.17-0.29-0.25-0.43
		c-0.09-0.15-0.18-0.31-0.27-0.47c-0.09-0.15-0.17-0.3-0.26-0.45c-0.09-0.15-0.17-0.31-0.26-0.46c-0.09-0.17-0.19-0.34-0.28-0.51
		c-0.14-0.26-0.28-0.52-0.41-0.78c-0.09-0.17-0.18-0.34-0.27-0.51c-0.07-0.14-0.14-0.28-0.22-0.42c-0.09-0.18-0.18-0.35-0.27-0.53
		c-0.07-0.13-0.13-0.27-0.2-0.4c-0.09-0.19-0.18-0.37-0.27-0.56c-0.06-0.12-0.11-0.24-0.17-0.36c-0.2-0.43-0.41-0.86-0.61-1.29
		c-0.02-0.05-0.04-0.09-0.06-0.14c-0.1-0.21-0.19-0.43-0.29-0.64c-0.05-0.11-0.09-0.21-0.14-0.32c-0.09-0.21-0.19-0.43-0.28-0.64
		c-0.04-0.1-0.09-0.2-0.13-0.3c-0.1-0.22-0.19-0.45-0.29-0.67c-0.02-0.04-0.03-0.08-0.05-0.12c-0.23-0.54-0.45-1.08-0.67-1.63
		c0-0.01-0.01-0.01-0.01-0.02c-0.1-0.25-0.2-0.49-0.29-0.74c-0.03-0.08-0.06-0.15-0.09-0.23c-0.09-0.24-0.19-0.48-0.28-0.73
		c-0.02-0.06-0.05-0.13-0.07-0.19c-0.42-1.11-0.81-2.23-1.19-3.34c-0.02-0.04-0.03-0.09-0.04-0.13c-0.09-0.27-0.18-0.54-0.27-0.81
		c0-0.02-0.01-0.03-0.01-0.05c-0.37-1.16-0.72-2.31-1.04-3.46c-0.01-0.02-0.01-0.04-0.02-0.06c-0.32-1.15-0.62-2.3-0.89-3.42
		l-3.73,0.02c1.7,7.51,4.6,15.63,8.25,22.67c7.25,14,16.06,21.75,24.82,21.8h0.12c4.8,0,8.92-1.54,12.55-2.89l0.03-0.01
		c2.29-0.86,4.66-1.75,6.25-1.75c3.4,0,5.43,0.86,7.99,1.95c2.64,1.12,5.92,2.52,10.48,2.52c7.74,0,15.49-5.85,22.43-16.91
		c2.35-3.75,4.33-7.67,5.77-10.92c1.62-3.66,2.55-6.47,2.55-7.21C401.62-40.53,399.16-42.01,397.34-43.1"/>
	<path class="st2" d="M325.99-8.03c-0.08-0.05-0.15-0.09-0.23-0.14C325.83-8.12,325.91-8.08,325.99-8.03"/>
	<path class="st2" d="M326.68-7.62c-0.08-0.04-0.15-0.09-0.23-0.13C326.53-7.7,326.6-7.66,326.68-7.62"/>
	<path class="st2" d="M327.36-7.24c-0.05-0.02-0.1-0.05-0.15-0.08C327.26-7.3,327.31-7.27,327.36-7.24"/>
	<path class="st2" d="M331.28-5.86c-0.07-0.01-0.14-0.02-0.21-0.04C331.15-5.89,331.21-5.88,331.28-5.86"/>
	<path class="st2" d="M343.58-7.83c-0.43,0.16-0.87,0.32-1.31,0.47C342.71-7.52,343.15-7.67,343.58-7.83"/>
	<path class="st2" d="M372.88-6c-0.15,0.02-0.3,0.05-0.46,0.07C372.58-5.95,372.73-5.97,372.88-6"/>
	<path class="st2" d="M341.59-7.13c-0.9,0.3-1.83,0.58-2.79,0.81C339.76-6.56,340.69-6.83,341.59-7.13"/>
	<path class="st2" d="M375.7-6.78c-0.6,0.24-1.22,0.43-1.84,0.58C374.48-6.35,375.09-6.54,375.7-6.78"/>
	<path class="st2" d="M383.43-12.19L383.43-12.19c-2.26,2.29-4.72,4.15-7.35,5.26C378.7-8.04,381.17-9.9,383.43-12.19"/>
	<path class="st2" d="M328.22-6.84c-0.06-0.03-0.12-0.05-0.18-0.08C328.1-6.89,328.16-6.86,328.22-6.84"/>
	<path class="st2" d="M329.68-6.27c-0.08-0.02-0.15-0.05-0.23-0.08C329.53-6.32,329.6-6.3,329.68-6.27"/>
	<path class="st2" d="M328.97-6.53c-0.08-0.03-0.16-0.06-0.24-0.09C328.81-6.58,328.89-6.56,328.97-6.53"/>
	<path class="st2" d="M330.38-6.07c-0.03-0.01-0.07-0.02-0.1-0.03C330.31-6.08,330.34-6.07,330.38-6.07"/>
	<path class="st2" d="M332.75-5.67c-0.07,0-0.15-0.01-0.22-0.02C332.61-5.68,332.68-5.68,332.75-5.67"/>
	<path class="st2" d="M332.03-5.74c-0.08-0.01-0.16-0.02-0.24-0.03C331.87-5.76,331.95-5.75,332.03-5.74"/>
	<path class="st2" d="M321.61-11.56c-0.07-0.06-0.13-0.13-0.2-0.2C321.48-11.69,321.54-11.62,321.61-11.56"/>
	<path class="st2" d="M313.45-22.59c-0.09-0.15-0.17-0.3-0.26-0.45C313.28-22.89,313.37-22.74,313.45-22.59"/>
	<path class="st2" d="M311.29-26.66c-0.09-0.18-0.18-0.37-0.27-0.56C311.11-27.03,311.2-26.84,311.29-26.66"/>
	<path class="st2" d="M310.18-29c-0.1-0.21-0.19-0.43-0.29-0.64C309.98-29.42,310.08-29.21,310.18-29"/>
	<path class="st2" d="M309.33-30.89c-0.1-0.22-0.19-0.45-0.29-0.67C309.14-31.34,309.24-31.12,309.33-30.89"/>
	<path class="st2" d="M309.75-29.95c-0.09-0.21-0.19-0.43-0.28-0.64C309.56-30.38,309.65-30.17,309.75-29.95"/>
	<path class="st2" d="M311.76-25.73c-0.09-0.18-0.18-0.35-0.27-0.53C311.58-26.08,311.67-25.9,311.76-25.73"/>
	<path class="st2" d="M312.94-23.51c-0.09-0.17-0.19-0.34-0.28-0.51C312.75-23.85,312.85-23.68,312.94-23.51"/>
	<path class="st2" d="M312.24-24.79c-0.09-0.17-0.18-0.34-0.27-0.51C312.07-25.13,312.16-24.96,312.24-24.79"/>
	<path class="st2" d="M310.85-27.57c-0.21-0.43-0.41-0.86-0.61-1.29C310.44-28.43,310.64-28,310.85-27.57"/>
	<path class="st2" d="M333.47-5.64L333.47-5.64L333.47-5.64h0.11c1.82,0,3.56-0.27,5.23-0.68c-1.67,0.41-3.42,0.68-5.23,0.68H333.47
		z"/>
	<path class="st2" d="M306.36-38.7c-0.09-0.27-0.18-0.54-0.27-0.81C306.18-39.25,306.27-38.98,306.36-38.7"/>
	<path class="st2" d="M306.07-39.56c-0.37-1.16-0.72-2.31-1.04-3.45C305.35-41.87,305.7-40.72,306.07-39.56"/>
	<path class="st2" d="M304.12-46.5L304.12-46.5c0.27,1.13,0.57,2.27,0.89,3.42C304.69-44.23,304.39-45.37,304.12-46.5"/>
	<path class="st2" d="M307.94-34.31c-0.09-0.24-0.19-0.48-0.28-0.73C307.75-34.79,307.85-34.55,307.94-34.31"/>
	<path class="st2" d="M308.32-33.34c-0.1-0.25-0.2-0.49-0.29-0.74C308.12-33.83,308.22-33.59,308.32-33.34"/>
	<path class="st2" d="M307.59-35.23c-0.42-1.11-0.81-2.23-1.19-3.34C306.77-37.46,307.17-36.34,307.59-35.23"/>
	<path class="st2" d="M325.23-8.52c-0.05-0.03-0.1-0.07-0.15-0.1C325.14-8.59,325.19-8.56,325.23-8.52"/>
	<path class="st2" d="M309-31.69c-0.23-0.54-0.45-1.08-0.67-1.63C308.54-32.77,308.77-32.23,309-31.69"/>
	<path class="st2" d="M320.97-12.2c-0.08-0.08-0.15-0.16-0.23-0.24C320.82-12.36,320.9-12.28,320.97-12.2"/>
	<path class="st2" d="M320.33-12.89c-0.07-0.08-0.14-0.15-0.21-0.23C320.19-13.04,320.26-12.97,320.33-12.89"/>
	<path class="st2" d="M322.34-10.85c-0.03-0.03-0.07-0.06-0.11-0.1C322.27-10.92,322.31-10.89,322.34-10.85"/>
	<path class="st2" d="M319.57-13.75c-0.04-0.04-0.07-0.08-0.1-0.12C319.5-13.83,319.53-13.79,319.57-13.75"/>
	<path class="st2" d="M318.91-14.52c-0.07-0.09-0.14-0.18-0.22-0.27C318.77-14.7,318.84-14.61,318.91-14.52"/>
	<path class="st2" d="M323.1-10.18c-0.07-0.06-0.14-0.12-0.22-0.19C322.95-10.3,323.03-10.24,323.1-10.18"/>
	<path class="st2" d="M324.43-9.1c-0.06-0.04-0.12-0.09-0.18-0.14C324.31-9.19,324.37-9.15,324.43-9.1"/>
	<path class="st2" d="M323.77-9.62c-0.08-0.06-0.15-0.12-0.23-0.19C323.62-9.74,323.69-9.68,323.77-9.62"/>
	<path class="st2" d="M314.5-20.81c-0.08-0.13-0.15-0.25-0.23-0.38C314.35-21.06,314.42-20.93,314.5-20.81"/>
	<path class="st2" d="M315.23-19.64c-0.08-0.12-0.15-0.24-0.23-0.36C315.08-19.88,315.15-19.76,315.23-19.64"/>
	<path class="st2" d="M315.8-18.77c-0.08-0.12-0.16-0.25-0.24-0.37C315.64-19.01,315.72-18.89,315.8-18.77"/>
	<path class="st2" d="M313.97-21.69c-0.08-0.14-0.17-0.29-0.25-0.43C313.8-21.98,313.89-21.84,313.97-21.69"/>
	<path class="st2" d="M316.36-17.93c-0.08-0.11-0.16-0.23-0.23-0.34C316.21-18.16,316.28-18.05,316.36-17.93"/>
	<path class="st2" d="M317.7-16.07c-0.07-0.09-0.14-0.19-0.21-0.28C317.56-16.26,317.63-16.17,317.7-16.07"/>
	<path class="st2" d="M318.31-15.28c-0.08-0.1-0.16-0.2-0.23-0.3C318.16-15.47,318.23-15.37,318.31-15.28"/>
	<path class="st2" d="M316.93-17.12c-0.06-0.08-0.11-0.16-0.16-0.23C316.82-17.27,316.88-17.2,316.93-17.12"/>
	<path class="st2" d="M345.67-99.94l-34.23-49.14l-2.22,3.19c-1.07,1.54-31.24,44.84-31.24,44.84l-0.91,1.3l15.73,32.35
		l-10.85,20.97l18.43-0.07l3.73-0.01l36.64-0.14l-10.83-20.94L345.67-99.94z M311.46-105.4c3.18,0,5.77,2.59,5.77,5.77
		c0,3.18-2.59,5.77-5.77,5.77s-5.77-2.59-5.77-5.77C305.69-102.81,308.28-105.4,311.46-105.4 M283.33-99.26
		c3.7-5.31,17.78-25.53,25.4-36.46v25.25c-4.85,1.23-8.45,5.61-8.45,10.83c0,6.17,5.02,11.19,11.19,11.19s11.19-5.02,11.19-11.19
		c0-5.24-3.63-9.64-8.51-10.85v-25.23l25.26,36.26l-14.2,29.2h-27.78L283.33-99.26z M331.88-52.02l-28.85,0.11l-3.67,0.01
		l-8.49,0.03l6.71-12.97h27.68L331.88-52.02z"/>
	<path class="st2" d="M352.65-154.41v-15.22h-15.22v4.9h-18.78c-1.11-3.05-4.03-5.24-7.47-5.24c-3.43,0-6.36,2.19-7.47,5.24h-18.55
		v-4.9h-15.22v15.22h15.22v-4.9h8.41c-0.07,0.05-0.13,0.1-0.2,0.14c-5.29,3.84-11.77,11.01-13.39,23.57
		c-3.18,1.04-5.48,4.03-5.48,7.55c0,4.38,3.57,7.95,7.95,7.95c4.39,0,7.95-3.57,7.95-7.95c0-3.33-2.07-6.19-4.98-7.37
		c2.29-15.98,13.51-21.55,18.55-23.26c1.27,2.72,4.02,4.61,7.21,4.61c3.22,0,6-1.93,7.25-4.7c4.9,1.6,16.44,7.06,18.81,23.24
		c-3.07,1.1-5.28,4.03-5.28,7.48c0,4.38,3.57,7.95,7.95,7.95c4.38,0,7.95-3.57,7.95-7.95c0-3.4-2.14-6.29-5.14-7.43
		c-1.6-12.63-8.1-19.83-13.41-23.69c-0.07-0.05-0.13-0.1-0.2-0.14h8.32v4.9H352.65z M279.74-159.83h-4.39v-4.39h4.39V-159.83z
		 M282.45-125.51c-1.4,0-2.54-1.14-2.54-2.54c0-1.4,1.14-2.54,2.54-2.54c1.4,0,2.54,1.14,2.54,2.54
		C284.98-126.65,283.85-125.51,282.45-125.51 M339.91-125.51c-1.4,0-2.54-1.14-2.54-2.54c0-1.4,1.14-2.54,2.54-2.54
		c1.4,0,2.54,1.14,2.54,2.54C342.44-126.65,341.3-125.51,339.91-125.51 M311.18-159.48c-1.4,0-2.54-1.14-2.54-2.54
		c0-1.4,1.14-2.54,2.54-2.54c1.4,0,2.54,1.14,2.54,2.54C313.71-160.62,312.57-159.48,311.18-159.48 M342.84-164.21h4.39v4.39h-4.39
		V-164.21z"/>
</g>
<g>
	<line class="st8" x1="834.15" y1="400" x2="834.15" y2="401.05"/>
	<line class="st9" x1="834.15" y1="403.16" x2="834.15" y2="473.97"/>
	<line class="st8" x1="834.15" y1="475.02" x2="834.15" y2="476.07"/>
	<line class="st10" x1="859.65" y1="401.68" x2="859.65" y2="477.74"/>
	<line class="st8" x1="803.63" y1="400.42" x2="803.63" y2="401.47"/>
	<line class="st9" x1="803.63" y1="403.58" x2="803.63" y2="474.39"/>
	<line class="st8" x1="803.63" y1="475.44" x2="803.63" y2="476.49"/>
	<line class="st8" x1="777.7" y1="398.75" x2="777.7" y2="399.79"/>
	<line class="st9" x1="777.7" y1="401.91" x2="777.7" y2="472.71"/>
	<line class="st8" x1="777.7" y1="473.77" x2="777.7" y2="474.81"/>
	<path class="st5" d="M866.76,416.31h1.05V405.6l-7.84-4.97h-26.83h-1.74l-0.61-1.63l-4.75-12.7l-11.54,0.75v8.47l6.27,0.73
		l-6.27,0.42l-11.29,8.36l0.06-0.83v-5.38v-28.34c0-2.27-1.85-4.12-4.12-4.12h-11.66c-2.53,0.94-4.33,3.36-4.33,6.21l-0.02,26.46
		l8.36,1.4h-8.36l-7.74-0.21h-2.51v-2.51v-10.87h-6.21l-6.54,1.88l-3.23,10.03l7.83,1.25l-8.36,0.42v74.84l12.96,0.42l-12.54,0.42
		l2.09,4.6l-0.42,7.53l13.36,1.11l3.91-11.93l0.57-1.74l1.83,0.01l24.37,0.19l18.68,0.23l-10.38,0.96l4.11,11.58l11.27,1.02v-10.84
		v-2.51h2.51h0.02v-0.22l24.67,0.42l-14.23,1.47l-0.19,25.45c0,3.34,2.71,6.05,6.05,6.05l10.46,0.48c0.31,0,0.6,0,0.89,0
		c1.18-0.58,2-1.78,2-3.18v-28.11v-1.36l1.14-0.74l8.3-5.38v-45.68h-1.05V423h1.05v-4.18h-1.05V416.31z"/>
	<path class="st5" d="M870.32,404.22l-9.62-6.09L870.32,404.22z"/>
	<path class="st5" d="M860.87,478.67l9.45-6.13L860.87,478.67z"/>
	
		<rect x="823.17" y="484.35" transform="matrix(0.083 -0.9965 0.9965 0.083 277.1961 1269.9816)" class="st5" width="11.07" height="0.02"/>
	<polygon class="st2" points="771.83,489.34 771.57,490.11 755.96,490.11 755.96,481.54 755.96,480.71 755.47,480.05 753.03,476.73 
		753.03,399.19 757.51,386.83 766.68,386.83 775.4,384.32 755.75,384.32 750.53,398.75 750.53,477.56 753.45,481.54 753.45,492.61 
		773.39,492.61 778.12,478.19 773.52,489.48 	"/>
	<path class="st2" d="M799.15,363.84L799.15,363.84c1.14,0,2.22,0.29,3.16,0.8C801.37,364.13,800.29,363.84,799.15,363.84"/>
	<polygon class="st2" points="860.87,506.79 860.87,506.79 860.87,506.79 860.87,478.67 	"/>
	<polygon class="st2" points="826.19,490.11 811.84,490.11 807.9,477.64 807.35,475.91 805.53,475.89 802.51,475.87 778.12,478.19 
		805.51,478.4 810.01,492.61 828.7,492.61 828.7,489.9 826.19,489.67 	"/>
	<path class="st2" d="M805.78,370.47c0-0.69-0.1-1.35-0.3-1.97C805.67,369.12,805.78,369.78,805.78,370.47"/>
	<path class="st2" d="M856.36,509.97c-0.47,0.23-0.99,0.36-1.55,0.36h-15.66c-1.95,0-3.54-1.59-3.54-3.54v-27.96v-2.51h-2.51h-4.39
		v2.51h4.39v27.96c0,3.34,2.71,6.05,6.05,6.05h15.66c2.94,0,5.39-2.1,5.94-4.87C860.33,509.86,858.75,509.97,856.36,509.97"/>
	<polygon class="st2" points="803.27,404.87 807.55,400.58 811.17,396.97 811.9,396.23 811.9,395.2 811.9,386 825.93,386 
		826.04,386.3 827.46,386.21 833.14,398.12 827.67,383.49 809.39,383.49 809.39,395.2 805.78,398.81 805.78,370.47 803.27,404.19 	
		"/>
	<path class="st2" d="M778.14,400.21h2.51v-2.51v-27.24c0-2.27,1.85-4.12,4.12-4.12h2.72c0.72-0.27,1.49-0.42,2.3-0.42l9.36-2.09
		h-14.38c-3.66,0-6.63,2.97-6.63,6.63v27.24h-2.74v2.51H778.14z"/>
	<path class="st2" d="M804.26,366.25c-0.54-0.65-1.2-1.2-1.96-1.61C803.06,365.04,803.72,365.59,804.26,366.25"/>
	<path class="st2" d="M867.81,471.18l-8.3,5.38l-1.14,0.74v1.36v28.11c0,1.4-0.82,2.61-2,3.18c2.39,0,3.97-0.11,4.39-2.01
		c0.07-0.38,0.12-0.77,0.12-1.17c0,0,0,0,0,0v-28.11l9.45-6.13v-45.78c0-0.69-0.56-1.25-1.25-1.25c-0.69,0-1.25,0.56-1.25,1.25
		V471.18z"/>
	<path class="st2" d="M787.49,366.35h11.66c2.27,0,4.12,1.85,4.12,4.12v28.34v5.38l2.51-33.73c0-0.69-0.1-1.35-0.3-1.97
		c-0.26-0.83-0.68-1.59-1.22-2.25c-0.54-0.66-1.2-1.2-1.96-1.61c-0.94-0.51-2.02-0.8-3.16-0.8l-9.36,2.09
		C788.98,365.93,788.21,366.08,787.49,366.35"/>
	<path class="st2" d="M827.46,386.21l-1.42,0.09l4.75,12.7l0.61,1.63h1.74h26.83l7.84,4.97v9.46c0,0.69,0.56,1.25,1.25,1.25
		s1.25-0.56,1.25-1.25v-10.84l-9.62-6.09h-27.56L827.46,386.21z"/>
	<polygon class="st2" points="778.14,475.68 776.31,475.67 775.74,477.41 771.83,489.34 773.52,489.48 778.12,478.19 802.51,475.87 
			"/>
	<polygon class="st2" points="772.89,386.83 772.89,397.7 772.89,400.21 775.4,400.21 775.4,397.7 775.4,384.32 766.68,386.83 	"/>
	<polygon class="st2" points="828.7,476.32 826.19,476.32 826.19,478.83 826.19,489.67 828.7,489.9 828.7,478.83 828.71,478.83 
		828.71,476.32 	"/>
	<line class="st11" x1="808.64" y1="410.04" x2="829.5" y2="410.04"/>
	<line class="st11" x1="808.64" y1="412.55" x2="829.5" y2="412.55"/>
	<line class="st11" x1="808.64" y1="415.06" x2="829.5" y2="415.06"/>
	<line class="st11" x1="808.64" y1="417.56" x2="829.5" y2="417.56"/>
	<line class="st11" x1="809.06" y1="465.23" x2="829.92" y2="465.23"/>
	<line class="st11" x1="809.06" y1="434.29" x2="829.92" y2="434.29"/>
	<line class="st12" x1="809.06" y1="436.8" x2="829.92" y2="436.8"/>
	<line class="st11" x1="791.48" y1="449.37" x2="791.48" y2="470.22"/>
	<line class="st11" x1="829.5" y1="421.19" x2="819.54" y2="421.19"/>
	<line class="st11" x1="829.5" y1="424.12" x2="819.54" y2="424.12"/>
	<line class="st12" x1="829.5" y1="427.05" x2="819.54" y2="427.05"/>
	<line class="st11" x1="799.02" y1="413.63" x2="799.02" y2="403.67"/>
	<line class="st11" x1="824.48" y1="467.6" x2="814.53" y2="467.6"/>
	<line class="st11" x1="780.63" y1="460.41" x2="780.63" y2="470.3"/>
	<line class="st11" x1="769.68" y1="449.47" x2="759.8" y2="449.47"/>
	<line class="st11" x1="780.63" y1="402.93" x2="780.63" y2="454.21"/>
	<line class="st11" x1="783.97" y1="402.93" x2="783.97" y2="470.3"/>
	<line class="st11" x1="787.32" y1="402.93" x2="787.32" y2="470.3"/>
	<path class="st7" d="M764.53,424.14l7.53,4.35v8.69l-7.53,4.34l-7.53-4.34v-8.69L764.53,424.14z M764.53,421.72l-9.62,5.55v11.1
		l9.62,5.55l9.62-5.55v-11.1L764.53,421.72z"/>
	<path class="st7" d="M813.24,442.95l7.53,4.35v8.69l-7.53,4.34l-7.53-4.34v-8.69L813.24,442.95z M813.24,440.54l-9.62,5.55v11.1
		l9.62,5.55l9.62-5.55v-11.1L813.24,440.54z"/>
	<line class="st11" x1="756.17" y1="446.62" x2="773.66" y2="446.62"/>
	<polygon class="st7" points="838.75,448.06 835.4,449.99 835.4,452.41 838.75,450.48 846.27,454.82 846.27,463.51 838.75,467.86 
		835.4,465.93 835.4,468.34 838.75,470.27 848.37,464.72 848.37,453.61 	"/>
	<polygon class="st7" points="864.25,407.51 867.6,409.44 867.6,411.85 864.25,409.92 856.73,414.26 856.73,422.95 864.25,427.3 
		867.6,425.37 867.6,427.78 864.25,429.71 854.64,424.16 854.64,413.06 	"/>
</g>
<g>
	<path class="st5" d="M289,438.34c-5.21,1.21-8.45,6.4-7.24,11.61c1.21,5.21,6.4,8.45,11.61,7.24l-0.45,0.9l-4.04-19.72L289,438.34z
		"/>
	<path class="st5" d="M302.71,462.71l6.4,27.65l5.29-1.22l-6.4-27.65C308,461.48,302.7,462.71,302.71,462.71"/>
	<polygon class="st5" points="308.98,426.21 316.02,456.63 363.49,466.65 348.18,400.53 	"/>
	<polygon class="st5" points="290.81,431.83 297.44,460.48 313.61,459.39 306.39,428.22 	"/>
	<path class="st5" d="M371.35,370.37h-16.53c-1.52,0-2.75,1.24-2.75,2.75v16.53c0,1.52,1.24,2.75,2.75,2.75h16.53
		c1.52,0,2.75-1.24,2.75-2.75v-16.53C374.1,371.61,372.87,370.37,371.35,370.37"/>
	<path class="st7" d="M370.66,381.39h-3.44v-2.75c0-0.76,0.62-0.69,1.38-0.69h1.38v-3.44h-2.75c-2.28,0-4.13,1.85-4.13,4.13v2.75
		h-2.76v3.44h2.76v7.58h4.13v-7.58h2.07L370.66,381.39z"/>
	<path class="st5" d="M398.02,432.35c-1.71,1.77-1.36,3.66-1.36,9.38c0,4.75-0.83,9.52,3.51,10.64c1.36,0.35,13.37,0.35,14.72,0
		c1.81-0.47,3.28-1.93,3.48-4.49c0.03-0.36,0.03-11.94,0-12.3c-0.21-2.72-1.89-4.29-4.1-4.61c-0.51-0.07-0.61-0.09-3.2-0.1
		C401.86,430.88,399.84,430.47,398.02,432.35"/>
	<path class="st7" d="M407.53,433.71c-3.29,0-6.41-0.29-7.6,2.77c-0.49,1.26-0.42,2.91-0.42,5.26c0,2.06-0.07,4,0.42,5.26
		c1.19,3.06,4.34,2.77,7.6,2.77c3.15,0,6.4,0.33,7.6-2.77c0.49-1.28,0.42-2.89,0.42-5.26c0-3.13,0.17-5.16-1.35-6.68
		C412.66,433.52,410.58,433.71,407.53,433.71L407.53,433.71z M406.81,435.16c6.86-0.01,7.73-0.77,7.25,9.82
		c-0.17,3.75-3.02,3.34-6.53,3.34c-6.39,0-6.58-0.18-6.58-6.58C400.95,435.26,401.46,435.16,406.81,435.16L406.81,435.16z
		 M411.81,436.49c-0.53,0-0.96,0.43-0.96,0.96c0,0.53,0.43,0.96,0.96,0.96c0.53,0,0.96-0.43,0.96-0.96
		C412.78,436.92,412.34,436.49,411.81,436.49 M407.53,437.62c-2.28,0-4.12,1.85-4.12,4.12c0,2.28,1.84,4.12,4.12,4.12
		c2.28,0,4.12-1.84,4.12-4.12C411.65,439.46,409.8,437.62,407.53,437.62 M407.53,439.06c3.54,0,3.54,5.35,0,5.35
		C403.99,444.41,403.99,439.06,407.53,439.06"/>
	<path class="st5" d="M414.51,398.71c-0.93,0.41-1.91,0.68-2.94,0.81c1.06-0.63,1.87-1.63,2.25-2.82c-0.99,0.59-2.08,1-3.24,1.24
		c-0.94-1-2.27-1.62-3.73-1.62c-2.83,0-5.1,2.3-5.1,5.11c0,0.4,0.03,0.79,0.12,1.16c-4.25-0.21-8-2.24-10.53-5.34
		c-0.44,0.76-0.7,1.64-0.7,2.58c0,1.77,0.91,3.34,2.27,4.24c-0.82-0.01-1.63-0.25-2.31-0.63v0.06c0,2.48,1.77,4.54,4.09,5.02
		c-0.42,0.11-0.87,0.17-1.34,0.17c-0.33,0-0.66-0.02-0.97-0.09c0.66,2.02,2.54,3.51,4.77,3.56c-1.74,1.36-3.94,2.18-6.33,2.18
		c-0.42,0-0.82-0.02-1.22-0.07c2.26,1.46,4.94,2.29,7.84,2.29c9.4,0,14.54-7.79,14.54-14.54c0-0.23-0.01-0.44-0.02-0.66
		C412.96,400.64,413.82,399.74,414.51,398.71"/>
	
		<rect x="290.49" y="430.13" transform="matrix(0.9742 -0.2255 0.2255 0.9742 -92.9779 79.1772)" class="st13" width="19.09" height="32.77"/>
	<path class="st13" d="M292.91,458.09l-6,1.39c-3.07,0.71-6.14-1.2-6.85-4.28l-1.79-7.73c-0.71-3.07,1.2-6.14,4.28-6.85l6-1.39
		L292.91,458.09z"/>
	
		<rect x="303.06" y="462.11" transform="matrix(0.9742 -0.2256 0.2256 0.9742 -99.5479 81.5302)" class="st13" width="7.74" height="28.38"/>
	<polygon class="st13" points="305.64,428.39 313.03,460.32 363.49,466.65 359.53,449.55 352.14,417.63 348.18,400.53 	"/>
	<line class="st14" x1="360.44" y1="415.71" x2="374.14" y2="405.12"/>
	<line class="st14" x1="385.67" y1="449.24" x2="368.49" y2="447.04"/>
	<line class="st14" x1="368.32" y1="429.11" x2="386.63" y2="424.87"/>
</g>
<g>
	<path class="st5" d="M-94.44,446.25c-0.94-0.5-1.59-1.49-1.59-2.63v-32.98h-0.94l5.16-13.1c0.42-1.06,1.43-1.75,2.57-1.75
		c0.19,0,0.37,0.02,0.54,0.05v-7.23c0,0-2.38-5.19-7.36-5.19h-35.36c-2.64,0-4.78,2.14-4.79,4.78l-0.18,59.92
		c-0.01,1.95,1.47,3.58,3.4,3.77l40.14,4.03c0,0,3.5-2.08,4.15-5.22v-1.15h-1.59C-92.3,449.54-94,448.13-94.44,446.25"/>
	<path class="st2" d="M-139.38,398.8h-4.12c-0.55,0-1-0.45-1-1c0-0.55,0.45-1,1-1h4.12c0.55,0,1,0.45,1,1
		C-138.38,398.35-138.83,398.8-139.38,398.8"/>
	<path class="st2" d="M-139.38,407.39h-4.12c-0.55,0-1-0.45-1-1c0-0.55,0.45-1,1-1h4.12c0.55,0,1,0.45,1,1
		C-138.38,406.94-138.83,407.39-139.38,407.39"/>
	<path class="st2" d="M-139.38,415.98h-4.12c-0.55,0-1-0.45-1-1c0-0.55,0.45-1,1-1h4.12c0.55,0,1,0.45,1,1
		C-138.38,415.53-138.83,415.98-139.38,415.98"/>
	<path class="st2" d="M-139.38,424.57h-4.12c-0.55,0-1-0.45-1-1c0-0.55,0.45-1,1-1h4.12c0.55,0,1,0.45,1,1
		C-138.38,424.12-138.83,424.57-139.38,424.57"/>
	<path class="st2" d="M-139.38,433.16h-4.12c-0.55,0-1-0.45-1-1s0.45-1,1-1h4.12c0.55,0,1,0.45,1,1S-138.83,433.16-139.38,433.16"/>
	<path class="st2" d="M-139.38,441.75h-4.12c-0.55,0-1-0.45-1-1s0.45-1,1-1h4.12c0.55,0,1,0.45,1,1S-138.83,441.75-139.38,441.75"/>
	<path class="st7" d="M-90.28,446.54c-0.7,0-1.28-0.57-1.28-1.28v-1.68h-1.48v-31.98h7.6v31.98h-1.48v1.68
		c0,0.67-0.52,1.23-1.2,1.27c0,0-0.07,0.01-0.08,0.01H-90.28z"/>
	<path class="st2" d="M-86.43,412.61v29.98h-1.48v2v0.68c0,0.15-0.11,0.27-0.26,0.28l-0.04,0l-0.01,0h-1.82h-0.24
		c-0.15,0-0.28-0.13-0.28-0.28v-0.68v-2h-1.48v-29.98H-86.43 M-84.43,410.62h-9.6v33c0,0.54,0.44,0.97,0.97,0.97h0.5v0.68
		c0,1.26,1.02,2.28,2.28,2.28h0.24h1.85c0.05,0,0.1,0,0.15-0.01c1.19-0.08,2.13-1.06,2.13-2.27v-0.68h0.5
		c0.54,0,0.97-0.44,0.97-0.97V410.62z"/>
	<path class="st2" d="M-90.04,449.54v0.15c0,2.89-2.35,5.24-5.24,5.24h-39.86c-2.89,0-5.24-2.35-5.24-5.24v-59.84
		c0-2.89,2.35-5.24,5.24-5.24h39.86c2.89,0,5.24,2.35,5.24,5.24v5.16c0,0.44,0.36,0.77,0.8,0.77h0.01c0.12,0,0.23,0.01,0.34,0.02
		c0.45,0.06,0.85-0.31,0.85-0.77v-5.18c0-4-3.24-7.24-7.24-7.24h-39.86c-4,0-7.24,3.24-7.24,7.24v59.84c0,4,3.24,7.24,7.24,7.24
		h39.86c4,0,7.24-3.24,7.24-7.24v-0.16c-0.05,0-0.1,0.01-0.15,0.01H-90.04z"/>
	<polygon class="st7" points="-92.57,407.64 -89.23,399.18 -85.9,407.64 	"/>
	<path class="st2" d="M-89.23,401.9l1.87,4.73h-0.67h-2h-1.06L-89.23,401.9 M-89.23,397.78c-0.29,0-0.59,0.16-0.71,0.49l-0.09,0.23
		l-4,10.14h4h2h3.61l-3.61-9.15l-0.48-1.21C-88.65,397.94-88.94,397.78-89.23,397.78"/>
	<path class="st2" d="M-81.88,427.6c-0.46,0-0.83,0.37-0.83,0.83v12.92c0,0.46,0.37,0.83,0.83,0.83c0.46,0,0.83-0.37,0.83-0.83
		v-12.92C-81.05,427.97-81.42,427.6-81.88,427.6"/>
	<rect x="-92.83" y="442.35" class="st2" width="6.39" height="1.8"/>
	<path class="st15" d="M-97.62,392.61h-33.05c-0.55,0-1-0.45-1-1c0-0.55,0.45-1,1-1h33.05c0.55,0,1,0.45,1,1
		C-96.62,392.16-97.07,392.61-97.62,392.61"/>
	<path class="st15" d="M-97.62,397.4h-33.05c-0.55,0-1-0.45-1-1c0-0.55,0.45-1,1-1h33.05c0.55,0,1,0.45,1,1
		C-96.62,396.95-97.07,397.4-97.62,397.4"/>
	<path class="st15" d="M-107.79,402.19h-22.88c-0.55,0-1-0.45-1-1c0-0.55,0.45-1,1-1h22.88c0.55,0,1,0.45,1,1
		C-106.79,401.75-107.24,402.19-107.79,402.19"/>
	<path class="st15" d="M-107.79,412.98h-22.88c-0.55,0-1-0.45-1-1c0-0.55,0.45-1,1-1h22.88c0.55,0,1,0.45,1,1
		C-106.79,412.54-107.24,412.98-107.79,412.98"/>
	<path class="st15" d="M-107.79,419.38h-22.88c-0.55,0-1-0.45-1-1c0-0.55,0.45-1,1-1h22.88c0.55,0,1,0.45,1,1
		C-106.79,418.93-107.24,419.38-107.79,419.38"/>
	<path class="st15" d="M-107.79,425.57h-22.88c-0.55,0-1-0.45-1-1c0-0.55,0.45-1,1-1h22.88c0.55,0,1,0.45,1,1
		C-106.79,425.12-107.24,425.57-107.79,425.57"/>
	<path class="st15" d="M-102.02,437.16h-13.98c-0.55,0-1-0.45-1-1c0-0.55,0.45-1,1-1h13.98c0.55,0,1,0.45,1,1
		C-101.02,436.71-101.47,437.16-102.02,437.16"/>
	<path class="st15" d="M-102.02,441.75h-13.98c-0.55,0-1-0.45-1-1c0-0.55,0.45-1,1-1h13.98c0.55,0,1,0.45,1,1
		C-101.02,441.3-101.47,441.75-102.02,441.75"/>
</g>
<g>
	<rect x="-627.82" y="370.99" class="st5" width="118.76" height="6.9"/>
	<rect x="-627.45" y="444.35" class="st5" width="118.76" height="6.9"/>
	<polygon class="st5" points="-570.27,453.07 -570.8,468.69 -562.08,469.78 -562.09,453.07 	"/>
	<path class="st5" d="M-579.65,471.59c0,0-7.12,2.91-6.76,5.81l40.31,1.09c0,0,0.44-2.76-2.5-4.65c-2.94-1.89-7.68-2.62-11.48-2.25
		C-563.9,471.95-579.65,471.59-579.65,471.59"/>
	<path class="st5" d="M-578.06,392.24c0,4.11-3.33,7.44-7.44,7.44s-7.44-3.33-7.44-7.44c0-4.11,3.33-7.44,7.44-7.44
		S-578.06,388.13-578.06,392.24"/>
	<polygon class="st5" points="-574.1,387.87 -581.14,400.98 -587.64,416.62 -588.2,417.96 -589.42,420.91 -590.41,423.29 
		-588.04,423.4 -585.03,423.54 -583.79,423.59 -558.74,424.74 -553.76,424.74 	"/>
	<polygon class="st5" points="-597.89,424.48 -592.74,414.89 -601.43,399.12 -606.87,409.24 -612.93,423.79 	"/>
	<polygon class="st2" points="-587.18,424.97 -592.07,424.74 -593.91,424.74 -593.87,424.66 -597.89,424.48 -598.23,425.11 
		-587.1,425.11 	"/>
	<polygon class="st2" points="-581.14,400.98 -574.12,384.07 -550.82,425.11 -558.74,424.74 -583.15,424.74 -581.15,428.38 
		-547.61,428.38 -574.14,380.27 -590.69,411.08 -588.6,414.87 	"/>
	<polygon class="st2" points="-592.07,424.74 -587.18,424.97 -587.3,424.74 	"/>
	<polygon class="st2" points="-592.74,414.89 -597.89,424.48 -593.87,424.66 -590.65,418.68 	"/>
	<polygon class="st2" points="-553.76,424.74 -558.74,424.74 -550.82,425.11 -574.12,384.07 -581.14,400.98 -574.1,387.87 	"/>
	<polygon class="st2" points="-581.15,428.37 -599.98,428.37 -598.23,425.11 -615.39,425.11 -606.87,409.24 -601.43,399.12 
		-592.74,414.89 -591.38,412.37 -590.69,411.08 -601.48,391.53 -621.47,428.74 	"/>
	<polygon class="st2" points="-589.26,416.09 -588.6,414.87 -590.69,411.08 -591.38,412.37 	"/>
	<polygon class="st2" points="-584.34,424.74 -584.13,425.11 -587.18,424.97 -587.1,425.11 -598.23,425.11 -599.98,428.37 
		-581.15,428.37 -583.16,424.74 	"/>
	<polygon class="st2" points="-587.18,424.97 -584.13,425.11 -584.34,424.74 -587.3,424.74 	"/>
	<polygon class="st2" points="-590.65,418.68 -589.26,416.09 -591.38,412.37 -592.74,414.89 	"/>
	<path class="st5" d="M-533.43,403.8c-0.34,0.49-7.77,13.87-7.77,13.87l3.57,8.7l0.43,1.05l-0.87,2.23l-1.01,2.57l1.13,0.05
		l1.16,0.05l9.69,0.42l-2.05-4.97l4.15-8.15l0.52-1.03l0.47-0.92C-524.02,417.67-532.67,404.9-533.43,403.8"/>
	<path class="st2" d="M-523.25,417.54L-534.07,402l-0.7,1.01c-0.34,0.49-9.88,14.17-9.88,14.17l-0.29,0.41l4.97,10.23l-3.43,6.63
		l5.83-0.02l1.18,0l11.58-0.04l-3.42-6.62L-523.25,417.54z M-534.06,415.81c1.01,0,1.82,0.82,1.82,1.82c0,1.01-0.82,1.82-1.82,1.82
		c-1.01,0-1.82-0.82-1.82-1.82C-535.89,416.63-535.07,415.81-534.06,415.81 M-542.96,417.75c1.17-1.68,5.62-8.07,8.03-11.53v7.98
		c-1.53,0.39-2.67,1.77-2.67,3.43c0,1.95,1.59,3.54,3.54,3.54s3.54-1.59,3.54-3.54c0-1.66-1.15-3.05-2.69-3.43v-7.98l7.99,11.46
		l-4.49,9.23h-8.78L-542.96,417.75z M-527.61,432.68l-9.12,0.03l-1.16,0l-2.68,0.01l2.12-4.1h8.75L-527.61,432.68z"/>
	<path class="st2" d="M-521.04,400.32v-4.81h-4.81v1.55h-5.94c-0.35-0.97-1.28-1.66-2.36-1.66c-1.09,0-2.01,0.69-2.36,1.66h-5.87
		v-1.55h-4.81v4.81h4.81v-1.55h2.66c-0.02,0.01-0.04,0.03-0.06,0.05c-1.67,1.21-3.72,3.48-4.23,7.45c-1,0.33-1.73,1.28-1.73,2.39
		c0,1.39,1.13,2.51,2.51,2.51c1.39,0,2.51-1.13,2.51-2.51c0-1.05-0.65-1.96-1.58-2.33c0.72-5.05,4.27-6.81,5.87-7.35
		c0.4,0.86,1.27,1.46,2.28,1.46c1.02,0,1.9-0.61,2.29-1.49c1.55,0.51,5.2,2.23,5.95,7.35c-0.97,0.35-1.67,1.28-1.67,2.37
		c0,1.39,1.13,2.51,2.51,2.51c1.39,0,2.51-1.13,2.51-2.51c0-1.07-0.68-1.99-1.63-2.35c-0.51-3.99-2.56-6.27-4.24-7.49
		c-0.02-0.02-0.04-0.03-0.06-0.05h2.63v1.55H-521.04z M-544.09,398.6h-1.39v-1.39h1.39V398.6z M-543.24,409.45
		c-0.44,0-0.8-0.36-0.8-0.8c0-0.44,0.36-0.8,0.8-0.8s0.8,0.36,0.8,0.8C-542.43,409.09-542.79,409.45-543.24,409.45 M-525.07,409.45
		c-0.44,0-0.8-0.36-0.8-0.8c0-0.44,0.36-0.8,0.8-0.8c0.44,0,0.8,0.36,0.8,0.8C-524.27,409.09-524.63,409.45-525.07,409.45
		 M-534.15,398.71c-0.44,0-0.8-0.36-0.8-0.8s0.36-0.8,0.8-0.8c0.44,0,0.8,0.36,0.8,0.8S-533.71,398.71-534.15,398.71
		 M-524.14,397.22h1.39v1.39h-1.39V397.22z"/>
	<path class="st2" d="M-627.82,439.12c-1,0-1.82-0.81-1.82-1.82v-61.58c0-3.61,2.94-6.55,6.55-6.55h109.29
		c3.61,0,6.55,2.94,6.55,6.55v5.09c0,1-0.81,1.82-1.82,1.82c-1,0-1.82-0.81-1.82-1.82v-5.09c0-1.61-1.31-2.92-2.92-2.92h-109.29
		c-1.61,0-2.92,1.31-2.92,2.92v61.58C-626,438.31-626.81,439.12-627.82,439.12"/>
	<path class="st2" d="M-513.79,454.89h-109.29c-3.61,0-6.55-2.94-6.55-6.55V437.3c0-1,0.81-1.82,1.82-1.82s1.82,0.81,1.82,1.82
		v11.03c0,1.61,1.31,2.92,2.92,2.92h109.29c1.61,0,2.92-1.31,2.92-2.92V395.4c0-1,0.81-1.82,1.82-1.82c1,0,1.82,0.81,1.82,1.82
		v52.94C-507.24,451.95-510.18,454.89-513.79,454.89"/>
	<path class="st2" d="M-560.81,473.41h-15.25v-22.15h15.25V473.41z M-572.43,469.78h7.99v-14.89h-7.99V469.78z"/>
	<path class="st2" d="M-543.92,482.12h-48.66v-1.82c0-5.81,4.72-10.53,10.53-10.53h27.6c5.81,0,10.53,4.73,10.53,10.53V482.12z
		 M-588.71,478.49h40.92c-0.8-2.93-3.48-5.08-6.66-5.08h-27.6C-585.23,473.41-587.91,475.57-588.71,478.49"/>
</g>
</svg>
