<?xml version="1.0" encoding="utf-8"?>
<!-- Generator: Adobe Illustrator 23.0.5, SVG Export Plug-In . SVG Version: 6.00 Build 0)  -->
<svg version="1.1" id="Layer_1" xmlns="http://www.w3.org/2000/svg" xmlns:xlink="http://www.w3.org/1999/xlink" x="0px" y="0px"
	 viewBox="0 0 283.5 283.5" style="enable-background:new 0 0 283.5 283.5;" xml:space="preserve">
<style type="text/css">
	.st0{fill:url(#SVGID_1_);}
	.st1{fill:#0E142F;}
	.st2{fill:#F2F2F2;stroke:#231F20;stroke-width:9;stroke-miterlimit:10;}
</style>
<radialGradient id="SVGID_1_" cx="288.5878" cy="216.0269" r="314.218" gradientTransform="matrix(1 0 0 1.0695 0 -13.3877)" gradientUnits="userSpaceOnUse">
	<stop  offset="0.3128" style="stop-color:#00FFFF"/>
	<stop  offset="0.8883" style="stop-color:#0000FF"/>
</radialGradient>
<path class="st0" d="M250.6,128.9c0,62.5-49.1,113.1-109.6,113.1c-60.6,0-109.6-50.6-109.6-113.1C31.3,66.5,80.4,15.8,141,15.8
	C201.5,15.8,250.6,66.5,250.6,128.9"/>
<g>
	<path class="st1" d="M245.8,86.9c-2.1-5.1-4.5-10-7.2-14.8c-1.2-2.2-4-2.9-6.1-1.6c-2.1,1.3-2.8,4.1-1.6,6.3
		c2.5,4.4,4.8,9,6.7,13.7c0.7,1.8,2.4,2.8,4.1,2.8c0.6,0,1.2-0.1,1.7-0.4C245.7,92,246.8,89.3,245.8,86.9z"/>
	<path class="st1" d="M252,106.5c-0.5-2.3-2.7-4-5-3.6c-2.6,0.4-4.3,3-3.7,5.6c2.1,9,3.2,18.4,3.2,27.8c0,10.8-1.4,21.4-4.2,31.5
		c-0.6,2.4,0.6,4.8,2.9,5.6c2.4,0.8,5-0.6,5.7-3.1c3-11,4.5-22.4,4.5-34C255.5,126.2,254.3,116.2,252,106.5z"/>
	<path class="st1" d="M164.2,183.8c0.1,0,0.1,0,0.2,0v0C164.3,183.9,164.2,183.8,164.2,183.8z"/>
	<path class="st1" d="M217.6,227.7l3.2-3.4C219.7,225.5,218.6,226.6,217.6,227.7L217.6,227.7z"/>
	<path class="st1" d="M211.2,221.1C211.2,221.1,211.2,221.1,211.2,221.1c-0.2-0.2-0.3-0.3-0.5-0.5
		C210.9,220.8,211.1,221,211.2,221.1z"/>
	<path class="st1" d="M42.3,221.1l3,3.2C44.3,223.3,43.4,222.2,42.3,221.1L42.3,221.1z"/>
	<path class="st1" d="M220.8,224.3l3-3.2l-0.1-0.1C222.8,222.2,221.8,223.3,220.8,224.3z"/>
	<path class="st1" d="M186.8,202.8c-0.5-0.3-1-0.6-1.5-0.8c-0.1-0.1-0.3-0.1-0.4-0.2c0.1,0.1,0.3,0.1,0.4,0.2v0
		C185.8,202.3,186.3,202.5,186.8,202.8z"/>
	<path class="st1" d="M196.2,197.8L196.2,197.8c-0.4-0.2-0.7-0.5-1.1-0.7C195.4,197.3,195.8,197.5,196.2,197.8L196.2,197.8
		c0.2,0.1,0.4,0.2,0.5,0.3C196.5,198,196.4,197.9,196.2,197.8L196.2,197.8z"/>
	<path class="st1" d="M188.2,193.2c-0.1-0.1-0.2-0.1-0.3-0.2C188,193.1,188.1,193.2,188.2,193.2L188.2,193.2
		c0.3,0.1,0.5,0.3,0.8,0.4C188.7,193.5,188.5,193.4,188.2,193.2L188.2,193.2z"/>
	<path class="st1" d="M235.6,131.6h-30.5c-0.3-14.1-1.9-27.7-4.6-40.5c5.1-3.5,10-7.4,14.6-11.7c1.8-1.7,2-4.6,0.3-6.5
		c-1.7-1.9-4.5-2-6.3-0.3c-3.5,3.3-7.2,6.3-11,9c-3.3-12.3-7.8-23.7-13.4-33.7c-5.3-9.6-11.4-17.5-18-23.5
		c13.3,4.3,25.8,11.1,37,20.3c1.9,1.6,4.7,1.3,6.3-0.7c1.5-2,1.2-4.9-0.7-6.5c-21.9-18-48.3-27.6-76.4-27.6c0,0,0,0,0,0c0,0,0,0,0,0
		c0,0,0,0,0,0c-35.9,0-69.3,15.9-92.6,43.7l-0.1-0.1L36.9,58c0,0,0,0.1-0.1,0.1L34.7,61l0,0C19,82.9,10.6,108.8,10.6,136.2
		c0,0,0,0,0,0s0,0,0,0c0,31.6,11.2,61.5,31.7,84.8l3-3.1c1.3-1.4,2.6-2.7,3.9-4c-0.2,0.2-0.4,0.4-0.6,0.6
		c-17.8-20.4-28-46.3-29-73.7H61c0.4,20.2,3.5,39.6,9,56.9v0c0,0,0,0,0,0c-0.2,0.1-0.4,0.2-0.5,0.3c0,0,0,0,0,0
		c-0.4,0.2-0.7,0.5-1.1,0.7c-0.5,0.3-1,0.6-1.5,1c-0.4,0.2-0.7,0.5-1.1,0.7c-0.5,0.3-0.9,0.6-1.4,1c-0.4,0.3-0.7,0.5-1.1,0.8
		c-0.4,0.3-0.9,0.6-1.3,1c-0.4,0.3-0.7,0.6-1.1,0.8c-0.4,0.3-0.9,0.7-1.3,1c-0.4,0.3-0.7,0.6-1.1,0.9c-0.4,0.3-0.9,0.7-1.3,1
		c-0.4,0.3-0.7,0.6-1.1,0.9c-0.4,0.3-0.8,0.7-1.2,1.1c-0.4,0.3-0.7,0.6-1.1,0.9c-0.4,0.4-0.8,0.7-1.2,1.1c-0.4,0.3-0.7,0.6-1,1
		c-0.4,0.4-0.8,0.7-1.2,1.1c-0.3,0.3-0.7,0.7-1,1c-1.3,1.3-2.6,2.6-3.9,4l-3,3.1c1,1.1,2,2.2,3,3.3c0.3,0.3,0.6,0.6,0.9,1
		c-0.3-0.3-0.6-0.6-0.9-1l3.2,3.4l0.1-0.1c22.9,22.5,52.7,34.9,84.4,34.9c0,0,0,0,0,0c0,0,0,0,0,0c18.6,0,36.5-4.2,52.7-12.2
		l-2.8-8.8c-5.2,2.6-10.6,4.8-16.1,6.6c4.7-4.3,9.1-9.6,13.2-15.7l-3.6-11.2c-10.8,18.8-24.4,30-38.9,31.9v-64
		c5.3,0.2,10.6,0.8,15.8,1.8c1.3,0.2,2.5,0.5,3.8,0.8c-1.1-0.9-1.8-2.3-1.8-3.9c0-2.6,1.9-4.7,4.3-5c-0.4-0.1-0.8-0.2-1.3-0.3
		c-0.5-0.1-0.9-0.2-1.4-0.3c-0.5-0.1-1-0.2-1.6-0.3c-0.5-0.1-0.9-0.2-1.4-0.3c-0.5-0.1-1.1-0.2-1.6-0.3c-0.5-0.1-0.9-0.1-1.4-0.2
		c-0.5-0.1-1.1-0.2-1.6-0.2c-0.5-0.1-0.9-0.1-1.4-0.2c-0.5-0.1-1.1-0.1-1.6-0.2c-0.4,0-0.9-0.1-1.3-0.1c-0.6-0.1-1.1-0.1-1.7-0.2
		c-0.4,0-0.9-0.1-1.3-0.1c-0.6,0-1.2-0.1-1.8-0.1c-0.4,0-0.8-0.1-1.2-0.1c-0.5,0-1.1,0-1.6-0.1v-39h58.7c-0.1,4-0.3,7.9-0.6,11.8
		c-0.2,2.1,1.1,4,3,4.7c2.7,0.9,5.6-1,5.9-4c0.3-4.1,0.5-8.3,0.6-12.5h30.5c2.5,0,4.5-2.1,4.5-4.6
		C240.1,133.7,238.1,131.6,235.6,131.6z M61,131.6H19.6c0.8-22.9,8-44.6,20.9-63.2c0.7,0.9,1.5,1.8,2.3,2.6c0.2,0.2,0.3,0.3,0.4,0.5
		c1,1.1,2.1,2.3,3.2,3.4c0.4,0.4,0.8,0.8,1.2,1.2c0.7,0.7,1.4,1.4,2,2c0.5,0.5,1.1,1,1.7,1.5c0.5,0.5,1.1,1,1.6,1.5
		c0.6,0.6,1.3,1.1,2,1.7c0.5,0.4,0.9,0.8,1.4,1.2c0.7,0.6,1.5,1.2,2.2,1.8c0.3,0.3,0.7,0.5,1,0.8c0.9,0.7,1.7,1.3,2.6,2
		c0.1,0,0.1,0.1,0.2,0.1c1.1,0.8,2.2,1.6,3.3,2.3C62.8,103.9,61.3,117.6,61,131.6z M67.9,81.6C67.9,81.6,67.9,81.6,67.9,81.6
		C67.9,81.6,67.9,81.6,67.9,81.6c-5.4-4-10.6-8.4-15.3-13.3c-0.2-0.2-0.4-0.4-0.6-0.6c-0.6-0.6-1.1-1.2-1.7-1.8
		c-0.4-0.5-0.8-0.9-1.2-1.4c-0.5-0.5-0.9-1-1.3-1.5c-0.5-0.6-1-1.2-1.5-1.8c-0.1-0.1-0.1-0.2-0.2-0.2c14.2-17.4,32.6-30,53.1-36.6
		c-6.6,6.1-12.6,13.9-17.9,23.5C75.8,57.9,71.3,69.3,67.9,81.6c2.6,1.8,5.2,3.6,7.9,5.2c0,0,0,0,0,0C73.1,85.1,70.5,83.4,67.9,81.6
		C67.9,81.6,67.9,81.6,67.9,81.6z M128.6,253.2c-10.1-0.4-19.9-2.1-29.3-5.2c0.6,0.6,1.3,1.2,1.9,1.7c-0.7-0.6-1.3-1.1-1.9-1.7
		c-16.5-5.3-31.6-14.4-44.4-26.9c0.2-0.2,0.3-0.3,0.5-0.5c-0.2,0.2-0.3,0.3-0.5,0.5c0,0,0,0,0,0c0,0,0,0,0,0
		c0.2-0.2,0.3-0.3,0.5-0.5c0.3-0.3,0.7-0.6,1-0.9c0.4-0.3,0.7-0.7,1.1-1c0.3-0.3,0.7-0.6,1-0.9c0.4-0.3,0.7-0.7,1.1-1
		c0.3-0.3,0.7-0.6,1-0.9c0.4-0.3,0.7-0.6,1.1-0.9c0.3-0.3,0.7-0.6,1-0.9c0.4-0.3,0.8-0.6,1.1-0.9c0.4-0.3,0.7-0.6,1.1-0.8
		c0.4-0.3,0.8-0.6,1.2-0.9c0.4-0.3,0.7-0.5,1.1-0.8c0.4-0.3,0.8-0.6,1.2-0.9c0.4-0.3,0.7-0.5,1.1-0.8c0.4-0.3,0.8-0.6,1.2-0.8
		c0.4-0.2,0.7-0.5,1.1-0.7c0.4-0.3,0.8-0.5,1.2-0.8c0,0,0,0,0,0c-1.1-2.9-2.1-5.8-3.1-8.9c-0.2,0.1-0.3,0.2-0.5,0.3
		c0.2-0.1,0.3-0.2,0.5-0.3c0,0,0,0,0,0c0,0,0,0,0,0c1,3,2,6,3.1,8.9c0.4-0.2,0.7-0.5,1.1-0.7c0.2-0.1,0.4-0.3,0.7-0.4
		c-0.2,0.1-0.4,0.3-0.7,0.4c-0.4,0.2-0.7,0.5-1.1,0.7c2.4,6.4,5.2,12.4,8.3,18c5.3,9.6,11.4,17.4,18,23.5
		C108.7,251.1,118.5,252.8,128.6,253.2L128.6,253.2z M77.4,193.5c-0.1,0.1-0.2,0.1-0.3,0.2c-0.6,0.3-1.2,0.7-1.8,1
		c-0.1,0.1-0.2,0.1-0.4,0.2c0.1-0.1,0.2-0.1,0.4-0.2c0.6-0.3,1.2-0.7,1.8-1C77.2,193.6,77.3,193.5,77.4,193.5
		c-0.1,0.1-0.2,0.1-0.3,0.2C77.2,193.6,77.3,193.5,77.4,193.5z M77.2,204c-0.3,0.2-0.5,0.3-0.8,0.5c-0.2,0.1-0.4,0.2-0.5,0.3
		c0.2-0.1,0.3-0.2,0.5-0.3C76.7,204.3,77,204.2,77.2,204z M128.6,253c-14.8-1.9-28.7-13.5-39.5-33c-3.1-5.6-5.8-11.6-8.2-18
		c0.1-0.1,0.3-0.1,0.4-0.2c-0.1,0.1-0.3,0.1-0.4,0.2c-0.4,0.2-0.7,0.4-1.1,0.6c0.4-0.2,0.7-0.4,1.1-0.6c-0.5-1.2-0.9-2.5-1.3-3.7
		c0.4,1.3,0.9,2.5,1.3,3.7c0.1-0.1,0.3-0.1,0.4-0.2c0.4-0.2,0.7-0.4,1.1-0.5c0.5-0.2,0.9-0.5,1.4-0.7c0.4-0.2,0.8-0.4,1.2-0.6
		c0.4-0.2,0.9-0.4,1.3-0.6c0.4-0.2,0.8-0.4,1.2-0.5c0.4-0.2,0.9-0.4,1.3-0.6c0.4-0.2,0.8-0.3,1.2-0.5c0.4-0.2,0.9-0.4,1.3-0.6
		c0.4-0.2,0.8-0.3,1.2-0.5c0.4-0.2,0.9-0.3,1.3-0.5c0.4-0.2,0.8-0.3,1.2-0.5c0.4-0.2,0.9-0.3,1.3-0.5c0.4-0.1,0.8-0.3,1.3-0.4
		c0.4-0.2,0.9-0.3,1.3-0.4c0.4-0.1,0.8-0.3,1.3-0.4c0.5-0.1,0.9-0.3,1.4-0.4c0.4-0.1,0.9-0.2,1.3-0.4c0.5-0.1,0.9-0.3,1.4-0.4
		c0.4-0.1,0.9-0.2,1.3-0.3c0.5-0.1,0.9-0.2,1.4-0.3c0.4-0.1,0.9-0.2,1.3-0.3c0.5-0.1,0.9-0.2,1.4-0.3c0.4-0.1,0.9-0.2,1.3-0.3
		c0.5-0.1,1-0.2,1.4-0.3c0.4-0.1,0.9-0.2,1.3-0.2c0.5-0.1,1-0.2,1.5-0.2c0.4-0.1,0.8-0.1,1.3-0.2c0.5-0.1,1-0.1,1.5-0.2
		c0.4-0.1,0.8-0.1,1.3-0.2c0.5-0.1,1-0.1,1.5-0.2c0.4,0,0.8-0.1,1.2-0.1c0.5-0.1,1-0.1,1.6-0.1c0.4,0,0.8-0.1,1.2-0.1
		c0.6,0,1.1-0.1,1.7-0.1c0.4,0,0.8-0.1,1.1-0.1c0.4,0,0.8,0,1.2,0V253z M128.6,179.8c-0.5,0-1.1,0-1.6,0.1c-0.4,0-0.8,0.1-1.2,0.1
		c-0.6,0-1.2,0.1-1.8,0.1c-0.4,0-0.9,0.1-1.3,0.1c-0.6,0-1.1,0.1-1.7,0.2c-0.4,0-0.9,0.1-1.3,0.1c-0.6,0.1-1.1,0.1-1.6,0.2
		c-0.5,0.1-0.9,0.1-1.4,0.2c-0.5,0.1-1.1,0.1-1.6,0.2c-0.5,0.1-0.9,0.1-1.4,0.2c-0.5,0.1-1.1,0.2-1.6,0.3c-0.5,0.1-0.9,0.2-1.4,0.3
		c-0.5,0.1-1,0.2-1.6,0.3c-0.5,0.1-0.9,0.2-1.4,0.3c-0.5,0.1-1,0.2-1.5,0.3c-0.5,0.1-0.9,0.2-1.4,0.3c-0.5,0.1-1,0.2-1.5,0.4
		c-0.5,0.1-0.9,0.2-1.4,0.4c-0.5,0.1-1,0.3-1.5,0.4c-0.5,0.1-0.9,0.3-1.4,0.4c-0.5,0.1-1,0.3-1.5,0.5c-0.5,0.1-0.9,0.3-1.3,0.4
		c-0.5,0.2-1,0.3-1.5,0.5c-0.4,0.2-0.9,0.3-1.3,0.5c-0.5,0.2-1,0.4-1.5,0.5c-0.4,0.2-0.9,0.3-1.3,0.5c-0.5,0.2-1,0.4-1.5,0.6
		c-0.4,0.2-0.9,0.3-1.3,0.5c-0.5,0.2-1,0.4-1.5,0.6c-0.4,0.2-0.9,0.4-1.3,0.5c-0.5,0.2-1,0.4-1.5,0.7c-0.4,0.2-0.8,0.4-1.2,0.6
		c-0.5,0.2-1,0.5-1.5,0.7c-0.4,0.2-0.8,0.4-1.2,0.6c-0.5,0.3-1,0.5-1.6,0.8c0,0,0,0,0,0c-0.1,0.1-0.2,0.1-0.3,0.2v0c0,0,0,0,0,0
		c0.4,1.3,0.8,2.6,1.2,3.8c-0.4-1.3-0.8-2.5-1.2-3.8c0,0,0,0,0,0v0c0,0,0,0,0,0c-4.9-15.9-7.6-33.8-8-52.4h58.7V179.8z M128.6,131.6
		H69.9c0.3-12.3,1.5-24.2,3.8-35.5c1.1,0.6,2.2,1.2,3.2,1.8c0,0,0.1,0,0.1,0.1c0.9,0.5,1.9,1,2.8,1.5c0.3,0.2,0.7,0.3,1,0.5
		c0.9,0.4,1.8,0.9,2.7,1.3c0.4,0.2,0.9,0.4,1.3,0.6c1.1,0.5,2.3,1,3.4,1.5c0.9,0.4,1.8,0.7,2.8,1.1c0.6,0.2,1.2,0.4,1.8,0.6
		c0.8,0.3,1.6,0.6,2.5,0.9c0.6,0.2,1.1,0.4,1.7,0.5c0.9,0.3,1.9,0.6,2.8,0.9c0.3,0.1,0.6,0.2,1,0.3c0.1,0,0.1,0,0.2,0
		c0.3,0.1,0.6,0.2,0.9,0.3c0,0,0,0,0,0c8.7,2.4,17.8,3.7,26.9,4.1V131.6z M128.6,102.7c-8.3-0.3-16.6-1.6-24.6-3.8c0,0,0,0,0,0
		c-0.7-0.2-1.4-0.4-2.1-0.6c-0.8-0.2-1.5-0.5-2.3-0.7c-0.6-0.2-1.2-0.4-1.8-0.6c-0.7-0.2-1.3-0.4-2-0.7c-0.7-0.2-1.4-0.5-2-0.8
		c-0.5-0.2-1.1-0.4-1.6-0.6c-0.8-0.3-1.5-0.6-2.3-0.9c-0.4-0.2-0.8-0.3-1.2-0.5c-0.9-0.4-1.8-0.8-2.7-1.2c-0.2-0.1-0.3-0.2-0.5-0.2
		c-3.4-1.6-6.6-3.4-9.8-5.3c3.2-12.6,7.7-24.2,13.3-34.3c10.9-19.5,24.8-31.1,39.5-33V102.7z M137.5,131.6V19.5
		c14.8,1.9,28.7,13.5,39.5,33c5.6,10.1,10.1,21.7,13.3,34.3c-0.1,0-0.1,0.1-0.2,0.1c-0.5,0.3-0.9,0.6-1.4,0.8
		c-0.9,0.5-1.8,1-2.7,1.5c-0.2,0.1-0.5,0.3-0.7,0.4c-0.9,0.5-1.9,1-2.8,1.5c-0.3,0.1-0.5,0.3-0.8,0.4c-1,0.5-2,1-3.1,1.5
		c-0.1,0-0.2,0.1-0.3,0.1c-2.4,1.1-4.9,2.1-7.4,3c-0.1,0-0.1,0-0.2,0.1c-2.5,0.9-5,1.7-7.6,2.4c-0.1,0-0.2,0-0.3,0.1
		c-1.2,0.3-2.3,0.6-3.5,0.9c-0.1,0-0.3,0.1-0.4,0.1c-1.2,0.3-2.5,0.6-3.8,0.8c-0.1,0-0.3,0-0.4,0.1c-1.1,0.2-2.1,0.4-3.2,0.6
		c-0.7,0.1-1.3,0.2-2,0.3c-2.4,0.4-4.1,2.7-3.8,5.2c0.3,2.3,2.2,3.9,4.4,3.9c0.2,0,0.4,0,0.6,0c0.5-0.1,1-0.2,1.5-0.2
		c0,0,0.1,0,0.1,0c0.2,0,0.4-0.1,0.6-0.1c1.2-0.2,2.4-0.4,3.5-0.6c0.1,0,0.2,0,0.4-0.1c1.4-0.3,2.7-0.6,4.1-0.9
		c0.1,0,0.3-0.1,0.4-0.1c1.3-0.3,2.6-0.7,3.9-1c0.1,0,0.2,0,0.2-0.1c2.8-0.8,5.5-1.7,8.3-2.7c0,0,0.1,0,0.1,0c2.7-1,5.4-2.1,8-3.3
		c0.1,0,0.2-0.1,0.3-0.1c1.1-0.5,2.2-1,3.3-1.6c0.3-0.1,0.6-0.3,0.9-0.4c1-0.5,2-1,3-1.5c0.3-0.2,0.6-0.3,1-0.5
		c0.7-0.4,1.5-0.8,2.2-1.2c2.2,11.3,3.5,23.2,3.8,35.5H137.5z"/>
	<path class="st1" d="M162.9,183.5C162.9,183.5,162.8,183.5,162.9,183.5c-0.6-0.2-1.1-0.3-1.6-0.4c-0.5-0.1-0.9-0.2-1.4-0.3
		c-0.1,0-0.2,0-0.3-0.1c-2.4,0.3-4.3,2.4-4.3,5c0,1.6,0.7,3,1.8,3.9c1.1,0.3,2.3,0.5,3.4,0.8c0.2,0.1,0.5,0.1,0.7,0.2
		c2.2-0.5,3.8-2.5,3.8-4.9C165.1,185.9,164.2,184.4,162.9,183.5z"/>
</g>
<path class="st2" d="M206.5,271.3h-0.2c-3.1-0.1-5.9-2.2-6.9-5.3l-31.5-97.5c-0.9-2.8-0.2-5.8,1.8-7.9c2-2.1,5-2.8,7.6-1.9
	l94.5,32.5c3,1,5,3.9,5.1,7.1c0.1,3.2-1.8,6.2-4.8,7.4l-42.4,16.8l-16.3,43.7C212.3,269.4,209.6,271.3,206.5,271.3"/>
</svg>
